<?xml version="1.0" standalone="no"?>
<!DOCTYPE svg PUBLIC "-//W3C//DTD SVG 1.1//EN" "http://www.w3.org/Graphics/SVG/1.1/DTD/svg11.dtd" >
<svg>
<metadata>
Created by FontForge 20090622 at Wed Jan 31 08:11:50 2018
 By deploy user
Copyright (c) 2012 by Jos Buivenga. All rights reserved.
</metadata>
<defs>
<font id="MuseoSansCyrillic-900" horiz-adv-x="600" >
  <font-face 
    font-family="Museo Sans Cyrillic"
    font-weight="900"
    font-stretch="normal"
    units-per-em="1000"
    panose-1="2 0 0 0 0 0 0 0 0 0"
    ascent="774"
    descent="-226"
    x-height="515"
    cap-height="715"
    bbox="-129 -215 1230 918"
    underline-thickness="50"
    underline-position="-50"
    unicode-range="U+0020-U+FB04"
  />
<missing-glyph horiz-adv-x="510" 
d="M505 0h-500v700h500v-700zM85 650l170 -255l170 255h-340zM455 605l-170 -255l170 -255v510zM55 605v-510l170 255zM255 305l-170 -255h340z" />
    <glyph glyph-name="f_f" unicode="ff" horiz-adv-x="763" 
d="M265 0h-173v380h-63v135h63v12q0 92 58 141q28 21 59 32q56 19 119 19q34 0 52 -3v-146q-10 2 -28 2q-87 0 -87 -50v-7h211v12q0 92 58 141q28 21 59 32q56 19 119 19q34 0 52 -3v-146q-10 2 -28 2q-87 0 -87 -50v-7h95v-135h-95v-380h-173v380h-211v-380z" />
    <glyph glyph-name="fi" unicode="fi" horiz-adv-x="675" 
d="M265 0h-173v380h-63v135h63v12q0 92 58 141q28 21 59 32q56 19 119 19q34 0 52 -3v-146q-10 2 -28 2q-87 0 -87 -50v-7h352v-515h-173v380h-179v-380zM615 580h-169v135h169v-135z" />
    <glyph glyph-name="fl" unicode="fl" horiz-adv-x="705" 
d="M268 0h-173v371h-63v135h63v21q0 92 58 141q28 21 59 32q56 19 119 19q34 0 52 -3v-146q-10 2 -28 2q-87 0 -87 -50v-16h95v-135h-95v-371zM440 190v525h173v-502q0 -39 9.5 -52.5t38.5 -13.5q16 0 21 1v-150q-36 -3 -52 -3q-78 0 -129 32q-61 39 -61 163z" />
    <glyph glyph-name="f_f_i" unicode="ffi" horiz-adv-x="1059" 
d="M265 0h-173v380h-63v135h63v12q0 92 58 141q28 21 59 32q56 19 119 19q34 0 52 -3v-146q-10 2 -28 2q-87 0 -87 -50v-7h211v12q0 92 58 141q28 21 59 32q56 19 119 19q34 0 52 -3v-146q-10 2 -28 2q-87 0 -87 -50v-7h352v-515h-173v380h-179v-380h-173v380h-211v-380z
M999 580h-169v135h169v-135z" />
    <glyph glyph-name="f_f_l" unicode="ffl" horiz-adv-x="1086" 
d="M265 0h-173v380h-63v135h63v12q0 92 58 141q28 21 59 32q56 19 119 19q34 0 52 -3v-146q-10 2 -28 2q-87 0 -87 -50v-7h211v12q0 92 58 141q28 21 59 32q56 19 119 19q34 0 52 -3v-146q-10 2 -28 2q-87 0 -87 -50v-7h95v-135h-95v-380h-173v380h-211v-380zM821 190v525
h173v-502q0 -39 9.5 -52.5t38.5 -13.5q16 0 21 1v-150q-36 -3 -52 -3q-78 0 -129 32q-61 39 -61 163z" />
    <glyph glyph-name="f_j" unicode="fj" horiz-adv-x="675" 
d="M265 0h-173v380h-63v135h63v12q0 92 58 141q28 21 59 32q56 19 119 19q34 0 52 -3v-146q-10 2 -28 2q-87 0 -87 -50v-7h352v-528q0 -96 -62 -144q-27 -21 -61 -32q-56 -19 -119 -19q-23 0 -46 3v144q5 -1 22 -1q93 0 93 66v376h-179v-380zM615 580h-169v135h169v-135z
" />
    <glyph glyph-name=".notdef" horiz-adv-x="510" 
d="M505 0h-500v700h500v-700zM85 650l170 -255l170 255h-340zM455 605l-170 -255l170 -255v510zM55 605v-510l170 255zM255 305l-170 -255h340z" />
    <glyph glyph-name=".null" horiz-adv-x="0" 
 />
    <glyph glyph-name="nonmarkingreturn" horiz-adv-x="333" 
 />
    <glyph glyph-name="space" unicode=" " horiz-adv-x="250" 
 />
    <glyph glyph-name="exclam" unicode="!" horiz-adv-x="308" 
d="M228 221h-148l-16 494h180zM233 0h-158v150h158v-150z" />
    <glyph glyph-name="quotedbl" unicode="&#x22;" horiz-adv-x="437" 
d="M375 490h-122v240h122v-240zM184 490h-122v240h122v-240z" />
    <glyph glyph-name="numbersign" unicode="#" horiz-adv-x="706" 
d="M237 0h-134l31 180h-101l20 120h101l17 95h-99l20 120h99l35 200h134l-35 -200h108l35 200h134l-35 -200h105l-20 -120h-105l-17 -95h103l-20 -120h-103l-31 -180h-134l31 180h-108zM305 395l-17 -95h108l17 95h-108z" />
    <glyph glyph-name="dollar" unicode="$" 
d="M42 90l92 133q35 -32 82.5 -53t88.5 -21q33 0 54 14.5t21 42.5q0 34 -115 79q-41 16 -72.5 33t-66 44t-53.5 64.5t-18 81.5q0 81 52.5 139t138.5 74v94h109v-91q108 -10 183 -78l-74 -143q-33 28 -76 45.5t-82 17.5q-32 0 -54 -14.5t-22 -41.5q0 -21 29 -39.5t85 -40.5
q213 -72 211 -220q0 -82 -54 -143q-52 -60 -146 -75v-91h-109v91q-129 20 -204 98z" />
    <glyph glyph-name="percent" unicode="%" horiz-adv-x="857" 
d="M215 382q-76 0 -129 50q-52 49 -52 122q0 71 53 122t128 51t128 -51t53 -122q0 -72 -53 -122t-128 -50zM226 0h-152l552 715h152zM270 555q0 21 -16.5 36.5t-38.5 15.5t-38.5 -15.5t-16.5 -36.5q0 -22 16 -37.5t39 -15.5t39 15.5t16 37.5zM461 160q0 71 53 122t128 51
q76 0 128 -51q53 -51 53 -122q0 -72 -53 -122t-128 -50q-76 0 -129 50q-52 49 -52 122zM587 161q0 -22 16 -37.5t39 -15.5t39 15.5t16 37.5q0 21 -16.5 36.5t-38.5 15.5t-38.5 -15.5t-16.5 -36.5z" />
    <glyph glyph-name="ampersand" unicode="&#x26;" horiz-adv-x="699" 
d="M44 207q0 55 31.5 102.5t82.5 68.5v2q-39 19 -61.5 61t-22.5 93q0 97 68 145q69 48 168 48q44 0 103 -12l-40 -137q-15 4 -39 4q-37 0 -60 -19.5t-23 -54.5q0 -30 20 -49.5t53 -19.5h87v88h172v-88h89v-150h-89v-69q0 -100 -73 -166q-74 -66 -200 -66q-119 0 -193 62
q-73 63 -73 157zM223 218q0 -29 25 -50t62 -21q47 0 74 23t27 60v59h-98q-90 0 -90 -71z" />
    <glyph glyph-name="quotesingle" unicode="'" horiz-adv-x="249" 
d="M187 490h-125v240h125v-240z" />
    <glyph glyph-name="parenleft" unicode="(" horiz-adv-x="332" 
d="M306 -95h-142q-124 196 -124 442q0 213 124 403h142q-113 -190 -113 -403q0 -227 113 -442z" />
    <glyph glyph-name="parenright" unicode=")" horiz-adv-x="332" 
d="M168 -95h-142q113 215 113 442q0 213 -113 403h142q124 -190 124 -403q0 -246 -124 -442z" />
    <glyph glyph-name="asterisk" unicode="*" horiz-adv-x="495" 
d="M246 406l-55 -97l-122 88l75 83v2l-110 23l46 143l102 -45l-11 112h152l-12 -112l103 46l47 -143l-111 -23v-2l76 -83l-122 -89l-56 97h-2z" />
    <glyph glyph-name="plus" unicode="+" 
d="M232 222h-205v130h205v223h136v-223h205v-130h-205v-222h-136v222z" />
    <glyph glyph-name="comma" unicode="," horiz-adv-x="298" 
d="M138 -111h-127l75 277h165z" />
    <glyph glyph-name="hyphen" unicode="-" horiz-adv-x="432" 
d="M373 212h-314v150h314v-150z" />
    <glyph glyph-name="period" unicode="." horiz-adv-x="282" 
d="M223 0h-164v164h164v-164z" />
    <glyph glyph-name="slash" unicode="/" horiz-adv-x="452" 
d="M170 -42h-144l256 792h144z" />
    <glyph glyph-name="zero" unicode="0" horiz-adv-x="636" 
d="M445 16q-52 -28 -127 -28t-128 28q-95 52 -127 198q-14 67 -14 145q0 77 14 144q32 146 127 196q53 28 128 28t127 -28q96 -49 128 -196q14 -67 14 -144q0 -78 -14 -145q-32 -146 -128 -198zM407 359q0 208 -89 208t-89 -208q0 -211 89 -211t89 211z" />
    <glyph glyph-name="one" unicode="1" horiz-adv-x="552" 
d="M531 0h-476v150h152v298l1 55h-2q-10 -21 -28 -38l-43 -39l-101 108l193 181h151v-565h153v-150z" />
    <glyph glyph-name="two" unicode="2" horiz-adv-x="599" 
d="M550 0h-495q-8 48 -8 77q0 61 23 115q21 48 51.5 81t79.5 71q19 15 55.5 39.5t53 37.5t31.5 32t15 38q0 34 -22 52.5t-55 18.5q-32 0 -60 -21t-46 -55l-130 87q37 71 101 112.5t151 41.5q97 0 171 -57q73 -55 73 -162q0 -117 -103 -197q-23 -17 -81 -53.5t-85 -60.5
t-29 -47h309v-150z" />
    <glyph glyph-name="three" unicode="3" horiz-adv-x="582" 
d="M30 82l84 135q65 -64 147 -64q46 0 74 20t28 51q0 79 -133 79h-50l-37 85l94 113q39 47 54 59l8 8v2q-25 -5 -68 -5h-171v150h451v-109l-145 -167q79 -16 126 -74t47 -133q0 -101 -70 -172q-69 -72 -195 -72q-151 0 -244 94z" />
    <glyph glyph-name="four" unicode="4" horiz-adv-x="633" 
d="M341 173h-317v106l276 436h214v-397h85v-145h-85v-173h-173v173zM202 320v-2h139v160l6 80h-2q-15 -43 -35 -74z" />
    <glyph glyph-name="five" unicode="5" horiz-adv-x="582" 
d="M37 82l84 135q67 -64 145 -64q41 0 70.5 24t29.5 64q0 41 -31.5 65t-82.5 24q-48 0 -96 -24l-93 35l29 374h400v-150h-248l-4 -66l-4 -28h2q18 7 52 7q122 0 189 -67q67 -66 67 -168q0 -111 -74 -183t-191 -72q-147 0 -244 94z" />
    <glyph glyph-name="six" unicode="6" horiz-adv-x="615" 
d="M45 330q0 152 86 271q43 58 109.5 92t145.5 34q95 0 158 -31l-47 -150q-11 6 -44 14q-29 7 -54 7q-115 0 -154 -118h2q13 9 43.5 17t54.5 8q105 0 170 -74q64 -73 64 -171t-67 -169q-66 -72 -177 -72q-118 0 -204 89t-86 253zM335 148q32 0 52 23t20 57q0 45 -28 75
t-80 30q-74 0 -74 -43q0 -60 35 -101t75 -41z" />
    <glyph glyph-name="seven" unicode="7" horiz-adv-x="563" 
d="M246 0h-183l253 501q24 46 37 59l5 6v2q-6 -3 -42 -3h-283v150h513v-122z" />
    <glyph glyph-name="eight" unicode="8" horiz-adv-x="621" 
d="M43 210q0 39 20 79q30 59 79 95q-65 59 -65 137q0 86 61 146q62 60 179 60q103 0 173 -56q69 -55 69 -151q0 -79 -70 -164q84 -58 84 -150q0 -90 -70 -154t-195 -64q-124 0 -195 65q-70 66 -70 157zM362 419q26 43 26 88q0 30 -20 48t-55 18q-31 0 -48 -15t-17 -41
q0 -30 26 -51t88 -47zM222 225q0 -35 25 -59t61 -24q40 0 63 19t23 54q0 27 -33 47q-18 12 -35 20l-20 10q-5 3 -45 21q-39 -41 -39 -88z" />
    <glyph glyph-name="nine" unicode="9" horiz-adv-x="615" 
d="M71 19l47 150q50 -21 98 -21q115 0 154 118h-2q-12 -10 -42 -17.5t-56 -7.5q-106 0 -170 73t-64 172q0 97 66 169q67 72 178 72q118 0 204 -89t86 -253q0 -153 -87 -271q-42 -58 -108.5 -92t-145.5 -34q-95 0 -158 31zM316 382q74 0 74 43q0 60 -35 101t-75 41
q-32 0 -52 -23t-20 -57q0 -45 28 -75t80 -30z" />
    <glyph glyph-name="colon" unicode=":" horiz-adv-x="282" 
d="M223 351h-164v164h164v-164zM223 0h-164v164h164v-164z" />
    <glyph glyph-name="semicolon" unicode=";" horiz-adv-x="306" 
d="M246 351h-158v164h158v-164zM146 -111h-128l65 277h166z" />
    <glyph glyph-name="less" unicode="&#x3c;" 
d="M538 11l-504 223v107l504 223v-145l-330 -131v-2l330 -130v-145z" />
    <glyph glyph-name="equal" unicode="=" 
d="M553 337h-506v130h506v-130zM553 107h-506v130h506v-130z" />
    <glyph glyph-name="greater" unicode="&#x3e;" 
d="M565 234l-504 -223v145l330 130v2l-330 131v145l504 -223v-107z" />
    <glyph glyph-name="question" unicode="?" horiz-adv-x="509" 
d="M301 221h-166v50q0 72 55 120l33.5 28.5t35.5 31.5t22 28.5t11 34.5q0 25 -21 42t-50 17q-46 0 -95 -43l-96 117q83 83 209 83q91 0 162 -53t71 -143q0 -88 -61 -144l-36.5 -31.5t-38.5 -35t-23 -30.5t-12 -36v-36zM297 0h-158v150h158v-150z" />
    <glyph glyph-name="at" unicode="@" horiz-adv-x="845" 
d="M439 615q157 0 227 -67q71 -66 71 -173v-198h74v-119h-283q-106 0 -167 54q-60 54 -60 128q0 71 59 124q59 52 168 52h49q0 30 -42 47t-93 17q-95 0 -161 -74t-66 -167q0 -102 67 -170q68 -69 185 -69v-130q-191 0 -307 105q-114 105 -114 264t112 267q112 109 281 109z
M538 177h39v134h-37q-42 3 -59.5 -32t-0.5 -70t58 -32z" />
    <glyph glyph-name="A" unicode="A" horiz-adv-x="664" 
d="M177 0h-180l243 715h184l243 -715h-180l-44 150h-223zM302 429l-41 -139h141l-40 139l-29 123h-2q-19 -89 -29 -123z" />
    <glyph glyph-name="B" unicode="B" horiz-adv-x="647" 
d="M338 0h-263v715h263q112 0 177.5 -49t65.5 -138q0 -46 -22 -87.5t-61 -64.5v-2q55 -17 83.5 -61t28.5 -100q0 -108 -77 -161q-76 -52 -195 -52zM250 565v-127h90q30 0 46.5 18.5t16.5 47.5q0 28 -17 44.5t-49 16.5h-87zM250 298v-148h105q35 0 55.5 21t20.5 54t-19.5 53
t-55.5 20h-106z" />
    <glyph glyph-name="C" unicode="C" horiz-adv-x="714" 
d="M37 359q0 158 105 263q106 105 270 105q165 0 268 -101l-81 -132q-37 33 -85.5 53t-93.5 20q-100 0 -151 -60q-51 -59 -51 -144q0 -87 52 -151t150 -64q102 0 190 88l90 -128q-116 -120 -288 -120q-169 0 -273 104q-102 105 -102 267z" />
    <glyph glyph-name="D" unicode="D" horiz-adv-x="737" 
d="M329 0h-254v715h254q169 0 269 -95q100 -94 100 -261q0 -168 -100 -264q-100 -95 -269 -95zM250 565v-415h72q93 0 144 54t51 155q0 99 -51.5 152.5t-143.5 53.5h-72z" />
    <glyph glyph-name="E" unicode="E" horiz-adv-x="574" 
d="M537 0h-462v715h448v-150h-273v-130h218v-150h-218v-135h287v-150z" />
    <glyph glyph-name="F" unicode="F" horiz-adv-x="537" 
d="M250 0h-175v715h438v-150h-263v-150h218v-150h-218v-265z" />
    <glyph glyph-name="G" unicode="G" horiz-adv-x="773" 
d="M37 359q0 157 106 262q106 106 269 106q166 0 275 -95l-84 -131q-31 28 -80.5 47t-93.5 19q-107 0 -159 -58q-52 -56 -52 -144q0 -99 59 -158q61 -59 146 -59q78 0 145 52v55h-101v149h256v-404h-146v20l1 30h-2q-32 -28 -83.5 -45t-104.5 -17q-144 0 -248 101
q-103 100 -103 270z" />
    <glyph glyph-name="H" unicode="H" horiz-adv-x="760" 
d="M250 0h-175v715h175v-286h260v286h175v-715h-175v280h-260v-280z" />
    <glyph glyph-name="I" unicode="I" horiz-adv-x="325" 
d="M250 0h-175v715h175v-715z" />
    <glyph glyph-name="J" unicode="J" horiz-adv-x="566" 
d="M18 220v52h175v-38q0 -86 65 -86q64 0 64 76v341h-192v150h367v-495q0 -110 -71 -172q-70 -60 -168 -60q-99 0 -169 61q-71 62 -71 171z" />
    <glyph glyph-name="K" unicode="K" horiz-adv-x="675" 
d="M250 0h-175v715h175v-276h72l148 276h188l-193 -342v-2l204 -371h-196l-151 290h-72v-290z" />
    <glyph glyph-name="L" unicode="L" horiz-adv-x="552" 
d="M542 0h-467v715h175v-565h292v-150z" />
    <glyph glyph-name="M" unicode="M" horiz-adv-x="874" 
d="M223 0h-176l59 715h190l104 -302l36 -118h2q19 70 36 118l104 302h190l58 -715h-175l-22 322q-4 39 -1 102l1 18h-2q-27 -86 -40 -120l-75 -207h-150l-75 207l-40 120h-2q5 -66 0 -120z" />
    <glyph glyph-name="N" unicode="N" horiz-adv-x="754" 
d="M250 0h-175v715h177l198 -334q26 -45 51 -102l9 -20h2q-8 82 -8 122v334h175v-715h-176l-199 333q-26 45 -51 102l-9 20h-2q8 -82 8 -122v-333z" />
    <glyph glyph-name="O" unicode="O" horiz-adv-x="820" 
d="M36 362q0 156 105 260q105 105 269 105t269 -105q105 -104 105 -260q0 -160 -105 -267t-269 -107t-269 107t-105 267zM217 362q0 -92 54 -153q55 -61 139 -61t138 61q55 61 55 153q0 88 -55 146q-54 59 -138 59q-83 0 -139 -59q-54 -58 -54 -146z" />
    <glyph glyph-name="P" unicode="P" horiz-adv-x="629" 
d="M250 0h-175v715h297q104 0 168 -69q65 -70 65 -177q0 -108 -65 -179q-64 -69 -168 -69h-122v-221zM250 565v-194h86q43 0 67 26.5t24 71.5t-23 70.5t-65 25.5h-89z" />
    <glyph glyph-name="Q" unicode="Q" horiz-adv-x="819" 
d="M36 362q0 156 105 260q105 105 269 105t269 -105q105 -104 105 -260q0 -111 -71 -212l75 -61l-99 -111l-73 69q-91 -59 -206 -59q-164 0 -269 107t-105 267zM217 362q0 -92 54 -153q55 -61 139 -61q47 0 78 16l-73 64l98 111l71 -69q19 42 19 92q0 88 -55 146
q-56 59 -138 59q-83 0 -139 -59q-54 -58 -54 -146z" />
    <glyph glyph-name="R" unicode="R" horiz-adv-x="658" 
d="M250 0h-175v715h249q94 0 139 -17q63 -24 97.5 -78t34.5 -130q0 -62 -28.5 -115.5t-78.5 -79.5v-2q11 -15 27 -43l139 -250h-195l-127 241h-82v-241zM250 565v-174h76q43 0 67 23t24 65q0 59 -42 76q-21 10 -66 10h-59z" />
    <glyph glyph-name="S" unicode="S" horiz-adv-x="575" 
d="M26 90l92 133q36 -32 83 -53t89 -21q35 0 54.5 14t19.5 36q0 15 -8 27t-25.5 23t-34 18.5l-44.5 19.5l-46 20q-73 35 -115.5 80t-42.5 121q0 98 72 158q73 61 187 61q133 0 224 -81l-74 -143q-32 28 -75 45.5t-83 17.5q-76 0 -76 -51q0 -44 82 -74l36.5 -14.5t41 -17
t37 -18.5t38.5 -23.5l30.5 -27.5t28 -35.5t15.5 -42t7 -51.5q0 -94 -68 -159q-67 -64 -186 -64q-73 0 -141.5 26.5t-117.5 75.5z" />
    <glyph glyph-name="T" unicode="T" horiz-adv-x="633" 
d="M404 0h-175v565h-217v150h609v-150h-217v-565z" />
    <glyph glyph-name="U" unicode="U" horiz-adv-x="732" 
d="M67 263v452h175v-452q0 -54 33.5 -84.5t90.5 -30.5t90.5 30.5t33.5 84.5v452h175v-452q0 -123 -82 -199t-216 -76q-136 0 -218 76t-82 199z" />
    <glyph glyph-name="V" unicode="V" horiz-adv-x="675" 
d="M429 0h-182l-253 715h190l126 -407q15 -50 24 -96l3 -19h2q13 69 27 115l128 407h187z" />
    <glyph glyph-name="W" unicode="W" horiz-adv-x="979" 
d="M384 0h-197l-174 715h184l90 -447q9 -49 9 -66v-9h2q2 31 12 75l110 447h141l107 -447q10 -37 12 -66v-9h2q0 31 9 75l98 447h181l-181 -715h-195l-90 361l-14 84h-2q-3 -34 -14 -84z" />
    <glyph glyph-name="X" unicode="X" horiz-adv-x="659" 
d="M202 0h-194l217 355l-218 360h199l78 -147l44 -92h2q21 50 44 92l79 147h199l-219 -360l218 -355h-195l-82 150l-44 89h-2q-24 -54 -44 -89z" />
    <glyph glyph-name="Y" unicode="Y" horiz-adv-x="627" 
d="M401 0h-175v293l-236 422h199l81 -172l43 -103h2q15 41 43 103l80 172h199l-236 -422v-293z" />
    <glyph glyph-name="Z" unicode="Z" horiz-adv-x="635" 
d="M595 0h-558v110l276 391q26 37 48 59l7 6v2q-23 -3 -55 -3h-263v150h540v-108l-277 -393q-29 -41 -48 -58l-7 -7v-2q22 3 55 3h282v-150z" />
    <glyph glyph-name="bracketleft" unicode="[" horiz-adv-x="352" 
d="M316 -95h-246v845h246v-120h-102v-605h102v-120z" />
    <glyph glyph-name="backslash" unicode="\" horiz-adv-x="452" 
d="M426 -42h-144l-256 792h144z" />
    <glyph glyph-name="bracketright" unicode="]" horiz-adv-x="352" 
d="M36 -95v120h102v605h-102v120h246v-845h-246z" />
    <glyph glyph-name="asciicircum" unicode="^" horiz-adv-x="630" 
d="M203 241h-145l203 474h107l203 -474h-145l-112 300z" />
    <glyph glyph-name="underscore" unicode="_" horiz-adv-x="618" 
d="M11 -130v130h596v-130h-596z" />
    <glyph glyph-name="grave" unicode="`" horiz-adv-x="484" 
d="M368 761h-134l-118 150h171z" />
    <glyph glyph-name="a" unicode="a" horiz-adv-x="553" 
d="M22 145q0 48 26.5 84.5t71.5 55.5q86 36 193 36h15v9q0 57 -73 57q-69 0 -142 -49l-60 122q36 28 96 47q63 20 122 20q107 0 168.5 -56t61.5 -154v-317h-158v31l2 32h-2q-24 -35 -65.5 -55t-87.5 -20q-74 0 -121 45t-47 112zM193 161q0 -19 13 -31.5t36 -12.5q36 0 62 29
t26 62v14h-16q-52 0 -86.5 -15.5t-34.5 -45.5z" />
    <glyph glyph-name="b" unicode="b" horiz-adv-x="633" 
d="M217 0h-159v715h173v-199l-2 -44h2q22 25 60.5 40t78.5 15q105 0 168 -75q64 -73 64 -195q0 -121 -68 -195t-172 -74q-93 0 -144 61h-2q1 -9 1 -29v-20zM226 254q0 -52 27.5 -87.5t73.5 -35.5q44 0 72.5 33.5t28.5 89.5q0 57 -28 92t-73 35t-73 -33t-28 -94z" />
    <glyph glyph-name="c" unicode="c" horiz-adv-x="552" 
d="M29 258q0 109 77 189q78 80 210 80q60 0 115 -20t90 -58l-73 -116q-53 50 -121 50q-56 0 -89.5 -35.5t-33.5 -87.5q0 -53 35 -90.5t94 -37.5q68 0 141 62l63 -121q-38 -39 -97.5 -62t-123.5 -23q-132 0 -210 79q-77 80 -77 191z" />
    <glyph glyph-name="d" unicode="d" horiz-adv-x="633" 
d="M266 527q94 0 135 -41h2q-1 7 -1 23v206h173v-715h-162v34l1 29h-2q-50 -75 -149 -75q-104 0 -169 74q-63 75 -63 196t65 195q66 74 170 74zM306 131q45 0 73 33t28 94q0 52 -27.5 87.5t-73.5 35.5q-44 0 -72.5 -33.5t-28.5 -89.5q0 -57 28 -92t73 -35z" />
    <glyph glyph-name="e" unicode="e" horiz-adv-x="567" 
d="M29 258q0 116 73 192q74 77 195 77q111 0 174 -70q64 -68 64 -179q0 -22 -4 -54h-325q9 -44 41.5 -68t78.5 -24q65 0 142 52l64 -121q-41 -35 -100 -55t-120 -20q-130 0 -207 80q-76 79 -76 190zM210 323h154q0 33 -19.5 55t-51.5 22q-66 0 -83 -77z" />
    <glyph glyph-name="f" unicode="f" horiz-adv-x="382" 
d="M268 0h-173v371h-63v135h63v21q0 92 58 141q28 21 59 32q56 19 119 19q34 0 52 -3v-146q-10 2 -28 2q-87 0 -87 -50v-16h95v-135h-95v-371z" />
    <glyph glyph-name="g" unicode="g" horiz-adv-x="625" 
d="M81 -164l49 131q68 -33 145 -33q119 0 119 99v17l1 19h-2q-45 -54 -129 -54q-110 0 -171 76t-61 183q0 106 60 179q60 74 171 74q90 0 140 -50h3q-1 4 -1 12v26h162v-468q0 -68 -25 -119t-67.5 -80.5t-92.5 -43.5t-106 -14q-107 0 -195 46zM206 280q0 -54 26 -87.5
t73 -33.5q93 0 93 113q0 111 -100 111q-43 0 -67.5 -28t-24.5 -75z" />
    <glyph glyph-name="h" unicode="h" horiz-adv-x="626" 
d="M231 0h-173v715h173v-226l-2 -44h2q22 38 64 60t93 22q185 0 185 -193v-334h-173v302q0 68 -57 68q-53 0 -82.5 -37.5t-29.5 -100.5v-232z" />
    <glyph glyph-name="i" unicode="i" horiz-adv-x="289" 
d="M229 580h-169v135h169v-135zM231 0h-173v515h173v-515z" />
    <glyph glyph-name="j" unicode="j" horiz-adv-x="289" 
d="M229 580h-169v135h169v-135zM58 4v511h173v-528q0 -96 -62 -144q-27 -21 -61 -32q-56 -19 -119 -19q-23 0 -46 3v144q5 -1 22 -1q93 0 93 66z" />
    <glyph glyph-name="k" unicode="k" horiz-adv-x="591" 
d="M231 0h-173v715h173v-370h49l102 170h188l-151 -234v-2l172 -279h-197l-109 200h-54v-200z" />
    <glyph glyph-name="l" unicode="l" horiz-adv-x="323" 
d="M57 190v525h173v-502q0 -39 9.5 -52.5t38.5 -13.5q16 0 21 1v-150q-36 -3 -52 -3q-78 0 -129 32q-61 39 -61 163z" />
    <glyph glyph-name="m" unicode="m" horiz-adv-x="909" 
d="M231 0h-173v515h166v-45l-2 -32h2q59 89 153 89q103 0 144 -87h2q23 37 68 62t97 25q79 0 123 -47.5t44 -145.5v-334h-173v305q0 65 -40 65q-50 0 -74.5 -41.5t-24.5 -110.5v-218h-173v305q0 65 -40 65q-51 0 -75 -41.5t-24 -110.5v-218z" />
    <glyph glyph-name="n" unicode="n" horiz-adv-x="626" 
d="M231 0h-173v515h166v-45l-2 -32h2q53 89 164 89q185 0 185 -193v-334h-173v302q0 68 -57 68q-53 0 -82.5 -38t-29.5 -99v-233z" />
    <glyph glyph-name="o" unicode="o" horiz-adv-x="642" 
d="M320 527q125 0 208 -76q85 -75 85 -195q0 -119 -84 -194q-85 -74 -208 -74t-208 74q-84 75 -84 194q0 118 84 195q83 76 207 76zM204 256q0 -55 33.5 -89.5t83.5 -34.5t83.5 34.5t33.5 89.5q0 56 -33.5 91.5t-83.5 35.5t-83.5 -35.5t-33.5 -91.5z" />
    <glyph glyph-name="p" unicode="p" horiz-adv-x="633" 
d="M231 -200h-173v715h156v-26l-2 -33h2q53 71 156 71q105 0 168 -75q64 -73 64 -195q0 -121 -68 -195t-172 -74q-75 0 -131 49h-2q2 -24 2 -44v-193zM226 254q0 -52 27.5 -87.5t73.5 -35.5q44 0 72.5 33.5t28.5 89.5q0 57 -28 92t-73 35t-73 -33t-28 -94z" />
    <glyph glyph-name="q" unicode="q" horiz-adv-x="633" 
d="M266 527q98 0 147 -55h2q-2 14 -2 28v15h162v-715h-173v202l2 44h-2q-49 -58 -139 -58q-104 0 -169 74q-63 75 -63 196t65 195q66 74 170 74zM306 131q45 0 73 33t28 94q0 52 -27.5 87.5t-73.5 35.5q-44 0 -72.5 -33.5t-28.5 -89.5q0 -57 28 -92t73 -35z" />
    <glyph glyph-name="r" unicode="r" horiz-adv-x="426" 
d="M231 0h-173v515h166v-87l-2 -32h2q18 55 63.5 91.5t100.5 36.5q4 0 20 -2v-170q-9 3 -35 3q-69 0 -105.5 -40.5t-36.5 -114.5v-200z" />
    <glyph glyph-name="s" unicode="s" horiz-adv-x="471" 
d="M19 64l74 113q61 -52 140 -52q47 0 47 27q0 14 -21 24.5t-64 25.5q-31 10 -54 21.5t-48.5 30t-39.5 46.5t-14 64q0 76 60 120q61 43 154 43q110 0 184 -59l-59 -120q-22 18 -59.5 30t-70.5 12q-48 0 -48 -25q0 -12 18 -22.5t44.5 -18t58 -21t58 -30t44.5 -47t18 -69.5
q0 -74 -58 -122q-58 -47 -154 -47q-125 0 -210 76z" />
    <glyph glyph-name="t" unicode="t" horiz-adv-x="411" 
d="M88 190v181h-66v135h71v148h168v-148h108v-135h-108v-158q0 -66 92 -66q16 0 23 1v-150q-39 -3 -47 -3q-90 0 -152 33q-89 55 -89 162z" />
    <glyph glyph-name="u" unicode="u" horiz-adv-x="621" 
d="M53 181v334h173v-302q0 -68 55 -68q52 0 80.5 39.5t28.5 102.5v228h173v-515h-166v45l2 32h-2q-21 -41 -65 -65t-96 -24q-183 0 -183 193z" />
    <glyph glyph-name="v" unicode="v" horiz-adv-x="572" 
d="M392 0h-211l-178 515h182l80 -274l19 -89h2q9 57 19 89l79 274h183z" />
    <glyph glyph-name="w" unicode="w" horiz-adv-x="836" 
d="M350 0h-195l-144 515h182l64 -304l6 -54h2q1 25 9 54l71 304h148l71 -304l8 -54h2q2 29 7 54l64 304h180l-144 -515h-193l-58 238l-10 55h-2q-3 -29 -10 -55z" />
    <glyph glyph-name="x" unicode="x" horiz-adv-x="550" 
d="M201 0h-190l162 255l-166 260h195l56 -115l16 -34h2l16 34l56 115h195l-165 -260l162 -255h-190l-62 116l-12 26h-2l-12 -26z" />
    <glyph glyph-name="y" unicode="y" horiz-adv-x="561" 
d="M8 -174l55 127q28 -19 53 -19q62 0 83 52l10 24l-219 505h196l76 -237l19 -80h2l17 77l65 240h189l-211 -570q-29 -77 -86 -116t-129 -39q-60 0 -105 27z" />
    <glyph glyph-name="z" unicode="z" horiz-adv-x="544" 
d="M507 0h-473v86l189 237q21 25 39 43l6 4v2q-18 -2 -45 -2h-181v145h460v-87l-188 -237q-18 -23 -40 -42l-6 -5v-2q14 3 46 3h193v-145z" />
    <glyph glyph-name="braceleft" unicode="{" horiz-adv-x="395" 
d="M117 62v98q0 88 -85 96v150q40 4 62.5 29.5t22.5 69.5v88q0 49 20 84.5t54 50.5q58 27 125 27l43 -2v-124q-14 2 -25 2q-73 0 -73 -54v-117q0 -45 -23.5 -80t-60.5 -47v-2q84 -30 84 -126v-127q0 -54 73 -54l25 2v-124q-24 -2 -43 -2q-67 0 -125 27q-34 15 -54 50.5
t-20 84.5z" />
    <glyph glyph-name="bar" unicode="|" horiz-adv-x="280" 
d="M212 -165h-144v967h144v-967z" />
    <glyph glyph-name="braceright" unicode="}" horiz-adv-x="395" 
d="M36 -98v124q14 -2 25 -2q73 0 73 54v127q0 44 22.5 79.5t61.5 46.5v2q-35 12 -59.5 46.5t-24.5 80.5v117q0 54 -73 54l-25 -2v124q24 2 43 2q67 0 124 -27q35 -15 55 -50.5t20 -84.5v-88q0 -42 22 -69t63 -30v-150q-38 -1 -61.5 -28t-23.5 -68v-98q0 -49 -20 -84.5
t-55 -50.5q-57 -27 -124 -27z" />
    <glyph glyph-name="asciitilde" unicode="~" horiz-adv-x="636" 
d="M187 191h-134q0 203 174 203q61 0 101 -40q42 -40 71 -40q25 0 40 20t15 56h133q0 -203 -173 -203q-60 0 -102 40q-40 40 -71 40q-25 0 -39.5 -20t-14.5 -56z" />
    <glyph glyph-name="uni00A0" unicode="&#xa0;" horiz-adv-x="250" 
 />
    <glyph glyph-name="exclamdown" unicode="&#xa1;" horiz-adv-x="290" 
d="M71 294h148l16 -494h-180zM66 515h158v-150h-158v150z" />
    <glyph glyph-name="cent" unicode="&#xa2;" 
d="M366 -12h-110v87q-90 21 -152 99q-61 79 -61 184q0 104 61 183t152 100v85h110v-85q69 -15 120 -60.5t73 -111.5l-154 -60q-12 34 -35.5 54.5t-54.5 20.5q-37 0 -68 -36q-30 -36 -30 -90q0 -58 27.5 -92t70.5 -34q31 0 55.5 21t34.5 54l154 -60q-21 -60 -72 -111
q-49 -50 -121 -61v-87z" />
    <glyph glyph-name="sterling" unicode="&#xa3;" 
d="M569 0h-524v150h55v149h-43v112h43v100q0 95 69 155q68 61 175 61q113 0 196 -83l-97 -118q-44 44 -94 44q-30 0 -50 -17.5t-20 -46.5v-95h165v-112h-165v-149h290v-150z" />
    <glyph glyph-name="currency" unicode="&#xa4;" horiz-adv-x="645" 
d="M287 0h-175v142h-65v111h65v57h-65v134h65v271h282q113 0 171 -55.5t58 -156.5q0 -92 -67 -143q-66 -51 -172 -51h-97v-56h244v-111h-244v-142zM287 580v-136h71q42 0 64 19.5t22 50.5q0 29 -21.5 47.5t-61.5 18.5h-74z" />
    <glyph glyph-name="yen" unicode="&#xa5;" 
d="M210 167h-163v96h163v28l-24 49h-139v96h92l-137 279h201l53 -143l43 -133h2q21 72 43 133l53 143h201l-138 -279h93v-96h-140l-24 -49v-28h164v-96h-164v-167h-179v167z" />
    <glyph glyph-name="section" unicode="&#xa7;" horiz-adv-x="529" 
d="M274 179h-131l-76 273q-10 36 -10 75q0 91 60.5 145.5t170.5 54.5q58 0 113 -20.5t94 -56.5l-74 -108q-56 47 -131 47q-98 0 -98 -83q0 -31 10 -67zM34 15l69 115q58 -55 137 -55q98 0 98 94q0 34 -13 77l-68 240h131l74 -273q10 -36 10 -75q0 -91 -60.5 -145.5
t-170.5 -54.5q-57 0 -113 20.5t-94 56.5z" />
    <glyph glyph-name="dieresis" unicode="&#xa8;" horiz-adv-x="485" 
d="M410 771h-126v140h126v-140zM201 771h-126v140h126v-140z" />
    <glyph glyph-name="copyright" unicode="&#xa9;" horiz-adv-x="807" 
d="M402 726q150 0 257 -108q106 -106 106 -260q0 -153 -106 -262q-107 -108 -257 -108q-147 0 -254 108q-105 110 -105 262q0 154 105 260q105 108 254 108zM156 358q0 -111 71 -190q71 -77 175 -77q106 0 178 77q73 77 73 190q0 112 -73 188q-72 77 -178 77
q-104 0 -175 -77t-71 -188zM404 542q58 0 101 -31t61 -84l-100 -39q-4 19 -21 34t-37 15q-24 0 -41.5 -23.5t-17.5 -58.5q0 -38 16 -60t43 -22q20 0 36 14t22 35l100 -39q-14 -47 -57 -81t-105 -34q-70 0 -121 54q-51 56 -51 133q0 78 51 132q51 55 121 55z" />
    <glyph glyph-name="ordfeminine" unicode="&#xaa;" horiz-adv-x="430" 
d="M163 383q-42 0 -73 28q-32 29 -32 74q0 109 181 109h5v8q0 36 -47 36q-39 0 -80 -27l-38 75q53 39 138 39q69 0 107 -36t38 -99v-200h-108v39h-2q-24 -46 -89 -46zM198 472q18 0 31.5 14t13.5 31v5h-10q-58 0 -58 -30q0 -20 23 -20zM366 268h-305v85h305v-85z" />
    <glyph glyph-name="guillemotleft" unicode="&#xab;" horiz-adv-x="654" 
d="M456 77l-164 205l164 206h158l-164 -206l164 -205h-158zM354 77h-158l-164 205l164 206h158l-164 -206z" />
    <glyph glyph-name="logicalnot" unicode="&#xac;" horiz-adv-x="621" 
d="M418 337h-371v130h506v-335h-135v205z" />
    <glyph glyph-name="uni00AD" unicode="&#xad;" horiz-adv-x="432" 
d="M373 212h-314v150h314v-150z" />
    <glyph glyph-name="registered" unicode="&#xae;" horiz-adv-x="807" 
d="M402 726q150 0 257 -108q106 -106 106 -260q0 -153 -106 -262q-107 -108 -257 -108q-147 0 -254 108q-105 110 -105 262q0 154 105 260q105 108 254 108zM156 358q0 -111 71 -190q71 -77 175 -77q106 0 178 77q73 77 73 190q0 112 -73 188q-72 77 -178 77
q-104 0 -175 -77t-71 -188zM380 187h-108v347h163q56 0 89 -31t33 -84q0 -34 -18.5 -58.5t-39.5 -30.5v-2q3 -2 13 -20l63 -121h-118l-49 118h-28v-118zM380 460v-83h27q40 0 40 42q0 41 -38 41h-29z" />
    <glyph glyph-name="overscore" unicode="&#xaf;" horiz-adv-x="485" 
d="M380 782h-275v112h275v-112z" />
    <glyph glyph-name="degree" unicode="&#xb0;" horiz-adv-x="438" 
d="M219 385q-76 0 -129 50q-52 49 -52 122q0 71 53 122t128 51t128 -51t53 -122q0 -72 -53 -122t-128 -50zM274 558q0 21 -16.5 36.5t-38.5 15.5t-38.5 -15.5t-16.5 -36.5q0 -22 16 -37.5t39 -15.5t39 15.5t16 37.5z" />
    <glyph glyph-name="plusminus" unicode="&#xb1;" 
d="M232 222h-205v130h205v223h136v-223h205v-130h-205v-222h-136v222zM37 -200v130h526v-130h-526z" />
    <glyph glyph-name="twosuperior" unicode="&#xb2;" horiz-adv-x="400" 
d="M364 423h-327q-5 32 -5 49q0 97 70 147q17 12 56 35.5t56 38.5t17 32q0 15 -13 24.5t-32 9.5q-35 0 -71 -45l-83 71q24 40 68.5 64.5t94.5 24.5q64 0 113 -37q50 -36 50 -106q0 -44 -26 -81t-63 -56q-91 -44 -96 -63h191v-108z" />
    <glyph glyph-name="threesuperior" unicode="&#xb3;" horiz-adv-x="400" 
d="M187 413q-101 0 -160 68l61 90q34 -43 91 -43q24 0 39 12t15 30q0 36 -62 36h-37l-24 57l62 69l24 23v2q-28 -2 -34 -2h-110v109h294v-79l-83 -91q97 -24 97 -126q0 -63 -46 -109t-127 -46z" />
    <glyph glyph-name="acute" unicode="&#xb4;" horiz-adv-x="484" 
d="M250 761h-134l81 150h171z" />
    <glyph glyph-name="mu" unicode="&#xb5;" horiz-adv-x="632" 
d="M210 -8h-2q8 -51 8 -88v-104h-147v715h173v-302q0 -68 55 -68q52 0 80.5 39.5t28.5 102.5v228h173v-515h-166v50l2 27h-3q-11 -18 -23 -31q-51 -58 -137 -58q-25 0 -42 4z" />
    <glyph glyph-name="mu" unicode="&#x3bc;" horiz-adv-x="632" 
d="M210 -8h-2q8 -51 8 -88v-104h-147v715h173v-302q0 -68 55 -68q52 0 80.5 39.5t28.5 102.5v228h173v-515h-166v50l2 27h-3q-11 -18 -23 -31q-51 -58 -137 -58q-25 0 -42 4z" />
    <glyph glyph-name="paragraph" unicode="&#xb6;" horiz-adv-x="671" 
d="M385 -50h-120v291q-97 0 -165 69q-68 70 -68 169q0 100 68 168t165 68h357v-150h-237v-615zM567 -50h-120v565h120v-565z" />
    <glyph glyph-name="middot" unicode="&#xb7;" horiz-adv-x="276" 
d="M217 213h-158v164h158v-164z" />
    <glyph glyph-name="cedilla" unicode="&#xb8;" horiz-adv-x="484" 
d="M190 -80l-26 -2l35 111l72 -17v-7l-10 -41q75 -8 75 -80q0 -48 -32.5 -71t-84.5 -23q-37 0 -71 9v87q17 -10 45 -10q38 0 38 23q0 21 -41 21z" />
    <glyph glyph-name="onesuperior" unicode="&#xb9;" horiz-adv-x="400" 
d="M362 423h-305v108h89v143l3 32h-2q-4 -10 -11 -15l-24 -22l-72 79l124 116h108v-333h90v-108z" />
    <glyph glyph-name="ordmasculine" unicode="&#xba;" horiz-adv-x="476" 
d="M237 725q79 0 131 -48q53 -47 53 -122t-53 -123q-53 -47 -130 -47t-130 47q-52 48 -52 123q0 76 52 122q52 48 129 48zM301 555q0 30 -18 49t-45 19t-45 -19t-18 -49q-2 -41 30.5 -58.5t65 0t30.5 58.5zM407 268h-338v85h338v-85z" />
    <glyph glyph-name="guillemotright" unicode="&#xbb;" horiz-adv-x="654" 
d="M458 77h-158l164 205l-164 206h158l164 -206zM198 77h-158l164 205l-164 206h158l164 -206z" />
    <glyph glyph-name="onequarter" unicode="&#xbc;" horiz-adv-x="1013" 
d="M926 0h-124v87h-197v84l171 270h150v-247h53v-107h-53v-87zM724 196v-2h78v90l4 50h-2q-9 -26 -21 -46zM358 274h-305v108h89v143l3 32h-2q-4 -10 -11 -15l-24 -22l-72 79l124 116h108v-333h90v-108zM730 715l-336 -715h-119l336 715h119z" />
    <glyph glyph-name="onehalf" unicode="&#xbd;" horiz-adv-x="1004" 
d="M732 715l-336 -715h-119l336 715h119zM356 274h-305v108h89v143l3 32h-2q-4 -10 -11 -15l-24 -22l-72 79l124 116h108v-333h90v-108zM967 0h-327q-5 32 -5 49q0 97 70 147q18 14 55.5 36t55.5 37.5t18 32.5q0 15 -13 24.5t-32 9.5q-35 0 -71 -45l-83 71q24 40 68.5 64.5
t94.5 24.5q64 0 113 -37q50 -36 50 -106q0 -44 -26 -81t-63 -56q-91 -44 -96 -63h191v-108z" />
    <glyph glyph-name="threequarters" unicode="&#xbe;" horiz-adv-x="1020" 
d="M931 0h-124v87h-197v84l171 270h150v-247h53v-107h-53v-87zM729 196v-2h78v90l4 50h-2q-9 -26 -21 -46zM193 264q-101 0 -160 68l61 90q34 -43 91 -43q24 0 39 12t15 30q0 36 -62 36h-37l-24 57l62 69l24 23v2q-28 -2 -34 -2h-110v109h294v-79l-83 -91q97 -24 97 -126
q0 -63 -46 -109t-127 -46zM735 715l-336 -715h-119l336 715h119z" />
    <glyph glyph-name="questiondown" unicode="&#xbf;" horiz-adv-x="503" 
d="M205 294h166v-50q0 -72 -56 -121q-7 -6 -27 -22t-29 -25l-21.5 -22.5t-18 -26.5t-5.5 -26q0 -25 21 -42t50 -17q46 0 95 43l96 -117q-83 -83 -209 -83q-92 0 -163 53q-70 52 -70 143q0 87 60 143l37 32t38.5 34.5t23.5 30.5t12 37v36zM209 515h158v-150h-158v150z" />
    <glyph glyph-name="Agrave" unicode="&#xc0;" horiz-adv-x="664" 
d="M177 0h-180l243 715h184l243 -715h-180l-44 150h-223zM302 429l-41 -139h141l-40 139l-29 123h-2q-19 -89 -29 -123zM404 761h-134l-118 150h171z" />
    <glyph glyph-name="Aacute" unicode="&#xc1;" horiz-adv-x="664" 
d="M177 0h-180l243 715h184l243 -715h-180l-44 150h-223zM302 429l-41 -139h141l-40 139l-29 123h-2q-19 -89 -29 -123zM394 761h-134l81 150h171z" />
    <glyph glyph-name="Acircumflex" unicode="&#xc2;" horiz-adv-x="664" 
d="M177 0h-180l243 715h184l243 -715h-180l-44 150h-223zM302 429l-41 -139h141l-40 139l-29 123h-2q-19 -89 -29 -123zM284 761h-135l99 150h168l99 -150h-135l-47 82h-2z" />
    <glyph glyph-name="Atilde" unicode="&#xc3;" horiz-adv-x="664" 
d="M177 0h-180l243 715h184l243 -715h-180l-44 150h-223zM302 429l-41 -139h141l-40 139l-29 123h-2q-19 -89 -29 -123zM243 761h-112q0 153 128 153q25 0 50 -15t44.5 -30t31.5 -15q37 0 37 57h112q0 -153 -128 -153q-25 0 -50 15t-44.5 30t-31.5 15q-37 0 -37 -57z" />
    <glyph glyph-name="Adieresis" unicode="&#xc4;" horiz-adv-x="664" 
d="M177 0h-180l243 715h184l243 -715h-180l-44 150h-223zM302 429l-41 -139h141l-40 139l-29 123h-2q-19 -89 -29 -123zM500 771h-126v140h126v-140zM291 771h-126v140h126v-140z" />
    <glyph glyph-name="Aring" unicode="&#xc5;" horiz-adv-x="664" 
d="M177 0h-180l243 715h184l243 -715h-180l-44 150h-223zM302 429l-41 -139h141l-40 139l-29 123h-2q-19 -89 -29 -123zM409 769q-33 -22 -77 -22t-77 22q-32 23 -32 63t32 63q33 23 77 23t77 -23t33 -63t-33 -63zM332 868q-21 2 -30 -17t-0.5 -37.5t30.5 -16.5
q22 -2 31 16.5t0 37.5t-31 17z" />
    <glyph glyph-name="AE" unicode="&#xc6;" horiz-adv-x="949" 
d="M172 0h-182l299 715h610v-150h-273v-130h218v-150h-218v-135h286v-150h-461v288h-168zM390 565l-53 -137h114v137h-61z" />
    <glyph glyph-name="Ccedilla" unicode="&#xc7;" horiz-adv-x="714" 
d="M360 -80l-26 -2l23 73q-146 16 -234 118q-86 103 -86 250q0 158 105 263q106 105 270 105q165 0 268 -101l-81 -132q-37 33 -85.5 53t-93.5 20q-100 0 -151 -60q-51 -59 -51 -144q0 -87 52 -151t150 -64q102 0 190 88l90 -128q-107 -110 -263 -119l-6 -25q75 -8 75 -80
q0 -48 -32.5 -71t-84.5 -23q-37 0 -71 9v87q17 -10 45 -10q38 0 38 23q0 21 -41 21z" />
    <glyph glyph-name="Egrave" unicode="&#xc8;" horiz-adv-x="574" 
d="M537 0h-462v715h448v-150h-273v-130h218v-150h-218v-135h287v-150zM379 761h-134l-118 150h171z" />
    <glyph glyph-name="Eacute" unicode="&#xc9;" horiz-adv-x="574" 
d="M537 0h-462v715h448v-150h-273v-130h218v-150h-218v-135h287v-150zM369 761h-134l81 150h171z" />
    <glyph glyph-name="Ecircumflex" unicode="&#xca;" horiz-adv-x="574" 
d="M537 0h-462v715h448v-150h-273v-130h218v-150h-218v-135h287v-150zM259 761h-135l99 150h168l99 -150h-135l-47 82h-2z" />
    <glyph glyph-name="Edieresis" unicode="&#xcb;" horiz-adv-x="574" 
d="M537 0h-462v715h448v-150h-273v-130h218v-150h-218v-135h287v-150zM475 771h-126v140h126v-140zM266 771h-126v140h126v-140z" />
    <glyph glyph-name="Igrave" unicode="&#xcc;" horiz-adv-x="325" 
d="M250 0h-175v715h175v-715zM235 761h-134l-118 150h171z" />
    <glyph glyph-name="Iacute" unicode="&#xcd;" horiz-adv-x="325" 
d="M250 0h-175v715h175v-715zM225 761h-134l81 150h171z" />
    <glyph glyph-name="Icircumflex" unicode="&#xce;" horiz-adv-x="325" 
d="M115 761h-135l99 150h168l99 -150h-135l-47 82h-2zM250 0h-175v715h175v-715z" />
    <glyph glyph-name="Idieresis" unicode="&#xcf;" horiz-adv-x="325" 
d="M250 0h-175v715h175v-715zM331 771h-126v140h126v-140zM122 771h-126v140h126v-140z" />
    <glyph glyph-name="Eth" unicode="&#xd0;" horiz-adv-x="742" 
d="M334 0h-254v284h-57v140h57v291h254q169 0 269 -95q100 -94 100 -261q0 -168 -100 -264q-100 -95 -269 -95zM255 284v-134h72q93 0 144 54t51 155q0 99 -51.5 152.5t-143.5 53.5h-72v-141h104v-140h-104z" />
    <glyph glyph-name="Ntilde" unicode="&#xd1;" horiz-adv-x="754" 
d="M250 0h-175v715h177l198 -334q26 -45 51 -102l9 -20h2q-8 82 -8 122v334h175v-715h-176l-199 333q-26 45 -51 102l-9 20h-2q8 -82 8 -122v-333zM288 761h-112q0 153 128 153q25 0 50 -15t44.5 -30t31.5 -15q37 0 37 57h112q0 -153 -128 -153q-25 0 -50 15t-44.5 30
t-31.5 15q-37 0 -37 -57z" />
    <glyph glyph-name="Ograve" unicode="&#xd2;" horiz-adv-x="820" 
d="M36 362q0 156 105 260q105 105 269 105t269 -105q105 -104 105 -260q0 -160 -105 -267t-269 -107t-269 107t-105 267zM217 362q0 -92 54 -153q55 -61 139 -61t138 61q55 61 55 153q0 88 -55 146q-54 59 -138 59q-83 0 -139 -59q-54 -58 -54 -146zM482 761h-134l-118 150
h171z" />
    <glyph glyph-name="Oacute" unicode="&#xd3;" horiz-adv-x="820" 
d="M36 362q0 156 105 260q105 105 269 105t269 -105q105 -104 105 -260q0 -160 -105 -267t-269 -107t-269 107t-105 267zM217 362q0 -92 54 -153q55 -61 139 -61t138 61q55 61 55 153q0 88 -55 146q-54 59 -138 59q-83 0 -139 -59q-54 -58 -54 -146zM472 761h-134l81 150
h171z" />
    <glyph glyph-name="Ocircumflex" unicode="&#xd4;" horiz-adv-x="820" 
d="M36 362q0 156 105 260q105 105 269 105t269 -105q105 -104 105 -260q0 -160 -105 -267t-269 -107t-269 107t-105 267zM217 362q0 -92 54 -153q55 -61 139 -61t138 61q55 61 55 153q0 88 -55 146q-54 59 -138 59q-83 0 -139 -59q-54 -58 -54 -146zM362 761h-135l99 150
h168l99 -150h-135l-47 82h-2z" />
    <glyph glyph-name="Otilde" unicode="&#xd5;" horiz-adv-x="820" 
d="M36 362q0 156 105 260q105 105 269 105t269 -105q105 -104 105 -260q0 -160 -105 -267t-269 -107t-269 107t-105 267zM217 362q0 -92 54 -153q55 -61 139 -61t138 61q55 61 55 153q0 88 -55 146q-54 59 -138 59q-83 0 -139 -59q-54 -58 -54 -146zM321 761h-112
q0 153 128 153q25 0 50 -15t44.5 -30t31.5 -15q37 0 37 57h112q0 -153 -128 -153q-25 0 -50 15t-44.5 30t-31.5 15q-37 0 -37 -57z" />
    <glyph glyph-name="Odieresis" unicode="&#xd6;" horiz-adv-x="820" 
d="M36 362q0 156 105 260q105 105 269 105t269 -105q105 -104 105 -260q0 -160 -105 -267t-269 -107t-269 107t-105 267zM217 362q0 -92 54 -153q55 -61 139 -61t138 61q55 61 55 153q0 88 -55 146q-54 59 -138 59q-83 0 -139 -59q-54 -58 -54 -146zM578 771h-126v140h126
v-140zM369 771h-126v140h126v-140z" />
    <glyph glyph-name="multiply" unicode="&#xd7;" 
d="M120 0l-92 92l182 195l-182 196l92 92l179 -192l180 192l92 -92l-183 -196l183 -195l-92 -92l-180 192z" />
    <glyph glyph-name="Oslash" unicode="&#xd8;" horiz-adv-x="819" 
d="M174 -28l-70 48l48 66q-116 108 -116 276q0 155 106 260t268 105q99 0 176 -40l41 56l70 -47l-40 -55q127 -108 127 -279q0 -158 -107 -267q-107 -107 -267 -107q-104 0 -190 48zM256 230l232 320q-39 17 -78 17q-81 0 -137 -59t-56 -146q0 -76 39 -132zM555 499
l-237 -327q44 -24 92 -24q82 0 137 61q56 62 56 153q0 82 -48 137z" />
    <glyph glyph-name="Ugrave" unicode="&#xd9;" horiz-adv-x="732" 
d="M67 263v452h175v-452q0 -54 33.5 -84.5t90.5 -30.5t90.5 30.5t33.5 84.5v452h175v-452q0 -123 -82 -199t-216 -76q-136 0 -218 76t-82 199zM438 761h-134l-118 150h171z" />
    <glyph glyph-name="Uacute" unicode="&#xda;" horiz-adv-x="732" 
d="M67 263v452h175v-452q0 -54 33.5 -84.5t90.5 -30.5t90.5 30.5t33.5 84.5v452h175v-452q0 -123 -82 -199t-216 -76q-136 0 -218 76t-82 199zM428 761h-134l81 150h171z" />
    <glyph glyph-name="Ucircumflex" unicode="&#xdb;" horiz-adv-x="732" 
d="M67 263v452h175v-452q0 -54 33.5 -84.5t90.5 -30.5t90.5 30.5t33.5 84.5v452h175v-452q0 -123 -82 -199t-216 -76q-136 0 -218 76t-82 199zM318 761h-135l99 150h168l99 -150h-135l-47 82h-2z" />
    <glyph glyph-name="Udieresis" unicode="&#xdc;" horiz-adv-x="732" 
d="M67 263v452h175v-452q0 -54 33.5 -84.5t90.5 -30.5t90.5 30.5t33.5 84.5v452h175v-452q0 -123 -82 -199t-216 -76q-136 0 -218 76t-82 199zM534 771h-126v140h126v-140zM325 771h-126v140h126v-140z" />
    <glyph glyph-name="Yacute" unicode="&#xdd;" horiz-adv-x="627" 
d="M401 0h-175v293l-236 422h199l81 -172l43 -103h2q15 41 43 103l80 172h199l-236 -422v-293zM376 761h-134l81 150h171z" />
    <glyph glyph-name="Thorn" unicode="&#xde;" horiz-adv-x="629" 
d="M250 0h-175v715h175v-106h122q104 0 168 -69q65 -70 65 -177q0 -108 -65 -179q-64 -69 -168 -69h-122v-115zM250 459v-194h86q43 0 67 26.5t24 71.5t-23 70.5t-65 25.5h-89z" />
    <glyph glyph-name="germandbls" unicode="&#xdf;" horiz-adv-x="624" 
d="M231 0h-173v527q0 95 75 147q76 53 180 53q95 0 162 -55q69 -54 69 -138q0 -38 -36 -89.5t-36 -70.5q0 -23 67 -74q27 -20 47 -56t20 -76q0 -83 -56 -130q-56 -45 -138 -45q-78 0 -124 21v142q48 -19 95 -19q50 0 50 42q0 24 -68 71q-28 20 -47.5 52t-19.5 68q0 34 36 88
t36 72q0 24 -16.5 38.5t-45.5 14.5q-77 0 -77 -68v-515z" />
    <glyph glyph-name="agrave" unicode="&#xe0;" horiz-adv-x="553" 
d="M22 145q0 48 26.5 84.5t71.5 55.5q86 36 193 36h15v9q0 57 -73 57q-69 0 -142 -49l-60 122q36 28 96 47q63 20 122 20q107 0 168.5 -56t61.5 -154v-317h-158v31l2 32h-2q-24 -35 -65.5 -55t-87.5 -20q-74 0 -121 45t-47 112zM193 161q0 -19 13 -31.5t36 -12.5q36 0 62 29
t26 62v14h-16q-52 0 -86.5 -15.5t-34.5 -45.5zM349 565h-134l-118 150h171z" />
    <glyph glyph-name="aacute" unicode="&#xe1;" horiz-adv-x="553" 
d="M22 145q0 48 26.5 84.5t71.5 55.5q86 36 193 36h15v9q0 57 -73 57q-69 0 -142 -49l-60 122q36 28 96 47q63 20 122 20q107 0 168.5 -56t61.5 -154v-317h-158v31l2 32h-2q-24 -35 -65.5 -55t-87.5 -20q-74 0 -121 45t-47 112zM193 161q0 -19 13 -31.5t36 -12.5q36 0 62 29
t26 62v14h-16q-52 0 -86.5 -15.5t-34.5 -45.5zM338 565h-134l81 150h171z" />
    <glyph glyph-name="acircumflex" unicode="&#xe2;" horiz-adv-x="553" 
d="M22 145q0 48 26.5 84.5t71.5 55.5q86 36 193 36h15v9q0 57 -73 57q-69 0 -142 -49l-60 122q36 28 96 47q63 20 122 20q107 0 168.5 -56t61.5 -154v-317h-158v31l2 32h-2q-24 -35 -65.5 -55t-87.5 -20q-74 0 -121 45t-47 112zM193 161q0 -19 13 -31.5t36 -12.5q36 0 62 29
t26 62v14h-16q-52 0 -86.5 -15.5t-34.5 -45.5zM228 565h-135l99 150h168l99 -150h-135l-47 82h-2z" />
    <glyph glyph-name="atilde" unicode="&#xe3;" horiz-adv-x="553" 
d="M22 145q0 48 26.5 84.5t71.5 55.5q86 36 193 36h15v9q0 57 -73 57q-69 0 -142 -49l-60 122q36 28 96 47q63 20 122 20q107 0 168.5 -56t61.5 -154v-317h-158v31l2 32h-2q-24 -35 -65.5 -55t-87.5 -20q-74 0 -121 45t-47 112zM193 161q0 -19 13 -31.5t36 -12.5q36 0 62 29
t26 62v14h-16q-52 0 -86.5 -15.5t-34.5 -45.5zM187 565h-112q0 153 128 153q25 0 50 -15t44.5 -30t31.5 -15q37 0 37 57h112q0 -153 -128 -153q-25 0 -50 15t-44.5 30t-31.5 15q-37 0 -37 -57z" />
    <glyph glyph-name="adieresis" unicode="&#xe4;" horiz-adv-x="553" 
d="M22 145q0 48 26.5 84.5t71.5 55.5q86 36 193 36h15v9q0 57 -73 57q-69 0 -142 -49l-60 122q36 28 96 47q63 20 122 20q107 0 168.5 -56t61.5 -154v-317h-158v31l2 32h-2q-24 -35 -65.5 -55t-87.5 -20q-74 0 -121 45t-47 112zM193 161q0 -19 13 -31.5t36 -12.5q36 0 62 29
t26 62v14h-16q-52 0 -86.5 -15.5t-34.5 -45.5zM444 575h-126v140h126v-140zM235 575h-126v140h126v-140z" />
    <glyph glyph-name="aring" unicode="&#xe5;" horiz-adv-x="553" 
d="M22 145q0 48 26.5 84.5t71.5 55.5q86 36 193 36h15v9q0 57 -73 57q-69 0 -142 -49l-60 122q36 28 96 47q63 20 122 20q107 0 168.5 -56t61.5 -154v-317h-158v31l2 32h-2q-24 -35 -65.5 -55t-87.5 -20q-74 0 -121 45t-47 112zM193 161q0 -19 13 -31.5t36 -12.5q36 0 62 29
t26 62v14h-16q-52 0 -86.5 -15.5t-34.5 -45.5zM353 573q-33 -22 -77 -22t-77 22q-32 23 -32 63t32 63q33 23 77 23t77 -23t33 -63t-33 -63zM276 672q-21 2 -30 -17t-0.5 -37.5t30.5 -16.5q22 -2 31 16.5t0 37.5t-31 17z" />
    <glyph glyph-name="ae" unicode="&#xe6;" horiz-adv-x="853" 
d="M22 154q0 42 22.5 74.5t58.5 51.5q35 17 79 27q65 16 142 16h4v7q0 57 -76 57q-66 0 -140 -49l-60 121q36 29 96 48q62 20 117 20q106 0 163 -51h2q62 51 154 51q108 0 173 -72q65 -71 65 -182q0 -17 -4 -49h-325q9 -44 41.5 -68t78.5 -24q71 0 142 51l64 -120
q-38 -34 -99 -54.5t-121 -20.5q-133 0 -207 90h-2q-17 -30 -65 -59q-49 -30 -128 -30q-74 0 -125 45q-50 47 -50 120zM497 323h151q0 30 -18.5 52t-45.5 22q-67 0 -87 -74zM196 163q0 -43 51 -43q33 0 59 29q25 29 25 63v12h-17q-47 0 -82 -16q-36 -16 -36 -45z" />
    <glyph glyph-name="ccedilla" unicode="&#xe7;" horiz-adv-x="552" 
d="M261 -80l-26 -2l23 75q-106 16 -168 91q-61 74 -61 174q0 109 77 189q78 80 210 80q60 0 115 -20t90 -58l-73 -116q-53 50 -121 50q-56 0 -89.5 -35.5t-33.5 -87.5q0 -53 35 -90.5t94 -37.5q68 0 141 62l63 -121q-73 -76 -199 -84l-6 -25q75 -8 75 -80q0 -48 -32.5 -71
t-84.5 -23q-37 0 -71 9v87q17 -10 45 -10q38 0 38 23q0 21 -41 21z" />
    <glyph glyph-name="egrave" unicode="&#xe8;" horiz-adv-x="567" 
d="M29 258q0 116 73 192q74 77 195 77q111 0 174 -70q64 -68 64 -179q0 -22 -4 -54h-325q9 -44 41.5 -68t78.5 -24q65 0 142 52l64 -121q-41 -35 -100 -55t-120 -20q-130 0 -207 80q-76 79 -76 190zM210 323h154q0 33 -19.5 55t-51.5 22q-66 0 -83 -77zM366 565h-134
l-118 150h171z" />
    <glyph glyph-name="eacute" unicode="&#xe9;" horiz-adv-x="567" 
d="M29 258q0 116 73 192q74 77 195 77q111 0 174 -70q64 -68 64 -179q0 -22 -4 -54h-325q9 -44 41.5 -68t78.5 -24q65 0 142 52l64 -121q-41 -35 -100 -55t-120 -20q-130 0 -207 80q-76 79 -76 190zM210 323h154q0 33 -19.5 55t-51.5 22q-66 0 -83 -77zM355 565h-134l81 150
h171z" />
    <glyph glyph-name="ecircumflex" unicode="&#xea;" horiz-adv-x="567" 
d="M29 258q0 116 73 192q74 77 195 77q111 0 174 -70q64 -68 64 -179q0 -22 -4 -54h-325q9 -44 41.5 -68t78.5 -24q65 0 142 52l64 -121q-41 -35 -100 -55t-120 -20q-130 0 -207 80q-76 79 -76 190zM210 323h154q0 33 -19.5 55t-51.5 22q-66 0 -83 -77zM245 565h-135l99 150
h168l99 -150h-135l-47 82h-2z" />
    <glyph glyph-name="edieresis" unicode="&#xeb;" horiz-adv-x="567" 
d="M29 258q0 116 73 192q74 77 195 77q111 0 174 -70q64 -68 64 -179q0 -22 -4 -54h-325q9 -44 41.5 -68t78.5 -24q65 0 142 52l64 -121q-41 -35 -100 -55t-120 -20q-130 0 -207 80q-76 79 -76 190zM210 323h154q0 33 -19.5 55t-51.5 22q-66 0 -83 -77zM461 575h-126v140
h126v-140zM252 575h-126v140h126v-140z" />
    <glyph glyph-name="igrave" unicode="&#xec;" horiz-adv-x="289" 
d="M231 0h-173v515h173v-515zM216 565h-134l-118 150h171z" />
    <glyph glyph-name="iacute" unicode="&#xed;" horiz-adv-x="289" 
d="M231 0h-173v515h173v-515zM206 565h-134l81 150h171z" />
    <glyph glyph-name="icircumflex" unicode="&#xee;" horiz-adv-x="289" 
d="M96 565h-135l99 150h168l99 -150h-135l-47 82h-2zM231 0h-173v515h173v-515z" />
    <glyph glyph-name="idieresis" unicode="&#xef;" horiz-adv-x="289" 
d="M312 575h-126v140h126v-140zM103 575h-126v140h126v-140zM231 0h-173v515h173v-515z" />
    <glyph glyph-name="eth" unicode="&#xf0;" horiz-adv-x="587" 
d="M30 241q0 91 63 157q65 66 168 66q37 0 61 -6l8 -3h2q-26 38 -70 63l-192 -79v95l92 39q-53 23 -95 30l48 135q134 -29 232 -89l161 67v-95l-81 -34q127 -121 127 -304q0 -55 -14.5 -104.5t-44.5 -93.5t-84.5 -70.5t-126.5 -26.5q-116 0 -185 75t-69 178zM204 236
q0 -47 21 -75.5t62 -28.5q46 0 69.5 33t23.5 85q0 37 -22 59.5t-61 22.5q-44 0 -68.5 -26.5t-24.5 -69.5z" />
    <glyph glyph-name="ntilde" unicode="&#xf1;" horiz-adv-x="626" 
d="M231 0h-173v515h166v-45l-2 -32h2q53 89 164 89q185 0 185 -193v-334h-173v302q0 68 -57 68q-53 0 -82.5 -38t-29.5 -99v-233zM230 565h-112q0 153 128 153q32 0 73 -30t53 -30q37 0 37 57h112q0 -153 -128 -153q-25 0 -50 15t-44.5 30t-31.5 15q-37 0 -37 -57z" />
    <glyph glyph-name="ograve" unicode="&#xf2;" horiz-adv-x="642" 
d="M320 527q125 0 208 -76q85 -75 85 -195q0 -119 -84 -194q-85 -74 -208 -74t-208 74q-84 75 -84 194q0 118 84 195q83 76 207 76zM204 256q0 -55 33.5 -89.5t83.5 -34.5t83.5 34.5t33.5 89.5q0 56 -33.5 91.5t-83.5 35.5t-83.5 -35.5t-33.5 -91.5zM393 565h-134l-118 150
h171z" />
    <glyph glyph-name="oacute" unicode="&#xf3;" horiz-adv-x="642" 
d="M320 527q125 0 208 -76q85 -75 85 -195q0 -119 -84 -194q-85 -74 -208 -74t-208 74q-84 75 -84 194q0 118 84 195q83 76 207 76zM204 256q0 -55 33.5 -89.5t83.5 -34.5t83.5 34.5t33.5 89.5q0 56 -33.5 91.5t-83.5 35.5t-83.5 -35.5t-33.5 -91.5zM383 565h-134l81 150
h171z" />
    <glyph glyph-name="ocircumflex" unicode="&#xf4;" horiz-adv-x="642" 
d="M320 527q125 0 208 -76q85 -75 85 -195q0 -119 -84 -194q-85 -74 -208 -74t-208 74q-84 75 -84 194q0 118 84 195q83 76 207 76zM204 256q0 -55 33.5 -89.5t83.5 -34.5t83.5 34.5t33.5 89.5q0 56 -33.5 91.5t-83.5 35.5t-83.5 -35.5t-33.5 -91.5zM273 565h-135l99 150
h168l99 -150h-135l-47 82h-2z" />
    <glyph glyph-name="otilde" unicode="&#xf5;" horiz-adv-x="642" 
d="M320 527q125 0 208 -76q85 -75 85 -195q0 -119 -84 -194q-85 -74 -208 -74t-208 74q-84 75 -84 194q0 118 84 195q83 76 207 76zM204 256q0 -55 33.5 -89.5t83.5 -34.5t83.5 34.5t33.5 89.5q0 56 -33.5 91.5t-83.5 35.5t-83.5 -35.5t-33.5 -91.5zM232 565h-112
q0 153 128 153q32 0 73 -30t53 -30q37 0 37 57h112q0 -153 -128 -153q-25 0 -50 15t-44.5 30t-31.5 15q-37 0 -37 -57z" />
    <glyph glyph-name="odieresis" unicode="&#xf6;" horiz-adv-x="642" 
d="M320 527q125 0 208 -76q85 -75 85 -195q0 -119 -84 -194q-85 -74 -208 -74t-208 74q-84 75 -84 194q0 118 84 195q83 76 207 76zM204 256q0 -55 33.5 -89.5t83.5 -34.5t83.5 34.5t33.5 89.5q0 56 -33.5 91.5t-83.5 35.5t-83.5 -35.5t-33.5 -91.5zM489 575h-126v140h126
v-140zM280 575h-126v140h126v-140z" />
    <glyph glyph-name="divide" unicode="&#xf7;" 
d="M373 440h-146v135h146v-135zM573 222h-546v130h546v-130zM373 0h-146v135h146v-135z" />
    <glyph glyph-name="oslash" unicode="&#xf8;" horiz-adv-x="642" 
d="M153 -50l-66 46l39 55q-97 76 -97 205q0 118 84 195q83 76 207 76q68 0 131 -26l42 58l66 -45l-40 -55q94 -78 94 -203q0 -119 -84 -194q-85 -74 -208 -74q-66 0 -124 23zM223 185l138 191q-21 7 -40 7q-50 0 -83.5 -35.5t-33.5 -91.5q0 -42 19 -71zM422 323l-135 -187
q13 -4 34 -4q50 0 83.5 34.5t33.5 89.5q0 38 -16 67z" />
    <glyph glyph-name="ugrave" unicode="&#xf9;" horiz-adv-x="621" 
d="M53 181v334h173v-302q0 -68 55 -68q52 0 80.5 39.5t28.5 102.5v228h173v-515h-166v45l2 32h-2q-21 -41 -65 -65t-96 -24q-183 0 -183 193zM380 565h-134l-118 150h171z" />
    <glyph glyph-name="uacute" unicode="&#xfa;" horiz-adv-x="621" 
d="M53 181v334h173v-302q0 -68 55 -68q52 0 80.5 39.5t28.5 102.5v228h173v-515h-166v45l2 32h-2q-21 -41 -65 -65t-96 -24q-183 0 -183 193zM370 565h-134l81 150h171z" />
    <glyph glyph-name="ucircumflex" unicode="&#xfb;" horiz-adv-x="621" 
d="M53 181v334h173v-302q0 -68 55 -68q52 0 80.5 39.5t28.5 102.5v228h173v-515h-166v45l2 32h-2q-21 -41 -65 -65t-96 -24q-183 0 -183 193zM260 565h-135l99 150h168l99 -150h-135l-47 82h-2z" />
    <glyph glyph-name="udieresis" unicode="&#xfc;" horiz-adv-x="621" 
d="M53 181v334h173v-302q0 -68 55 -68q52 0 80.5 39.5t28.5 102.5v228h173v-515h-166v45l2 32h-2q-21 -41 -65 -65t-96 -24q-183 0 -183 193zM476 575h-126v140h126v-140zM267 575h-126v140h126v-140z" />
    <glyph glyph-name="yacute" unicode="&#xfd;" horiz-adv-x="561" 
d="M8 -174l55 127q28 -19 53 -19q62 0 83 52l10 24l-219 505h196l76 -237l19 -80h2l17 77l65 240h189l-211 -570q-29 -77 -86 -116t-129 -39q-60 0 -105 27zM344 564h-134l81 150h171z" />
    <glyph glyph-name="thorn" unicode="&#xfe;" horiz-adv-x="631" 
d="M231 -200h-173v915h173v-197l-2 -44h2q48 53 134 53q105 0 170 -77q66 -76 66 -192t-66 -193q-65 -77 -170 -77q-91 0 -134 48h-2q2 -24 2 -44v-192zM226 257q0 -125 104 -125q43 0 70 36t27 90t-26.5 89.5t-70.5 35.5q-104 0 -104 -126z" />
    <glyph glyph-name="ydieresis" unicode="&#xff;" horiz-adv-x="561" 
d="M8 -174l55 127q28 -19 53 -19q62 0 83 52l10 24l-219 505h196l76 -237l19 -80h2l17 77l65 240h189l-211 -570q-29 -77 -86 -116t-129 -39q-60 0 -105 27zM450 574h-126v140h126v-140zM241 574h-126v140h126v-140z" />
    <glyph glyph-name="Amacron" unicode="&#x100;" horiz-adv-x="664" 
d="M177 0h-180l243 715h184l243 -715h-180l-44 150h-223zM302 429l-41 -139h141l-40 139l-29 123h-2q-19 -89 -29 -123zM470 782h-275v112h275v-112z" />
    <glyph glyph-name="amacron" unicode="&#x101;" horiz-adv-x="553" 
d="M22 145q0 48 26.5 84.5t71.5 55.5q86 36 193 36h15v9q0 57 -73 57q-69 0 -142 -49l-60 122q36 28 96 47q63 20 122 20q107 0 168.5 -56t61.5 -154v-317h-158v31l2 32h-2q-24 -35 -65.5 -55t-87.5 -20q-74 0 -121 45t-47 112zM193 161q0 -19 13 -31.5t36 -12.5q36 0 62 29
t26 62v14h-16q-52 0 -86.5 -15.5t-34.5 -45.5zM414 586h-275v112h275v-112z" />
    <glyph glyph-name="Abreve" unicode="&#x102;" horiz-adv-x="664" 
d="M177 0h-180l243 715h184l243 -715h-180l-44 150h-223zM302 429l-41 -139h141l-40 139l-29 123h-2q-19 -89 -29 -123zM158 901v10h117v-11q0 -36 28.5 -51t57 0t28.5 51v11h117v-10q0 -67 -51 -106q-49 -39 -123 -39q-73 0 -124 39q-50 39 -50 106z" />
    <glyph glyph-name="abreve" unicode="&#x103;" horiz-adv-x="553" 
d="M22 145q0 48 26.5 84.5t71.5 55.5q86 36 193 36h15v9q0 57 -73 57q-69 0 -142 -49l-60 122q36 28 96 47q63 20 122 20q107 0 168.5 -56t61.5 -154v-317h-158v31l2 32h-2q-24 -35 -65.5 -55t-87.5 -20q-74 0 -121 45t-47 112zM193 161q0 -19 13 -31.5t36 -12.5q36 0 62 29
t26 62v14h-16q-52 0 -86.5 -15.5t-34.5 -45.5zM102 705v10h117v-11q0 -36 28.5 -51t57 0t28.5 51v11h117v-10q0 -67 -51 -106q-49 -39 -123 -39q-73 0 -124 39q-50 39 -50 106z" />
    <glyph glyph-name="Aogonek" unicode="&#x104;" horiz-adv-x="664" 
d="M177 0h-180l243 715h184l243 -715q-43 -40 -43 -61q0 -9 9 -15.5t19 -7.5l10 -2l-42 -124q-23 3 -46 10q-83 24 -87 89q0 56 64 111h-64l-44 150h-223zM302 429l-41 -139h141l-40 139l-29 123h-2q-19 -89 -29 -123z" />
    <glyph glyph-name="aogonek" unicode="&#x105;" horiz-adv-x="553" 
d="M22 145q0 48 26.5 84.5t71.5 55.5q86 36 193 36h15v9q0 57 -73 57q-69 0 -142 -49l-60 122q36 28 96 47q63 20 122 20q107 0 168.5 -56t61.5 -154v-317q-43 -40 -43 -61q0 -9 9 -15.5t19 -7.5l10 -2l-42 -124q-23 3 -46 10q-83 24 -87 89q0 56 64 111h-42v31l2 32h-2
q-24 -35 -65.5 -55t-87.5 -20q-74 0 -121 45t-47 112zM193 161q0 -19 13 -31.5t36 -12.5q36 0 62 29t26 62v14h-16q-52 0 -86.5 -15.5t-34.5 -45.5z" />
    <glyph glyph-name="Cacute" unicode="&#x106;" horiz-adv-x="714" 
d="M37 359q0 158 105 263q106 105 270 105q165 0 268 -101l-81 -132q-37 33 -85.5 53t-93.5 20q-100 0 -151 -60q-51 -59 -51 -144q0 -87 52 -151t150 -64q102 0 190 88l90 -128q-116 -120 -288 -120q-169 0 -273 104q-102 105 -102 267zM464 761h-134l81 150h171z" />
    <glyph glyph-name="cacute" unicode="&#x107;" horiz-adv-x="552" 
d="M29 258q0 109 77 189q78 80 210 80q60 0 115 -20t90 -58l-73 -116q-53 50 -121 50q-56 0 -89.5 -35.5t-33.5 -87.5q0 -53 35 -90.5t94 -37.5q68 0 141 62l63 -121q-38 -39 -97.5 -62t-123.5 -23q-132 0 -210 79q-77 80 -77 191zM358 565h-134l81 150h171z" />
    <glyph glyph-name="Ccircumflex" unicode="&#x108;" horiz-adv-x="714" 
d="M37 359q0 158 105 263q106 105 270 105q165 0 268 -101l-81 -132q-37 33 -85.5 53t-93.5 20q-100 0 -151 -60q-51 -59 -51 -144q0 -87 52 -151t150 -64q102 0 190 88l90 -128q-116 -120 -288 -120q-169 0 -273 104q-102 105 -102 267zM354 761h-135l99 150h168l99 -150
h-135l-47 82h-2z" />
    <glyph glyph-name="ccircumflex" unicode="&#x109;" horiz-adv-x="552" 
d="M29 258q0 109 77 189q78 80 210 80q60 0 115 -20t90 -58l-73 -116q-53 50 -121 50q-56 0 -89.5 -35.5t-33.5 -87.5q0 -53 35 -90.5t94 -37.5q68 0 141 62l63 -121q-38 -39 -97.5 -62t-123.5 -23q-132 0 -210 79q-77 80 -77 191zM248 565h-135l99 150h168l99 -150h-135
l-47 82h-2z" />
    <glyph glyph-name="Cdotaccent" unicode="&#x10a;" horiz-adv-x="714" 
d="M37 359q0 158 105 263q106 105 270 105q165 0 268 -101l-81 -132q-37 33 -85.5 53t-93.5 20q-100 0 -151 -60q-51 -59 -51 -144q0 -87 52 -151t150 -64q102 0 190 88l90 -128q-116 -120 -288 -120q-169 0 -273 104q-102 105 -102 267zM474 779h-143v132h143v-132z" />
    <glyph glyph-name="cdotaccent" unicode="&#x10b;" horiz-adv-x="552" 
d="M29 258q0 109 77 189q78 80 210 80q60 0 115 -20t90 -58l-73 -116q-53 50 -121 50q-56 0 -89.5 -35.5t-33.5 -87.5q0 -53 35 -90.5t94 -37.5q68 0 141 62l63 -121q-38 -39 -97.5 -62t-123.5 -23q-132 0 -210 79q-77 80 -77 191zM368 583h-143v132h143v-132z" />
    <glyph glyph-name="Ccaron" unicode="&#x10c;" horiz-adv-x="714" 
d="M37 359q0 158 105 263q106 105 270 105q165 0 268 -101l-81 -132q-37 33 -85.5 53t-93.5 20q-100 0 -151 -60q-51 -59 -51 -144q0 -87 52 -151t150 -64q102 0 190 88l90 -128q-116 -120 -288 -120q-169 0 -273 104q-102 105 -102 267zM486 761h-168l-99 150h135l47 -82h2
l47 82h135z" />
    <glyph glyph-name="ccaron" unicode="&#x10d;" horiz-adv-x="552" 
d="M29 258q0 109 77 189q78 80 210 80q60 0 115 -20t90 -58l-73 -116q-53 50 -121 50q-56 0 -89.5 -35.5t-33.5 -87.5q0 -53 35 -90.5t94 -37.5q68 0 141 62l63 -121q-38 -39 -97.5 -62t-123.5 -23q-132 0 -210 79q-77 80 -77 191zM380 565h-168l-99 150h135l47 -82h2l47 82
h135z" />
    <glyph glyph-name="Dcaron" unicode="&#x10e;" horiz-adv-x="737" 
d="M329 0h-254v715h254q169 0 269 -95q100 -94 100 -261q0 -168 -100 -264q-100 -95 -269 -95zM250 565v-415h72q93 0 144 54t51 155q0 99 -51.5 152.5t-143.5 53.5h-72zM427 761h-168l-99 150h135l47 -82h2l47 82h135z" />
    <glyph glyph-name="dcaron" unicode="&#x10f;" horiz-adv-x="653" 
d="M266 527q94 0 135 -41h2q-1 7 -1 23v206h173v-715h-162v34l1 29h-2q-50 -75 -149 -75q-104 0 -169 74q-63 75 -63 196t65 195q66 74 170 74zM306 131q45 0 73 33t28 94q0 52 -27.5 87.5t-73.5 35.5q-44 0 -72.5 -33.5t-28.5 -89.5q0 -57 28 -92t73 -35zM621 715h136
q7 -27 7 -58q0 -48 -28 -103h-123q20 60 20 93t-12 68z" />
    <glyph glyph-name="Dcroat" unicode="&#x110;" horiz-adv-x="742" 
d="M334 0h-254v284h-57v140h57v291h254q169 0 269 -95q100 -94 100 -261q0 -168 -100 -264q-100 -95 -269 -95zM255 284v-134h72q93 0 144 54t51 155q0 99 -51.5 152.5t-143.5 53.5h-72v-141h104v-140h-104z" />
    <glyph glyph-name="dslash" unicode="&#x111;" horiz-adv-x="633" 
d="M266 527q94 0 135 -41h2q-1 7 -1 23v45h-126v95h126v66h173v-66h66v-95h-66v-554h-162v34l1 29h-2q-52 -75 -149 -75q-104 0 -169 74q-63 75 -63 196t65 195q66 74 170 74zM306 131q45 0 73 33t28 94q0 52 -27.5 87.5t-73.5 35.5q-44 0 -72.5 -33.5t-28.5 -89.5
q0 -57 28 -92t73 -35z" />
    <glyph glyph-name="Emacron" unicode="&#x112;" horiz-adv-x="574" 
d="M537 0h-462v715h448v-150h-273v-130h218v-150h-218v-135h287v-150zM445 782h-275v112h275v-112z" />
    <glyph glyph-name="emacron" unicode="&#x113;" horiz-adv-x="567" 
d="M29 258q0 116 73 192q74 77 195 77q111 0 174 -70q64 -68 64 -179q0 -22 -4 -54h-325q9 -44 41.5 -68t78.5 -24q65 0 142 52l64 -121q-41 -35 -100 -55t-120 -20q-130 0 -207 80q-76 79 -76 190zM210 323h154q0 33 -19.5 55t-51.5 22q-66 0 -83 -77zM431 586h-275v112
h275v-112z" />
    <glyph glyph-name="Ebreve" unicode="&#x114;" horiz-adv-x="574" 
d="M133 901v10h117v-11q0 -36 28.5 -51t57 0t28.5 51v11h117v-10q0 -67 -51 -106q-50 -39 -123 -39t-124 39q-50 39 -50 106zM537 0h-462v715h448v-150h-273v-130h218v-150h-218v-135h287v-150z" />
    <glyph glyph-name="ebreve" unicode="&#x115;" horiz-adv-x="567" 
d="M29 258q0 116 73 192q74 77 195 77q111 0 174 -70q64 -68 64 -179q0 -22 -4 -54h-325q9 -44 41.5 -68t78.5 -24q65 0 142 52l64 -121q-41 -35 -100 -55t-120 -20q-130 0 -207 80q-76 79 -76 190zM210 323h154q0 33 -19.5 55t-51.5 22q-66 0 -83 -77zM119 705v10h117v-11
q0 -36 28.5 -51t57 0t28.5 51v11h117v-10q0 -67 -51 -106q-50 -39 -123 -39t-124 39q-50 39 -50 106z" />
    <glyph glyph-name="Edotaccent" unicode="&#x116;" horiz-adv-x="574" 
d="M537 0h-462v715h448v-150h-273v-130h218v-150h-218v-135h287v-150zM379 779h-143v132h143v-132z" />
    <glyph glyph-name="edotaccent" unicode="&#x117;" horiz-adv-x="567" 
d="M29 258q0 116 73 192q74 77 195 77q111 0 174 -70q64 -68 64 -179q0 -22 -4 -54h-325q9 -44 41.5 -68t78.5 -24q65 0 142 52l64 -121q-41 -35 -100 -55t-120 -20q-130 0 -207 80q-76 79 -76 190zM210 323h154q0 33 -19.5 55t-51.5 22q-66 0 -83 -77zM365 583h-143v132
h143v-132z" />
    <glyph glyph-name="Eogonek" unicode="&#x118;" horiz-adv-x="574" 
d="M426 0h-351v715h448v-150h-273v-130h218v-150h-218v-135h287v-150q-43 -40 -43 -61q0 -9 9 -15.5t19 -7.5l10 -2l-42 -124q-23 3 -46 10q-83 24 -87 89q0 57 69 111z" />
    <glyph glyph-name="eogonek" unicode="&#x119;" horiz-adv-x="567" 
d="M29 258q0 116 73 192q74 77 195 77q111 0 174 -70q64 -68 64 -179l-4 -54h-325q9 -44 41.5 -68t78.5 -24q69 0 142 52l63 -120q-10 -10 -39 -32q-68 -51 -68 -93q0 -9 9 -15.5t19 -7.5l10 -2l-42 -124q-23 3 -46 10q-83 24 -87 89q0 54 66 103q-23 -4 -41 -4
q-130 0 -207 80q-76 79 -76 190zM210 323h154q0 32 -19.5 54.5t-51.5 22.5q-65 0 -83 -77z" />
    <glyph glyph-name="Ecaron" unicode="&#x11a;" horiz-adv-x="574" 
d="M537 0h-462v715h448v-150h-273v-130h218v-150h-218v-135h287v-150zM391 761h-168l-99 150h135l47 -82h2l47 82h135z" />
    <glyph glyph-name="ecaron" unicode="&#x11b;" horiz-adv-x="567" 
d="M29 258q0 116 73 192q74 77 195 77q111 0 174 -70q64 -68 64 -179q0 -22 -4 -54h-325q9 -44 41.5 -68t78.5 -24q65 0 142 52l64 -121q-41 -35 -100 -55t-120 -20q-130 0 -207 80q-76 79 -76 190zM210 323h154q0 33 -19.5 55t-51.5 22q-66 0 -83 -77zM377 565h-168
l-99 150h135l47 -82h2l47 82h135z" />
    <glyph glyph-name="Gcircumflex" unicode="&#x11c;" horiz-adv-x="773" 
d="M37 359q0 157 106 262q106 106 269 106q166 0 275 -95l-84 -131q-31 28 -80.5 47t-93.5 19q-107 0 -159 -58q-52 -56 -52 -144q0 -99 59 -158q61 -59 146 -59q78 0 145 52v55h-101v149h256v-404h-146v20l1 30h-2q-32 -28 -83.5 -45t-104.5 -17q-144 0 -248 101
q-103 100 -103 270zM354 761h-135l99 150h168l99 -150h-135l-47 82h-2z" />
    <glyph glyph-name="gcircumflex" unicode="&#x11d;" horiz-adv-x="625" 
d="M81 -164l49 131q68 -33 145 -33q119 0 119 99v17l1 19h-2q-45 -54 -129 -54q-110 0 -171 76t-61 183q0 106 60 179q60 74 171 74q90 0 140 -50h3q-1 4 -1 12v26h162v-468q0 -68 -25 -119t-67.5 -80.5t-92.5 -43.5t-106 -14q-107 0 -195 46zM206 280q0 -54 26 -87.5
t73 -33.5q93 0 93 113q0 111 -100 111q-43 0 -67.5 -28t-24.5 -75zM256 565h-135l99 150h168l99 -150h-135l-47 82h-2z" />
    <glyph glyph-name="Gbreve" unicode="&#x11e;" horiz-adv-x="773" 
d="M37 359q0 157 106 262q106 106 269 106q166 0 275 -95l-84 -131q-31 28 -80.5 47t-93.5 19q-107 0 -159 -58q-52 -56 -52 -144q0 -99 59 -158q61 -59 146 -59q78 0 145 52v55h-101v149h256v-404h-146v20l1 30h-2q-32 -28 -83.5 -45t-104.5 -17q-144 0 -248 101
q-103 100 -103 270zM228 901v10h117v-11q0 -36 28.5 -51t57 0t28.5 51v11h117v-10q0 -67 -51 -106q-49 -39 -123 -39q-73 0 -124 39q-50 39 -50 106z" />
    <glyph glyph-name="gbreve" unicode="&#x11f;" horiz-adv-x="625" 
d="M81 -164l49 131q68 -33 145 -33q119 0 119 99v17l1 19h-2q-45 -54 -129 -54q-110 0 -171 76t-61 183q0 106 60 179q60 74 171 74q90 0 140 -50h3q-1 4 -1 12v26h162v-468q0 -68 -25 -119t-67.5 -80.5t-92.5 -43.5t-106 -14q-107 0 -195 46zM206 280q0 -54 26 -87.5
t73 -33.5q93 0 93 113q0 111 -100 111q-43 0 -67.5 -28t-24.5 -75zM130 705v10h117v-11q0 -36 28.5 -51t57 0t28.5 51v11h117v-10q0 -67 -51 -106q-49 -39 -123 -39q-73 0 -124 39q-50 39 -50 106z" />
    <glyph glyph-name="Gdotaccent" unicode="&#x120;" horiz-adv-x="773" 
d="M37 359q0 157 106 262q106 106 269 106q166 0 275 -95l-84 -131q-31 28 -80.5 47t-93.5 19q-107 0 -159 -58q-52 -56 -52 -144q0 -99 59 -158q61 -59 146 -59q78 0 145 52v55h-101v149h256v-404h-146v20l1 30h-2q-32 -28 -83.5 -45t-104.5 -17q-144 0 -248 101
q-103 100 -103 270zM474 779h-143v132h143v-132z" />
    <glyph glyph-name="gdotaccent" unicode="&#x121;" horiz-adv-x="625" 
d="M81 -164l49 131q68 -33 145 -33q119 0 119 99v17l1 19h-2q-45 -54 -129 -54q-110 0 -171 76t-61 183q0 106 60 179q60 74 171 74q90 0 140 -50h3q-1 4 -1 12v26h162v-468q0 -68 -25 -119t-67.5 -80.5t-92.5 -43.5t-106 -14q-107 0 -195 46zM206 280q0 -54 26 -87.5
t73 -33.5q93 0 93 113q0 111 -100 111q-43 0 -67.5 -28t-24.5 -75zM376 583h-143v132h143v-132z" />
    <glyph glyph-name="Gcommaaccent" unicode="&#x122;" horiz-adv-x="773" 
d="M37 359q0 157 106 262q106 106 269 106q166 0 275 -95l-84 -131q-31 28 -80.5 47t-93.5 19q-107 0 -159 -58q-52 -56 -52 -144q0 -99 59 -158q61 -59 146 -59q78 0 145 52v55h-101v149h256v-404h-146v20l1 30h-2q-32 -28 -83.5 -45t-104.5 -17q-144 0 -248 101
q-103 100 -103 270zM317 -49h136q7 -27 7 -58q0 -48 -28 -103h-123q20 60 20 93t-12 68z" />
    <glyph glyph-name="gcommaaccent" unicode="&#x123;" horiz-adv-x="625" 
d="M81 -164l49 131q68 -33 145 -33q119 0 119 99v17l1 19h-2q-45 -54 -129 -54q-110 0 -171 76t-61 183q0 106 60 179q60 74 171 74q90 0 140 -50h3q-1 4 -1 12v26h162v-468q0 -68 -25 -119t-67.5 -80.5t-92.5 -43.5t-106 -14q-107 0 -195 46zM206 280q0 -54 26 -87.5
t73 -33.5q93 0 93 113q0 111 -100 111q-43 0 -67.5 -28t-24.5 -75zM375 560h-135q-7 27 -7 56q0 45 27 99h123q-20 -58 -20 -89q0 -33 12 -66z" />
    <glyph glyph-name="Hcircumflex" unicode="&#x124;" horiz-adv-x="760" 
d="M250 0h-175v715h175v-286h260v286h175v-715h-175v280h-260v-280zM332 761h-135l99 150h168l99 -150h-135l-47 82h-2z" />
    <glyph glyph-name="hcircumflex" unicode="&#x125;" horiz-adv-x="626" 
d="M231 0h-173v715h173v-226l-2 -44h2q22 38 64 60t93 22q185 0 185 -193v-334h-173v302q0 68 -57 68q-53 0 -82.5 -37.5t-29.5 -100.5v-232zM97 761h-135l99 150h168l99 -150h-135l-47 82h-2z" />
    <glyph glyph-name="Hbar" unicode="&#x126;" horiz-adv-x="764" 
d="M261 0h-179v517h-66v107h66v91h179v-91h242v91h179v-91h65v-107h-65v-517h-179v280h-242v-280zM261 517v-88h242v88h-242z" />
    <glyph glyph-name="hbar" unicode="&#x127;" horiz-adv-x="626" 
d="M231 0h-173v554h-58v95h58v66h173v-66h134v-95h-134v-65l-2 -44h2q22 38 64 60t93 22q185 0 185 -193v-334h-173v302q0 68 -57 68q-53 0 -82.5 -38t-29.5 -99v-233z" />
    <glyph glyph-name="Itilde" unicode="&#x128;" horiz-adv-x="325" 
d="M74 761h-112q0 153 128 153q32 0 73 -30t53 -30q37 0 37 57h112q0 -153 -128 -153q-25 0 -50 15t-44.5 30t-31.5 15q-37 0 -37 -57zM250 0h-175v715h175v-715z" />
    <glyph glyph-name="itilde" unicode="&#x129;" horiz-adv-x="289" 
d="M55 565h-112q0 153 128 153q25 0 50 -15t44.5 -30t31.5 -15q37 0 37 57h112q0 -153 -128 -153q-25 0 -50 15t-44.5 30t-31.5 15q-37 0 -37 -57zM231 0h-173v515h173v-515z" />
    <glyph glyph-name="Imacron" unicode="&#x12a;" horiz-adv-x="325" 
d="M301 782h-275v112h275v-112zM250 0h-175v715h175v-715z" />
    <glyph glyph-name="imacron" unicode="&#x12b;" horiz-adv-x="289" 
d="M282 586h-275v112h275v-112zM231 0h-173v515h173v-515z" />
    <glyph glyph-name="Ibreve" unicode="&#x12c;" horiz-adv-x="325" 
d="M-11 901v10h117v-11q0 -36 28.5 -51t57 0t28.5 51v11h117v-10q0 -67 -51 -106q-50 -39 -123 -39t-124 39q-50 39 -50 106zM250 0h-175v715h175v-715z" />
    <glyph glyph-name="ibreve" unicode="&#x12d;" horiz-adv-x="289" 
d="M-30 705v10h117v-11q0 -36 28.5 -51t57 0t28.5 51v11h117v-10q0 -67 -51 -106q-49 -39 -123 -39q-73 0 -124 39q-50 39 -50 106zM231 0h-173v515h173v-515z" />
    <glyph glyph-name="Iogonek" unicode="&#x12e;" horiz-adv-x="325" 
d="M134 0h-59v715h175v-715q-43 -40 -43 -61q0 -9 9 -15.5t20 -7.5l9 -2l-42 -124q-23 3 -46 10q-83 24 -87 89q0 56 64 111z" />
    <glyph glyph-name="iogonek" unicode="&#x12f;" horiz-adv-x="289" 
d="M115 0h-57v515h173v-515q-43 -40 -43 -61q0 -9 9 -15.5t19 -7.5l10 -2l-42 -124q-12 0 -46 10q-83 24 -87 90q0 55 64 110zM229 580h-169v135h169v-135z" />
    <glyph glyph-name="Idot" unicode="&#x130;" horiz-adv-x="325" 
d="M250 0h-175v715h175v-715zM235 779h-143v132h143v-132z" />
    <glyph glyph-name="dotlessi" unicode="&#x131;" horiz-adv-x="289" 
d="M231 0h-173v515h173v-515z" />
    <glyph glyph-name="IJ" unicode="&#x132;" horiz-adv-x="681" 
d="M318 -4v158q41 0 79 27q37 28 37 89v445h179v-447q0 -128 -66 -194q-29 -28 -69 -48q-66 -30 -160 -30zM250 0h-175v715h175v-715z" />
    <glyph glyph-name="ij" unicode="&#x133;" horiz-adv-x="578" 
d="M518 580h-169v135h169v-135zM347 4v511h173v-528q0 -96 -62 -144q-27 -21 -61 -32q-56 -19 -119 -19q-24 0 -46 3v144q5 -1 22 -1q93 0 93 66zM229 580h-169v135h169v-135zM231 0h-173v515h173v-515z" />
    <glyph glyph-name="Jcircumflex" unicode="&#x134;" horiz-adv-x="566" 
d="M18 220v52h175v-38q0 -86 65 -86q64 0 64 76v341h-192v150h367v-495q0 -110 -71 -172q-70 -60 -168 -60q-99 0 -169 61q-71 62 -71 171zM261 761h-135l99 150h168l99 -150h-135l-47 82h-2z" />
    <glyph glyph-name="jcircumflex" unicode="&#x135;" horiz-adv-x="289" 
d="M97 565h-127l99 150h152l99 -150h-127l-47 82h-2zM58 4v511h173v-528q0 -96 -62 -144q-27 -21 -61 -32q-56 -19 -119 -19q-23 0 -46 3v144q4 -1 22 -1q93 0 93 66z" />
    <glyph glyph-name="Kcommaaccent" unicode="&#x136;" horiz-adv-x="675" 
d="M250 0h-175v715h175v-276h72l148 276h188l-193 -342v-2l204 -371h-196l-151 290h-72v-290zM271 -49h136q7 -27 7 -58q0 -48 -28 -103h-123q20 60 20 93t-12 68z" />
    <glyph glyph-name="kcommaaccent" unicode="&#x137;" horiz-adv-x="591" 
d="M231 0h-173v715h173v-370h49l102 170h188l-151 -234v-2l172 -279h-197l-109 200h-54v-200zM233 -49h136q7 -27 7 -58q0 -48 -28 -103h-123q20 60 20 93t-12 68z" />
    <glyph glyph-name="kgreenlandic" unicode="&#x138;" horiz-adv-x="589" 
d="M231 0h-173v515h173v-180h49l105 180h188l-154 -244v-2l166 -269h-200l-100 190h-54v-190z" />
    <glyph glyph-name="Lacute" unicode="&#x139;" horiz-adv-x="552" 
d="M542 0h-467v715h175v-565h292v-150zM225 761h-134l81 150h171z" />
    <glyph glyph-name="lacute" unicode="&#x13a;" horiz-adv-x="322" 
d="M57 190v525h173v-502q0 -39 9.5 -52.5t38.5 -13.5q16 0 21 1v-150q-36 -3 -52 -3q-78 0 -129 32q-61 39 -61 163zM206 761h-134l81 150h171z" />
    <glyph glyph-name="Lcommaaccent" unicode="&#x13b;" horiz-adv-x="552" 
d="M242 -49h136q7 -27 7 -58q0 -48 -28 -103h-123q20 60 20 93t-12 68zM542 0h-467v715h175v-565h292v-150z" />
    <glyph glyph-name="lcommaaccent" unicode="&#x13c;" horiz-adv-x="322" 
d="M57 190v525h173v-502q0 -39 9.5 -52.5t38.5 -13.5q16 0 21 1v-150q-36 -3 -52 -3q-78 0 -129 32q-61 39 -61 163zM113 -49h136q7 -27 7 -58q0 -48 -28 -103h-123q20 60 20 93t-12 68z" />
    <glyph glyph-name="Lcaron" unicode="&#x13d;" horiz-adv-x="553" 
d="M320 715h136q7 -27 7 -58q0 -48 -28 -103h-123q20 60 20 93t-12 68zM542 0h-467v715h175v-565h292v-150z" />
    <glyph glyph-name="lcaron" unicode="&#x13e;" horiz-adv-x="342" 
d="M57 190v525h173v-502q0 -39 9.5 -52.5t38.5 -13.5q16 0 21 1v-150q-36 -3 -52 -3q-78 0 -129 32q-61 39 -61 163zM277 715h136q7 -27 7 -58q0 -48 -28 -103h-123q20 60 20 93t-12 68z" />
    <glyph glyph-name="Ldot" unicode="&#x13f;" horiz-adv-x="554" 
d="M542 0h-467v715h175v-565h292v-150zM501 315h-158v164h158v-164z" />
    <glyph glyph-name="ldot" unicode="&#x140;" horiz-adv-x="495" 
d="M57 190v525h173v-502q0 -39 9.5 -52.5t38.5 -13.5q16 0 21 1v-150q-36 -3 -52 -3q-78 0 -129 32q-61 39 -61 163zM470 315h-158v164h158v-164z" />
    <glyph glyph-name="Lslash" unicode="&#x141;" horiz-adv-x="556" 
d="M546 0h-467v205l-52 -30v166l52 30v344h175v-244l101 58v-166l-101 -58v-155h292v-150z" />
    <glyph glyph-name="lslash" unicode="&#x142;" horiz-adv-x="334" 
d="M68 224l-50 -29v166l50 29v325h173v-226l69 40v-166l-69 -40v-110q0 -39 9.5 -52.5t38.5 -13.5l21 1v-150q-24 -3 -52 -3q-78 0 -129 32q-61 39 -61 163v34z" />
    <glyph glyph-name="Nacute" unicode="&#x143;" horiz-adv-x="754" 
d="M250 0h-175v715h177l198 -334q26 -45 51 -102l9 -20h2q-8 82 -8 122v334h175v-715h-176l-199 333q-26 45 -51 102l-9 20h-2q8 -82 8 -122v-333zM439 761h-134l81 150h171z" />
    <glyph glyph-name="nacute" unicode="&#x144;" horiz-adv-x="626" 
d="M231 0h-173v515h166v-45l-2 -32h2q53 89 164 89q185 0 185 -193v-334h-173v302q0 68 -57 68q-53 0 -82.5 -38t-29.5 -99v-233zM381 565h-134l81 150h171z" />
    <glyph glyph-name="Ncommaaccent" unicode="&#x145;" horiz-adv-x="754" 
d="M250 0h-175v715h177l198 -334q26 -45 51 -102l9 -20h2q-8 82 -8 122v334h175v-715h-176l-199 333q-26 45 -51 102l-9 20h-2q8 -82 8 -122v-333zM306 -49h136q7 -27 7 -58q0 -48 -28 -103h-123q20 60 20 93t-12 68z" />
    <glyph glyph-name="ncommaaccent" unicode="&#x146;" horiz-adv-x="626" 
d="M231 0h-173v515h166v-45l-2 -32h2q53 89 164 89q185 0 185 -193v-334h-173v302q0 68 -57 68q-53 0 -82.5 -38t-29.5 -99v-233zM241 -49h136q7 -27 7 -58q0 -48 -28 -103h-123q20 60 20 93t-12 68z" />
    <glyph glyph-name="Ncaron" unicode="&#x147;" horiz-adv-x="754" 
d="M250 0h-175v715h177l198 -334q26 -45 51 -102l9 -20h2q-8 82 -8 122v334h175v-715h-176l-199 333q-26 45 -51 102l-9 20h-2q8 -82 8 -122v-333zM461 761h-168l-99 150h135l47 -82h2l47 82h135z" />
    <glyph glyph-name="ncaron" unicode="&#x148;" horiz-adv-x="626" 
d="M231 0h-173v515h166v-45l-2 -32h2q53 89 164 89q185 0 185 -193v-334h-173v302q0 68 -57 68q-53 0 -82.5 -38t-29.5 -99v-233zM403 565h-168l-99 150h135l47 -82h2l47 82h135z" />
    <glyph glyph-name="napostrophe" unicode="&#x149;" horiz-adv-x="626" 
d="M231 0h-173v515h166v-45l-2 -32h2q53 89 164 89q185 0 185 -193v-334h-173v302q0 68 -57 68q-53 0 -82.5 -38t-29.5 -99v-233zM-36 715h136q7 -27 7 -58q0 -48 -28 -103h-123q20 60 20 93t-12 68z" />
    <glyph glyph-name="Eng" unicode="&#x14a;" horiz-adv-x="753" 
d="M250 0h-175v715h177l198 -334q26 -45 51 -102l9 -20h2q-8 82 -8 122v334h175v-648q0 -128 -66 -194q-29 -29 -69 -47q-66 -31 -160 -31v158q29 0 65 16q38 17 48 41l-193 323q-26 45 -51 102l-9 20h-2q8 -82 8 -122v-333z" />
    <glyph glyph-name="eng" unicode="&#x14b;" horiz-adv-x="626" 
d="M231 0h-173v515h166v-65l-1 -12h2q53 89 163 89q185 0 185 -193v-347q0 -96 -62 -144q-27 -21 -61 -32q-56 -19 -119 -19l-46 3v144q6 -1 22 -1q93 0 93 66v298q0 68 -57 68q-53 0 -82.5 -38t-29.5 -99v-233z" />
    <glyph glyph-name="Omacron" unicode="&#x14c;" horiz-adv-x="820" 
d="M36 362q0 156 105 260q105 105 269 105t269 -105q105 -104 105 -260q0 -160 -105 -267t-269 -107t-269 107t-105 267zM217 362q0 -92 54 -153q55 -61 139 -61t138 61q55 61 55 153q0 88 -55 146q-54 59 -138 59q-83 0 -139 -59q-54 -58 -54 -146zM548 782h-275v112h275
v-112z" />
    <glyph glyph-name="omacron" unicode="&#x14d;" horiz-adv-x="642" 
d="M320 527q125 0 208 -76q85 -75 85 -195q0 -119 -84 -194q-85 -74 -208 -74t-208 74q-84 75 -84 194q0 118 84 195q83 76 207 76zM204 256q0 -55 33.5 -89.5t83.5 -34.5t83.5 34.5t33.5 89.5q0 56 -33.5 91.5t-83.5 35.5t-83.5 -35.5t-33.5 -91.5zM459 586h-275v112h275
v-112z" />
    <glyph glyph-name="Obreve" unicode="&#x14e;" horiz-adv-x="820" 
d="M36 362q0 156 105 260q105 105 269 105t269 -105q105 -104 105 -260q0 -160 -105 -267t-269 -107t-269 107t-105 267zM217 362q0 -92 54 -153q55 -61 139 -61t138 61q55 61 55 153q0 88 -55 146q-54 59 -138 59q-83 0 -139 -59q-54 -58 -54 -146zM236 901v10h117v-11
q0 -36 28.5 -51t57 0t28.5 51v11h117v-10q0 -67 -51 -106q-49 -39 -123 -39q-73 0 -124 39q-50 39 -50 106z" />
    <glyph glyph-name="obreve" unicode="&#x14f;" horiz-adv-x="642" 
d="M320 527q125 0 208 -76q85 -75 85 -195q0 -119 -84 -194q-85 -74 -208 -74t-208 74q-84 75 -84 194q0 118 84 195q83 76 207 76zM204 256q0 -55 33.5 -89.5t83.5 -34.5t83.5 34.5t33.5 89.5q0 56 -33.5 91.5t-83.5 35.5t-83.5 -35.5t-33.5 -91.5zM147 705v10h117v-11
q0 -36 28.5 -51t57 0t28.5 51v11h117v-10q0 -67 -51 -106q-50 -39 -123 -39t-124 39q-50 39 -50 106z" />
    <glyph glyph-name="Ohungarumlaut" unicode="&#x150;" horiz-adv-x="820" 
d="M36 362q0 156 105 260q105 105 269 105t269 -105q105 -104 105 -260q0 -160 -105 -267t-269 -107t-269 107t-105 267zM217 362q0 -92 54 -153q55 -61 139 -61t138 61q55 61 55 153q0 88 -55 146q-54 59 -138 59q-83 0 -139 -59q-54 -58 -54 -146zM562 761h-126l81 150
h163zM364 761h-136l76 150h139z" />
    <glyph glyph-name="ohungarumlaut" unicode="&#x151;" horiz-adv-x="642" 
d="M320 527q125 0 208 -76q85 -75 85 -195q0 -119 -84 -194q-85 -74 -208 -74t-208 74q-84 75 -84 194q0 118 84 195q83 76 207 76zM204 256q0 -55 33.5 -89.5t83.5 -34.5t83.5 34.5t33.5 89.5q0 56 -33.5 91.5t-83.5 35.5t-83.5 -35.5t-33.5 -91.5zM473 565h-126l81 150
h163zM275 565h-136l76 150h139z" />
    <glyph glyph-name="OE" unicode="&#x152;" horiz-adv-x="990" 
d="M419 723q27 0 75 -4t57 -4h388v-150h-273v-130h218v-150h-218v-135h288v-150h-403q-9 0 -57 -4t-75 -4q-159 0 -272 107q-112 106 -112 260q0 153 112 258q112 106 272 106zM419 141q46 0 64 5l8 2v419q-27 7 -72 7q-85 0 -144 -63q-59 -62 -59 -152q0 -89 59 -154
q58 -64 144 -64z" />
    <glyph glyph-name="oe" unicode="&#x153;" horiz-adv-x="975" 
d="M314 527q66 0 111.5 -19.5t87.5 -60.5h2q37 41 80.5 60.5t109.5 19.5q111 0 174 -70q64 -68 64 -179l-4 -54h-324q9 -42 42 -67t77 -25q71 0 142 52l64 -121q-88 -75 -220 -75q-70 0 -116 21t-85 64h-2q-42 -43 -89 -64t-113 -21q-121 0 -204 74q-82 75 -82 194t82 195
t203 76zM618 323h151q-1 30 -19.5 52t-46.5 22q-67 0 -85 -74zM203 256q0 -55 33.5 -89.5t83.5 -34.5t83.5 34.5t33.5 89.5q0 56 -33.5 91.5t-83.5 35.5t-83.5 -35.5t-33.5 -91.5z" />
    <glyph glyph-name="Racute" unicode="&#x154;" horiz-adv-x="658" 
d="M250 0h-175v715h249q94 0 139 -17q63 -24 97.5 -78t34.5 -130q0 -62 -28.5 -115.5t-78.5 -79.5v-2q11 -15 27 -43l139 -250h-195l-127 241h-82v-241zM250 565v-174h76q43 0 67 23t24 65q0 59 -42 76q-21 10 -66 10h-59zM379 761h-134l81 150h171z" />
    <glyph glyph-name="racute" unicode="&#x155;" horiz-adv-x="426" 
d="M231 0h-173v515h166v-87l-2 -32h2q18 55 63.5 91.5t100.5 36.5q4 0 20 -2v-170q-9 3 -35 3q-69 0 -105.5 -40.5t-36.5 -114.5v-200zM312 564h-134l81 150h171z" />
    <glyph glyph-name="Rcommaaccent" unicode="&#x156;" horiz-adv-x="658" 
d="M250 0h-175v715h249q94 0 139 -17q63 -24 97.5 -78t34.5 -130q0 -62 -28.5 -115.5t-78.5 -79.5v-2q11 -15 27 -43l139 -250h-195l-127 241h-82v-241zM250 565v-174h76q43 0 67 23t24 65q0 59 -42 76q-21 10 -66 10h-59zM267 -49h136q7 -27 7 -58q0 -48 -28 -103h-123
q20 60 20 93t-12 68z" />
    <glyph glyph-name="rcommaaccent" unicode="&#x157;" horiz-adv-x="426" 
d="M231 0h-173v515h166v-87l-2 -32h2q18 55 63.5 91.5t100.5 36.5q4 0 20 -2v-170q-9 3 -35 3q-69 0 -105.5 -40.5t-36.5 -114.5v-200zM74 -49h136q7 -27 7 -58q0 -48 -28 -103h-123q20 60 20 93t-12 68z" />
    <glyph glyph-name="Rcaron" unicode="&#x158;" horiz-adv-x="658" 
d="M250 0h-175v715h249q94 0 139 -17q63 -24 97.5 -78t34.5 -130q0 -62 -28.5 -115.5t-78.5 -79.5v-2q11 -15 27 -43l139 -250h-195l-127 241h-82v-241zM250 565v-174h76q43 0 67 23t24 65q0 59 -42 76q-21 10 -66 10h-59zM401 761h-168l-99 150h135l47 -82h2l47 82h135z
" />
    <glyph glyph-name="rcaron" unicode="&#x159;" horiz-adv-x="426" 
d="M231 0h-173v515h166v-87l-2 -32h2q18 55 63.5 91.5t100.5 36.5q4 0 20 -2v-170q-9 3 -35 3q-69 0 -105.5 -40.5t-36.5 -114.5v-200zM334 564h-168l-99 150h135l47 -82h2l47 82h135z" />
    <glyph glyph-name="Sacute" unicode="&#x15a;" horiz-adv-x="575" 
d="M26 90l92 133q36 -32 83 -53t89 -21q35 0 54.5 14t19.5 36q0 15 -8 27t-25.5 23t-34 18.5l-44.5 19.5l-46 20q-73 35 -115.5 80t-42.5 121q0 98 72 158q73 61 187 61q133 0 224 -81l-74 -143q-32 28 -75 45.5t-83 17.5q-76 0 -76 -51q0 -44 82 -74l36.5 -14.5t41 -17
t37 -18.5t38.5 -23.5l30.5 -27.5t28 -35.5t15.5 -42t7 -51.5q0 -94 -68 -159q-67 -64 -186 -64q-73 0 -141.5 26.5t-117.5 75.5zM350 761h-134l81 150h171z" />
    <glyph glyph-name="sacute" unicode="&#x15b;" horiz-adv-x="471" 
d="M19 64l74 113q61 -52 140 -52q47 0 47 27q0 14 -21 24.5t-64 25.5q-31 10 -54 21.5t-48.5 30t-39.5 46.5t-14 64q0 76 60 120q61 43 154 43q110 0 184 -59l-59 -120q-22 18 -59.5 30t-70.5 12q-48 0 -48 -25q0 -12 18 -22.5t44.5 -18t58 -21t58 -30t44.5 -47t18 -69.5
q0 -74 -58 -122q-58 -47 -154 -47q-125 0 -210 76zM291 565h-134l81 150h171z" />
    <glyph glyph-name="Scircumflex" unicode="&#x15c;" horiz-adv-x="575" 
d="M26 90l92 133q36 -32 83 -53t89 -21q35 0 54.5 14t19.5 36q0 15 -8 27t-25.5 23t-34 18.5l-44.5 19.5l-46 20q-73 35 -115.5 80t-42.5 121q0 98 72 158q73 61 187 61q133 0 224 -81l-74 -143q-32 28 -75 45.5t-83 17.5q-76 0 -76 -51q0 -44 82 -74l36.5 -14.5t41 -17
t37 -18.5t38.5 -23.5l30.5 -27.5t28 -35.5t15.5 -42t7 -51.5q0 -94 -68 -159q-67 -64 -186 -64q-73 0 -141.5 26.5t-117.5 75.5zM240 761h-135l99 150h168l99 -150h-135l-47 82h-2z" />
    <glyph glyph-name="scircumflex" unicode="&#x15d;" horiz-adv-x="471" 
d="M19 64l74 113q61 -52 140 -52q47 0 47 27q0 14 -21 24.5t-64 25.5q-31 10 -54 21.5t-48.5 30t-39.5 46.5t-14 64q0 76 60 120q61 43 154 43q110 0 184 -59l-59 -120q-22 18 -59.5 30t-70.5 12q-48 0 -48 -25q0 -12 18 -22.5t44.5 -18t58 -21t58 -30t44.5 -47t18 -69.5
q0 -74 -58 -122q-58 -47 -154 -47q-125 0 -210 76zM182 565h-135l99 150h168l99 -150h-135l-47 82h-2z" />
    <glyph glyph-name="Scedilla" unicode="&#x15e;" horiz-adv-x="576" 
d="M251 -80l-26 -2l22 72q-135 14 -221 100l92 133q36 -32 83 -53t89 -21q35 0 54.5 14t19.5 36q0 15 -8 27t-25.5 23t-34 18.5l-44.5 19.5l-46 20q-73 35 -115.5 80t-42.5 121q0 98 72 158q73 61 187 61q133 0 224 -81l-74 -143q-32 28 -75 45.5t-83 17.5q-76 0 -76 -51
q0 -44 82 -74l36.5 -14.5t41 -17t37 -18.5t38.5 -23.5l30.5 -27.5t28 -35.5t15.5 -42t7 -51.5q0 -85 -56 -147q-55 -61 -155 -73l-6 -27q75 -8 75 -80q0 -48 -32.5 -71t-84.5 -23q-36 0 -71 9v87q17 -10 45 -10q38 0 38 23q0 21 -41 21z" />
    <glyph glyph-name="scedilla" unicode="&#x15f;" horiz-adv-x="473" 
d="M186 -80l-26 -2l23 74q-96 14 -162 72l74 113q61 -52 140 -52q47 0 47 27q0 14 -21 24.5t-64 25.5q-31 10 -54 21.5t-48.5 30t-39.5 46.5t-14 64q0 76 60 120q61 43 154 43q110 0 184 -59l-59 -120q-22 18 -59.5 30t-70.5 12q-48 0 -48 -25q0 -12 18 -22.5t44.5 -18
t58 -21t58 -30t44.5 -47t18 -69.5q0 -68 -49 -114t-131 -53l-6 -26q75 -8 75 -80q0 -48 -32.5 -71t-84.5 -23q-37 0 -71 9v87q17 -10 45 -10q38 0 38 23q0 21 -41 21z" />
    <glyph glyph-name="Scaron" unicode="&#x160;" horiz-adv-x="575" 
d="M26 90l92 133q36 -32 83 -53t89 -21q35 0 54.5 14t19.5 36q0 15 -8 27t-25.5 23t-34 18.5l-44.5 19.5l-46 20q-73 35 -115.5 80t-42.5 121q0 98 72 158q73 61 187 61q133 0 224 -81l-74 -143q-32 28 -75 45.5t-83 17.5q-76 0 -76 -51q0 -44 82 -74l36.5 -14.5t41 -17
t37 -18.5t38.5 -23.5l30.5 -27.5t28 -35.5t15.5 -42t7 -51.5q0 -94 -68 -159q-67 -64 -186 -64q-73 0 -141.5 26.5t-117.5 75.5zM372 761h-168l-99 150h135l47 -82h2l47 82h135z" />
    <glyph glyph-name="scaron" unicode="&#x161;" horiz-adv-x="471" 
d="M19 64l74 113q61 -52 140 -52q47 0 47 27q0 14 -21 24.5t-64 25.5q-31 10 -54 21.5t-48.5 30t-39.5 46.5t-14 64q0 76 60 120q61 43 154 43q110 0 184 -59l-59 -120q-22 18 -59.5 30t-70.5 12q-48 0 -48 -25q0 -12 18 -22.5t44.5 -18t58 -21t58 -30t44.5 -47t18 -69.5
q0 -74 -58 -122q-58 -47 -154 -47q-125 0 -210 76zM314 565h-168l-99 150h135l47 -82h2l47 82h135z" />
    <glyph glyph-name="Tcommaaccent" unicode="&#x162;" horiz-adv-x="633" 
d="M274 0h-45v565h-217v150h609v-150h-217v-565h-50l-9 -36q75 -8 75 -80q0 -48 -32.5 -71t-84.5 -23q-36 0 -71 9v87q17 -10 45 -10q38 0 38 23q0 21 -41 21l-26 -2z" />
    <glyph glyph-name="tcommaaccent" unicode="&#x163;" horiz-adv-x="411" 
d="M182 -80l-26 -2l33 104q-101 48 -101 168v181h-66v135h71v148h168v-148h108v-135h-108v-158q0 -66 92 -66q16 0 23 1v-150q-39 -3 -47 -3q-34 0 -67 5l-9 -36q75 -8 75 -80q0 -48 -32.5 -71t-84.5 -23q-37 0 -71 9v87q17 -10 45 -10q38 0 38 23q0 21 -41 21z" />
    <glyph glyph-name="Tcaron" unicode="&#x164;" horiz-adv-x="633" 
d="M404 0h-175v565h-217v150h609v-150h-217v-565zM400 761h-168l-99 150h135l47 -82h2l47 82h135z" />
    <glyph glyph-name="tcaron" unicode="&#x165;" horiz-adv-x="411" 
d="M88 190v181h-66v135h71v148h168v-148h108v-135h-108v-158q0 -66 92 -66q16 0 23 1v-150q-39 -3 -47 -3q-90 0 -152 33q-89 55 -89 162zM303 715h136q7 -27 7 -54q0 -45 -28 -97h-123q19 52 20 87t-12 64z" />
    <glyph glyph-name="Tbar" unicode="&#x166;" horiz-adv-x="644" 
d="M409 0h-175v272h-142v127h142v166h-217v150h609v-150h-217v-166h148v-127h-148v-272z" />
    <glyph glyph-name="tbar" unicode="&#x167;" horiz-adv-x="414" 
d="M91 209h-77v107h77v55h-66v135h71v148h168v-148h108v-135h-108v-55h97v-107h-97v-5q0 -30 26.5 -43.5t65.5 -13.5l23 1v-150q-19 -3 -47 -3q-90 0 -152 33q-89 55 -89 162v19z" />
    <glyph glyph-name="Utilde" unicode="&#x168;" horiz-adv-x="732" 
d="M277 761h-112q0 153 128 153q25 0 50 -15t44.5 -30t31.5 -15q37 0 37 57h112q0 -153 -128 -153q-25 0 -50 15t-44.5 30t-31.5 15q-37 0 -37 -57zM67 263v452h175v-452q0 -54 33.5 -84.5t90.5 -30.5t90.5 30.5t33.5 84.5v452h175v-452q0 -123 -82 -199t-216 -76
q-136 0 -218 76t-82 199z" />
    <glyph glyph-name="utilde" unicode="&#x169;" horiz-adv-x="621" 
d="M53 181v334h173v-302q0 -68 55 -68q52 0 80.5 39.5t28.5 102.5v228h173v-515h-166v45l2 32h-2q-21 -41 -65 -65t-96 -24q-183 0 -183 193zM219 565h-112q0 153 128 153q25 0 50 -15t44.5 -30t31.5 -15q37 0 37 57h112q0 -153 -128 -153q-25 0 -50 15t-44.5 30t-31.5 15
q-37 0 -37 -57z" />
    <glyph glyph-name="Umacron" unicode="&#x16a;" horiz-adv-x="732" 
d="M67 263v452h175v-452q0 -54 33.5 -84.5t90.5 -30.5t90.5 30.5t33.5 84.5v452h175v-452q0 -123 -82 -199t-216 -76q-136 0 -218 76t-82 199zM504 782h-275v112h275v-112z" />
    <glyph glyph-name="umacron" unicode="&#x16b;" horiz-adv-x="621" 
d="M53 181v334h173v-302q0 -68 55 -68q52 0 80.5 39.5t28.5 102.5v228h173v-515h-166v45l2 32h-2q-21 -41 -65 -65t-96 -24q-183 0 -183 193zM446 586h-275v112h275v-112z" />
    <glyph glyph-name="Ubreve" unicode="&#x16c;" horiz-adv-x="732" 
d="M192 901v10h117v-11q0 -36 28.5 -51t57 0t28.5 51v11h117v-10q0 -67 -51 -106q-49 -39 -123 -39q-73 0 -124 39q-50 39 -50 106zM67 263v452h175v-452q0 -54 33.5 -84.5t90.5 -30.5t90.5 30.5t33.5 84.5v452h175v-452q0 -123 -82 -199t-216 -76q-136 0 -218 76t-82 199z
" />
    <glyph glyph-name="ubreve" unicode="&#x16d;" horiz-adv-x="621" 
d="M53 181v334h173v-302q0 -68 55 -68q52 0 80.5 39.5t28.5 102.5v228h173v-515h-166v45l2 32h-2q-21 -41 -65 -65t-96 -24q-183 0 -183 193zM134 705v10h117v-11q0 -36 28.5 -51t57 0t28.5 51v11h117v-10q0 -67 -51 -106q-49 -39 -123 -39q-73 0 -124 39q-50 39 -50 106z
" />
    <glyph glyph-name="Uring" unicode="&#x16e;" horiz-adv-x="732" 
d="M443 769q-33 -22 -77 -22t-77 22q-32 23 -32 63t32 63q33 23 77 23t77 -23t33 -63t-33 -63zM366 868q-21 2 -30 -17t-0.5 -37.5t30.5 -16.5q22 -2 31 16.5t0 37.5t-31 17zM67 263v452h175v-452q0 -54 33.5 -84.5t90.5 -30.5t90.5 30.5t33.5 84.5v452h175v-452
q0 -123 -82 -199t-216 -76q-136 0 -218 76t-82 199z" />
    <glyph glyph-name="uring" unicode="&#x16f;" horiz-adv-x="621" 
d="M53 181v334h173v-302q0 -68 55 -68q52 0 80.5 39.5t28.5 102.5v228h173v-515h-166v45l2 32h-2q-21 -41 -65 -65t-96 -24q-183 0 -183 193zM385 573q-33 -22 -77 -22t-77 22q-32 23 -32 63t32 63q33 23 77 23t77 -23t33 -63t-33 -63zM308 672q-21 2 -30 -17t-0.5 -37.5
t30.5 -16.5q22 -2 31 16.5t0 37.5t-31 17z" />
    <glyph glyph-name="Uhungarumlaut" unicode="&#x170;" horiz-adv-x="732" 
d="M67 263v452h175v-452q0 -54 33.5 -84.5t90.5 -30.5t90.5 30.5t33.5 84.5v452h175v-452q0 -123 -82 -199t-216 -76q-136 0 -218 76t-82 199zM518 761h-126l81 150h163zM320 761h-136l76 150h139z" />
    <glyph glyph-name="uhungarumlaut" unicode="&#x171;" horiz-adv-x="621" 
d="M53 181v334h173v-302q0 -68 55 -68q52 0 80.5 39.5t28.5 102.5v228h173v-515h-166v45l2 32h-2q-21 -41 -65 -65t-96 -24q-183 0 -183 193zM460 565h-126l81 150h163zM262 565h-136l76 150h139z" />
    <glyph glyph-name="Uogonek" unicode="&#x172;" horiz-adv-x="734" 
d="M68 263v452h175v-452q0 -54 33.5 -84.5t90.5 -30.5t90.5 30.5t33.5 84.5v452h175v-452q0 -95 -45 -153q-22 -27 -38.5 -42.5t-49.5 -41.5q-2 -2 -8.5 -6.5l-10.5 -7.5q-24 -18 -33 -26q-33 -28 -33 -47q0 -9 9 -15.5t19 -7.5l10 -2l-42 -124q-23 3 -46 10q-83 24 -87 89
q0 29 17 57t42 43q-5 -1 -15 -1q-40 0 -80 10t-77.5 32t-66 53.5t-46 78t-17.5 101.5z" />
    <glyph glyph-name="uogonek" unicode="&#x173;" horiz-adv-x="621" 
d="M53 181v334h173v-302q0 -68 55 -68q52 0 80.5 39.5t28.5 102.5v228h173v-515q-43 -40 -43 -61q0 -9 9 -15.5t19 -7.5l10 -2l-42 -124q-23 3 -46 10q-83 24 -87 89q0 56 64 111h-50v45l2 32h-2q-21 -41 -65 -65t-96 -24q-183 0 -183 193z" />
    <glyph glyph-name="Wcircumflex" unicode="&#x174;" horiz-adv-x="979" 
d="M384 0h-197l-174 715h184l90 -447q9 -49 9 -66v-9h2q2 31 12 75l110 447h141l107 -447q10 -37 12 -66v-9h2q0 31 9 75l98 447h181l-181 -715h-195l-90 361l-14 84h-2q-3 -34 -14 -84zM440 761h-135l99 150h168l99 -150h-135l-47 82h-2z" />
    <glyph glyph-name="wcircumflex" unicode="&#x175;" horiz-adv-x="836" 
d="M350 0h-195l-144 515h182l64 -304l6 -54h2q1 25 9 54l71 304h148l71 -304l8 -54h2q2 29 7 54l64 304h180l-144 -515h-193l-58 238l-10 55h-2q-3 -29 -10 -55zM371 565h-135l99 150h168l99 -150h-135l-47 82h-2z" />
    <glyph glyph-name="Ycircumflex" unicode="&#x176;" horiz-adv-x="627" 
d="M401 0h-175v293l-236 422h199l81 -172l43 -103h2q15 41 43 103l80 172h199l-236 -422v-293zM266 761h-135l99 150h168l99 -150h-135l-47 82h-2z" />
    <glyph glyph-name="ycircumflex" unicode="&#x177;" horiz-adv-x="561" 
d="M8 -174l55 127q28 -19 53 -19q62 0 83 52l10 24l-219 505h196l76 -237l19 -80h2l17 77l65 240h189l-211 -570q-29 -77 -86 -116t-129 -39q-60 0 -105 27zM234 564h-135l99 150h168l99 -150h-135l-47 82h-2z" />
    <glyph glyph-name="Ydieresis" unicode="&#x178;" horiz-adv-x="627" 
d="M401 0h-175v293l-236 422h199l81 -172l43 -103h2q15 41 43 103l80 172h199l-236 -422v-293zM482 771h-126v140h126v-140zM273 771h-126v140h126v-140z" />
    <glyph glyph-name="Zacute" unicode="&#x179;" horiz-adv-x="635" 
d="M595 0h-558v110l276 391q26 37 48 59l7 6v2q-23 -3 -55 -3h-263v150h540v-108l-277 -393q-29 -41 -48 -58l-7 -7v-2q22 3 55 3h282v-150zM390 761h-134l81 150h171z" />
    <glyph glyph-name="zacute" unicode="&#x17a;" horiz-adv-x="544" 
d="M507 0h-473v86l189 237q21 25 39 43l6 4v2q-18 -2 -45 -2h-181v145h460v-87l-188 -237q-18 -23 -40 -42l-6 -5v-2q14 3 46 3h193v-145zM328 565h-134l81 150h171z" />
    <glyph glyph-name="Zdotaccent" unicode="&#x17b;" horiz-adv-x="635" 
d="M595 0h-558v110l276 391q26 37 48 59l7 6v2q-23 -3 -55 -3h-263v150h540v-108l-277 -393q-29 -41 -48 -58l-7 -7v-2q22 3 55 3h282v-150zM400 779h-143v132h143v-132z" />
    <glyph glyph-name="zdotaccent" unicode="&#x17c;" horiz-adv-x="544" 
d="M507 0h-473v86l189 237q21 25 39 43l6 4v2q-18 -2 -45 -2h-181v145h460v-87l-188 -237q-18 -23 -40 -42l-6 -5v-2q14 3 46 3h193v-145zM338 583h-143v132h143v-132z" />
    <glyph glyph-name="Zcaron" unicode="&#x17d;" horiz-adv-x="635" 
d="M595 0h-558v110l276 391q26 37 48 59l7 6v2q-23 -3 -55 -3h-263v150h540v-108l-277 -393q-29 -41 -48 -58l-7 -7v-2q22 3 55 3h282v-150zM412 761h-168l-99 150h135l47 -82h2l47 82h135z" />
    <glyph glyph-name="zcaron" unicode="&#x17e;" horiz-adv-x="544" 
d="M507 0h-473v86l189 237q21 25 39 43l6 4v2q-18 -2 -45 -2h-181v145h460v-87l-188 -237q-18 -23 -40 -42l-6 -5v-2q14 3 46 3h193v-145zM350 565h-168l-99 150h135l47 -82h2l47 82h135z" />
    <glyph glyph-name="longs" unicode="&#x17f;" horiz-adv-x="346" 
d="M268 0h-173v371h-63v135h63v21q0 92 58 141q28 21 59 32q56 19 119 19l52 -3v-146q-16 2 -28 2q-38 0 -62.5 -13t-24.5 -40v-519z" />
    <glyph glyph-name="florin" unicode="&#x192;" 
d="M29 -118v146q50 -7 70 -7q86 0 92 64l19 225h-62v135h74l9 90q10 94 71 141q27 20 60 32q56 19 121 19l88 -8v-146q-56 7 -76 7q-87 0 -93 -64l-7 -71h95v-135h-107l-21 -244q-7 -93 -71 -141q-72 -53 -180 -51z" />
    <glyph glyph-name="Scommaaccent" unicode="&#x218;" horiz-adv-x="575" 
d="M26 90l92 133q36 -32 83 -53t89 -21q35 0 54.5 14t19.5 36q0 15 -8 27t-25.5 23t-34 18.5l-44.5 19.5l-46 20q-73 35 -115.5 80t-42.5 121q0 98 72 158q73 61 187 61q133 0 224 -81l-74 -143q-32 28 -75 45.5t-83 17.5q-76 0 -76 -51q0 -44 82 -74l36.5 -14.5t41 -17
t37 -18.5t38.5 -23.5l30.5 -27.5t28 -35.5t15.5 -42t7 -51.5q0 -94 -68 -159q-67 -64 -186 -64q-73 0 -141.5 26.5t-117.5 75.5zM208 -49h136q7 -27 7 -58q0 -48 -28 -103h-123q20 60 20 93t-12 68z" />
    <glyph glyph-name="scommaaccent" unicode="&#x219;" horiz-adv-x="471" 
d="M19 64l74 113q61 -52 140 -52q47 0 47 27q0 14 -21 24.5t-64 25.5q-31 10 -54 21.5t-48.5 30t-39.5 46.5t-14 64q0 76 60 120q61 43 154 43q110 0 184 -59l-59 -120q-22 18 -59.5 30t-70.5 12q-48 0 -48 -25q0 -12 18 -22.5t44.5 -18t58 -21t58 -30t44.5 -47t18 -69.5
q0 -74 -58 -122q-58 -47 -154 -47q-125 0 -210 76zM154 -49h136q7 -27 7 -58q0 -48 -28 -103h-123q20 60 20 93t-12 68z" />
    <glyph glyph-name="uni021A" unicode="&#x21a;" horiz-adv-x="633" 
d="M404 0h-175v565h-217v150h609v-150h-217v-565zM239 -49h136q7 -27 7 -58q0 -48 -28 -103h-123q20 60 20 93t-12 68z" />
    <glyph glyph-name="uni021B" unicode="&#x21b;" horiz-adv-x="411" 
d="M88 190v181h-66v135h71v148h168v-148h108v-135h-108v-158q0 -66 92 -66q16 0 23 1v-150q-39 -3 -47 -3q-90 0 -152 33q-89 55 -89 162zM160 -49h136q7 -27 7 -58q0 -48 -28 -103h-123q20 60 20 93t-12 68z" />
    <glyph glyph-name="circumflex" unicode="&#x2c6;" horiz-adv-x="486" 
d="M195 761h-135l99 150h168l99 -150h-135l-47 82h-2z" />
    <glyph glyph-name="caron" unicode="&#x2c7;" horiz-adv-x="486" 
d="M327 761h-168l-99 150h135l47 -82h2l47 82h135z" />
    <glyph glyph-name="breve" unicode="&#x2d8;" horiz-adv-x="484" 
d="M68 901v10h117v-11q0 -36 28.5 -51t57 0t28.5 51v11h117v-10q0 -67 -51 -106q-49 -39 -123 -39q-73 0 -124 39q-50 39 -50 106z" />
    <glyph glyph-name="dotaccent" unicode="&#x2d9;" horiz-adv-x="485" 
d="M314 779h-143v132h143v-132z" />
    <glyph glyph-name="ring" unicode="&#x2da;" horiz-adv-x="485" 
d="M319 769q-33 -22 -77 -22t-77 22q-32 23 -32 63t32 63q33 23 77 23t77 -23t33 -63t-33 -63zM242 868q-21 2 -30 -17t-0.5 -37.5t30.5 -16.5q22 -2 31 16.5t0 37.5t-31 17z" />
    <glyph glyph-name="ogonek" unicode="&#x2db;" horiz-adv-x="486" 
d="M146 -111q0 36 26 71q25 33 52 51l26 17l90 -14q-57 -50 -57 -75q0 -9 9 -15.5t20 -7.5l9 -2l-42 -124q-23 3 -46 10q-83 24 -87 89z" />
    <glyph glyph-name="tilde" unicode="&#x2dc;" horiz-adv-x="485" 
d="M153 761h-112q0 153 128 153q25 0 50 -15t44.5 -30t31.5 -15q37 0 37 57h112q0 -153 -128 -153q-25 0 -50 15t-44.5 30t-31.5 15q-37 0 -37 -57z" />
    <glyph glyph-name="hungarumlaut" unicode="&#x2dd;" horiz-adv-x="485" 
d="M351 761h-126l81 150h163zM153 761h-136l76 150h139z" />
    <glyph glyph-name="uni0400" unicode="&#x400;" horiz-adv-x="576" 
d="M537 0h-462v715h448v-150h-273v-130h218v-150h-218v-135h287v-150zM398 761h-134l-118 150h171z" />
    <glyph glyph-name="uni0401" unicode="&#x401;" horiz-adv-x="576" 
d="M537 0h-462v715h448v-150h-273v-130h218v-150h-218v-135h287v-150zM472 771h-126v140h126v-140zM263 771h-126v140h126v-140z" />
    <glyph glyph-name="uni0402" unicode="&#x402;" horiz-adv-x="761" 
d="M363 0h-175v565h-176v150h567v-150h-216v-111l-2 -32h2q71 34 164 34q96 0 156 -63q60 -61 60 -159q0 -103 -60 -175q-60 -71 -168 -71q-23 0 -48 3v145q18 -2 23 -2q30 0 53.5 21.5t23.5 62.5q0 39 -23.5 61.5t-62.5 22.5q-63 0 -105 -20l-13 -6v-276z" />
    <glyph glyph-name="uni0403" unicode="&#x403;" horiz-adv-x="523" 
d="M250 0h-175v715h438v-150h-263v-565zM331 761h-134l81 150h171z" />
    <glyph glyph-name="uni0404" unicode="&#x404;" horiz-adv-x="716" 
d="M37 359q0 156 101 262q102 106 274 106q99 0 171 -36q64 -32 87 -55l10 -10l-81 -132q-17 14 -25 20q-15 12 -63 34q-47 21 -91 21q-76 0 -126.5 -38t-69.5 -103h295v-140h-295q34 -142 196 -142q46 0 97 20q45 18 74 40l25 21l85 -124q-7 -10 -48 -40q-33 -23 -59 -35
q-82 -40 -182 -40q-166 0 -271 105q-104 106 -104 266z" />
    <glyph glyph-name="uni0405" unicode="&#x405;" horiz-adv-x="575" 
d="M26 90l92 133q36 -32 83 -53t89 -21q35 0 54.5 14t19.5 36q0 15 -8 27t-25.5 23t-34 18.5l-44.5 19.5l-46 20q-73 35 -115.5 80t-42.5 121q0 98 72 158q73 61 187 61q133 0 224 -81l-74 -143q-32 28 -75 45.5t-83 17.5q-76 0 -76 -51q0 -44 82 -74l36.5 -14.5t41 -17
t37 -18.5t38.5 -23.5l30.5 -27.5t28 -35.5t15.5 -42t7 -51.5q0 -94 -68 -159q-67 -64 -186 -64q-73 0 -141.5 26.5t-117.5 75.5z" />
    <glyph glyph-name="uni0406" unicode="&#x406;" horiz-adv-x="325" 
d="M250 0h-175v715h175v-715z" />
    <glyph glyph-name="uni0407" unicode="&#x407;" horiz-adv-x="325" 
d="M250 0h-175v715h175v-715zM331 771h-126v140h126v-140zM122 771h-126v140h126v-140z" />
    <glyph glyph-name="uni0408" unicode="&#x408;" horiz-adv-x="566" 
d="M18 220v52h175v-38q0 -86 65 -86q64 0 64 76v341h-192v150h367v-495q0 -110 -71 -172q-70 -60 -168 -60q-99 0 -169 61q-71 62 -71 171z" />
    <glyph glyph-name="uni0409" unicode="&#x409;" horiz-adv-x="995" 
d="M18 -5v159q47 2 74 24q61 48 61 258v279h471v-261h122q104 0 168 -64q65 -65 65 -164q0 -100 -65 -163q-64 -63 -168 -63h-297v565h-118v-129q0 -172 -38 -274q-63 -164 -275 -167zM624 304v-154h89q42 0 65 20t23 56t-23.5 57t-67.5 21h-86z" />
    <glyph glyph-name="uni040A" unicode="&#x40a;" horiz-adv-x="1036" 
d="M250 0h-175v715h175v-266h240v266h175v-266h122q104 0 168 -64q65 -63 65 -161q0 -99 -65 -162q-65 -62 -168 -62h-297v299h-240v-299zM665 299v-149h89q42 0 65 20t23 54t-24 54.5t-67 20.5h-86z" />
    <glyph glyph-name="uni040B" unicode="&#x40b;" horiz-adv-x="767" 
d="M363 0h-175v565h-176v150h567v-150h-216v-111l-2 -32h2q81 34 161 34q103 0 156 -62t53 -171v-223h-179v197q0 105 -93 105q-52 0 -98 -26v-276z" />
    <glyph glyph-name="uni040C" unicode="&#x40c;" horiz-adv-x="675" 
d="M250 0h-175v715h175v-276h72l148 276h188l-193 -342v-2l204 -371h-196l-151 290h-72v-290zM415 761h-134l81 150h171z" />
    <glyph glyph-name="uni040D" unicode="&#x40d;" horiz-adv-x="754" 
d="M251 0h-176v715h175v-334l-8 -122h2q32 77 60 122l198 334h177v-715h-175v333l8 122h-2q-32 -77 -60 -122zM459 761h-134l-118 150h171z" />
    <glyph glyph-name="uni040E" unicode="&#x40e;" horiz-adv-x="631" 
d="M54 42l76 131q44 -36 79 -36q42 0 57 37l-276 541h192l119 -257l39 -96h2q9 37 28 95l88 258h184l-211 -536q-30 -77 -72 -126q-52 -65 -142 -65q-87 0 -163 54zM325 747q-79 0 -135 41q-55 40 -55 112v11h128v-12q0 -28 18 -43.5t44 -15.5t44 15.5t18 43.5v12h127v-11
q0 -72 -55 -112q-56 -41 -134 -41z" />
    <glyph glyph-name="uni040F" unicode="&#x40f;" horiz-adv-x="748" 
d="M297 0h-222v715h175v-566h248v566h175v-715h-221v-140h-155v140z" />
    <glyph glyph-name="uni0410" unicode="&#x410;" horiz-adv-x="664" 
d="M177 0h-180l243 715h184l243 -715h-180l-44 150h-223zM302 429l-41 -139h141l-40 139l-29 123h-2q-19 -89 -29 -123z" />
    <glyph glyph-name="uni0411" unicode="&#x411;" horiz-adv-x="633" 
d="M372 0h-297v715h465v-150h-290v-111h122q104 0 168 -64q65 -65 65 -164q0 -100 -65 -163q-64 -63 -168 -63zM250 304v-154h89q42 0 65 20t23 56t-23.5 57t-67.5 21h-86z" />
    <glyph glyph-name="uni0412" unicode="&#x412;" horiz-adv-x="647" 
d="M338 0h-263v715h263q112 0 177.5 -49t65.5 -138q0 -46 -22 -87.5t-61 -64.5v-2q55 -17 83.5 -61t28.5 -100q0 -108 -77 -161q-76 -52 -195 -52zM250 565v-127h90q30 0 46.5 18.5t16.5 47.5q0 28 -17 44.5t-49 16.5h-87zM250 298v-148h105q35 0 55.5 21t20.5 54t-19.5 53
t-55.5 20h-106z" />
    <glyph glyph-name="uni0413" unicode="&#x413;" horiz-adv-x="523" 
d="M250 0h-175v715h438v-150h-263v-565z" />
    <glyph glyph-name="uni0414" unicode="&#x414;" horiz-adv-x="772" 
d="M261 149h221v416h-143v-33q0 -102 -19 -203q-18 -102 -59 -180zM8 -140v289h74q91 157 91 397v169h484v-566h80v-289h-155v140h-413v-140h-161z" />
    <glyph glyph-name="uni0415" unicode="&#x415;" horiz-adv-x="576" 
d="M537 0h-462v715h448v-150h-273v-130h218v-150h-218v-135h287v-150z" />
    <glyph glyph-name="uni0416" unicode="&#x416;" horiz-adv-x="993" 
d="M202 0h-196l192 371v2l-177 342h188l132 -276h68v276h175v-276h68l132 276h188l-177 -342v-2l192 -371h-196l-139 290h-68v-290h-175v290h-68z" />
    <glyph glyph-name="uni0417" unicode="&#x417;" horiz-adv-x="569" 
d="M15 97l91 115q74 -71 152 -71q94 0 94 80q0 70 -84 70h-86v139h70q37 0 60 20.5t23 51.5q0 34 -22.5 54.5t-61.5 20.5q-74 0 -148 -59l-67 125q100 84 248 84q56 0 106 -21q54 -21 88.5 -69.5t34.5 -111.5q0 -101 -93 -156v-2q52 -18 82 -60t30 -99q0 -101 -74 -161
q-74 -59 -181 -59q-156 0 -262 109z" />
    <glyph glyph-name="uni0418" unicode="&#x418;" horiz-adv-x="754" 
d="M251 0h-176v715h175v-334l-8 -122h2q32 77 60 122l198 334h177v-715h-175v333l8 122h-2q-32 -77 -60 -122z" />
    <glyph glyph-name="uni0419" unicode="&#x419;" horiz-adv-x="754" 
d="M251 0h-176v715h175v-334l-8 -122h2q32 77 60 122l198 334h177v-715h-175v333l8 122h-2q-32 -77 -60 -122zM387 747q-79 0 -135 41q-55 40 -55 112v11h128v-12q0 -28 18 -43.5t44 -15.5t44 15.5t18 43.5v12h127v-11q0 -72 -55 -112q-56 -41 -134 -41z" />
    <glyph glyph-name="uni041A" unicode="&#x41a;" horiz-adv-x="675" 
d="M250 0h-175v715h175v-276h72l148 276h188l-193 -342v-2l204 -371h-196l-151 290h-72v-290z" />
    <glyph glyph-name="uni041B" unicode="&#x41b;" horiz-adv-x="714" 
d="M16 -8v159q46 6 75 33q68 61 68 296v235h480v-715h-175v565h-139v-87q0 -256 -77 -372q-76 -114 -232 -114z" />
    <glyph glyph-name="uni041C" unicode="&#x41c;" horiz-adv-x="874" 
d="M223 0h-176l59 715h190l104 -302l36 -118h2q19 70 36 118l104 302h190l58 -715h-175l-22 322q-4 39 -1 102l1 18h-2q-27 -86 -40 -120l-75 -207h-150l-75 207l-40 120h-2q5 -66 0 -120z" />
    <glyph glyph-name="uni041D" unicode="&#x41d;" horiz-adv-x="760" 
d="M250 0h-175v715h175v-286h260v286h175v-715h-175v280h-260v-280z" />
    <glyph glyph-name="uni041E" unicode="&#x41e;" horiz-adv-x="820" 
d="M36 362q0 155 106 260t268 105q160 0 267 -105t107 -260q0 -158 -107 -267q-107 -107 -267 -107q-161 0 -268 107q-106 107 -106 267zM217 362q0 -91 56 -153q55 -61 137 -61t137 61q56 62 56 153q0 87 -56 146t-137 59t-137 -59t-56 -146z" />
    <glyph glyph-name="uni041F" unicode="&#x41f;" horiz-adv-x="754" 
d="M250 0h-175v715h604v-715h-175v566h-254v-566z" />
    <glyph glyph-name="uni0420" unicode="&#x420;" horiz-adv-x="625" 
d="M250 0h-175v715h297q104 0 168 -69q65 -70 65 -177q0 -108 -65 -179q-64 -69 -168 -69h-122v-221zM250 565v-194h86q43 0 67 26.5t24 71.5t-23 70.5t-65 25.5h-89z" />
    <glyph glyph-name="uni0421" unicode="&#x421;" horiz-adv-x="714" 
d="M37 359q0 158 105 263q106 105 270 105q165 0 268 -101l-81 -132q-37 33 -85.5 53t-93.5 20q-100 0 -151 -60q-51 -59 -51 -144q0 -87 52 -151t150 -64q102 0 190 88l90 -128q-116 -120 -288 -120q-169 0 -273 104q-102 105 -102 267z" />
    <glyph glyph-name="uni0422" unicode="&#x422;" horiz-adv-x="635" 
d="M405 0h-175v565h-217v150h609v-150h-217v-565z" />
    <glyph glyph-name="uni0423" unicode="&#x423;" horiz-adv-x="631" 
d="M54 42l76 131q44 -36 79 -36q42 0 57 37l-276 541h192l119 -257l39 -96h2q9 37 28 95l88 258h184l-211 -536q-30 -77 -72 -126q-52 -65 -142 -65q-87 0 -163 54z" />
    <glyph glyph-name="uni0424" unicode="&#x424;" horiz-adv-x="865" 
d="M25 382q0 127 89 211q88 84 231 84v73h175v-73q142 0 231 -84t89 -211q0 -131 -89 -218q-89 -86 -231 -86v-90h-175v90q-142 0 -231 86q-89 87 -89 218zM520 531v-307q61 0 101 46q41 47 41 112q0 61 -41 105t-101 44zM203 382q0 -65 41 -112q40 -46 101 -46v307
q-60 0 -101 -44t-41 -105z" />
    <glyph glyph-name="uni0425" unicode="&#x425;" horiz-adv-x="659" 
d="M202 0h-194l217 355l-218 360h199l78 -147l44 -92h2q21 50 44 92l79 147h199l-219 -360l218 -355h-195l-82 150l-44 89h-2q-24 -54 -44 -89z" />
    <glyph glyph-name="uni0426" unicode="&#x426;" horiz-adv-x="793" 
d="M606 0h-531v715h175v-566h248v566h175v-566h88v-289h-155v140z" />
    <glyph glyph-name="uni0427" unicode="&#x427;" horiz-adv-x="692" 
d="M262 253q-110 0 -167 58.5t-57 165.5v238h179v-197q0 -106 95 -106q70 0 126 33v270h179v-715h-179v259l2 32h-2q-90 -38 -176 -38z" />
    <glyph glyph-name="uni0428" unicode="&#x428;" horiz-adv-x="1035" 
d="M960 0h-885v715h175v-566h180v566h175v-566h180v566h175v-715z" />
    <glyph glyph-name="uni0429" unicode="&#x429;" horiz-adv-x="1080" 
d="M893 0h-818v715h175v-566h180v566h175v-566h180v566h175v-566h88v-289h-155v140z" />
    <glyph glyph-name="uni042A" unicode="&#x42a;" horiz-adv-x="735" 
d="M482 0h-297v565h-180v150h355v-221h122q104 0 168 -70q65 -70 65 -178q0 -107 -65 -177q-64 -69 -168 -69zM360 344v-194h89q42 0 65 25.5t23 70.5t-24 71.5t-67 26.5h-86z" />
    <glyph glyph-name="uni042B" unicode="&#x42b;" horiz-adv-x="925" 
d="M850 0h-175v715h175v-715zM362 0h-287v715h175v-221h112q104 0 168 -70q65 -70 65 -178q0 -107 -65 -177q-64 -69 -168 -69zM250 344v-194h79q42 0 65 25.5t23 70.5t-24 71.5t-67 26.5h-76z" />
    <glyph glyph-name="uni042C" unicode="&#x42c;" horiz-adv-x="625" 
d="M372 0h-297v715h175v-221h122q104 0 168 -70q65 -70 65 -178q0 -107 -65 -177q-64 -69 -168 -69zM250 344v-194h89q42 0 65 25.5t23 70.5t-24 71.5t-67 26.5h-86z" />
    <glyph glyph-name="uni042D" unicode="&#x42d;" horiz-adv-x="716" 
d="M20 98l86 125q88 -77 197 -77q75 0 125 38.5t65 103.5h-295v140h296q-15 64 -66 102.5t-125 38.5q-99 0 -191 -80l-81 132q102 106 279 106q170 0 270 -105q100 -104 100 -261q0 -162 -106 -268q-107 -105 -272 -105q-155 0 -282 110z" />
    <glyph glyph-name="uni042E" unicode="&#x42e;" horiz-adv-x="1109" 
d="M250 0h-175v715h175v-286h95q23 132 120 214q99 84 240 84q159 0 263 -105q105 -105 105 -260q0 -159 -105 -267q-104 -107 -263 -107q-137 0 -234 81q-98 83 -123 211h-98v-280zM518 362q0 -92 54 -153t133 -61t133 61t54 153q0 88 -54 146q-54 59 -133 59t-133 -59
q-54 -58 -54 -146z" />
    <glyph glyph-name="uni042F" unicode="&#x42f;" horiz-adv-x="652" 
d="M203 0h-195l137 230l27 43v2q-115 64 -115 212q0 77 35.5 132t96.5 79q45 17 139 17h249v-715h-175v241h-64zM326 386h76v179h-59q-58 0 -84 -20q-24 -19 -24 -67q0 -92 91 -92z" />
    <glyph glyph-name="uni0430" unicode="&#x430;" horiz-adv-x="552" 
d="M21 145q0 48 26.5 84.5t71.5 55.5q86 36 193 36h15v9q0 57 -73 57q-69 0 -142 -49l-60 122q36 28 96 47q63 20 122 20q107 0 168.5 -56t61.5 -154v-317h-158v31l2 32h-2q-24 -35 -65.5 -55t-87.5 -20q-75 0 -121 45q-47 45 -47 112zM192 161q0 -19 13 -31.5t36 -12.5
q36 0 62 29t26 62v14h-16q-52 0 -86.5 -15.5t-34.5 -45.5z" />
    <glyph glyph-name="uni0431" unicode="&#x431;" horiz-adv-x="612" 
d="M35 308q0 157 67 245t220 141l167 56l49 -139l-194 -62q-40 -13 -67 -26q-29 -14 -50 -40t-22 -58h2q58 49 151 49q102 0 162 -66q60 -64 60 -170q0 -110 -73 -180t-193 -70q-136 0 -208 87q-71 88 -71 233zM207 235q0 -47 28.5 -76.5t71.5 -29.5t71.5 29.5t28.5 76.5
q0 48 -28.5 78.5t-71.5 30.5t-71.5 -30.5t-28.5 -78.5z" />
    <glyph glyph-name="uni0432" unicode="&#x432;" horiz-adv-x="566" 
d="M339 0h-281v515h281q81 0 128 -35.5t47 -99.5q0 -34 -16 -64.5t-44 -47.5v-1q40 -12 60.5 -43t20.5 -71q0 -78 -56 -116q-55 -37 -140 -37zM231 408v-96h65q22 0 34 14t12 37q0 45 -48 45h-63zM231 211v-103h76q25 0 40 14.5t15 36.5q0 23 -14.5 37.5t-39.5 14.5h-77z
" />
    <glyph glyph-name="uni0433" unicode="&#x433;" horiz-adv-x="436" 
d="M231 0h-173v515h363v-145h-190v-370z" />
    <glyph glyph-name="uni0434" unicode="&#x434;" horiz-adv-x="651" 
d="M248 137h135v241h-89v-19q0 -134 -46 -222zM14 -120v257h64q53 91 53 254v124h425v-378h74v-257h-154v120h-302v-120h-160z" />
    <glyph glyph-name="uni0435" unicode="&#x435;" horiz-adv-x="567" 
d="M29 258q0 116 73 192q74 77 195 77q111 0 174 -70q64 -68 64 -179q0 -22 -4 -54h-325q9 -44 41.5 -68t78.5 -24q65 0 142 52l64 -121q-41 -35 -100 -55t-120 -20q-130 0 -207 80q-76 79 -76 190zM210 323h154q0 33 -19.5 55t-51.5 22q-66 0 -83 -77z" />
    <glyph glyph-name="uni0436" unicode="&#x436;" horiz-adv-x="836" 
d="M194 0h-187l145 266v2l-134 247h178l95 -183h46v183h161v-183h47l95 183h178l-134 -247v-2l145 -266h-187l-92 187h-52v-187h-161v187h-51z" />
    <glyph glyph-name="uni0437" unicode="&#x437;" horiz-adv-x="473" 
d="M15 64l69 108q25 -24 59.5 -39t64.5 -15q62 0 62 45q0 22 -12 32.5t-44 10.5h-63v114h52q52 0 52 40q0 41 -54 41q-56 0 -122 -39l-50 107q83 58 208 58q82 0 136 -39t54 -104q0 -82 -64 -116v-2q80 -38 80 -114q0 -77 -58 -120.5t-155 -43.5q-130 0 -215 76z" />
    <glyph glyph-name="uni0438" unicode="&#x438;" horiz-adv-x="618" 
d="M226 0h-168v515h163v-227q0 -17 -2 -51h2l28 51l143 227h168v-515h-163v225q0 26 2 52h-2q-4 -10 -28 -51z" />
    <glyph glyph-name="uni0439" unicode="&#x439;" horiz-adv-x="618" 
d="M226 0h-168v515h163v-227q0 -17 -2 -51h2l28 51l143 227h168v-515h-163v225q0 26 2 52h-2q-4 -10 -28 -51zM310 551q-79 0 -135 41q-55 40 -55 112v11h128v-12q0 -28 18 -43.5t44 -15.5t44 15.5t18 43.5v12h127v-11q0 -72 -55 -112q-56 -41 -134 -41z" />
    <glyph glyph-name="uni043A" unicode="&#x43a;" horiz-adv-x="591" 
d="M231 0h-173v515h173v-181h49l102 181h188l-151 -245v-2l172 -268h-197l-109 189h-54v-189z" />
    <glyph glyph-name="uni043B" unicode="&#x43b;" horiz-adv-x="597" 
d="M20 -5v151q16 2 28 6.5t26 17t22.5 33.5t14.5 58.5t6 88.5v165h422v-515h-173v378h-86v-29q0 -170 -59 -262t-201 -92z" />
    <glyph glyph-name="uni043C" unicode="&#x43c;" horiz-adv-x="763" 
d="M201 0h-165l49 515h200l76 -226l20 -60h1l21 60l76 226h199l49 -515h-166l-12 237l1 88h-2q-19 -55 -28 -76l-68 -180h-140l-68 180l-30 76h-2l1 -88z" />
    <glyph glyph-name="uni043D" unicode="&#x43d;" horiz-adv-x="621" 
d="M231 0h-173v515h173v-182h159v182h173v-515h-173v188h-159v-188z" />
    <glyph glyph-name="uni043E" unicode="&#x43e;" horiz-adv-x="642" 
d="M320 527q125 0 208 -76q85 -75 85 -195q0 -119 -84 -194q-85 -74 -208 -74t-208 74q-84 75 -84 194q0 118 84 195q83 76 207 76zM204 256q0 -55 33.5 -89.5t83.5 -34.5t83.5 34.5t33.5 89.5q0 56 -33.5 91.5t-83.5 35.5t-83.5 -35.5t-33.5 -91.5z" />
    <glyph glyph-name="uni043F" unicode="&#x43f;" horiz-adv-x="615" 
d="M231 0h-173v515h499v-515h-173v370h-153v-370z" />
    <glyph glyph-name="uni0440" unicode="&#x440;" horiz-adv-x="633" 
d="M231 -200h-173v715h156v-26l-2 -33h2q53 71 156 71q105 0 168 -75q64 -73 64 -195q0 -121 -68 -195t-172 -74q-75 0 -131 49h-2q2 -24 2 -44v-193zM226 254q0 -52 27.5 -87.5t73.5 -35.5q44 0 72.5 33.5t28.5 89.5q0 57 -28 92t-73 35t-73 -33t-28 -94z" />
    <glyph glyph-name="uni0441" unicode="&#x441;" horiz-adv-x="552" 
d="M29 258q0 109 77 189q78 80 210 80q60 0 115 -20t90 -58l-73 -116q-53 50 -121 50q-56 0 -89.5 -35.5t-33.5 -87.5q0 -53 35 -90.5t94 -37.5q68 0 141 62l63 -121q-38 -39 -97.5 -62t-123.5 -23q-132 0 -210 79q-77 80 -77 191z" />
    <glyph glyph-name="uni0442" unicode="&#x442;" horiz-adv-x="516" 
d="M344 0h-173v370h-156v145h486v-145h-157v-370z" />
    <glyph glyph-name="uni0443" unicode="&#x443;" horiz-adv-x="561" 
d="M8 -174l55 127q28 -19 53 -19q62 0 83 52l10 24l-219 505h196l76 -237l19 -80h2l17 77l65 240h189l-211 -570q-29 -77 -86 -116t-129 -39q-60 0 -105 27z" />
    <glyph glyph-name="uni0444" unicode="&#x444;" horiz-adv-x="785" 
d="M30 256q0 117 80 192q80 76 201 79v173h163v-173q121 -3 200 -79q81 -75 81 -192q0 -116 -81 -190q-79 -73 -200 -78v-188h-163v188q-120 4 -201 78q-80 74 -80 190zM474 391v-267q50 4 82 40t32 92q0 57 -32 94t-82 41zM197 256q0 -56 32 -92t82 -40v267q-50 -4 -82 -41
t-32 -94z" />
    <glyph glyph-name="uni0445" unicode="&#x445;" horiz-adv-x="550" 
d="M201 0h-190l162 255l-166 260h195l56 -115l16 -34h2l16 34l56 115h195l-165 -260l162 -255h-190l-62 116l-12 26h-2l-12 -26z" />
    <glyph glyph-name="uni0446" unicode="&#x446;" horiz-adv-x="646" 
d="M470 0h-412v515h173v-370h146v370h173v-370h74v-265h-154v120z" />
    <glyph glyph-name="uni0447" unicode="&#x447;" horiz-adv-x="576" 
d="M206 158q-72 0 -124 42q-51 42 -51 135v180h170v-147q0 -69 66 -69q44 0 78 25v191h173v-515h-173v161l1 24h-2q-60 -27 -138 -27z" />
    <glyph glyph-name="uni0448" unicode="&#x448;" horiz-adv-x="837" 
d="M779 0h-721v515h163v-370h116v370h163v-370h116v370h163v-515z" />
    <glyph glyph-name="uni0449" unicode="&#x449;" horiz-adv-x="875" 
d="M699 0h-641v515h163v-370h116v370h163v-370h116v370h163v-370h74v-265h-154v120z" />
    <glyph glyph-name="uni044A" unicode="&#x44a;" horiz-adv-x="615" 
d="M394 0h-257v370h-130v145h303v-161h84q102 0 153 -47t51 -131t-51 -130t-153 -46zM310 242v-129h52q39 -3 55.5 30.5t-0.5 67.5t-58 31h-49z" />
    <glyph glyph-name="uni044B" unicode="&#x44b;" horiz-adv-x="803" 
d="M745 0h-173v515h173v-515zM309 0h-251v515h173v-161h78q102 0 153 -47t51 -131t-51 -130t-153 -46zM231 242v-129h46q39 -3 55.5 30.5t-0.5 67.5t-58 31h-43z" />
    <glyph glyph-name="uni044C" unicode="&#x44c;" horiz-adv-x="537" 
d="M315 0h-257v515h173v-161h84q102 0 153 -47t51 -131t-51 -130t-153 -46zM231 242v-129h52q39 -3 55.5 30.5t-0.5 67.5t-58 31h-49z" />
    <glyph glyph-name="uni044D" unicode="&#x44d;" horiz-adv-x="550" 
d="M16 62l60 116q68 -56 146 -56q50 0 85 21.5t48 58.5h-194v114h195q-30 77 -127 77q-78 0 -134 -49l-70 112q36 34 93 52.5t120 18.5q132 0 207 -79q76 -79 76 -190q0 -112 -78 -191q-76 -79 -209 -79q-129 0 -218 74z" />
    <glyph glyph-name="uni044E" unicode="&#x44e;" horiz-adv-x="887" 
d="M231 0h-173v515h173v-186h72q23 92 95 144q74 54 175 54q123 0 203 -76q82 -75 82 -195q0 -119 -81 -194q-82 -74 -203 -74q-105 0 -179 55q-75 56 -94 149h-70v-192zM465 256q0 -56 30.5 -90t78.5 -34t78.5 34t30.5 90q0 57 -30.5 92t-78.5 35t-78.5 -35t-30.5 -92z" />
    <glyph glyph-name="uni044F" unicode="&#x44f;" horiz-adv-x="558" 
d="M192 0h-183l104 156l24 31v1q-42 21 -67.5 62.5t-25.5 90.5q0 81 50 127.5t136 46.5h270v-515h-173v157h-36zM286 272h41v136h-42q-69 0 -69 -66q0 -70 70 -70z" />
    <glyph glyph-name="uni0450" unicode="&#x450;" horiz-adv-x="567" 
d="M29 258q0 116 73 192q74 77 195 77q111 0 174 -70q64 -68 64 -179q0 -22 -4 -54h-325q9 -44 41.5 -68t78.5 -24q65 0 142 52l64 -121q-41 -35 -100 -55t-120 -20q-130 0 -207 80q-76 79 -76 190zM210 323h154q0 33 -19.5 55t-51.5 22q-66 0 -83 -77zM378 565h-134
l-118 150h171z" />
    <glyph glyph-name="uni0451" unicode="&#x451;" horiz-adv-x="567" 
d="M29 258q0 116 73 192q74 77 195 77q111 0 174 -70q64 -68 64 -179q0 -22 -4 -54h-325q9 -44 41.5 -68t78.5 -24q65 0 142 52l64 -121q-41 -35 -100 -55t-120 -20q-130 0 -207 80q-76 79 -76 190zM210 323h154q0 33 -19.5 55t-51.5 22q-66 0 -83 -77zM462 575h-126v140
h126v-140zM253 575h-126v140h126v-140z" />
    <glyph glyph-name="uni0452" unicode="&#x452;" horiz-adv-x="627" 
d="M231 0h-173v522h-59v115h59v78h173v-78h163v-115h-163v-100l-2 -44h2q22 38 64 60t93 22q185 0 185 -193v-240q0 -67 -23 -116.5t-62 -73.5q-69 -45 -142 -45l-61 3v145q22 -2 37 -2q78 0 78 91v206q0 68 -57 68q-78 0 -103 -76q-9 -25 -9 -66v-161z" />
    <glyph glyph-name="uni0453" unicode="&#x453;" horiz-adv-x="436" 
d="M231 0h-173v515h363v-145h-190v-370zM282 565h-134l81 150h171z" />
    <glyph glyph-name="uni0454" unicode="&#x454;" horiz-adv-x="554" 
d="M29 258q0 109 77 189q78 80 210 80q75 0 126.5 -20.5t75.5 -42.5l7 -8l-72 -115l-17 13q-10 9 -44 22q-36 14 -68 14q-101 0 -130 -74h195v-114h-194q30 -80 136 -80q34 0 71.5 15t57.5 33l19 16l61 -119q-9 -9 -38 -28q-21 -13 -45 -24q-66 -27 -141 -27q-132 0 -210 79
q-77 80 -77 191z" />
    <glyph glyph-name="uni0455" unicode="&#x455;" horiz-adv-x="471" 
d="M19 64l74 113q61 -52 140 -52q47 0 47 27q0 14 -21 24.5t-64 25.5q-31 10 -54 21.5t-48.5 30t-39.5 46.5t-14 64q0 76 60 120q61 43 154 43q110 0 184 -59l-59 -120q-22 18 -59.5 30t-70.5 12q-48 0 -48 -25q0 -12 18 -22.5t44.5 -18t58 -21t58 -30t44.5 -47t18 -69.5
q0 -74 -58 -122q-58 -47 -154 -47q-125 0 -210 76z" />
    <glyph glyph-name="uni0456" unicode="&#x456;" horiz-adv-x="289" 
d="M229 580h-169v135h169v-135zM231 0h-173v515h173v-515z" />
    <glyph glyph-name="uni0457" unicode="&#x457;" horiz-adv-x="289" 
d="M313 575h-126v140h126v-140zM104 575h-126v140h126v-140zM231 0h-173v515h173v-515z" />
    <glyph glyph-name="uni0458" unicode="&#x458;" horiz-adv-x="289" 
d="M229 580h-169v135h169v-135zM58 4v511h173v-528q0 -96 -62 -144q-27 -21 -61 -32q-56 -19 -119 -19q-23 0 -46 3v144q5 -1 22 -1q93 0 93 66z" />
    <glyph glyph-name="uni0459" unicode="&#x459;" horiz-adv-x="820" 
d="M20 -5v151q43 6 68 35q32 38 32 159v175h400v-177h80q102 0 153 -45t51 -127q0 -80 -51 -123t-153 -43h-253v378h-65v-31q0 -181 -58 -266q-59 -86 -204 -86zM520 224v-111h56q30 0 46.5 14.5t16.5 38.5q0 27 -17 42.5t-49 15.5h-53z" />
    <glyph glyph-name="uni045A" unicode="&#x45a;" horiz-adv-x="869" 
d="M231 0h-173v515h173v-175h165v175h173v-177h80q102 0 153 -45t51 -127q0 -80 -51 -123t-153 -43h-253v207h-165v-207zM569 224v-111h56q30 0 46.5 14.5t16.5 38.5q0 27 -17 42.5t-49 15.5h-53z" />
    <glyph glyph-name="uni045B" unicode="&#x45b;" horiz-adv-x="627" 
d="M231 0h-173v522h-59v115h59v78h173v-78h163v-115h-163v-99l-2 -44h2q22 38 64 60t93 22q185 0 185 -193v-268h-173v236q0 68 -57 68q-78 0 -103 -76q-9 -26 -9 -66v-162z" />
    <glyph glyph-name="uni045C" unicode="&#x45c;" horiz-adv-x="591" 
d="M231 0h-173v515h173v-181h49l102 181h188l-151 -245v-2l172 -268h-197l-109 189h-54v-189zM357 565h-134l81 150h171z" />
    <glyph glyph-name="uni045D" unicode="&#x45d;" horiz-adv-x="618" 
d="M226 0h-168v515h163v-227q0 -17 -2 -51h2l28 51l143 227h168v-515h-163v225q0 26 2 52h-2q-4 -10 -28 -51zM390 565h-134l-118 150h171z" />
    <glyph glyph-name="uni045E" unicode="&#x45e;" horiz-adv-x="561" 
d="M8 -174l55 127q28 -19 53 -19q62 0 83 52l10 24l-219 505h196l76 -237l19 -80h2l17 77l65 240h189l-211 -570q-29 -77 -86 -116t-129 -39q-60 0 -105 27zM283 551q-79 0 -135 41q-55 40 -55 112v11h128v-12q0 -28 18 -43.5t44 -15.5t44 15.5t18 43.5v12h127v-11
q0 -72 -55 -112q-56 -41 -134 -41z" />
    <glyph glyph-name="uni045F" unicode="&#x45f;" horiz-adv-x="608" 
d="M227 0h-169v515h173v-370h146v370h173v-515h-169v-120h-154v120z" />
    <glyph glyph-name="uni0462" unicode="&#x462;" horiz-adv-x="717" 
d="M464 0h-297v539h-160v130h164v81h171v-81h204v-130h-204v-85h122q104 0 168 -64q65 -65 65 -164q0 -100 -65 -163q-64 -63 -168 -63zM342 304v-154h89q42 0 65 20t23 56t-23.5 57t-67.5 21h-86z" />
    <glyph glyph-name="uni0463" unicode="&#x463;" horiz-adv-x="598" 
d="M380 0h-263v456h-122v121h121v138h173v-138h161v-121h-160v-102h90q102 0 153 -47t51 -131t-51 -130t-153 -46zM290 242v-129h58q39 -3 55.5 30.5t-0.5 67.5t-58 31h-55z" />
    <glyph glyph-name="uni0472" unicode="&#x472;" horiz-adv-x="820" 
d="M36 362q0 155 106 260t268 105q160 0 267 -105t107 -260q0 -158 -107 -267q-107 -107 -267 -107q-161 0 -268 107q-106 107 -106 267zM411 141q66 0 117.5 41.5t70.5 109.5h-378q20 -69 72 -110t118 -41zM411 572q-68 0 -120.5 -41t-70.5 -107h381q-19 66 -71 107
t-119 41z" />
    <glyph glyph-name="uni0473" unicode="&#x473;" horiz-adv-x="642" 
d="M320 527q125 0 208 -76q85 -75 85 -195q0 -119 -84 -194q-85 -74 -208 -74t-208 74q-84 75 -84 194q0 118 84 195q83 76 207 76zM323 111q47 0 82.5 27.5t47.5 74.5h-263q12 -47 48 -74.5t85 -27.5zM323 403q-46 0 -81.5 -25.5t-49.5 -70.5h258q-13 44 -47.5 70t-79.5 26
z" />
    <glyph glyph-name="uni0474" unicode="&#x474;" horiz-adv-x="698" 
d="M429 0h-182l-253 715h190l126 -407q15 -50 24 -96l3 -19h2q13 69 27 115l110 349q11 33 29 45.5t55 12.5h125v-150h-25q-20 0 -29 -8t-18 -31z" />
    <glyph glyph-name="uni0475" unicode="&#x475;" 
d="M391 0h-211l-178 515h182l80 -274l19 -89h2q9 57 19 89l52 177q15 54 41.5 75.5t78.5 21.5h107v-145h-24q-25 0 -36.5 -9t-21.5 -38z" />
    <glyph glyph-name="uni048A" unicode="&#x48a;" horiz-adv-x="823" 
d="M251 0h-176v715h175v-334l-8 -122h2q32 77 60 122l198 334h177v-565h136v-91l-89 -199h-117l33 140h-138v333l8 122h-2q-32 -77 -60 -122zM389 747q-79 0 -135 41q-55 40 -55 112v11h128v-12q0 -28 18 -43.5t44 -15.5t44 15.5t18 43.5v12h127v-11q0 -72 -55 -112
q-56 -41 -134 -41z" />
    <glyph glyph-name="uni048B" unicode="&#x48b;" horiz-adv-x="697" 
d="M226 0h-168v515h163v-227q0 -17 -2 -51h2l28 51l143 227h168v-370h125v-86l-79 -179h-111l28 120h-126v225q0 26 2 52h-2q-4 -10 -28 -51zM316 551q-79 0 -135 41q-55 40 -55 112v11h128v-12q0 -28 18 -43.5t44 -15.5t44 15.5t18 43.5v12h127v-11q0 -72 -55 -112
q-56 -41 -134 -41z" />
    <glyph glyph-name="uni048C" unicode="&#x48c;" horiz-adv-x="716" 
d="M463 0h-297v547h-160v130h164v73h171v-73h204v-130h-204v-93h122q104 0 168 -64q65 -65 65 -164q0 -100 -65 -163t-168 -63zM341 304v-154h89q42 0 65 20t23 56t-23.5 57t-67.5 21h-86z" />
    <glyph glyph-name="uni048D" unicode="&#x48d;" horiz-adv-x="598" 
d="M380 0h-263v456h-122v121h121v138h173v-138h161v-121h-160v-102h90q102 0 153 -47t51 -131t-51 -130t-153 -46zM290 242v-129h58q39 -3 55.5 30.5t-0.5 67.5t-58 31h-55z" />
    <glyph glyph-name="uni048E" unicode="&#x48e;" horiz-adv-x="640" 
d="M250 0h-175v715h297q104 0 168 -69q65 -70 65 -177q0 -111 -68 -182l54 -64l-77 -65l-64 75q-36 -12 -78 -12h-122v-221zM350 352l-54 65l77 65l62 -74q9 22 9 51q0 50 -24.5 78t-71.5 28h-98v-213h95h5z" />
    <glyph glyph-name="uni048F" unicode="&#x48f;" horiz-adv-x="638" 
d="M231 -200h-173v715h156v-26l-2 -33h2q8 10 24 24q49 47 132 47q105 0 168 -75q64 -73 64 -195q0 -117 -65 -191l52 -62l-77 -63l-55 66q-45 -19 -95 -19q-34 0 -67.5 11.5t-49.5 24.5l-14 13h-2q2 -24 2 -44v-193zM357 125l-60 73l77 63l59 -71q11 27 11 58
q0 61 -29.5 97t-79.5 36t-79.5 -34t-29.5 -99q0 -54 29 -89.5t80 -35.5q4 0 22 2z" />
    <glyph glyph-name="uni0490" unicode="&#x490;" horiz-adv-x="539" 
d="M250 0h-175v715h314v120h140v-270h-279v-565z" />
    <glyph glyph-name="uni0491" unicode="&#x491;" horiz-adv-x="451" 
d="M231 0h-173v515h248v120h131v-265h-206v-370z" />
    <glyph glyph-name="uni0492" unicode="&#x492;" horiz-adv-x="532" 
d="M254 0h-175v281h-56v120h56v314h438v-150h-263v-164h155v-120h-155v-281z" />
    <glyph glyph-name="uni0493" unicode="&#x493;" horiz-adv-x="448" 
d="M239 0h-173v177h-60v105h60v233h363v-145h-190v-88h121v-105h-121v-177z" />
    <glyph glyph-name="uni0494" unicode="&#x494;" horiz-adv-x="650" 
d="M250 0h-175v715h439v-150h-264v-154q48 16 116 16q131 0 195 -82q65 -83 65 -211q0 -324 -294 -324v140q57 0 83 41t26 143q0 71 -28.5 107t-92.5 36q-34 0 -70 -12v-265z" />
    <glyph glyph-name="uni0495" unicode="&#x495;" horiz-adv-x="544" 
d="M231 0h-173v515h381v-136h-208v-95q39 15 92 15q95 0 149 -61t54 -162q0 -179 -170 -286l-81 117q36 21 61 61.5t25 94.5q0 98 -82 98q-29 0 -48 -12v-149z" />
    <glyph glyph-name="uni0496" unicode="&#x496;" horiz-adv-x="1042" 
d="M202 0h-196l192 371v2l-177 342h188l132 -276h68v276h175v-276h68l132 276h188l-177 -342v-2l115 -222h115v-289h-155v140h-79l-139 290h-68v-290h-175v290h-68z" />
    <glyph glyph-name="uni0497" unicode="&#x497;" horiz-adv-x="887" 
d="M194 0h-187l145 266v2l-134 247h178l95 -183h46v183h161v-183h47l95 183h178l-134 -247v-2l66 -121h118v-265h-153v120h-73l-92 187h-52v-187h-161v187h-51z" />
    <glyph glyph-name="uni0498" unicode="&#x498;" horiz-adv-x="570" 
d="M15 97l91 115q74 -71 152 -71q94 0 94 80q0 70 -84 70h-86v139h70q37 0 60 20.5t23 51.5q0 34 -22.5 54.5t-61.5 20.5q-74 0 -148 -59l-67 125q100 84 248 84q56 0 106 -21q54 -21 88.5 -69.5t34.5 -111.5q0 -101 -93 -156v-2q52 -18 82 -60t30 -99q0 -79 -47 -134
t-127 -76v-138h-155v136q-110 20 -188 101z" />
    <glyph glyph-name="uni0499" unicode="&#x499;" horiz-adv-x="474" 
d="M15 64l69 108q25 -24 59.5 -39t64.5 -15q62 0 62 45q0 22 -12 32.5t-44 10.5h-63v114h52q52 0 52 40q0 41 -54 41q-56 0 -122 -39l-50 107q83 58 208 58q82 0 136 -39t54 -104q0 -82 -64 -116v-2q80 -38 80 -114q0 -59 -34.5 -99t-96.5 -55v-118h-150v115q-90 17 -147 69
z" />
    <glyph glyph-name="uni049A" unicode="&#x49a;" horiz-adv-x="719" 
d="M250 0h-175v715h175v-276h72l148 276h188l-193 -342v-2l122 -222h114v-289h-155v140h-73l-151 290h-72v-290z" />
    <glyph glyph-name="uni049B" unicode="&#x49b;" horiz-adv-x="635" 
d="M231 0h-173v515h173v-181h49l102 181h188l-151 -245v-2l79 -123h118v-265h-153v120h-69l-109 189h-54v-189z" />
    <glyph glyph-name="uni049C" unicode="&#x49c;" horiz-adv-x="804" 
d="M250 0h-175v715h175v-276h51v106h120v-106h30l148 276h188l-193 -342v-2l204 -371h-196l-151 290h-30v-109h-120v109h-51v-290z" />
    <glyph glyph-name="uni049D" unicode="&#x49d;" horiz-adv-x="691" 
d="M231 0h-173v515h173v-181h33v93h100v-93h16l102 181h188l-151 -245v-2l172 -268h-197l-109 189h-21v-94h-100v94h-33v-189z" />
    <glyph glyph-name="uni049E" unicode="&#x49e;" horiz-adv-x="678" 
d="M78 515h-48v112h48v88h175v-88h70v-112h-70v-76h72l148 276h188l-193 -342v-2l204 -371h-196l-151 290h-72v-290h-175v515z" />
    <glyph glyph-name="uni049F" unicode="&#x49f;" horiz-adv-x="591" 
d="M231 0h-173v527h-60v110h60v78h173v-78h82v-110h-82v-193h49l102 181h188l-151 -245v-2l172 -268h-197l-109 189h-54v-189z" />
    <glyph glyph-name="uni04A0" unicode="&#x4a0;" horiz-adv-x="800" 
d="M375 0h-175v565h-185v150h360v-276h72l148 276h188l-193 -342v-2l204 -371h-196l-151 290h-72v-290z" />
    <glyph glyph-name="uni04A1" unicode="&#x4a1;" horiz-adv-x="670" 
d="M310 0h-173v370h-130v145h303v-181h49l102 181h188l-151 -245v-2l172 -268h-197l-109 189h-54v-189z" />
    <glyph glyph-name="uni04A2" unicode="&#x4a2;" horiz-adv-x="813" 
d="M250 0h-175v715h175v-286h260v286h175v-566h114v-289h-155v140h-134v280h-260v-280z" />
    <glyph glyph-name="uni04A3" unicode="&#x4a3;" horiz-adv-x="679" 
d="M231 0h-173v515h173v-182h159v182h173v-370h98v-265h-153v120h-118v188h-159v-188z" />
    <glyph glyph-name="uni04A4" unicode="&#x4a4;" horiz-adv-x="958" 
d="M250 0h-175v715h175v-286h260v286h438v-150h-263v-565h-175v280h-260v-280z" />
    <glyph glyph-name="uni04A5" unicode="&#x4a5;" horiz-adv-x="760" 
d="M231 0h-173v515h173v-182h159v182h355v-145h-182v-370h-173v188h-159v-188z" />
    <glyph glyph-name="uni04A6" unicode="&#x4a6;" horiz-adv-x="1005" 
d="M250 0h-175v715h534v-294q48 16 116 16q131 0 195 -85q65 -85 65 -218q0 -166 -71 -245t-223 -79v140q57 0 83 41t26 143q0 81 -28.5 122t-92.5 41q-22 0 -70 -12v-285h-175v567h-184v-567z" />
    <glyph glyph-name="uni04A7" unicode="&#x4a7;" horiz-adv-x="864" 
d="M231 0h-173v515h475v-190q41 18 94 18q93 0 156 -65q63 -64 63 -180q0 -95 -45 -175.5t-125 -132.5l-81 117q37 23 61.5 71t24.5 111q0 113 -91 113q-32 0 -57 -13v-189h-173v370h-129v-370z" />
    <glyph glyph-name="uni04A8" unicode="&#x4a8;" horiz-adv-x="946" 
d="M37 373q0 145 76 240q64 77 136 115l81 -158q-117 -75 -117 -205q0 -89 54 -153t162 -64q6 0 40 2q-109 112 -109 265q0 129 73 214q74 86 198 86q125 0 195 -84q72 -84 72 -199q0 -75 -32.5 -150t-90.5 -138q23 -4 58 -4h57v-140h-60q-98 0 -193 40q-100 -52 -213 -52
q-165 0 -276 105q-111 107 -111 280zM541 418q0 -125 78 -200q46 41 72 97t26 114q0 56 -22.5 91.5t-65.5 35.5q-42 0 -65 -35.5t-23 -102.5z" />
    <glyph glyph-name="uni04A9" unicode="&#x4a9;" horiz-adv-x="818" 
d="M29 269q0 100 53 165q54 64 125 93l62 -137q-38 -19 -60 -52.5t-22 -72.5q0 -55 40 -99q41 -45 119 -45q19 0 33 2q-76 73 -76 178q0 97 65 162q65 64 175 64q105 0 167 -59q61 -58 61 -140q0 -103 -95 -201q8 -1 38 -1h71v-126h-61q-96 0 -186 31q-90 -43 -193 -43
q-139 0 -228 77q-88 78 -88 204zM463 305q0 -80 63 -127q85 57 85 138q0 37 -18.5 59.5t-54.5 22.5q-75 0 -75 -93z" />
    <glyph glyph-name="uni04AA" unicode="&#x4aa;" horiz-adv-x="714" 
d="M37 359q0 158 105 263q106 105 270 105q165 0 268 -101l-81 -132q-37 33 -85.5 53t-93.5 20q-100 0 -151 -60q-51 -59 -51 -144q0 -87 52 -151t150 -64q102 0 190 88l90 -128q-95 -99 -232 -116v-132h-155v139q-129 29 -202 126q-74 98 -74 234z" />
    <glyph glyph-name="uni04AB" unicode="&#x4ab;" horiz-adv-x="552" 
d="M29 258q0 109 77 189q78 80 210 80q60 0 115 -20t90 -58l-73 -116q-53 50 -121 50q-56 0 -89.5 -35.5t-33.5 -87.5q0 -53 35 -90.5t94 -37.5q68 0 141 62l63 -121q-61 -63 -159 -79v-114h-150v119q-94 25 -147 96q-52 71 -52 163z" />
    <glyph glyph-name="uni04AC" unicode="&#x4ac;" horiz-adv-x="640" 
d="M362 0h-134v565h-217v150h609v-150h-217v-416h114v-289h-155v140z" />
    <glyph glyph-name="uni04AD" unicode="&#x4ad;" horiz-adv-x="525" 
d="M289 0h-118v370h-156v145h486v-145h-157v-225h98v-265h-153v120z" />
    <glyph glyph-name="uni04AE" unicode="&#x4ae;" horiz-adv-x="613" 
d="M394 0h-175v293l-236 422h199l81 -172l43 -103h2q15 41 43 103l80 172h199l-236 -422v-293z" />
    <glyph glyph-name="uni04AF" unicode="&#x4af;" horiz-adv-x="565" 
d="M197 -200v200l-197 515h182l80 -254l19 -87h2q10 56 19 87l79 254h183l-195 -515v-200h-172z" />
    <glyph glyph-name="uni04B0" unicode="&#x4b0;" horiz-adv-x="614" 
d="M220 189h-104v120h95l-227 406h199l81 -172l43 -103h2q15 41 43 103l80 172h199l-227 -406h107v-120h-116v-189h-175v189z" />
    <glyph glyph-name="uni04B1" unicode="&#x4b1;" horiz-adv-x="564" 
d="M197 0h-120v110h78l-155 405h182l80 -254l19 -87h2q10 56 19 87l79 254h183l-154 -405h79v-110h-120v-200h-172v200z" />
    <glyph glyph-name="uni04B2" unicode="&#x4b2;" horiz-adv-x="702" 
d="M202 0h-194l217 355l-218 360h199l78 -147l44 -92h2q21 50 44 92l79 147h199l-219 -360l126 -206h123v-289h-155v140h-71l-82 150l-44 89h-2q-24 -54 -44 -89z" />
    <glyph glyph-name="uni04B3" unicode="&#x4b3;" horiz-adv-x="589" 
d="M201 0h-190l162 255l-166 260h195l56 -115l16 -34h2l16 34l56 115h195l-165 -260l70 -110h118v-265h-153v120h-63l-62 116l-12 26h-2l-12 -26z" />
    <glyph glyph-name="uni04B4" unicode="&#x4b4;" horiz-adv-x="931" 
d="M757 0h-557v565h-185v150h545v-150h-185v-416h264v566h175v-566h98v-289h-155v140z" />
    <glyph glyph-name="uni04B5" unicode="&#x4b5;" horiz-adv-x="765" 
d="M591 0h-460v370h-114v145h402v-145h-115v-225h186v370h173v-370h82v-264h-154v119z" />
    <glyph glyph-name="uni04B6" unicode="&#x4b6;" horiz-adv-x="745" 
d="M262 253q-110 0 -167 58.5t-57 165.5v238h179v-197q0 -106 95 -106q70 0 126 33v270h179v-566h114v-289h-155v140h-138v259l2 32h-2q-90 -38 -176 -38z" />
    <glyph glyph-name="uni04B7" unicode="&#x4b7;" horiz-adv-x="633" 
d="M206 158q-72 0 -124 42q-51 42 -51 135v180h170v-147q0 -69 66 -69q44 0 78 25v191h173v-370h97v-265h-153v120h-117v161l1 24h-2q-60 -27 -138 -27z" />
    <glyph glyph-name="uni04B8" unicode="&#x4b8;" horiz-adv-x="730" 
d="M286 261h-6q-119 0 -181.5 58.5t-62.5 165.5v230h179v-197q0 -89 71 -103v130h120v-124q43 10 70 24v270h179v-715h-179v267l2 32h-2q-38 -14 -70 -22v-111h-120v95z" />
    <glyph glyph-name="uni04B9" unicode="&#x4b9;" horiz-adv-x="636" 
d="M353 85h-100v77h-27q-80 0 -138 41q-57 42 -57 132v180h170v-147q0 -51 52 -64v113h100v-112q31 8 52 19v191h173v-515h-173v171l1 24h-1q-18 -9 -52 -17v-93z" />
    <glyph glyph-name="uni04BA" unicode="&#x4ba;" horiz-adv-x="657" 
d="M250 0h-175v715h175v-261l-2 -32h2q81 34 161 34q103 0 156 -62t53 -171v-223h-179v197q0 105 -93 105q-52 0 -98 -26v-276z" />
    <glyph glyph-name="uni04BB" unicode="&#x4bb;" horiz-adv-x="626" 
d="M231 0h-173v715h173v-226l-2 -44h2q22 38 64 60t93 22q185 0 185 -193v-334h-173v302q0 68 -57 68q-53 0 -82.5 -37.5t-29.5 -100.5v-232z" />
    <glyph glyph-name="uni04BC" unicode="&#x4bc;" horiz-adv-x="918" 
d="M22 527q0 53 9 91l7 30h155l-8 -32q-8 -37 -8 -67q0 -49 13 -75.5t46 -30.5q24 137 117 210q94 74 212 74q150 0 232 -97q83 -97 83 -248l-6 -72h-461q13 -73 64.5 -117.5t128.5 -44.5q52 0 104 23q52 22 81 50l81 -132q-113 -101 -290 -101q-140 0 -237 90
q-98 92 -114 233q-100 2 -154.5 56t-54.5 160zM413 443h292q0 60 -37 95.5t-103 35.5q-65 0 -107 -43q-42 -42 -45 -88z" />
    <glyph glyph-name="uni04BD" unicode="&#x4bd;" horiz-adv-x="718" 
d="M18 408q0 28 8 68h133q-8 -34 -8 -59q0 -68 38 -82q22 88 91 140t168 52q111 0 174 -70q64 -68 64 -179l-4 -54h-325q9 -44 41.5 -68t78.5 -24q31 0 66.5 12.5t56.5 26.5l19 13l64 -121l-27 -21q-16 -12 -75 -33q-57 -21 -118 -21q-121 0 -196 69q-76 70 -86 169
q-163 7 -163 182zM361 323h151q0 31 -19.5 52.5t-48.5 21.5q-65 0 -83 -74z" />
    <glyph glyph-name="uni04BE" unicode="&#x4be;" horiz-adv-x="920" 
d="M23 527q0 53 9 91l7 30h155l-8 -32q-8 -37 -8 -67q0 -49 13 -75.5t46 -30.5q24 137 117 210q94 74 212 74q150 0 232 -97q83 -97 83 -248l-6 -72h-461q13 -73 64.5 -117.5t128.5 -44.5q52 0 104 23q52 22 81 50l81 -132q-95 -83 -231 -98v-131h-155v141q-101 28 -173 112
q-68 82 -82 198q-100 2 -154.5 56t-54.5 160zM414 443h292q0 60 -37 95.5t-103 35.5q-65 0 -107 -43q-42 -42 -45 -88z" />
    <glyph glyph-name="uni04BF" unicode="&#x4bf;" horiz-adv-x="718" 
d="M18 408q0 28 8 68h133q-8 -34 -8 -59q0 -68 38 -82q22 88 91 140t168 52q111 0 174 -70q64 -68 64 -179l-4 -54h-325q9 -44 41.5 -68t78.5 -24q31 0 66.5 12.5t56.5 26.5l19 13l64 -121l-21 -16q-14 -11 -58 -30q-39 -18 -91 -26v-111h-150v123q-76 24 -124.5 84.5
t-57.5 138.5q-163 7 -163 182zM361 323h151q0 31 -19.5 52.5t-48.5 21.5q-65 0 -83 -74z" />
    <glyph glyph-name="uni04C0" unicode="&#x4c0;" horiz-adv-x="323" 
d="M248 0h-173v715h173v-715z" />
    <glyph glyph-name="uni04C1" unicode="&#x4c1;" horiz-adv-x="993" 
d="M202 0h-196l192 371v2l-177 342h188l132 -276h68v276h175v-276h68l132 276h188l-177 -342v-2l192 -371h-196l-139 290h-68v-290h-175v290h-68zM505 747q-79 0 -135 41q-55 40 -55 112v11h128v-12q0 -28 18 -43.5t44 -15.5t44 15.5t18 43.5v12h127v-11q0 -72 -55 -112
q-56 -41 -134 -41z" />
    <glyph glyph-name="uni04C2" unicode="&#x4c2;" horiz-adv-x="836" 
d="M194 0h-187l145 266v2l-134 247h178l95 -183h46v183h161v-183h47l95 183h178l-134 -247v-2l145 -266h-187l-92 187h-52v-187h-161v187h-51zM419 551q-79 0 -135 41q-55 40 -55 112v11h128v-12q0 -28 18 -43.5t44 -15.5t44 15.5t18 43.5v12h127v-11q0 -72 -55 -112
q-56 -41 -134 -41z" />
    <glyph glyph-name="uni04C3" unicode="&#x4c3;" horiz-adv-x="691" 
d="M250 0h-175v715h175v-276h72l148 276h188l-172 -305q56 -19 103 -77q60 -68 60 -201q0 -91 -27.5 -161.5t-90 -115.5t-154.5 -45v145q87 0 87 162q0 88 -34.5 132.5t-118.5 44.5h-61v-294z" />
    <glyph glyph-name="uni04C4" unicode="&#x4c4;" horiz-adv-x="592" 
d="M231 0h-173v515h173v-181h49l102 181h188l-139 -227v-2q63 -26 96 -84t33 -134q0 -96 -51 -168q-50 -73 -120 -110l-80 117q88 43 88 160q0 54 -30.5 88t-91.5 34h-44v-189z" />
    <glyph glyph-name="uni04C5" unicode="&#x4c5;" horiz-adv-x="783" 
d="M16 -8v159q46 6 75 33q68 61 68 296v235h480v-565h136v-91l-89 -199h-117l33 140h-138v565h-139v-87q0 -256 -77 -372q-76 -114 -232 -114z" />
    <glyph glyph-name="uni04C6" unicode="&#x4c6;" horiz-adv-x="667" 
d="M20 -5v151q16 2 28 6.5t26 17t22.5 33.5t14.5 58.5t6 88.5v165h422v-370h115v-86l-79 -179h-111l28 120h-126v378h-86v-29q0 -170 -59 -262t-201 -92z" />
    <glyph glyph-name="uni04C7" unicode="&#x4c7;" horiz-adv-x="760" 
d="M250 0h-175v715h175v-286h260v286h175l1 -615q1 -90 -21.5 -152t-62.5 -92t-85 -40.5t-99 -6.5v147q44 0 68 29t24 111v184h-260v-280z" />
    <glyph glyph-name="uni04C8" unicode="&#x4c8;" horiz-adv-x="621" 
d="M231 0h-173v515h173v-182h159v182h173v-447q0 -100 -40 -161q-39 -61 -126 -117l-90 120q45 28 64 61q19 32 19 96v121h-159v-188z" />
    <glyph glyph-name="uni04C9" unicode="&#x4c9;" horiz-adv-x="829" 
d="M250 0h-175v715h175v-286h260v286h175v-565h136v-91l-89 -199h-117l33 140h-138v280h-260v-280z" />
    <glyph glyph-name="uni04CA" unicode="&#x4ca;" horiz-adv-x="691" 
d="M231 0h-173v515h173v-182h159v182h173v-370h115v-86l-79 -179h-111l28 120h-126v188h-159v-188z" />
    <glyph glyph-name="uni04CB" unicode="&#x4cb;" horiz-adv-x="691" 
d="M261 253q-110 0 -167 58.5t-57 165.5v238h179v-197q0 -106 95 -106q71 0 126 33v270h179v-715h-138v-140h-155v289h114v110l2 32h-2q-90 -38 -176 -38z" />
    <glyph glyph-name="uni04CC" unicode="&#x4cc;" horiz-adv-x="574" 
d="M245 -120v225h98v82l1 24h-1q-67 -33 -149 -33q-67 0 -117 41q-48 42 -48 132v164h170v-131q0 -69 66 -69q44 0 78 25v175h173v-515h-118v-120h-153z" />
    <glyph glyph-name="uni04CD" unicode="&#x4cd;" horiz-adv-x="954" 
d="M223 0h-176l59 715h190l104 -302l36 -118h2q19 70 36 118l104 302h190l46 -565h138v-91l-89 -199h-117l33 140h-128l-22 322q-4 39 -1 102l1 18h-2q-27 -86 -40 -120l-75 -207h-150l-75 207l-40 120h-2q5 -66 0 -120z" />
    <glyph glyph-name="uni04CE" unicode="&#x4ce;" horiz-adv-x="847" 
d="M201 0h-165l49 515h200l76 -226l20 -60h1l21 60l76 226h199l35 -370h126v-86l-79 -179h-111l28 120h-116l-12 237l1 88h-2q-19 -55 -28 -76l-68 -180h-140l-68 180l-30 76h-2l1 -88z" />
    <glyph glyph-name="uni04CF" unicode="&#x4cf;" horiz-adv-x="289" 
d="M231 0h-173v715h173v-715z" />
    <glyph glyph-name="uni04D0" unicode="&#x4d0;" horiz-adv-x="664" 
d="M177 0h-180l243 715h184l243 -715h-180l-44 150h-223zM302 429l-41 -139h141l-40 139l-29 123h-2q-19 -89 -29 -123zM330 747q-79 0 -135 41q-55 40 -55 112v11h128v-12q0 -28 18 -43.5t44 -15.5t44 15.5t18 43.5v12h127v-11q0 -72 -55 -112q-56 -41 -134 -41z" />
    <glyph glyph-name="uni04D1" unicode="&#x4d1;" horiz-adv-x="553" 
d="M22 145q0 48 26.5 84.5t71.5 55.5q86 36 193 36h15v9q0 57 -73 57q-69 0 -142 -49l-60 122q36 28 96 47q63 20 122 20q107 0 168.5 -56t61.5 -154v-317h-158v31l2 32h-2q-24 -35 -65.5 -55t-87.5 -20q-74 0 -121 45t-47 112zM193 161q0 -19 13 -31.5t36 -12.5q36 0 62 29
t26 62v14h-16q-52 0 -86.5 -15.5t-34.5 -45.5zM289 551q-79 0 -135 41q-55 40 -55 112v11h128v-12q0 -28 18 -43.5t44 -15.5t44 15.5t18 43.5v12h127v-11q0 -72 -55 -112q-56 -41 -134 -41z" />
    <glyph glyph-name="uni04D2" unicode="&#x4d2;" horiz-adv-x="664" 
d="M177 0h-180l243 715h184l243 -715h-180l-44 150h-223zM302 429l-41 -139h141l-40 139l-29 123h-2q-19 -89 -29 -123zM500 771h-126v140h126v-140zM291 771h-126v140h126v-140z" />
    <glyph glyph-name="uni04D3" unicode="&#x4d3;" horiz-adv-x="553" 
d="M22 145q0 48 26.5 84.5t71.5 55.5q86 36 193 36h15v9q0 57 -73 57q-69 0 -142 -49l-60 122q36 28 96 47q63 20 122 20q107 0 168.5 -56t61.5 -154v-317h-158v31l2 32h-2q-24 -35 -65.5 -55t-87.5 -20q-74 0 -121 45t-47 112zM193 161q0 -19 13 -31.5t36 -12.5q36 0 62 29
t26 62v14h-16q-52 0 -86.5 -15.5t-34.5 -45.5zM444 575h-126v140h126v-140zM235 575h-126v140h126v-140z" />
    <glyph glyph-name="uni04D4" unicode="&#x4d4;" horiz-adv-x="950" 
d="M171 0h-182l299 715h610v-150h-273v-130h218v-150h-218v-135h286v-150h-461v288h-168zM389 565l-53 -137h114v137h-61z" />
    <glyph glyph-name="uni04D5" unicode="&#x4d5;" horiz-adv-x="853" 
d="M22 154q0 42 22.5 74.5t58.5 51.5q35 17 79 27q65 16 142 16h4v7q0 57 -76 57q-66 0 -140 -49l-60 121q36 29 96 48q62 20 117 20q106 0 163 -51h2q62 51 154 51q108 0 173 -72q65 -71 65 -182q0 -17 -4 -49h-325q9 -44 41.5 -68t78.5 -24q71 0 142 51l64 -120
q-38 -34 -99 -54.5t-121 -20.5q-133 0 -207 90h-2q-17 -30 -65 -59q-49 -30 -128 -30q-74 0 -125 45q-50 47 -50 120zM497 323h151q0 30 -18.5 52t-45.5 22q-67 0 -87 -74zM196 163q0 -43 51 -43q33 0 59 29q25 29 25 63v12h-17q-47 0 -82 -16q-36 -16 -36 -45z" />
    <glyph glyph-name="uni04D6" unicode="&#x4d6;" horiz-adv-x="576" 
d="M537 0h-462v715h448v-150h-273v-130h218v-150h-218v-135h287v-150zM306 747q-79 0 -135 41q-55 40 -55 112v11h128v-12q0 -28 18 -43.5t44 -15.5t44 15.5t18 43.5v12h127v-11q0 -72 -55 -112q-56 -41 -134 -41z" />
    <glyph glyph-name="uni04D7" unicode="&#x4d7;" horiz-adv-x="567" 
d="M29 258q0 116 73 192q74 77 195 77q111 0 174 -70q64 -68 64 -179q0 -22 -4 -54h-325q9 -44 41.5 -68t78.5 -24q65 0 142 52l64 -121q-41 -35 -100 -55t-120 -20q-130 0 -207 80q-76 79 -76 190zM210 323h154q0 33 -19.5 55t-51.5 22q-66 0 -83 -77zM295 551
q-79 0 -135 41q-55 40 -55 112v11h128v-12q0 -28 18 -43.5t44 -15.5t44 15.5t18 43.5v12h127v-11q0 -72 -55 -112q-56 -41 -134 -41z" />
    <glyph glyph-name="uni04D8" unicode="&#x4d8;" horiz-adv-x="728" 
d="M39 333l6 82h461q-12 71 -60 111.5t-123 40.5q-53 0 -110 -23q-52 -22 -85 -50l-81 132q119 101 300 101q103 0 182 -54q79 -53 120.5 -136t41.5 -180q0 -161 -95 -265t-242 -104q-150 0 -233 96q-82 97 -82 249zM506 282h-292q0 -65 37 -103t103 -38q68 0 108.5 38
t43.5 103z" />
    <glyph glyph-name="uni04D9" unicode="&#x4d9;" horiz-adv-x="567" 
d="M30 238l4 62h327q-9 46 -41 69t-79 23q-62 0 -123 -36l-19 -13l-60 117q98 67 227 67q128 0 200 -78t72 -192q0 -117 -73 -193t-195 -76q-113 0 -177 70q-63 70 -63 180zM357 205h-148q0 -41 17.5 -64t47.5 -23q38 0 60.5 23.5t22.5 63.5z" />
    <glyph glyph-name="uni04DA" unicode="&#x4da;" horiz-adv-x="728" 
d="M39 333l6 82h461q-12 71 -60 111.5t-123 40.5q-53 0 -110 -23q-52 -22 -85 -50l-81 132q119 101 300 101q103 0 182 -54q79 -53 120.5 -136t41.5 -180q0 -161 -95 -265t-242 -104q-150 0 -233 96q-82 97 -82 249zM506 282h-292q0 -65 37 -103t103 -38q68 0 108.5 38
t43.5 103zM517 771h-126v140h126v-140zM308 771h-126v140h126v-140z" />
    <glyph glyph-name="uni04DB" unicode="&#x4db;" horiz-adv-x="567" 
d="M30 238l4 62h327q-9 46 -41 69t-79 23q-62 0 -123 -36l-19 -13l-60 117q98 67 227 67q128 0 200 -78t72 -192q0 -117 -73 -193t-195 -76q-113 0 -177 70q-63 70 -63 180zM357 205h-148q0 -41 17.5 -64t47.5 -23q38 0 60.5 23.5t22.5 63.5zM430 575h-126v140h126v-140z
M221 575h-126v140h126v-140z" />
    <glyph glyph-name="uni04DC" unicode="&#x4dc;" horiz-adv-x="993" 
d="M202 0h-196l192 371v2l-177 342h188l132 -276h68v276h175v-276h68l132 276h188l-177 -342v-2l192 -371h-196l-139 290h-68v-290h-175v290h-68zM671 771h-126v140h126v-140zM462 771h-126v140h126v-140z" />
    <glyph glyph-name="uni04DD" unicode="&#x4dd;" horiz-adv-x="836" 
d="M194 0h-187l145 266v2l-134 247h178l95 -183h46v183h161v-183h47l95 183h178l-134 -247v-2l145 -266h-187l-92 187h-52v-187h-161v187h-51zM586 575h-126v140h126v-140zM377 575h-126v140h126v-140z" />
    <glyph glyph-name="uni04DE" unicode="&#x4de;" horiz-adv-x="569" 
d="M15 97l91 115q74 -71 152 -71q94 0 94 80q0 70 -84 70h-86v139h70q37 0 60 20.5t23 51.5q0 34 -22.5 54.5t-61.5 20.5q-74 0 -148 -59l-67 125q100 84 248 84q56 0 106 -21q54 -21 88.5 -69.5t34.5 -111.5q0 -101 -93 -156v-2q52 -18 82 -60t30 -99q0 -101 -74 -161
q-74 -59 -181 -59q-156 0 -262 109zM444 771h-126v140h126v-140zM235 771h-126v140h126v-140z" />
    <glyph glyph-name="uni04DF" unicode="&#x4df;" horiz-adv-x="473" 
d="M15 64l69 108q25 -24 59.5 -39t64.5 -15q62 0 62 45q0 22 -12 32.5t-44 10.5h-63v114h52q52 0 52 40q0 41 -54 41q-56 0 -122 -39l-50 107q83 58 208 58q82 0 136 -39t54 -104q0 -82 -64 -116v-2q80 -38 80 -114q0 -77 -58 -120.5t-155 -43.5q-130 0 -215 76zM389 575
h-126v140h126v-140zM180 575h-126v140h126v-140z" />
    <glyph glyph-name="uni04E0" unicode="&#x4e0;" horiz-adv-x="543" 
d="M27 47l51 124q28 -17 71 -29t80 -12q50 0 79 23t29 61q0 59 -73 66q-22 2 -160 2v110l142 147q18 18 38 29l6 3v2q-28 -3 -60 -3h-187v145h436v-137l-150 -143l-30 -24v-2q46 -3 79 -12q128 -35 128 -181q0 -109 -77 -168q-76 -58 -189 -58q-120 0 -213 57z" />
    <glyph glyph-name="uni04E1" unicode="&#x4e1;" horiz-adv-x="506" 
d="M3 -153l51 124q28 -17 71 -29t80 -12q50 0 79 23t29 61q0 59 -73 66q-22 2 -160 2v110l142 147q18 18 38 29l6 3v2q-28 -3 -60 -3h-187v145h436v-137l-150 -143l-30 -24v-2q46 -3 79 -12q128 -35 128 -181q0 -109 -77 -168q-76 -58 -189 -58q-120 0 -213 57z" />
    <glyph glyph-name="uni04E2" unicode="&#x4e2;" horiz-adv-x="754" 
d="M251 0h-176v715h175v-334l-8 -122h2q32 77 60 122l198 334h177v-715h-175v333l8 122h-2q-32 -77 -60 -122zM533 782h-275v112h275v-112z" />
    <glyph glyph-name="uni04E3" unicode="&#x4e3;" horiz-adv-x="618" 
d="M226 0h-168v515h163v-227q0 -17 -2 -51h2l28 51l143 227h168v-515h-163v225q0 26 2 52h-2q-4 -10 -28 -51zM453 586h-275v112h275v-112z" />
    <glyph glyph-name="uni04E4" unicode="&#x4e4;" horiz-adv-x="754" 
d="M251 0h-176v715h175v-334l-8 -122h2q32 77 60 122l198 334h177v-715h-175v333l8 122h-2q-32 -77 -60 -122zM547 771h-126v140h126v-140zM338 771h-126v140h126v-140z" />
    <glyph glyph-name="uni04E5" unicode="&#x4e5;" horiz-adv-x="618" 
d="M226 0h-168v515h163v-227q0 -17 -2 -51h2l28 51l143 227h168v-515h-163v225q0 26 2 52h-2q-4 -10 -28 -51zM478 575h-126v140h126v-140zM269 575h-126v140h126v-140z" />
    <glyph glyph-name="uni04E6" unicode="&#x4e6;" horiz-adv-x="820" 
d="M36 362q0 156 105 260q105 105 269 105t269 -105q105 -104 105 -260q0 -160 -105 -267t-269 -107t-269 107t-105 267zM217 362q0 -92 54 -153q55 -61 139 -61t138 61q55 61 55 153q0 88 -55 146q-54 59 -138 59q-83 0 -139 -59q-54 -58 -54 -146zM577 771h-126v140h126
v-140zM368 771h-126v140h126v-140z" />
    <glyph glyph-name="uni04E7" unicode="&#x4e7;" horiz-adv-x="642" 
d="M320 527q125 0 208 -76q85 -75 85 -195q0 -119 -84 -194q-85 -74 -208 -74t-208 74q-84 75 -84 194q0 118 84 195q83 76 207 76zM204 256q0 -55 33.5 -89.5t83.5 -34.5t83.5 34.5t33.5 89.5q0 56 -33.5 91.5t-83.5 35.5t-83.5 -35.5t-33.5 -91.5zM489 575h-126v140h126
v-140zM280 575h-126v140h126v-140z" />
    <glyph glyph-name="uni04E8" unicode="&#x4e8;" horiz-adv-x="820" 
d="M36 362q0 155 106 260t268 105q160 0 267 -105t107 -260q0 -158 -107 -267q-107 -107 -267 -107q-161 0 -268 107q-106 107 -106 267zM411 141q66 0 117.5 41.5t70.5 109.5h-378q20 -69 72 -110t118 -41zM411 572q-68 0 -120.5 -41t-70.5 -107h381q-19 66 -71 107
t-119 41z" />
    <glyph glyph-name="uni04E9" unicode="&#x4e9;" horiz-adv-x="642" 
d="M320 527q125 0 208 -76q85 -75 85 -195q0 -119 -84 -194q-85 -74 -208 -74t-208 74q-84 75 -84 194q0 118 84 195q83 76 207 76zM323 111q47 0 82.5 27.5t47.5 74.5h-263q12 -47 48 -74.5t85 -27.5zM323 403q-46 0 -81.5 -25.5t-49.5 -70.5h258q-13 44 -47.5 70t-79.5 26
z" />
    <glyph glyph-name="uni04EA" unicode="&#x4ea;" horiz-adv-x="820" 
d="M36 362q0 155 106 260t268 105q160 0 267 -105t107 -260q0 -158 -107 -267q-107 -107 -267 -107q-161 0 -268 107q-106 107 -106 267zM411 141q66 0 117.5 41.5t70.5 109.5h-378q20 -69 72 -110t118 -41zM411 572q-68 0 -120.5 -41t-70.5 -107h381q-19 66 -71 107
t-119 41zM368 771h-126v140h126v-140zM577 771h-126v140h126v-140z" />
    <glyph glyph-name="uni04EB" unicode="&#x4eb;" horiz-adv-x="642" 
d="M320 527q125 0 208 -76q85 -75 85 -195q0 -119 -84 -194q-85 -74 -208 -74t-208 74q-84 75 -84 194q0 118 84 195q83 76 207 76zM323 111q47 0 82.5 27.5t47.5 74.5h-263q12 -47 48 -74.5t85 -27.5zM323 403q-46 0 -81.5 -25.5t-49.5 -70.5h258q-13 44 -47.5 70t-79.5 26
zM280 575h-126v140h126v-140zM489 575h-126v140h126v-140z" />
    <glyph glyph-name="uni04EC" unicode="&#x4ec;" horiz-adv-x="716" 
d="M20 98l86 125q88 -77 197 -77q75 0 125 38.5t65 103.5h-295v140h296q-15 64 -66 102.5t-125 38.5q-99 0 -191 -80l-81 132q102 106 279 106q170 0 270 -105q100 -104 100 -261q0 -162 -106 -268q-107 -105 -272 -105q-155 0 -282 110zM493 771h-126v140h126v-140z
M284 771h-126v140h126v-140z" />
    <glyph glyph-name="uni04ED" unicode="&#x4ed;" horiz-adv-x="550" 
d="M16 62l60 116q68 -56 146 -56q50 0 85 21.5t48 58.5h-194v114h195q-30 77 -127 77q-78 0 -134 -49l-70 112q36 34 93 52.5t120 18.5q132 0 207 -79q76 -79 76 -190q0 -112 -78 -191q-76 -79 -209 -79q-129 0 -218 74zM424 575h-126v140h126v-140zM215 575h-126v140h126
v-140z" />
    <glyph glyph-name="uni04EE" unicode="&#x4ee;" horiz-adv-x="631" 
d="M54 42l76 131q44 -36 79 -36q42 0 57 37l-276 541h192l119 -257l39 -96h2q9 37 28 95l88 258h184l-211 -536q-30 -77 -72 -126q-52 -65 -142 -65q-87 0 -163 54zM456 782h-275v112h275v-112z" />
    <glyph glyph-name="uni04EF" unicode="&#x4ef;" horiz-adv-x="561" 
d="M8 -174l55 127q28 -19 53 -19q62 0 83 52l10 24l-219 505h196l76 -237l19 -80h2l17 77l65 240h189l-211 -570q-29 -77 -86 -116t-129 -39q-60 0 -105 27zM419 586h-275v112h275v-112z" />
    <glyph glyph-name="uni04F0" unicode="&#x4f0;" horiz-adv-x="631" 
d="M54 42l76 131q44 -36 79 -36q42 0 57 37l-276 541h192l119 -257l39 -96h2q9 37 28 95l88 258h184l-211 -536q-30 -77 -72 -126q-52 -65 -142 -65q-87 0 -163 54zM496 771h-126v140h126v-140zM287 771h-126v140h126v-140z" />
    <glyph glyph-name="uni04F1" unicode="&#x4f1;" horiz-adv-x="561" 
d="M8 -174l55 127q28 -19 53 -19q62 0 83 52l10 24l-219 505h196l76 -237l19 -80h2l17 77l65 240h189l-211 -570q-29 -77 -86 -116t-129 -39q-60 0 -105 27zM448 575h-126v140h126v-140zM239 575h-126v140h126v-140z" />
    <glyph glyph-name="uni04F2" unicode="&#x4f2;" horiz-adv-x="631" 
d="M54 42l76 131q44 -36 79 -36q42 0 57 37l-276 541h192l119 -257l39 -96h2q9 37 28 95l88 258h184l-211 -536q-30 -77 -72 -126q-52 -65 -142 -65q-87 0 -163 54zM487 761h-126l81 150h163zM289 761h-136l76 150h139z" />
    <glyph glyph-name="uni04F3" unicode="&#x4f3;" horiz-adv-x="561" 
d="M8 -174l55 127q28 -19 53 -19q62 0 83 52l10 24l-219 505h196l76 -237l19 -80h2l17 77l65 240h189l-211 -570q-29 -77 -86 -116t-129 -39q-60 0 -105 27zM438 565h-126l81 150h163zM240 565h-136l76 150h139z" />
    <glyph glyph-name="uni04F4" unicode="&#x4f4;" horiz-adv-x="692" 
d="M262 253q-110 0 -167 58.5t-57 165.5v238h179v-197q0 -106 95 -106q70 0 126 33v270h179v-715h-179v259l2 32h-2q-90 -38 -176 -38zM503 771h-126v140h126v-140zM294 771h-126v140h126v-140z" />
    <glyph glyph-name="uni04F5" unicode="&#x4f5;" horiz-adv-x="576" 
d="M206 158q-72 0 -124 42q-51 42 -51 135v180h170v-147q0 -69 66 -69q44 0 78 25v191h173v-515h-173v161l1 24h-2q-60 -27 -138 -27zM444 575h-126v140h126v-140zM235 575h-126v140h126v-140z" />
    <glyph glyph-name="uni04F6" unicode="&#x4f6;" horiz-adv-x="528" 
d="M209 0h-134v715h438v-150h-263v-416h114v-289h-155v140z" />
    <glyph glyph-name="uni04F7" unicode="&#x4f7;" horiz-adv-x="441" 
d="M176 0h-118v515h363v-145h-190v-225h98v-265h-153v120z" />
    <glyph glyph-name="uni04F8" unicode="&#x4f8;" horiz-adv-x="925" 
d="M850 0h-175v715h175v-715zM362 0h-287v715h175v-221h112q104 0 168 -70q65 -70 65 -178q0 -107 -65 -177q-64 -69 -168 -69zM250 344v-194h79q42 0 65 25.5t23 70.5t-24 71.5t-67 26.5h-76zM630 771h-126v140h126v-140zM421 771h-126v140h126v-140z" />
    <glyph glyph-name="uni04F9" unicode="&#x4f9;" horiz-adv-x="803" 
d="M745 0h-173v515h173v-515zM309 0h-251v515h173v-161h78q102 0 153 -47t51 -131t-51 -130t-153 -46zM231 242v-129h46q39 -3 55.5 30.5t-0.5 67.5t-58 31h-43zM569 575h-126v140h126v-140zM360 575h-126v140h126v-140z" />
    <glyph glyph-name="uni0524" unicode="&#x524;" horiz-adv-x="807" 
d="M250 0h-175v715h604v-566h114v-289h-155v140h-134v566h-254v-566z" />
    <glyph glyph-name="uni0525" unicode="&#x525;" horiz-adv-x="673" 
d="M231 0h-173v515h499v-370h98v-265h-154v120h-117v370h-153v-370z" />
    <glyph glyph-name="uni1E9E" unicode="&#x1e9e;" horiz-adv-x="704" 
d="M248 0h-179v480q0 106 66 170q67 65 175 65h326v-120l-92 -148l-20 -29v-2l9 -2q64 -14 98 -72q35 -59 35 -124q0 -92 -68 -155t-163 -63h-118v150h105q30 0 47 19.5t17 48.5t-16.5 47.5t-47.5 18.5h-80v120l53 97q27 47 39 59l6 6v2q-9 -3 -45 -3h-84q-28 0 -45.5 -23
t-17.5 -58v-484z" />
    <glyph glyph-name="thinspace" unicode="&#x2009;" horiz-adv-x="20" 
 />
    <glyph glyph-name="endash" unicode="&#x2013;" horiz-adv-x="720" 
d="M658 222h-596v130h596v-130z" />
    <glyph glyph-name="emdash" unicode="&#x2014;" horiz-adv-x="920" 
d="M858 222h-796v130h796v-130z" />
    <glyph glyph-name="quoteleft" unicode="&#x2018;" horiz-adv-x="280" 
d="M192 475h-152l89 255h117z" />
    <glyph glyph-name="quoteright" unicode="&#x2019;" horiz-adv-x="272" 
d="M163 475h-117l54 255h152z" />
    <glyph glyph-name="quotesinglbase" unicode="&#x201a;" horiz-adv-x="276" 
d="M138 -89h-112l54 255h147z" />
    <glyph glyph-name="quotedblleft" unicode="&#x201c;" horiz-adv-x="479" 
d="M391 475h-153l89 255h118zM193 475h-153l89 255h118z" />
    <glyph glyph-name="quotedblright" unicode="&#x201d;" horiz-adv-x="471" 
d="M362 475h-118l54 255h153zM164 475h-118l54 255h153z" />
    <glyph glyph-name="quotedblbase" unicode="&#x201e;" horiz-adv-x="468" 
d="M330 -89h-112l54 255h147zM138 -89h-112l54 255h147z" />
    <glyph glyph-name="dagger" unicode="&#x2020;" horiz-adv-x="492" 
d="M328 -50h-165v435h-130v130h130v200h165v-200h131v-130h-131v-435z" />
    <glyph glyph-name="daggerdbl" unicode="&#x2021;" horiz-adv-x="522" 
d="M178 150h-130v130h130v105h-130v130h130v200h165v-200h131v-130h-131v-105h131v-130h-131v-200h-165v200z" />
    <glyph glyph-name="bullet" unicode="&#x2022;" horiz-adv-x="522" 
d="M392 159q-54 -54 -131 -54t-132 54q-54 55 -54 132t54 131q55 55 132 55t131 -55q55 -54 55 -131t-55 -132z" />
    <glyph glyph-name="ellipsis" unicode="&#x2026;" horiz-adv-x="924" 
d="M865 0h-158v164h158v-164zM541 0h-158v164h158v-164zM217 0h-158v164h158v-164z" />
    <glyph glyph-name="perthousand" unicode="&#x2030;" horiz-adv-x="1261" 
d="M220 382q-76 0 -129 50q-52 49 -52 122q0 71 53 122t128 51q76 0 128 -51q53 -51 53 -122q0 -72 -53 -122t-128 -50zM231 0h-152l552 715h152zM275 555q0 21 -16.5 36.5t-38.5 15.5t-38.5 -15.5t-16.5 -36.5q0 -22 16 -37.5t39 -15.5t39 15.5t16 37.5zM868 160
q0 71 53 122t128 51t128 -51t53 -122q0 -72 -53 -122t-128 -50q-76 0 -129 50q-52 49 -52 122zM466 160q0 71 53 122q52 51 128 51q75 0 128 -51t53 -122q0 -72 -53 -122t-128 -50q-76 0 -129 50q-52 49 -52 122zM994 161q0 -22 16 -37.5t39 -15.5t39 15.5t16 37.5
q0 21 -16.5 36.5t-38.5 15.5t-38.5 -15.5t-16.5 -36.5zM592 161q0 -22 16 -37.5t39 -15.5t39 15.5t16 37.5q0 21 -16.5 36.5t-38.5 15.5t-38.5 -15.5t-16.5 -36.5z" />
    <glyph glyph-name="guilsinglleft" unicode="&#x2039;" horiz-adv-x="394" 
d="M354 77h-158l-164 205l164 206h158l-164 -206z" />
    <glyph glyph-name="guilsinglright" unicode="&#x203a;" horiz-adv-x="394" 
d="M198 77h-158l164 205l-164 206h158l164 -206z" />
    <glyph glyph-name="fraction" unicode="&#x2044;" horiz-adv-x="196" 
d="M326 715l-336 -715h-119l336 715h119z" />
    <glyph glyph-name="zerosuperior" unicode="&#x2070;" horiz-adv-x="400" 
d="M30 644q0 230 170 230t170 -230q0 -231 -170 -231t-170 231zM243 644q0 114 -43 114t-43 -114q0 -116 43 -116t43 116z" />
    <glyph glyph-name="foursuperior" unicode="&#x2074;" horiz-adv-x="400" 
d="M330 423h-124v87h-197v84l171 270h150v-247h53v-107h-53v-87zM128 619v-2h78v90l4 50h-2q-9 -26 -21 -46z" />
    <glyph glyph-name="fivesuperior" unicode="&#x2075;" horiz-adv-x="400" 
d="M193 413q-98 0 -163 65l63 93q15 -18 40.5 -30.5t49.5 -12.5q23 0 40 13t17 33q0 21 -17 34t-44 13q-39 0 -65 -13l-65 24l20 232h266v-109h-164l-2 -23l-3 -16l2 -1q15 4 43 4q69 0 112 -43q44 -42 44 -103q0 -63 -47 -112q-46 -48 -127 -48z" />
    <glyph glyph-name="sixsuperior" unicode="&#x2076;" horiz-adv-x="400" 
d="M214 413q-75 0 -129 54t-54 155q0 98 57 175q59 77 156 77q61 0 106 -24l-32 -108q-29 16 -66 16q-58 0 -76 -52h2q18 6 37 6q73 0 115 -41t42 -105q0 -62 -43 -108q-43 -45 -115 -45zM214 528q15 0 24 11.5t9 27.5q0 25 -14 41.5t-40 16.5q-34 0 -34 -19q0 -34 16.5 -56
t38.5 -22z" />
    <glyph glyph-name="sevensuperior" unicode="&#x2077;" horiz-adv-x="400" 
d="M176 423h-137l176 308l16 24v2q-22 -2 -30 -2h-161v109h334v-85z" />
    <glyph glyph-name="eightsuperior" unicode="&#x2078;" horiz-adv-x="400" 
d="M201 413q-71 0 -123 36q-52 37 -52 103q0 54 64 106q-43 36 -43 88q0 61 45 94q46 34 110 34q62 0 111 -35q48 -35 48 -94q0 -47 -49 -100q59 -38 59 -99q0 -62 -51 -98q-50 -35 -119 -35zM228 684q17 28 17 53q0 14 -13 22.5t-30 8.5q-35 0 -35 -28q0 -31 61 -56z
M200 519q19 0 32 9.5t13 24.5q0 13 -12 23q-15 15 -63 37q-23 -26 -23 -53q0 -18 15.5 -29.5t37.5 -11.5z" />
    <glyph glyph-name="ninesuperior" unicode="&#x2079;" horiz-adv-x="400" 
d="M49 437l32 108q42 -16 66 -16q58 0 76 52h-2q-18 -6 -37 -6q-73 0 -115 42q-42 43 -42 105t43 106q43 46 115 46q75 0 129 -54t54 -155q0 -100 -58 -176q-57 -76 -155 -76q-62 0 -106 24zM206 662q34 0 34 19q0 34 -16.5 56t-38.5 22q-15 0 -24 -11t-9 -27q0 -25 14 -42
t40 -17z" />
    <glyph glyph-name="zeroinferior" unicode="&#x2080;" horiz-adv-x="400" 
d="M30 64q0 230 170 230t170 -230q0 -231 -170 -231t-170 231zM243 64q0 114 -43 114t-43 -114q0 -116 43 -116t43 116z" />
    <glyph glyph-name="oneinferior" unicode="&#x2081;" horiz-adv-x="400" 
d="M362 -157h-305v108h89v143l3 32h-2q-4 -10 -11 -15l-24 -22l-72 79l124 116h108v-333h90v-108z" />
    <glyph glyph-name="twoinferior" unicode="&#x2082;" horiz-adv-x="400" 
d="M364 -157h-327q-5 32 -5 49q0 97 70 147q17 12 56 35.5t56 38.5t17 32q0 15 -13 24.5t-32 9.5q-35 0 -71 -45l-83 71q24 40 68.5 64.5t94.5 24.5q64 0 113 -37q50 -36 50 -106q0 -44 -26 -81t-63 -56q-91 -44 -96 -63h191v-108z" />
    <glyph glyph-name="threeinferior" unicode="&#x2083;" horiz-adv-x="400" 
d="M187 -167q-101 0 -160 68l61 90q34 -43 91 -43q24 0 39 12t15 30q0 36 -62 36h-37l-24 57l62 69l24 23v2q-28 -2 -34 -2h-110v109h294v-79l-83 -91q97 -24 97 -126q0 -62 -46 -108q-47 -47 -127 -47z" />
    <glyph glyph-name="fourinferior" unicode="&#x2084;" horiz-adv-x="400" 
d="M330 -157h-124v87h-197v84l171 270h150v-247h53v-107h-53v-87zM128 39v-2h78v90l4 50h-2q-9 -26 -21 -46z" />
    <glyph glyph-name="fiveinferior" unicode="&#x2085;" horiz-adv-x="400" 
d="M193 -167q-98 0 -163 65l63 93q15 -18 40.5 -30.5t49.5 -12.5q23 0 40 13t17 33q0 21 -17 34t-44 13q-39 0 -65 -13l-65 24l20 232h266v-109h-164l-2 -23l-3 -16l2 -1q15 4 43 4q69 0 112 -43q44 -42 44 -103q0 -63 -47 -112q-46 -48 -127 -48z" />
    <glyph glyph-name="sixinferior" unicode="&#x2086;" horiz-adv-x="400" 
d="M214 -167q-75 0 -129 54t-54 155q0 98 57 175q59 77 156 77q61 0 106 -24l-32 -108q-29 16 -66 16q-58 0 -76 -52h2q18 6 37 6q73 0 115 -41t42 -105q0 -63 -43 -107q-43 -46 -115 -46zM214 -52q15 0 24 11.5t9 27.5q0 25 -14 41.5t-40 16.5q-34 0 -34 -19
q0 -34 16.5 -56t38.5 -22z" />
    <glyph glyph-name="seveninferior" unicode="&#x2087;" horiz-adv-x="400" 
d="M176 -157h-137l176 308l16 24v2q-22 -2 -30 -2h-161v109h334v-85z" />
    <glyph glyph-name="eightinferior" unicode="&#x2088;" horiz-adv-x="400" 
d="M201 -167q-71 0 -123 37q-52 36 -52 102q0 54 64 106q-43 36 -43 88q0 61 45 94q46 34 110 34q62 0 111 -35q48 -35 48 -94q0 -47 -49 -100q59 -38 59 -99q0 -62 -51 -97q-49 -36 -119 -36zM228 104q17 28 17 53q0 14 -13 22.5t-30 8.5q-35 0 -35 -28q0 -31 61 -56z
M200 -61q19 0 32 9.5t13 24.5q0 12 -12 24q-15 14 -63 36q-23 -26 -23 -53q0 -18 15.5 -29.5t37.5 -11.5z" />
    <glyph glyph-name="nineinferior" unicode="&#x2089;" horiz-adv-x="400" 
d="M49 -143l32 108q42 -16 66 -16q58 0 76 52h-2q-18 -6 -37 -6q-73 0 -115 42q-42 43 -42 105t43 106q43 46 115 46q75 0 129 -54t54 -155q0 -99 -58 -175q-57 -77 -155 -77q-62 0 -106 24zM206 82q34 0 34 19q0 34 -16.5 56t-38.5 22q-15 0 -24 -11t-9 -27q0 -25 14 -42
t40 -17z" />
    <glyph glyph-name="Euro" unicode="&#x20ac;" 
d="M100 237h-74v96h56q-3 23 -1 48h-55v96h72q34 111 129 180q94 70 218 70q47 0 117 -14l-43 -158q-29 10 -79 10q-108 0 -154 -88h216l-20 -96h-219q-3 -21 2 -48h207l-20 -96h-155q51 -84 151 -84q43 0 95 15l30 -160q-58 -20 -128 -20q-127 0 -219 68q-91 67 -126 181z
" />
    <glyph glyph-name="numero" unicode="&#x2116;" horiz-adv-x="1123" 
d="M247 0h-175v715h177l198 -334q25 -45 51 -102l9 -20h2q-8 82 -8 122v334h175v-715h-176l-199 333q-25 45 -51 102l-9 20h-2q8 -82 8 -122v-333zM741 456q0 69 49 118t122 49q71 0 120 -49q50 -50 50 -118q0 -70 -49 -118t-121 -48t-122 48q-49 48 -49 118zM863 457
q0 -22 13.5 -36.5t35.5 -14.5t35.5 14.5t13.5 36.5q0 21 -14 35.5t-35 14.5t-35 -14.5t-14 -35.5zM1069 132h-319v115h319v-115z" />
    <glyph glyph-name="trademark" unicode="&#x2122;" horiz-adv-x="1023" 
d="M608 268h-127l35 447h118l73 -175l13 -44h2q9 34 13 44l73 175h118l33 -447h-127l-10 174l1 32h-2l-51 -125h-98l-51 125h-2l1 -32zM322 268h-126v338h-142v109h408v-109h-140v-338z" />
    <glyph glyph-name="minus" unicode="&#x2212;" 
d="M573 222h-546v130h546v-130z" />
    <glyph glyph-name="infinity" unicode="&#x221e;" horiz-adv-x="513" 
d="M402 203q-60 -60 -145 -60t-146 60q-60 61 -60 146t60 145q61 60 146 60t145 -60t60 -145t-60 -146z" />
    <glyph glyph-name="approxequal" unicode="&#x2248;" 
d="M99 322l-63 99q81 81 165 81q49 0 107 -35q59 -35 91 -35q55 0 102 54l63 -99q-81 -81 -165 -81q-49 0 -108 35q-58 35 -90 35q-53 0 -102 -54zM99 93l-63 99q81 81 165 81q49 0 107 -35q59 -35 91 -35q55 0 102 54l63 -99q-81 -81 -165 -81q-49 0 -108 35q-58 35 -90 35
q-53 0 -102 -54z" />
    <glyph glyph-name="notequal" unicode="&#x2260;" 
d="M175 0l-78 47l38 60h-88v130h171l64 100h-235v130h319l69 108l76 -49l-38 -59h80v-130h-163l-64 -100h227v-130h-310z" />
    <glyph glyph-name="lessequal" unicode="&#x2264;" 
d="M544 11l-504 223v107l504 223v-145l-330 -131v-2l330 -130v-145zM43 -200v130h501v-130h-501z" />
    <glyph glyph-name="greaterequal" unicode="&#x2265;" 
d="M560 234l-504 -223v145l330 130v2l-330 131v145l504 -223v-107zM57 -200v130h501v-130h-501z" />
    <glyph glyph-name="commaaccent" unicode="&#xf6c3;" horiz-adv-x="335" 
d="M105 -49h136q7 -27 7 -58q0 -48 -28 -103h-123q20 60 20 93t-12 68z" />
    <glyph glyph-name="cyrbreve" unicode="&#xf6d4;" horiz-adv-x="419" 
d="M208 747q-79 0 -135 41q-55 40 -55 112v11h128v-12q0 -28 18 -43.5t44 -15.5t44 15.5t18 43.5v12h127v-11q0 -72 -55 -112q-56 -41 -134 -41z" />
    <glyph glyph-name="apple" unicode="&#xf8ff;" horiz-adv-x="1130" 
d="M433 -146l-265 141v152l-126 72v278l126 71v151l265 142l134 -71l132 71l265 -142v-151l124 -71v-278l-124 -72v-152l-265 -141l-132 71zM208 169v-139l238 -126l121 66l118 -66l238 126v139l114 64v249l-114 66v136l-238 126l-118 -64l-121 64l-238 -126v-136l-114 -66
v-249zM457 -50l-215 114v121l-99 60v225l99 58v123l215 114l110 -59l107 59l214 -114v-123l100 -58v-225l-100 -60v-121l-214 -114l-107 58zM447 551v-460h43v228h228v40h-228v192h199q17 0 23 -6.5t6 -22.5v-42h42v54q0 30 -13 43.5t-45 13.5h-320v-40h65z" />
    <glyph glyph-name="NULL" horiz-adv-x="0" 
 />
    <glyph glyph-name="CR" horiz-adv-x="333" 
 />
    <glyph glyph-name="zero.tnum" 
d="M427 16q-52 -28 -127 -28t-128 28q-95 52 -127 198q-14 67 -14 145q0 77 14 144q32 146 127 196q53 28 128 28t127 -28q96 -49 128 -196q14 -67 14 -144q0 -78 -14 -145q-32 -146 -128 -198zM389 359q0 208 -89 208t-89 -208q0 -211 89 -211t89 211z" />
    <glyph glyph-name="one.tnum" 
d="M555 0h-476v150h152v298l1 55h-2q-10 -21 -28 -38l-43 -39l-101 108l193 181h151v-565h153v-150z" />
    <glyph glyph-name="two.tnum" 
d="M551 0h-495q-8 48 -8 77q0 61 23 115q21 48 51.5 81t79.5 71q19 15 55.5 39.5t53 37.5t31.5 32t15 38q0 34 -22 52.5t-55 18.5q-32 0 -60 -21t-46 -55l-130 87q37 71 101 112.5t151 41.5q98 0 171 -57q73 -55 73 -162q0 -117 -103 -197q-23 -17 -81 -53.5t-85 -60.5
t-29 -47h309v-150z" />
    <glyph glyph-name="three.tnum" 
d="M39 82l84 135q65 -64 147 -64q46 0 74 20t28 51q0 79 -133 79h-50l-37 85l94 113q39 47 54 59l8 8v2q-25 -5 -68 -5h-171v150h451v-109l-145 -167q79 -16 126 -74t47 -133q0 -65 -28 -118q-29 -56 -92 -91t-145 -35q-151 0 -244 94z" />
    <glyph glyph-name="four.tnum" 
d="M324 173h-317v106l276 436h214v-397h85v-145h-85v-173h-173v173zM185 320v-2h139v160l6 80h-2q-15 -43 -35 -74z" />
    <glyph glyph-name="five.tnum" 
d="M46 82l84 135q67 -64 145 -64q41 0 70.5 24t29.5 64q0 41 -31.5 65t-82.5 24q-48 0 -96 -24l-93 35l29 374h400v-150h-248l-4 -66l-4 -28h2q18 7 52 7q122 0 189 -67q67 -66 67 -168q0 -111 -74 -183q-73 -72 -191 -72q-147 0 -244 94z" />
    <glyph glyph-name="six.tnum" 
d="M37 330q0 152 86 271q43 58 109.5 92t145.5 34q95 0 158 -31l-47 -150q-11 6 -44 14q-29 7 -54 7q-115 0 -154 -118h2q13 9 43.5 17t54.5 8q105 0 170 -74q64 -73 64 -171t-67 -169q-66 -72 -177 -72q-118 0 -204 89t-86 253zM327 148q32 0 52 23t20 57q0 45 -28 75
t-80 30q-74 0 -74 -43q0 -60 35 -101t75 -41z" />
    <glyph glyph-name="seven.tnum" 
d="M264 0h-183l253 501q24 46 37 59l5 6v2q-6 -3 -42 -3h-283v150h513v-122z" />
    <glyph glyph-name="eight.tnum" 
d="M32 210q0 39 20 79q30 59 79 95q-65 59 -65 137q0 86 61 146q62 60 179 60q103 0 173 -56q69 -55 69 -151q0 -79 -70 -164q84 -58 84 -150q0 -90 -70 -154t-195 -64q-124 0 -195 65q-70 66 -70 157zM351 419q26 43 26 88q0 30 -20 48t-55 18q-31 0 -48 -15t-17 -41
q0 -30 26 -51t88 -47zM211 225q0 -35 25 -59t61 -24q40 0 63 19t23 54q0 27 -33 47q-18 12 -35 20l-20 10q-5 3 -45 21q-39 -41 -39 -88z" />
    <glyph glyph-name="nine.tnum" 
d="M63 19l47 150q50 -21 98 -21q115 0 154 118h-2q-12 -10 -42 -17.5t-56 -7.5q-106 0 -170 73t-64 172q0 97 66 169q67 72 178 72q118 0 204 -89t86 -253q0 -153 -87 -271q-42 -58 -108.5 -92t-145.5 -34q-95 0 -158 31zM308 382q74 0 74 43q0 60 -35 101t-75 41
q-32 0 -52 -23t-20 -57q0 -45 28 -75t80 -30z" />
    <glyph glyph-name="hyphen.case" horiz-adv-x="432" 
d="M373 272h-314v150h314v-150z" />
    <glyph glyph-name="parenleft.case" horiz-adv-x="332" 
d="M306 -65h-142q-124 196 -124 442q0 213 124 403h142q-113 -190 -113 -403q0 -227 113 -442z" />
    <glyph glyph-name="parenright.case" horiz-adv-x="332" 
d="M168 -65h-142q113 215 113 442q0 213 -113 403h142q124 -190 124 -403q0 -246 -124 -442z" />
    <glyph glyph-name="bracketleft.case" horiz-adv-x="352" 
d="M316 -65h-246v845h246v-120h-102v-605h102v-120z" />
    <glyph glyph-name="bracketright.case" horiz-adv-x="352" 
d="M36 -65v120h102v605h-102v120h246v-845h-246z" />
    <glyph glyph-name="braceleft.case" horiz-adv-x="396" 
d="M117 92v98q0 88 -85 96v150q40 4 62.5 29.5t22.5 69.5v88q0 49 20 84.5t54 50.5q58 27 125 27l43 -2v-124q-14 2 -25 2q-73 0 -73 -54v-117q0 -45 -23.5 -80t-60.5 -47v-2q84 -30 84 -126v-127q0 -54 73 -54l25 2v-124q-24 -2 -43 -2q-67 0 -125 27q-34 15 -54 50.5
t-20 84.5z" />
    <glyph glyph-name="braceright.case" horiz-adv-x="396" 
d="M37 -68v124q14 -2 25 -2q73 0 73 54v127q0 44 22.5 79.5t61.5 46.5v2q-35 12 -59.5 46.5t-24.5 80.5v117q0 54 -73 54l-25 -2v124q24 2 43 2q67 0 124 -27q35 -15 55 -50.5t20 -84.5v-88q0 -42 22 -69t63 -30v-150q-38 -1 -61.5 -28t-23.5 -68v-98q0 -49 -20 -84.5
t-55 -50.5q-57 -27 -124 -27z" />
    <glyph glyph-name="at.case" horiz-adv-x="844" 
d="M438 731q157 0 227 -67q71 -66 71 -173v-198h74v-119h-283q-105 0 -167 54q-60 54 -60 128q0 71 59 124q59 52 168 52h49q0 30 -42 47t-93 17q-95 0 -161 -74t-66 -167q0 -102 67 -170q67 -69 185 -69v-130q-192 0 -307 105q-114 105 -114 264t112 267q112 109 281 109z
M537 293h39v134h-37q-42 3 -59.5 -32t-0.5 -70t58 -32z" />
    <glyph glyph-name="guillemotleft.case" horiz-adv-x="653" 
d="M614 137h-158l-164 205l164 206h158l-164 -206zM354 137h-158l-164 205l164 206h158l-164 -206z" />
    <glyph glyph-name="guillemotright.case" horiz-adv-x="653" 
d="M457 137h-158l164 205l-164 206h158l164 -206zM197 137h-158l164 205l-164 206h158l164 -206z" />
    <glyph glyph-name="guilsinglleft.case" horiz-adv-x="393" 
d="M354 137h-158l-164 205l164 206h158l-164 -206z" />
    <glyph glyph-name="guilsinglright.case" horiz-adv-x="393" 
d="M197 137h-158l164 205l-164 206h158l164 -206z" />
    <glyph glyph-name="endash.case" horiz-adv-x="714" 
d="M655 282h-596v130h596v-130z" />
    <glyph glyph-name="emdash.case" horiz-adv-x="914" 
d="M855 282h-796v130h796v-130z" />
    <glyph glyph-name="periodcentered.case" horiz-adv-x="276" 
d="M217 263h-158v164h158v-164z" />
    <glyph glyph-name="questiondown.case" horiz-adv-x="510" 
d="M208 494h166v-50q0 -71 -55 -121q-8 -7 -27 -22.5t-29 -24.5t-22.5 -22t-18 -26t-5.5 -27q0 -25 21 -42t50 -17q46 0 95 43l96 -117q-83 -83 -209 -83q-93 0 -163 52t-70 144q0 87 60 143l37 32t38.5 34.5t23.5 30.5t12 37v36zM212 715h158v-150h-158v150z" />
    <glyph glyph-name="exclamdown.case" horiz-adv-x="308" 
d="M80 494h148l16 -494h-180zM75 715h158v-150h-158v150z" />
    <glyph glyph-name="bullet.case" horiz-adv-x="520" 
d="M391 224q-54 -54 -131 -54q-76 0 -132 54q-54 56 -54 132q0 77 54 131q55 55 132 55t131 -55q55 -54 55 -131t-55 -132z" />
    <glyph glyph-name="zero.p_osf" horiz-adv-x="585" 
d="M37 278q0 44 9 85t29 78.5t49 65t72.5 44t96.5 16.5q87 0 146 -44q109 -78 109 -247q0 -122 -63.5 -205t-190.5 -83q-66 0 -117 24.5t-80.5 66.5t-44.5 92.5t-15 106.5zM211 278q0 -146 82 -146t82 144q0 147 -82 147t-82 -145z" />
    <glyph glyph-name="one.p_osf" horiz-adv-x="522" 
d="M500 0h-444v145h143v162l1 74h-2q-15 -18 -38 -32l-55 -31l-79 118l193 119h147v-410h134v-145z" />
    <glyph glyph-name="two.p_osf" horiz-adv-x="557" 
d="M518 0h-470v115q269 161 269 247q0 28 -19 42.5t-47 14.5q-67 0 -134 -70l-88 111q42 48 108.5 77.5t137.5 29.5q87 0 151 -46q66 -47 66 -135q0 -140 -197 -244v-2q25 5 68 5h155v-145z" />
    <glyph glyph-name="three.p_osf" horiz-adv-x="548" 
d="M18 -41l75 121q70 -64 147 -64q48 0 75.5 19.5t27.5 52.5q0 43 -40 64q-39 21 -88 21h-59l-37 79l90 111q24 28 44 44l7 5v1q-20 -4 -68 -4h-138v146h431v-98l-147 -166q77 -13 128 -67q51 -52 51 -123q0 -96 -71 -162q-70 -67 -198 -67q-143 0 -230 87z" />
    <glyph glyph-name="four.p_osf" horiz-adv-x="612" 
d="M324 23h-307v106l257 426h223v-387h85v-145h-85v-139h-173v139zM293 330l-98 -162h129v156l6 80h-2q-17 -45 -35 -74z" />
    <glyph glyph-name="five.p_osf" horiz-adv-x="551" 
d="M26 -42l73 122q67 -64 146 -64q42 0 74 22q33 22 33 62q0 42 -31.5 67.5t-80.5 25.5q-54 0 -88 -17l-13 -5l-88 33l29 351h385v-146h-238l-4 -64l-4 -27h2q24 7 52 7q120 0 186 -63q67 -61 67 -153q0 -107 -75 -172q-74 -65 -192 -65q-139 0 -233 86z" />
    <glyph glyph-name="six.p_osf" 
d="M41 305q0 143 82 257q41 56 106 88.5t142 32.5q89 0 158 -29l-47 -135q-51 20 -98 20q-52 0 -91.5 -32.5t-58.5 -84.5h2q13 8 44 15.5t55 7.5q105 0 167 -68t62 -160q0 -91 -66 -160q-64 -69 -173 -69q-56 0 -105.5 19t-90 56t-64.5 99.5t-24 142.5zM217 272
q0 -59 31 -99q32 -41 77 -41q30 0 48.5 23t18.5 59q0 42 -27 70t-76 28q-72 0 -72 -40z" />
    <glyph glyph-name="seven.p_osf" horiz-adv-x="536" 
d="M238 -116h-181l238 466q18 34 34 56l4 5v2q-5 -3 -41 -3h-269v145h502v-115z" />
    <glyph glyph-name="eight.p_osf" horiz-adv-x="599" 
d="M39 197q0 87 95 164q-63 53 -63 127q0 80 59 137q60 57 173 57q100 0 168 -53t68 -142q0 -71 -61 -156q79 -54 79 -138q0 -83 -69 -144q-68 -61 -191 -61q-121 0 -189 61q-69 62 -69 148zM350 392q24 40 24 83q0 29 -20 46.5t-53 17.5q-31 0 -48 -15t-17 -39
q0 -28 26 -48t88 -45zM210 211q0 -33 25.5 -56.5t61.5 -23.5q40 0 63 18.5t23 51.5q0 26 -32 44q-9 6 -35 19l-20 9l-12 6t-18.5 8.5t-13.5 5.5q-42 -41 -42 -82z" />
    <glyph glyph-name="nine.p_osf" horiz-adv-x="583" 
d="M63 -99l47 135q48 -20 98 -20q52 0 91.5 32.5t58.5 84.5h-2q-13 -8 -44 -15.5t-55 -7.5q-105 0 -167 68t-62 160q0 90 65 160q66 69 174 69q56 0 105.5 -19t90 -56t64.5 -99.5t24 -142.5q0 -144 -83 -257q-40 -56 -105 -88.5t-142 -32.5q-89 0 -158 29zM303 243
q72 0 72 40q0 58 -32 99t-76 41q-30 0 -48.5 -23t-18.5 -59q0 -42 27 -70t76 -28z" />
    <glyph glyph-name="zero.t_osf" 
d="M44 278q0 44 9 85t29 78.5t49 65t72.5 44t96.5 16.5q87 0 146 -44q109 -78 109 -247q0 -122 -63.5 -205t-190.5 -83q-66 0 -117 24.5t-80.5 66.5t-44.5 92.5t-15 106.5zM218 278q0 -146 82 -146t82 144q0 147 -82 147t-82 -145z" />
    <glyph glyph-name="one.t_osf" 
d="M540 0h-444v145h143v162l1 74h-2q-15 -18 -38 -32l-55 -31l-79 118l193 119h147v-410h134v-145z" />
    <glyph glyph-name="two.t_osf" 
d="M541 0h-470v115q269 161 269 247q0 28 -19 42.5t-47 14.5q-67 0 -134 -70l-88 111q42 48 108.5 77.5t137.5 29.5q87 0 151 -46q66 -47 66 -135q0 -140 -197 -244v-2q25 5 68 5h155v-145z" />
    <glyph glyph-name="three.t_osf" 
d="M46 -39l75 121q67 -64 146 -64q48 0 75.5 19.5t27.5 52.5q0 42 -40 63q-39 21 -88 21h-59l-36 79l89 111q21 25 44 43l7 5v1q-20 -4 -68 -4h-137v146h429v-98l-146 -165q77 -14 127 -67q51 -53 51 -122q0 -95 -71 -161q-70 -67 -197 -67q-143 0 -229 86z" />
    <glyph glyph-name="four.t_osf" 
d="M320 23h-307v106l257 426h223v-387h85v-145h-85v-139h-173v139zM289 330l-98 -162h129v156l6 80h-2q-17 -45 -35 -74z" />
    <glyph glyph-name="five.t_osf" 
d="M51 -42l73 122q67 -64 146 -64q44 0 75.5 23t31.5 61q0 42 -31.5 67.5t-80.5 25.5q-53 0 -89 -17l-12 -5l-88 33l29 351h385v-146h-238l-4 -64l-4 -27h2q24 7 52 7q120 0 186 -63q67 -61 67 -153q0 -107 -75 -172q-74 -65 -192 -65q-139 0 -233 86z" />
    <glyph glyph-name="six.t_osf" 
d="M42 305q0 143 82 257q41 56 106 88.5t142 32.5q89 0 158 -29l-47 -135q-51 20 -98 20q-52 0 -91.5 -32.5t-58.5 -84.5h2q13 8 44 15.5t55 7.5q105 0 167 -68t62 -160q0 -91 -66 -160q-65 -69 -173 -69q-56 0 -105.5 19t-90 56t-64.5 99.5t-24 142.5zM218 272
q0 -59 31 -99q32 -41 77 -41q30 0 48.5 23t18.5 59q0 42 -27 70t-76 28q-72 0 -72 -40z" />
    <glyph glyph-name="seven.t_osf" 
d="M271 -116h-181l238 466q18 34 34 56l4 5v2q-4 -3 -41 -3h-269v145h502v-115z" />
    <glyph glyph-name="eight.t_osf" 
d="M39 197q0 87 95 164q-63 53 -63 127q0 80 59 137q60 57 173 57q100 0 168 -53t68 -142q0 -71 -61 -156q79 -54 79 -138q0 -83 -69 -144q-68 -61 -191 -61q-121 0 -189 61q-69 62 -69 148zM350 392q24 40 24 83q0 29 -20 46.5t-53 17.5q-31 0 -48 -15t-17 -39
q0 -28 26 -48t88 -45zM210 211q0 -33 25.5 -56.5t61.5 -23.5q40 0 63 18.5t23 51.5q0 26 -32 44q-9 6 -35 19l-20 9l-12 6t-18.5 8.5t-13.5 5.5q-42 -41 -42 -82z" />
    <glyph glyph-name="nine.t_osf" 
d="M71 -99l47 135q48 -20 98 -20q52 0 91.5 32.5t58.5 84.5h-2q-13 -8 -44 -15.5t-55 -7.5q-105 0 -167 68t-62 160q0 90 65 160q66 69 174 69q56 0 105.5 -19t90 -56t64.5 -99.5t24 -142.5q0 -144 -83 -257q-40 -56 -105 -88.5t-142 -32.5q-89 0 -158 29zM311 243
q72 0 72 40q0 58 -32 99t-76 41q-30 0 -48.5 -23t-18.5 -59q0 -42 27 -70t76 -28z" />
    <glyph glyph-name="dollar.osf" horiz-adv-x="542" 
d="M34 83l78 129q72 -72 146 -72q67 0 67 34q0 21 -98 58q-179 65 -178 188q0 65 47 110.5t126 60.5v93h109v-90q97 -12 161 -64l-61 -138q-62 53 -133 53q-69 0 -69 -36q0 -16 84 -47q9 -3 13 -5q180 -58 179 -185q0 -66 -47 -114.5t-127 -63.5v-94h-109v91
q-112 16 -188 92z" />
    <glyph glyph-name="cent.osf" horiz-adv-x="556" 
d="M349 -30h-114v84q-92 22 -145 90q-52 68 -52 156t52 155q54 69 145 91v83h114v-76q93 -10 167 -78l-78 -124q-45 52 -108 52q-55 0 -87.5 -29.5t-32.5 -71.5q0 -45 31.5 -75t88.5 -30q56 0 108 52l78 -124q-61 -61 -167 -78v-77z" />
    <glyph glyph-name="sterling.osf" horiz-adv-x="619" 
d="M570 0h-519v145h55v86h-43v108h43v42q0 95 73 155q73 61 181 61q114 0 196 -60l-74 -127q-53 35 -117 35q-34 0 -59 -18.5t-25 -45.5v-42h180v-108h-180v-86h289v-145z" />
    <glyph glyph-name="yen.osf" horiz-adv-x="673" 
d="M247 118h-161v96h161v7l-41 71h-120v96h65l-112 197h199l53 -118l43 -110h2q21 62 43 110l53 118h199l-113 -197h74v-96h-129l-41 -71v-7h170v-96h-170v-118h-175v118z" />
    <glyph glyph-name="florin.osf" horiz-adv-x="602" 
d="M50 -119v146q50 -7 70 -7q87 0 93 64l16 182h-64v135h75l9 90q10 95 70 141q26 20 61 32q56 19 120 19l88 -8v-146q-56 7 -76 7q-88 0 -94 -64l-7 -71h96v-135h-108l-17 -201q-7 -93 -70 -141q-26 -20 -61 -32q-56 -19 -119 -19z" />
    <glyph glyph-name="Euro.osf" horiz-adv-x="591" 
d="M123 184h-81v86h64q-1 5 -1 45h-63v86h79q32 90 112.5 143t197.5 53q59 0 103 -12l-37 -135q-28 9 -70 9q-80 0 -123 -58h184l-19 -86h-190q-3 -18 2 -45h182l-16 -86h-132q43 -55 119 -55q47 0 87 14l25 -137q-52 -18 -115 -18q-114 0 -194 53t-114 143z" />
    <glyph glyph-name="zero.numerator" horiz-adv-x="400" 
d="M30 495q0 230 170 230t170 -230q0 -231 -170 -231t-170 231zM243 495q0 114 -43 114t-43 -114q0 -116 43 -116t43 116z" />
    <glyph glyph-name="one.numerator" horiz-adv-x="400" 
d="M363 274h-305v108h89v143l3 32h-2q-4 -10 -11 -15l-24 -22l-72 79l124 116h108v-333h90v-108z" />
    <glyph glyph-name="two.numerator" horiz-adv-x="400" 
d="M364 274h-327q-5 32 -5 49q0 97 70 147q17 12 56 35.5t56 38.5t17 32q0 15 -13 24.5t-32 9.5q-35 0 -71 -45l-83 71q24 40 68.5 64.5t94.5 24.5q64 0 113 -37q50 -36 50 -106q0 -44 -26 -81t-63 -56q-91 -44 -96 -63h191v-108z" />
    <glyph glyph-name="three.numerator" horiz-adv-x="400" 
d="M186 264q-101 0 -160 68l61 90q34 -43 91 -43q24 0 39 12t15 30q0 36 -62 36h-37l-24 57l62 69l24 23v2q-28 -2 -34 -2h-110v109h294v-79l-83 -91q97 -24 97 -126q0 -63 -46 -109t-127 -46z" />
    <glyph glyph-name="four.numerator" horiz-adv-x="400" 
d="M330 274h-124v87h-197v84l171 270h150v-247h53v-107h-53v-87zM128 470v-2h78v90l4 50h-2q-9 -26 -21 -46z" />
    <glyph glyph-name="five.numerator" horiz-adv-x="400" 
d="M193 264q-98 0 -163 65l63 93q15 -18 40.5 -30.5t49.5 -12.5q23 0 40 13t17 33q0 21 -17 34t-44 13q-39 0 -65 -13l-65 24l20 232h266v-109h-164l-2 -23l-3 -16l2 -1q15 4 43 4q69 0 112 -43q44 -42 44 -103q0 -63 -47 -112q-46 -48 -127 -48z" />
    <glyph glyph-name="six.numerator" horiz-adv-x="400" 
d="M215 264q-75 0 -129 54t-54 155q0 99 57 175q59 77 156 77q61 0 106 -24l-32 -108q-29 16 -66 16q-58 0 -76 -52h2q18 6 37 6q73 0 115 -41t42 -105q0 -62 -43 -108q-44 -45 -115 -45zM215 379q15 0 24 11.5t9 27.5q0 25 -14 41.5t-40 16.5q-34 0 -34 -19q0 -34 16.5 -56
t38.5 -22z" />
    <glyph glyph-name="seven.numerator" horiz-adv-x="400" 
d="M176 274h-137l176 308l16 24v2q-22 -2 -30 -2h-161v109h334v-85z" />
    <glyph glyph-name="eight.numerator" horiz-adv-x="400" 
d="M201 264q-71 0 -123 36q-52 37 -52 103q0 54 64 106q-43 36 -43 88q0 61 45 94q46 34 110 34q62 0 111 -35q48 -34 48 -94q0 -47 -49 -100q59 -38 59 -99q0 -62 -51 -98q-50 -35 -119 -35zM228 535q17 28 17 53q0 14 -13 22.5t-30 8.5q-35 0 -35 -28q0 -31 61 -56z
M200 370q19 0 32 9.5t13 24.5q0 12 -12 23q-15 15 -63 37q-23 -26 -23 -53q0 -18 15.5 -29.5t37.5 -11.5z" />
    <glyph glyph-name="nine.numerator" horiz-adv-x="400" 
d="M49 288l32 108q42 -16 66 -16q58 0 76 52h-2q-18 -6 -37 -6q-73 0 -115 42q-42 44 -42 105q0 62 43 106q43 46 115 46q75 0 129 -54t54 -155q0 -100 -58 -176q-57 -76 -155 -76q-62 0 -106 24zM206 513q34 0 34 19q0 34 -16.5 56t-38.5 22q-15 0 -24 -11t-9 -27
q0 -25 14 -42t40 -17z" />
    <glyph glyph-name="zero.denominator" horiz-adv-x="400" 
d="M30 221q0 230 170 230t170 -230q0 -231 -170 -231t-170 231zM243 221q0 114 -43 114t-43 -114q0 -116 43 -116t43 116z" />
    <glyph glyph-name="one.denominator" horiz-adv-x="400" 
d="M363 0h-305v108h89v143l3 32h-2q-4 -10 -11 -15l-24 -22l-72 79l124 116h108v-333h90v-108z" />
    <glyph glyph-name="two.denominator" horiz-adv-x="400" 
d="M364 0h-327q-5 32 -5 49q0 97 70 147q17 12 56 35.5t56 38.5t17 32q0 15 -13 24.5t-32 9.5q-35 0 -71 -45l-83 71q24 40 68.5 64.5t94.5 24.5q64 0 113 -37q50 -36 50 -106q0 -44 -26 -81t-63 -56q-91 -44 -96 -63h191v-108z" />
    <glyph glyph-name="three.denominator" horiz-adv-x="400" 
d="M187 -10q-101 0 -160 68l61 90q34 -43 91 -43q24 0 39 12t15 30q0 36 -62 36h-37l-24 57l62 69l24 23v2q-28 -2 -34 -2h-110v109h294v-79l-83 -91q97 -24 97 -126q0 -63 -46 -109t-127 -46z" />
    <glyph glyph-name="four.denominator" horiz-adv-x="400" 
d="M330 0h-124v87h-197v84l171 270h150v-247h53v-107h-53v-87zM128 196v-2h78v90l4 50h-2q-9 -26 -21 -46z" />
    <glyph glyph-name="five.denominator" horiz-adv-x="400" 
d="M193 -10q-98 0 -163 65l63 93q15 -18 40.5 -30.5t49.5 -12.5q23 0 40 13t17 33q0 21 -17 34t-44 13q-39 0 -65 -13l-65 24l20 232h266v-109h-164l-2 -23l-3 -16l2 -1q15 4 43 4q69 0 112 -43q44 -42 44 -103q0 -63 -47 -112q-46 -48 -127 -48z" />
    <glyph glyph-name="six.denominator" horiz-adv-x="400" 
d="M214 -10q-75 0 -129 54t-54 155q0 99 57 175q59 77 156 77q61 0 106 -24l-32 -108q-29 16 -66 16q-58 0 -76 -52h2q18 6 37 6q73 0 115 -41t42 -105q0 -62 -43 -108q-43 -45 -115 -45zM214 105q15 0 24 11.5t9 27.5q0 25 -14 41.5t-40 16.5q-34 0 -34 -19q0 -34 16.5 -56
t38.5 -22z" />
    <glyph glyph-name="seven.denominator" horiz-adv-x="400" 
d="M176 0h-137l176 308l16 24v2q-22 -2 -30 -2h-161v109h334v-85z" />
    <glyph glyph-name="eight.denominator" horiz-adv-x="400" 
d="M201 -10q-71 0 -123 36q-52 37 -52 103q0 54 64 106q-43 36 -43 88q0 61 45 94q46 34 110 34q62 0 111 -35q48 -35 48 -94q0 -47 -49 -100q59 -38 59 -99q0 -62 -51 -98q-50 -35 -119 -35zM228 261q17 28 17 53q0 14 -13 22.5t-30 8.5q-35 0 -35 -28q0 -31 61 -56z
M200 96q19 0 32 9.5t13 24.5q0 12 -12 23q-15 15 -63 37q-23 -26 -23 -53q0 -18 15.5 -29.5t37.5 -11.5z" />
    <glyph glyph-name="nine.denominator" horiz-adv-x="400" 
d="M49 14l32 108q42 -16 66 -16q58 0 76 52h-2q-18 -6 -37 -6q-73 0 -115 42q-42 44 -42 105q0 62 43 106q43 46 115 46q75 0 129 -54t54 -155q0 -100 -58 -176q-57 -76 -155 -76q-62 0 -106 24zM206 239q34 0 34 19q0 34 -16.5 56t-38.5 22q-15 0 -24 -11t-9 -27
q0 -25 14 -42t40 -17z" />
    <glyph glyph-name="uni0433.BUL" horiz-adv-x="468" 
d="M28 138q0 43 24 78.5t61 55.5q23 13 67.5 33t66.5 33.5t22 27.5q0 21 -40 21q-75 0 -133 -42l-59 123q86 59 201 59q88 0 140 -39.5t52 -110.5q0 -47 -25 -83t-60 -56.5t-70.5 -35.5t-60.5 -28t-25 -25q0 -21 45 -21q35 0 74 15t63 37l74 -116q-88 -76 -216 -76
q-94 0 -147.5 41.5t-53.5 108.5z" />
    <glyph glyph-name="uni0434.BUL" horiz-adv-x="625" 
d="M81 -164l49 131q68 -33 145 -33q119 0 119 99v17l1 19h-2q-45 -54 -129 -54q-110 0 -171 76t-61 183q0 106 60 179q60 74 171 74q90 0 140 -50h3q-1 4 -1 12v26h162v-468q0 -68 -25 -119t-67.5 -80.5t-92.5 -43.5t-106 -14q-107 0 -195 46zM206 280q0 -54 26 -87.5
t73 -33.5q93 0 93 113q0 111 -100 111q-43 0 -67.5 -28t-24.5 -75z" />
    <glyph glyph-name="uni0436.BUL" horiz-adv-x="836" 
d="M194 0h-187l145 266v2l-134 247h178l95 -183h46v383h161v-383h47l95 183h178l-134 -247v-2l145 -266h-187l-92 187h-52v-187h-161v187h-51z" />
    <glyph glyph-name="uni0438.BUL" horiz-adv-x="621" 
d="M53 181v334h173v-302q0 -68 55 -68q52 0 80.5 39.5t28.5 102.5v228h173v-515h-166v45l2 32h-2q-21 -41 -65 -65t-96 -24q-183 0 -183 193z" />
    <glyph glyph-name="uni0439.BUL" horiz-adv-x="621" 
d="M53 181v334h173v-302q0 -68 55 -68q52 0 80.5 39.5t28.5 102.5v228h173v-515h-166v45l2 32h-2q-21 -41 -65 -65t-96 -24q-183 0 -183 193zM307 551q-79 0 -135 41q-55 40 -55 112v11h128v-12q0 -28 18 -43.5t44 -15.5t44 15.5t18 43.5v12h127v-11q0 -72 -55 -112
q-56 -41 -134 -41z" />
    <glyph glyph-name="uni043A.BUL" horiz-adv-x="591" 
d="M231 0h-173v715h173v-370h49l102 170h188l-151 -234v-2l172 -279h-197l-109 200h-54v-200z" />
    <glyph glyph-name="uni043B.BUL" horiz-adv-x="567" 
d="M180 0h-182l178 515h211l175 -515h-183l-79 274l-19 89h-2q-10 -60 -19 -89z" />
    <glyph glyph-name="uni043F.BUL" horiz-adv-x="626" 
d="M231 0h-173v515h166v-45l-2 -32h2q53 89 164 89q185 0 185 -193v-334h-173v302q0 68 -57 68q-53 0 -82.5 -38t-29.5 -99v-233z" />
    <glyph glyph-name="uni0442.BUL" horiz-adv-x="909" 
d="M231 0h-173v515h166v-45l-2 -32h2q59 89 153 89q103 0 144 -87h2q23 37 68 62t97 25q79 0 123 -47.5t44 -145.5v-334h-173v305q0 65 -40 65q-50 0 -74.5 -41.5t-24.5 -110.5v-218h-173v305q0 65 -40 65q-51 0 -75 -41.5t-24 -110.5v-218z" />
    <glyph glyph-name="uni0446.BUL" horiz-adv-x="670" 
d="M53 181v334h173v-302q0 -68 55 -68q52 0 80.5 39.5t28.5 102.5v228h173v-370h86v-265h-153v120h-99v45l2 32h-2q-21 -41 -65 -65t-96 -24q-183 0 -183 193z" />
    <glyph glyph-name="uni0448.BUL" horiz-adv-x="908" 
d="M677 515h173v-515h-166v45l2 32h-2q-59 -89 -153 -89q-103 0 -144 87h-2q-23 -37 -68 -62t-97 -25q-79 0 -123 47.5t-44 145.5v334h173v-305q0 -65 40 -65q50 0 74.5 41.5t24.5 110.5v218h173v-305q0 -65 40 -65q51 0 75 41.5t24 110.5v218z" />
    <glyph glyph-name="uni0449.BUL" horiz-adv-x="948" 
d="M677 515h173v-370h76v-265h-153v120h-89v45l2 32h-2q-59 -89 -153 -89q-103 0 -144 87h-2q-23 -37 -68 -62t-97 -25q-79 0 -123 47.5t-44 145.5v334h173v-305q0 -65 40 -65q50 0 74.5 41.5t24.5 110.5v218h173v-305q0 -65 40 -65q51 0 75 41.5t24 110.5v218z" />
    <glyph glyph-name="uni044A.BUL" horiz-adv-x="604" 
d="M113 198v172h-94v145h267v-121q0 -26 -1 -35h2q50 26 112 26q82 0 134 -55q53 -56 53 -140q0 -97 -63.5 -149.5t-171.5 -52.5q-238 0 -238 210zM285 189q0 -33 17.5 -54t48.5 -21q63 0 63 70q0 69 -67 69q-30 0 -46 -17t-16 -47z" />
    <glyph glyph-name="uni044C.BUL" horiz-adv-x="544" 
d="M53 198v317h173v-121q0 -26 -1 -35h2q50 26 112 26q82 0 134 -55q53 -56 53 -140q0 -97 -63.5 -149.5t-171.5 -52.5q-238 0 -238 210zM225 189q0 -33 17.5 -54t48.5 -21q63 0 63 70q0 69 -67 69q-30 0 -46 -17t-16 -47z" />
    <glyph glyph-name="uni044E.BUL" horiz-adv-x="887" 
d="M231 0h-173v715h173v-386h72q23 92 95 144q74 54 175 54q123 0 203 -76q82 -75 82 -195q0 -119 -81 -194q-82 -74 -203 -74q-105 0 -179 55q-75 56 -94 149h-70v-192zM465 256q0 -56 30.5 -90t78.5 -34t78.5 34t30.5 90q0 57 -30.5 92t-78.5 35t-78.5 -35t-30.5 -92z" />
    <glyph glyph-name="uni0432.BUL" horiz-adv-x="621" 
d="M48 250v186q0 132 75 212q76 79 201 79q105 0 158 -50q52 -49 52 -110q0 -84 -94 -144v-2q67 -11 110 -62t43 -125q0 -114 -79 -180q-78 -66 -197 -66q-62 0 -111 19t-78 47t-47.5 65t-25.5 69t-7 62zM221 506v-79h2q16 18 52 39l25 14q63 28 63 74q0 22 -15.5 37.5
t-45.5 15.5q-34 0 -57.5 -25t-23.5 -76zM218 229q0 -50 26.5 -76t70.5 -26q47 0 74.5 26t27.5 76q0 94 -102 94q-41 0 -69 -24t-28 -70z" />
    <glyph glyph-name="uni0437.BUL" horiz-adv-x="467" 
d="M-18 -157l68 130q46 -37 111 -37q49 0 75 25t26 64q0 81 -91 81h-77v135h79q34 0 58 19.5t24 53.5q0 33 -23 51.5t-62 18.5q-26 0 -54.5 -10.5t-44.5 -26.5l-74 106q83 74 206 74q101 0 162 -52q62 -51 62 -132q0 -111 -105 -159v-2q113 -50 113 -169q0 -94 -70 -158
q-70 -65 -188 -65q-50 0 -107 15q-56 15 -88 38z" />
    <glyph glyph-name="uni0414.ALT" horiz-adv-x="749" 
d="M7 -140v290h75l200 565h182l199 -565h79v-290h-155v140h-425v-140h-155zM345 407l-80 -257h217l-81 257q-17 56 -23 96l-4 19h-2q-13 -69 -27 -115z" />
    <glyph glyph-name="uni041B.ALT" horiz-adv-x="678" 
d="M185 0h-190l253 715h182l252 -715h-187l-128 407q-16 55 -23 97l-4 18h-2q-13 -69 -27 -115z" />
    <glyph glyph-name="uni0434.ALT" horiz-adv-x="657" 
d="M12 -120v257h68l137 378h221l135 -378h71v-257h-154v120h-324v-120h-154zM302 294l-52 -157h151l-51 157l-23 89h-2q-11 -52 -23 -89z" />
    <glyph glyph-name="uni043B.ALT" horiz-adv-x="567" 
d="M180 0h-182l178 515h211l175 -515h-183l-79 274l-19 89h-2q-10 -60 -19 -89z" />
    <glyph glyph-name="uni0409.ALT" horiz-adv-x="950" 
d="M175 0h-179l250 715h333v-261h122q104 0 168 -64q65 -65 65 -164q0 -100 -65 -163t-168 -63h-297v565h-39zM579 304v-154h89q42 0 65 20t23 56t-23.5 57t-67.5 21h-86z" />
    <glyph glyph-name="uni0459.ALT" horiz-adv-x="826" 
d="M166 0h-167l208 515h319v-177h80q102 0 153 -45t51 -127q0 -80 -51 -123t-153 -43h-253v390h-38zM526 224v-111h56q30 0 46.5 14.5t16.5 38.5q0 27 -17 42.5t-49 15.5h-53z" />
    <glyph glyph-name="uni04C5.ALT" horiz-adv-x="796" 
d="M623 0h-128l-128 407q-16 55 -23 97l-4 18h-2q-13 -69 -27 -115l-126 -407h-190l253 715h182l199 -565h167v-91l-89 -199h-117z" />
    <glyph glyph-name="uni04C6.ALT" horiz-adv-x="653" 
d="M495 0h-116l-79 274l-19 89h-2q-10 -60 -19 -89l-80 -274h-182l178 515h211l125 -370h145v-86l-79 -179h-111z" />
    </font>
</defs>
</svg>
