<?xml version="1.0" standalone="no"?>
<!DOCTYPE svg PUBLIC "-//W3C//DTD SVG 1.1//EN" "http://www.w3.org/Graphics/SVG/1.1/DTD/svg11.dtd" >
<svg>
<metadata>
Created by FontForge 20090622 at Tue Aug 21 12:20:57 2018
 By deploy user
Copyright (c) 2001-2005 Peter Bilak (www.typotheque.com). All rights reserved.
</metadata>
<defs>
<font id="FedraSansPro-Bold" horiz-adv-x="559" >
  <font-face 
    font-family="Fedra Sans Pro Bold"
    font-weight="700"
    font-stretch="normal"
    units-per-em="1000"
    panose-1="2 11 8 4 4 0 0 2 0 4"
    ascent="780"
    descent="-220"
    x-height="546"
    cap-height="707"
    bbox="-466 -293 1527 998"
    underline-thickness="50"
    underline-position="-50"
    unicode-range="U+0020-U+FB04"
  />
<missing-glyph horiz-adv-x="1000" 
 />
    <glyph glyph-name="f_k" unicode="fk" horiz-adv-x="966" 
d="M934 -12q-79 4 -131.5 24t-100.5 83l-98 129v-224h-167v635q-18 0 -56 2.5t-69 2.5t-45 -13.5t-14 -51.5v-29h116v-112h-117v-624h-166v624h-80v112h80v29q0 110 64 160t164 50q24 0 62.5 -3t56.5 -3q73 -1 171 11v-449l152 204h179l-199 -251l78 -89q33 -37 62 -58
t77 -33z" />
    <glyph glyph-name="f_h" unicode="fh" horiz-adv-x="1034" 
d="M86 -189v623h-80v112h80v29q0 110 64 160t164 50q24 0 62.5 -3t56.5 -3q71 -1 171 11v-299q94 71 179 71q50 0 84.5 -11.5t53.5 -29t29.5 -48.5t13 -58.5t2.5 -71.5v-343h-166v329q0 55 -15 71.5t-58 16.5q-61 0 -123 -30v-387h-167v635q-18 0 -56 2.5t-69 2.5t-45 -13.5
t-14 -51.5v-29h116v-112h-117v-623h-166z" />
    <glyph glyph-name="f_j" unicode="fj" horiz-adv-x="679" 
d="M377 -220q-33 0 -108 18l31 133q47 -10 79 -10q33 0 46 16t13 64v433h-186v-623h-166v623h-80v112h80v27q0 110 64 160t164 50q24 0 62.5 -3t56.5 -3q85 0 152 8l26 -126q-78 -26 -173 -26q-18 0 -56.5 2.5t-69.5 2.5t-45 -13.5t-14 -51.5v-27h352v-544
q0 -69 -17.5 -114.5t-51 -68t-70.5 -31t-89 -8.5z" />
    <glyph glyph-name="f_f_j" unicode="ffj" horiz-adv-x="1031" 
d="M735 -220q-57 0 -109 19l31 129q42 -7 73 -7q33 0 46 16t14 63v431h-185v-620h-167v620h-185v-620h-167v620h-80v115h81v28q0 208 220 208q122 0 213 -34q58 37 146 37q24 0 62.5 -3t57.5 -3q84 0 151 8l26 -126q-78 -26 -172 -26q-20 0 -59 2.5t-68 2.5q-31 0 -45 -13.5
t-14 -51.5v-29h352l-1 -546q0 -68 -18 -113.5t-51 -67.5t-68.5 -30.5t-83.5 -8.5zM253 546h186v29q0 32 4 53q-55 12 -131 12q-59 0 -59 -66v-28z" />
    <glyph glyph-name="aogonek_j" unicode="&#x105;j" horiz-adv-x="933" 
d="M509 -262q-82 0 -124 36.5t-42 86.5q0 82 84 139q-13 7 -26.5 23t-17.5 30q-79 -61 -157 -61q-91 0 -139.5 40.5t-48.5 121.5q0 161 234 161h95v47q0 34 -22 45t-77 11q-61 0 -163 -24l-33 121q117 44 221 44q43 0 70 -2t62 -11t55.5 -25.5t35 -48.5t14.5 -78v-249
q0 -13 12 -17.5t37 -5.5l-8 -127q-29 -19 -42.5 -29.5t-26 -27.5t-12.5 -35q0 -14 13 -23t33 -9q65 0 113.5 42t48.5 98v535h166v-534q0 -126 -99 -200t-256 -74zM246 122q60 0 121 17v79l-82 -2q-31 -1 -49.5 -5t-25 -13.5t-8 -15.5t-1.5 -19q0 -41 45 -41zM779 604
l-111 112l111 111l112 -111z" />
    <glyph glyph-name="f_f" unicode="ff" horiz-adv-x="738" 
d="M86 -189v621h-80v114h81v28q0 208 220 208q111 0 206 -31q50 31 146 31q66 0 129 -21l-32 -129q-45 8 -92 8q-59 0 -59 -66v-28h117v-114h-117v-621h-167v621h-185v-621h-167zM253 546h185v38q0 24 3 45q-55 11 -129 11q-59 0 -59 -66v-28z" />
    <glyph glyph-name="fi" unicode="fi" horiz-adv-x="679" 
d="M86 -189v620h-80v115h80v26q0 110 64 160t164 50q24 0 62.5 -3t56.5 -3q85 0 152 8l26 -126q-78 -26 -173 -26q-18 0 -56.5 2.5t-69.5 2.5t-45 -13.5t-14 -51.5v-26h351v-545h-167v430h-185v-620h-166z" />
    <glyph glyph-name="fl" unicode="fl" horiz-adv-x="679" 
d="M86 -190v621h-80v115h80v26q0 110 64 160t164 50q24 0 62.5 -3t56.5 -3q71 -1 171 11v-787h-167v632q-18 0 -56 2.5t-69 2.5t-45 -13.5t-14 -51.5v-26h116v-115h-117v-621h-166z" />
    <glyph glyph-name="f_f_i" unicode="ffi" horiz-adv-x="1031" 
d="M86 -189v620h-80v115h81v28q0 208 220 208q122 0 213 -34q58 37 146 37q24 0 62.5 -3t57.5 -3q84 0 151 8l26 -126q-78 -26 -172 -26q-20 0 -59 2.5t-68 2.5q-31 0 -45 -13.5t-14 -51.5v-29h352v-546h-167v431h-185v-620h-167v620h-185v-620h-167zM253 546h186v29
q0 32 4 53q-55 12 -131 12q-59 0 -59 -66v-28z" />
    <glyph glyph-name="f_f_l" unicode="ffl" horiz-adv-x="1025" 
d="M86 -190v622h-80v114h81v28q0 208 220 208q122 0 213 -34q58 37 146 37q24 0 62.5 -3t57.5 -3q71 -1 171 11v-790h-167v635q-18 0 -56.5 2.5t-69.5 2.5t-45 -13.5t-14 -51.5v-29h116v-114h-116v-622h-167v622h-185v-622h-167zM253 546h186v29q0 32 4 53q-55 12 -131 12
q-59 0 -59 -66v-28z" />
    <glyph glyph-name=".notdef" horiz-adv-x="1000" 
 />
    <glyph glyph-name=".null" horiz-adv-x="0" 
 />
    <glyph glyph-name="nonmarkingreturn" horiz-adv-x="333" 
 />
    <glyph glyph-name="space" unicode=" " horiz-adv-x="250" 
 />
    <glyph glyph-name="exclam" unicode="!" horiz-adv-x="324" 
d="M89 220l-10 193v294h167v-294l-10 -193h-147zM78 0v147h168v-147h-168z" />
    <glyph glyph-name="quotedbl" unicode="&#x22;" horiz-adv-x="477" 
d="M59 515l-11 240h160l-11 -240h-138zM280 515l-11 239h160l-11 -239h-138z" />
    <glyph glyph-name="numbersign" unicode="#" horiz-adv-x="660" 
d="M96 0l6 103h-85v128h94l5 88h-99v129h110l7 119h155l-8 -119h115l7 119h155l-8 -119h82v-129h-91l-6 -88h97v-128h-105l-6 -103h-155l6 103h-115l-6 -103h-155zM265 231h116l5 88h-115z" />
    <glyph glyph-name="dollar" unicode="$" horiz-adv-x="554" 
d="M219 -99l2 91q-110 1 -182 34l43 118q87 -26 170 -26q95 0 95 39q0 7 -3.5 13t-10.5 11t-15 9t-21 9t-23 8l-27 8t-28 9q-75 25 -120 63.5t-45 109.5q0 62 47 98.5t120 48.5l-2 116h116l-2 -111q73 -3 154 -32l-35 -113q-85 21 -159 21q-67 0 -67 -28q0 -12 14.5 -23
t33.5 -19t50 -19q8 -3 12 -4q41 -14 66.5 -26t57.5 -32t48 -48t16 -64q0 -70 -53.5 -111t-137.5 -54l3 -96h-117z" />
    <glyph glyph-name="percent" unicode="%" horiz-adv-x="861" 
d="M217 352q-81 0 -134 43t-53 133q0 85 55.5 135.5t134.5 50.5q82 0 136.5 -43t54.5 -136q0 -86 -56 -134.5t-138 -48.5zM217 466q24 0 39.5 17t15.5 52q0 65 -52 65q-51 0 -51 -72q0 -35 12 -48.5t36 -13.5zM637 -11q-81 0 -134 42.5t-53 132.5q0 85 55.5 135.5
t134.5 50.5q82 0 136.5 -43t54.5 -136q0 -85 -56 -133.5t-138 -48.5zM637 103q24 0 39.5 16.5t15.5 51.5q0 65 -52 65q-51 0 -51 -72q0 -35 12 -48t36 -13zM178 37l-87 90l582 531l87 -90z" />
    <glyph glyph-name="ampersand" unicode="&#x26;" horiz-adv-x="725" 
d="M275 -10q-237 0 -237 194q0 101 134 183q-45 98 -45 164q0 68 50 126.5t150 58.5q101 0 154 -48.5t53 -117.5q0 -37 -13.5 -67t-45.5 -56.5t-57 -42t-76 -43.5q61 -85 165 -143t216 -76l-18 -129q-137 6 -255 68q-76 -71 -175 -71zM276 123q28 0 59 14q-56 43 -104 113
q-31 -34 -31 -59q0 -28 20.5 -48t55.5 -20zM288 444q77 45 95 66q12 15 12 28q0 25 -18 41.5t-47 16.5q-25 0 -42 -17t-17 -42q0 -36 17 -93z" />
    <glyph glyph-name="quotesingle" unicode="'" horiz-adv-x="266" 
d="M59 515l-11 240h170l-11 -240h-148z" />
    <glyph glyph-name="parenleft" unicode="(" horiz-adv-x="402" 
d="M296 -225q-10 7 -27.5 20.5t-61.5 61t-78 102t-61.5 142.5t-27.5 183q0 70 14 134.5t37 112t50.5 88.5t55 68t50.5 46.5t37 28.5l14 8l104 -108q-8 -5 -21 -15t-46.5 -45.5t-59.5 -75.5t-47 -105.5t-21 -135.5q0 -52 10.5 -102.5t27.5 -89.5t38 -73.5t41.5 -59t37.5 -43
t28 -27.5l10 -8z" />
    <glyph glyph-name="parenright" unicode=")" horiz-adv-x="402" 
d="M106 -225l-104 107q8 6 21 17.5t46 51t58.5 83t46.5 112t21 139.5q0 70 -20 135t-48.5 107t-57.5 74t-49 47l-20 14l104 108l14.5 -9t36.5 -27.5t51 -46.5t54 -67.5t51.5 -89t36 -111.5t14.5 -135q0 -69 -14 -134.5t-36.5 -115t-50 -93t-55 -73t-50 -51.5t-36.5 -32z" />
    <glyph glyph-name="asterisk" unicode="*" horiz-adv-x="425" 
d="M91 445l-54 98l97 35l38 -67zM136 587l-99 39l55 98l83 -68zM164 403l15 99h85l13 -99h-113zM180 662l-13 99h113l-15 -99h-85zM355 440l-83 68l39 69l99 -39zM310 587l-38 67l81 66l54 -98z" />
    <glyph glyph-name="plus" unicode="+" horiz-adv-x="600" 
d="M237 45l1 199l-199 -2v126l199 -4l-1 201h126l-6 -204l206 7v-126l-203 2l3 -199h-126z" />
    <glyph glyph-name="comma" unicode="," horiz-adv-x="360" 
d="M64 -134q30 61 30 177v120h174v-78q0 -132 -59 -219h-145z" />
    <glyph glyph-name="hyphen" unicode="-" horiz-adv-x="374" 
d="M37 220v133h298v-133h-298z" />
    <glyph glyph-name="hyphen" unicode="&#xad;" horiz-adv-x="374" 
d="M37 220v133h298v-133h-298z" />
    <glyph glyph-name="period" unicode="." horiz-adv-x="360" 
d="M91 0v162h185v-162h-185z" />
    <glyph glyph-name="slash" unicode="/" horiz-adv-x="460" 
d="M40 -62l233 831h147l-233 -831h-147z" />
    <glyph glyph-name="zero" unicode="0" horiz-adv-x="682" 
d="M335 -12q-149 0 -220.5 69t-71.5 209q0 139 77.5 216.5t231.5 77.5q149 0 218 -73.5t69 -200.5q0 -149 -79.5 -223.5t-224.5 -74.5zM340 125q59 0 94.5 39.5t35.5 116.5q0 142 -124 142q-66 0 -100 -40t-34 -114t35.5 -109t92.5 -35z" />
    <glyph glyph-name="one" unicode="1" horiz-adv-x="407" 
d="M160 0v418h-142v131l309 9v-558h-167z" />
    <glyph glyph-name="two" unicode="2" horiz-adv-x="566" 
d="M45 0v137q6 4 93.5 58.5t137 97t49.5 72.5q0 60 -99 60q-65 0 -134 -26l-38 120q27 15 79.5 28t99.5 13q74 0 127 -16.5t79.5 -46t37.5 -60.5t11 -69q0 -43 -24.5 -82t-64.5 -69t-74.5 -49t-72.5 -35h264v-133h-471z" />
    <glyph glyph-name="three" unicode="3" horiz-adv-x="516" 
d="M197 -170q-57 0 -105 7t-67 14l-19 7l30 134q86 -22 151 -22q61 0 89 18.5t28 60.5q0 51 -29 72t-105 28q-13 1 -43 1v113q6 0 17.5 0.5t17.5 1.5q62 5 86.5 24t24.5 64q0 36 -30 52t-76 16q-60 0 -102 -19l-38 117q81 39 175 39q100 0 167.5 -46.5t67.5 -135.5
q0 -65 -26 -99t-67 -55q129 -52 129 -175q0 -59 -23 -102.5t-63.5 -67.5t-87.5 -35.5t-102 -11.5z" />
    <glyph glyph-name="four" unicode="4" horiz-adv-x="620" 
d="M322 -163v193h-314v107l230 408h250v-383h94v-132h-94v-193h-166zM162 162h160v293z" />
    <glyph glyph-name="five" unicode="5" horiz-adv-x="561" 
d="M250 -174q-131 0 -204 26l40 133q84 -20 163 -20q53 0 83.5 25t30.5 64q0 96 -115 96q-78 0 -177 -9v403h421v-132h-260v-135q18 1 47 1q117 0 184 -55.5t67 -158.5q0 -111 -78.5 -174.5t-201.5 -63.5z" />
    <glyph glyph-name="six" unicode="6" horiz-adv-x="622" 
d="M312 -12q-281 0 -281 319q0 200 91.5 303.5t252.5 103.5q90 0 154 -24l-37 -128q-54 14 -119 14q-123 0 -159 -127q51 16 108 16q257 0 257 -226q0 -116 -77.5 -183.5t-189.5 -67.5zM307 339q-54 0 -109 -17v-21q0 -103 26.5 -141t94.5 -38q42 0 67.5 29.5t25.5 77.5
q0 110 -105 110z" />
    <glyph glyph-name="seven" unicode="7" horiz-adv-x="521" 
d="M178 -191l-146 47l292 540h-308v148h477v-109z" />
    <glyph glyph-name="eight" unicode="8" horiz-adv-x="613" 
d="M303 -12q-119 0 -192 46t-73 144q0 121 130 192q-105 69 -105 162q0 94 68.5 138t181.5 44q108 0 175 -48.5t67 -122.5q0 -99 -126 -171q68 -36 107 -78t39 -103q0 -102 -74.5 -152.5t-197.5 -50.5zM309 111q55 0 77.5 26.5t22.5 63.5q0 28 -28.5 51.5t-86.5 53.5
q-95 -51 -95 -105q0 -36 24 -63t86 -27zM303 429q42 20 63.5 40.5t21.5 48.5q0 74 -77 74q-86 0 -86 -75q0 -46 78 -88z" />
    <glyph glyph-name="nine" unicode="9" horiz-adv-x="622" 
d="M247 -166q-90 0 -154 24l37 128q54 -14 119 -14q125 0 160 137q-51 -16 -109 -16q-125 0 -191 51t-66 169q0 116 77 181.5t190 65.5q281 0 281 -319q0 -200 -91.5 -303.5t-252.5 -103.5zM315 219q57 0 109 16v18q0 102 -26 137.5t-95 35.5q-42 0 -67.5 -27.5t-25.5 -75.5
q0 -57 27 -80.5t78 -23.5z" />
    <glyph glyph-name="colon" unicode=":" horiz-adv-x="360" 
d="M85 0v162h185v-162h-185zM85 384v162h185v-162h-185z" />
    <glyph glyph-name="semicolon" unicode=";" horiz-adv-x="360" 
d="M54 -134q35 64 35 147v150h184v-108q0 -107 -69 -189h-150zM89 384v162h185v-162h-185z" />
    <glyph glyph-name="less" unicode="&#x3c;" horiz-adv-x="600" 
d="M512 47l-424 191v131l424 201v-139l-285 -128l285 -117v-139z" />
    <glyph glyph-name="equal" unicode="=" horiz-adv-x="600" 
d="M69 113l-2 126h454l2 -126h-454zM69 364l-2 126h454l2 -126h-454z" />
    <glyph glyph-name="greater" unicode="&#x3e;" horiz-adv-x="600" 
d="M88 47v139l285 117l-285 128v139l424 -201v-131z" />
    <glyph glyph-name="question" unicode="?" horiz-adv-x="415" 
d="M93 185q-20 44 -20 89q0 42 20.5 80.5t44.5 60.5t44.5 44t20.5 35q0 24 -8.5 37t-43.5 25t-103 17l30 137q67 -5 116.5 -16t93 -33.5t66.5 -63.5t23 -98q0 -43 -25 -82t-54.5 -63t-54.5 -49t-25 -43q0 -32 9 -55zM90 0v147h167v-147h-167z" />
    <glyph glyph-name="at" unicode="@" horiz-adv-x="798" 
d="M370 -74q-183 0 -269 78.5t-86 263.5q0 95 24 171.5t65.5 127.5t100 85.5t124.5 49.5t142 15q141 0 219.5 -74.5t78.5 -225.5q0 -128 -70 -203.5t-182 -75.5q-44 0 -72 16t-32 38q-13 -20 -38 -35.5t-46 -15.5q-60 0 -91 31t-31 111q0 88 57.5 148.5t153.5 60.5
q75 0 145 -26l-20 -169q-6 -36 21 -36q22 0 45.5 43.5t23.5 114.5q0 95 -42.5 137t-127.5 42q-62 0 -116 -18.5t-98.5 -56t-70 -102t-25.5 -149.5q0 -221 226 -221q60 0 171 13l15 -111q-101 -27 -195 -27zM370 256q12 0 18 1t11.5 4t8.5 4l18 132h-5q-30 0 -51 -27.5
t-21 -73.5q0 -40 21 -40z" />
    <glyph glyph-name="A" unicode="A" horiz-adv-x="751" 
d="M11 0l272 707h219l238 -707h-176l-67 207h-239l-77 -207h-170zM303 330h154l-71 272z" />
    <glyph glyph-name="B" unicode="B" horiz-adv-x="678" 
d="M78 0v707h248q263 0 263 -195q0 -41 -20.5 -74t-50.5 -52v-2q46 -16 84 -58.5t38 -107.5q0 -218 -284 -218h-278zM249 133h86q135 0 135 81q0 47 -35.5 67t-111.5 20h-74v-168zM249 417h61q59 0 85 15.5t26 60.5q0 44 -29.5 64t-90.5 20h-52v-160z" />
    <glyph glyph-name="C" unicode="C" horiz-adv-x="686" 
d="M435 -10q-193 0 -292.5 92t-99.5 267q0 368 388 368q125 0 220 -43l-45 -123q-56 15 -87 20t-86 6q-99 2 -158 -54t-59 -164q0 -109 64 -168t173 -59q87 0 164 20l36 -128q-92 -34 -218 -34z" />
    <glyph glyph-name="D" unicode="D" horiz-adv-x="787" 
d="M78 0v707h253q192 0 302.5 -86.5t110.5 -264.5q0 -180 -105.5 -268t-301.5 -88h-259zM247 133h101q119 0 172.5 53t53.5 160q0 115 -60 171.5t-186 56.5h-81v-441z" />
    <glyph glyph-name="E" unicode="E" horiz-adv-x="613" 
d="M78 0v707h464v-133h-294v-157h272v-124h-272v-160h317v-133h-487z" />
    <glyph glyph-name="F" unicode="F" horiz-adv-x="610" 
d="M78 0v707h494v-133h-324v-175h302v-123h-302v-276h-170z" />
    <glyph glyph-name="G" unicode="G" horiz-adv-x="734" 
d="M431 -10q-182 0 -285 90t-103 269q0 189 100 278.5t296 89.5q107 0 212 -43l-45 -123l-60.5 15t-45.5 7.5t-64 3.5q-101 0 -160.5 -53t-59.5 -165t65 -169.5t168 -57.5q8 0 23 0.5t22 0.5v217h170v-319q-106 -41 -233 -41z" />
    <glyph glyph-name="H" unicode="H" horiz-adv-x="796" 
d="M78 0v707h170v-287h300v287h170v-707h-170v291h-300v-291h-170z" />
    <glyph glyph-name="I" unicode="I" horiz-adv-x="326" 
d="M78 0v707h170v-707h-170z" />
    <glyph glyph-name="J" unicode="J" horiz-adv-x="326" 
d="M-6 -198l-61 122q89 49 117 93.5t28 133.5v556h171v-554q0 -49 -4 -84.5t-18.5 -78t-41.5 -74t-75 -62t-116 -52.5z" />
    <glyph glyph-name="K" unicode="K" horiz-adv-x="731" 
d="M78 0v707h170v-303l242 303h217l-286 -331l302 -376h-217l-258 355v-355h-170z" />
    <glyph glyph-name="L" unicode="L" horiz-adv-x="573" 
d="M78 0v707h170v-573h307v-134h-477z" />
    <glyph glyph-name="M" unicode="M" horiz-adv-x="983" 
d="M78 0v707h207l197 -555l226 555h197v-707h-170v263l5 166l-168 -429h-190l-145 441l11 -178v-263h-170z" />
    <glyph glyph-name="N" unicode="N" horiz-adv-x="796" 
d="M78 0v707h197l278 -485l-5 79v406h170v-707h-203l-271 473l4 -94v-379h-170z" />
    <glyph glyph-name="O" unicode="O" horiz-adv-x="843" 
d="M413 -12q-183 0 -276.5 96.5t-93.5 270.5q0 168 104.5 265.5t284.5 97.5q185 0 276.5 -99t91.5 -266q0 -171 -100 -268t-287 -97zM416 122q111 0 161 62.5t50 169.5q0 105 -50.5 167.5t-153.5 62.5q-107 0 -157.5 -62t-50.5 -166t49.5 -169t151.5 -65z" />
    <glyph glyph-name="P" unicode="P" horiz-adv-x="644" 
d="M78 0v707h275q122 0 197.5 -67.5t75.5 -183.5q0 -109 -86.5 -182.5t-238.5 -73.5h-52v-200h-171zM249 574v-243h58q75 0 109.5 33.5t34.5 87.5q0 122 -120 122h-82z" />
    <glyph glyph-name="Q" unicode="Q" horiz-adv-x="843" 
d="M789 -192q-149 0 -196 12q-11 2 -40.5 9t-40.5 9t-32.5 5.5t-39 5t-35.5 1.5v117q52 0 91 -4.5t83.5 -15t51.5 -11.5q55 -10 158 -10v-118zM413 -12q-183 0 -276.5 96.5t-93.5 270.5q0 168 104.5 265.5t284.5 97.5q185 0 276.5 -99t91.5 -266q0 -171 -100 -268t-287 -97z
M416 122q111 0 161 62.5t50 169.5q0 105 -50.5 167.5t-153.5 62.5q-107 0 -157.5 -62t-50.5 -166t49.5 -169t151.5 -65z" />
    <glyph glyph-name="R" unicode="R" horiz-adv-x="752" 
d="M706 -13q-94 5 -157 46t-130 119l-80 93q-12 -1 -38 -1h-52v-244h-171v707h275q125 0 199 -58.5t74 -172.5q0 -126 -114 -191l72 -78q59 -64 160 -90zM249 363h58q144 0 144 109q0 54 -26.5 77.5t-93.5 23.5h-82v-210z" />
    <glyph glyph-name="S" unicode="S" horiz-adv-x="597" 
d="M265 -11q-146 0 -237 50l48 122q92 -32 187 -32q124 0 124 69q0 26 -25 47t-62 34.5t-81 34t-81 43.5t-62 66t-25 99q0 95 75 145t179 50q52 0 96.5 -8t66 -16t58.5 -24l-49 -118q-101 29 -167 29q-93 0 -93 -57q0 -22 25.5 -41t63.5 -33.5t82 -36t82 -46.5t63.5 -67
t25.5 -95q0 -56 -25 -98.5t-67.5 -67.5t-93.5 -37t-108 -12z" />
    <glyph glyph-name="T" unicode="T" horiz-adv-x="630" 
d="M230 0v574h-222v133h614v-133h-222v-574h-170z" />
    <glyph glyph-name="U" unicode="U" horiz-adv-x="799" 
d="M402 -13q-65 0 -121 15.5t-104 48.5t-76 94t-28 143v419h172v-413q0 -168 157 -168t157 189v392h167v-395q0 -89 -28 -154.5t-75.5 -101.5t-102.5 -52.5t-118 -16.5z" />
    <glyph glyph-name="V" unicode="V" horiz-adv-x="741" 
d="M244 0l-241 707h179l175 -580l208 580h173l-275 -707h-219z" />
    <glyph glyph-name="W" unicode="W" horiz-adv-x="1061" 
d="M166 0l-152 707h165l110 -599l164 427l-60 172h169l185 -593l138 593h162l-194 -707h-214l-122 362l-132 -362h-219z" />
    <glyph glyph-name="X" unicode="X" horiz-adv-x="695" 
d="M8 0l253 362l-225 345h195l128 -217l138 217h190l-238 -342l238 -365h-196l-141 238l-152 -238h-190z" />
    <glyph glyph-name="Y" unicode="Y" horiz-adv-x="709" 
d="M261 0v227l-261 480h196l156 -337l166 337h191l-278 -474v-233h-170z" />
    <glyph glyph-name="Z" unicode="Z" horiz-adv-x="611" 
d="M28 0v114l325 452h-299v141h508v-108l-329 -458h350v-141h-555z" />
    <glyph glyph-name="bracketleft" unicode="[" horiz-adv-x="363" 
d="M63 -220v974h267v-138h-100v-698h100v-138h-267z" />
    <glyph glyph-name="backslash" unicode="\" horiz-adv-x="460" 
d="M273 -62l-233 831h147l233 -831h-147z" />
    <glyph glyph-name="bracketright" unicode="]" horiz-adv-x="363" 
d="M63 -220v138h100v698h-100v138h267v-974h-267z" />
    <glyph glyph-name="asciicircum" unicode="^" horiz-adv-x="558" 
d="M23 294l172 413h182l161 -413h-158l-96 286l-106 -286h-155z" />
    <glyph glyph-name="underscore" unicode="_" horiz-adv-x="516" 
d="M0 -199v133h516v-133h-516z" />
    <glyph glyph-name="grave" unicode="`" horiz-adv-x="584" 
d="M398 602l-244 104l54 117l238 -121z" />
    <glyph glyph-name="a" unicode="a" horiz-adv-x="627" 
d="M226 -9q-91 0 -139.5 42t-48.5 123q0 166 234 166h95v34q0 35 -23 48.5t-76 13.5q-61 0 -163 -24l-33 121q114 44 221 44q127 0 182 -39.5t55 -131.5v-243q0 -13 12 -17.5t37 -5.5l-6 -126q-13 -1 -39 -1q-132 0 -151 58q-80 -62 -157 -62zM261 120q38 0 106 19v86
l-82 -2q-85 -2 -85 -57q0 -22 18 -34t43 -12z" />
    <glyph glyph-name="b" unicode="b" horiz-adv-x="624" 
d="M301 -11q-123 0 -233 36v729h166v-211q62 19 111 19q129 0 195.5 -60.5t66.5 -199.5q0 -85 -25 -148t-69 -97.5t-97 -51t-115 -16.5zM315 438q-40 0 -81 -13v-295q52 -11 70 -11q62 0 97.5 51.5t35.5 130.5q0 77 -27.5 107t-94.5 30z" />
    <glyph glyph-name="c" unicode="c" horiz-adv-x="537" 
d="M356 -11q-172 0 -245 67.5t-73 221.5q0 128 80.5 205t218.5 77q103 0 174 -38l-43 -121q-60 23 -124 23q-135 0 -135 -148q0 -84 31 -119t125 -35q37 0 116 14l23 -127q-91 -20 -148 -20z" />
    <glyph glyph-name="d" unicode="d" horiz-adv-x="642" 
d="M283 -8q-36 0 -68 7t-65.5 27t-57.5 51.5t-39 84t-15 120.5q0 135 83 206.5t214 71.5q21 0 72 -6v200h167v-754h-167v39l-29 -21.5t-36 -16t-59 -9.5zM316 130q46 0 91 18v273q-40 7 -69 7q-134 0 -134 -149t112 -149z" />
    <glyph glyph-name="e" unicode="e" horiz-adv-x="596" 
d="M334 -12q-146 0 -221 61t-75 216q0 158 74 226t208 68q238 0 238 -277v-60h-354q-1 -59 39 -80.5t115 -21.5q31 0 156 22l25 -127q-91 -27 -205 -27zM209 329h178q2 51 -19.5 81.5t-61.5 30.5q-43 0 -69 -29.5t-28 -82.5z" />
    <glyph glyph-name="f" unicode="f" horiz-adv-x="386" 
d="M86 -190v621h-80v115h80v31q0 49 12 86t31.5 59t48.5 35.5t58.5 18.5t66.5 5q49 0 98 -15l-26 -131q-27 4 -64 4q-58 0 -58 -72v-21h117v-115h-117v-621h-167z" />
    <glyph glyph-name="g" unicode="g" horiz-adv-x="642" 
d="M302 -221q-104 0 -226 33l26 131q115 -24 178 -24q68 0 98 17t30 72v11q-40 -28 -89 -28q-45 0 -80.5 5t-75 22t-65.5 46t-43 81.5t-17 124.5q0 135 87 212.5t216 77.5q95 0 233 -28v-537q0 -57 -25 -100.5t-66.5 -68t-87 -36t-93.5 -11.5zM328 118q49 0 79 9v286
q-36 10 -67 10q-136 0 -136 -153q0 -84 32 -118t92 -34z" />
    <glyph glyph-name="h" unicode="h" horiz-adv-x="664" 
d="M68 0v754h167v-263q94 71 178 71q50 0 84.5 -11.5t53.5 -29t29.5 -48.5t13 -58.5t2.5 -71.5v-343h-166v329q0 55 -15 71.5t-58 16.5q-60 0 -122 -30v-387h-167z" />
    <glyph glyph-name="i" unicode="i" horiz-adv-x="303" 
d="M69 0v546h166v-546h-166zM151 604l-111 112l111 111l112 -111z" />
    <glyph glyph-name="j" unicode="j" horiz-adv-x="303" 
d="M14 -220q-65 0 -128 23l31 129q61 -11 92 -11q34 0 47 16.5t13 65.5v543h166v-544q0 -68 -17.5 -114t-50.5 -68.5t-68.5 -31t-84.5 -8.5zM149 604l-111 112l111 111l112 -111z" />
    <glyph glyph-name="k" unicode="k" horiz-adv-x="596" 
d="M68 0v754h167v-412l151 203h179l-199 -251l78 -89q33 -37 62 -58t77 -33l-19 -126q-79 4 -131.5 24t-100.5 83l-97 127v-222h-167z" />
    <glyph glyph-name="l" unicode="l" horiz-adv-x="303" 
d="M68 0v754h167v-754h-167z" />
    <glyph glyph-name="m" unicode="m" horiz-adv-x="996" 
d="M68 0v546h167v-55q92 70 177 70q117 0 153 -83q37 33 88 58t100 25q37 0 65.5 -8t47 -18.5t31 -31.5t18.5 -35.5t9 -42.5t3.5 -41t0.5 -42v-342h-167v328q0 50 -15 69t-54 19q-53 0 -113 -31q2 -14 2 -42v-343h-166v328q0 54 -14 70t-54 16q-61 0 -112 -27v-387h-167z
" />
    <glyph glyph-name="n" unicode="n" horiz-adv-x="664" 
d="M68 0v546h167v-55q91 69 178 69q50 0 84.5 -11.5t53.5 -28.5t29.5 -48t13 -59t2.5 -71v-342h-166v328q0 55 -15 71.5t-58 16.5q-62 0 -122 -29v-387h-167z" />
    <glyph glyph-name="o" unicode="o" horiz-adv-x="643" 
d="M315 -12q-133 0 -205 75t-72 205q0 135 77.5 213.5t208.5 78.5q142 0 211.5 -75t69.5 -212q0 -136 -80 -210.5t-210 -74.5zM323 121q64 0 88 38t24 114q0 74 -25 114.5t-89 40.5q-115 0 -115 -156q0 -75 26.5 -113t90.5 -38z" />
    <glyph glyph-name="p" unicode="p" horiz-adv-x="645" 
d="M68 -220v766h166v-39q21 18 59.5 35.5t72.5 17.5q118 0 179.5 -61.5t61.5 -200.5q0 -82 -25 -143.5t-69 -96.5t-97 -51.5t-115 -16.5q-15 0 -39 2t-28 2v-214h-166zM305 117q62 0 98 49t36 127q0 71 -29 99t-94 28q-37 0 -82 -15v-282q48 -6 71 -6z" />
    <glyph glyph-name="q" unicode="q" horiz-adv-x="642" 
d="M407 -220v240q-46 -28 -105 -28q-264 0 -264 288q0 135 83 207.5t214 72.5q81 0 128 -6t111 -23v-751h-167zM316 131q43 0 91 13v277q-40 7 -69 7q-134 0 -134 -151q0 -146 112 -146z" />
    <glyph glyph-name="r" unicode="r" horiz-adv-x="441" 
d="M68 0v546h167v-73q65 84 141 84q45 0 75 -9l-22 -137q-32 6 -73 6q-35 0 -69.5 -14t-51.5 -33v-370h-167z" />
    <glyph glyph-name="s" unicode="s" horiz-adv-x="512" 
d="M234 -12q-119 0 -199 23l18 126q106 -15 165 -15q94 0 94 38q0 13 -20.5 23.5t-51 17.5t-66 21t-66 32t-51 52.5t-20.5 80.5q0 84 67 128.5t163 44.5t184 -31l-28 -121q-88 20 -151 20q-26 0 -42.5 -6t-21 -13t-4.5 -14q0 -14 20 -26t50.5 -20t66 -22.5t66 -32.5
t50.5 -51t20 -76q0 -51 -24.5 -88t-63.5 -56t-77.5 -27t-77.5 -8z" />
    <glyph glyph-name="t" unicode="t" horiz-adv-x="466" 
d="M316 -11h-8q-30 0 -45.5 0.5t-42.5 4t-42.5 10t-35 19.5t-29.5 32t-17.5 48t-7.5 67v253h-80v123h80v112h166v-112h169v-123h-169v-252q0 -28 12 -35.5t48 -7.5q16 0 45.5 3l50.5 5l22 3l16 -131q-67 -19 -132 -19z" />
    <glyph glyph-name="u" unicode="u" horiz-adv-x="664" 
d="M251 -12q-50 0 -84.5 11.5t-53.5 29t-29.5 48.5t-13 58.5t-2.5 71.5v339h166v-325q0 -55 15 -71.5t58 -16.5q66 0 122 27v386h167v-546h-167v56q-90 -68 -178 -68z" />
    <glyph glyph-name="v" unicode="v" horiz-adv-x="623" 
d="M205 0l-197 546h179l92 -296l28 -109l31 109l102 296h175l-212 -546h-198z" />
    <glyph glyph-name="w" unicode="w" horiz-adv-x="904" 
d="M148 0l-140 546h175l70 -410l100 410h197l85 -410l90 410h171l-162 -546h-205l-64 298l-18 91l-21 -91l-71 -298h-207z" />
    <glyph glyph-name="x" unicode="x" horiz-adv-x="610" 
d="M8 0l202 279l-187 267h192l89 -166l92 166h189l-187 -267l204 -279h-199l-99 178l-100 -178h-196z" />
    <glyph glyph-name="y" unicode="y" horiz-adv-x="616" 
d="M182 -220l74 220h-60l-188 546h179l94 -324l23 -89l27 89l109 324h168l-267 -766h-159z" />
    <glyph glyph-name="z" unicode="z" horiz-adv-x="532" 
d="M38 0v109l256 303h-240v134h436v-106l-250 -308h254v-132h-456z" />
    <glyph glyph-name="braceleft" unicode="{" horiz-adv-x="377" 
d="M306 -223q-117 0 -175.5 45t-47.5 146l20 189q2 20 -15 36t-61 16v127q43 0 60.5 16.5t15.5 35.5l-20 189q-11 102 47.5 146.5t175.5 44.5h59v-139h-50q-34 0 -49.5 -20t-12.5 -46l21 -173q10 -81 -59 -116v-2q69 -35 59 -117l-21 -172q-3 -27 11.5 -46.5t50.5 -19.5h50
v-140h-59z" />
    <glyph glyph-name="bar" unicode="|" horiz-adv-x="293" 
d="M63 -220v974h167v-974h-167z" />
    <glyph glyph-name="braceright" unicode="}" horiz-adv-x="377" 
d="M32 -223v140h50q36 0 50.5 19.5t11.5 46.5l-21 172q-10 82 59 117v2q-69 35 -59 116l21 173q3 26 -12.5 46t-49.5 20h-50v139h59q117 0 175.5 -44.5t47.5 -146.5l-20 -189q-2 -19 15.5 -35.5t60.5 -16.5v-127q-44 0 -61 -16t-15 -36l20 -189q11 -101 -47.5 -146
t-175.5 -45h-59z" />
    <glyph glyph-name="asciitilde" unicode="~" horiz-adv-x="598" 
d="M386 240q-49 0 -105.5 30t-77.5 30q-39 0 -75 -33l-77 102q79 97 157 97q49 0 101.5 -30.5t77.5 -30.5q1 0 10.5 -0.5t14.5 0t15.5 3.5t22 10.5t25.5 19.5l76 -94q-23 -40 -73 -72t-92 -32z" />
    <glyph glyph-name="uni00A0" unicode="&#xa0;" horiz-adv-x="250" 
 />
    <glyph glyph-name="exclamdown" unicode="&#xa1;" horiz-adv-x="324" 
d="M78 -161v294l10 193h147l10 -193v-294h-167zM78 399v147h168v-147h-168z" />
    <glyph glyph-name="cent" unicode="&#xa2;" horiz-adv-x="560" 
d="M243 -62l2 90q-115 18 -161 71.5t-46 177.5q0 103 52 161.5t155 81.5l-3 84h149l-3 -78q54 -6 105 -29l-43 -120q-40 11 -55.5 13.5t-55.5 2.5q-130 0 -130 -118q0 -68 29.5 -95t122.5 -27q33 0 108 10l25 -125q-69 -15 -105 -17l2 -83h-148z" />
    <glyph glyph-name="sterling" unicode="&#xa3;" horiz-adv-x="543" 
d="M57 0v115q64 38 64 95h-76v124h81q-1 21 -2.5 30t-1.5 24q0 39 9.5 70t24.5 52t40 35.5t49.5 23t60 13t64 5.5t69.5 1l6 -136q-106 -9 -126 -18q-28 -13 -28 -52q0 -9 1.5 -18t-0.5 -30h148v-124h-165q-3 -22 -9 -37t-12 -22t-18 -19h252v-132h-431z" />
    <glyph glyph-name="currency" unicode="&#xa4;" horiz-adv-x="516" 
d="M89 122l-61 59l58 58q-44 49 -44 113q0 65 43 113l-57 57l60 60l68 -68q48 21 102 21q53 0 103 -21l67 68l61 -60l-58 -58q42 -47 42 -112q0 -64 -43 -112l59 -58l-61 -60l-68 68q-48 -20 -102 -20q-55 0 -101 20zM258 289q63 0 63 63q0 27 -15 45.5t-48 18.5t-48.5 -18
t-15.5 -46q0 -26 16 -44.5t48 -18.5z" />
    <glyph glyph-name="yen" unicode="&#xa5;" horiz-adv-x="687" 
d="M637 546l-118 -193h118v-133h-199l-24 -40v-47h223v-133h-587v133h209v43l-25 44h-184v133h109l-109 193h179l113 -235l120 235h175z" />
    <glyph glyph-name="brokenbar" unicode="&#xa6;" horiz-adv-x="293" 
d="M63 -220v361h167v-361h-167zM63 392v362h167v-362h-167z" />
    <glyph glyph-name="section" unicode="&#xa7;" horiz-adv-x="596" 
d="M126 -216q-34 0 -70 11t-56 29l41 118q45 -32 81 -32q34 0 34 72q0 33 -13 109l-68 289q-10 53 -10 97q0 122 108 203t250 81q108 0 173 -62q-58 -88 -70 -100q-41 39 -96 39q-44 0 -44 -51q0 -23 11 -81l67 -267q21 -105 21 -178q0 -118 -107.5 -197.5t-251.5 -79.5z
M283 -82l7 8q7 7 9 9.5l8.5 10.5t9.5 13l8.5 14.5t8.5 17.5t6 18t4.5 21t1.5 22q0 38 -11 97l-72 310q-7 42 -7 83q0 29 7 78q-30 -23 -43 -61t-13 -71q-1 -43 8 -88l73 -314q7 -47 7 -73q0 -30 -12 -95z" />
    <glyph glyph-name="dieresis" unicode="&#xa8;" horiz-adv-x="432" 
d="M99 622l-93 94l93 94l94 -94zM343 622l-94 94l94 94l93 -94z" />
    <glyph glyph-name="copyright" unicode="&#xa9;" horiz-adv-x="833" 
d="M432 74q-91 0 -145.5 56t-54.5 141q0 90 53 145t145 55q83 0 129 -29l-28 -80q-44 15 -99 15q-44 0 -71 -25t-27 -77q0 -51 29 -77t77 -26q56 0 93 13l27 -87q-58 -24 -128 -24zM408 -82q-162 0 -253.5 96.5t-91.5 260.5q0 165 99.5 259t264.5 94t254 -97.5t89 -257.5
q0 -164 -96.5 -259.5t-265.5 -95.5zM412 -12q131 0 201.5 79t70.5 207q0 127 -71 205.5t-195 78.5q-128 0 -199 -78t-71 -204q0 -124 69.5 -206t194.5 -82z" />
    <glyph glyph-name="ordfeminine" unicode="&#xaa;" horiz-adv-x="434" 
d="M165 389q-112 0 -112 95q0 94 139 94h49v21q0 16 -10.5 21t-41.5 5q-38 0 -96 -14l-22 76q71 26 133 26q24 0 39.5 -1t37 -6t33.5 -15t21 -28.5t9 -45.5v-138q0 -7 28 -8l-4 -79q-97 -5 -115 28q-45 -31 -88 -31zM177 471q24 0 64 8v35l-44 -1q-41 0 -41 -22
q0 -20 21 -20zM61 283v78h310v-78h-310z" />
    <glyph glyph-name="guillemotleft" unicode="&#xab;" horiz-adv-x="520" 
d="M140 43l-128 229l127 227l123 -42l-91 -185l90 -179zM380 43l-128 229l127 227l123 -42l-91 -185l90 -179z" />
    <glyph glyph-name="logicalnot" unicode="&#xac;" horiz-adv-x="600" 
d="M407 86v156h-368v127h505v-283h-137z" />
    <glyph glyph-name="registered" unicode="&#xae;" horiz-adv-x="833" 
d="M591 268q-76 6 -126 59q-11 11 -27 35t-24 34q-5 -1 -19 -1h-15v-122h-100v373h140q70 0 111 -26t41 -94q0 -72 -63 -98q6 -7 17.5 -23.5t17 -23t16 -16.5t22 -17t27.5 -12zM409 98q-163 0 -254.5 97.5t-91.5 259.5q0 165 100 259t263 94q166 0 255 -98t89 -257
q0 -163 -97 -259t-264 -96zM412 168q131 0 201.5 79t70.5 207q0 127 -71 205.5t-195 78.5q-128 0 -199 -78t-71 -204q0 -124 69.5 -206t194.5 -82zM380 472h18q36 0 52.5 11.5t16.5 40.5q0 24 -14 34t-43 10h-30v-96z" />
    <glyph glyph-name="macron" unicode="&#xaf;" horiz-adv-x="556" 
d="M111 647v129h328v-129h-328z" />
    <glyph glyph-name="macron" unicode="&#x2c9;" horiz-adv-x="556" 
d="M111 647v129h328v-129h-328z" />
    <glyph glyph-name="degree" unicode="&#xb0;" horiz-adv-x="345" 
d="M171 402q-76 0 -118.5 41.5t-42.5 116.5q0 71 47.5 114t115.5 43q72 0 117 -42.5t45 -114.5t-47 -115t-117 -43zM172 504q21 0 31.5 12.5t10.5 43.5q0 54 -42 54q-43 0 -43 -54q0 -56 43 -56z" />
    <glyph glyph-name="plusminus" unicode="&#xb1;" horiz-adv-x="600" 
d="M79 1l-2 126h160l1 157l-159 -2l-2 126l161 -4l-1 161h126l-6 -164l164 7l2 -126l-163 2l3 -157h158l2 -126h-444z" />
    <glyph glyph-name="twosuperior" unicode="&#xb2;" horiz-adv-x="306" 
d="M10 415v75q64 44 110.5 89.5t46.5 72.5q0 14 -12 23.5t-29 9.5q-38 0 -72 -22l-38 80q56 43 134 43q65 0 102 -35t37 -85q0 -43 -37 -84t-99 -72h139v-95h-282z" />
    <glyph glyph-name="threesuperior" unicode="&#xb3;" horiz-adv-x="305" 
d="M131 410q-59 0 -119 16l18 88q44 -10 90 -10q50 0 50 38q0 22 -18.5 30.5t-63.5 8.5v51q42 4 53.5 14t11.5 30q-4 24 -30 24q-42 0 -77 -16l-12.5 39.5t-12.5 40.5q49 25 113 25q139 0 139 -103q0 -22 -11 -42t-31 -29q60 -24 60 -86q0 -119 -160 -119z" />
    <glyph glyph-name="acute" unicode="&#xb4;" horiz-adv-x="584" 
d="M203 602l-47 100l238 121l54 -117z" />
    <glyph glyph-name="mu" unicode="&#xb5;" horiz-adv-x="693" 
d="M68 -220v766h166v-343q0 -45 16 -59t57 -14q60 0 122 30v386h167v-401q0 -13 12 -17.5t37 -5.5l-6 -126q-14 -1 -49 -1q-63 0 -101 14t-50 55q-98 -79 -188 -79h-17v-205h-166z" />
    <glyph glyph-name="paragraph" unicode="&#xb6;" horiz-adv-x="639" 
d="M333 -220q-41 0 -122 21l30 135q63 -12 94 -12q34 0 47 16.5t13 66.5v700h166v-701q0 -119 -62.5 -172.5t-165.5 -53.5zM212 227q-97 0 -144.5 64t-47.5 179q0 62 16 106.5t39.5 69t63 38.5t75 18t85.5 5l60 1v-481h-147z" />
    <glyph glyph-name="periodcentered" unicode="&#xb7;" horiz-adv-x="324" 
d="M161 273l-115 116l115 115l115 -115z" />
    <glyph glyph-name="cedilla" unicode="&#xb8;" horiz-adv-x="469" 
d="M189 -283l-57 100q4 2 17 9t21 12t18 13t15 17t5 19q0 14 -12 62h129q22 -50 22 -81q0 -29 -14.5 -53.5t-42 -43.5t-49.5 -30t-52 -24z" />
    <glyph glyph-name="onesuperior" unicode="&#xb9;" horiz-adv-x="240" 
d="M83 415v271h-73v93q32 1 96.5 2.5t97.5 2.5v-369h-121z" />
    <glyph glyph-name="ordmasculine" unicode="&#xba;" horiz-adv-x="434" 
d="M214 383q-80 0 -123 43.5t-43 119.5q0 78 46.5 124t124.5 46q85 0 126.5 -43.5t41.5 -123.5q0 -79 -48 -122.5t-125 -43.5zM218 468q34 0 47 19.5t13 61.5q0 40 -13 61t-48 21q-62 0 -62 -83q0 -41 14.5 -60.5t48.5 -19.5zM61 283v78h310v-78h-310z" />
    <glyph glyph-name="guillemotright" unicode="&#xbb;" horiz-adv-x="520" 
d="M135 43l-121 50l89 179l-91 185l123 42l127 -227zM375 43l-121 50l89 179l-91 185l123 42l127 -227z" />
    <glyph glyph-name="onequarter" unicode="&#xbc;" horiz-adv-x="824" 
d="M103 415v271h-73v93q33 1 97.5 2.5t96.5 2.5v-369h-121zM130 62l-57 62l543 543l58 -60zM636 0v79h-157v86l101 204h164v-206h50v-84h-50v-79h-108zM558 163h78v143z" />
    <glyph glyph-name="onehalf" unicode="&#xbd;" horiz-adv-x="818" 
d="M103 415v271h-73v93q33 1 97.5 2.5t96.5 2.5v-369h-121zM128 62l-57 62l543 543l58 -60zM506 0v75q64 44 110.5 89.5t46.5 72.5q0 14 -12 23.5t-29 9.5q-38 0 -72 -22l-38 80q58 45 134 45q65 0 102 -36t37 -86q0 -43 -37 -84t-99 -72h139v-95h-282z" />
    <glyph glyph-name="threequarters" unicode="&#xbe;" horiz-adv-x="820" 
d="M149 410q-59 0 -119 16l18 88q44 -10 90 -10q50 0 50 38q0 22 -18.5 30.5t-63.5 8.5v51q42 4 53.5 14t11.5 30q-4 24 -30 24q-42 0 -77 -16l-12.5 40l-12.5 40q49 25 113 25q139 0 139 -103q0 -22 -11 -42t-31 -29q60 -24 60 -86q0 -119 -160 -119zM141 62l-57 62
l543 543l58 -60zM632 0v79h-157v86l101 204h164v-206h50v-84h-50v-79h-108zM554 163h78v143z" />
    <glyph glyph-name="questiondown" unicode="&#xbf;" horiz-adv-x="415" 
d="M346 -164q-67 5 -116.5 16t-93 33.5t-66.5 63.5t-23 98q0 43 25 82t54.5 63t54.5 49t25 43q0 32 -9 55l134 22q20 -44 20 -89q0 -42 -20.5 -80.5t-44.5 -60.5t-44.5 -44t-20.5 -35q0 -24 8.5 -37t43.5 -25t103 -17zM167 399v147h167v-147h-167z" />
    <glyph glyph-name="Agrave" unicode="&#xc0;" horiz-adv-x="751" 
d="M11 0l272 707h219l238 -707h-176l-67 207h-239l-77 -207h-170zM303 330h154l-71 272zM498 744l-275 49l27 131l271 -67z" />
    <glyph glyph-name="Aacute" unicode="&#xc1;" horiz-adv-x="751" 
d="M11 0l272 707h219l238 -707h-176l-67 207h-239l-77 -207h-170zM303 330h154l-71 272zM284 744l-23 113l271 67l27 -131z" />
    <glyph glyph-name="Acircumflex" unicode="&#xc2;" horiz-adv-x="751" 
d="M11 0l272 707h219l238 -707h-176l-67 207h-239l-77 -207h-170zM303 330h154l-71 272zM253 741l-58 107l191 96l192 -96l-59 -107l-133 61z" />
    <glyph glyph-name="Atilde" unicode="&#xc3;" horiz-adv-x="751" 
d="M11 0l272 707h219l238 -707h-176l-67 207h-239l-77 -207h-170zM303 330h154l-71 272zM444 755q-27 0 -68.5 19t-59.5 19q-38 0 -70 -28l-63 74q68 82 144 82q35 0 72.5 -19t50.5 -19q38 0 87 26l55 -74q-74 -80 -148 -80z" />
    <glyph glyph-name="Adieresis" unicode="&#xc4;" horiz-adv-x="751" 
d="M11 0l272 707h219l238 -707h-176l-67 207h-239l-77 -207h-170zM303 330h154l-71 272zM265 737l-99 100l99 100l100 -100zM509 737l-100 100l100 100l99 -100z" />
    <glyph glyph-name="Aring" unicode="&#xc5;" horiz-adv-x="751" 
d="M11 0l264 687q-37 34 -37 93q0 67 45 101.5t107 34.5q35 0 66.5 -10t58.5 -42t27 -82q0 -58 -35 -91l233 -691h-176l-67 208h-239l-77 -208h-170zM391 727q56 0 56 54q0 24 -16 39t-42 15q-57 0 -57 -51q0 -57 59 -57zM303 331h154l-38 138l-33 133l-39 -133z" />
    <glyph glyph-name="AE" unicode="&#xc6;" horiz-adv-x="996" 
d="M-12 0l332 707h605v-133h-294v-157h272v-124h-272v-160h317v-133h-487v244h-179l-102 -244h-192zM333 368h128v206h-42z" />
    <glyph glyph-name="Ccedilla" unicode="&#xc7;" horiz-adv-x="686" 
d="M435 -10q-193 0 -292.5 92t-99.5 267q0 368 388 368q125 0 220 -43l-45 -123q-56 15 -87 20t-86 6q-99 2 -158 -54t-59 -164q0 -109 64 -168t173 -59q87 0 164 20l36 -128q-92 -34 -218 -34zM339 -283l-57 100q4 2 17 9t21 12t18 13t15 17t5 19q0 14 -12 62h129
q22 -50 22 -81q0 -29 -14.5 -53.5t-42 -43.5t-49.5 -30t-52 -24z" />
    <glyph glyph-name="Egrave" unicode="&#xc8;" horiz-adv-x="613" 
d="M78 0v707h464v-133h-294v-157h272v-124h-272v-160h317v-133h-487zM420 744l-275 49l27 131l271 -67z" />
    <glyph glyph-name="Eacute" unicode="&#xc9;" horiz-adv-x="613" 
d="M78 0v707h464v-133h-294v-157h272v-124h-272v-160h317v-133h-487zM225 744l-23 113l271 67l27 -131z" />
    <glyph glyph-name="Ecircumflex" unicode="&#xca;" horiz-adv-x="613" 
d="M78 0v707h464v-133h-294v-157h272v-124h-272v-160h317v-133h-487zM185 741l-58 107l191 96l192 -96l-59 -107l-133 61z" />
    <glyph glyph-name="Edieresis" unicode="&#xcb;" horiz-adv-x="613" 
d="M78 0v707h464v-133h-294v-157h272v-124h-272v-160h317v-133h-487zM192 737l-99 100l99 100l100 -100zM436 737l-100 100l100 100l99 -100z" />
    <glyph glyph-name="Igrave" unicode="&#xcc;" horiz-adv-x="326" 
d="M78 0v707h170v-707h-170zM252 744l-275 49l27 131l271 -67z" />
    <glyph glyph-name="Iacute" unicode="&#xcd;" horiz-adv-x="326" 
d="M78 0v707h170v-707h-170zM78 744l-23 113l271 67l27 -131z" />
    <glyph glyph-name="Icircumflex" unicode="&#xce;" horiz-adv-x="326" 
d="M78 0v707h170v-707h-170zM28 741l-58 107l191 96l192 -96l-59 -107l-133 61z" />
    <glyph glyph-name="Idieresis" unicode="&#xcf;" horiz-adv-x="326" 
d="M78 0v707h170v-707h-170zM39 737l-99 100l99 100l100 -100zM283 737l-100 100l100 100l99 -100z" />
    <glyph glyph-name="Eth" unicode="&#xd0;" horiz-adv-x="787" 
d="M744 356q0 -180 -105.5 -268t-301.5 -88h-259v299h-74v100h74v308h253q192 0 302.5 -86.5t110.5 -264.5zM574 346q0 115 -60 171.5t-186 56.5h-81v-175h131v-100h-131v-166h101q119 0 172.5 53t53.5 160z" />
    <glyph glyph-name="Ntilde" unicode="&#xd1;" horiz-adv-x="796" 
d="M78 0v707h197l278 -485l-5 79v406h170v-707h-203l-271 473l4 -94v-379h-170zM463 755q-27 0 -68.5 19t-59.5 19q-38 0 -70 -28l-63 74q68 82 144 82q35 0 72.5 -19t50.5 -19q38 0 87 26l55 -74q-74 -80 -148 -80z" />
    <glyph glyph-name="Ograve" unicode="&#xd2;" horiz-adv-x="843" 
d="M413 -12q-183 0 -276.5 96.5t-93.5 270.5q0 168 104.5 265.5t284.5 97.5q185 0 276.5 -99t91.5 -266q0 -171 -100 -268t-287 -97zM416 122q111 0 161 62.5t50 169.5q0 105 -50.5 167.5t-153.5 62.5q-107 0 -157.5 -62t-50.5 -166t49.5 -169t151.5 -65zM525 744l-275 49
l27 131l271 -67z" />
    <glyph glyph-name="Oacute" unicode="&#xd3;" horiz-adv-x="843" 
d="M413 -12q-183 0 -276.5 96.5t-93.5 270.5q0 168 104.5 265.5t284.5 97.5q185 0 276.5 -99t91.5 -266q0 -171 -100 -268t-287 -97zM416 122q111 0 161 62.5t50 169.5q0 105 -50.5 167.5t-153.5 62.5q-107 0 -157.5 -62t-50.5 -166t49.5 -169t151.5 -65zM329 744l-23 113
l271 67l27 -131z" />
    <glyph glyph-name="Ocircumflex" unicode="&#xd4;" horiz-adv-x="843" 
d="M413 -12q-183 0 -276.5 96.5t-93.5 270.5q0 168 104.5 265.5t284.5 97.5q185 0 276.5 -99t91.5 -266q0 -171 -100 -268t-287 -97zM416 122q111 0 161 62.5t50 169.5q0 105 -50.5 167.5t-153.5 62.5q-107 0 -157.5 -62t-50.5 -166t49.5 -169t151.5 -65zM289 741l-58 107
l191 96l192 -96l-59 -107l-133 61z" />
    <glyph glyph-name="Otilde" unicode="&#xd5;" horiz-adv-x="843" 
d="M413 -12q-183 0 -276.5 96.5t-93.5 270.5q0 168 104.5 265.5t284.5 97.5q185 0 276.5 -99t91.5 -266q0 -171 -100 -268t-287 -97zM416 122q111 0 161 62.5t50 169.5q0 105 -50.5 167.5t-153.5 62.5q-107 0 -157.5 -62t-50.5 -166t49.5 -169t151.5 -65zM485 755
q-27 0 -68.5 19t-59.5 19q-38 0 -70 -28l-63 74q68 82 144 82q35 0 72.5 -19t50.5 -19q38 0 87 26l55 -74q-74 -80 -148 -80z" />
    <glyph glyph-name="Odieresis" unicode="&#xd6;" horiz-adv-x="843" 
d="M413 -12q-183 0 -276.5 96.5t-93.5 270.5q0 168 104.5 265.5t284.5 97.5q185 0 276.5 -99t91.5 -266q0 -171 -100 -268t-287 -97zM416 122q111 0 161 62.5t50 169.5q0 105 -50.5 167.5t-153.5 62.5q-107 0 -157.5 -62t-50.5 -166t49.5 -169t151.5 -65zM293 737l-99 100
l99 100l100 -100zM537 737l-100 100l100 100l99 -100z" />
    <glyph glyph-name="multiply" unicode="&#xd7;" horiz-adv-x="567" 
d="M439 60l-157 159l-152 -157l-90 90l156 154l-156 153l87 91l154 -159l155 157l90 -90l-163 -154l163 -153z" />
    <glyph glyph-name="Oslash" unicode="&#xd8;" horiz-adv-x="843" 
d="M96 -45l-70 70l86 89q-69 92 -69 241q0 177 102.5 270t286.5 93q131 0 217 -49l83 86l71 -69l-78 -82q75 -91 75 -251q0 -177 -99.5 -271t-287.5 -94q-140 0 -229 58zM416 122q111 0 161 62.5t50 169.5q0 71 -24 125l-310 -320q50 -37 123 -37zM234 240l304 314
q-47 30 -115 30q-107 0 -157.5 -62t-50.5 -166q0 -66 19 -116z" />
    <glyph glyph-name="Ugrave" unicode="&#xd9;" horiz-adv-x="799" 
d="M402 -13q-65 0 -121 15.5t-104 48.5t-76 94t-28 143v419h172v-413q0 -168 157 -168t157 189v392h167v-395q0 -89 -28 -154.5t-75.5 -101.5t-102.5 -52.5t-118 -16.5zM507 744l-275 49l27 131l271 -67z" />
    <glyph glyph-name="Uacute" unicode="&#xda;" horiz-adv-x="799" 
d="M402 -13q-65 0 -121 15.5t-104 48.5t-76 94t-28 143v419h172v-413q0 -168 157 -168t157 189v392h167v-395q0 -89 -28 -154.5t-75.5 -101.5t-102.5 -52.5t-118 -16.5zM318 744l-23 113l271 67l27 -131z" />
    <glyph glyph-name="Ucircumflex" unicode="&#xdb;" horiz-adv-x="799" 
d="M402 -13q-65 0 -121 15.5t-104 48.5t-76 94t-28 143v419h172v-413q0 -168 157 -168t157 189v392h167v-395q0 -89 -28 -154.5t-75.5 -101.5t-102.5 -52.5t-118 -16.5zM271 741l-58 107l191 96l192 -96l-59 -107l-133 61z" />
    <glyph glyph-name="Udieresis" unicode="&#xdc;" horiz-adv-x="799" 
d="M402 -13q-65 0 -121 15.5t-104 48.5t-76 94t-28 143v419h172v-413q0 -168 157 -168t157 189v392h167v-395q0 -89 -28 -154.5t-75.5 -101.5t-102.5 -52.5t-118 -16.5zM280 737l-99 100l99 100l100 -100zM524 737l-100 100l100 100l99 -100z" />
    <glyph glyph-name="Yacute" unicode="&#xdd;" horiz-adv-x="709" 
d="M261 0v227l-261 480h196l156 -337l166 337h191l-278 -474v-233h-170zM273 744l-23 113l271 67l27 -131z" />
    <glyph glyph-name="Thorn" unicode="&#xde;" horiz-adv-x="654" 
d="M78 0v708h171v-99h104q122 0 197.5 -67.5t75.5 -183.5q0 -109 -86.5 -182.5t-238.5 -73.5h-52v-102h-171zM249 476v-243h58q75 0 109.5 33.5t34.5 87.5q0 122 -120 122h-82z" />
    <glyph glyph-name="germandbls" unicode="&#xdf;" horiz-adv-x="690" 
d="M78 -189v737q0 232 252 232q25 0 53 -4t64.5 -16.5t64.5 -31.5t47.5 -53.5t19.5 -78.5q0 -34 -20 -66t-43.5 -51.5t-43.5 -42.5t-20 -42t21.5 -34.5t52.5 -29t62 -31.5t52.5 -52.5t21.5 -81.5q0 -49 -21 -85.5t-55 -55.5t-69.5 -28t-71.5 -9q-126 0 -183 20l20 128
q92 -14 127 -14q89 0 89 34q0 13 -16 25t-39.5 20.5t-51 24.5t-51 35t-39.5 54t-16 80q0 35 18.5 66.5t40 50.5t40 41.5t18.5 41.5q0 23 -25.5 37t-48.5 14q-84 0 -84 -98v-736h-166z" />
    <glyph glyph-name="agrave" unicode="&#xe0;" horiz-adv-x="627" 
d="M226 -9q-91 0 -139.5 42t-48.5 123q0 166 234 166h95v34q0 35 -23 48.5t-76 13.5q-61 0 -163 -24l-33 121q114 44 221 44q127 0 182 -39.5t55 -131.5v-243q0 -13 12 -17.5t37 -5.5l-6 -126q-13 -1 -39 -1q-132 0 -151 58q-80 -62 -157 -62zM261 120q38 0 106 19v86
l-82 -2q-85 -2 -85 -57q0 -22 18 -34t43 -12zM372 602l-244 104l54 117l238 -121z" />
    <glyph glyph-name="aacute" unicode="&#xe1;" horiz-adv-x="627" 
d="M226 -9q-91 0 -139.5 42t-48.5 123q0 166 234 166h95v34q0 35 -23 48.5t-76 13.5q-61 0 -163 -24l-33 121q114 44 221 44q127 0 182 -39.5t55 -131.5v-243q0 -13 12 -17.5t37 -5.5l-6 -126q-13 -1 -39 -1q-132 0 -151 58q-80 -62 -157 -62zM261 120q38 0 106 19v86
l-82 -2q-85 -2 -85 -57q0 -22 18 -34t43 -12zM224 602l-47 100l238 121l54 -117z" />
    <glyph glyph-name="acircumflex" unicode="&#xe2;" horiz-adv-x="627" 
d="M226 -9q-91 0 -139.5 42t-48.5 123q0 166 234 166h95v34q0 35 -23 48.5t-76 13.5q-61 0 -163 -24l-33 121q114 44 221 44q127 0 182 -39.5t55 -131.5v-243q0 -13 12 -17.5t37 -5.5l-6 -126q-13 -1 -39 -1q-132 0 -151 58q-80 -62 -157 -62zM261 120q38 0 106 19v86
l-82 -2q-85 -2 -85 -57q0 -22 18 -34t43 -12zM426 606l-129 90l-128 -89l-73 92l202 130l196 -131z" />
    <glyph glyph-name="atilde" unicode="&#xe3;" horiz-adv-x="627" 
d="M226 -9q-91 0 -139.5 42t-48.5 123q0 166 234 166h95v34q0 35 -23 48.5t-76 13.5q-61 0 -163 -24l-33 121q114 44 221 44q127 0 182 -39.5t55 -131.5v-243q0 -13 12 -17.5t37 -5.5l-6 -126q-13 -1 -39 -1q-132 0 -151 58q-80 -62 -157 -62zM261 120q38 0 106 19v86
l-82 -2q-85 -2 -85 -57q0 -22 18 -34t43 -12zM349 634q-27 0 -68.5 19t-59.5 19q-38 0 -70 -28l-63 74q68 82 144 82q35 0 72.5 -19t50.5 -19q38 0 87 26l55 -74q-74 -80 -148 -80z" />
    <glyph glyph-name="adieresis" unicode="&#xe4;" horiz-adv-x="627" 
d="M226 -9q-91 0 -139.5 42t-48.5 123q0 166 234 166h95v34q0 35 -23 48.5t-76 13.5q-61 0 -163 -24l-33 121q114 44 221 44q127 0 182 -39.5t55 -131.5v-243q0 -13 12 -17.5t37 -5.5l-6 -126q-13 -1 -39 -1q-132 0 -151 58q-80 -62 -157 -62zM261 120q38 0 106 19v86
l-82 -2q-85 -2 -85 -57q0 -22 18 -34t43 -12zM180 622l-93 94l93 94l94 -94zM424 622l-94 94l94 94l93 -94z" />
    <glyph glyph-name="aring" unicode="&#xe5;" horiz-adv-x="627" 
d="M226 -9q-91 0 -139.5 42t-48.5 123q0 166 234 166h95v34q0 35 -23 48.5t-76 13.5q-61 0 -163 -24l-33 121q114 44 221 44q127 0 182 -39.5t55 -131.5v-243q0 -13 12 -17.5t37 -5.5l-6 -126q-13 -1 -39 -1q-132 0 -151 58q-80 -62 -157 -62zM261 120q38 0 106 19v86
l-82 -2q-85 -2 -85 -57q0 -22 18 -34t43 -12zM305 586q-62 0 -106 29t-44 97q0 65 43.5 99.5t103.5 34.5q24 0 48 -6.5t48 -20.5t38.5 -41t14.5 -64q0 -64 -42 -96t-104 -32zM303 657q56 0 61 56q0 25 -17 40.5t-44 15.5q-61 0 -61 -54q0 -27 16 -42.5t45 -15.5z" />
    <glyph glyph-name="ae" unicode="&#xe6;" horiz-adv-x="925" 
d="M663 -9q-177 0 -244 83q-92 -82 -193 -82q-91 0 -139.5 40.5t-48.5 121.5q0 41 14.5 71t36 46.5t55 26.5t62 13t66.5 4q65 3 95 3v44q0 34 -22 45t-77 11q-61 0 -163 -24l-33 121q117 44 221 44q136 0 187 -39q64 39 169 39q238 0 238 -277v-53l-354 -8
q-1 -59 38.5 -79.5t114.5 -20.5q49 0 157 19l25 -127q-75 -22 -205 -22zM246 122q62 0 138 20q-11 34 -15 74l-84 -2q-31 -1 -49.5 -5t-25 -13t-8 -14.5t-1.5 -18.5q0 -41 45 -41zM538 329l178 7q1 47 -22.5 75t-56.5 28q-42 0 -70.5 -27.5t-28.5 -82.5z" />
    <glyph glyph-name="ccedilla" unicode="&#xe7;" horiz-adv-x="537" 
d="M356 -11q-172 0 -245 67.5t-73 221.5q0 128 80.5 205t218.5 77q103 0 174 -38l-43 -121q-60 23 -124 23q-135 0 -135 -148q0 -84 31 -119t125 -35q37 0 116 14l23 -127q-91 -20 -148 -20zM248 -283l-57 100q4 2 17 9t21 12t18 13t15 17t5 19q0 14 -12 62h129
q22 -50 22 -81q0 -29 -14.5 -53.5t-42 -43.5t-49.5 -30t-52 -24z" />
    <glyph glyph-name="egrave" unicode="&#xe8;" horiz-adv-x="596" 
d="M334 -12q-146 0 -221 61t-75 216q0 158 74 226t208 68q238 0 238 -277v-60h-354q-1 -59 39 -80.5t115 -21.5q31 0 156 22l25 -127q-91 -27 -205 -27zM209 329h178q2 51 -19.5 81.5t-61.5 30.5q-43 0 -69 -29.5t-28 -82.5zM374 602l-244 104l54 117l238 -121z" />
    <glyph glyph-name="eacute" unicode="&#xe9;" horiz-adv-x="596" 
d="M334 -12q-146 0 -221 61t-75 216q0 158 74 226t208 68q238 0 238 -277v-60h-354q-1 -59 39 -80.5t115 -21.5q31 0 156 22l25 -127q-91 -27 -205 -27zM209 329h178q2 51 -19.5 81.5t-61.5 30.5q-43 0 -69 -29.5t-28 -82.5zM228 602l-47 100l238 121l54 -117z" />
    <glyph glyph-name="ecircumflex" unicode="&#xea;" horiz-adv-x="596" 
d="M334 -12q-146 0 -221 61t-75 216q0 158 74 226t208 68q238 0 238 -277v-60h-354q-1 -59 39 -80.5t115 -21.5q31 0 156 22l25 -127q-91 -27 -205 -27zM209 329h178q2 51 -19.5 81.5t-61.5 30.5q-43 0 -69 -29.5t-28 -82.5zM428 606l-129 90l-128 -89l-73 92l202 130
l196 -131z" />
    <glyph glyph-name="edieresis" unicode="&#xeb;" horiz-adv-x="596" 
d="M334 -12q-146 0 -221 61t-75 216q0 158 74 226t208 68q238 0 238 -277v-60h-354q-1 -59 39 -80.5t115 -21.5q31 0 156 22l25 -127q-91 -27 -205 -27zM209 329h178q2 51 -19.5 81.5t-61.5 30.5q-43 0 -69 -29.5t-28 -82.5zM181 622l-93 94l93 94l94 -94zM425 622l-94 94
l94 94l93 -94z" />
    <glyph glyph-name="igrave" unicode="&#xec;" horiz-adv-x="303" 
d="M68 0v546h167v-546h-167zM217 602l-244 104l54 117l238 -121z" />
    <glyph glyph-name="iacute" unicode="&#xed;" horiz-adv-x="303" 
d="M68 0v546h167v-546h-167zM76 602l-47 100l238 121l54 -117z" />
    <glyph glyph-name="icircumflex" unicode="&#xee;" horiz-adv-x="303" 
d="M68 0v546h167v-546h-167zM281 606l-129 90l-128 -89l-73 92l202 130l196 -131z" />
    <glyph glyph-name="idieresis" unicode="&#xef;" horiz-adv-x="303" 
d="M68 0v546h167v-546h-167zM34 622l-93 94l93 94l94 -94zM278 622l-94 94l94 94l93 -94z" />
    <glyph glyph-name="eth" unicode="&#xf0;" horiz-adv-x="643" 
d="M315 -12q-134 0 -205.5 70.5t-71.5 199.5q0 120 80 200t196 80q45 0 79 -14q-27 38 -78 78l-62 -55l-50 53l49 44q-24 13 -65 31l84 105q47 -15 91 -40l59 53l51 -53l-47 -42q85 -71 132 -169t47 -257q0 -135 -79.5 -209.5t-209.5 -74.5zM323 121q64 0 88 34t24 108
q0 143 -124 143q-57 0 -81 -36.5t-24 -107.5q0 -73 26 -107t91 -34z" />
    <glyph glyph-name="ntilde" unicode="&#xf1;" horiz-adv-x="664" 
d="M68 0v546h167v-55q91 69 178 69q50 0 84.5 -11.5t53.5 -28.5t29.5 -48t13 -59t2.5 -71v-342h-166v328q0 55 -15 71.5t-58 16.5q-62 0 -122 -29v-387h-167zM386 634q-27 0 -68.5 19t-59.5 19q-38 0 -70 -28l-63 74q68 82 144 82q35 0 72.5 -19t50.5 -19q38 0 87 26l55 -74
q-74 -80 -148 -80z" />
    <glyph glyph-name="ograve" unicode="&#xf2;" horiz-adv-x="643" 
d="M315 -12q-133 0 -205 75t-72 205q0 135 77.5 213.5t208.5 78.5q142 0 211.5 -75t69.5 -212q0 -136 -80 -210.5t-210 -74.5zM323 121q64 0 88 38t24 114q0 74 -25 114.5t-89 40.5q-115 0 -115 -156q0 -75 26.5 -113t90.5 -38zM402 602l-244 104l54 117l238 -121z" />
    <glyph glyph-name="oacute" unicode="&#xf3;" horiz-adv-x="643" 
d="M315 -12q-133 0 -205 75t-72 205q0 135 77.5 213.5t208.5 78.5q142 0 211.5 -75t69.5 -212q0 -136 -80 -210.5t-210 -74.5zM323 121q64 0 88 38t24 114q0 74 -25 114.5t-89 40.5q-115 0 -115 -156q0 -75 26.5 -113t90.5 -38zM232 602l-47 100l238 121l54 -117z" />
    <glyph glyph-name="ocircumflex" unicode="&#xf4;" horiz-adv-x="643" 
d="M315 -12q-133 0 -205 75t-72 205q0 135 77.5 213.5t208.5 78.5q142 0 211.5 -75t69.5 -212q0 -136 -80 -210.5t-210 -74.5zM323 121q64 0 88 38t24 114q0 74 -25 114.5t-89 40.5q-115 0 -115 -156q0 -75 26.5 -113t90.5 -38zM451 606l-129 90l-128 -89l-73 92l202 130
l196 -131z" />
    <glyph glyph-name="otilde" unicode="&#xf5;" horiz-adv-x="643" 
d="M315 -12q-133 0 -205 75t-72 205q0 135 77.5 213.5t208.5 78.5q142 0 211.5 -75t69.5 -212q0 -136 -80 -210.5t-210 -74.5zM323 121q64 0 88 38t24 114q0 74 -25 114.5t-89 40.5q-115 0 -115 -156q0 -75 26.5 -113t90.5 -38zM375 634q-27 0 -68.5 19t-59.5 19
q-38 0 -70 -28l-63 74q68 82 144 82q35 0 72.5 -19t50.5 -19q38 0 87 26l55 -74q-74 -80 -148 -80z" />
    <glyph glyph-name="odieresis" unicode="&#xf6;" horiz-adv-x="643" 
d="M315 -12q-133 0 -205 75t-72 205q0 135 77.5 213.5t208.5 78.5q142 0 211.5 -75t69.5 -212q0 -136 -80 -210.5t-210 -74.5zM323 121q64 0 88 38t24 114q0 74 -25 114.5t-89 40.5q-115 0 -115 -156q0 -75 26.5 -113t90.5 -38zM204 622l-93 94l93 94l94 -94zM448 622
l-94 94l94 94l93 -94z" />
    <glyph glyph-name="divide" unicode="&#xf7;" horiz-adv-x="600" 
d="M230 46v128h138v-128h-138zM39 242v126h524v-126h-524zM230 433v128h138v-128h-138z" />
    <glyph glyph-name="oslash" unicode="&#xf8;" horiz-adv-x="643" 
d="M76 -22l-50 49l62 62q-50 71 -50 179q0 135 77.5 213.5t208.5 78.5q114 0 181 -49l59 59l49 -49l-58 -59q50 -71 50 -189q0 -136 -80 -210.5t-210 -74.5q-108 0 -178 51zM323 121q64 0 88 38t24 114q0 39 -5 63l-187 -189q29 -26 80 -26zM211 214l186 188q-26 26 -76 26
q-115 0 -115 -156q0 -37 5 -58z" />
    <glyph glyph-name="ugrave" unicode="&#xf9;" horiz-adv-x="664" 
d="M251 -12q-50 0 -84.5 11.5t-53.5 29t-29.5 48.5t-13 58.5t-2.5 71.5v339h166v-325q0 -55 15 -71.5t58 -16.5q66 0 122 27v386h167v-546h-167v56q-90 -68 -178 -68zM394 602l-244 104l54 117l238 -121z" />
    <glyph glyph-name="uacute" unicode="&#xfa;" horiz-adv-x="664" 
d="M251 -12q-50 0 -84.5 11.5t-53.5 29t-29.5 48.5t-13 58.5t-2.5 71.5v339h166v-325q0 -55 15 -71.5t58 -16.5q66 0 122 27v386h167v-546h-167v56q-90 -68 -178 -68zM273 607l-47 100l238 121l54 -117z" />
    <glyph glyph-name="ucircumflex" unicode="&#xfb;" horiz-adv-x="664" 
d="M251 -12q-50 0 -84.5 11.5t-53.5 29t-29.5 48.5t-13 58.5t-2.5 71.5v339h166v-325q0 -55 15 -71.5t58 -16.5q66 0 122 27v386h167v-546h-167v56q-90 -68 -178 -68zM462 606l-129 90l-128 -89l-73 92l202 130l196 -131z" />
    <glyph glyph-name="udieresis" unicode="&#xfc;" horiz-adv-x="664" 
d="M251 -12q-50 0 -84.5 11.5t-53.5 29t-29.5 48.5t-13 58.5t-2.5 71.5v339h166v-325q0 -55 15 -71.5t58 -16.5q66 0 122 27v386h167v-546h-167v56q-90 -68 -178 -68zM215 622l-93 94l93 94l94 -94zM459 622l-94 94l94 94l93 -94z" />
    <glyph glyph-name="yacute" unicode="&#xfd;" horiz-adv-x="616" 
d="M182 -220l74 220h-60l-188 546h179l94 -324l23 -89l27 89l109 324h168l-267 -766h-159zM250 602l-47 100l238 121l54 -117z" />
    <glyph glyph-name="thorn" unicode="&#xfe;" horiz-adv-x="645" 
d="M68 -220v975h166v-248q21 18 59.5 35.5t72.5 17.5q118 0 179.5 -61.5t61.5 -200.5q0 -82 -25 -143.5t-69 -96.5t-97 -51.5t-115 -16.5q-15 0 -39 2t-28 2v-214h-166zM305 117q62 0 98 49t36 127q0 71 -29 99t-94 28q-37 0 -82 -15v-282q48 -6 71 -6z" />
    <glyph glyph-name="ydieresis" unicode="&#xff;" horiz-adv-x="616" 
d="M182 -220l74 220h-60l-188 546h179l94 -324l23 -89l27 89l109 324h168l-267 -766h-159zM191 622l-93 94l93 94l94 -94zM435 622l-94 94l94 94l93 -94z" />
    <glyph glyph-name="Amacron" unicode="&#x100;" horiz-adv-x="751" 
d="M11 0l272 707h219l238 -707h-176l-67 207h-239l-77 -207h-170zM303 330h154l-71 272zM228 765v129h328v-129h-328z" />
    <glyph glyph-name="amacron" unicode="&#x101;" horiz-adv-x="627" 
d="M226 -9q-91 0 -139.5 42t-48.5 123q0 166 234 166h95v34q0 35 -23 48.5t-76 13.5q-61 0 -163 -24l-33 121q114 44 221 44q127 0 182 -39.5t55 -131.5v-243q0 -13 12 -17.5t37 -5.5l-6 -126q-13 -1 -39 -1q-132 0 -151 58q-80 -62 -157 -62zM261 120q38 0 106 19v86
l-82 -2q-85 -2 -85 -57q0 -22 18 -34t43 -12zM146 647v129h328v-129h-328z" />
    <glyph glyph-name="Abreve" unicode="&#x102;" horiz-adv-x="751" 
d="M11 0l272 707h219l238 -707h-176l-67 207h-239l-77 -207h-170zM303 330h154l-71 272zM393 754q-132 0 -201 111l86 74q66 -62 119 -62q54 0 114 62l81 -73q-76 -112 -199 -112z" />
    <glyph glyph-name="abreve" unicode="&#x103;" horiz-adv-x="627" 
d="M226 -9q-91 0 -139.5 42t-48.5 123q0 166 234 166h95v34q0 35 -23 48.5t-76 13.5q-61 0 -163 -24l-33 121q114 44 221 44q127 0 182 -39.5t55 -131.5v-243q0 -13 12 -17.5t37 -5.5l-6 -126q-13 -1 -39 -1q-132 0 -151 58q-80 -62 -157 -62zM261 120q38 0 106 19v86
l-82 -2q-85 -2 -85 -57q0 -22 18 -34t43 -12zM315 614q-132 0 -201 111l86 74q66 -62 119 -62q54 0 114 62l81 -73q-76 -112 -199 -112z" />
    <glyph glyph-name="Aogonek" unicode="&#x104;" horiz-adv-x="751" 
d="M767 -234q-59 -26 -124 -26q-88 0 -127.5 26.5t-39.5 85.5q0 55 88 148l-67 208h-239l-77 -208h-170l272 707h219l237 -707q-105 -67 -105 -114q0 -22 33 -22q42 0 72 9zM457 331l-38 138l-33 133l-39 -133l-44 -138h154z" />
    <glyph glyph-name="aogonek" unicode="&#x105;" horiz-adv-x="627" 
d="M586 -234q-59 -26 -124 -26q-152 0 -152 111q0 70 117 149q-13 7 -26.5 23t-17.5 30q-79 -61 -157 -61q-91 0 -139.5 40.5t-48.5 121.5q0 161 234 161h95v47q0 34 -22 45t-77 11q-61 0 -163 -24l-33 121q117 44 221 44q43 0 70 -2t62 -11t55.5 -25.5t35 -48.5t14.5 -78
v-249q0 -13 12 -17.5t37 -5.5l-8 -127q-6 -4 -20.5 -13t-23 -15l-21.5 -15t-21 -16.5t-16 -16t-12 -17t-4 -16.5q0 -22 33 -22q42 0 72 9zM367 139v79l-82 -2q-31 -1 -49.5 -5t-25 -13.5t-8 -15.5t-1.5 -19q0 -41 45 -41q60 0 121 17z" />
    <glyph glyph-name="Cacute" unicode="&#x106;" horiz-adv-x="686" 
d="M435 -10q-193 0 -292.5 92t-99.5 267q0 368 388 368q125 0 220 -43l-45 -123q-56 15 -87 20t-86 6q-99 2 -158 -54t-59 -164q0 -109 64 -168t173 -59q87 0 164 20l36 -128q-92 -34 -218 -34zM296 744l-23 113l271 67l27 -131z" />
    <glyph glyph-name="cacute" unicode="&#x107;" horiz-adv-x="537" 
d="M356 -11q-172 0 -245 67.5t-73 221.5q0 128 80.5 205t218.5 77q103 0 174 -38l-43 -121q-60 23 -124 23q-135 0 -135 -148q0 -84 31 -119t125 -35q37 0 116 14l23 -127q-91 -20 -148 -20zM215 602l-47 100l238 121l54 -117z" />
    <glyph glyph-name="Ccircumflex" unicode="&#x108;" horiz-adv-x="686" 
d="M435 -10q-193 0 -292.5 92t-99.5 267q0 368 388 368q125 0 220 -43l-45 -123q-56 15 -87 20t-86 6q-99 2 -158 -54t-59 -164q0 -109 64 -168t173 -59q87 0 164 20l36 -128q-92 -34 -218 -34zM301 741l-58 107l191 96l192 -96l-59 -107l-133 61z" />
    <glyph glyph-name="ccircumflex" unicode="&#x109;" horiz-adv-x="537" 
d="M356 -11q-172 0 -245 67.5t-73 221.5q0 128 80.5 205t218.5 77q103 0 174 -38l-43 -121q-60 23 -124 23q-135 0 -135 -148q0 -84 31 -119t125 -35q37 0 116 14l23 -127q-91 -20 -148 -20zM454 606l-129 90l-128 -89l-73 92l202 130l196 -131z" />
    <glyph glyph-name="Cdotaccent" unicode="&#x10a;" horiz-adv-x="686" 
d="M435 -10q-193 0 -292.5 92t-99.5 267q0 368 388 368q125 0 220 -43l-45 -123q-56 15 -87 20t-86 6q-99 2 -158 -54t-59 -164q0 -109 64 -168t173 -59q87 0 164 20l36 -128q-92 -34 -218 -34zM516 849l-94 -94l-94 94l94 94z" />
    <glyph glyph-name="cdotaccent" unicode="&#x10b;" horiz-adv-x="537" 
d="M356 -11q-172 0 -245 67.5t-73 221.5q0 128 80.5 205t218.5 77q103 0 174 -38l-43 -121q-60 23 -124 23q-135 0 -135 -148q0 -84 31 -119t125 -35q37 0 116 14l23 -127q-91 -20 -148 -20zM330 604l-111 112l111 111l112 -111z" />
    <glyph glyph-name="Ccaron" unicode="&#x10c;" horiz-adv-x="686" 
d="M435 -10q-193 0 -292.5 92t-99.5 267q0 368 388 368q125 0 220 -43l-45 -123q-56 15 -87 20t-86 6q-99 2 -158 -54t-59 -164q0 -109 64 -168t173 -59q87 0 164 20l36 -128q-92 -34 -218 -34zM609 837l-192 -97l-191 97l58 106l133 -60l133 60z" />
    <glyph glyph-name="ccaron" unicode="&#x10d;" horiz-adv-x="537" 
d="M356 -11q-172 0 -245 67.5t-73 221.5q0 128 80.5 205t218.5 77q103 0 174 -38l-43 -121q-60 23 -124 23q-135 0 -135 -148q0 -84 31 -119t125 -35q37 0 116 14l23 -127q-91 -20 -148 -20zM302 580l-196 131l68 92l129 -90l128 89l73 -92z" />
    <glyph glyph-name="Dcaron" unicode="&#x10e;" horiz-adv-x="787" 
d="M78 0v707h253q192 0 302.5 -86.5t110.5 -264.5q0 -180 -105.5 -268t-301.5 -88h-259zM247 133h101q119 0 172.5 53t53.5 160q0 115 -60 171.5t-186 56.5h-81v-441zM545 837l-192 -97l-191 97l58 106l133 -60l133 60z" />
    <glyph glyph-name="dcaron" unicode="&#x10f;" horiz-adv-x="738" 
d="M283 -8q-36 0 -68 7t-65.5 27t-57.5 51.5t-39 84t-15 120.5q0 135 83 206.5t214 71.5q21 0 72 -6v200h167v-754h-167v39l-29 -21.5t-36 -16t-59 -9.5zM316 130q46 0 91 18v273q-40 7 -69 7q-134 0 -134 -149t112 -149zM772 754l-45 -220h-116l21 220h140z" />
    <glyph glyph-name="Dcroat" unicode="&#x110;" horiz-adv-x="787" 
d="M744 356q0 -180 -105.5 -268t-301.5 -88h-259v299h-74v100h74v308h253q192 0 302.5 -86.5t110.5 -264.5zM574 346q0 115 -60 171.5t-186 56.5h-81v-175h131v-100h-131v-166h101q119 0 172.5 53t53.5 160z" />
    <glyph glyph-name="dcroat" unicode="&#x111;" horiz-adv-x="642" 
d="M574 0h-167v39q-19 -15 -29 -21.5t-36.5 -15.5t-58.5 -9q-46 0 -85.5 12.5t-77.5 42.5t-60 89.5t-22 144.5q0 136 84 212t213 76q21 0 72 -6v47h-102v79h102v64h167v-64h59v-79h-59v-611zM407 148v283q-40 7 -69 7q-134 0 -134 -159q0 -148 112 -148q48 0 91 17z" />
    <glyph glyph-name="Emacron" unicode="&#x112;" horiz-adv-x="613" 
d="M78 0v707h464v-133h-294v-157h272v-124h-272v-160h317v-133h-487zM151 765v129h328v-129h-328z" />
    <glyph glyph-name="emacron" unicode="&#x113;" horiz-adv-x="596" 
d="M334 -12q-146 0 -221 61t-75 216q0 158 74 226t208 68q238 0 238 -277v-60h-354q-1 -59 39 -80.5t115 -21.5q31 0 156 22l25 -127q-91 -27 -205 -27zM209 329h178q2 51 -19.5 81.5t-61.5 30.5q-43 0 -69 -29.5t-28 -82.5zM146 647v129h328v-129h-328z" />
    <glyph glyph-name="Ebreve" unicode="&#x114;" horiz-adv-x="613" 
d="M78 0v707h464v-133h-294v-157h272v-124h-272v-160h317v-133h-487zM314 754q-132 0 -201 111l86 74q66 -62 119 -62q54 0 114 62l81 -73q-76 -112 -199 -112z" />
    <glyph glyph-name="ebreve" unicode="&#x115;" horiz-adv-x="596" 
d="M334 -12q-146 0 -221 61t-75 216q0 158 74 226t208 68q238 0 238 -277v-60h-354q-1 -59 39 -80.5t115 -21.5q31 0 156 22l25 -127q-91 -27 -205 -27zM209 329h178q2 51 -19.5 81.5t-61.5 30.5q-43 0 -69 -29.5t-28 -82.5zM314 614q-132 0 -201 111l86 74q66 -62 119 -62
q54 0 114 62l81 -73q-76 -112 -199 -112z" />
    <glyph glyph-name="Edotaccent" unicode="&#x116;" horiz-adv-x="613" 
d="M78 0v707h464v-133h-294v-157h272v-124h-272v-160h317v-133h-487zM414 849l-94 -94l-94 94l94 94z" />
    <glyph glyph-name="edotaccent" unicode="&#x117;" horiz-adv-x="596" 
d="M334 -12q-146 0 -221 61t-75 216q0 158 74 226t208 68q238 0 238 -277v-60h-354q-1 -59 39 -80.5t115 -21.5q31 0 156 22l25 -127q-91 -27 -205 -27zM209 329h178q2 51 -19.5 81.5t-61.5 30.5q-43 0 -69 -29.5t-28 -82.5zM311 604l-111 112l111 111l112 -111z" />
    <glyph glyph-name="Eogonek" unicode="&#x118;" horiz-adv-x="613" 
d="M572 -234q-59 -26 -124 -26q-153 0 -153 102q0 79 126 158h-343v707h464v-133h-294v-157h272v-124h-272v-160h317v-133l-21.5 -14l-24.5 -15.5t-23 -15.5t-22.5 -17.5t-17.5 -16.5t-13 -18t-4 -17q0 -22 33 -22q42 0 72 9z" />
    <glyph glyph-name="eogonek" unicode="&#x119;" horiz-adv-x="596" 
d="M422 -260q-80 0 -116.5 28.5t-36.5 87.5q0 64 79 135q-28 -2 -41 -2q-269 0 -269 276q0 158 74 226t208 68q238 0 238 -277v-60h-354q-1 -59 39 -80.5t115 -21.5q42 0 156 20l24 -127q-47 -27 -82 -61t-35 -66q0 -22 33 -22q42 0 72 9l28 -107q-59 -26 -132 -26zM209 330
h178q2 50 -19.5 81t-59.5 31q-42 0 -69.5 -29.5t-29.5 -82.5z" />
    <glyph glyph-name="Ecaron" unicode="&#x11a;" horiz-adv-x="613" 
d="M78 0v707h464v-133h-294v-157h272v-124h-272v-160h317v-133h-487zM503 837l-192 -97l-191 97l58 106l133 -60l133 60z" />
    <glyph glyph-name="ecaron" unicode="&#x11b;" horiz-adv-x="596" 
d="M334 -12q-146 0 -221 61t-75 216q0 158 74 226t208 68q238 0 238 -277v-60h-354q-1 -59 39 -80.5t115 -21.5q31 0 156 22l25 -127q-91 -27 -205 -27zM209 329h178q2 51 -19.5 81.5t-61.5 30.5q-43 0 -69 -29.5t-28 -82.5zM305 580l-196 131l68 92l129 -90l128 89l73 -92z
" />
    <glyph glyph-name="Gcircumflex" unicode="&#x11c;" horiz-adv-x="734" 
d="M431 -10q-182 0 -285 90t-103 269q0 189 100 278.5t296 89.5q107 0 212 -43l-45 -123l-60.5 15t-45.5 7.5t-64 3.5q-101 0 -160.5 -53t-59.5 -165t65 -169.5t168 -57.5q8 0 23 0.5t22 0.5v217h170v-319q-106 -41 -233 -41zM290 741l-58 107l191 96l192 -96l-59 -107
l-133 61z" />
    <glyph glyph-name="gcircumflex" unicode="&#x11d;" horiz-adv-x="642" 
d="M302 -221q-104 0 -226 33l26 131q115 -24 178 -24q68 0 98 17t30 72v11q-40 -28 -89 -28q-45 0 -80.5 5t-75 22t-65.5 46t-43 81.5t-17 124.5q0 135 87 212.5t216 77.5q95 0 233 -28v-537q0 -57 -25 -100.5t-66.5 -68t-87 -36t-93.5 -11.5zM328 118q49 0 79 9v286
q-36 10 -67 10q-136 0 -136 -153q0 -84 32 -118t92 -34zM483 606l-129 90l-128 -89l-73 92l202 130l196 -131z" />
    <glyph glyph-name="Gbreve" unicode="&#x11e;" horiz-adv-x="734" 
d="M431 -10q-182 0 -285 90t-103 269q0 189 100 278.5t296 89.5q107 0 212 -43l-45 -123l-60.5 15t-45.5 7.5t-64 3.5q-101 0 -160.5 -53t-59.5 -165t65 -169.5t168 -57.5q8 0 23 0.5t22 0.5v217h170v-319q-106 -41 -233 -41zM419 754q-132 0 -201 111l86 74q66 -62 119 -62
q54 0 114 62l81 -73q-76 -112 -199 -112z" />
    <glyph glyph-name="gbreve" unicode="&#x11f;" horiz-adv-x="642" 
d="M302 -221q-104 0 -226 33l26 131q115 -24 178 -24q68 0 98 17t30 72v11q-40 -28 -89 -28q-45 0 -80.5 5t-75 22t-65.5 46t-43 81.5t-17 124.5q0 135 87 212.5t216 77.5q95 0 233 -28v-537q0 -57 -25 -100.5t-66.5 -68t-87 -36t-93.5 -11.5zM328 118q49 0 79 9v286
q-36 10 -67 10q-136 0 -136 -153q0 -84 32 -118t92 -34zM339 614q-132 0 -201 111l86 74q66 -62 119 -62q54 0 114 62l81 -73q-76 -112 -199 -112z" />
    <glyph glyph-name="Gdotaccent" unicode="&#x120;" horiz-adv-x="734" 
d="M431 -10q-182 0 -285 90t-103 269q0 189 100 278.5t296 89.5q107 0 212 -43l-45 -123l-60.5 15t-45.5 7.5t-64 3.5q-101 0 -160.5 -53t-59.5 -165t65 -169.5t168 -57.5q8 0 23 0.5t22 0.5v217h170v-319q-106 -41 -233 -41zM535 849l-94 -94l-94 94l94 94z" />
    <glyph glyph-name="gdotaccent" unicode="&#x121;" horiz-adv-x="642" 
d="M302 -221q-104 0 -226 33l26 131q115 -24 178 -24q68 0 98 17t30 72v11q-40 -28 -89 -28q-45 0 -80.5 5t-75 22t-65.5 46t-43 81.5t-17 124.5q0 135 87 212.5t216 77.5q95 0 233 -28v-537q0 -57 -25 -100.5t-66.5 -68t-87 -36t-93.5 -11.5zM328 118q49 0 79 9v286
q-36 10 -67 10q-136 0 -136 -153q0 -84 32 -118t92 -34zM360 604l-111 112l111 111l112 -111z" />
    <glyph glyph-name="Gcommaaccent" unicode="&#x122;" horiz-adv-x="734" 
d="M431 -10q-182 0 -285 90t-103 269q0 189 100 278.5t296 89.5q107 0 212 -43l-45 -123l-60.5 15t-45.5 7.5t-64 3.5q-101 0 -160.5 -53t-59.5 -165t65 -169.5t168 -57.5q8 0 23 0.5t22 0.5v217h170v-319q-106 -41 -233 -41zM516 -58l-45 -220h-116l21 220h140z" />
    <glyph glyph-name="gcommaaccent" unicode="&#x123;" horiz-adv-x="642" 
d="M275 603l53 200h134l-31 -200h-156zM302 -221q-104 0 -226 33l26 131q115 -24 178 -24q68 0 98 17t30 72v11q-40 -28 -89 -28q-45 0 -80.5 5t-75 22t-65.5 46t-43 81.5t-17 124.5q0 135 87 212.5t216 77.5q95 0 233 -28v-537q0 -57 -25 -100.5t-66.5 -68t-87 -36
t-93.5 -11.5zM328 118q49 0 79 9v286q-36 10 -67 10q-136 0 -136 -153q0 -84 32 -118t92 -34z" />
    <glyph glyph-name="Hcircumflex" unicode="&#x124;" horiz-adv-x="796" 
d="M78 0v707h170v-287h300v287h170v-707h-170v291h-300v-291h-170zM265 741l-58 107l191 96l192 -96l-59 -107l-133 61z" />
    <glyph glyph-name="hcircumflex" unicode="&#x125;" horiz-adv-x="664" 
d="M68 0v754h167v-263q94 71 178 71q50 0 84.5 -11.5t53.5 -29t29.5 -48.5t13 -58.5t2.5 -71.5v-343h-166v329q0 55 -15 71.5t-58 16.5q-60 0 -122 -30v-387h-167zM18 765l-58 107l191 96l192 -96l-59 -107l-133 61z" />
    <glyph glyph-name="Hbar" unicode="&#x126;" horiz-adv-x="796" 
d="M78 0v517h-50v79h50v110h170v-110h300v110h170v-110h48v-79h-48v-517h-170v291h-300v-291h-170zM248 420h300v97h-300v-97z" />
    <glyph glyph-name="hbar" unicode="&#x127;" horiz-adv-x="664" 
d="M68 0v611h-60v79h60v64h167v-64h101v-79h-101v-120q94 71 178 71q50 0 84.5 -11.5t53.5 -29t29.5 -48.5t13 -58.5t2.5 -71.5v-343h-166v329q0 55 -15 71.5t-58 16.5q-60 0 -122 -30v-387h-167z" />
    <glyph glyph-name="Itilde" unicode="&#x128;" horiz-adv-x="326" 
d="M78 0v707h170v-707h-170zM216 755q-27 0 -68.5 19t-59.5 19q-38 0 -70 -28l-63 74q68 82 144 82q35 0 72.5 -19t50.5 -19q38 0 87 26l55 -74q-74 -80 -148 -80z" />
    <glyph glyph-name="itilde" unicode="&#x129;" horiz-adv-x="303" 
d="M68 0v546h167v-546h-167zM205 634q-27 0 -68.5 19t-59.5 19q-38 0 -70 -28l-63 74q68 82 144 82q35 0 72.5 -19t50.5 -19q38 0 87 26l55 -74q-74 -80 -148 -80z" />
    <glyph glyph-name="Imacron" unicode="&#x12a;" horiz-adv-x="326" 
d="M78 0v707h170v-707h-170zM-3 765v129h328v-129h-328z" />
    <glyph glyph-name="imacron" unicode="&#x12b;" horiz-adv-x="303" 
d="M68 0v546h167v-546h-167zM-12 647v129h328v-129h-328z" />
    <glyph glyph-name="Ibreve" unicode="&#x12c;" horiz-adv-x="326" 
d="M78 0v707h170v-707h-170zM163 754q-132 0 -201 111l86 74q66 -62 119 -62q54 0 114 62l81 -73q-76 -112 -199 -112z" />
    <glyph glyph-name="ibreve" unicode="&#x12d;" horiz-adv-x="303" 
d="M68 0v546h167v-546h-167zM148 614q-132 0 -201 111l86 74q66 -62 119 -62q54 0 114 62l81 -73q-76 -112 -199 -112z" />
    <glyph glyph-name="Iogonek" unicode="&#x12e;" horiz-adv-x="326" 
d="M285 -234q-59 -26 -124 -26q-85 0 -119.5 31t-34.5 93q0 56 71 120v722h170v-706q-96 -62 -96 -114q0 -22 33 -22q42 0 72 9z" />
    <glyph glyph-name="iogonek" unicode="&#x12f;" horiz-adv-x="303" 
d="M148 -260q-85 0 -121 31t-36 93q0 60 78 127v555h166v-546q-110 -71 -110 -114q0 -13 12 -20t30 -7q31 0 77 14l28 -107q-59 -26 -124 -26zM151 604l-111 112l111 111l112 -111z" />
    <glyph glyph-name="Idotaccent" unicode="&#x130;" horiz-adv-x="326" 
d="M78 0v707h170v-707h-170zM255 849l-94 -94l-94 94l94 94z" />
    <glyph glyph-name="dotlessi" unicode="&#x131;" horiz-adv-x="303" 
d="M68 0v546h167v-546h-167z" />
    <glyph glyph-name="IJ" unicode="&#x132;" horiz-adv-x="641" 
d="M78 0v707h170v-707h-170zM309 -198l-61 122q89 49 117 93.5t28 133.5v556h171v-554q0 -49 -4 -84.5t-18.5 -78t-41.5 -74t-75 -62t-116 -52.5z" />
    <glyph glyph-name="ij" unicode="&#x133;" horiz-adv-x="600" 
d="M68 0v546h167v-546h-167zM308 -220q-65 0 -128 23l31 129q61 -11 92 -11q34 0 47 16.5t13 65.5v543h166v-544q0 -68 -17.5 -114t-50.5 -68.5t-68.5 -31t-84.5 -8.5zM150 604l-111 112l111 111l112 -111zM446 604l-111 112l111 111l112 -111z" />
    <glyph glyph-name="Jcircumflex" unicode="&#x134;" horiz-adv-x="326" 
d="M-6 -198l-61 122q89 49 117 93.5t28 133.5v556h171v-554q0 -49 -4 -84.5t-18.5 -78t-41.5 -74t-75 -62t-116 -52.5zM27 741l-58 107l191 96l192 -96l-59 -107l-133 61z" />
    <glyph glyph-name="jcircumflex" unicode="&#x135;" horiz-adv-x="303" 
d="M14 -220q-65 0 -128 23l31 129q61 -11 92 -11q34 0 47 16.5t13 65.5v543h166v-544q0 -68 -17.5 -114t-50.5 -68.5t-68.5 -31t-84.5 -8.5zM280 606l-129 90l-128 -89l-73 92l202 130l196 -131z" />
    <glyph glyph-name="Kcommaaccent" unicode="&#x136;" horiz-adv-x="731" 
d="M78 0v707h170v-303l242 303h217l-286 -331l302 -376h-217l-258 355v-355h-170zM442 -58l-45 -220h-116l21 220h140z" />
    <glyph glyph-name="kcommaaccent" unicode="&#x137;" horiz-adv-x="596" 
d="M68 0v754h167v-412l151 203h179l-199 -251l78 -89q33 -37 62 -58t77 -33l-19 -126q-79 4 -131.5 24t-100.5 83l-97 127v-222h-167zM399 -58l-45 -220h-116l21 220h140z" />
    <glyph glyph-name="Lacute" unicode="&#x139;" horiz-adv-x="573" 
d="M78 0v707h170v-573h307v-134h-477zM93 744l-23 113l271 67l27 -131z" />
    <glyph glyph-name="lacute" unicode="&#x13a;" horiz-adv-x="303" 
d="M68 0v754h167v-754h-167zM82 797l-23 113l271 67l27 -131z" />
    <glyph glyph-name="Lcommaaccent" unicode="&#x13b;" horiz-adv-x="573" 
d="M78 0v707h170v-573h307v-134h-477zM375 -58l-45 -220h-116l21 220h140z" />
    <glyph glyph-name="lcommaaccent" unicode="&#x13c;" horiz-adv-x="303" 
d="M68 0v754h167v-754h-167zM222 -58l-45 -220h-116l21 220h140z" />
    <glyph glyph-name="Lcaron" unicode="&#x13d;" horiz-adv-x="573" 
d="M78 0v707h170v-573h307v-134h-477zM525 793l-45 -220h-116l21 220h140z" />
    <glyph glyph-name="lcaron" unicode="&#x13e;" horiz-adv-x="410" 
d="M68 0v754h167v-754h-167zM436 754l-45 -220h-116l21 220h140z" />
    <glyph glyph-name="Ldot" unicode="&#x13f;" horiz-adv-x="573" 
d="M78 0v707h170v-573h307v-134h-477zM446 273l-115 116l115 115l115 -115z" />
    <glyph glyph-name="ldot" unicode="&#x140;" horiz-adv-x="489" 
d="M68 0v754h167v-754h-167zM389 273l-115 116l115 115l115 -115z" />
    <glyph glyph-name="Lslash" unicode="&#x141;" horiz-adv-x="573" 
d="M555 0h-477v257l-70 -41v114l70 40v337h170v-239l108 62v-112l-108 -63v-221h307v-134z" />
    <glyph glyph-name="lslash" unicode="&#x142;" horiz-adv-x="303" 
d="M326 448l-91 -53v-395h-167v299l-90 -53l-1 114l91 52v342h167v-246l91 52v-112z" />
    <glyph glyph-name="Nacute" unicode="&#x143;" horiz-adv-x="796" 
d="M78 0v707h197l278 -485l-5 79v406h170v-707h-203l-271 473l4 -94v-379h-170zM289 744l-23 113l271 67l27 -131z" />
    <glyph glyph-name="nacute" unicode="&#x144;" horiz-adv-x="664" 
d="M68 0v546h167v-55q91 69 178 69q50 0 84.5 -11.5t53.5 -28.5t29.5 -48t13 -59t2.5 -71v-342h-166v328q0 55 -15 71.5t-58 16.5q-62 0 -122 -29v-387h-167zM257 602l-47 100l238 121l54 -117z" />
    <glyph glyph-name="Ncommaaccent" unicode="&#x145;" horiz-adv-x="796" 
d="M78 0v707h197l278 -485l-5 79v406h170v-707h-203l-271 473l4 -94v-379h-170zM471 -58l-45 -220h-116l21 220h140z" />
    <glyph glyph-name="ncommaaccent" unicode="&#x146;" horiz-adv-x="664" 
d="M68 0v546h167v-55q91 69 178 69q50 0 84.5 -11.5t53.5 -28.5t29.5 -48t13 -59t2.5 -71v-342h-166v328q0 55 -15 71.5t-58 16.5q-62 0 -122 -29v-387h-167zM405 -58l-45 -220h-116l21 220h140z" />
    <glyph glyph-name="Ncaron" unicode="&#x147;" horiz-adv-x="796" 
d="M78 0v707h197l278 -485l-5 79v406h170v-707h-203l-271 473l4 -94v-379h-170zM587 837l-192 -97l-191 97l58 106l133 -60l133 60z" />
    <glyph glyph-name="ncaron" unicode="&#x148;" horiz-adv-x="664" 
d="M68 0v546h167v-55q91 69 178 69q50 0 84.5 -11.5t53.5 -28.5t29.5 -48t13 -59t2.5 -71v-342h-166v328q0 55 -15 71.5t-58 16.5q-62 0 -122 -29v-387h-167zM328 580l-196 131l68 92l129 -90l128 89l73 -92z" />
    <glyph glyph-name="napostrophe" unicode="&#x149;" horiz-adv-x="664" 
d="M68 0v546h167v-55q91 69 178 69q50 0 84.5 -11.5t53.5 -28.5t29.5 -48t13 -59t2.5 -71v-342h-166v328q0 55 -15 71.5t-58 16.5q-62 0 -122 -29v-387h-167zM-128 485q32 59 32 134v136h151v-98q0 -96 -63 -172h-120z" />
    <glyph glyph-name="Eng" unicode="&#x14a;" horiz-adv-x="796" 
d="M496 -220q-65 0 -128 23l31 129q61 -11 92 -11q30 0 45 13t15 46v20h-36l-271 473l4 -94v-379h-170v707h197l278 -485l-5 79v406h170l-1 -707q0 -68 -18 -113.5t-51 -67.5t-68.5 -30.5t-83.5 -8.5z" />
    <glyph glyph-name="eng" unicode="&#x14b;" horiz-adv-x="664" 
d="M596 2q0 -68 -17.5 -114t-50.5 -68.5t-68.5 -31t-84.5 -8.5q-65 0 -128 23l31 129q61 -11 92 -11q34 0 47 16.5t13 65.5v326q0 55 -15 71.5t-58 16.5q-60 0 -122 -30v-387h-167v546h167v-55q94 71 178 71q50 0 84.5 -11.5t53.5 -29t29.5 -48.5t13 -58.5t2.5 -71.5v-341z
" />
    <glyph glyph-name="Omacron" unicode="&#x14c;" horiz-adv-x="843" 
d="M413 -12q-183 0 -276.5 96.5t-93.5 270.5q0 168 104.5 265.5t284.5 97.5q185 0 276.5 -99t91.5 -266q0 -171 -100 -268t-287 -97zM416 122q111 0 161 62.5t50 169.5q0 105 -50.5 167.5t-153.5 62.5q-107 0 -157.5 -62t-50.5 -166t49.5 -169t151.5 -65zM266 765v129h328
v-129h-328z" />
    <glyph glyph-name="omacron" unicode="&#x14d;" horiz-adv-x="643" 
d="M315 -12q-133 0 -205 75t-72 205q0 135 77.5 213.5t208.5 78.5q142 0 211.5 -75t69.5 -212q0 -136 -80 -210.5t-210 -74.5zM323 121q64 0 88 38t24 114q0 74 -25 114.5t-89 40.5q-115 0 -115 -156q0 -75 26.5 -113t90.5 -38zM154 647v129h328v-129h-328z" />
    <glyph glyph-name="Obreve" unicode="&#x14e;" horiz-adv-x="843" 
d="M413 -12q-183 0 -276.5 96.5t-93.5 270.5q0 168 104.5 265.5t284.5 97.5q185 0 276.5 -99t91.5 -266q0 -171 -100 -268t-287 -97zM416 122q111 0 161 62.5t50 169.5q0 105 -50.5 167.5t-153.5 62.5q-107 0 -157.5 -62t-50.5 -166t49.5 -169t151.5 -65zM426 754
q-132 0 -201 111l86 74q66 -62 119 -62q54 0 114 62l81 -73q-76 -112 -199 -112z" />
    <glyph glyph-name="obreve" unicode="&#x14f;" horiz-adv-x="643" 
d="M315 -12q-133 0 -205 75t-72 205q0 135 77.5 213.5t208.5 78.5q142 0 211.5 -75t69.5 -212q0 -136 -80 -210.5t-210 -74.5zM323 121q64 0 88 38t24 114q0 74 -25 114.5t-89 40.5q-115 0 -115 -156q0 -75 26.5 -113t90.5 -38zM323 614q-132 0 -201 111l86 74
q66 -62 119 -62q54 0 114 62l81 -73q-76 -112 -199 -112z" />
    <glyph glyph-name="Ohungarumlaut" unicode="&#x150;" horiz-adv-x="843" 
d="M413 -12q-183 0 -276.5 96.5t-93.5 270.5q0 168 104.5 265.5t284.5 97.5q185 0 276.5 -99t91.5 -266q0 -171 -100 -268t-287 -97zM416 122q111 0 161 62.5t50 169.5q0 105 -50.5 167.5t-153.5 62.5q-107 0 -157.5 -62t-50.5 -166t49.5 -169t151.5 -65zM482 889l-234 -154
l-67 96l223 167zM780 787l-276 -49l-23 114l271 66z" />
    <glyph glyph-name="ohungarumlaut" unicode="&#x151;" horiz-adv-x="643" 
d="M315 -12q-133 0 -205 75t-72 205q0 135 77.5 213.5t208.5 78.5q142 0 211.5 -75t69.5 -212q0 -136 -80 -210.5t-210 -74.5zM323 121q64 0 88 38t24 114q0 74 -25 114.5t-89 40.5q-115 0 -115 -156q0 -75 26.5 -113t90.5 -38zM172 595l-72 80l190 181l83 -94zM395 594
l-46 97l236 117l53 -113z" />
    <glyph glyph-name="OE" unicode="&#x152;" horiz-adv-x="1119" 
d="M413 -12q-183 0 -276.5 96.5t-93.5 270.5q0 177 102.5 270t286.5 93q96 0 152 -27v16h464v-133h-294v-157h272v-124h-272v-160h317v-133h-487v21q-62 -33 -171 -33zM416 122q115 0 168 72v318q-53 72 -161 72q-107 0 -157.5 -62t-50.5 -166t49.5 -169t151.5 -65z" />
    <glyph glyph-name="oe" unicode="&#x153;" horiz-adv-x="993" 
d="M315 -12q-133 0 -205 75t-72 205q0 135 77.5 213.5t208.5 78.5q126 0 195 -60q70 59 198 59q238 0 238 -277v-60h-354q0 -54 35.5 -78t110.5 -24q70 0 163 22l26 -129q-75 -22 -205 -22q-150 0 -220 59q-77 -62 -196 -62zM323 121q64 0 88 38t24 114q0 74 -25 114.5
t-89 40.5q-115 0 -115 -156q0 -75 26.5 -113t90.5 -38zM606 330h178q-1 51 -23.5 81.5t-59.5 30.5q-41 0 -67 -29.5t-28 -82.5z" />
    <glyph glyph-name="Racute" unicode="&#x154;" horiz-adv-x="752" 
d="M706 -13q-94 5 -157 46t-130 119l-80 93q-12 -1 -38 -1h-52v-244h-171v707h275q125 0 199 -58.5t74 -172.5q0 -126 -114 -191l72 -78q59 -64 160 -90zM249 363h58q144 0 144 109q0 54 -26.5 77.5t-93.5 23.5h-82v-210zM230 744l-23 113l271 67l27 -131z" />
    <glyph glyph-name="racute" unicode="&#x155;" horiz-adv-x="441" 
d="M68 0v546h167v-73q65 84 141 84q45 0 75 -9l-22 -137q-32 6 -73 6q-35 0 -69.5 -14t-51.5 -33v-370h-167zM178 602l-47 100l238 121l54 -117z" />
    <glyph glyph-name="Rcommaaccent" unicode="&#x156;" horiz-adv-x="752" 
d="M706 -13q-94 5 -157 46t-130 119l-80 93q-12 -1 -38 -1h-52v-244h-171v707h275q125 0 199 -58.5t74 -172.5q0 -126 -114 -191l72 -78q59 -64 160 -90zM249 363h58q144 0 144 109q0 54 -26.5 77.5t-93.5 23.5h-82v-210zM476 -58l-45 -220h-116l21 220h140z" />
    <glyph glyph-name="rcommaaccent" unicode="&#x157;" horiz-adv-x="441" 
d="M68 0v546h167v-73q65 84 141 84q45 0 75 -9l-22 -137q-32 6 -73 6q-35 0 -69.5 -14t-51.5 -33v-370h-167zM220 -58l-45 -220h-116l21 220h140z" />
    <glyph glyph-name="Rcaron" unicode="&#x158;" horiz-adv-x="752" 
d="M706 -13q-94 5 -157 46t-130 119l-80 93q-12 -1 -38 -1h-52v-244h-171v707h275q125 0 199 -58.5t74 -172.5q0 -126 -114 -191l72 -78q59 -64 160 -90zM249 363h58q144 0 144 109q0 54 -26.5 77.5t-93.5 23.5h-82v-210zM512 837l-192 -97l-191 97l58 106l133 -60l133 60z
" />
    <glyph glyph-name="rcaron" unicode="&#x159;" horiz-adv-x="441" 
d="M68 0v546h167v-73q65 84 141 84q45 0 75 -9l-22 -137q-32 6 -73 6q-35 0 -69.5 -14t-51.5 -33v-370h-167zM226 580l-196 131l68 92l129 -90l128 89l73 -92z" />
    <glyph glyph-name="Sacute" unicode="&#x15a;" horiz-adv-x="597" 
d="M265 -11q-146 0 -237 50l48 122q92 -32 187 -32q124 0 124 69q0 26 -25 47t-62 34.5t-81 34t-81 43.5t-62 66t-25 99q0 95 75 145t179 50q52 0 96.5 -8t66 -16t58.5 -24l-49 -118q-101 29 -167 29q-93 0 -93 -57q0 -22 25.5 -41t63.5 -33.5t82 -36t82 -46.5t63.5 -67
t25.5 -95q0 -56 -25 -98.5t-67.5 -67.5t-93.5 -37t-108 -12zM196 744l-23 113l271 67l27 -131z" />
    <glyph glyph-name="sacute" unicode="&#x15b;" horiz-adv-x="512" 
d="M234 -12q-119 0 -199 23l18 126q106 -15 165 -15q94 0 94 38q0 13 -20.5 23.5t-51 17.5t-66 21t-66 32t-51 52.5t-20.5 80.5q0 84 67 128.5t163 44.5t184 -31l-28 -121q-88 20 -151 20q-26 0 -42.5 -6t-21 -13t-4.5 -14q0 -14 20 -26t50.5 -20t66 -22.5t66 -32.5
t50.5 -51t20 -76q0 -51 -24.5 -88t-63.5 -56t-77.5 -27t-77.5 -8zM167 602l-47 100l238 121l54 -117z" />
    <glyph glyph-name="Scircumflex" unicode="&#x15c;" horiz-adv-x="597" 
d="M265 -11q-146 0 -237 50l48 122q92 -32 187 -32q124 0 124 69q0 26 -25 47t-62 34.5t-81 34t-81 43.5t-62 66t-25 99q0 95 75 145t179 50q52 0 96.5 -8t66 -16t58.5 -24l-49 -118q-101 29 -167 29q-93 0 -93 -57q0 -22 25.5 -41t63.5 -33.5t82 -36t82 -46.5t63.5 -67
t25.5 -95q0 -56 -25 -98.5t-67.5 -67.5t-93.5 -37t-108 -12zM182 741l-58 107l191 96l192 -96l-59 -107l-133 61z" />
    <glyph glyph-name="scircumflex" unicode="&#x15d;" horiz-adv-x="512" 
d="M234 -12q-119 0 -199 23l18 126q106 -15 165 -15q94 0 94 38q0 13 -20.5 23.5t-51 17.5t-66 21t-66 32t-51 52.5t-20.5 80.5q0 84 67 128.5t163 44.5t184 -31l-28 -121q-88 20 -151 20q-26 0 -42.5 -6t-21 -13t-4.5 -14q0 -14 20 -26t50.5 -20t66 -22.5t66 -32.5
t50.5 -51t20 -76q0 -51 -24.5 -88t-63.5 -56t-77.5 -27t-77.5 -8zM386 606l-129 90l-128 -89l-73 92l202 130l196 -131z" />
    <glyph glyph-name="Scedilla" unicode="&#x15e;" horiz-adv-x="597" 
d="M265 -11q-146 0 -237 50l48 122q92 -32 187 -32q124 0 124 69q0 26 -25 47t-62 34.5t-81 34t-81 43.5t-62 66t-25 99q0 95 75 145t179 50q52 0 96.5 -8t66 -16t58.5 -24l-49 -118q-101 29 -167 29q-93 0 -93 -57q0 -22 25.5 -41t63.5 -33.5t82 -36t82 -46.5t63.5 -67
t25.5 -95q0 -56 -25 -98.5t-67.5 -67.5t-93.5 -37t-108 -12zM223 -283l-57 100q4 2 17 9t21 12t18 13t15 17t5 19q0 14 -12 62h129q22 -50 22 -81q0 -29 -14.5 -53.5t-42 -43.5t-49.5 -30t-52 -24z" />
    <glyph glyph-name="scedilla" unicode="&#x15f;" horiz-adv-x="512" 
d="M234 -12q-119 0 -199 23l18 126q106 -15 165 -15q94 0 94 38q0 13 -20.5 23.5t-51 17.5t-66 21t-66 32t-51 52.5t-20.5 80.5q0 84 67 128.5t163 44.5t184 -31l-28 -121q-88 20 -151 20q-26 0 -42.5 -6t-21 -13t-4.5 -14q0 -14 20 -26t50.5 -20t66 -22.5t66 -32.5
t50.5 -51t20 -76q0 -51 -24.5 -88t-63.5 -56t-77.5 -27t-77.5 -8zM211 -283l-57 100q4 2 17 9t21 12t18 13t15 17t5 19q0 14 -12 62h129q22 -50 22 -81q0 -29 -14.5 -53.5t-42 -43.5t-49.5 -30t-52 -24z" />
    <glyph glyph-name="Scaron" unicode="&#x160;" horiz-adv-x="597" 
d="M265 -11q-146 0 -237 50l48 122q92 -32 187 -32q124 0 124 69q0 26 -25 47t-62 34.5t-81 34t-81 43.5t-62 66t-25 99q0 95 75 145t179 50q52 0 96.5 -8t66 -16t58.5 -24l-49 -118q-101 29 -167 29q-93 0 -93 -57q0 -22 25.5 -41t63.5 -33.5t82 -36t82 -46.5t63.5 -67
t25.5 -95q0 -56 -25 -98.5t-67.5 -67.5t-93.5 -37t-108 -12zM483 837l-192 -97l-191 97l58 106l133 -60l133 60z" />
    <glyph glyph-name="scaron" unicode="&#x161;" horiz-adv-x="512" 
d="M234 -12q-119 0 -199 23l18 126q106 -15 165 -15q94 0 94 38q0 13 -20.5 23.5t-51 17.5t-66 21t-66 32t-51 52.5t-20.5 80.5q0 84 67 128.5t163 44.5t184 -31l-28 -121q-88 20 -151 20q-26 0 -42.5 -6t-21 -13t-4.5 -14q0 -14 20 -26t50.5 -20t66 -22.5t66 -32.5
t50.5 -51t20 -76q0 -51 -24.5 -88t-63.5 -56t-77.5 -27t-77.5 -8zM252 580l-196 131l68 92l129 -90l128 89l73 -92z" />
    <glyph glyph-name="Tcommaaccent" unicode="&#x162;" horiz-adv-x="630" 
d="M230 0v574h-222v133h614v-133h-222v-574h-170zM384 -58l-45 -220h-116l21 220h140z" />
    <glyph glyph-name="tcommaaccent" unicode="&#x163;" horiz-adv-x="466" 
d="M316 -11h-8q-30 0 -45.5 0.5t-42.5 4t-42.5 10t-35 19.5t-29.5 32t-17.5 48t-7.5 67v253h-80v123h80v112h166v-112h169v-123h-169v-252q0 -28 12 -35.5t48 -7.5q16 0 45.5 3l50.5 5l22 3l16 -131q-67 -19 -132 -19zM359 -58l-45 -220h-116l21 220h140z" />
    <glyph glyph-name="Tcaron" unicode="&#x164;" horiz-adv-x="630" 
d="M230 0v574h-222v133h614v-133h-222v-574h-170zM506 837l-192 -97l-191 97l58 106l133 -60l133 60z" />
    <glyph glyph-name="tcaron" unicode="&#x165;" horiz-adv-x="512" 
d="M316 -11h-8q-30 0 -45.5 0.5t-42.5 4t-42.5 10t-35 19.5t-29.5 32t-17.5 48t-7.5 67v253h-80v123h80v112h166v-112h169v-123h-169v-252q0 -28 12 -35.5t48 -7.5q16 0 45.5 3l50.5 5l22 3l16 -131q-67 -19 -132 -19zM491 803l-45 -220h-116l21 220h140z" />
    <glyph glyph-name="Tbar" unicode="&#x166;" horiz-adv-x="630" 
d="M230 0v318h-141v79h141v177h-222v133h614v-133h-222v-177h141v-79h-141v-318h-170z" />
    <glyph glyph-name="tbar" unicode="&#x167;" horiz-adv-x="466" 
d="M316 -11h-8q-30 0 -45.5 0.5t-42.5 4t-42.5 10t-35 19.5t-29.5 32t-17.5 48t-7.5 67v99h-54v79h54v75h-80v123h80v112h166v-112h169v-123h-169v-75h116v-79h-116v-98q0 -28 12 -35.5t48 -7.5q16 0 45.5 3l50.5 5l22 3l16 -131q-67 -19 -132 -19z" />
    <glyph glyph-name="Utilde" unicode="&#x168;" horiz-adv-x="799" 
d="M402 -13q-65 0 -121 15.5t-104 48.5t-76 94t-28 143v419h172v-413q0 -168 157 -168t157 189v392h167v-395q0 -89 -28 -154.5t-75.5 -101.5t-102.5 -52.5t-118 -16.5zM446 755q-27 0 -68.5 19t-59.5 19q-38 0 -70 -28l-63 74q68 82 144 82q35 0 72.5 -19t50.5 -19
q38 0 87 26l55 -74q-74 -80 -148 -80z" />
    <glyph glyph-name="utilde" unicode="&#x169;" horiz-adv-x="664" 
d="M251 -12q-50 0 -84.5 11.5t-53.5 29t-29.5 48.5t-13 58.5t-2.5 71.5v339h166v-325q0 -55 15 -71.5t58 -16.5q66 0 122 27v386h167v-546h-167v56q-90 -68 -178 -68zM386 634q-27 0 -68.5 19t-59.5 19q-38 0 -70 -28l-63 74q68 82 144 82q35 0 72.5 -19t50.5 -19
q38 0 87 26l55 -74q-74 -80 -148 -80z" />
    <glyph glyph-name="Umacron" unicode="&#x16a;" horiz-adv-x="799" 
d="M402 -13q-65 0 -121 15.5t-104 48.5t-76 94t-28 143v419h172v-413q0 -168 157 -168t157 189v392h167v-395q0 -89 -28 -154.5t-75.5 -101.5t-102.5 -52.5t-118 -16.5zM238 765v129h328v-129h-328z" />
    <glyph glyph-name="umacron" unicode="&#x16b;" horiz-adv-x="664" 
d="M251 -12q-50 0 -84.5 11.5t-53.5 29t-29.5 48.5t-13 58.5t-2.5 71.5v339h166v-325q0 -55 15 -71.5t58 -16.5q66 0 122 27v386h167v-546h-167v56q-90 -68 -178 -68zM178 647v129h328v-129h-328z" />
    <glyph glyph-name="Ubreve" unicode="&#x16c;" horiz-adv-x="799" 
d="M402 -13q-65 0 -121 15.5t-104 48.5t-76 94t-28 143v419h172v-413q0 -168 157 -168t157 189v392h167v-395q0 -89 -28 -154.5t-75.5 -101.5t-102.5 -52.5t-118 -16.5zM399 754q-132 0 -201 111l86 74q66 -62 119 -62q54 0 114 62l81 -73q-76 -112 -199 -112z" />
    <glyph glyph-name="ubreve" unicode="&#x16d;" horiz-adv-x="664" 
d="M251 -12q-50 0 -84.5 11.5t-53.5 29t-29.5 48.5t-13 58.5t-2.5 71.5v339h166v-325q0 -55 15 -71.5t58 -16.5q66 0 122 27v386h167v-546h-167v56q-90 -68 -178 -68zM329 614q-132 0 -201 111l86 74q66 -62 119 -62q54 0 114 62l81 -73q-76 -112 -199 -112z" />
    <glyph glyph-name="Uring" unicode="&#x16e;" horiz-adv-x="799" 
d="M402 -13q-65 0 -121 15.5t-104 48.5t-76 94t-28 143v419h172v-413q0 -168 157 -168t157 189v392h167v-395q0 -89 -28 -154.5t-75.5 -101.5t-102.5 -52.5t-118 -16.5zM403 701q-62 0 -106 29t-44 97q0 65 43.5 99.5t103.5 34.5q24 0 48 -6.5t48 -20.5t38.5 -41t14.5 -64
q0 -64 -42 -96t-104 -32zM401 772q56 0 61 56q0 25 -17 40.5t-44 15.5q-61 0 -61 -54q0 -27 16 -42.5t45 -15.5z" />
    <glyph glyph-name="uring" unicode="&#x16f;" horiz-adv-x="664" 
d="M251 -12q-50 0 -84.5 11.5t-53.5 29t-29.5 48.5t-13 58.5t-2.5 71.5v339h166v-325q0 -55 15 -71.5t58 -16.5q66 0 122 27v386h167v-546h-167v56q-90 -68 -178 -68zM334 586q-62 0 -106 29t-44 97q0 65 43.5 99.5t103.5 34.5q24 0 48 -6.5t48 -20.5t38.5 -41t14.5 -64
q0 -64 -42 -96t-104 -32zM332 657q56 0 61 56q0 25 -17 40.5t-44 15.5q-61 0 -61 -54q0 -27 16 -42.5t45 -15.5z" />
    <glyph glyph-name="Uhungarumlaut" unicode="&#x170;" horiz-adv-x="799" 
d="M402 -13q-65 0 -121 15.5t-104 48.5t-76 94t-28 143v419h172v-413q0 -168 157 -168t157 189v392h167v-395q0 -89 -28 -154.5t-75.5 -101.5t-102.5 -52.5t-118 -16.5zM439 889l-234 -154l-67 96l223 167zM737 787l-276 -49l-23 114l271 66z" />
    <glyph glyph-name="uhungarumlaut" unicode="&#x171;" horiz-adv-x="664" 
d="M251 -12q-50 0 -84.5 11.5t-53.5 29t-29.5 48.5t-13 58.5t-2.5 71.5v339h166v-325q0 -55 15 -71.5t58 -16.5q66 0 122 27v386h167v-546h-167v56q-90 -68 -178 -68zM160 595l-72 80l190 181l83 -94zM383 594l-46 97l236 117l53 -113z" />
    <glyph glyph-name="Uogonek" unicode="&#x172;" horiz-adv-x="799" 
d="M433 -260q-162 0 -162 117q0 35 28.5 75.5t65.5 61.5q-20 -2 -31 -2q-109 0 -185 72.5t-76 203.5v439h172v-433q0 -79 37 -112t120 -33t120 37t37 129v412h167v-415q0 -241 -206 -292q-45 -19 -76.5 -50.5t-31.5 -60.5q0 -13 13.5 -21t30.5 -8q30 0 73 13l28 -107
q-59 -26 -124 -26z" />
    <glyph glyph-name="uogonek" unicode="&#x173;" horiz-adv-x="664" 
d="M633 -234q-59 -26 -124 -26q-88 0 -125 26.5t-37 85.5t82 133v71q-94 -71 -178 -71q-50 0 -84.5 11.5t-53.5 29t-29.5 48.5t-13 58.5t-2.5 71.5v342h166v-328q0 -55 15 -71.5t58 -16.5q60 0 122 30v386h167v-546q-110 -71 -110 -114q0 -27 38 -27q35 0 81 14z" />
    <glyph glyph-name="Wcircumflex" unicode="&#x174;" horiz-adv-x="1061" 
d="M166 0l-152 707h165l110 -599l164 427l-60 172h169l185 -593l138 593h162l-194 -707h-214l-122 362l-132 -362h-219zM385 741l-58 107l191 96l192 -96l-59 -107l-133 61z" />
    <glyph glyph-name="wcircumflex" unicode="&#x175;" horiz-adv-x="904" 
d="M148 0l-140 546h175l70 -410l100 410h197l85 -410l90 410h171l-162 -546h-205l-64 298l-18 91l-21 -91l-71 -298h-207zM582 606l-129 90l-128 -89l-73 92l202 130l196 -131z" />
    <glyph glyph-name="Ycircumflex" unicode="&#x176;" horiz-adv-x="709" 
d="M261 0v227l-261 480h196l156 -337l166 337h191l-278 -474v-233h-170zM221 741l-58 107l191 96l192 -96l-59 -107l-133 61z" />
    <glyph glyph-name="ycircumflex" unicode="&#x177;" horiz-adv-x="616" 
d="M182 -220l74 220h-60l-188 546h179l94 -324l23 -89l27 89l109 324h168l-267 -766h-159zM438 606l-129 90l-128 -89l-73 92l202 130l196 -131z" />
    <glyph glyph-name="Ydieresis" unicode="&#x178;" horiz-adv-x="709" 
d="M261 0v227l-261 480h196l156 -337l166 337h191l-278 -474v-233h-170zM227 737l-99 100l99 100l100 -100zM471 737l-100 100l100 100l99 -100z" />
    <glyph glyph-name="Zacute" unicode="&#x179;" horiz-adv-x="611" 
d="M28 0v114l325 452h-299v141h508v-108l-329 -458h350v-141h-555zM214 744l-23 113l271 67l27 -131z" />
    <glyph glyph-name="zacute" unicode="&#x17a;" horiz-adv-x="532" 
d="M38 0v109l256 303h-240v134h436v-106l-250 -308h254v-132h-456zM177 602l-47 100l238 121l54 -117z" />
    <glyph glyph-name="Zdotaccent" unicode="&#x17b;" horiz-adv-x="611" 
d="M28 0v114l325 452h-299v141h508v-108l-329 -458h350v-141h-555zM405 849l-94 -94l-94 94l94 94z" />
    <glyph glyph-name="zdotaccent" unicode="&#x17c;" horiz-adv-x="532" 
d="M38 0v109l256 303h-240v134h436v-106l-250 -308h254v-132h-456zM287 604l-111 112l111 111l112 -111z" />
    <glyph glyph-name="Zcaron" unicode="&#x17d;" horiz-adv-x="611" 
d="M28 0v114l325 452h-299v141h508v-108l-329 -458h350v-141h-555zM493 837l-192 -97l-191 97l58 106l133 -60l133 60z" />
    <glyph glyph-name="zcaron" unicode="&#x17e;" horiz-adv-x="532" 
d="M38 0v109l256 303h-240v134h436v-106l-250 -308h254v-132h-456zM262 580l-196 131l68 92l129 -90l128 89l73 -92z" />
    <glyph glyph-name="florin" unicode="&#x192;" horiz-adv-x="542" 
d="M57 -64l-5 137q5 0 28 1.5t30.5 2.5t25.5 4t25 8t17 13t14 20t4 28v70h-103v134h103v60q0 111 73.5 159.5t209.5 48.5l11 -142q-81 -6 -102 -17q-29 -15 -29 -52v-57h118v-134h-118v-72q0 -48 -13 -84t-45 -66.5t-93.5 -46t-150.5 -15.5z" />
    <glyph glyph-name="uni01D4" unicode="&#x1d4;" horiz-adv-x="664" 
d="M251 -12q-50 0 -84.5 11.5t-53.5 29t-29.5 48.5t-13 58.5t-2.5 71.5v339h166v-325q0 -55 15 -71.5t58 -16.5q66 0 122 27v386h167v-546h-167v56q-90 -68 -178 -68zM332 580l-196 131l68 92l129 -90l128 89l73 -92z" />
    <glyph glyph-name="AEmacron" unicode="&#x1e2;" horiz-adv-x="996" 
d="M-12 0l332 707h605v-133h-294v-157h272v-124h-272v-160h317v-133h-487v244h-179l-102 -244h-192zM333 368h128v206h-42zM433 765v129h328v-129h-328z" />
    <glyph glyph-name="aemacron" unicode="&#x1e3;" horiz-adv-x="925" 
d="M663 -9q-177 0 -244 83q-92 -82 -193 -82q-91 0 -139.5 40.5t-48.5 121.5q0 41 14.5 71t36 46.5t55 26.5t62 13t66.5 4q65 3 95 3v44q0 34 -22 45t-77 11q-61 0 -163 -24l-33 121q117 44 221 44q136 0 187 -39q64 39 169 39q238 0 238 -277v-53l-354 -8
q-1 -59 38.5 -79.5t114.5 -20.5q49 0 157 19l25 -127q-75 -22 -205 -22zM246 122q62 0 138 20q-11 34 -15 74l-84 -2q-31 -1 -49.5 -5t-25 -13t-8 -14.5t-1.5 -18.5q0 -41 45 -41zM538 329l178 7q1 47 -22.5 75t-56.5 28q-42 0 -70.5 -27.5t-28.5 -82.5zM308 647v129h328
v-129h-328z" />
    <glyph glyph-name="AEacute" unicode="&#x1fc;" horiz-adv-x="996" 
d="M-12 0l332 707h605v-133h-294v-157h272v-124h-272v-160h317v-133h-487v244h-179l-102 -244h-192zM333 368h128v206h-42zM483 744l-23 113l271 67l27 -131z" />
    <glyph glyph-name="aeacute" unicode="&#x1fd;" horiz-adv-x="925" 
d="M663 -9q-177 0 -244 83q-92 -82 -193 -82q-91 0 -139.5 40.5t-48.5 121.5q0 41 14.5 71t36 46.5t55 26.5t62 13t66.5 4q65 3 95 3v44q0 34 -22 45t-77 11q-61 0 -163 -24l-33 121q117 44 221 44q136 0 187 -39q64 39 169 39q238 0 238 -277v-53l-354 -8
q-1 -59 38.5 -79.5t114.5 -20.5q49 0 157 19l25 -127q-75 -22 -205 -22zM246 122q62 0 138 20q-11 34 -15 74l-84 -2q-31 -1 -49.5 -5t-25 -13t-8 -14.5t-1.5 -18.5q0 -41 45 -41zM538 329l178 7q1 47 -22.5 75t-56.5 28q-42 0 -70.5 -27.5t-28.5 -82.5zM383 602l-47 100
l238 121l54 -117z" />
    <glyph glyph-name="Oslashacute" unicode="&#x1fe;" horiz-adv-x="843" 
d="M96 -45l-70 70l86 89q-69 92 -69 241q0 177 102.5 270t286.5 93q131 0 217 -49l83 86l71 -69l-78 -82q75 -91 75 -251q0 -177 -99.5 -271t-287.5 -94q-140 0 -229 58zM416 122q111 0 161 62.5t50 169.5q0 71 -24 125l-310 -320q50 -37 123 -37zM234 240l304 314
q-47 30 -115 30q-107 0 -157.5 -62t-50.5 -166q0 -66 19 -116zM338 744l-23 113l271 67l27 -131z" />
    <glyph glyph-name="oslashacute" unicode="&#x1ff;" horiz-adv-x="643" 
d="M76 -22l-50 49l62 62q-50 71 -50 179q0 135 77.5 213.5t208.5 78.5q114 0 181 -49l59 59l49 -49l-58 -59q50 -71 50 -189q0 -136 -80 -210.5t-210 -74.5q-108 0 -178 51zM323 121q64 0 88 38t24 114q0 39 -5 63l-187 -189q29 -26 80 -26zM211 214l186 188q-26 26 -76 26
q-115 0 -115 -156q0 -37 5 -58zM248 602l-47 100l238 121l54 -117z" />
    <glyph glyph-name="Scommaaccent" unicode="&#x218;" horiz-adv-x="597" 
d="M265 -11q-146 0 -237 50l48 122q92 -32 187 -32q124 0 124 69q0 26 -25 47t-62 34.5t-81 34t-81 43.5t-62 66t-25 99q0 95 75 145t179 50q52 0 96.5 -8t66 -16t58.5 -24l-49 -118q-101 29 -167 29q-93 0 -93 -57q0 -22 25.5 -41t63.5 -33.5t82 -36t82 -46.5t63.5 -67
t25.5 -95q0 -56 -25 -98.5t-67.5 -67.5t-93.5 -37t-108 -12zM360 -58l-45 -220h-116l21 220h140z" />
    <glyph glyph-name="scommaaccent" unicode="&#x219;" horiz-adv-x="512" 
d="M234 -12q-119 0 -199 23l18 126q106 -15 165 -15q94 0 94 38q0 13 -20.5 23.5t-51 17.5t-66 21t-66 32t-51 52.5t-20.5 80.5q0 84 67 128.5t163 44.5t184 -31l-28 -121q-88 20 -151 20q-26 0 -42.5 -6t-21 -13t-4.5 -14q0 -14 20 -26t50.5 -20t66 -22.5t66 -32.5
t50.5 -51t20 -76q0 -51 -24.5 -88t-63.5 -56t-77.5 -27t-77.5 -8zM344 -58l-45 -220h-116l21 220h140z" />
    <glyph glyph-name="uni021A" unicode="&#x21a;" horiz-adv-x="630" 
d="M230 0v574h-222v133h614v-133h-222v-574h-170zM384 -58l-45 -220h-116l21 220h140z" />
    <glyph glyph-name="uni021B" unicode="&#x21b;" horiz-adv-x="466" 
d="M316 -11h-8q-30 0 -45.5 0.5t-42.5 4t-42.5 10t-35 19.5t-29.5 32t-17.5 48t-7.5 67v253h-80v123h80v112h166v-112h169v-123h-169v-252q0 -28 12 -35.5t48 -7.5q16 0 45.5 3l50.5 5l22 3l16 -131q-67 -19 -132 -19zM359 -58l-45 -220h-116l21 220h140z" />
    <glyph glyph-name="dotlessj" unicode="&#x237;" horiz-adv-x="303" 
d="M14 -220q-65 0 -128 23l31 129q61 -11 92 -11q34 0 47 16.5t13 65.5v543h166v-544q0 -68 -17.5 -114t-50.5 -68.5t-68.5 -31t-84.5 -8.5z" />
    <glyph glyph-name="schwa" unicode="&#x259;" horiz-adv-x="596" 
d="M262 560q146 0 221 -61t75 -216q0 -158 -74 -226t-208 -68q-238 0 -238 277v60h354q1 59 -39 80.5t-115 21.5q-31 0 -156 -22l-25 127q92 27 205 27zM387 219h-178q-2 -51 19.5 -81.5t61.5 -30.5q43 0 69 29.5t28 82.5z" />
    <glyph glyph-name="circumflex" unicode="&#x2c6;" horiz-adv-x="556" 
d="M408 606l-129 90l-128 -89l-73 92l202 130l196 -131z" />
    <glyph glyph-name="caron" unicode="&#x2c7;" horiz-adv-x="556" 
d="M274 580l-196 131l68 92l129 -90l128 89l73 -92z" />
    <glyph glyph-name="breve" unicode="&#x2d8;" horiz-adv-x="516" 
d="M276 614q-132 0 -201 111l86 74q66 -62 119 -62q54 0 114 62l81 -73q-76 -112 -199 -112z" />
    <glyph glyph-name="dotaccent" unicode="&#x2d9;" horiz-adv-x="293" 
d="M146 604l-111 112l111 111l112 -111z" />
    <glyph glyph-name="ring" unicode="&#x2da;" horiz-adv-x="552" 
d="M278 586q-62 0 -106 29t-44 97q0 65 43.5 99.5t103.5 34.5q24 0 48 -6.5t48 -20.5t38.5 -41t14.5 -64q0 -64 -42 -96t-104 -32zM276 657q56 0 61 56q0 25 -17 40.5t-44 15.5q-61 0 -61 -54q0 -27 16 -42.5t45 -15.5z" />
    <glyph glyph-name="ogonek" unicode="&#x2db;" horiz-adv-x="581" 
d="M409 -260q-151 0 -151 143q0 103 205 213l60 -80q-49 -27 -86 -62.5t-37 -67.5q0 -22 33 -22q42 0 72 9l28 -107q-59 -26 -124 -26z" />
    <glyph glyph-name="tilde" unicode="&#x2dc;" horiz-adv-x="556" 
d="M332 634q-27 0 -68.5 19t-59.5 19q-38 0 -70 -28l-63 74q68 82 144 82q35 0 72.5 -19t50.5 -19q38 0 87 26l55 -74q-74 -80 -148 -80z" />
    <glyph glyph-name="hungarumlaut" unicode="&#x2dd;" horiz-adv-x="652" 
d="M130 595l-72 80l190 181l83 -94zM353 594l-46 97l236 117l53 -113z" />
    <glyph glyph-name="uni0374" unicode="&#x374;" horiz-adv-x="147" 
d="M38 485q32 59 32 134v136h167v-98q0 -96 -63 -172h-136z" />
    <glyph glyph-name="uni0375" unicode="&#x375;" horiz-adv-x="147" 
d="M62 -122q32 59 32 134v136h167v-98q0 -96 -63 -172h-136z" />
    <glyph glyph-name="uni037E" unicode="&#x37e;" horiz-adv-x="300" 
d="M274 384h-185v162h185v-162zM273 55q0 -107 -69 -189h-150q35 64 35 147v150h184v-108z" />
    <glyph glyph-name="tonos" unicode="&#x384;" horiz-adv-x="500" 
d="M351 623l69 158h157l-98 -157z" />
    <glyph glyph-name="dieresistonos" unicode="&#x385;" horiz-adv-x="589" 
d="M104 623l-79 80l79 80l80 -80zM185 623l69 158h157l-98 -157zM485 623l-80 80l80 80l79 -80z" />
    <glyph glyph-name="Alphatonos" unicode="&#x386;" horiz-adv-x="751" 
d="M11 0l272 707h219l238 -707h-176l-67 207h-239l-77 -207h-170zM303 330h154l-71 272zM-21 549l69 158h157l-98 -157z" />
    <glyph glyph-name="anoteleia" unicode="&#x387;" horiz-adv-x="324" 
d="M167 286l-103 103l103 103l103 -103z" />
    <glyph glyph-name="Epsilontonos" unicode="&#x388;" horiz-adv-x="613" 
d="M-185 549l69 158h157l-98 -157zM78 0v707h464v-133h-294v-157h272v-124h-272v-160h317v-133h-487z" />
    <glyph glyph-name="Etatonos" unicode="&#x389;" horiz-adv-x="796" 
d="M-185 549l69 158h157l-98 -157zM78 0v707h170v-287h300v287h170v-707h-170v291h-300v-291h-170z" />
    <glyph glyph-name="Iotatonos" unicode="&#x38a;" horiz-adv-x="326" 
d="M-185 549l69 158h157l-98 -157zM78 0v707h170v-707h-170z" />
    <glyph glyph-name="Omicrontonos" unicode="&#x38c;" horiz-adv-x="843" 
d="M-135 549l69 158h157l-98 -157zM413 -12q-183 0 -276.5 96.5t-93.5 270.5q0 168 104.5 265.5t284.5 97.5q185 0 276.5 -99t91.5 -266q0 -171 -100 -268t-287 -97zM416 122q111 0 161 62.5t50 169.5q0 105 -50.5 167.5t-153.5 62.5q-107 0 -157.5 -62t-50.5 -166
t49.5 -169t151.5 -65z" />
    <glyph glyph-name="Upsilontonos" unicode="&#x38e;" horiz-adv-x="709" 
d="M-242 549l69 158h157l-98 -157zM261 0v227l-261 480h196l156 -337l166 337h191l-278 -474v-233h-170z" />
    <glyph glyph-name="Omegatonos" unicode="&#x38f;" horiz-adv-x="867" 
d="M-125 548l69 158h157l-98 -157zM63 0v141h107q-46 28 -80.5 86.5t-34.5 132.5q0 171 102 264.5t284 93.5q186 0 278.5 -95t92.5 -260q0 -71 -34 -132.5t-81 -89.5h107v-141h-293v133q128 97 128 229q0 100 -52 161t-155 61q-98 0 -151.5 -59.5t-53.5 -160.5
q0 -133 129 -231v-133h-293z" />
    <glyph glyph-name="iotadieresistonos" unicode="&#x390;" horiz-adv-x="302" 
d="M68 0v546h166v-546h-166zM-30 623l-79 80l79 80l80 -80zM51 623l69 158h157l-98 -157zM351 623l-80 80l80 80l79 -80z" />
    <glyph glyph-name="Alpha" unicode="&#x391;" horiz-adv-x="751" 
d="M11 0l272 707h219l238 -707h-176l-67 207h-239l-77 -207h-170zM303 330h154l-71 272z" />
    <glyph glyph-name="Beta" unicode="&#x392;" horiz-adv-x="678" 
d="M78 0v707h248q263 0 263 -195q0 -41 -20.5 -74t-50.5 -52v-2q46 -16 84 -58.5t38 -107.5q0 -218 -284 -218h-278zM249 133h86q135 0 135 81q0 47 -35.5 67t-111.5 20h-74v-168zM249 417h61q59 0 85 15.5t26 60.5q0 44 -29.5 64t-90.5 20h-52v-160z" />
    <glyph glyph-name="Gamma" unicode="&#x393;" horiz-adv-x="566" 
d="M78 0v707h480v-133h-310v-574h-170z" />
    <glyph glyph-name="Delta" unicode="&#x394;" horiz-adv-x="764" 
d="M231 141h306l-105 315l-38 145l-45 -144zM1 0l289 707h219l254 -707h-762z" />
    <glyph glyph-name="Epsilon" unicode="&#x395;" horiz-adv-x="613" 
d="M78 0v707h464v-133h-294v-157h272v-124h-272v-160h317v-133h-487z" />
    <glyph glyph-name="Zeta" unicode="&#x396;" horiz-adv-x="611" 
d="M28 0v114l325 452h-299v141h508v-108l-329 -458h350v-141h-555z" />
    <glyph glyph-name="Eta" unicode="&#x397;" horiz-adv-x="796" 
d="M78 0v707h170v-287h300v287h170v-707h-170v291h-300v-291h-170z" />
    <glyph glyph-name="Theta" unicode="&#x398;" horiz-adv-x="843" 
d="M285 287l-24 92q53 40 105 40q30 0 65 -7.5t45 -7.5q47 0 80 13l24 -91q-49 -37 -109 -37q-29 0 -65 8t-45 8q-40 0 -76 -18zM413 -12q-183 0 -276.5 96.5t-93.5 270.5q0 177 102.5 270t286.5 93q187 0 277.5 -96.5t90.5 -268.5q0 -177 -99.5 -271t-287.5 -94zM416 122
q111 0 161 62.5t50 169.5q0 105 -50.5 167.5t-153.5 62.5q-107 0 -157.5 -62t-50.5 -166t49.5 -169t151.5 -65z" />
    <glyph glyph-name="Iota" unicode="&#x399;" horiz-adv-x="326" 
d="M78 0v707h170v-707h-170z" />
    <glyph glyph-name="Kappa" unicode="&#x39a;" horiz-adv-x="731" 
d="M78 0v707h170v-303l242 303h217l-286 -331l302 -376h-217l-258 355v-355h-170z" />
    <glyph glyph-name="Lambda" unicode="&#x39b;" horiz-adv-x="734" 
d="M16 0l258 707h219l225 -707h-175l-137 467l-29 119l-33 -117l-160 -469h-168z" />
    <glyph glyph-name="Mu" unicode="&#x39c;" horiz-adv-x="983" 
d="M78 0v707h207l197 -555l226 555h197v-707h-170v263l5 166l-168 -429h-190l-145 441l11 -178v-263h-170z" />
    <glyph glyph-name="Nu" unicode="&#x39d;" horiz-adv-x="796" 
d="M78 0v707h197l278 -485l-5 79v406h170v-707h-203l-271 473l4 -94v-379h-170z" />
    <glyph glyph-name="Xi" unicode="&#x39e;" horiz-adv-x="646" 
d="M52 0v141h542v-141h-542zM85 289v134h476v-134h-476zM63 566v141h520v-141h-520z" />
    <glyph glyph-name="Omicron" unicode="&#x39f;" horiz-adv-x="843" 
d="M413 -12q-183 0 -276.5 96.5t-93.5 270.5q0 168 104.5 265.5t284.5 97.5q185 0 276.5 -99t91.5 -266q0 -171 -100 -268t-287 -97zM416 122q111 0 161 62.5t50 169.5q0 105 -50.5 167.5t-153.5 62.5q-107 0 -157.5 -62t-50.5 -166t49.5 -169t151.5 -65z" />
    <glyph glyph-name="Pi" unicode="&#x3a0;" horiz-adv-x="782" 
d="M78 0v707h626v-707h-170v573h-286v-573h-170z" />
    <glyph glyph-name="Rho" unicode="&#x3a1;" horiz-adv-x="644" 
d="M78 0v707h275q122 0 197.5 -67.5t75.5 -183.5q0 -109 -86.5 -182.5t-238.5 -73.5h-52v-200h-171zM249 574v-243h58q75 0 109.5 33.5t34.5 87.5q0 122 -120 122h-82z" />
    <glyph glyph-name="Sigma" unicode="&#x3a3;" horiz-adv-x="605" 
d="M32 0v114l188 242l-182 213v138h533v-133h-345l175 -206l-177 -227h353v-141h-545z" />
    <glyph glyph-name="Tau" unicode="&#x3a4;" horiz-adv-x="630" 
d="M230 0v574h-222v133h614v-133h-222v-574h-170z" />
    <glyph glyph-name="Upsilon" unicode="&#x3a5;" horiz-adv-x="709" 
d="M261 0v227l-261 480h196l156 -337l166 337h191l-278 -474v-233h-170z" />
    <glyph glyph-name="Phi" unicode="&#x3a6;" horiz-adv-x="885" 
d="M359 0v85q-139 0 -227.5 74t-88.5 214t88.5 214t227.5 74v76h167v-76q139 0 227.5 -74t88.5 -214t-88.5 -214t-227.5 -74v-85h-167zM526 207q67 0 106.5 44t39.5 122q0 81 -39 123.5t-107 42.5v-332zM359 207v332q-68 0 -107 -42.5t-39 -123.5q0 -78 39.5 -122t106.5 -44
z" />
    <glyph glyph-name="Chi" unicode="&#x3a7;" horiz-adv-x="695" 
d="M8 0l253 362l-225 345h195l128 -217l138 217h190l-238 -342l238 -365h-196l-141 238l-152 -238h-190z" />
    <glyph glyph-name="Psi" unicode="&#x3a8;" horiz-adv-x="799" 
d="M317 0v141q-47 4 -84 13t-75 29t-63 49t-41 77t-16 110v288h172v-293q0 -61 26.5 -89t80.5 -41v423h170v-422q53 15 80 47.5t27 102.5v272h167v-264q0 -82 -22.5 -140.5t-64 -91t-86 -48t-101.5 -22.5v-141h-170z" />
    <glyph glyph-name="Omega" unicode="&#x3a9;" horiz-adv-x="867" 
d="M63 0v141h107q-46 28 -80.5 86.5t-34.5 132.5q0 171 102 264.5t284 93.5q186 0 278.5 -95t92.5 -260q0 -71 -34 -132.5t-81 -89.5h107v-141h-293v133q128 97 128 229q0 100 -52 161t-155 61q-98 0 -151.5 -59.5t-53.5 -160.5q0 -133 129 -231v-133h-293z" />
    <glyph glyph-name="Iotadieresis" unicode="&#x3aa;" horiz-adv-x="326" 
d="M78 0v707h170v-707h-170zM42 737l-99 100l99 100l100 -100zM286 737l-100 100l100 100l99 -100z" />
    <glyph glyph-name="Upsilondieresis" unicode="&#x3ab;" horiz-adv-x="709" 
d="M261 0v227l-261 480h196l156 -337l166 337h191l-278 -474v-233h-170zM228 737l-99 100l99 100l100 -100zM472 737l-100 100l100 100l99 -100z" />
    <glyph glyph-name="alphatonos" unicode="&#x3ac;" horiz-adv-x="671" 
d="M260 -8q-27 0 -50 3t-57 17t-57.5 39t-40.5 74.5t-17 116.5q0 144 84.5 231t212.5 87q70 0 119 -9.5t120 -31.5v-374q0 -13 12 -17.5t37 -5.5l-6 -126q-14 -1 -50 -1q-69 0 -109 23t-43 81q-16 -42 -58 -74.5t-97 -32.5zM288 131q46 0 79.5 36.5t39.5 95.5v150
q-36 15 -69 15q-67 0 -100.5 -49.5t-33.5 -126.5q0 -42 8.5 -68.5t23.5 -37t25.5 -13t26.5 -2.5zM259 623l69 158h157l-98 -157z" />
    <glyph glyph-name="epsilontonos" unicode="&#x3ad;" 
d="M302 -12q-129 0 -195.5 41.5t-66.5 118.5q0 50 29.5 89.5t90.5 56.5q-45 12 -69.5 43t-24.5 76q0 61 66 104t186 43q127 0 211 -42l-43 -120q-26 10 -78.5 20.5t-97.5 10.5q-81 0 -81 -42q0 -14 10.5 -23t19.5 -10.5t17 -1.5h138v-121h-140q-23 0 -43 -13.5t-20 -42.5
q0 -25 30.5 -38t80.5 -13q36 0 85.5 9.5t82.5 25.5l49 -119q-118 -52 -237 -52zM220 623l69 158h157l-98 -157z" />
    <glyph glyph-name="etatonos" unicode="&#x3ae;" horiz-adv-x="681" 
d="M447 -220v549q0 55 -15 71.5t-58 16.5q-60 0 -122 -30v-387h-167v409q0 13 -11 17.5t-36 5.5l6 126q42 3 57 3q129 0 147 -73q104 74 182 74q50 0 84.5 -11.5t53.5 -29t29.5 -48.5t13 -58.5t2.5 -71.5v-563h-166zM299 623l69 158h157l-98 -157z" />
    <glyph glyph-name="iotatonos" unicode="&#x3af;" horiz-adv-x="302" 
d="M68 0v546h166v-546h-166zM73 623l69 158h157l-98 -157z" />
    <glyph glyph-name="upsilondieresistonos" unicode="&#x3b0;" horiz-adv-x="663" 
d="M335 -12q-267 0 -267 227v331h166v-320q0 -105 98 -105q49 0 73 26t24 90v309h166v-310q0 -125 -69 -186.5t-191 -61.5zM163 623l-79 80l79 80l80 -80zM244 623l69 158h157l-98 -157zM544 623l-80 80l80 80l79 -80z" />
    <glyph glyph-name="alpha" unicode="&#x3b1;" horiz-adv-x="671" 
d="M260 -8q-27 0 -50 3t-57 17t-57.5 39t-40.5 74.5t-17 116.5q0 144 84.5 231t212.5 87q70 0 119 -9.5t120 -31.5v-374q0 -13 12 -17.5t37 -5.5l-6 -126q-14 -1 -50 -1q-69 0 -109 23t-43 81q-16 -42 -58 -74.5t-97 -32.5zM288 131q46 0 79.5 36.5t39.5 95.5v150
q-36 15 -69 15q-67 0 -100.5 -49.5t-33.5 -126.5q0 -42 8.5 -68.5t23.5 -37t25.5 -13t26.5 -2.5z" />
    <glyph glyph-name="beta" unicode="&#x3b2;" horiz-adv-x="671" 
d="M68 -220v735q0 117 74.5 188.5t195.5 71.5q113 0 176.5 -54.5t63.5 -138.5q0 -49 -23 -91.5t-71 -65.5q149 -40 149 -190q0 -121 -79 -184.5t-200 -63.5q-62 0 -120 18v-225h-166zM351 122q112 0 112 108q0 55 -43.5 87.5t-97.5 35.5v110q41 4 68.5 31.5t27.5 66.5
q0 37 -24 58.5t-62 21.5q-46 0 -72 -31.5t-26 -89.5v-379q62 -19 117 -19z" />
    <glyph glyph-name="gamma" unicode="&#x3b3;" horiz-adv-x="624" 
d="M221 -220v220l-213 546h181l95 -277l23 -86l27 83l105 280h177l-229 -546v-220h-166z" />
    <glyph glyph-name="delta" unicode="&#x3b4;" horiz-adv-x="637" 
d="M314 -12q-123 0 -199.5 70.5t-76.5 195.5q0 84 48 143.5t122 89.5q-50 27 -75.5 57t-25.5 74q0 74 68 115.5t159 41.5q104 0 220 -36l-29 -122q-106 23 -182 23t-76 -46q0 -18 14.5 -31.5t32 -20.5t54 -20.5t60.5 -24.5q72 -33 121.5 -95.5t49.5 -144.5q0 -68 -23.5 -121
t-64 -84.5t-90.5 -47.5t-107 -16zM321 121q60 0 85.5 36t25.5 104q0 64 -31.5 99t-86.5 60q-55 -17 -82 -62.5t-27 -94.5q0 -142 116 -142z" />
    <glyph glyph-name="epsilon" unicode="&#x3b5;" 
d="M302 -12q-129 0 -195.5 41.5t-66.5 118.5q0 50 29.5 89.5t90.5 56.5q-45 12 -69.5 43t-24.5 76q0 61 66 104t186 43q127 0 211 -42l-43 -120q-26 10 -78.5 20.5t-97.5 10.5q-81 0 -81 -42q0 -14 10.5 -23t19.5 -10.5t17 -1.5h138v-121h-140q-23 0 -43 -13.5t-20 -42.5
q0 -25 30.5 -38t80.5 -13q36 0 85.5 9.5t82.5 25.5l49 -119q-118 -52 -237 -52z" />
    <glyph glyph-name="zeta" unicode="&#x3b6;" horiz-adv-x="498" 
d="M414 -208l-91 53q14 16 32.5 44t18.5 40q0 14 -9 24.5t-29 17.5t-38 11t-51 10.5t-53 11.5q-154 36 -154 198q0 125 69.5 230.5t191.5 186.5h-216v135h437v-121q-132 -79 -222 -187t-90 -223q0 -51 21 -71t59 -28q12 -3 47.5 -9.5t52.5 -11t45 -16t42 -25t25 -38
t11 -55.5q0 -84 -99 -177z" />
    <glyph glyph-name="eta" unicode="&#x3b7;" horiz-adv-x="681" 
d="M447 -220v549q0 55 -15 71.5t-58 16.5q-60 0 -122 -30v-387h-167v409q0 13 -11 17.5t-36 5.5l6 126q42 3 57 3q129 0 147 -73q104 74 182 74q50 0 84.5 -11.5t53.5 -29t29.5 -48.5t13 -58.5t2.5 -71.5v-563h-166z" />
    <glyph glyph-name="theta" unicode="&#x3b8;" horiz-adv-x="642" 
d="M320 -12q-77 0 -131 28.5t-82.5 83t-40.5 121t-12 155.5q0 191 63.5 295t209.5 104q65 0 112.5 -20.5t76 -54t45 -86.5t22 -107t5.5 -125q0 -89 -13.5 -158t-43 -123.5t-83 -83.5t-128.5 -29zM218 451h208q-1 50 -4.5 79.5t-13.5 58t-31 41.5t-54 13q-63 0 -82.5 -46
t-22.5 -146zM324 123q33 0 53.5 13.5t31 43.5t14 63.5t3.5 88.5h-208q0 -112 20 -160.5t86 -48.5z" />
    <glyph glyph-name="iota" unicode="&#x3b9;" horiz-adv-x="302" 
d="M68 0v546h166v-546h-166z" />
    <glyph glyph-name="kappa" unicode="&#x3ba;" horiz-adv-x="596" 
d="M68 0v546h167v-213l151 213h183l-203 -255l78 -86q34 -38 63 -58.5t76 -32.5l-19 -126q-78 4 -131 24t-101 83l-97 125v-220h-167z" />
    <glyph glyph-name="lambda" unicode="&#x3bb;" horiz-adv-x="616" 
d="M589 -16q-100 3 -140 29t-61 102l-54 192l-25 89l-25 -89l-90 -307h-182l199 546h57l-6 20q-11 36 -32 55t-70 19q-48 0 -111 -21l-34 126q29 10 78.5 20t84.5 10q105 0 156 -43t81 -143l122 -422q14 -49 67 -57z" />
    <glyph glyph-name="mugreek" unicode="&#x3bc;" horiz-adv-x="693" 
d="M68 -220v766h166v-343q0 -45 16 -59t57 -14q60 0 122 30v386h167v-401q0 -13 12 -17.5t37 -5.5l-6 -126q-14 -1 -49 -1q-63 0 -101 14t-50 55q-98 -79 -188 -79h-17v-205h-166z" />
    <glyph glyph-name="nu" unicode="&#x3bd;" horiz-adv-x="595" 
d="M197 0l-189 546h179l84 -296l27 -93l41 98l23 55q30 81 30 151q0 33 -10 85h176q9 -43 9 -79q0 -69 -29 -145l-143 -322h-198z" />
    <glyph glyph-name="xi" unicode="&#x3be;" horiz-adv-x="516" 
d="M411 -208l-91 53q14 16 32.5 44.5t18.5 40.5q0 38 -88 56q-42 9 -73.5 19t-65.5 27.5t-56 39t-36.5 55t-14.5 74.5q0 73 49.5 130t132.5 78q-56 19 -94.5 63t-38.5 96q0 94 76.5 150.5t210.5 56.5q73 0 143 -17l-21 -133q-62 15 -128 15q-117 0 -117 -88q0 -21 7 -36.5
t23 -25.5t31 -16t43 -9.5t47.5 -5t53.5 -2.5v-121q-57 -4 -94.5 -9.5t-76.5 -18t-58.5 -36t-19.5 -59.5q0 -39 29 -58t86 -35q11 -3 33 -8.5t34.5 -9t31 -10t29.5 -13t24 -17.5t20 -23.5t12 -30t5 -39.5q0 -84 -99 -177z" />
    <glyph glyph-name="omicron" unicode="&#x3bf;" horiz-adv-x="643" 
d="M315 -12q-133 0 -205 75t-72 205q0 135 77.5 213.5t208.5 78.5q142 0 211.5 -75t69.5 -212q0 -136 -80 -210.5t-210 -74.5zM323 121q64 0 88 38t24 114q0 74 -25 114.5t-89 40.5q-115 0 -115 -156q0 -75 26.5 -113t90.5 -38z" />
    <glyph glyph-name="pi" unicode="&#x3c0;" horiz-adv-x="648" 
d="M68 0v546h512v-546h-166v417h-179v-417h-167z" />
    <glyph glyph-name="rho" unicode="&#x3c1;" horiz-adv-x="626" 
d="M48 -220v488q0 142 71 217t202 75q267 0 267 -291q0 -137 -78.5 -209t-209.5 -72q-37 0 -86 17v-225h-166zM214 272v-138q46 -13 94 -13q64 0 87 36t23 112t-21 117.5t-81 41.5q-59 0 -80.5 -40t-21.5 -116z" />
    <glyph glyph-name="sigma1" unicode="&#x3c2;" horiz-adv-x="537" 
d="M398 -208l-91 53q14 16 32.5 44.5t18.5 40.5q0 37 -98 59q-38 8 -65.5 18t-59 31t-51.5 50t-33 77.5t-13 112.5q0 128 80.5 205t218.5 77q103 0 174 -38l-43 -121q-60 23 -124 23q-135 0 -135 -149q0 -44 7 -73t23.5 -45t29.5 -22.5t39 -14.5q15 -5 44 -13t45 -13t38 -16
t33.5 -24t20 -35t8.5 -50q0 -84 -99 -177z" />
    <glyph glyph-name="sigma" unicode="&#x3c3;" horiz-adv-x="680" 
d="M315 -12q-133 0 -205 74t-72 201q0 129 79.5 211t208.5 82l336 -10v-123l-98 4q41 -61 41 -154q0 -136 -80 -210.5t-210 -74.5zM323 121q64 0 88 38t24 114q0 41 -13.5 86.5t-44.5 72.5l-37 1q-64 0 -99 -43.5t-35 -119.5q0 -74 26.5 -111.5t90.5 -37.5z" />
    <glyph glyph-name="tau" unicode="&#x3c4;" horiz-adv-x="522" 
d="M178 0v417h-170v129h506v-129h-170v-417h-166z" />
    <glyph glyph-name="upsilon" unicode="&#x3c5;" horiz-adv-x="663" 
d="M335 -12q-267 0 -267 227v331h166v-320q0 -105 98 -105q49 0 73 26t24 90v309h166v-310q0 -125 -69 -186.5t-191 -61.5z" />
    <glyph glyph-name="phi" unicode="&#x3c6;" horiz-adv-x="811" 
d="M321 -220v207q-145 12 -214 82t-69 198q0 263 283 294v97h166v-95q286 -22 286 -290q0 -261 -286 -286v-206zM321 118v311q-67 -15 -91 -52.5t-24 -103.5t24.5 -103t90.5 -52zM487 117q69 13 92.5 50t23.5 107q0 66 -23.5 103.5t-92.5 51.5v-312z" />
    <glyph glyph-name="chi" unicode="&#x3c7;" horiz-adv-x="609" 
d="M576 -224q-26 2 -46 4.5t-36.5 7.5t-27.5 8t-21.5 12t-16 13t-14 17.5t-12 20t-13 26l-14.5 29.5l-66 134l-95 -268h-200l218 406l-97 194q-27 53 -94 57l32 129q43 -1 73 -7.5t48.5 -14t35 -28.5t25.5 -36.5t27 -53.5l46 -96l62 216h203l-185 -371l110 -213
q29 -54 79 -57z" />
    <glyph glyph-name="psi" unicode="&#x3c8;" horiz-adv-x="842" 
d="M338 -220v215q-148 11 -209 70.5t-61 186.5v294h166v-288q0 -71 25 -98.5t79 -34.5v533h166v-533q56 10 80 40.5t24 110.5v270h166v-273q0 -135 -64.5 -200.5t-205.5 -77.5v-215h-166z" />
    <glyph glyph-name="omega" unicode="&#x3c9;" horiz-adv-x="851" 
d="M255 -12q-104 0 -160.5 69.5t-56.5 179.5q0 90 27 164t113 145h183q-71 -57 -113 -132.5t-42 -155.5q0 -16 0.5 -25.5t2 -27.5t6.5 -29t12 -23t20 -18t30 -6q30 0 47.5 27.5t17.5 76.5v127h166v-125q0 -52 17.5 -79t48.5 -27q25 0 40.5 12.5t21.5 37t7 39t1 40.5
q0 80 -42 155.5t-113 132.5h189q135 -113 135 -304q0 -104 -61.5 -179t-169.5 -75q-53 0 -100 29.5t-59 80.5q-21 -55 -67.5 -82.5t-100.5 -27.5z" />
    <glyph glyph-name="iotadieresis" unicode="&#x3ca;" horiz-adv-x="302" 
d="M68 0v546h166v-546h-166zM27 622l-93 94l93 94l94 -94zM271 622l-94 94l94 94l93 -94z" />
    <glyph glyph-name="upsilondieresis" unicode="&#x3cb;" horiz-adv-x="663" 
d="M335 -12q-267 0 -267 227v331h166v-320q0 -105 98 -105q49 0 73 26t24 90v309h166v-310q0 -125 -69 -186.5t-191 -61.5zM209 622l-93 94l93 94l94 -94zM453 622l-94 94l94 94l93 -94z" />
    <glyph glyph-name="omicrontonos" unicode="&#x3cc;" horiz-adv-x="643" 
d="M315 -12q-133 0 -205 75t-72 205q0 135 77.5 213.5t208.5 78.5q142 0 211.5 -75t69.5 -212q0 -136 -80 -210.5t-210 -74.5zM323 121q64 0 88 38t24 114q0 74 -25 114.5t-89 40.5q-115 0 -115 -156q0 -75 26.5 -113t90.5 -38zM252 623l69 158h157l-98 -157z" />
    <glyph glyph-name="upsilontonos" unicode="&#x3cd;" horiz-adv-x="663" 
d="M335 -12q-267 0 -267 227v331h166v-320q0 -105 98 -105q49 0 73 26t24 90v309h166v-310q0 -125 -69 -186.5t-191 -61.5zM257 623l69 158h157l-98 -157z" />
    <glyph glyph-name="omegatonos" unicode="&#x3ce;" horiz-adv-x="851" 
d="M255 -12q-104 0 -160.5 69.5t-56.5 179.5q0 90 27 164t113 145h183q-71 -57 -113 -132.5t-42 -155.5q0 -16 0.5 -25.5t2 -27.5t6.5 -29t12 -23t20 -18t30 -6q30 0 47.5 27.5t17.5 76.5v127h166v-125q0 -52 17.5 -79t48.5 -27q25 0 40.5 12.5t21.5 37t7 39t1 40.5
q0 80 -42 155.5t-113 132.5h189q135 -113 135 -304q0 -104 -61.5 -179t-169.5 -75q-53 0 -100 29.5t-59 80.5q-21 -55 -67.5 -82.5t-100.5 -27.5zM343 623l69 158h157l-98 -157z" />
    <glyph glyph-name="beta1" unicode="&#x3d0;" horiz-adv-x="658" 
d="M341 -13q-67 0 -116.5 16.5t-89 55t-60 109t-20.5 171.5v115q0 141 83 231t206 90q112 0 169.5 -48t57.5 -124q0 -59 -21 -92t-68 -67q68 -18 103 -74t35 -135q0 -121 -79 -184.5t-200 -63.5zM338 122q52 0 82 31t30 89q0 128 -118 128q-48 0 -111 -22v-4
q0 -124 26.5 -173t90.5 -49zM221 443q56 17 92 33q92 41 92 85q0 37 -24 58.5t-62 21.5q-98 0 -98 -161v-37z" />
    <glyph glyph-name="uni03D8" unicode="&#x3d8;" horiz-adv-x="800" 
d="M327 -166v161q-256 64 -256 361q0 188 93 279.5t237 91.5q149 0 238.5 -90.5t89.5 -273.5q0 -283 -255 -363v-166h-147zM401 129q81 0 124.5 62t43.5 166q0 110 -40.5 175t-129.5 65t-129.5 -64t-40.5 -171t41 -170t131 -63z" />
    <glyph glyph-name="uni03D9" unicode="&#x3d9;" horiz-adv-x="603" 
d="M228 -221v256q-92 18 -141 84.5t-49 169.5q0 125 72 197.5t194 72.5q131 0 196 -69.5t65 -196.5q0 -101 -49 -166t-133 -87v-261h-155zM303 152q59 0 81.5 35t22.5 106q0 68 -23.5 106t-82.5 38q-106 0 -106 -145q0 -69 24.5 -104.5t83.5 -35.5z" />
    <glyph glyph-name="uni03DA" unicode="&#x3da;" horiz-adv-x="542" 
d="M555 654l-53 -125q-70 46 -153 46q-75 0 -114 -41t-39 -120q0 -62 17.5 -104t45.5 -62t61.5 -32t67.5 -20.5t62 -21t45.5 -39t17.5 -69.5q0 -76 -46.5 -130t-115.5 -79t-157 -31l-30 108q194 33 194 101q0 18 -17.5 28t-46 17l-62.5 16t-68 29t-62.5 51.5t-46 90
t-17.5 137.5q0 149 83 229t212 80q121 0 222 -59z" />
    <glyph glyph-name="uni03DB" unicode="&#x3db;" horiz-adv-x="540" 
d="M520 515l-53 -125q-65 32 -138 32t-103 -35t-30 -116q0 -66 25 -95.5t78 -35.5q82 -10 125 -43t43 -104q0 -82 -81 -137.5t-211 -56.5v128q50 0 82.5 9t43.5 19t11 20q0 11 -10.5 15.5t-36.5 6.5q-50 4 -88 18t-71 42.5t-50.5 80t-17.5 123.5q0 150 74 224.5t201 74.5
q110 0 207 -45z" />
    <glyph glyph-name="uni03DC" unicode="&#x3dc;" horiz-adv-x="610" 
d="M572 574h-324v-175h302v-123h-302v-276h-170v707h494v-133z" />
    <glyph glyph-name="uni03DD" unicode="&#x3dd;" horiz-adv-x="444" 
d="M452 751l-32 -129q-45 8 -92 8q-59 0 -59 -66v-190h117v-122h-117v-472h-167v472h-80v122h80v200q0 49 12.5 85.5t32 57.5t49.5 34t59.5 17t67.5 4q64 0 129 -21z" />
    <glyph glyph-name="uni03DE" unicode="&#x3de;" horiz-adv-x="632" 
d="M397 -107l-182 -41l157 384h-371l232 498l185 20l-174 -375h361z" />
    <glyph glyph-name="uni03DF" unicode="&#x3df;" horiz-adv-x="638" 
d="M415 -107l-182 -41l157 384h-371l232 498l185 20l-174 -375h361z" />
    <glyph glyph-name="uni03E0" unicode="&#x3e0;" horiz-adv-x="800" 
d="M545 -79l-78 98q128 97 144 215l-370 -241l-60 98l413 270q-15 33 -38 67l-438 -290l-63 99l389 253q-40 13 -86 13q-90 0 -197 -60l-55 100q65 46 130.5 68t151.5 22q153 0 255 -106t102 -254q0 -112 -61 -203.5t-139 -148.5z" />
    <glyph glyph-name="uni03E1" unicode="&#x3e1;" horiz-adv-x="800" 
d="M545 -79l-78 98q128 97 144 215l-370 -241l-60 98l413 270q-15 33 -38 67l-438 -290l-63 99l389 253q-40 13 -86 13q-90 0 -197 -60l-55 100q65 46 130.5 68t151.5 22q153 0 255 -106t102 -254q0 -112 -61 -203.5t-139 -148.5z" />
    <glyph glyph-name="uni0400" unicode="&#x400;" horiz-adv-x="613" 
d="M78 0v707h464v-133h-294v-157h272v-124h-272v-160h317v-133h-487zM413 744l-275 49l27 131l271 -67z" />
    <glyph glyph-name="afii10023" unicode="&#x401;" horiz-adv-x="613" 
d="M78 0v707h464v-133h-294v-157h272v-124h-272v-160h317v-133h-487zM187 737l-99 100l99 100l100 -100zM431 737l-100 100l100 100l99 -100z" />
    <glyph glyph-name="afii10051" unicode="&#x402;" horiz-adv-x="821" 
d="M516 -220l-81 110q1 1 11 8.5t19 15.5l23.5 21.5t27 28.5l27.5 34.5t26 41.5t21 47t15 54.5t5 60.5q0 60 -30 92.5t-85 32.5q-65 0 -125 -30v-297h-170v574h-192v133h614v-133h-252v-149q86 31 163 31q125 0 187.5 -63.5t62.5 -178.5q0 -252 -267 -434z" />
    <glyph glyph-name="afii10052" unicode="&#x403;" horiz-adv-x="610" 
d="M78 0v707h494v-133h-324v-574h-170zM237 744l-23 113l271 67l27 -131z" />
    <glyph glyph-name="afii10053" unicode="&#x404;" horiz-adv-x="686" 
d="M435 -10q-193 0 -292.5 92t-99.5 267q0 368 388 368q125 0 220 -43l-45 -123q-56 15 -87 20t-86 6q-84 1 -140.5 -40t-71.5 -120h325v-123h-323q18 -79 78 -120.5t152 -41.5q87 0 164 20l36 -128q-92 -34 -218 -34z" />
    <glyph glyph-name="afii10054" unicode="&#x405;" horiz-adv-x="597" 
d="M265 -11q-146 0 -237 50l48 122q92 -32 187 -32q124 0 124 69q0 26 -25 47t-62 34.5t-81 34t-81 43.5t-62 66t-25 99q0 95 75 145t179 50q52 0 96.5 -8t66 -16t58.5 -24l-49 -118q-101 29 -167 29q-93 0 -93 -57q0 -22 25.5 -41t63.5 -33.5t82 -36t82 -46.5t63.5 -67
t25.5 -95q0 -56 -25 -98.5t-67.5 -67.5t-93.5 -37t-108 -12z" />
    <glyph glyph-name="afii10055" unicode="&#x406;" horiz-adv-x="326" 
d="M78 0v707h170v-707h-170z" />
    <glyph glyph-name="afii10056" unicode="&#x407;" horiz-adv-x="326" 
d="M78 0v707h170v-707h-170zM41 737l-99 100l99 100l100 -100zM285 737l-100 100l100 100l99 -100z" />
    <glyph glyph-name="afii10057" unicode="&#x408;" horiz-adv-x="326" 
d="M-6 -198l-61 122q89 49 117 93.5t28 133.5v556h171v-554q0 -49 -4 -84.5t-18.5 -78t-41.5 -74t-75 -62t-116 -52.5z" />
    <glyph glyph-name="afii10058" unicode="&#x409;" horiz-adv-x="1046" 
d="M56 -22l-70 146q122 50 148 103q44 87 55 480h462v-220h52q157 0 241 -64t84 -179t-84.5 -179.5t-240.5 -64.5h-223v585h-150q-12 -210 -27.5 -308t-48.5 -155q-50 -85 -198 -144zM709 356h-58v-223h58q144 0 144 111q0 112 -144 112z" />
    <glyph glyph-name="afii10059" unicode="&#x40a;" horiz-adv-x="1088" 
d="M78 0v706h170v-266h279v267h171v-267h50q155 0 238.5 -58t83.5 -161q0 -104 -83.5 -162.5t-238.5 -58.5h-221v311h-279v-311h-170zM754 311h-56v-178h56q140 0 140 89t-140 89z" />
    <glyph glyph-name="afii10060" unicode="&#x40b;" horiz-adv-x="841" 
d="M200 0v574h-192v133h614v-133h-252v-149q86 31 163 31q127 0 188.5 -49.5t61.5 -152.5v-254h-170v218q0 63 -29 86t-89 23q-58 0 -125 -36v-291h-170z" />
    <glyph glyph-name="afii10061" unicode="&#x40c;" horiz-adv-x="731" 
d="M78 0v707h170v-303l242 303h217l-286 -331l302 -376h-217l-258 355v-355h-170zM270 744l-23 113l271 67l27 -131z" />
    <glyph glyph-name="uni040D" unicode="&#x40d;" horiz-adv-x="796" 
d="M78 0v707h170v-374l-4 -94l65 101l239 367h170v-707h-170v374l4 94l-65 -101l-239 -367h-170zM494 744l-275 49l27 131l271 -67z" />
    <glyph glyph-name="afii10062" unicode="&#x40e;" horiz-adv-x="675" 
d="M202 -9l-45 134q46 15 65 22t37.5 21.5t30.5 36.5l12 23h-49l-253 479h190l170 -351l122 351h193l-225 -490q-24 -53 -47.5 -90t-43 -58.5t-45 -36t-45 -21.5t-52.5 -16q-10 -3 -15 -4zM345 740q-69 0 -130.5 32t-95.5 90l79 84q67 -68 147 -68q81 0 148 68l79 -84
q-35 -58 -96 -90t-131 -32z" />
    <glyph glyph-name="afii10145" unicode="&#x40f;" horiz-adv-x="781" 
d="M308 -153v153h-230v707h170v-578h285v578h170v-707h-225v-153h-170z" />
    <glyph glyph-name="afii10017" unicode="&#x410;" horiz-adv-x="751" 
d="M11 0l272 707h219l238 -707h-176l-67 207h-239l-77 -207h-170zM303 330h154l-71 272z" />
    <glyph glyph-name="afii10018" unicode="&#x411;" horiz-adv-x="674" 
d="M78 0v707h494v-133h-323v-117h56q162 0 246.5 -57.5t84.5 -170.5t-84.5 -171t-246.5 -58h-227zM310 326h-61v-193h61q151 0 151 96q0 97 -151 97z" />
    <glyph glyph-name="afii10019" unicode="&#x412;" horiz-adv-x="678" 
d="M78 0v707h248q263 0 263 -195q0 -41 -20.5 -74t-50.5 -52v-2q46 -16 84 -58.5t38 -107.5q0 -218 -284 -218h-278zM249 133h86q135 0 135 81q0 47 -35.5 67t-111.5 20h-74v-168zM249 417h61q59 0 85 15.5t26 60.5q0 44 -29.5 64t-90.5 20h-52v-160z" />
    <glyph glyph-name="afii10020" unicode="&#x413;" horiz-adv-x="610" 
d="M78 0v707h494v-133h-324v-574h-170z" />
    <glyph glyph-name="afii10021" unicode="&#x414;" horiz-adv-x="804" 
d="M14 -153v283h70q50 87 70 160q20 72 30 161.5t21 255.5h466v-577h103v-283h-160v153h-440v-153h-160zM268 129h233v456h-148q-19 -226 -41 -321q-13 -54 -44 -135z" />
    <glyph glyph-name="afii10022" unicode="&#x415;" horiz-adv-x="613" 
d="M78 0v707h464v-133h-294v-157h272v-124h-272v-160h317v-133h-487z" />
    <glyph glyph-name="afii10024" unicode="&#x416;" horiz-adv-x="1046" 
d="M438 0v335l-218 -335h-212l262 371l-241 336h207l202 -307v307h170v-308l202 308h207l-241 -336l262 -371h-212l-218 334v-334h-170z" />
    <glyph glyph-name="afii10025" unicode="&#x417;" horiz-adv-x="591" 
d="M276 -8q-149 0 -256 62l55 125q102 -51 185 -51q56 0 89.5 21t33.5 64q0 84 -130 84h-96v122h97q48 0 75.5 22t27.5 58q0 76 -101 76q-62 0 -151 -35l-55 115q108 56 223 56q123 0 189 -50.5t66 -128.5q0 -111 -96 -165v-2q47 -13 86 -55.5t39 -112.5q0 -30 -8 -58
t-28.5 -55t-52 -47t-81 -32.5t-111.5 -12.5z" />
    <glyph glyph-name="afii10026" unicode="&#x418;" horiz-adv-x="796" 
d="M78 0v707h170v-374l-4 -94l65 101l239 367h170v-707h-170v374l4 94l-65 -101l-239 -367h-170z" />
    <glyph glyph-name="afii10027" unicode="&#x419;" horiz-adv-x="796" 
d="M403 740q-69 0 -130.5 32t-95.5 90l79 84q67 -68 147 -68q81 0 148 68l79 -84q-35 -58 -96 -90t-131 -32zM78 0v707h170v-374l-4 -94l65 101l239 367h170v-707h-170v374l4 94l-65 -101l-239 -367h-170z" />
    <glyph glyph-name="afii10028" unicode="&#x41a;" horiz-adv-x="731" 
d="M78 0v707h170v-303l242 303h217l-286 -331l302 -376h-217l-258 355v-355h-170z" />
    <glyph glyph-name="afii10029" unicode="&#x41b;" horiz-adv-x="728" 
d="M56 -22l-70 146q122 50 148 103q44 87 55 480h461v-707h-170v585h-150q-15 -173 -21 -233.5t-19.5 -126.5t-35.5 -103q-50 -85 -198 -144z" />
    <glyph glyph-name="afii10030" unicode="&#x41c;" horiz-adv-x="983" 
d="M78 0v707h207l197 -555l226 555h197v-707h-170v263l5 156l-168 -419h-190l-145 431l11 -168v-263h-170z" />
    <glyph glyph-name="afii10031" unicode="&#x41d;" horiz-adv-x="796" 
d="M78 0v707h170v-287h300v287h170v-707h-170v291h-300v-291h-170z" />
    <glyph glyph-name="afii10032" unicode="&#x41e;" horiz-adv-x="843" 
d="M413 -12q-183 0 -276.5 96.5t-93.5 270.5q0 177 102.5 270t286.5 93q187 0 277.5 -96.5t90.5 -268.5q0 -177 -99.5 -271t-287.5 -94zM416 122q111 0 161 62.5t50 169.5q0 105 -50.5 167.5t-153.5 62.5q-107 0 -157.5 -62t-50.5 -166t49.5 -169t151.5 -65z" />
    <glyph glyph-name="afii10033" unicode="&#x41f;" horiz-adv-x="786" 
d="M78 0v707h630v-707h-170v578h-290v-578h-170z" />
    <glyph glyph-name="afii10034" unicode="&#x420;" horiz-adv-x="644" 
d="M78 0v707h275q122 0 197.5 -67.5t75.5 -183.5q0 -109 -86.5 -182.5t-238.5 -73.5h-52v-200h-171zM249 574v-243h58q75 0 109.5 33.5t34.5 87.5q0 122 -120 122h-82z" />
    <glyph glyph-name="afii10035" unicode="&#x421;" horiz-adv-x="686" 
d="M435 -10q-193 0 -292.5 92t-99.5 267q0 368 388 368q125 0 220 -43l-45 -123q-56 15 -87 20t-86 6q-99 2 -158 -54t-59 -164q0 -109 64 -168t173 -59q87 0 164 20l36 -128q-92 -34 -218 -34z" />
    <glyph glyph-name="afii10036" unicode="&#x422;" horiz-adv-x="630" 
d="M230 0v574h-222v133h614v-133h-222v-574h-170z" />
    <glyph glyph-name="afii10037" unicode="&#x423;" horiz-adv-x="675" 
d="M202 -9l-45 134q46 15 65 22t37.5 21.5t30.5 36.5l12 23h-49l-253 479h190l170 -351l122 351h193l-225 -490q-24 -53 -47.5 -90t-43 -58.5t-45 -36t-45 -21.5t-52.5 -16q-10 -3 -15 -4z" />
    <glyph glyph-name="afii10038" unicode="&#x424;" horiz-adv-x="885" 
d="M359 0v85q-139 0 -227.5 74t-88.5 214t88.5 214t227.5 74v76h167v-76q139 0 227.5 -74t88.5 -214t-88.5 -214t-227.5 -74v-85h-167zM526 207q67 0 106.5 44t39.5 122q0 81 -39 123.5t-107 42.5v-332zM359 207v332q-68 0 -107 -42.5t-39 -123.5q0 -78 39.5 -122t106.5 -44
z" />
    <glyph glyph-name="afii10039" unicode="&#x425;" horiz-adv-x="695" 
d="M8 0l253 362l-225 345h195l128 -217l138 217h190l-238 -342l238 -365h-196l-141 238l-152 -238h-190z" />
    <glyph glyph-name="afii10040" unicode="&#x426;" horiz-adv-x="836" 
d="M646 -153v153h-568v707h170v-578h285v578h170v-577h103v-283h-160z" />
    <glyph glyph-name="afii10041" unicode="&#x427;" horiz-adv-x="719" 
d="M471 0v282q-86 -31 -163 -31q-127 0 -188.5 49.5t-61.5 152.5v254h170v-218q0 -63 29 -86t89 -23q58 0 125 36v291h170v-707h-170z" />
    <glyph glyph-name="afii10042" unicode="&#x428;" horiz-adv-x="1040" 
d="M78 0v707h170v-578h187v578h170v-578h187v578h170v-707h-884z" />
    <glyph glyph-name="afii10043" unicode="&#x429;" horiz-adv-x="1095" 
d="M905 -153v153h-827v707h170v-578h187v578h170v-578h187v578h170v-577h103v-283h-160z" />
    <glyph glyph-name="afii10044" unicode="&#x42a;" horiz-adv-x="769" 
d="M203 0v578h-203v129h375v-220h52q157 0 241 -64t84 -179t-84.5 -179.5t-240.5 -64.5h-224zM433 356h-58v-223h58q144 0 144 111q0 112 -144 112z" />
    <glyph glyph-name="afii10045" unicode="&#x42b;" horiz-adv-x="939" 
d="M76 0v707h172v-220h52q157 0 241 -64t84 -179t-84.5 -179.5t-240.5 -64.5h-224zM691 0v707h170v-707h-170zM306 356h-58v-223h58q144 0 144 111q0 112 -144 112z" />
    <glyph glyph-name="afii10046" unicode="&#x42c;" horiz-adv-x="644" 
d="M76 0v707h172v-220h52q157 0 241 -62t84 -176q0 -115 -84.5 -182t-240.5 -67h-224zM306 356h-58v-223h58q75 0 109.5 31.5t34.5 84.5q0 107 -144 107z" />
    <glyph glyph-name="afii10047" unicode="&#x42d;" horiz-adv-x="686" 
d="M251 -10q-126 0 -218 34l36 128q77 -20 164 -20q92 0 152 41.5t78 120.5h-323v123h325q-15 79 -71 119t-141 39q-88 -1 -173 -24l-45 123q91 41 220 41q388 0 388 -366q0 -175 -99.5 -267t-292.5 -92z" />
    <glyph glyph-name="afii10048" unicode="&#x42e;" horiz-adv-x="1143" 
d="M713 -12q-165 0 -257.5 79t-109.5 224h-98v-291h-170v707h170v-287h99q19 145 119.5 221.5t265.5 76.5q187 0 277.5 -96.5t90.5 -268.5q0 -177 -99.5 -271t-287.5 -94zM716 122q111 0 161 62.5t50 169.5q0 105 -50.5 167.5t-153.5 62.5q-107 0 -157.5 -62t-50.5 -166
t49.5 -169t151.5 -65z" />
    <glyph glyph-name="afii10049" unicode="&#x42f;" horiz-adv-x="704" 
d="M48 -13l-28 130q52 14 84.5 37.5t59.5 76.5l28 54q-114 53 -114 181q0 115 75 178t198 63h275v-707h-171v244h-52q-26 0 -38 1l-50 -93q-43 -81 -104.5 -120.5t-162.5 -44.5zM397 363h58v210h-72q-130 0 -130 -103q0 -107 144 -107z" />
    <glyph glyph-name="afii10065" unicode="&#x430;" horiz-adv-x="627" 
d="M226 -9q-91 0 -139.5 42t-48.5 123q0 166 234 166h95v34q0 35 -23 48.5t-76 13.5q-61 0 -163 -24l-33 121q114 44 221 44q127 0 182 -39.5t55 -131.5v-243q0 -13 12 -17.5t37 -5.5l-6 -126q-13 -1 -39 -1q-132 0 -151 58q-80 -62 -157 -62zM261 120q38 0 106 19v86
l-82 -2q-85 -2 -85 -57q0 -22 18 -34t43 -12z" />
    <glyph glyph-name="afii10066" unicode="&#x431;" horiz-adv-x="632" 
d="M301 -11q-122 0 -192.5 76t-70.5 228q0 112 24 214.5t77 144.5q89 71 396 120l25 -147q-276 -38 -315 -64q-40 -26 -47 -104q72 40 179 40q217 0 217 -224q0 -142 -80 -213t-213 -71zM313 120q61 0 87.5 42t26.5 102q0 107 -107 107q-67 0 -125 -30v-16.5v-23v-16.5
q0 -165 118 -165z" />
    <glyph glyph-name="afii10067" unicode="&#x432;" horiz-adv-x="591" 
d="M68 0v546h271q89 0 139 -38t50 -112q0 -40 -20 -67.5t-48 -39.5q35 -6 65 -38t30 -86q0 -77 -60.5 -121t-155.5 -44h-271zM235 114h68q82 0 82 56q0 31 -22.5 43t-65.5 13h-62v-112zM235 327h42q92 0 92 52q0 53 -78 53h-56v-105z" />
    <glyph glyph-name="afii10068" unicode="&#x433;" horiz-adv-x="503" 
d="M68 0v546h408v-123h-241v-423h-167z" />
    <glyph glyph-name="afii10069" unicode="&#x434;" horiz-adv-x="686" 
d="M10 -147v269h65q27 49 40.5 84t21.5 85q9 57 22 255h414v-424h93v-269h-153v147h-350v-147h-153zM242 122h164v302h-105q-9 -124 -18 -174q-12 -70 -41 -128z" />
    <glyph glyph-name="afii10070" unicode="&#x435;" horiz-adv-x="596" 
d="M334 -12q-146 0 -221 61t-75 216q0 158 74 226t208 68q238 0 238 -277v-60h-354q-1 -59 39 -80.5t115 -21.5q31 0 156 22l25 -127q-91 -27 -205 -27zM209 329h178q2 51 -19.5 81.5t-61.5 30.5q-43 0 -69 -29.5t-28 -82.5z" />
    <glyph glyph-name="afii10072" unicode="&#x436;" horiz-adv-x="849" 
d="M52 -12l-29 126q70 26 122 90l66 82l-180 260h179l131 -208v208h167v-205l131 205h179l-180 -260l66 -82q52 -64 122 -90l-29 -126q-73 3 -113.5 22t-88.5 85l-87 118v-213h-167v210l-87 -115q-49 -65 -89.5 -84.5t-112.5 -22.5z" />
    <glyph glyph-name="afii10073" unicode="&#x437;" horiz-adv-x="499" 
d="M230 -11q-118 0 -214 48l43 124q90 -43 155 -43q30 0 50.5 13t20.5 37q0 48 -74 48h-86v122h80q34 0 50.5 14t16.5 34q0 19 -17.5 31t-47.5 12q-51 0 -138 -31l-38 116q94 46 206 46q95 0 148 -42.5t53 -102.5q0 -88 -78 -127q42 -12 72.5 -45.5t30.5 -91.5
q0 -65 -59 -113.5t-174 -48.5z" />
    <glyph glyph-name="afii10074" unicode="&#x438;" horiz-adv-x="685" 
d="M68 0v546h167v-238l-3 -86l57 86l161 238h167v-546h-167v235l3 87l-57 -87l-161 -235h-167z" />
    <glyph glyph-name="afii10075" unicode="&#x439;" horiz-adv-x="685" 
d="M342 597q-63 0 -118 32.5t-87 90.5l72 85q61 -68 133 -68q73 0 134 68l72 -85q-32 -58 -87.5 -90.5t-118.5 -32.5zM68 0v546h167v-238l-3 -86l57 86l161 238h167v-546h-167v235l3 87l-57 -87l-161 -235h-167z" />
    <glyph glyph-name="afii10076" unicode="&#x43a;" horiz-adv-x="596" 
d="M68 0v546h167v-213l151 213h183l-203 -255l78 -86q34 -38 63 -58.5t76 -32.5l-19 -126q-78 4 -131 24t-101 83l-97 125v-220h-167z" />
    <glyph glyph-name="afii10077" unicode="&#x43b;" horiz-adv-x="630" 
d="M37 -16l-42 133q84 27 111 73q16 27 29 123.5t17 232.5h410v-546h-167v424h-105q-24 -263 -74 -339q-49 -74 -179 -101z" />
    <glyph glyph-name="afii10078" unicode="&#x43c;" horiz-adv-x="804" 
d="M68 0v546h204l126 -399l140 399h198v-546h-156v163l5 150l-103 -313h-173l-94 316l8 -153v-163h-155z" />
    <glyph glyph-name="afii10079" unicode="&#x43d;" horiz-adv-x="665" 
d="M68 0v546h167v-211h195v211h167v-546h-167v212h-195v-212h-167z" />
    <glyph glyph-name="afii10080" unicode="&#x43e;" horiz-adv-x="643" 
d="M315 -12q-133 0 -205 75t-72 205q0 135 77.5 213.5t208.5 78.5q142 0 211.5 -75t69.5 -212q0 -136 -80 -210.5t-210 -74.5zM323 121q64 0 88 38t24 114q0 74 -25 114.5t-89 40.5q-115 0 -115 -156q0 -75 26.5 -113t90.5 -38z" />
    <glyph glyph-name="afii10081" unicode="&#x43f;" horiz-adv-x="655" 
d="M68 0v546h519v-546h-167v424h-185v-424h-167z" />
    <glyph glyph-name="afii10082" unicode="&#x440;" horiz-adv-x="645" 
d="M68 -220v766h166v-39q21 18 59.5 35.5t72.5 17.5q118 0 179.5 -61.5t61.5 -200.5q0 -82 -25 -143.5t-69 -96.5t-97 -51.5t-115 -16.5q-15 0 -39 2t-28 2v-214h-166zM305 117q62 0 98 49t36 127q0 71 -29 99t-94 28q-37 0 -82 -15v-282q48 -6 71 -6z" />
    <glyph glyph-name="afii10083" unicode="&#x441;" horiz-adv-x="537" 
d="M356 -11q-172 0 -245 67.5t-73 221.5q0 128 80.5 205t218.5 77q103 0 174 -38l-43 -121q-60 23 -124 23q-135 0 -135 -148q0 -84 31 -119t125 -35q37 0 116 14l23 -127q-91 -20 -148 -20z" />
    <glyph glyph-name="afii10084" unicode="&#x442;" horiz-adv-x="522" 
d="M178 0v423h-171v123h508v-123h-171v-423h-166z" />
    <glyph glyph-name="afii10085" unicode="&#x443;" horiz-adv-x="616" 
d="M182 -220l74 220h-60l-188 546h179l94 -324l23 -89l27 89l109 324h168l-267 -766h-159z" />
    <glyph glyph-name="afii10086" unicode="&#x444;" horiz-adv-x="811" 
d="M324 -220v208q-138 0 -212 75t-74 205q0 134 78 212.5t208 79.5v194h163v-194q142 0 214 -75t72 -212q0 -133 -79.5 -207.5t-206.5 -77.5v-208h-163zM487 121q64 0 90 38.5t26 113.5q0 152 -116 155v-307zM324 117v311h-1q-117 0 -117 -156q0 -155 118 -155z" />
    <glyph glyph-name="afii10087" unicode="&#x445;" horiz-adv-x="610" 
d="M8 0l202 279l-187 267h192l89 -166l92 166h189l-187 -267l204 -279h-199l-99 178l-100 -178h-196z" />
    <glyph glyph-name="afii10088" unicode="&#x446;" horiz-adv-x="693" 
d="M520 -147v147h-452v546h167v-424h178v424h167v-424h93v-269h-153z" />
    <glyph glyph-name="afii10089" unicode="&#x447;" horiz-adv-x="624" 
d="M389 0v209q-61 -28 -141 -28q-107 0 -153.5 46.5t-46.5 155.5v163h166v-152q0 -50 19 -69t57 -19q53 0 99 24v216h167v-546h-167z" />
    <glyph glyph-name="afii10090" unicode="&#x448;" horiz-adv-x="899" 
d="M68 0v546h167v-424h131v424h167v-424h131v424h167v-546h-763z" />
    <glyph glyph-name="afii10091" unicode="&#x449;" horiz-adv-x="944" 
d="M771 -147v147h-703v546h167v-424h131v424h167v-424h131v424h167v-424h93v-269h-153z" />
    <glyph glyph-name="afii10092" unicode="&#x44a;" horiz-adv-x="684" 
d="M170 0v424h-170v122h337v-153h57q120 0 192 -52t72 -147q0 -82 -62 -138t-154 -56h-272zM384 271h-47v-148h63q41 0 64.5 19t23.5 54q0 75 -104 75z" />
    <glyph glyph-name="afii10093" unicode="&#x44b;" horiz-adv-x="830" 
d="M68 0v546h167v-153h57q119 0 186.5 -51.5t67.5 -147.5q0 -83 -57.5 -138.5t-148.5 -55.5h-272zM595 0v546h167v-546h-167zM282 271h-47v-148h63q78 0 78 73q0 41 -23.5 58t-70.5 17z" />
    <glyph glyph-name="afii10094" unicode="&#x44c;" horiz-adv-x="582" 
d="M68 0v546h167v-153h57q120 0 192 -52t72 -147q0 -82 -62 -138t-154 -56h-272zM282 271h-47v-148h63q41 0 64.5 19t23.5 54q0 75 -104 75z" />
    <glyph glyph-name="afii10095" unicode="&#x44d;" horiz-adv-x="535" 
d="M216 -9q-105 0 -190 41l43 124q88 -35 148 -35q99 0 111 95h-193v122h192q-17 89 -114 89q-55 0 -131 -26l-48 117q79 42 178 42q285 0 285 -280q0 -138 -73 -213.5t-208 -75.5z" />
    <glyph glyph-name="afii10096" unicode="&#x44e;" horiz-adv-x="936" 
d="M608 -12q-118 0 -188.5 59t-84.5 165h-99v-212h-167v546h167v-211h100q19 106 93.5 165.5t187.5 59.5q142 0 211.5 -75t69.5 -212q0 -136 -80 -210.5t-210 -74.5zM616 121q64 0 88 38t24 114q0 74 -25 114.5t-89 40.5q-115 0 -115 -156q0 -75 26.5 -113t90.5 -38z" />
    <glyph glyph-name="afii10097" unicode="&#x44f;" horiz-adv-x="611" 
d="M53 -12l-17 127q3 1 19 4t18.5 3.5t15 4t16 6.5t12.5 8t15.5 12t13.5 16q8 9 18 26q-39 20 -64 61.5t-25 94.5q0 93 65 144t166 51h237v-546h-167v157h-51l-47 -63q-47 -63 -98 -83.5t-127 -22.5zM333 279h43v145h-52q-35 0 -57 -20t-22 -53t26.5 -52.5t61.5 -19.5z" />
    <glyph glyph-name="uni0450" unicode="&#x450;" horiz-adv-x="596" 
d="M334 -12q-146 0 -221 61t-75 216q0 158 74 226t208 68q238 0 238 -277v-60h-354q-1 -59 39 -80.5t115 -21.5q31 0 156 22l25 -127q-91 -27 -205 -27zM209 329h178q2 51 -19.5 81.5t-61.5 30.5q-43 0 -69 -29.5t-28 -82.5zM356 602l-244 104l54 117l238 -121z" />
    <glyph glyph-name="afii10071" unicode="&#x451;" horiz-adv-x="596" 
d="M334 -12q-146 0 -221 61t-75 216q0 158 74 226t208 68q238 0 238 -277v-60h-354q-1 -59 39 -80.5t115 -21.5q31 0 156 22l25 -127q-91 -27 -205 -27zM209 329h178q2 51 -19.5 81.5t-61.5 30.5q-43 0 -69 -29.5t-28 -82.5zM179 622l-93 94l93 94l94 -94zM423 622l-94 94
l94 94l93 -94z" />
    <glyph glyph-name="afii10099" unicode="&#x452;" horiz-adv-x="706" 
d="M459 -220l-112 102q145 157 145 346q0 125 -103 125q-47 0 -105 -28v-325h-167v552h-99v114h99v88h167v-88h178v-114h-178v-123q94 71 178 71q55 0 95.5 -22.5t62.5 -60.5t32 -81.5t10 -93.5q0 -267 -203 -462z" />
    <glyph glyph-name="afii10100" unicode="&#x453;" horiz-adv-x="503" 
d="M68 0v546h408v-123h-241v-423h-167zM163 602l-47 100l238 121l54 -117z" />
    <glyph glyph-name="afii10101" unicode="&#x454;" horiz-adv-x="537" 
d="M357 -9q-172 0 -245.5 66.5t-73.5 220.5q0 128 80.5 205t218.5 77q103 0 174 -38l-43 -121q-60 23 -124 23q-102 0 -127 -86h187v-122h-191q9 -49 43.5 -70.5t109.5 -21.5q25 0 115 12l23 -127q-82 -18 -147 -18z" />
    <glyph glyph-name="afii10102" unicode="&#x455;" horiz-adv-x="512" 
d="M234 -12q-119 0 -199 23l18 126q106 -15 165 -15q94 0 94 38q0 13 -20.5 23.5t-51 17.5t-66 21t-66 32t-51 52.5t-20.5 80.5q0 84 67 128.5t163 44.5t184 -31l-28 -121q-88 20 -151 20q-26 0 -42.5 -6t-21 -13t-4.5 -14q0 -14 20 -26t50.5 -20t66 -22.5t66 -32.5
t50.5 -51t20 -76q0 -51 -24.5 -88t-63.5 -56t-77.5 -27t-77.5 -8z" />
    <glyph glyph-name="afii10103" unicode="&#x456;" horiz-adv-x="303" 
d="M69 0v546h166v-546h-166zM154 604l-111 112l111 111l112 -111z" />
    <glyph glyph-name="afii10104" unicode="&#x457;" horiz-adv-x="303" 
d="M69 0v546h166v-546h-166zM31 622l-93 94l93 94l94 -94zM275 622l-94 94l94 94l93 -94z" />
    <glyph glyph-name="afii10105" unicode="&#x458;" horiz-adv-x="303" 
d="M14 -220q-65 0 -128 23l31 129q61 -11 92 -11q34 0 47 16.5t13 65.5v543h166v-544q0 -68 -17.5 -114t-50.5 -68.5t-68.5 -31t-84.5 -8.5zM148 604l-111 112l111 111l112 -111z" />
    <glyph glyph-name="afii10106" unicode="&#x459;" horiz-adv-x="910" 
d="M37 -17l-42 133q85 28 113 74q16 27 29 123.5t17 232.5h409v-153h57q120 0 192 -52t72 -147q0 -82 -62 -138t-154 -56h-273v424h-105q-29 -271 -74 -339q-50 -75 -179 -102zM610 271h-47v-148h63q41 0 64.5 19t23.5 54q0 75 -104 75z" />
    <glyph glyph-name="afii10107" unicode="&#x45a;" horiz-adv-x="920" 
d="M68 0v546h168v-191h185v191h167v-191h54q115 0 183.5 -46.5t68.5 -133.5q0 -74 -59 -124.5t-147 -50.5h-267v232h-185v-232h-168zM628 232h-40v-109h53q35 0 55 14t20 40q0 55 -88 55z" />
    <glyph glyph-name="afii10108" unicode="&#x45b;" horiz-adv-x="713" 
d="M117 0v552h-99v114h99v88h167v-88h178v-114h-178v-123q94 71 178 71q50 0 84.5 -11.5t53.5 -29t29.5 -48.5t13 -58.5t2.5 -71.5v-281h-166v267q0 55 -15 71.5t-58 16.5q-60 0 -122 -30v-325h-167z" />
    <glyph glyph-name="afii10109" unicode="&#x45c;" horiz-adv-x="596" 
d="M68 0v546h167v-213l151 213h183l-203 -255l78 -86q34 -38 63 -58.5t76 -32.5l-19 -126q-78 4 -131 24t-101 83l-97 125v-220h-167zM223 602l-47 100l238 121l54 -117z" />
    <glyph glyph-name="uni045D" unicode="&#x45d;" horiz-adv-x="685" 
d="M68 0v546h167v-238l-3 -86l57 86l161 238h167v-546h-167v235l3 87l-57 -87l-161 -235h-167zM420 602l-244 104l54 117l238 -121z" />
    <glyph glyph-name="afii10110" unicode="&#x45e;" horiz-adv-x="616" 
d="M182 -220l74 220h-60l-188 546h179l94 -324l23 -89l27 89l109 324h168l-267 -766h-159zM304 602q-60 0 -112.5 31t-82.5 86l69 81q58 -65 126 -65q69 0 127 65l69 -81q-30 -55 -83 -86t-113 -31z" />
    <glyph glyph-name="afii10193" unicode="&#x45f;" horiz-adv-x="657" 
d="M251 -147v147h-183v546h167v-424h187v424h167v-546h-183v-147h-155z" />
    <glyph glyph-name="afii10146" unicode="&#x462;" horiz-adv-x="697" 
d="M128 0v498h-163v129h163v79l172 1v-80h196v-128h-196v-72h61q161 0 238.5 -50.5t77.5 -162.5q0 -111 -81.5 -162.5t-243.5 -51.5h-224zM358 296h-58v-163h58q81 0 112.5 16.5t31.5 64.5t-31.5 65t-112.5 17z" />
    <glyph glyph-name="afii10194" unicode="&#x463;" horiz-adv-x="601" 
d="M96 0v424h-146v122h146v160h167v-160h171v-122h-171v-61h57q123 0 193.5 -45.5t70.5 -138.5q0 -81 -61 -130t-155 -49h-272zM310 241h-47v-118h63q88 0 88 58q0 60 -104 60z" />
    <glyph glyph-name="afii10147" unicode="&#x472;" horiz-adv-x="843" 
d="M413 -12q-183 0 -276.5 96.5t-93.5 270.5q0 168 104.5 265.5t284.5 97.5q185 0 276.5 -99t91.5 -266q0 -171 -100 -268t-287 -97zM416 122q186 0 208 183h-406q11 -84 60 -133.5t138 -49.5zM218 403h406q-11 83 -61.5 132t-139.5 49q-95 0 -145 -48.5t-60 -132.5z" />
    <glyph glyph-name="afii10195" unicode="&#x473;" horiz-adv-x="643" 
d="M315 -12q-133 0 -205 75t-72 205q0 135 77.5 213.5t208.5 78.5q142 0 211.5 -75t69.5 -212q0 -136 -80 -210.5t-210 -74.5zM323 121q52 0 77.5 26t31.5 78h-224q14 -104 115 -104zM209 323h223q-15 105 -111 105q-95 0 -112 -105z" />
    <glyph glyph-name="afii10148" unicode="&#x474;" horiz-adv-x="753" 
d="M244 0l-241 707h179l175 -580l147 413q48 140 149 200l120 -96q-42 -28 -71.5 -65.5t-54.5 -104.5l-184 -474h-219z" />
    <glyph glyph-name="afii10196" unicode="&#x475;" horiz-adv-x="623" 
d="M205 0l-197 546h179l92 -296l28 -109l31 109l43 126q48 140 149 200l120 -96q-42 -28 -71 -64.5t-54 -99.5l-122 -316h-198z" />
    <glyph glyph-name="afii10050" unicode="&#x490;" horiz-adv-x="610" 
d="M78 0v707h334v161h160l-1 -294h-323v-574h-170z" />
    <glyph glyph-name="afii10098" unicode="&#x491;" horiz-adv-x="503" 
d="M68 0v546h255v114h152l1 -237h-242v-423h-166z" />
    <glyph glyph-name="afii10798" unicode="&#x4d8;" horiz-adv-x="795" 
d="M385 -12q-342 0 -350 350v74h540q-12 79 -65.5 125.5t-141.5 46.5q-66 0 -117 -12t-111 -45l-66 110q73 46 148 63.5t170 17.5q173 -1 266.5 -101t93.5 -264q0 -172 -94 -268.5t-273 -96.5zM388 122q92 0 133 44.5t54 129.5h-364q13 -84 52.5 -129t124.5 -45z" />
    <glyph glyph-name="afii10846" unicode="&#x4d9;" horiz-adv-x="596" 
d="M262 560q146 0 221 -61t75 -216q0 -158 -74 -226t-208 -68q-238 0 -238 277v60h354q1 59 -39 80.5t-115 21.5q-31 0 -156 -22l-25 127q92 27 205 27zM387 219h-178q-2 -51 19.5 -81.5t61.5 -30.5q43 0 69 29.5t28 82.5z" />
    <glyph glyph-name="uni1E47" unicode="&#x1e47;" horiz-adv-x="664" 
d="M68 0v546h167v-55q91 69 178 69q50 0 84.5 -11.5t53.5 -28.5t29.5 -48t13 -59t2.5 -71v-342h-166v328q0 55 -15 71.5t-58 16.5q-62 0 -122 -29v-387h-167zM331 -285l-111 112l111 111l112 -111z" />
    <glyph glyph-name="uni1E63" unicode="&#x1e63;" horiz-adv-x="512" 
d="M234 -12q-119 0 -199 23l18 126q106 -15 165 -15q94 0 94 38q0 13 -20.5 23.5t-51 17.5t-66 21t-66 32t-51 52.5t-20.5 80.5q0 84 67 128.5t163 44.5t184 -31l-28 -121q-88 20 -151 20q-26 0 -42.5 -6t-21 -13t-4.5 -14q0 -14 20 -26t50.5 -20t66 -22.5t66 -32.5
t50.5 -51t20 -76q0 -51 -24.5 -88t-63.5 -56t-77.5 -27t-77.5 -8zM230 -285l-111 112l111 111l112 -111z" />
    <glyph glyph-name="Wgrave" unicode="&#x1e80;" horiz-adv-x="1061" 
d="M166 0l-152 707h165l110 -599l164 427l-60 172h169l185 -593l138 593h162l-194 -707h-214l-122 362l-132 -362h-219zM604 744l-275 49l27 131l271 -67z" />
    <glyph glyph-name="wgrave" unicode="&#x1e81;" horiz-adv-x="904" 
d="M148 0l-140 546h175l70 -410l100 410h197l85 -410l90 410h171l-162 -546h-205l-64 298l-18 91l-21 -91l-71 -298h-207zM540 602l-244 104l54 117l238 -121z" />
    <glyph glyph-name="Wacute" unicode="&#x1e82;" horiz-adv-x="1061" 
d="M166 0l-152 707h165l110 -599l164 427l-60 172h169l185 -593l138 593h162l-194 -707h-214l-122 362l-132 -362h-219zM402 744l-23 113l271 67l27 -131z" />
    <glyph glyph-name="wacute" unicode="&#x1e83;" horiz-adv-x="904" 
d="M148 0l-140 546h175l70 -410l100 410h197l85 -410l90 410h171l-162 -546h-205l-64 298l-18 91l-21 -91l-71 -298h-207zM376 602l-47 100l238 121l54 -117z" />
    <glyph glyph-name="Wdieresis" unicode="&#x1e84;" horiz-adv-x="1061" 
d="M166 0l-152 707h165l110 -599l164 427l-60 172h169l185 -593l138 593h162l-194 -707h-214l-122 362l-132 -362h-219zM393 737l-99 100l99 100l100 -100zM637 737l-100 100l100 100l99 -100z" />
    <glyph glyph-name="wdieresis" unicode="&#x1e85;" horiz-adv-x="904" 
d="M148 0l-140 546h175l70 -410l100 410h197l85 -410l90 410h171l-162 -546h-205l-64 298l-18 91l-21 -91l-71 -298h-207zM324 622l-93 94l93 94l94 -94zM568 622l-94 94l94 94l93 -94z" />
    <glyph glyph-name="uni1EBD" unicode="&#x1ebd;" horiz-adv-x="596" 
d="M334 -12q-146 0 -221 61t-75 216q0 158 74 226t208 68q238 0 238 -277v-60h-354q-1 -59 39 -80.5t115 -21.5q31 0 156 22l25 -127q-91 -27 -205 -27zM209 329h178q2 51 -19.5 81.5t-61.5 30.5q-43 0 -69 -29.5t-28 -82.5zM367 634q-27 0 -68.5 19t-59.5 19q-38 0 -70 -28
l-63 74q68 82 144 82q35 0 72.5 -19t50.5 -19q38 0 87 26l55 -74q-74 -80 -148 -80z" />
    <glyph glyph-name="Ygrave" unicode="&#x1ef2;" horiz-adv-x="709" 
d="M261 0v227l-261 480h196l156 -337l166 337h191l-278 -474v-233h-170zM450 744l-275 49l27 131l271 -67z" />
    <glyph glyph-name="ygrave" unicode="&#x1ef3;" horiz-adv-x="616" 
d="M182 -220l74 220h-60l-188 546h179l94 -324l23 -89l27 89l109 324h168l-267 -766h-159zM378 602l-244 104l54 117l238 -121z" />
    <glyph glyph-name="uni1F00" unicode="&#x1f00;" horiz-adv-x="671" 
d="M260 -8q-27 0 -50 3t-57 17t-57.5 39t-40.5 74.5t-17 116.5q0 144 84.5 231t212.5 87q70 0 119 -9.5t120 -31.5v-374q0 -13 12 -17.5t37 -5.5l-6 -126q-14 -1 -50 -1q-69 0 -109 23t-43 81q-16 -42 -58 -74.5t-97 -32.5zM288 131q46 0 79.5 36.5t39.5 95.5v150
q-36 15 -69 15q-67 0 -100.5 -49.5t-33.5 -126.5q0 -42 8.5 -68.5t23.5 -37t25.5 -13t26.5 -2.5zM288 619q44 39 44 82q0 47 -29 82h129q32 -39 32 -79q0 -45 -47 -85h-129z" />
    <glyph glyph-name="uni1F01" unicode="&#x1f01;" horiz-adv-x="671" 
d="M260 -8q-27 0 -50 3t-57 17t-57.5 39t-40.5 74.5t-17 116.5q0 144 84.5 231t212.5 87q70 0 119 -9.5t120 -31.5v-374q0 -13 12 -17.5t37 -5.5l-6 -126q-14 -1 -50 -1q-69 0 -109 23t-43 81q-16 -42 -58 -74.5t-97 -32.5zM288 131q46 0 79.5 36.5t39.5 95.5v150
q-36 15 -69 15q-67 0 -100.5 -49.5t-33.5 -126.5q0 -42 8.5 -68.5t23.5 -37t25.5 -13t26.5 -2.5zM344 619q-47 40 -47 85q0 40 32 79h129q-29 -35 -29 -82q0 -19 11 -39.5t22 -31.5l11 -11h-129z" />
    <glyph glyph-name="uni1F02" unicode="&#x1f02;" horiz-adv-x="671" 
d="M260 -8q-27 0 -50 3t-57 17t-57.5 39t-40.5 74.5t-17 116.5q0 144 84.5 231t212.5 87q70 0 119 -9.5t120 -31.5v-374q0 -13 12 -17.5t37 -5.5l-6 -126q-14 -1 -50 -1q-69 0 -109 23t-43 81q-16 -42 -58 -74.5t-97 -32.5zM288 131q46 0 79.5 36.5t39.5 95.5v150
q-36 15 -69 15q-67 0 -100.5 -49.5t-33.5 -126.5q0 -42 8.5 -68.5t23.5 -37t25.5 -13t26.5 -2.5zM183 619q44 39 44 82q0 47 -29 82h129q32 -39 32 -79q0 -45 -47 -85h-129zM467 619l-98 162h157l69 -162h-128z" />
    <glyph glyph-name="uni1F03" unicode="&#x1f03;" horiz-adv-x="671" 
d="M260 -8q-27 0 -50 3t-57 17t-57.5 39t-40.5 74.5t-17 116.5q0 144 84.5 231t212.5 87q70 0 119 -9.5t120 -31.5v-374q0 -13 12 -17.5t37 -5.5l-6 -126q-14 -1 -50 -1q-69 0 -109 23t-43 81q-16 -42 -58 -74.5t-97 -32.5zM288 131q46 0 79.5 36.5t39.5 95.5v150
q-36 15 -69 15q-67 0 -100.5 -49.5t-33.5 -126.5q0 -42 8.5 -68.5t23.5 -37t25.5 -13t26.5 -2.5zM222 619q-47 40 -47 85q0 40 32 79h129q-29 -35 -29 -82q0 -19 11 -39.5t22 -31.5l11 -11h-129zM449 619l-98 162h157l69 -162h-128z" />
    <glyph glyph-name="uni1F04" unicode="&#x1f04;" horiz-adv-x="671" 
d="M260 -8q-27 0 -50 3t-57 17t-57.5 39t-40.5 74.5t-17 116.5q0 144 84.5 231t212.5 87q70 0 119 -9.5t120 -31.5v-374q0 -13 12 -17.5t37 -5.5l-6 -126q-14 -1 -50 -1q-69 0 -109 23t-43 81q-16 -42 -58 -74.5t-97 -32.5zM288 131q46 0 79.5 36.5t39.5 95.5v150
q-36 15 -69 15q-67 0 -100.5 -49.5t-33.5 -126.5q0 -42 8.5 -68.5t23.5 -37t25.5 -13t26.5 -2.5zM206 619q44 39 44 82q0 47 -29 82h129q32 -39 32 -79q0 -45 -47 -85h-129zM382 619l69 162h157l-98 -162h-128z" />
    <glyph glyph-name="uni1F05" unicode="&#x1f05;" horiz-adv-x="671" 
d="M260 -8q-27 0 -50 3t-57 17t-57.5 39t-40.5 74.5t-17 116.5q0 144 84.5 231t212.5 87q70 0 119 -9.5t120 -31.5v-374q0 -13 12 -17.5t37 -5.5l-6 -126q-14 -1 -50 -1q-69 0 -109 23t-43 81q-16 -42 -58 -74.5t-97 -32.5zM288 131q46 0 79.5 36.5t39.5 95.5v150
q-36 15 -69 15q-67 0 -100.5 -49.5t-33.5 -126.5q0 -42 8.5 -68.5t23.5 -37t25.5 -13t26.5 -2.5zM246 619q-47 40 -47 85q0 40 32 79h129q-29 -35 -29 -82q0 -19 11 -39.5t22 -31.5l11 -11h-129zM395 619l69 162h157l-98 -162h-128z" />
    <glyph glyph-name="uni1F06" unicode="&#x1f06;" horiz-adv-x="671" 
d="M260 -8q-27 0 -50 3t-57 17t-57.5 39t-40.5 74.5t-17 116.5q0 144 84.5 231t212.5 87q70 0 119 -9.5t120 -31.5v-374q0 -13 12 -17.5t37 -5.5l-6 -126q-14 -1 -50 -1q-69 0 -109 23t-43 81q-16 -42 -58 -74.5t-97 -32.5zM288 131q46 0 79.5 36.5t39.5 95.5v150
q-36 15 -69 15q-67 0 -100.5 -49.5t-33.5 -126.5q0 -42 8.5 -68.5t23.5 -37t25.5 -13t26.5 -2.5zM422 823q-29 0 -75 18t-55 18q-36 0 -76 -29l-63 85q69 81 154 81q30 0 65 -19t45 -19q41 0 90 26l55 -84q-54 -77 -140 -77zM283 619q44 39 44 82q0 47 -29 82h129
q32 -39 32 -79q0 -45 -47 -85h-129z" />
    <glyph glyph-name="uni1F07" unicode="&#x1f07;" horiz-adv-x="671" 
d="M260 -8q-27 0 -50 3t-57 17t-57.5 39t-40.5 74.5t-17 116.5q0 144 84.5 231t212.5 87q70 0 119 -9.5t120 -31.5v-374q0 -13 12 -17.5t37 -5.5l-6 -126q-14 -1 -50 -1q-69 0 -109 23t-43 81q-16 -42 -58 -74.5t-97 -32.5zM288 131q46 0 79.5 36.5t39.5 95.5v150
q-36 15 -69 15q-67 0 -100.5 -49.5t-33.5 -126.5q0 -42 8.5 -68.5t23.5 -37t25.5 -13t26.5 -2.5zM411 823q-29 0 -75 18t-55 18q-36 0 -76 -29l-63 85q69 81 154 81q30 0 65 -19t45 -19q41 0 90 26l55 -84q-54 -77 -140 -77zM319 619q-47 40 -47 85q0 40 32 79h129
q-29 -35 -29 -82q0 -19 11 -39.5t22 -31.5l11 -11h-129z" />
    <glyph glyph-name="uni1F08" unicode="&#x1f08;" horiz-adv-x="751" 
d="M9 545q44 39 44 82q0 47 -29 82h129q32 -39 32 -79q0 -45 -47 -85h-129zM11 0l272 707h219l238 -707h-176l-67 207h-239l-77 -207h-170zM303 330h154l-71 272z" />
    <glyph glyph-name="uni1F09" unicode="&#x1f09;" horiz-adv-x="751" 
d="M19 545q-47 40 -47 85q0 40 32 79h129q-29 -35 -29 -82q0 -19 11 -39.5t22 -31.5l11 -11h-129zM11 0l272 707h219l238 -707h-176l-67 207h-239l-77 -207h-170zM303 330h154l-71 272z" />
    <glyph glyph-name="uni1F0A" unicode="&#x1f0a;" horiz-adv-x="751" 
d="M-223 545q44 39 44 82q0 47 -29 82h129q32 -39 32 -79q0 -45 -47 -85h-129zM61 545l-98 162h157l69 -162h-128zM11 0l272 707h219l238 -707h-176l-67 207h-239l-77 -207h-170zM303 330h154l-71 272z" />
    <glyph glyph-name="uni1F0B" unicode="&#x1f0b;" horiz-adv-x="751" 
d="M-187 545q-47 40 -47 85q0 40 32 79h129q-29 -35 -29 -82q0 -19 11 -39.5t22 -31.5l11 -11h-129zM40 545l-98 162h157l69 -162h-128zM11 0l272 707h219l238 -707h-176l-67 207h-239l-77 -207h-170zM303 330h154l-71 272z" />
    <glyph glyph-name="uni1F0C" unicode="&#x1f0c;" horiz-adv-x="751" 
d="M-167 545q44 39 44 82q0 47 -29 82h129q32 -39 32 -79q0 -45 -47 -85h-129zM9 545l69 162h157l-98 -162h-128zM11 0l272 707h219l238 -707h-176l-67 207h-239l-77 -207h-170zM303 330h154l-71 272z" />
    <glyph glyph-name="uni1F0D" unicode="&#x1f0d;" horiz-adv-x="751" 
d="M-179 545q-47 40 -47 85q0 40 32 79h129q-29 -35 -29 -82q0 -19 11 -39.5t22 -31.5l11 -11h-129zM-30 545l69 162h157l-98 -162h-128zM11 0l272 707h219l238 -707h-176l-67 207h-239l-77 -207h-170zM303 330h154l-71 272z" />
    <glyph glyph-name="uni1F0E" unicode="&#x1f0e;" horiz-adv-x="751" 
d="M64 563q-29 0 -75 18t-55 18q-36 0 -76 -29l-63 85q69 81 154 81q30 0 65 -19t45 -19q41 0 90 26l55 -84q-54 -77 -140 -77zM-75 359q44 39 44 82q0 47 -29 82h129q32 -39 32 -79q0 -45 -47 -85h-129zM11 0l272 707h219l238 -707h-176l-67 207h-239l-77 -207h-170z
M303 330h154l-71 272z" />
    <glyph glyph-name="uni1F0F" unicode="&#x1f0f;" horiz-adv-x="751" 
d="M48 599q-29 0 -75 18t-55 18q-36 0 -76 -29l-63 85q69 81 154 81q30 0 65 -19t45 -19q41 0 90 26l55 -84q-54 -77 -140 -77zM-44 395q-47 40 -47 85q0 40 32 79h129q-29 -35 -29 -82q0 -19 11 -39.5t22 -31.5l11 -11h-129zM11 0l272 707h219l238 -707h-176l-67 207h-239
l-77 -207h-170zM303 330h154l-71 272z" />
    <glyph glyph-name="uni1F10" unicode="&#x1f10;" 
d="M302 -12q-129 0 -195.5 41.5t-66.5 118.5q0 50 29.5 89.5t90.5 56.5q-45 12 -69.5 43t-24.5 76q0 61 66 104t186 43q127 0 211 -42l-43 -120q-26 10 -78.5 20.5t-97.5 10.5q-81 0 -81 -42q0 -14 10.5 -23t19.5 -10.5t17 -1.5h138v-121h-140q-23 0 -43 -13.5t-20 -42.5
q0 -25 30.5 -38t80.5 -13q36 0 85.5 9.5t82.5 25.5l49 -119q-118 -52 -237 -52zM225 619q44 39 44 82q0 47 -29 82h129q32 -39 32 -79q0 -45 -47 -85h-129z" />
    <glyph glyph-name="uni1F11" unicode="&#x1f11;" 
d="M302 -12q-129 0 -195.5 41.5t-66.5 118.5q0 50 29.5 89.5t90.5 56.5q-45 12 -69.5 43t-24.5 76q0 61 66 104t186 43q127 0 211 -42l-43 -120q-26 10 -78.5 20.5t-97.5 10.5q-81 0 -81 -42q0 -14 10.5 -23t19.5 -10.5t17 -1.5h138v-121h-140q-23 0 -43 -13.5t-20 -42.5
q0 -25 30.5 -38t80.5 -13q36 0 85.5 9.5t82.5 25.5l49 -119q-118 -52 -237 -52zM284 619q-47 40 -47 85q0 40 32 79h129q-29 -35 -29 -82q0 -19 11 -39.5t22 -31.5l11 -11h-129z" />
    <glyph glyph-name="uni1F12" unicode="&#x1f12;" 
d="M302 -12q-129 0 -195.5 41.5t-66.5 118.5q0 50 29.5 89.5t90.5 56.5q-45 12 -69.5 43t-24.5 76q0 61 66 104t186 43q127 0 211 -42l-43 -120q-26 10 -78.5 20.5t-97.5 10.5q-81 0 -81 -42q0 -14 10.5 -23t19.5 -10.5t17 -1.5h138v-121h-140q-23 0 -43 -13.5t-20 -42.5
q0 -25 30.5 -38t80.5 -13q36 0 85.5 9.5t82.5 25.5l49 -119q-118 -52 -237 -52zM118 619q44 39 44 82q0 47 -29 82h129q32 -39 32 -79q0 -45 -47 -85h-129zM402 619l-98 162h157l69 -162h-128z" />
    <glyph glyph-name="uni1F13" unicode="&#x1f13;" 
d="M302 -12q-129 0 -195.5 41.5t-66.5 118.5q0 50 29.5 89.5t90.5 56.5q-45 12 -69.5 43t-24.5 76q0 61 66 104t186 43q127 0 211 -42l-43 -120q-26 10 -78.5 20.5t-97.5 10.5q-81 0 -81 -42q0 -14 10.5 -23t19.5 -10.5t17 -1.5h138v-121h-140q-23 0 -43 -13.5t-20 -42.5
q0 -25 30.5 -38t80.5 -13q36 0 85.5 9.5t82.5 25.5l49 -119q-118 -52 -237 -52zM158 619q-47 40 -47 85q0 40 32 79h129q-29 -35 -29 -82q0 -19 11 -39.5t22 -31.5l11 -11h-129zM385 619l-98 162h157l69 -162h-128z" />
    <glyph glyph-name="uni1F14" unicode="&#x1f14;" 
d="M302 -12q-129 0 -195.5 41.5t-66.5 118.5q0 50 29.5 89.5t90.5 56.5q-45 12 -69.5 43t-24.5 76q0 61 66 104t186 43q127 0 211 -42l-43 -120q-26 10 -78.5 20.5t-97.5 10.5q-81 0 -81 -42q0 -14 10.5 -23t19.5 -10.5t17 -1.5h138v-121h-140q-23 0 -43 -13.5t-20 -42.5
q0 -25 30.5 -38t80.5 -13q36 0 85.5 9.5t82.5 25.5l49 -119q-118 -52 -237 -52zM146 619q44 39 44 82q0 47 -29 82h129q32 -39 32 -79q0 -45 -47 -85h-129zM322 619l69 162h157l-98 -162h-128z" />
    <glyph glyph-name="uni1F15" unicode="&#x1f15;" 
d="M302 -12q-129 0 -195.5 41.5t-66.5 118.5q0 50 29.5 89.5t90.5 56.5q-45 12 -69.5 43t-24.5 76q0 61 66 104t186 43q127 0 211 -42l-43 -120q-26 10 -78.5 20.5t-97.5 10.5q-81 0 -81 -42q0 -14 10.5 -23t19.5 -10.5t17 -1.5h138v-121h-140q-23 0 -43 -13.5t-20 -42.5
q0 -25 30.5 -38t80.5 -13q36 0 85.5 9.5t82.5 25.5l49 -119q-118 -52 -237 -52zM176 619q-47 40 -47 85q0 40 32 79h129q-29 -35 -29 -82q0 -19 11 -39.5t22 -31.5l11 -11h-129zM325 619l69 162h157l-98 -162h-128z" />
    <glyph glyph-name="uni1F18" unicode="&#x1f18;" horiz-adv-x="613" 
d="M-147 545q44 39 44 82q0 47 -29 82h129q32 -39 32 -79q0 -45 -47 -85h-129zM78 0v707h464v-133h-294v-157h272v-124h-272v-160h317v-133h-487z" />
    <glyph glyph-name="uni1F19" unicode="&#x1f19;" horiz-adv-x="613" 
d="M-101 545q-47 40 -47 85q0 40 32 79h129q-29 -35 -29 -82q0 -19 11 -39.5t22 -31.5l11 -11h-129zM78 0v707h464v-133h-294v-157h272v-124h-272v-160h317v-133h-487z" />
    <glyph glyph-name="uni1F1A" unicode="&#x1f1a;" horiz-adv-x="613" 
d="M-368 545q44 39 44 82q0 47 -29 82h129q32 -39 32 -79q0 -45 -47 -85h-129zM-84 545l-98 162h157l69 -162h-128zM78 0v707h464v-133h-294v-157h272v-124h-272v-160h317v-133h-487z" />
    <glyph glyph-name="uni1F1B" unicode="&#x1f1b;" horiz-adv-x="613" 
d="M-318 545q-47 40 -47 85q0 40 32 79h129q-29 -35 -29 -82q0 -19 11 -39.5t22 -31.5l11 -11h-129zM-91 545l-98 162h157l69 -162h-128zM78 0v707h464v-133h-294v-157h272v-124h-272v-160h317v-133h-487z" />
    <glyph glyph-name="uni1F1C" unicode="&#x1f1c;" horiz-adv-x="613" 
d="M-357 545q44 39 44 82q0 47 -29 82h129q32 -39 32 -79q0 -45 -47 -85h-129zM-181 545l69 162h157l-98 -162h-128zM78 0v707h464v-133h-294v-157h272v-124h-272v-160h317v-133h-487z" />
    <glyph glyph-name="uni1F1D" unicode="&#x1f1d;" horiz-adv-x="613" 
d="M-337 545q-47 40 -47 85q0 40 32 79h129q-29 -35 -29 -82q0 -19 11 -39.5t22 -31.5l11 -11h-129zM-188 545l69 162h157l-98 -162h-128zM78 0v707h464v-133h-294v-157h272v-124h-272v-160h317v-133h-487z" />
    <glyph glyph-name="uni1F20" unicode="&#x1f20;" horiz-adv-x="681" 
d="M447 -220v549q0 55 -15 71.5t-58 16.5q-60 0 -122 -30v-387h-167v409q0 13 -11 17.5t-36 5.5l6 126q42 3 57 3q129 0 147 -73q104 74 182 74q50 0 84.5 -11.5t53.5 -29t29.5 -48.5t13 -58.5t2.5 -71.5v-563h-166zM281 619q44 39 44 82q0 47 -29 82h129q32 -39 32 -79
q0 -45 -47 -85h-129z" />
    <glyph glyph-name="uni1F21" unicode="&#x1f21;" horiz-adv-x="681" 
d="M447 -220v549q0 55 -15 71.5t-58 16.5q-60 0 -122 -30v-387h-167v409q0 13 -11 17.5t-36 5.5l6 126q42 3 57 3q129 0 147 -73q104 74 182 74q50 0 84.5 -11.5t53.5 -29t29.5 -48.5t13 -58.5t2.5 -71.5v-563h-166zM320 616q-47 40 -47 85q0 40 32 79h129q-29 -35 -29 -82
q0 -19 11 -39.5t22 -31.5l11 -11h-129z" />
    <glyph glyph-name="uni1F22" unicode="&#x1f22;" horiz-adv-x="681" 
d="M447 -220v549q0 55 -15 71.5t-58 16.5q-60 0 -122 -30v-387h-167v409q0 13 -11 17.5t-36 5.5l6 126q42 3 57 3q129 0 147 -73q104 74 182 74q50 0 84.5 -11.5t53.5 -29t29.5 -48.5t13 -58.5t2.5 -71.5v-563h-166zM138 619q44 39 44 82q0 47 -29 82h129q32 -39 32 -79
q0 -45 -47 -85h-129zM422 619l-98 162h157l69 -162h-128z" />
    <glyph glyph-name="uni1F23" unicode="&#x1f23;" horiz-adv-x="681" 
d="M447 -220v549q0 55 -15 71.5t-58 16.5q-60 0 -122 -30v-387h-167v409q0 13 -11 17.5t-36 5.5l6 126q42 3 57 3q129 0 147 -73q104 74 182 74q50 0 84.5 -11.5t53.5 -29t29.5 -48.5t13 -58.5t2.5 -71.5v-563h-166zM186 619q-47 40 -47 85q0 40 32 79h129q-29 -35 -29 -82
q0 -19 11 -39.5t22 -31.5l11 -11h-129zM413 619l-98 162h157l69 -162h-128z" />
    <glyph glyph-name="uni1F24" unicode="&#x1f24;" horiz-adv-x="681" 
d="M447 -220v549q0 55 -15 71.5t-58 16.5q-60 0 -122 -30v-387h-167v409q0 13 -11 17.5t-36 5.5l6 126q42 3 57 3q129 0 147 -73q104 74 182 74q50 0 84.5 -11.5t53.5 -29t29.5 -48.5t13 -58.5t2.5 -71.5v-563h-166zM183 619q44 39 44 82q0 47 -29 82h129q32 -39 32 -79
q0 -45 -47 -85h-129zM359 619l69 162h157l-98 -162h-128z" />
    <glyph glyph-name="uni1F25" unicode="&#x1f25;" horiz-adv-x="681" 
d="M447 -220v549q0 55 -15 71.5t-58 16.5q-60 0 -122 -30v-387h-167v409q0 13 -11 17.5t-36 5.5l6 126q42 3 57 3q129 0 147 -73q104 74 182 74q50 0 84.5 -11.5t53.5 -29t29.5 -48.5t13 -58.5t2.5 -71.5v-563h-166zM204 619q-47 40 -47 85q0 40 32 79h129q-29 -35 -29 -82
q0 -19 11 -39.5t22 -31.5l11 -11h-129zM353 619l69 162h157l-98 -162h-128z" />
    <glyph glyph-name="uni1F26" unicode="&#x1f26;" horiz-adv-x="681" 
d="M447 -220v549q0 55 -15 71.5t-58 16.5q-60 0 -122 -30v-387h-167v409q0 13 -11 17.5t-36 5.5l6 126q42 3 57 3q129 0 147 -73q104 74 182 74q50 0 84.5 -11.5t53.5 -29t29.5 -48.5t13 -58.5t2.5 -71.5v-563h-166zM384 823q-29 0 -75 18t-55 18q-36 0 -76 -29l-63 85
q69 81 154 81q30 0 65 -19t45 -19q41 0 90 26l55 -84q-54 -77 -140 -77zM245 619q44 39 44 82q0 47 -29 82h129q32 -39 32 -79q0 -45 -47 -85h-129z" />
    <glyph glyph-name="uni1F27" unicode="&#x1f27;" horiz-adv-x="681" 
d="M447 -220v549q0 55 -15 71.5t-58 16.5q-60 0 -122 -30v-387h-167v409q0 13 -11 17.5t-36 5.5l6 126q42 3 57 3q129 0 147 -73q104 74 182 74q50 0 84.5 -11.5t53.5 -29t29.5 -48.5t13 -58.5t2.5 -71.5v-563h-166zM396 823q-29 0 -75 18t-55 18q-36 0 -76 -29l-63 85
q69 81 154 81q30 0 65 -19t45 -19q41 0 90 26l55 -84q-54 -77 -140 -77zM304 619q-47 40 -47 85q0 40 32 79h129q-29 -35 -29 -82q0 -19 11 -39.5t22 -31.5l11 -11h-129z" />
    <glyph glyph-name="uni1F28" unicode="&#x1f28;" horiz-adv-x="796" 
d="M-158 545q44 39 44 82q0 47 -29 82h129q32 -39 32 -79q0 -45 -47 -85h-129zM78 0v707h170v-287h300v287h170v-707h-170v291h-300v-291h-170z" />
    <glyph glyph-name="uni1F29" unicode="&#x1f29;" horiz-adv-x="796" 
d="M-106 545q-47 40 -47 85q0 40 32 79h129q-29 -35 -29 -82q0 -19 11 -39.5t22 -31.5l11 -11h-129zM78 0v707h170v-287h300v287h170v-707h-170v291h-300v-291h-170z" />
    <glyph glyph-name="uni1F2A" unicode="&#x1f2a;" horiz-adv-x="796" 
d="M-380 545q44 39 44 82q0 47 -29 82h129q32 -39 32 -79q0 -45 -47 -85h-129zM-96 545l-98 162h157l69 -162h-128zM78 0v707h170v-287h300v287h170v-707h-170v291h-300v-291h-170z" />
    <glyph glyph-name="uni1F2B" unicode="&#x1f2b;" horiz-adv-x="796" 
d="M-317 545q-47 40 -47 85q0 40 32 79h129q-29 -35 -29 -82q0 -19 11 -39.5t22 -31.5l11 -11h-129zM-90 545l-98 162h157l69 -162h-128zM78 0v707h170v-287h300v287h170v-707h-170v291h-300v-291h-170z" />
    <glyph glyph-name="uni1F2C" unicode="&#x1f2c;" horiz-adv-x="796" 
d="M-375 545q44 39 44 82q0 47 -29 82h129q32 -39 32 -79q0 -45 -47 -85h-129zM-199 545l69 162h157l-98 -162h-128zM78 0v707h170v-287h300v287h170v-707h-170v291h-300v-291h-170z" />
    <glyph glyph-name="uni1F2D" unicode="&#x1f2d;" horiz-adv-x="796" 
d="M-346 545q-47 40 -47 85q0 40 32 79h129q-29 -35 -29 -82q0 -19 11 -39.5t22 -31.5l11 -11h-129zM-197 545l69 162h157l-98 -162h-128zM78 0v707h170v-287h300v287h170v-707h-170v291h-300v-291h-170z" />
    <glyph glyph-name="uni1F2E" unicode="&#x1f2e;" horiz-adv-x="796" 
d="M-108 559q-29 0 -75 18t-55 18q-36 0 -76 -29l-63 85q69 81 154 81q30 0 65 -19t45 -19q41 0 90 26l55 -84q-54 -77 -140 -77zM-247 355q44 39 44 82q0 47 -29 82h129q32 -39 32 -79q0 -45 -47 -85h-129zM78 0v707h170v-287h300v287h170v-707h-170v291h-300v-291h-170z
" />
    <glyph glyph-name="uni1F2F" unicode="&#x1f2f;" horiz-adv-x="796" 
d="M-132 560q-29 0 -75 18t-55 18q-36 0 -76 -29l-63 85q69 81 154 81q30 0 65 -19t45 -19q41 0 90 26l55 -84q-54 -77 -140 -77zM-224 356q-47 40 -47 85q0 40 32 79h129q-29 -35 -29 -82q0 -19 11 -39.5t22 -31.5l11 -11h-129zM78 0v707h170v-287h300v287h170v-707h-170
v291h-300v-291h-170z" />
    <glyph glyph-name="uni1F30" unicode="&#x1f30;" horiz-adv-x="302" 
d="M68 0v546h166v-546h-166zM69 619q44 39 44 82q0 47 -29 82h129q32 -39 32 -79q0 -45 -47 -85h-129z" />
    <glyph glyph-name="uni1F31" unicode="&#x1f31;" horiz-adv-x="302" 
d="M68 0v546h166v-546h-166zM107 619q-47 40 -47 85q0 40 32 79h129q-29 -35 -29 -82q0 -19 11 -39.5t22 -31.5l11 -11h-129z" />
    <glyph glyph-name="uni1F32" unicode="&#x1f32;" horiz-adv-x="302" 
d="M68 0v546h166v-546h-166zM-62 619q44 39 44 82q0 47 -29 82h129q32 -39 32 -79q0 -45 -47 -85h-129zM222 619l-98 162h157l69 -162h-128z" />
    <glyph glyph-name="uni1F33" unicode="&#x1f33;" horiz-adv-x="302" 
d="M68 0v546h166v-546h-166zM-8 619q-47 40 -47 85q0 40 32 79h129q-29 -35 -29 -82q0 -19 11 -39.5t22 -31.5l11 -11h-129zM219 619l-98 162h157l69 -162h-128z" />
    <glyph glyph-name="uni1F34" unicode="&#x1f34;" horiz-adv-x="302" 
d="M68 0v546h166v-546h-166zM-9 619q44 39 44 82q0 47 -29 82h129q32 -39 32 -79q0 -45 -47 -85h-129zM167 619l69 162h157l-98 -162h-128z" />
    <glyph glyph-name="uni1F35" unicode="&#x1f35;" horiz-adv-x="302" 
d="M68 0v546h166v-546h-166zM23 619q-47 40 -47 85q0 40 32 79h129q-29 -35 -29 -82q0 -19 11 -39.5t22 -31.5l11 -11h-129zM172 619l69 162h157l-98 -162h-128z" />
    <glyph glyph-name="uni1F36" unicode="&#x1f36;" horiz-adv-x="302" 
d="M68 0v546h166v-546h-166zM216 823q-29 0 -75 18t-55 18q-36 0 -76 -29l-63 85q69 81 154 81q30 0 65 -19t45 -19q41 0 90 26l55 -84q-54 -77 -140 -77zM77 619q44 39 44 82q0 47 -29 82h129q32 -39 32 -79q0 -45 -47 -85h-129z" />
    <glyph glyph-name="uni1F37" unicode="&#x1f37;" horiz-adv-x="302" 
d="M68 0v546h166v-546h-166zM196 823q-29 0 -75 18t-55 18q-36 0 -76 -29l-63 85q69 81 154 81q30 0 65 -19t45 -19q41 0 90 26l55 -84q-54 -77 -140 -77zM104 619q-47 40 -47 85q0 40 32 79h129q-29 -35 -29 -82q0 -19 11 -39.5t22 -31.5l11 -11h-129z" />
    <glyph glyph-name="uni1F38" unicode="&#x1f38;" horiz-adv-x="326" 
d="M-137 545q44 39 44 82q0 47 -29 82h129q32 -39 32 -79q0 -45 -47 -85h-129zM78 0v707h170v-707h-170z" />
    <glyph glyph-name="uni1F39" unicode="&#x1f39;" horiz-adv-x="326" 
d="M-91 545q-47 40 -47 85q0 40 32 79h129q-29 -35 -29 -82q0 -19 11 -39.5t22 -31.5l11 -11h-129zM78 0v707h170v-707h-170z" />
    <glyph glyph-name="uni1F3A" unicode="&#x1f3a;" horiz-adv-x="326" 
d="M-377 545q44 39 44 82q0 47 -29 82h129q32 -39 32 -79q0 -45 -47 -85h-129zM-93 545l-98 162h157l69 -162h-128zM78 0v707h170v-707h-170z" />
    <glyph glyph-name="uni1F3B" unicode="&#x1f3b;" horiz-adv-x="326" 
d="M-316 545q-47 40 -47 85q0 40 32 79h129q-29 -35 -29 -82q0 -19 11 -39.5t22 -31.5l11 -11h-129zM-89 545l-98 162h157l69 -162h-128zM78 0v707h170v-707h-170z" />
    <glyph glyph-name="uni1F3C" unicode="&#x1f3c;" horiz-adv-x="326" 
d="M-367 545q44 39 44 82q0 47 -29 82h129q32 -39 32 -79q0 -45 -47 -85h-129zM-191 545l69 162h157l-98 -162h-128zM78 0v707h170v-707h-170z" />
    <glyph glyph-name="uni1F3D" unicode="&#x1f3d;" horiz-adv-x="326" 
d="M-335 544q-47 40 -47 85q0 40 32 79h129q-29 -35 -29 -82q0 -19 11 -39.5t22 -31.5l11 -11h-129zM-186 544l69 162h157l-98 -162h-128zM78 0v707h170v-707h-170z" />
    <glyph glyph-name="uni1F3E" unicode="&#x1f3e;" horiz-adv-x="326" 
d="M-130 559q-29 0 -75 18t-55 18q-36 0 -76 -29l-63 85q69 81 154 81q30 0 65 -19t45 -19q41 0 90 26l55 -84q-54 -77 -140 -77zM-269 355q44 39 44 82q0 47 -29 82h129q32 -39 32 -79q0 -45 -47 -85h-129zM78 0v707h170v-707h-170z" />
    <glyph glyph-name="uni1F3F" unicode="&#x1f3f;" horiz-adv-x="326" 
d="M-110 560q-29 0 -75 18t-55 18q-36 0 -76 -29l-63 85q69 81 154 81q30 0 65 -19t45 -19q41 0 90 26l55 -84q-54 -77 -140 -77zM-202 356q-47 40 -47 85q0 40 32 79h129q-29 -35 -29 -82q0 -19 11 -39.5t22 -31.5l11 -11h-129zM78 0v707h170v-707h-170z" />
    <glyph glyph-name="uni1F40" unicode="&#x1f40;" horiz-adv-x="643" 
d="M239 619q44 39 44 82q0 47 -29 82h129q32 -39 32 -79q0 -45 -47 -85h-129zM315 -12q-133 0 -205 75t-72 205q0 135 77.5 213.5t208.5 78.5q142 0 211.5 -75t69.5 -212q0 -136 -80 -210.5t-210 -74.5zM323 121q64 0 88 38t24 114q0 74 -25 114.5t-89 40.5
q-115 0 -115 -156q0 -75 26.5 -113t90.5 -38z" />
    <glyph glyph-name="uni1F41" unicode="&#x1f41;" horiz-adv-x="643" 
d="M287 619q-47 40 -47 85q0 40 32 79h129q-29 -35 -29 -82q0 -19 11 -39.5t22 -31.5l11 -11h-129zM315 -12q-133 0 -205 75t-72 205q0 135 77.5 213.5t208.5 78.5q142 0 211.5 -75t69.5 -212q0 -136 -80 -210.5t-210 -74.5zM323 121q64 0 88 38t24 114q0 74 -25 114.5
t-89 40.5q-115 0 -115 -156q0 -75 26.5 -113t90.5 -38z" />
    <glyph glyph-name="uni1F42" unicode="&#x1f42;" horiz-adv-x="643" 
d="M117 619q44 39 44 82q0 47 -29 82h129q32 -39 32 -79q0 -45 -47 -85h-129zM401 619l-98 162h157l69 -162h-128zM315 -12q-133 0 -205 75t-72 205q0 135 77.5 213.5t208.5 78.5q142 0 211.5 -75t69.5 -212q0 -136 -80 -210.5t-210 -74.5zM323 121q64 0 88 38t24 114
q0 74 -25 114.5t-89 40.5q-115 0 -115 -156q0 -75 26.5 -113t90.5 -38z" />
    <glyph glyph-name="uni1F43" unicode="&#x1f43;" horiz-adv-x="643" 
d="M179 619q-47 40 -47 85q0 40 32 79h129q-29 -35 -29 -82q0 -19 11 -39.5t22 -31.5l11 -11h-129zM406 619l-98 162h157l69 -162h-128zM315 -12q-133 0 -205 75t-72 205q0 135 77.5 213.5t208.5 78.5q142 0 211.5 -75t69.5 -212q0 -136 -80 -210.5t-210 -74.5zM323 121
q64 0 88 38t24 114q0 74 -25 114.5t-89 40.5q-115 0 -115 -156q0 -75 26.5 -113t90.5 -38z" />
    <glyph glyph-name="uni1F44" unicode="&#x1f44;" horiz-adv-x="643" 
d="M166 619q44 39 44 82q0 47 -29 82h129q32 -39 32 -79q0 -45 -47 -85h-129zM342 619l69 162h157l-98 -162h-128zM315 -12q-133 0 -205 75t-72 205q0 135 77.5 213.5t208.5 78.5q142 0 211.5 -75t69.5 -212q0 -136 -80 -210.5t-210 -74.5zM323 121q64 0 88 38t24 114
q0 74 -25 114.5t-89 40.5q-115 0 -115 -156q0 -75 26.5 -113t90.5 -38z" />
    <glyph glyph-name="uni1F45" unicode="&#x1f45;" horiz-adv-x="643" 
d="M201 619q-47 40 -47 85q0 40 32 79h129q-29 -35 -29 -82q0 -19 11 -39.5t22 -31.5l11 -11h-129zM350 619l69 162h157l-98 -162h-128zM315 -12q-133 0 -205 75t-72 205q0 135 77.5 213.5t208.5 78.5q142 0 211.5 -75t69.5 -212q0 -136 -80 -210.5t-210 -74.5zM323 121
q64 0 88 38t24 114q0 74 -25 114.5t-89 40.5q-115 0 -115 -156q0 -75 26.5 -113t90.5 -38z" />
    <glyph glyph-name="uni1F48" unicode="&#x1f48;" horiz-adv-x="843" 
d="M-132 545q44 39 44 82q0 47 -29 82h129q32 -39 32 -79q0 -45 -47 -85h-129zM413 -12q-183 0 -276.5 96.5t-93.5 270.5q0 168 104.5 265.5t284.5 97.5q185 0 276.5 -99t91.5 -266q0 -171 -100 -268t-287 -97zM416 122q111 0 161 62.5t50 169.5q0 105 -50.5 167.5
t-153.5 62.5q-107 0 -157.5 -62t-50.5 -166t49.5 -169t151.5 -65z" />
    <glyph glyph-name="uni1F49" unicode="&#x1f49;" horiz-adv-x="843" 
d="M-82 545q-47 40 -47 85q0 40 32 79h129q-29 -35 -29 -82q0 -19 11 -39.5t22 -31.5l11 -11h-129zM413 -12q-183 0 -276.5 96.5t-93.5 270.5q0 168 104.5 265.5t284.5 97.5q185 0 276.5 -99t91.5 -266q0 -171 -100 -268t-287 -97zM416 122q111 0 161 62.5t50 169.5
q0 105 -50.5 167.5t-153.5 62.5q-107 0 -157.5 -62t-50.5 -166t49.5 -169t151.5 -65z" />
    <glyph glyph-name="uni1F4A" unicode="&#x1f4a;" horiz-adv-x="843" 
d="M-375 545q44 39 44 82q0 47 -29 82h129q32 -39 32 -79q0 -45 -47 -85h-129zM-91 545l-98 162h157l69 -162h-128zM413 -12q-183 0 -276.5 96.5t-93.5 270.5q0 168 104.5 265.5t284.5 97.5q185 0 276.5 -99t91.5 -266q0 -171 -100 -268t-287 -97zM416 122q111 0 161 62.5
t50 169.5q0 105 -50.5 167.5t-153.5 62.5q-107 0 -157.5 -62t-50.5 -166t49.5 -169t151.5 -65z" />
    <glyph glyph-name="uni1F4B" unicode="&#x1f4b;" horiz-adv-x="843" 
d="M-325 545q-47 40 -47 85q0 40 32 79h129q-29 -35 -29 -82q0 -19 11 -39.5t22 -31.5l11 -11h-129zM-98 545l-98 162h157l69 -162h-128zM413 -12q-183 0 -276.5 96.5t-93.5 270.5q0 168 104.5 265.5t284.5 97.5q185 0 276.5 -99t91.5 -266q0 -171 -100 -268t-287 -97z
M416 122q111 0 161 62.5t50 169.5q0 105 -50.5 167.5t-153.5 62.5q-107 0 -157.5 -62t-50.5 -166t49.5 -169t151.5 -65z" />
    <glyph glyph-name="uni1F4C" unicode="&#x1f4c;" horiz-adv-x="843" 
d="M-293 545q44 39 44 82q0 47 -29 82h129q32 -39 32 -79q0 -45 -47 -85h-129zM-117 545l69 162h157l-98 -162h-128zM413 -12q-183 0 -276.5 96.5t-93.5 270.5q0 168 104.5 265.5t284.5 97.5q185 0 276.5 -99t91.5 -266q0 -171 -100 -268t-287 -97zM416 122q111 0 161 62.5
t50 169.5q0 105 -50.5 167.5t-153.5 62.5q-107 0 -157.5 -62t-50.5 -166t49.5 -169t151.5 -65z" />
    <glyph glyph-name="uni1F4D" unicode="&#x1f4d;" horiz-adv-x="843" 
d="M-315 545q-47 40 -47 85q0 40 32 79h129q-29 -35 -29 -82q0 -19 11 -39.5t22 -31.5l11 -11h-129zM-166 545l69 162h157l-98 -162h-128zM413 -12q-183 0 -276.5 96.5t-93.5 270.5q0 168 104.5 265.5t284.5 97.5q185 0 276.5 -99t91.5 -266q0 -171 -100 -268t-287 -97z
M416 122q111 0 161 62.5t50 169.5q0 105 -50.5 167.5t-153.5 62.5q-107 0 -157.5 -62t-50.5 -166t49.5 -169t151.5 -65z" />
    <glyph glyph-name="uni1F50" unicode="&#x1f50;" horiz-adv-x="663" 
d="M335 -12q-267 0 -267 227v331h166v-320q0 -105 98 -105q49 0 73 26t24 90v309h166v-310q0 -125 -69 -186.5t-191 -61.5zM245 619q44 39 44 82q0 47 -29 82h129q32 -39 32 -79q0 -45 -47 -85h-129z" />
    <glyph glyph-name="uni1F51" unicode="&#x1f51;" horiz-adv-x="663" 
d="M335 -12q-267 0 -267 227v331h166v-320q0 -105 98 -105q49 0 73 26t24 90v309h166v-310q0 -125 -69 -186.5t-191 -61.5zM274 619q-47 40 -47 85q0 40 32 79h129q-29 -35 -29 -82q0 -19 11 -39.5t22 -31.5l11 -11h-129z" />
    <glyph glyph-name="uni1F52" unicode="&#x1f52;" horiz-adv-x="663" 
d="M335 -12q-267 0 -267 227v331h166v-320q0 -105 98 -105q49 0 73 26t24 90v309h166v-310q0 -125 -69 -186.5t-191 -61.5zM123 619q44 39 44 82q0 47 -29 82h129q32 -39 32 -79q0 -45 -47 -85h-129zM407 619l-98 162h157l69 -162h-128z" />
    <glyph glyph-name="uni1F53" unicode="&#x1f53;" horiz-adv-x="663" 
d="M335 -12q-267 0 -267 227v331h166v-320q0 -105 98 -105q49 0 73 26t24 90v309h166v-310q0 -125 -69 -186.5t-191 -61.5zM178 619q-47 40 -47 85q0 40 32 79h129q-29 -35 -29 -82q0 -19 11 -39.5t22 -31.5l11 -11h-129zM405 619l-98 162h157l69 -162h-128z" />
    <glyph glyph-name="uni1F54" unicode="&#x1f54;" horiz-adv-x="663" 
d="M335 -12q-267 0 -267 227v331h166v-320q0 -105 98 -105q49 0 73 26t24 90v309h166v-310q0 -125 -69 -186.5t-191 -61.5zM151 619q44 39 44 82q0 47 -29 82h129q32 -39 32 -79q0 -45 -47 -85h-129zM327 619l69 162h157l-98 -162h-128z" />
    <glyph glyph-name="uni1F55" unicode="&#x1f55;" horiz-adv-x="663" 
d="M335 -12q-267 0 -267 227v331h166v-320q0 -105 98 -105q49 0 73 26t24 90v309h166v-310q0 -125 -69 -186.5t-191 -61.5zM186 619q-47 40 -47 85q0 40 32 79h129q-29 -35 -29 -82q0 -19 11 -39.5t22 -31.5l11 -11h-129zM335 619l69 162h157l-98 -162h-128z" />
    <glyph glyph-name="uni1F56" unicode="&#x1f56;" horiz-adv-x="663" 
d="M335 -12q-267 0 -267 227v331h166v-320q0 -105 98 -105q49 0 73 26t24 90v309h166v-310q0 -125 -69 -186.5t-191 -61.5zM380 823q-29 0 -75 18t-55 18q-36 0 -76 -29l-63 85q69 81 154 81q30 0 65 -19t45 -19q41 0 90 26l55 -84q-54 -77 -140 -77zM241 619q44 39 44 82
q0 47 -29 82h129q32 -39 32 -79q0 -45 -47 -85h-129z" />
    <glyph glyph-name="uni1F57" unicode="&#x1f57;" horiz-adv-x="663" 
d="M335 -12q-267 0 -267 227v331h166v-320q0 -105 98 -105q49 0 73 26t24 90v309h166v-310q0 -125 -69 -186.5t-191 -61.5zM376 823q-29 0 -75 18t-55 18q-36 0 -76 -29l-63 85q69 81 154 81q30 0 65 -19t45 -19q41 0 90 26l55 -84q-54 -77 -140 -77zM284 619q-47 40 -47 85
q0 40 32 79h129q-29 -35 -29 -82q0 -19 11 -39.5t22 -31.5l11 -11h-129z" />
    <glyph glyph-name="uni1F59" unicode="&#x1f59;" horiz-adv-x="709" 
d="M-170 545q-47 40 -47 85q0 40 32 79h129q-29 -35 -29 -82q0 -19 11 -39.5t22 -31.5l11 -11h-129zM261 0v227l-261 480h196l156 -337l166 337h191l-278 -474v-233h-170z" />
    <glyph glyph-name="uni1F5B" unicode="&#x1f5b;" horiz-adv-x="709" 
d="M-369 545q-47 40 -47 85q0 40 32 79h129q-29 -35 -29 -82q0 -19 11 -39.5t22 -31.5l11 -11h-129zM-142 545l-98 162h157l69 -162h-128zM261 0v227l-261 480h196l156 -337l166 337h191l-278 -474v-233h-170z" />
    <glyph glyph-name="uni1F5D" unicode="&#x1f5d;" horiz-adv-x="709" 
d="M-419 545q-47 40 -47 85q0 40 32 79h129q-29 -35 -29 -82q0 -19 11 -39.5t22 -31.5l11 -11h-129zM-270 545l69 162h157l-98 -162h-128zM261 0v227l-261 480h196l156 -337l166 337h191l-278 -474v-233h-170z" />
    <glyph glyph-name="uni1F5F" unicode="&#x1f5f;" horiz-adv-x="709" 
d="M-160 569q-29 0 -75 18t-55 18q-36 0 -76 -29l-63 85q69 81 154 81q30 0 65 -19t45 -19q41 0 90 26l55 -84q-54 -77 -140 -77zM-252 365q-47 40 -47 85q0 40 32 79h129q-29 -35 -29 -82q0 -19 11 -39.5t22 -31.5l11 -11h-129zM261 0v227l-261 480h196l156 -337l166 337
h191l-278 -474v-233h-170z" />
    <glyph glyph-name="uni1F60" unicode="&#x1f60;" horiz-adv-x="851" 
d="M255 -12q-104 0 -160.5 69.5t-56.5 179.5q0 90 27 164t113 145h183q-71 -57 -113 -132.5t-42 -155.5q0 -16 0.5 -25.5t2 -27.5t6.5 -29t12 -23t20 -18t30 -6q30 0 47.5 27.5t17.5 76.5v127h166v-125q0 -52 17.5 -79t48.5 -27q25 0 40.5 12.5t21.5 37t7 39t1 40.5
q0 80 -42 155.5t-113 132.5h189q135 -113 135 -304q0 -104 -61.5 -179t-169.5 -75q-53 0 -100 29.5t-59 80.5q-21 -55 -67.5 -82.5t-100.5 -27.5zM358 619q44 39 44 82q0 47 -29 82h129q32 -39 32 -79q0 -45 -47 -85h-129z" />
    <glyph glyph-name="uni1F61" unicode="&#x1f61;" horiz-adv-x="851" 
d="M255 -12q-104 0 -160.5 69.5t-56.5 179.5q0 90 27 164t113 145h183q-71 -57 -113 -132.5t-42 -155.5q0 -16 0.5 -25.5t2 -27.5t6.5 -29t12 -23t20 -18t30 -6q30 0 47.5 27.5t17.5 76.5v127h166v-125q0 -52 17.5 -79t48.5 -27q25 0 40.5 12.5t21.5 37t7 39t1 40.5
q0 80 -42 155.5t-113 132.5h189q135 -113 135 -304q0 -104 -61.5 -179t-169.5 -75q-53 0 -100 29.5t-59 80.5q-21 -55 -67.5 -82.5t-100.5 -27.5zM374 619q-47 40 -47 85q0 40 32 79h129q-29 -35 -29 -82q0 -19 11 -39.5t22 -31.5l11 -11h-129z" />
    <glyph glyph-name="uni1F62" unicode="&#x1f62;" horiz-adv-x="851" 
d="M255 -12q-104 0 -160.5 69.5t-56.5 179.5q0 90 27 164t113 145h183q-71 -57 -113 -132.5t-42 -155.5q0 -16 0.5 -25.5t2 -27.5t6.5 -29t12 -23t20 -18t30 -6q30 0 47.5 27.5t17.5 76.5v127h166v-125q0 -52 17.5 -79t48.5 -27q25 0 40.5 12.5t21.5 37t7 39t1 40.5
q0 80 -42 155.5t-113 132.5h189q135 -113 135 -304q0 -104 -61.5 -179t-169.5 -75q-53 0 -100 29.5t-59 80.5q-21 -55 -67.5 -82.5t-100.5 -27.5zM227 619q44 39 44 82q0 47 -29 82h129q32 -39 32 -79q0 -45 -47 -85h-129zM511 619l-98 162h157l69 -162h-128z" />
    <glyph glyph-name="uni1F63" unicode="&#x1f63;" horiz-adv-x="851" 
d="M255 -12q-104 0 -160.5 69.5t-56.5 179.5q0 90 27 164t113 145h183q-71 -57 -113 -132.5t-42 -155.5q0 -16 0.5 -25.5t2 -27.5t6.5 -29t12 -23t20 -18t30 -6q30 0 47.5 27.5t17.5 76.5v127h166v-125q0 -52 17.5 -79t48.5 -27q25 0 40.5 12.5t21.5 37t7 39t1 40.5
q0 80 -42 155.5t-113 132.5h189q135 -113 135 -304q0 -104 -61.5 -179t-169.5 -75q-53 0 -100 29.5t-59 80.5q-21 -55 -67.5 -82.5t-100.5 -27.5zM274 619q-47 40 -47 85q0 40 32 79h129q-29 -35 -29 -82q0 -19 11 -39.5t22 -31.5l11 -11h-129zM501 619l-98 162h157l69 -162
h-128z" />
    <glyph glyph-name="uni1F64" unicode="&#x1f64;" horiz-adv-x="851" 
d="M255 -12q-104 0 -160.5 69.5t-56.5 179.5q0 90 27 164t113 145h183q-71 -57 -113 -132.5t-42 -155.5q0 -16 0.5 -25.5t2 -27.5t6.5 -29t12 -23t20 -18t30 -6q30 0 47.5 27.5t17.5 76.5v127h166v-125q0 -52 17.5 -79t48.5 -27q25 0 40.5 12.5t21.5 37t7 39t1 40.5
q0 80 -42 155.5t-113 132.5h189q135 -113 135 -304q0 -104 -61.5 -179t-169.5 -75q-53 0 -100 29.5t-59 80.5q-21 -55 -67.5 -82.5t-100.5 -27.5zM271 619q44 39 44 82q0 47 -29 82h129q32 -39 32 -79q0 -45 -47 -85h-129zM447 619l69 162h157l-98 -162h-128z" />
    <glyph glyph-name="uni1F65" unicode="&#x1f65;" horiz-adv-x="851" 
d="M255 -12q-104 0 -160.5 69.5t-56.5 179.5q0 90 27 164t113 145h183q-71 -57 -113 -132.5t-42 -155.5q0 -16 0.5 -25.5t2 -27.5t6.5 -29t12 -23t20 -18t30 -6q30 0 47.5 27.5t17.5 76.5v127h166v-125q0 -52 17.5 -79t48.5 -27q25 0 40.5 12.5t21.5 37t7 39t1 40.5
q0 80 -42 155.5t-113 132.5h189q135 -113 135 -304q0 -104 -61.5 -179t-169.5 -75q-53 0 -100 29.5t-59 80.5q-21 -55 -67.5 -82.5t-100.5 -27.5zM296 619q-47 40 -47 85q0 40 32 79h129q-29 -35 -29 -82q0 -19 11 -39.5t22 -31.5l11 -11h-129zM445 619l69 162h157l-98 -162
h-128z" />
    <glyph glyph-name="uni1F66" unicode="&#x1f66;" horiz-adv-x="851" 
d="M255 -12q-104 0 -160.5 69.5t-56.5 179.5q0 90 27 164t113 145h183q-71 -57 -113 -132.5t-42 -155.5q0 -16 0.5 -25.5t2 -27.5t6.5 -29t12 -23t20 -18t30 -6q30 0 47.5 27.5t17.5 76.5v127h166v-125q0 -52 17.5 -79t48.5 -27q25 0 40.5 12.5t21.5 37t7 39t1 40.5
q0 80 -42 155.5t-113 132.5h189q135 -113 135 -304q0 -104 -61.5 -179t-169.5 -75q-53 0 -100 29.5t-59 80.5q-21 -55 -67.5 -82.5t-100.5 -27.5zM487 823q-29 0 -75 18t-55 18q-36 0 -76 -29l-63 85q69 81 154 81q30 0 65 -19t45 -19q41 0 90 26l55 -84q-54 -77 -140 -77z
M348 619q44 39 44 82q0 47 -29 82h129q32 -39 32 -79q0 -45 -47 -85h-129z" />
    <glyph glyph-name="uni1F67" unicode="&#x1f67;" horiz-adv-x="851" 
d="M255 -12q-104 0 -160.5 69.5t-56.5 179.5q0 90 27 164t113 145h183q-71 -57 -113 -132.5t-42 -155.5q0 -16 0.5 -25.5t2 -27.5t6.5 -29t12 -23t20 -18t30 -6q30 0 47.5 27.5t17.5 76.5v127h166v-125q0 -52 17.5 -79t48.5 -27q25 0 40.5 12.5t21.5 37t7 39t1 40.5
q0 80 -42 155.5t-113 132.5h189q135 -113 135 -304q0 -104 -61.5 -179t-169.5 -75q-53 0 -100 29.5t-59 80.5q-21 -55 -67.5 -82.5t-100.5 -27.5zM456 823q-29 0 -75 18t-55 18q-36 0 -76 -29l-63 85q69 81 154 81q30 0 65 -19t45 -19q41 0 90 26l55 -84q-54 -77 -140 -77z
M364 619q-47 40 -47 85q0 40 32 79h129q-29 -35 -29 -82q0 -19 11 -39.5t22 -31.5l11 -11h-129z" />
    <glyph glyph-name="uni1F68" unicode="&#x1f68;" horiz-adv-x="867" 
d="M63 0v141h107q-46 28 -80.5 86.5t-34.5 132.5q0 171 102 264.5t284 93.5q186 0 278.5 -95t92.5 -260q0 -71 -34 -132.5t-81 -89.5h107v-141h-293v133q128 97 128 229q0 100 -52 161t-155 61q-98 0 -151.5 -59.5t-53.5 -160.5q0 -133 129 -231v-133h-293zM-103 545
q44 39 44 82q0 47 -29 82h129q32 -39 32 -79q0 -45 -47 -85h-129z" />
    <glyph glyph-name="uni1F69" unicode="&#x1f69;" horiz-adv-x="867" 
d="M63 0v141h107q-46 28 -80.5 86.5t-34.5 132.5q0 171 102 264.5t284 93.5q186 0 278.5 -95t92.5 -260q0 -71 -34 -132.5t-81 -89.5h107v-141h-293v133q128 97 128 229q0 100 -52 161t-155 61q-98 0 -151.5 -59.5t-53.5 -160.5q0 -133 129 -231v-133h-293zM-97 545
q-47 40 -47 85q0 40 32 79h129q-29 -35 -29 -82q0 -19 11 -39.5t22 -31.5l11 -11h-129z" />
    <glyph glyph-name="uni1F6A" unicode="&#x1f6a;" horiz-adv-x="867" 
d="M63 0v141h107q-46 28 -80.5 86.5t-34.5 132.5q0 171 102 264.5t284 93.5q186 0 278.5 -95t92.5 -260q0 -71 -34 -132.5t-81 -89.5h107v-141h-293v133q128 97 128 229q0 100 -52 161t-155 61q-98 0 -151.5 -59.5t-53.5 -160.5q0 -133 129 -231v-133h-293zM-374 545
q44 39 44 82q0 47 -29 82h129q32 -39 32 -79q0 -45 -47 -85h-129zM-90 545l-98 162h157l69 -162h-128z" />
    <glyph glyph-name="uni1F6B" unicode="&#x1f6b;" horiz-adv-x="867" 
d="M63 0v141h107q-46 28 -80.5 86.5t-34.5 132.5q0 171 102 264.5t284 93.5q186 0 278.5 -95t92.5 -260q0 -71 -34 -132.5t-81 -89.5h107v-141h-293v133q128 97 128 229q0 100 -52 161t-155 61q-98 0 -151.5 -59.5t-53.5 -160.5q0 -133 129 -231v-133h-293zM-323 545
q-47 40 -47 85q0 40 32 79h129q-29 -35 -29 -82q0 -19 11 -39.5t22 -31.5l11 -11h-129zM-96 545l-98 162h157l69 -162h-128z" />
    <glyph glyph-name="uni1F6C" unicode="&#x1f6c;" horiz-adv-x="867" 
d="M63 0v141h107q-46 28 -80.5 86.5t-34.5 132.5q0 171 102 264.5t284 93.5q186 0 278.5 -95t92.5 -260q0 -71 -34 -132.5t-81 -89.5h107v-141h-293v133q128 97 128 229q0 100 -52 161t-155 61q-98 0 -151.5 -59.5t-53.5 -160.5q0 -133 129 -231v-133h-293zM-280 545
q44 39 44 82q0 47 -29 82h129q32 -39 32 -79q0 -45 -47 -85h-129zM-104 545l69 162h157l-98 -162h-128z" />
    <glyph glyph-name="uni1F6D" unicode="&#x1f6d;" horiz-adv-x="867" 
d="M63 0v141h107q-46 28 -80.5 86.5t-34.5 132.5q0 171 102 264.5t284 93.5q186 0 278.5 -95t92.5 -260q0 -71 -34 -132.5t-81 -89.5h107v-141h-293v133q128 97 128 229q0 100 -52 161t-155 61q-98 0 -151.5 -59.5t-53.5 -160.5q0 -133 129 -231v-133h-293zM-263 545
q-47 40 -47 85q0 40 32 79h129q-29 -35 -29 -82q0 -19 11 -39.5t22 -31.5l11 -11h-129zM-114 545l69 162h157l-98 -162h-128z" />
    <glyph glyph-name="uni1F6E" unicode="&#x1f6e;" horiz-adv-x="867" 
d="M63 0v141h107q-46 28 -80.5 86.5t-34.5 132.5q0 171 102 264.5t284 93.5q186 0 278.5 -95t92.5 -260q0 -71 -34 -132.5t-81 -89.5h107v-141h-293v133q128 97 128 229q0 100 -52 161t-155 61q-98 0 -151.5 -59.5t-53.5 -160.5q0 -133 129 -231v-133h-293zM-56 561
q-29 0 -75 18t-55 18q-36 0 -76 -29l-63 85q69 81 154 81q30 0 65 -19t45 -19q41 0 90 26l55 -84q-54 -77 -140 -77zM-195 357q44 39 44 82q0 47 -29 82h129q32 -39 32 -79q0 -45 -47 -85h-129z" />
    <glyph glyph-name="uni1F6F" unicode="&#x1f6f;" horiz-adv-x="867" 
d="M63 0v141h107q-46 28 -80.5 86.5t-34.5 132.5q0 171 102 264.5t284 93.5q186 0 278.5 -95t92.5 -260q0 -71 -34 -132.5t-81 -89.5h107v-141h-293v133q128 97 128 229q0 100 -52 161t-155 61q-98 0 -151.5 -59.5t-53.5 -160.5q0 -133 129 -231v-133h-293zM-74 569
q-29 0 -75 18t-55 18q-36 0 -76 -29l-63 85q69 81 154 81q30 0 65 -19t45 -19q41 0 90 26l55 -84q-54 -77 -140 -77zM-166 365q-47 40 -47 85q0 40 32 79h129q-29 -35 -29 -82q0 -19 11 -39.5t22 -31.5l11 -11h-129z" />
    <glyph glyph-name="uni1F70" unicode="&#x1f70;" horiz-adv-x="671" 
d="M260 -8q-27 0 -50 3t-57 17t-57.5 39t-40.5 74.5t-17 116.5q0 144 84.5 231t212.5 87q70 0 119 -9.5t120 -31.5v-374q0 -13 12 -17.5t37 -5.5l-6 -126q-14 -1 -50 -1q-69 0 -109 23t-43 81q-16 -42 -58 -74.5t-97 -32.5zM288 131q46 0 79.5 36.5t39.5 95.5v150
q-36 15 -69 15q-67 0 -100.5 -49.5t-33.5 -126.5q0 -42 8.5 -68.5t23.5 -37t25.5 -13t26.5 -2.5zM339 619l-98 157h157l69 -157h-128z" />
    <glyph glyph-name="uni1F71" unicode="&#x1f71;" horiz-adv-x="671" 
d="M260 -8q-27 0 -50 3t-57 17t-57.5 39t-40.5 74.5t-17 116.5q0 144 84.5 231t212.5 87q70 0 119 -9.5t120 -31.5v-374q0 -13 12 -17.5t37 -5.5l-6 -126q-14 -1 -50 -1q-69 0 -109 23t-43 81q-16 -42 -58 -74.5t-97 -32.5zM288 131q46 0 79.5 36.5t39.5 95.5v150
q-36 15 -69 15q-67 0 -100.5 -49.5t-33.5 -126.5q0 -42 8.5 -68.5t23.5 -37t25.5 -13t26.5 -2.5zM313 623l69 158h157l-98 -157z" />
    <glyph glyph-name="uni1F72" unicode="&#x1f72;" 
d="M302 -12q-129 0 -195.5 41.5t-66.5 118.5q0 50 29.5 89.5t90.5 56.5q-45 12 -69.5 43t-24.5 76q0 61 66 104t186 43q127 0 211 -42l-43 -120q-26 10 -78.5 20.5t-97.5 10.5q-81 0 -81 -42q0 -14 10.5 -23t19.5 -10.5t17 -1.5h138v-121h-140q-23 0 -43 -13.5t-20 -42.5
q0 -25 30.5 -38t80.5 -13q36 0 85.5 9.5t82.5 25.5l49 -119q-118 -52 -237 -52zM270 619l-98 157h157l69 -157h-128z" />
    <glyph glyph-name="uni1F73" unicode="&#x1f73;" 
d="M302 -12q-129 0 -195.5 41.5t-66.5 118.5q0 50 29.5 89.5t90.5 56.5q-45 12 -69.5 43t-24.5 76q0 61 66 104t186 43q127 0 211 -42l-43 -120q-26 10 -78.5 20.5t-97.5 10.5q-81 0 -81 -42q0 -14 10.5 -23t19.5 -10.5t17 -1.5h138v-121h-140q-23 0 -43 -13.5t-20 -42.5
q0 -25 30.5 -38t80.5 -13q36 0 85.5 9.5t82.5 25.5l49 -119q-118 -52 -237 -52zM238 623l69 158h157l-98 -157z" />
    <glyph glyph-name="uni1F74" unicode="&#x1f74;" horiz-adv-x="681" 
d="M447 -220v549q0 55 -15 71.5t-58 16.5q-60 0 -122 -30v-387h-167v409q0 13 -11 17.5t-36 5.5l6 126q42 3 57 3q129 0 147 -73q104 74 182 74q50 0 84.5 -11.5t53.5 -29t29.5 -48.5t13 -58.5t2.5 -71.5v-563h-166zM309 619l-98 157h157l69 -157h-128z" />
    <glyph glyph-name="uni1F75" unicode="&#x1f75;" horiz-adv-x="681" 
d="M447 -220v549q0 55 -15 71.5t-58 16.5q-60 0 -122 -30v-387h-167v409q0 13 -11 17.5t-36 5.5l6 126q42 3 57 3q129 0 147 -73q104 74 182 74q50 0 84.5 -11.5t53.5 -29t29.5 -48.5t13 -58.5t2.5 -71.5v-563h-166zM283 623l69 158h157l-98 -157z" />
    <glyph glyph-name="uni1F76" unicode="&#x1f76;" horiz-adv-x="302" 
d="M68 0v546h166v-546h-166zM90 619l-98 157h157l69 -157h-128z" />
    <glyph glyph-name="uni1F77" unicode="&#x1f77;" horiz-adv-x="302" 
d="M68 0v546h166v-546h-166zM75 623l69 158h157l-98 -157z" />
    <glyph glyph-name="uni1F78" unicode="&#x1f78;" horiz-adv-x="643" 
d="M259 619l-98 157h157l69 -157h-128zM315 -12q-133 0 -205 75t-72 205q0 135 77.5 213.5t208.5 78.5q142 0 211.5 -75t69.5 -212q0 -136 -80 -210.5t-210 -74.5zM323 121q64 0 88 38t24 114q0 74 -25 114.5t-89 40.5q-115 0 -115 -156q0 -75 26.5 -113t90.5 -38z" />
    <glyph glyph-name="uni1F79" unicode="&#x1f79;" horiz-adv-x="643" 
d="M261 613l69 158h157l-98 -157zM315 -12q-133 0 -205 75t-72 205q0 135 77.5 213.5t208.5 78.5q142 0 211.5 -75t69.5 -212q0 -136 -80 -210.5t-210 -74.5zM323 121q64 0 88 38t24 114q0 74 -25 114.5t-89 40.5q-115 0 -115 -156q0 -75 26.5 -113t90.5 -38z" />
    <glyph glyph-name="uni1F7A" unicode="&#x1f7a;" horiz-adv-x="663" 
d="M335 -12q-267 0 -267 227v331h166v-320q0 -105 98 -105q49 0 73 26t24 90v309h166v-310q0 -125 -69 -186.5t-191 -61.5zM271 619l-98 157h157l69 -157h-128z" />
    <glyph glyph-name="uni1F7B" unicode="&#x1f7b;" horiz-adv-x="663" 
d="M335 -12q-267 0 -267 227v331h166v-320q0 -105 98 -105q49 0 73 26t24 90v309h166v-310q0 -125 -69 -186.5t-191 -61.5zM251 619l69 158h157l-98 -157z" />
    <glyph glyph-name="uni1F7C" unicode="&#x1f7c;" horiz-adv-x="851" 
d="M255 -12q-104 0 -160.5 69.5t-56.5 179.5q0 90 27 164t113 145h183q-71 -57 -113 -132.5t-42 -155.5q0 -16 0.5 -25.5t2 -27.5t6.5 -29t12 -23t20 -18t30 -6q30 0 47.5 27.5t17.5 76.5v127h166v-125q0 -52 17.5 -79t48.5 -27q25 0 40.5 12.5t21.5 37t7 39t1 40.5
q0 80 -42 155.5t-113 132.5h189q135 -113 135 -304q0 -104 -61.5 -179t-169.5 -75q-53 0 -100 29.5t-59 80.5q-21 -55 -67.5 -82.5t-100.5 -27.5zM359 619l-98 157h157l69 -157h-128z" />
    <glyph glyph-name="uni1F7D" unicode="&#x1f7d;" horiz-adv-x="851" 
d="M255 -12q-104 0 -160.5 69.5t-56.5 179.5q0 90 27 164t113 145h183q-71 -57 -113 -132.5t-42 -155.5q0 -16 0.5 -25.5t2 -27.5t6.5 -29t12 -23t20 -18t30 -6q30 0 47.5 27.5t17.5 76.5v127h166v-125q0 -52 17.5 -79t48.5 -27q25 0 40.5 12.5t21.5 37t7 39t1 40.5
q0 80 -42 155.5t-113 132.5h189q135 -113 135 -304q0 -104 -61.5 -179t-169.5 -75q-53 0 -100 29.5t-59 80.5q-21 -55 -67.5 -82.5t-100.5 -27.5zM371 623l69 158h157l-98 -157z" />
    <glyph glyph-name="uni1F80" unicode="&#x1f80;" horiz-adv-x="671" 
d="M260 -8q-27 0 -50 3t-57 17t-57.5 39t-40.5 74.5t-17 116.5q0 144 84.5 231t212.5 87q70 0 119 -9.5t120 -31.5v-374q0 -13 12 -17.5t37 -5.5l-6 -126q-14 -1 -50 -1q-69 0 -109 23t-43 81q-16 -42 -58 -74.5t-97 -32.5zM288 131q46 0 79.5 36.5t39.5 95.5v150
q-36 15 -69 15q-67 0 -100.5 -49.5t-33.5 -126.5q0 -42 8.5 -68.5t23.5 -37t25.5 -13t26.5 -2.5zM288 619q44 39 44 82q0 47 -29 82h129q32 -39 32 -79q0 -45 -47 -85h-129zM485 -289q-71 -8 -114.5 0t-62.5 44.5t-19 118.5v70h115v-68q0 -44 15 -59.5t65 -15.5z" />
    <glyph glyph-name="uni1F81" unicode="&#x1f81;" horiz-adv-x="671" 
d="M260 -8q-27 0 -50 3t-57 17t-57.5 39t-40.5 74.5t-17 116.5q0 144 84.5 231t212.5 87q70 0 119 -9.5t120 -31.5v-374q0 -13 12 -17.5t37 -5.5l-6 -126q-14 -1 -50 -1q-69 0 -109 23t-43 81q-16 -42 -58 -74.5t-97 -32.5zM288 131q46 0 79.5 36.5t39.5 95.5v150
q-36 15 -69 15q-67 0 -100.5 -49.5t-33.5 -126.5q0 -42 8.5 -68.5t23.5 -37t25.5 -13t26.5 -2.5zM475 -289q-71 -8 -114.5 0t-62.5 44.5t-19 118.5v70h115v-68q0 -44 15 -59.5t65 -15.5zM324 619q-47 40 -47 85q0 40 32 79h129q-29 -35 -29 -82q0 -19 11 -39.5t22 -31.5
l11 -11h-129z" />
    <glyph glyph-name="uni1F82" unicode="&#x1f82;" horiz-adv-x="671" 
d="M260 -8q-27 0 -50 3t-57 17t-57.5 39t-40.5 74.5t-17 116.5q0 144 84.5 231t212.5 87q70 0 119 -9.5t120 -31.5v-374q0 -13 12 -17.5t37 -5.5l-6 -126q-14 -1 -50 -1q-69 0 -109 23t-43 81q-16 -42 -58 -74.5t-97 -32.5zM288 131q46 0 79.5 36.5t39.5 95.5v150
q-36 15 -69 15q-67 0 -100.5 -49.5t-33.5 -126.5q0 -42 8.5 -68.5t23.5 -37t25.5 -13t26.5 -2.5zM167 619q44 39 44 82q0 47 -29 82h129q32 -39 32 -79q0 -45 -47 -85h-129zM451 619l-98 162h157l69 -162h-128zM475 -289q-71 -8 -114.5 0t-62.5 44.5t-19 118.5v70h115v-68
q0 -44 15 -59.5t65 -15.5z" />
    <glyph glyph-name="uni1F83" unicode="&#x1f83;" horiz-adv-x="671" 
d="M260 -8q-27 0 -50 3t-57 17t-57.5 39t-40.5 74.5t-17 116.5q0 144 84.5 231t212.5 87q70 0 119 -9.5t120 -31.5v-374q0 -13 12 -17.5t37 -5.5l-6 -126q-14 -1 -50 -1q-69 0 -109 23t-43 81q-16 -42 -58 -74.5t-97 -32.5zM288 131q46 0 79.5 36.5t39.5 95.5v150
q-36 15 -69 15q-67 0 -100.5 -49.5t-33.5 -126.5q0 -42 8.5 -68.5t23.5 -37t25.5 -13t26.5 -2.5zM214 619q-47 40 -47 85q0 40 32 79h129q-29 -35 -29 -82q0 -19 11 -39.5t22 -31.5l11 -11h-129zM441 619l-98 162h157l69 -162h-128zM485 -289q-71 -8 -114.5 0t-62.5 44.5
t-19 118.5v70h115v-68q0 -44 15 -59.5t65 -15.5z" />
    <glyph glyph-name="uni1F84" unicode="&#x1f84;" horiz-adv-x="671" 
d="M260 -8q-27 0 -50 3t-57 17t-57.5 39t-40.5 74.5t-17 116.5q0 144 84.5 231t212.5 87q70 0 119 -9.5t120 -31.5v-374q0 -13 12 -17.5t37 -5.5l-6 -126q-14 -1 -50 -1q-69 0 -109 23t-43 81q-16 -42 -58 -74.5t-97 -32.5zM288 131q46 0 79.5 36.5t39.5 95.5v150
q-36 15 -69 15q-67 0 -100.5 -49.5t-33.5 -126.5q0 -42 8.5 -68.5t23.5 -37t25.5 -13t26.5 -2.5zM191 619q44 39 44 82q0 47 -29 82h129q32 -39 32 -79q0 -45 -47 -85h-129zM367 619l69 162h157l-98 -162h-128zM479 -289q-71 -8 -114.5 0t-62.5 44.5t-19 118.5v70h115v-68
q0 -44 15 -59.5t65 -15.5z" />
    <glyph glyph-name="uni1F85" unicode="&#x1f85;" horiz-adv-x="671" 
d="M260 -8q-27 0 -50 3t-57 17t-57.5 39t-40.5 74.5t-17 116.5q0 144 84.5 231t212.5 87q70 0 119 -9.5t120 -31.5v-374q0 -13 12 -17.5t37 -5.5l-6 -126q-14 -1 -50 -1q-69 0 -109 23t-43 81q-16 -42 -58 -74.5t-97 -32.5zM288 131q46 0 79.5 36.5t39.5 95.5v150
q-36 15 -69 15q-67 0 -100.5 -49.5t-33.5 -126.5q0 -42 8.5 -68.5t23.5 -37t25.5 -13t26.5 -2.5zM236 619q-47 40 -47 85q0 40 32 79h129q-29 -35 -29 -82q0 -19 11 -39.5t22 -31.5l11 -11h-129zM385 619l69 162h157l-98 -162h-128zM495 -289q-71 -8 -114.5 0t-62.5 44.5
t-19 118.5v70h115v-68q0 -44 15 -59.5t65 -15.5z" />
    <glyph glyph-name="uni1F86" unicode="&#x1f86;" horiz-adv-x="671" 
d="M260 -8q-27 0 -50 3t-57 17t-57.5 39t-40.5 74.5t-17 116.5q0 144 84.5 231t212.5 87q70 0 119 -9.5t120 -31.5v-374q0 -13 12 -17.5t37 -5.5l-6 -126q-14 -1 -50 -1q-69 0 -109 23t-43 81q-16 -42 -58 -74.5t-97 -32.5zM288 131q46 0 79.5 36.5t39.5 95.5v150
q-36 15 -69 15q-67 0 -100.5 -49.5t-33.5 -126.5q0 -42 8.5 -68.5t23.5 -37t25.5 -13t26.5 -2.5zM406 823q-29 0 -75 18t-55 18q-36 0 -76 -29l-63 85q69 81 154 81q30 0 65 -19t45 -19q41 0 90 26l55 -84q-54 -77 -140 -77zM267 619q44 39 44 82q0 47 -29 82h129
q32 -39 32 -79q0 -45 -47 -85h-129zM485 -289q-71 -8 -114.5 0t-62.5 44.5t-19 118.5v70h115v-68q0 -44 15 -59.5t65 -15.5z" />
    <glyph glyph-name="uni1F87" unicode="&#x1f87;" horiz-adv-x="671" 
d="M260 -8q-27 0 -50 3t-57 17t-57.5 39t-40.5 74.5t-17 116.5q0 144 84.5 231t212.5 87q70 0 119 -9.5t120 -31.5v-374q0 -13 12 -17.5t37 -5.5l-6 -126q-14 -1 -50 -1q-69 0 -109 23t-43 81q-16 -42 -58 -74.5t-97 -32.5zM288 131q46 0 79.5 36.5t39.5 95.5v150
q-36 15 -69 15q-67 0 -100.5 -49.5t-33.5 -126.5q0 -42 8.5 -68.5t23.5 -37t25.5 -13t26.5 -2.5zM401 823q-29 0 -75 18t-55 18q-36 0 -76 -29l-63 85q69 81 154 81q30 0 65 -19t45 -19q41 0 90 26l55 -84q-54 -77 -140 -77zM309 619q-47 40 -47 85q0 40 32 79h129
q-29 -35 -29 -82q0 -19 11 -39.5t22 -31.5l11 -11h-129zM495 -289q-71 -8 -114.5 0t-62.5 44.5t-19 118.5v70h115v-68q0 -44 15 -59.5t65 -15.5z" />
    <glyph glyph-name="uni1F88" unicode="&#x1f88;" horiz-adv-x="751" 
d="M-11 545q44 39 44 82q0 47 -29 82h129q32 -39 32 -79q0 -45 -47 -85h-129zM515 -289q-71 -8 -114.5 0t-62.5 44.5t-19 118.5v70h115v-68q0 -44 15 -59.5t65 -15.5zM11 0l272 707h219l238 -707h-176l-67 207h-239l-77 -207h-170zM303 330h154l-71 272z" />
    <glyph glyph-name="uni1F89" unicode="&#x1f89;" horiz-adv-x="751" 
d="M515 -289q-71 -8 -114.5 0t-62.5 44.5t-19 118.5v70h115v-68q0 -44 15 -59.5t65 -15.5zM36 545q-47 40 -47 85q0 40 32 79h129q-29 -35 -29 -82q0 -19 11 -39.5t22 -31.5l11 -11h-129zM11 0l272 707h219l238 -707h-176l-67 207h-239l-77 -207h-170zM303 330h154l-71 272z
" />
    <glyph glyph-name="uni1F8A" unicode="&#x1f8a;" horiz-adv-x="751" 
d="M-248 545q44 39 44 82q0 47 -29 82h129q32 -39 32 -79q0 -45 -47 -85h-129zM36 545l-98 162h157l69 -162h-128zM515 -289q-71 -8 -114.5 0t-62.5 44.5t-19 118.5v70h115v-68q0 -44 15 -59.5t65 -15.5zM11 0l272 707h219l238 -707h-176l-67 207h-239l-77 -207h-170z
M303 330h154l-71 272z" />
    <glyph glyph-name="uni1F8B" unicode="&#x1f8b;" horiz-adv-x="751" 
d="M-177 545q-47 40 -47 85q0 40 32 79h129q-29 -35 -29 -82q0 -19 11 -39.5t22 -31.5l11 -11h-129zM50 545l-98 162h157l69 -162h-128zM515 -289q-71 -8 -114.5 0t-62.5 44.5t-19 118.5v70h115v-68q0 -44 15 -59.5t65 -15.5zM11 0l272 707h219l238 -707h-176l-67 207h-239
l-77 -207h-170zM303 330h154l-71 272z" />
    <glyph glyph-name="uni1F8C" unicode="&#x1f8c;" horiz-adv-x="751" 
d="M-172 545q44 39 44 82q0 47 -29 82h129q32 -39 32 -79q0 -45 -47 -85h-129zM4 545l69 162h157l-98 -162h-128zM515 -289q-71 -8 -114.5 0t-62.5 44.5t-19 118.5v70h115v-68q0 -44 15 -59.5t65 -15.5zM11 0l272 707h219l238 -707h-176l-67 207h-239l-77 -207h-170z
M303 330h154l-71 272z" />
    <glyph glyph-name="uni1F8D" unicode="&#x1f8d;" horiz-adv-x="751" 
d="M-174 545q-47 40 -47 85q0 40 32 79h129q-29 -35 -29 -82q0 -19 11 -39.5t22 -31.5l11 -11h-129zM-25 545l69 162h157l-98 -162h-128zM515 -289q-71 -8 -114.5 0t-62.5 44.5t-19 118.5v70h115v-68q0 -44 15 -59.5t65 -15.5zM11 0l272 707h219l238 -707h-176l-67 207h-239
l-77 -207h-170zM303 330h154l-71 272z" />
    <glyph glyph-name="uni1F8E" unicode="&#x1f8e;" horiz-adv-x="751" 
d="M66 580q-29 0 -75 18t-55 18q-36 0 -76 -29l-63 85q69 81 154 81q30 0 65 -19t45 -19q41 0 90 26l55 -84q-54 -77 -140 -77zM-73 376q44 39 44 82q0 47 -29 82h129q32 -39 32 -79q0 -45 -47 -85h-129zM515 -289q-71 -8 -114.5 0t-62.5 44.5t-19 118.5v70h115v-68
q0 -44 15 -59.5t65 -15.5zM11 0l272 707h219l238 -707h-176l-67 207h-239l-77 -207h-170zM303 330h154l-71 272z" />
    <glyph glyph-name="uni1F8F" unicode="&#x1f8f;" horiz-adv-x="751" 
d="M63 580q-29 0 -75 18t-55 18q-36 0 -76 -29l-63 85q69 81 154 81q30 0 65 -19t45 -19q41 0 90 26l55 -84q-54 -77 -140 -77zM-29 376q-47 40 -47 85q0 40 32 79h129q-29 -35 -29 -82q0 -19 11 -39.5t22 -31.5l11 -11h-129zM515 -289q-71 -8 -114.5 0t-62.5 44.5
t-19 118.5v70h115v-68q0 -44 15 -59.5t65 -15.5zM11 0l272 707h219l238 -707h-176l-67 207h-239l-77 -207h-170zM303 330h154l-71 272z" />
    <glyph glyph-name="uni1F90" unicode="&#x1f90;" horiz-adv-x="681" 
d="M447 -220v549q0 55 -15 71.5t-58 16.5q-60 0 -122 -30v-387h-167v409q0 13 -11 17.5t-36 5.5l6 126q42 3 57 3q129 0 147 -73q104 74 182 74q50 0 84.5 -11.5t53.5 -29t29.5 -48.5t13 -58.5t2.5 -71.5v-563h-166zM285 619q44 39 44 82q0 47 -29 82h129q32 -39 32 -79
q0 -45 -47 -85h-129zM279 -289q-71 -8 -114.5 0t-62.5 44.5t-19 118.5v70h115v-68q0 -44 15 -59.5t65 -15.5z" />
    <glyph glyph-name="uni1F91" unicode="&#x1f91;" horiz-adv-x="681" 
d="M447 -220v549q0 55 -15 71.5t-58 16.5q-60 0 -122 -30v-387h-167v409q0 13 -11 17.5t-36 5.5l6 126q42 3 57 3q129 0 147 -73q104 74 182 74q50 0 84.5 -11.5t53.5 -29t29.5 -48.5t13 -58.5t2.5 -71.5v-563h-166zM281 -289q-71 -8 -114.5 0t-62.5 44.5t-19 118.5v70h115
v-68q0 -44 15 -59.5t65 -15.5zM327 619q-47 40 -47 85q0 40 32 79h129q-29 -35 -29 -82q0 -19 11 -39.5t22 -31.5l11 -11h-129z" />
    <glyph glyph-name="uni1F92" unicode="&#x1f92;" horiz-adv-x="681" 
d="M447 -220v549q0 55 -15 71.5t-58 16.5q-60 0 -122 -30v-387h-167v409q0 13 -11 17.5t-36 5.5l6 126q42 3 57 3q129 0 147 -73q104 74 182 74q50 0 84.5 -11.5t53.5 -29t29.5 -48.5t13 -58.5t2.5 -71.5v-563h-166zM156 619q44 39 44 82q0 47 -29 82h129q32 -39 32 -79
q0 -45 -47 -85h-129zM440 619l-98 162h157l69 -162h-128zM281 -289q-71 -8 -114.5 0t-62.5 44.5t-19 118.5v70h115v-68q0 -44 15 -59.5t65 -15.5z" />
    <glyph glyph-name="uni1F93" unicode="&#x1f93;" horiz-adv-x="681" 
d="M447 -220v549q0 55 -15 71.5t-58 16.5q-60 0 -122 -30v-387h-167v409q0 13 -11 17.5t-36 5.5l6 126q42 3 57 3q129 0 147 -73q104 74 182 74q50 0 84.5 -11.5t53.5 -29t29.5 -48.5t13 -58.5t2.5 -71.5v-563h-166zM214 619q-47 40 -47 85q0 40 32 79h129q-29 -35 -29 -82
q0 -19 11 -39.5t22 -31.5l11 -11h-129zM441 619l-98 162h157l69 -162h-128zM281 -289q-71 -8 -114.5 0t-62.5 44.5t-19 118.5v70h115v-68q0 -44 15 -59.5t65 -15.5z" />
    <glyph glyph-name="uni1F94" unicode="&#x1f94;" horiz-adv-x="681" 
d="M447 -220v549q0 55 -15 71.5t-58 16.5q-60 0 -122 -30v-387h-167v409q0 13 -11 17.5t-36 5.5l6 126q42 3 57 3q129 0 147 -73q104 74 182 74q50 0 84.5 -11.5t53.5 -29t29.5 -48.5t13 -58.5t2.5 -71.5v-563h-166zM178 619q44 39 44 82q0 47 -29 82h129q32 -39 32 -79
q0 -45 -47 -85h-129zM354 619l69 162h157l-98 -162h-128zM281 -289q-71 -8 -114.5 0t-62.5 44.5t-19 118.5v70h115v-68q0 -44 15 -59.5t65 -15.5z" />
    <glyph glyph-name="uni1F95" unicode="&#x1f95;" horiz-adv-x="681" 
d="M447 -220v549q0 55 -15 71.5t-58 16.5q-60 0 -122 -30v-387h-167v409q0 13 -11 17.5t-36 5.5l6 126q42 3 57 3q129 0 147 -73q104 74 182 74q50 0 84.5 -11.5t53.5 -29t29.5 -48.5t13 -58.5t2.5 -71.5v-563h-166zM200 619q-47 40 -47 85q0 40 32 79h129q-29 -35 -29 -82
q0 -19 11 -39.5t22 -31.5l11 -11h-129zM349 619l69 162h157l-98 -162h-128zM281 -289q-71 -8 -114.5 0t-62.5 44.5t-19 118.5v70h115v-68q0 -44 15 -59.5t65 -15.5z" />
    <glyph glyph-name="uni1F96" unicode="&#x1f96;" horiz-adv-x="681" 
d="M447 -220v549q0 55 -15 71.5t-58 16.5q-60 0 -122 -30v-387h-167v409q0 13 -11 17.5t-36 5.5l6 126q42 3 57 3q129 0 147 -73q104 74 182 74q50 0 84.5 -11.5t53.5 -29t29.5 -48.5t13 -58.5t2.5 -71.5v-563h-166zM436 823q-29 0 -75 18t-55 18q-36 0 -76 -29l-63 85
q69 81 154 81q30 0 65 -19t45 -19q41 0 90 26l55 -84q-54 -77 -140 -77zM297 619q44 39 44 82q0 47 -29 82h129q32 -39 32 -79q0 -45 -47 -85h-129zM280 -289q-71 -8 -114.5 0t-62.5 44.5t-19 118.5v70h115v-68q0 -44 15 -59.5t65 -15.5z" />
    <glyph glyph-name="uni1F97" unicode="&#x1f97;" horiz-adv-x="681" 
d="M447 -220v549q0 55 -15 71.5t-58 16.5q-60 0 -122 -30v-387h-167v409q0 13 -11 17.5t-36 5.5l6 126q42 3 57 3q129 0 147 -73q104 74 182 74q50 0 84.5 -11.5t53.5 -29t29.5 -48.5t13 -58.5t2.5 -71.5v-563h-166zM403 823q-29 0 -75 18t-55 18q-36 0 -76 -29l-63 85
q69 81 154 81q30 0 65 -19t45 -19q41 0 90 26l55 -84q-54 -77 -140 -77zM311 619q-47 40 -47 85q0 40 32 79h129q-29 -35 -29 -82q0 -19 11 -39.5t22 -31.5l11 -11h-129zM281 -289q-71 -8 -114.5 0t-62.5 44.5t-19 118.5v70h115v-68q0 -44 15 -59.5t65 -15.5z" />
    <glyph glyph-name="uni1F98" unicode="&#x1f98;" horiz-adv-x="796" 
d="M-167 545q44 39 44 82q0 47 -29 82h129q32 -39 32 -79q0 -45 -47 -85h-129zM555 -289q-71 -8 -114.5 0t-62.5 44.5t-19 118.5v70h115v-68q0 -44 15 -59.5t65 -15.5zM78 0v707h170v-287h300v287h170v-707h-170v291h-300v-291h-170z" />
    <glyph glyph-name="uni1F99" unicode="&#x1f99;" horiz-adv-x="796" 
d="M555 -289q-71 -8 -114.5 0t-62.5 44.5t-19 118.5v70h115v-68q0 -44 15 -59.5t65 -15.5zM-115 545q-47 40 -47 85q0 40 32 79h129q-29 -35 -29 -82q0 -19 11 -39.5t22 -31.5l11 -11h-129zM78 0v707h170v-287h300v287h170v-707h-170v291h-300v-291h-170z" />
    <glyph glyph-name="uni1F9A" unicode="&#x1f9a;" horiz-adv-x="796" 
d="M-368 545q44 39 44 82q0 47 -29 82h129q32 -39 32 -79q0 -45 -47 -85h-129zM-84 545l-98 162h157l69 -162h-128zM555 -289q-71 -8 -114.5 0t-62.5 44.5t-19 118.5v70h115v-68q0 -44 15 -59.5t65 -15.5zM78 0v707h170v-287h300v287h170v-707h-170v291h-300v-291h-170z" />
    <glyph glyph-name="uni1F9B" unicode="&#x1f9b;" horiz-adv-x="796" 
d="M-328 545q-47 40 -47 85q0 40 32 79h129q-29 -35 -29 -82q0 -19 11 -39.5t22 -31.5l11 -11h-129zM-101 545l-98 162h157l69 -162h-128zM555 -289q-71 -8 -114.5 0t-62.5 44.5t-19 118.5v70h115v-68q0 -44 15 -59.5t65 -15.5zM78 0v707h170v-287h300v287h170v-707h-170
v291h-300v-291h-170z" />
    <glyph glyph-name="uni1F9C" unicode="&#x1f9c;" horiz-adv-x="796" 
d="M-376 545q44 39 44 82q0 47 -29 82h129q32 -39 32 -79q0 -45 -47 -85h-129zM-200 545l69 162h157l-98 -162h-128zM555 -289q-71 -8 -114.5 0t-62.5 44.5t-19 118.5v70h115v-68q0 -44 15 -59.5t65 -15.5zM78 0v707h170v-287h300v287h170v-707h-170v291h-300v-291h-170z
" />
    <glyph glyph-name="uni1F9D" unicode="&#x1f9d;" horiz-adv-x="796" 
d="M-354 545q-47 40 -47 85q0 40 32 79h129q-29 -35 -29 -82q0 -19 11 -39.5t22 -31.5l11 -11h-129zM-205 545l69 162h157l-98 -162h-128zM555 -289q-71 -8 -114.5 0t-62.5 44.5t-19 118.5v70h115v-68q0 -44 15 -59.5t65 -15.5zM78 0v707h170v-287h300v287h170v-707h-170
v291h-300v-291h-170z" />
    <glyph glyph-name="uni1F9E" unicode="&#x1f9e;" horiz-adv-x="796" 
d="M-90 569q-29 0 -75 18t-55 18q-36 0 -76 -29l-63 85q69 81 154 81q30 0 65 -19t45 -19q41 0 90 26l55 -84q-54 -77 -140 -77zM-229 365q44 39 44 82q0 47 -29 82h129q32 -39 32 -79q0 -45 -47 -85h-129zM555 -289q-71 -8 -114.5 0t-62.5 44.5t-19 118.5v70h115v-68
q0 -44 15 -59.5t65 -15.5zM78 0v707h170v-287h300v287h170v-707h-170v291h-300v-291h-170z" />
    <glyph glyph-name="uni1F9F" unicode="&#x1f9f;" horiz-adv-x="796" 
d="M-119 556q-29 0 -75 18t-55 18q-36 0 -76 -29l-63 85q69 81 154 81q30 0 65 -19t45 -19q41 0 90 26l55 -84q-54 -77 -140 -77zM-211 352q-47 40 -47 85q0 40 32 79h129q-29 -35 -29 -82q0 -19 11 -39.5t22 -31.5l11 -11h-129zM555 -289q-71 -8 -114.5 0t-62.5 44.5
t-19 118.5v70h115v-68q0 -44 15 -59.5t65 -15.5zM78 0v707h170v-287h300v287h170v-707h-170v291h-300v-291h-170z" />
    <glyph glyph-name="uni1FA0" unicode="&#x1fa0;" horiz-adv-x="851" 
d="M255 -12q-104 0 -160.5 69.5t-56.5 179.5q0 90 27 164t113 145h183q-71 -57 -113 -132.5t-42 -155.5q0 -16 0.5 -25.5t2 -27.5t6.5 -29t12 -23t20 -18t30 -6q30 0 47.5 27.5t17.5 76.5v127h166v-125q0 -52 17.5 -79t48.5 -27q25 0 40.5 12.5t21.5 37t7 39t1 40.5
q0 80 -42 155.5t-113 132.5h189q135 -113 135 -304q0 -104 -61.5 -179t-169.5 -75q-53 0 -100 29.5t-59 80.5q-21 -55 -67.5 -82.5t-100.5 -27.5zM338 619q44 39 44 82q0 47 -29 82h129q32 -39 32 -79q0 -45 -47 -85h-129zM565 -289q-71 -8 -114.5 0t-62.5 44.5t-19 118.5
v70h115v-68q0 -44 15 -59.5t65 -15.5z" />
    <glyph glyph-name="uni1FA1" unicode="&#x1fa1;" horiz-adv-x="851" 
d="M255 -12q-104 0 -160.5 69.5t-56.5 179.5q0 90 27 164t113 145h183q-71 -57 -113 -132.5t-42 -155.5q0 -16 0.5 -25.5t2 -27.5t6.5 -29t12 -23t20 -18t30 -6q30 0 47.5 27.5t17.5 76.5v127h166v-125q0 -52 17.5 -79t48.5 -27q25 0 40.5 12.5t21.5 37t7 39t1 40.5
q0 80 -42 155.5t-113 132.5h189q135 -113 135 -304q0 -104 -61.5 -179t-169.5 -75q-53 0 -100 29.5t-59 80.5q-21 -55 -67.5 -82.5t-100.5 -27.5zM565 -289q-71 -8 -114.5 0t-62.5 44.5t-19 118.5v70h115v-68q0 -44 15 -59.5t65 -15.5zM384 619q-47 40 -47 85q0 40 32 79
h129q-29 -35 -29 -82q0 -19 11 -39.5t22 -31.5l11 -11h-129z" />
    <glyph glyph-name="uni1FA2" unicode="&#x1fa2;" horiz-adv-x="851" 
d="M255 -12q-104 0 -160.5 69.5t-56.5 179.5q0 90 27 164t113 145h183q-71 -57 -113 -132.5t-42 -155.5q0 -16 0.5 -25.5t2 -27.5t6.5 -29t12 -23t20 -18t30 -6q30 0 47.5 27.5t17.5 76.5v127h166v-125q0 -52 17.5 -79t48.5 -27q25 0 40.5 12.5t21.5 37t7 39t1 40.5
q0 80 -42 155.5t-113 132.5h189q135 -113 135 -304q0 -104 -61.5 -179t-169.5 -75q-53 0 -100 29.5t-59 80.5q-21 -55 -67.5 -82.5t-100.5 -27.5zM235 619q44 39 44 82q0 47 -29 82h129q32 -39 32 -79q0 -45 -47 -85h-129zM519 619l-98 162h157l69 -162h-128zM565 -289
q-71 -8 -114.5 0t-62.5 44.5t-19 118.5v70h115v-68q0 -44 15 -59.5t65 -15.5z" />
    <glyph glyph-name="uni1FA3" unicode="&#x1fa3;" horiz-adv-x="851" 
d="M255 -12q-104 0 -160.5 69.5t-56.5 179.5q0 90 27 164t113 145h183q-71 -57 -113 -132.5t-42 -155.5q0 -16 0.5 -25.5t2 -27.5t6.5 -29t12 -23t20 -18t30 -6q30 0 47.5 27.5t17.5 76.5v127h166v-125q0 -52 17.5 -79t48.5 -27q25 0 40.5 12.5t21.5 37t7 39t1 40.5
q0 80 -42 155.5t-113 132.5h189q135 -113 135 -304q0 -104 -61.5 -179t-169.5 -75q-53 0 -100 29.5t-59 80.5q-21 -55 -67.5 -82.5t-100.5 -27.5zM274 619q-47 40 -47 85q0 40 32 79h129q-29 -35 -29 -82q0 -19 11 -39.5t22 -31.5l11 -11h-129zM501 619l-98 162h157l69 -162
h-128zM565 -289q-71 -8 -114.5 0t-62.5 44.5t-19 118.5v70h115v-68q0 -44 15 -59.5t65 -15.5z" />
    <glyph glyph-name="uni1FA4" unicode="&#x1fa4;" horiz-adv-x="851" 
d="M255 -12q-104 0 -160.5 69.5t-56.5 179.5q0 90 27 164t113 145h183q-71 -57 -113 -132.5t-42 -155.5q0 -16 0.5 -25.5t2 -27.5t6.5 -29t12 -23t20 -18t30 -6q30 0 47.5 27.5t17.5 76.5v127h166v-125q0 -52 17.5 -79t48.5 -27q25 0 40.5 12.5t21.5 37t7 39t1 40.5
q0 80 -42 155.5t-113 132.5h189q135 -113 135 -304q0 -104 -61.5 -179t-169.5 -75q-53 0 -100 29.5t-59 80.5q-21 -55 -67.5 -82.5t-100.5 -27.5zM281 619q44 39 44 82q0 47 -29 82h129q32 -39 32 -79q0 -45 -47 -85h-129zM457 619l69 162h157l-98 -162h-128zM565 -289
q-71 -8 -114.5 0t-62.5 44.5t-19 118.5v70h115v-68q0 -44 15 -59.5t65 -15.5z" />
    <glyph glyph-name="uni1FA5" unicode="&#x1fa5;" horiz-adv-x="851" 
d="M255 -12q-104 0 -160.5 69.5t-56.5 179.5q0 90 27 164t113 145h183q-71 -57 -113 -132.5t-42 -155.5q0 -16 0.5 -25.5t2 -27.5t6.5 -29t12 -23t20 -18t30 -6q30 0 47.5 27.5t17.5 76.5v127h166v-125q0 -52 17.5 -79t48.5 -27q25 0 40.5 12.5t21.5 37t7 39t1 40.5
q0 80 -42 155.5t-113 132.5h189q135 -113 135 -304q0 -104 -61.5 -179t-169.5 -75q-53 0 -100 29.5t-59 80.5q-21 -55 -67.5 -82.5t-100.5 -27.5zM300 618q-47 40 -47 85q0 40 32 79h129q-29 -35 -29 -82q0 -19 11 -39.5t22 -31.5l11 -11h-129zM449 618l69 162h157l-98 -162
h-128zM565 -289q-71 -8 -114.5 0t-62.5 44.5t-19 118.5v70h115v-68q0 -44 15 -59.5t65 -15.5z" />
    </font>
</defs>
</svg>
