<?xml version="1.0" standalone="no"?>
<!DOCTYPE svg PUBLIC "-//W3C//DTD SVG 1.1//EN" "http://www.w3.org/Graphics/SVG/1.1/DTD/svg11.dtd" >
<svg>
<metadata>
Created by FontForge 20090622 at Fri Aug 31 07:14:38 2018
 By deploy user
</metadata>
<defs>
<font id="CityFlowersscriptTwo" horiz-adv-x="614" >
  <font-face 
    font-family="City Flowers script Two "
    font-weight="400"
    font-style="italic"
    font-stretch="normal"
    units-per-em="2048"
    panose-1="3 3 6 0 1 6 7 8 10 4"
    ascent="1638"
    descent="-410"
    x-height="819"
    cap-height="1510"
    bbox="-799 -638 2812 1778"
    underline-thickness="0"
    underline-position="0"
    slope="-16"
    unicode-range="U+0002-U+2122"
  />
<missing-glyph 
 />
    <glyph glyph-name=".notdef" 
 />
    <glyph glyph-name="uni0002" horiz-adv-x="0" 
 />
    <glyph glyph-name="nonmarkingreturn" unicode="&#xd;" horiz-adv-x="495" 
 />
    <glyph glyph-name="space" unicode=" " 
 />
    <glyph glyph-name="exclam" unicode="!" horiz-adv-x="669" 
d="M123 84q0 54 44 92q43 37 101 37q27 0 50.5 -8.5t41.5 -23.5t28.5 -36.5t10.5 -48.5q0 -56 -45 -92q-44 -37 -102 -37q-55 0 -92 31.5t-37 85.5zM264 317l258 1117h230l-410 -1117h-78z" />
    <glyph glyph-name="quotedbl" unicode="&#x22;" horiz-adv-x="751" 
d="M123 907l106 473h238l-250 -469zM408 907l106 473h238l-250 -469z" />
    <glyph glyph-name="numbersign" unicode="#" horiz-adv-x="1368" 
d="M123 346l57 125l221 6l121 334h-221l57 123l211 6l105 287l157 -56l-94 -227l271 6l100 277l158 -56l-90 -215l233 7l-49 -152h-244l-131 -317l246 6l-49 -154h-258l-111 -266l-106 43l79 223h-297l-110 -266l-107 43l80 223h-229zM545 481l295 8l116 322h-274z" />
    <glyph glyph-name="dollar" unicode="$" horiz-adv-x="1028" 
d="M41 221q0 161 186 307l58 -32q-25 -37 -49 -106q-25 -69 -25 -136q0 -150 98 -182l154 438q-81 93 -108 136q-58 94 -58 204q0 75 38 146t101 128t140.5 98t158.5 64l51 148h109l-45 -125q7 1 17 1.5t24 0.5q239 0 239 -160q0 -79 -41.5 -144t-110.5 -107t-147.5 -68
t-166.5 -37l-56 -150l105 -156q61 -95 61 -198q0 -90 -61 -158q-60 -69 -151 -107q-46 -19 -94 -29.5t-99 -14.5l-50 -140h-90l50 140q-114 11 -176 72t-62 167zM399 68q174 21 174 219q0 69 -45 137zM492 889q0 -69 36 -121l17 -25l153 441q-89 -54 -147 -133
q-59 -80 -59 -162zM684 854q126 34 216 118q87 82 87 183q0 46 -29 67t-75 21q-31 0 -60 -8z" />
    <glyph glyph-name="percent" unicode="%" horiz-adv-x="1263" 
d="M102 29l1022 1425l78 -61l-1036 -1413zM129 809q0 99 42 206t106 187q32 40 67.5 73t75.5 59q77 52 147 52q95 0 126 -59q15 -29 20.5 -57.5t5.5 -67.5q0 -96 -35 -201q-36 -104 -93 -186q-59 -84 -137 -135q-80 -53 -161 -53q-164 0 -164 182zM270 844q0 -127 76 -127
q59 0 118 75q57 73 92 180q34 103 34 197q0 131 -78 131q-49 0 -106 -69q-57 -71 -96 -178q-40 -108 -40 -209zM582 164q0 99 42 206t106 187q32 40 67.5 73t75.5 59q77 52 147 52q96 0 126 -59q14 -29 19.5 -57.5t5.5 -67.5q0 -96 -35 -201q-36 -104 -93 -186
q-59 -84 -137 -135q-78 -53 -161 -53q-163 0 -163 182zM723 199q0 -127 76 -127q60 0 118 76q57 73 92 180q33 103 33 196q0 131 -77 131q-49 0 -106 -69q-57 -71 -96 -178q-40 -108 -40 -209z" />
    <glyph glyph-name="ampersand" unicode="&#x26;" horiz-adv-x="1335" 
d="M47 309q0 126 107.5 249t314.5 255q-17 67 -25 123.5t-8 105.5t8.5 91.5t25.5 81.5q34 79 92 131q58 51 133 79.5t157 28.5q49 0 89 -14.5t68 -40.5t43 -63.5t15 -82.5q0 -51 -23.5 -101t-56.5 -88q-33 -37 -90 -82l-54 -39.5t-48 -31.5l-51 -31l-62 -36
q40 -150 111 -294q71 -147 157 -255l13 -16q94 85 147 204q51 118 51 240q0 79 -37 94l39 64q193 0 193 -162q0 -126 -90 -262q-91 -138 -238 -250q82 -82 143 -82q37 0 66 8l31 -63q-4 -4 -11.5 -10t-33.5 -21q-13 -8 -26 -15t-26 -13q-27 -12 -65.5 -21.5t-75.5 -9.5
q-98 0 -199 104q-203 -104 -397 -104q-185 0 -285 88q-102 88 -102 241zM285 360q0 -103 68 -169q67 -66 186 -66t229 39q-37 50 -74 112.5t-74 138.5q-74 149 -124 306q-103 -85 -157 -179t-54 -182zM684 1295q-23 -27 -33.5 -64.5t-12 -83.5t5 -100t18.5 -115
q51 35 92 73.5t69.5 78t44 79.5t15.5 78q0 45 -20.5 77t-67.5 32q-66 0 -111 -55z" />
    <glyph glyph-name="quotesingle" unicode="'" horiz-adv-x="466" 
d="M123 907l106 473h238l-250 -469z" />
    <glyph glyph-name="parenleft" unicode="(" 
d="M164 573q0 214 96 468q94 252 244 434h213q-398 -488 -398 -1037q0 -153 36 -319q35 -167 75 -242h-125q-63 115 -102 307q-39 190 -39 389z" />
    <glyph glyph-name="parenright" unicode=")" 
d="M0 -123q397 485 397 1036q0 150 -35 320q-35 167 -75 242h125q61 -116 102 -306q39 -191 39 -391q0 -212 -95 -467q-96 -253 -245 -434h-213z" />
    <glyph glyph-name="asterisk" unicode="*" horiz-adv-x="987" 
d="M123 1047l78 165l278 -137l13 305l198 -39l-94 -266l293 127l47 -147l-299 -86l139 -219l-151 -99l-111 269l-215 -256l-137 104l241 207z" />
    <glyph glyph-name="plus" unicode="+" horiz-adv-x="948" 
d="M123 354l35 138h297l92 346l135 -31l-84 -315h309l-33 -138h-311l-82 -313l-135 33l74 280h-297z" />
    <glyph glyph-name="comma" unicode="," horiz-adv-x="491" 
d="M41 -141q70 64 93 96q22 32 22 65q0 36 -21 66l144 129l25 -21t40 -45t25 -57q0 -52 -68 -135q-68 -80 -213 -160z" />
    <glyph glyph-name="hyphen" unicode="-" horiz-adv-x="657" 
d="M123 408l41 135l452 24l-45 -159h-448z" />
    <glyph glyph-name="period" unicode="." horiz-adv-x="491" 
d="M125 98q0 54 44 92q43 37 101 37q27 0 50.5 -8t41.5 -23t28.5 -36.5t10.5 -48.5q0 -56 -45 -92q-44 -37 -102 -37q-55 0 -92 31t-37 85z" />
    <glyph glyph-name="slash" unicode="/" horiz-adv-x="520" 
d="M-205 0l918 1530l114 -76l-931 -1520z" />
    <glyph glyph-name="zero" unicode="0" horiz-adv-x="1036" 
d="M31 274q0 219 101 429q100 206 270 355q168 149 376 228l8 -61q-86 -34 -175 -120q-45 -45 -85.5 -94.5t-77.5 -109.5q-76 -119 -122 -269q-47 -155 -47 -302q0 -48 3.5 -82.5t14.5 -70.5q21 -73 92 -73q73 0 145 73q71 74 121 183q49 109 81 237q30 127 30 237
q0 116 -20 181t-76 75l37 59q141 2 214 -76q74 -77 74 -205q0 -72 -14 -149t-40 -153.5t-63 -149.5t-84 -137q-47 -65 -102.5 -120t-117.5 -95t-129.5 -62t-139.5 -22q-274 0 -274 294z" />
    <glyph glyph-name="one" unicode="1" horiz-adv-x="909" 
d="M-82 125q58 60 115.5 128t114.5 146q57 77 104.5 148t86.5 138l74 129l66 120q61 115 91 182l30 68h227l-428 -1184h-213l244 709q-24 -64 -157 -271q-134 -210 -242 -313h-113z" />
    <glyph glyph-name="two" unicode="2" horiz-adv-x="991" 
d="M-61 88l124 78l66.5 43l59.5 39q28 18 59.5 40.5l66.5 48.5q36 26 66 50.5t57 49.5l53 51.5l53 56.5q54 61 88 119.5t56 128.5q21 70 21 141q0 83 -40 120q-41 36 -91 36q-85 0 -152 -52q-68 -53 -99 -121q-32 -72 -32 -137q0 -30 8.5 -52.5t16.5 -29.5l8 -8l-41 -59
q-35 5 -61.5 13.5t-52.5 24.5q-56 33 -56 111q0 55 17 108t49 100.5t78 87.5t105 70q118 60 259 60q158 0 241.5 -71t83.5 -207q-4 -184 -110 -321l-36 -46t-37.5 -42t-41.5 -39.5l-47 -40.5l-49 -38.5l-46 -33.5l-48 -32l-54 -34l-54.5 -33l-46.5 -27l-46.5 -26l-53.5 -30
l-11.5 -6.5t-8.5 -4.5q131 -49 272 -49q73 0 131 14q56 14 128 54l43 -68q-148 -145 -412 -145q-48 0 -97 8t-79 16q-15 4 -35 10.5l-46 14.5l-44 13.5t-29 8.5l-96 -53z" />
    <glyph glyph-name="three" unicode="3" horiz-adv-x="999" 
d="M94 131q10 -57 53.5 -95t116.5 -38q131 0 220 101q87 100 87 233q0 63 -25 109t-81 46q-26 0 -57.5 -6.5t-49.5 -12.5l-18 -7l-49 82q4 1 9.5 2t14 3t22 6t34.5 12q42 14 80.5 32.5t85.5 51.5q48 33 81.5 72t56.5 99q23 61 23 125q0 81 -34.5 128.5t-106.5 47.5
q-101 0 -171 -49t-73 -143q0 -14 6.5 -27.5t17.5 -24.5t25 -17.5t29 -6.5l-29 -55q-14 -1 -25 -1.5t-18 -0.5q-32 0 -61.5 5.5t-53 18t-38.5 33t-16 51.5q-1 24 7.5 52.5t26.5 58.5t46 59.5t67 54.5q51 32 129.5 53t175.5 21q55 0 107.5 -11t107.5 -37q54 -26 87.5 -80
t33.5 -130q0 -63 -28.5 -122.5t-76.5 -104.5q-49 -46 -107 -81t-122 -58q94 -8 156 -73q61 -64 61 -169q0 -198 -152 -332q-151 -133 -380 -133q-118 0 -200 72q-84 73 -89 147z" />
    <glyph glyph-name="four" unicode="4" horiz-adv-x="1013" 
d="M41 514q113 105 194 250q82 145 82 252q0 72 -29 121.5t-77 70.5l27 62q153 -3 228 -62.5t75 -165.5q0 -202 -377 -540h342l209 643h258l-262 -643h172l-52 -168l-180 20l-196 -481h-154l164 504l-410 47z" />
    <glyph glyph-name="five" unicode="5" horiz-adv-x="987" 
d="M41 -27q124 29 224 78t164 105q63 55 106 118t61 118t18 104q0 69 -25.5 103t-68.5 34q-53 0 -113 -16q-62 -16 -100 -33l-37 -17l-125 82l152 559l22.5 -6.5t28.5 -7.5q16 -5 46.5 -10.5t76.5 -12.5q45 -7 87 -10.5t81 -3.5q32 0 65.5 3t68.5 10q35 6 63 12t48 13l40 13
l43 -69q-1 -6 -3.5 -16t-17.5 -35q-8 -13 -18 -23.5t-21 -20.5q-24 -19 -72.5 -35t-111.5 -16q-68 0 -135 12q-70 12 -102 25l-35 12l-183 -372l38.5 22l29.5 16q25 12 75 33q51 20 107.5 29.5t122.5 9.5q85 0 154 -70q69 -71 69 -190q2 -106 -60 -217t-200 -211
q-91 -64 -228 -121t-310 -96z" />
    <glyph glyph-name="six" unicode="6" horiz-adv-x="948" 
d="M51 256q0 178 89 377t250 377q81 90 172 165t194 136l57 -88q-241 -175 -381 -437q-139 -260 -139 -534q0 -67 22.5 -107.5t73.5 -40.5t106 73q28 37 51 79.5t41 93.5q36 100 36 178q0 64 -21.5 99t-54.5 35q-25 0 -68 -15l-43 78q108 43 211 43q109 0 159 -50.5
t50 -137.5q0 -101 -45 -207q-45 -109 -117 -194q-74 -88 -174 -143q-101 -56 -203 -56q-128 0 -197 69t-69 207z" />
    <glyph glyph-name="seven" unicode="7" horiz-adv-x="858" 
d="M82 -39l168 204l72.5 94l76.5 105q75 108 126 200q24 45 44.5 92.5t35.5 94t23.5 91.5t8.5 86q0 102 -154 102q-34 0 -71.5 -3t-80.5 -10q-86 -14 -138 -27l-52 -13l2 190q114 19 214 28t188 9q334 0 334 -203q0 -121 -67 -271q-68 -153 -177 -302q-111 -152 -229.5 -284
t-245.5 -250z" />
    <glyph glyph-name="eight" unicode="8" horiz-adv-x="1009" 
d="M0 217q0 124 102 234q102 108 271 192q-76 75 -112 158t-36 155q0 91 65.5 176t200.5 151q88 42 213 72.5t277 41.5l8 -60q-134 -19 -234 -53t-157 -70q-57 -37 -91 -80q-35 -45 -45.5 -80.5t-10.5 -72.5q0 -108 124 -238q97 63 147 134.5t50 140.5q0 63 -26 94t-60 31
l37 59q45 1 89 -9.5t79 -32.5t56.5 -55.5t21.5 -76.5q0 -47 -22.5 -93t-64 -91t-100.5 -88.5t-133 -83.5q45 -46 75.5 -86t49 -76t27 -69t8.5 -66q0 -106 -71 -198q-72 -92 -187 -144q-113 -53 -242 -53q-152 0 -230.5 61t-78.5 176zM223 227q0 -66 28.5 -103.5t80.5 -37.5
q101 0 169 75q68 74 68 175q0 21 -8.5 48.5t-24 57.5t-37 61.5t-48.5 61.5q-228 -144 -228 -338z" />
    <glyph glyph-name="nine" unicode="9" horiz-adv-x="937" 
d="M82 604q0 100 45 208q46 109 118 194q73 87 173 142q101 56 203 56q128 0 197 -69t69 -207q0 -181 -88 -376q-88 -198 -251 -377q-163 -181 -366 -302l-57 88q241 175 381 437q139 260 139 534q0 66 -22.5 106.5t-73.5 40.5t-106 -73q-28 -37 -51 -79.5t-41 -93.5
q-36 -101 -36 -178q0 -64 21.5 -98.5t54.5 -34.5q24 0 68 15l43 -78q-108 -43 -211 -43q-109 0 -159 50.5t-50 137.5z" />
    <glyph glyph-name="colon" unicode=":" horiz-adv-x="491" 
d="M125 98q0 54 44 92q43 37 101 37q27 0 50.5 -8t41.5 -23t28.5 -36.5t10.5 -48.5q0 -56 -45 -92q-44 -37 -102 -37q-55 0 -92 31t-37 85zM238 530q0 54 44 92q43 37 101 37q27 0 50.5 -8t41.5 -23t28.5 -36.5t10.5 -48.5q0 -56 -45 -92q-44 -37 -102 -37q-55 0 -92 31
t-37 85z" />
    <glyph glyph-name="semicolon" unicode=";" horiz-adv-x="491" 
d="M41 -141q70 64 93 96q22 32 22 65q0 36 -21 66l144 129l25 -21t40 -45t25 -57q0 -52 -68 -135q-68 -80 -213 -160zM266 645q0 54 44 92q43 37 102 37q27 0 50.5 -8.5t41.5 -23.5t28.5 -36.5t10.5 -48.5q0 -56 -45 -92q-46 -37 -103 -37q-55 0 -92 31.5t-37 85.5z" />
    <glyph glyph-name="less" unicode="&#x3c;" horiz-adv-x="731" 
d="M82 403l514 416h217l-543 -426l346 -393h-196z" />
    <glyph glyph-name="equal" unicode="=" horiz-adv-x="964" 
d="M61 184l35 138h750l-33 -138h-752zM139 522l35 137h750l-33 -137h-752z" />
    <glyph glyph-name="greater" unicode="&#x3e;" horiz-adv-x="854" 
d="M0 0l543 426l-346 393h196l338 -403l-514 -416h-217z" />
    <glyph glyph-name="question" unicode="?" horiz-adv-x="835" 
d="M123 84q0 54 44 92q43 37 101 37q27 0 50.5 -8.5t41.5 -23.5t28.5 -36.5t10.5 -48.5q0 -56 -45 -92q-44 -37 -102 -37q-55 0 -92 31.5t-37 85.5zM137 1221q0 73 59 129q57 53 146 79q85 25 186 25q165 0 278 -87q112 -88 112 -228q0 -66 -45 -136q-47 -73 -114 -131
l-70.5 -60.5l-76.5 -61.5l-148 -113t-113 -100q-46 -50 -46 -88q0 -60 33 -93l-45 -45q-4 2 -9.5 5t-22.5 16l-15.5 14t-13.5 15q-13 16 -23 44t-10 60q0 61 52 135q51 75 124 148l73.5 72l73.5 73q37 36 68 73t57 75q51 76 51 137q0 180 -200 180q-38 0 -68.5 -9.5
t-52.5 -26.5t-33.5 -39.5t-11.5 -49.5q0 -33 6.5 -57.5t15.5 -40.5t18.5 -25t15.5 -12l7 -4l-18 -50q-5 0 -13.5 0.5t-33.5 4.5t-47.5 10.5t-50.5 20.5q-39 19 -67 52t-28 89z" />
    <glyph glyph-name="at" unicode="@" horiz-adv-x="1941" 
d="M102 176q0 150 44 290.5t122 258.5q76 116 185 216q79 73 170.5 130.5t191.5 97.5t205.5 61t212.5 21q280 0 443 -154t163 -409q0 -126 -38.5 -239t-104.5 -197q-64 -83 -148 -146t-173.5 -94.5t-176.5 -31.5q-66 0 -101.5 34.5t-35.5 83.5q0 44 24 115
q-52 -99 -142 -166q-89 -67 -187 -67q-99 0 -152 59q-55 58 -55 147q0 96 30 185.5t80 159.5q50 72 112 129q46 43 96.5 76.5t100 56.5t96 35t85.5 12q68 0 98 -45l8 24h238l-147 -399q-5 -12 -10.5 -27.5l-12.5 -35.5l-12 -34t-9 -24q-8 -20 -15 -45q-8 -26 -11.5 -42.5
t-3.5 -29.5q0 -25 14.5 -41t42.5 -16q28 -2 65.5 9.5t78.5 35t82.5 58.5t77.5 80q24 29 44 67t34.5 81.5t23 92.5t8.5 100q0 252 -142 376t-389 124q-166 0 -328 -81q-163 -82 -283 -211q-121 -132 -194 -300q-75 -171 -75 -340q0 -230 118.5 -345.5t340.5 -115.5
q35 0 71.5 4.5t76.5 12.5q40 9 70.5 18t52.5 17l44 18l24 -55q-4 -3 -9 -6t-14.5 -8t-24.5 -12l-39 -18q-25 -11 -49 -20.5t-49 -17.5q-50 -17 -120 -30q-35 -7 -69.5 -10t-67.5 -3q-129 0 -236.5 32.5t-185 98.5t-121 165.5t-43.5 233.5zM793 246q0 -54 20.5 -87.5
t56.5 -33.5q151 0 281 385l47 141h-51q18 37 18 66q0 31 -24 31q-62 0 -144 -76q-42 -38 -77 -87.5t-66 -109.5q-61 -119 -61 -229z" />
    <glyph glyph-name="F" unicode="F" horiz-adv-x="1601" 
d="M102 1112q0 75 34.5 135.5t94 102.5t138 65t166.5 23q42 0 125 -9t212 -30q235 -39 375 -51q24 27 47.5 47t50 33t58 19.5t72.5 6.5q33 0 63.5 -8t53.5 -22.5t36.5 -35t13.5 -45.5q0 -112 -233 -112l-63 -126t-46.5 -104.5t-39.5 -106.5l-43 -132l286 22l-45 -149h-278
l-31 -107q-161 -551 -631 -551q-151 0 -234 69.5t-83 199.5q0 63 21.5 116t52.5 96t66 74.5t62 49.5l56 -31q-14 -19 -28 -50.5t-25.5 -68t-19 -76t-7.5 -73.5q0 -97 39.5 -152t120.5 -55q134 0 209 88q75 87 141 307l49 164h-199l41 88l193 20l51.5 149.5t50 128.5
t57.5 120t74 123q-213 36 -561 36q-111 0 -180.5 -20.5t-108.5 -52t-53 -70t-14 -74.5q0 -42 10.5 -73.5t25.5 -54t31 -36t26 -19.5l11 -5l-18 -49q-45 0 -93 23.5t-88 61t-66 85.5t-26 96z" />
    <glyph glyph-name="G" unicode="G" horiz-adv-x="1165" 
d="M-4 426q1 83 18 171t49 176t78.5 172.5t106.5 160.5q81 103 174.5 180t211.5 123q115 45 236 45q57 0 102.5 -10.5t78 -31.5t50 -52.5t17.5 -73.5q0 -44 -24 -76.5t-63 -54.5t-88.5 -32.5t-100.5 -10.5l-21 57q13 0 36 4.5t45.5 17.5t39 36t16.5 61q0 36 -28.5 56
t-71.5 20q-85 0 -166 -48.5t-146 -127.5q-32 -40 -61.5 -83.5t-57.5 -94.5q-40 -72 -71 -149.5t-52.5 -151.5t-32.5 -141t-11 -119q0 -93 31 -144t112 -51q115 0 199 111q84 110 164 364h248l-219 -616q30 12 79 39t103 60l104 66.5t82 59.5l43 -53q-32 -29 -85.5 -65.5
t-128.5 -81.5t-132.5 -76t-99.5 -48l-53 -153q-36 -101 -85 -176.5t-108.5 -126t-127 -76t-140.5 -25.5q-45 0 -81.5 11t-62 30.5t-39.5 46.5t-14 60q0 87 120.5 190.5t371.5 210.5l73 240q-129 -156 -303 -156q-72 0 -130 26.5t-99 72t-63.5 107t-22.5 130.5zM203 -393
q0 -35 20 -56.5t56 -21.5q28 0 54.5 18.5t54 61.5t57 113t65.5 174q-149 -85 -228 -158t-79 -131z" />
    <glyph glyph-name="I" unicode="I" horiz-adv-x="864" 
d="M-82 117q70 -39 158 -39q175 0 315 395l213 602l101 285h-193q-91 0 -139.5 -43t-48.5 -119q0 -28 9 -49t21.5 -36t25.5 -24t21 -13l9 -3l-19 -49q-57 3 -108 20t-91 57t-40 97q0 67 34.5 115.5t93.5 73.5t122 36t135 11h450l-139 -363l-230 -598q-48 -124 -103 -215
t-109 -143q-52 -51 -115 -83q-30 -16 -57.5 -26t-53.5 -16t-52 -8t-54 -2q-42 0 -103 21q-60 21 -94 46z" />
    <glyph glyph-name="J" unicode="J" horiz-adv-x="1046" 
d="M-246 -154q0 81 40.5 160t106.5 145q69 66 162 128q96 63 195.5 112.5t216.5 95.5l299 834q-77 -4 -197 -65t-225 -160h-71l81 317h150l-84 -170l9 9t13.5 12.5t22.5 18l36 27.5l44 30.5t44 27.5q21 12 48 24t56.5 21t58.5 15t55 6h250l-328 -856q108 32 207 56.5
t193 41.5l22 -53q-104 -20 -215.5 -49.5t-232.5 -69.5l-142 -369q-45 -118 -102 -206.5t-114 -142.5q-57 -53 -120 -87q-64 -33 -117 -45t-108 -12q-113 0 -184 51q-70 52 -70 153zM-61 -106q0 -150 116 -150q75 0 151.5 100t143.5 291l96 268q-507 -227 -507 -509z" />
    <glyph glyph-name="L" unicode="L" horiz-adv-x="1331" 
d="M-61 70q0 66 74 116t196 50q14 0 29 -3q57 112 88 205.5t43 151.5q4 17 8.5 41.5t9.5 55.5l9 54l7 39q5 26 13.5 56.5t21.5 66.5q-81 52 -123 138q-43 85 -43 167q0 85 49 161t128 120l63 -37q-98 -128 -98 -250q0 -145 61 -209q89 210 269 341q178 130 415 130
q110 0 183 -61t73 -154q0 -82 -42 -153t-109 -122q-34 -25 -71.5 -46.5t-79.5 -39.5q-85 -36 -168.5 -52.5t-158.5 -16.5q-38 0 -70.5 2t-58.5 6q-110 -386 -272 -618q23 -5 57 -13.5l80 -20.5q46 -13 83.5 -22t67.5 -15q56 -13 101 -13q168 0 294 56q120 55 228 157l45 -53
l-52 -48.5t-46 -40.5q-44 -38 -108 -81q-65 -44 -127 -71q-63 -27 -144 -45.5t-172 -18.5q-70 0 -147.5 22t-155.5 52l-67.5 23.5t-47.5 14.5q-136 -112 -241 -112q-43 0 -68.5 22.5t-25.5 67.5zM684 911q20 -4 78 -4q116 0 234 53q115 52 188 140t73 184t-129 96
q-70 0 -138.5 -40.5t-125.5 -109.5t-102.5 -150t-77.5 -169z" />
    <glyph glyph-name="N" unicode="N" horiz-adv-x="1122" 
d="M-729 -139q76 -21 139 -21q66 -2 141.5 38t156.5 117.5t165.5 189.5t168.5 255q57 96 112 206.5t112 239.5q110 253 207 548h217l31 -1072l299 1072h184l-502 -1434h-215l-10 1171q-230 -815 -559 -1212q-259 -313 -553 -313q-77 0 -164 28z" />
    <glyph glyph-name="P" unicode="P" horiz-adv-x="1427" 
d="M82 -285l582 1639q-148 -42 -245 -136t-97 -178q0 -36 9.5 -61.5t23 -42t28 -25.5t23.5 -13l10 -3l-19 -49q-6 0 -15.5 0.5t-37.5 4.5t-53.5 10t-56.5 20q-21 9 -40.5 22t-34.5 30t-23.5 39.5t-8.5 49.5q0 150 152 266q151 115 415 152l31 84l268 20l-37 -90
q512 -11 512 -315q0 -109 -48.5 -208t-132.5 -180q-42 -41 -89.5 -77t-101.5 -68q-109 -66 -226.5 -108t-238.5 -62l-21 72q156 33 295 133q138 98 220 230q81 130 81 255q0 70 -20.5 117t-58 75.5t-89 42t-112.5 17.5l-672 -1663h-172z" />
    <glyph glyph-name="R" unicode="R" horiz-adv-x="1427" 
d="M127 1022q0 153 158 269q159 117 432 151l28 82l271 20l-37 -92q139 -6 230.5 -35.5t145.5 -73t75.5 -96.5t21.5 -108q0 -88 -49 -168.5t-136 -145.5q-88 -65 -192 -116t-227 -88q28 -17 53 -40.5t46 -51t38 -59t29 -62.5q12 -32 23 -66t21 -70q20 -73 31 -133.5
t27 -112.5q17 -54 35 -75q34 -43 90 -43q46 0 166 47l20 -70q-103 -73 -213 -73q-87 0 -159.5 46.5t-118.5 131.5q-18 33 -35 69t-33 75l-29 72l-24 60l-22.5 53l-24.5 55q-27 55 -65.5 99t-92.5 78l-223 -551h-182l483 1360q-159 -38 -262 -135q-104 -98 -104 -185
q0 -36 9.5 -61.5t23.5 -42t28 -25.5t23 -13l10 -3l-19 -49q-6 0 -15.5 0.5t-37.5 4.5t-53.5 10t-56.5 20q-21 9 -40.5 22t-34.5 30t-23.5 39.5t-8.5 49.5zM645 635q236 54 391 200q154 145 154 291q0 117 -62.5 175.5t-181.5 72.5z" />
    <glyph glyph-name="S" unicode="S" horiz-adv-x="1097" 
d="M-61 248q0 39 9 75t24 68.5t35 60.5t42 51q31 33 56 53.5t49 35.5l63 -39q-29 -41 -54 -118q-26 -80 -26 -150q0 -47 13 -85.5t37.5 -66t59.5 -42.5t79 -15q74 0 130 54t56 169q0 93 -66 203l-159 262q-68 116 -68 192q0 106 66 202q66 94 170 159q51 31 109.5 56.5
t120.5 43.5t125 27.5t124 9.5q65 0 118 -11.5t90.5 -34.5t58 -57t20.5 -79q0 -44 -14 -84.5t-39.5 -76t-61.5 -65t-79 -51.5q-88 -45 -179.5 -72t-188.5 -38l-16 53q157 28 263 124q106 94 106 218q0 100 -109 100q-30 0 -63.5 -9t-68 -24.5t-68.5 -37.5t-65 -49
q-62 -53 -104 -126q-42 -74 -42 -147q0 -71 38 -133l185 -309q69 -117 69 -219q0 -105 -71 -185q-72 -80 -187 -120q-114 -41 -252 -41q-60 0 -116.5 15.5t-107.5 46.5t-81 84t-30 122z" />
    <glyph glyph-name="T" unicode="T" horiz-adv-x="1552" 
d="M61 1012q0 94 28 163t77.5 118t117 80.5t145.5 49.5t164 24.5t173 6.5q487 0 909 -123l-53 -92q-84 20 -182 35t-213 26l-17.5 -45l-33.5 -86.5l-44.5 -114.5l-50.5 -128.5l-50.5 -129l-45 -115.5l-34.5 -88.5l-18 -47.5q-59 -157 -86.5 -246.5t-27.5 -118.5
q0 -55 60 -55q329 0 553 213l45 -53q-130 -124 -332 -214q-203 -92 -416 -91q-36 0 -66 10.5t-51 30t-33 46t-12 58.5q0 33 15 96t49 163q14 41 39.5 110l56 150l63 166l60.5 158l49 127l28 72l41 103l17 41h-140l-90.5 -4t-93.5 -5t-92 -7.5t-84 -10.5q-67 -11 -130 -30.5
t-111.5 -51.5t-77.5 -78.5t-29 -109.5q0 -32 16.5 -56t46.5 -41t72 -25.5t93 -8.5q33 0 70.5 6.5t73 16.5t65 21.5t47.5 22.5l38 23l41 -62q-149 -159 -352 -159q-60 0 -112.5 19.5t-91 54.5t-61 82.5t-22.5 103.5z" />
    <glyph glyph-name="U" unicode="U" horiz-adv-x="1722" 
d="M72 1022q0 113 86 214q85 100 225 159q142 59 289 59q136 0 204 -59.5t68 -196.5q0 -96 -38 -216q-38 -117 -93 -224l-55 -105.5l-54 -102.5q-55 -99 -93 -200q-38 -100 -38 -170q0 -55 43 -55q78 0 238 190q41 177 147 422q52 123 107 228.5t113 196.5q115 181 178 181
q27 0 46 -22.5t19 -60.5q0 -147 -137 -398q-110 -203 -252 -405q-45 -137 -45 -217q0 -115 144 -115q151 0 294 63q142 62 230 150l45 -53q-128 -122 -320 -213q-195 -92 -370 -92q-100 0 -157 47.5t-62 132.5q-180 -180 -314 -180q-40 0 -73.5 13t-57.5 37.5t-37.5 59
t-13.5 76.5q0 40 7 84t20 88t30.5 87.5t38.5 82.5l42.5 82l47.5 90l46.5 89.5t42.5 87t37.5 89t31.5 96.5q27 100 27 195q0 76 -27.5 109.5t-81.5 33.5q-78 0 -157 -57q-81 -60 -128 -137q-49 -79 -49 -146q0 -36 9.5 -61.5t23 -42t28 -25.5t23.5 -13l10 -3l-18 -49
q-6 0 -15.5 0.5t-37.5 4.5t-53.5 10t-56.5 20q-21 9 -40.5 22t-34.5 30t-23.5 39.5t-8.5 49.5z" />
    <glyph glyph-name="V" unicode="V" horiz-adv-x="1452" 
d="M113 1106q0 148 139 248t354 100q106 0 180 -28.5t116 -83.5t60.5 -124t18.5 -163q0 -58 -4.5 -141.5t-12.5 -194.5q-9 -111 -20.5 -205.5t-25.5 -175.5l442 1116l194 -20l-692 -1434h-203q78 837 78 973q0 218 -52 312q-53 95 -136 95q-100 0 -168 -89q-68 -91 -68 -193
q0 -51 14 -86.5t33.5 -58.5t40.5 -35.5t34 -17.5l14 -5l-19 -55q-7 0 -18 1t-44 7t-63 16t-66 30q-26 14 -48.5 33.5t-40 45.5t-27.5 59t-10 74z" />
    <glyph glyph-name="W" unicode="W" horiz-adv-x="1724" 
d="M113 1022q0 113 86 214q85 100 225 159q142 59 289 59q126 0 198 -61t72 -193q0 -95 -38 -217q-19 -60 -42 -115t-50 -109q-4 -7 -12.5 -23.5l-19.5 -37.5l-23 -44l-23 -43.5l-19.5 -36.5t-11.5 -23q-28 -52 -50.5 -102t-41.5 -98q-38 -102 -38 -171q0 -55 43 -55
q37 0 96 37t128 106q8 58 27 135t47.5 158.5t64 160t76.5 140t86 99.5t92 38q51 0 51 -84q0 -146 -137 -397q-26 -47 -54.5 -90.5t-60.5 -85.5q-4 -26 -6 -52t-2 -52q0 -113 45 -113q59 0 114 39t102.5 106t86.5 157.5t67 193.5t43 214.5t15 219.5q0 212 -68 354h175
q14 -21 30 -48.5t29.5 -66t22 -90t8.5 -121.5q0 -78 -10.5 -159t-30.5 -161.5t-48.5 -157t-63.5 -144.5q-72 -138 -160 -247q-45 -55 -93 -98.5t-98 -73.5t-100.5 -46t-98.5 -16q-136 0 -155 159q-177 -159 -316 -159q-36 0 -68.5 12t-58 34.5t-40.5 55.5t-15 74
q0 43 7.5 89t20 92t30 90.5t38.5 83.5l17 32.5l27.5 52l27.5 53t18 34.5l46 89.5l42 85t37.5 87.5t32.5 96q14 51 20 99.5t7 96.5q0 76 -27.5 109.5t-81.5 33.5q-43 0 -84 -16.5t-78 -44t-68.5 -63t-54.5 -73.5t-36 -75t-13 -68q0 -36 10 -61.5t23.5 -42t28 -25.5t23.5 -13
l9 -3l-18 -49q-2 0 -23 1.5t-51 7t-64 16.5t-63.5 30.5t-49 49t-19.5 71.5z" />
    <glyph glyph-name="X" unicode="X" horiz-adv-x="1521" 
d="M82 940q-1 61 21 120t60.5 112.5t89.5 99t108 80.5q78 49 158.5 75.5t152.5 26.5q207 0 207 -223q0 -1 -0.5 -14t-2.5 -56q-2 -28 -4 -84t-4 -131l332 488h221l-555 -643v-328q0 -92 12.5 -156t37 -104.5t60.5 -59t83 -18.5q166 0 459 213l45 -53q-108 -114 -291 -209
q-183 -96 -334 -96q-70 0 -123 20t-96 66q-43 45 -65.5 126t-22.5 199v101l-303 -492h-211l518 666q18 541 18 551q0 40 -6 67t-18.5 43t-31 22.5t-42.5 6.5q-76 0 -144 -62t-105 -146q-38 -87 -38 -157q0 -35 7.5 -60.5t19.5 -43.5t26.5 -29t28.5 -17q21 -10 32 -12t17 -2
l-8 -53q-37 -10 -92 -10q-48 -1 -92 8.5t-79 38.5q-20 18 -33 51t-13 78z" />
    <glyph glyph-name="Y" unicode="Y" horiz-adv-x="1476" 
d="M113 1022q0 114 82 214q81 99 220 159q139 59 298 59q126 0 196 -41.5t70 -140.5q0 -53 -14 -109q-7 -28 -19.5 -67t-30.5 -90l-108 -316q-29 -87 -29 -115q0 -55 43 -55q77 0 165 100q89 101 132 242l158 518h258q-62 -157 -161 -445.5l-236 -709.5q46 16 147.5 43.5
l261.5 69.5l43 -53l-96 -27.5l-145 -43.5l-145 -45t-95 -32l-29 -96q-58 -193 -185 -294q-126 -99 -288 -99q-42 0 -77.5 9t-61 27.5t-39.5 46t-14 64.5q0 42 27.5 86.5t84.5 89t145 87t210 81.5q11 43 42.5 138l82.5 245q-60 -65 -148 -111t-162 -46q-69 0 -114 45t-45 114
q0 66 34 168l125 379q47 146 47 215q0 51 -24 72.5t-78 21.5q-78 0 -157 -57q-81 -60 -128 -137q-49 -79 -49 -146q0 -36 10 -61.5t23.5 -42t28 -25.5t23.5 -13l9 -3l-18 -49q-6 0 -15.5 0.5t-37.5 4.5t-53.5 10t-56.5 20q-21 9 -40.5 22t-34.5 30t-23.5 39.5t-8.5 49.5z
M602 -193q0 -26 17.5 -43.5t48.5 -17.5q37 0 73 38q35 38 58 84q22 47 32 89l23 82q-121 -63 -186.5 -123.5t-65.5 -108.5z" />
    <glyph glyph-name="Z" unicode="Z" horiz-adv-x="1208" 
d="M1401 289q-29 -14 -83.5 -36l-125 -49.5l-153.5 -60.5l-167.5 -69.5t-167 -76t-153 -80t-124 -81t-81.5 -80.5q-14 -19 -22 -46t-10 -56t3 -57t18.5 -50t36.5 -34.5t56 -10.5q63 4 113.5 30t89.5 67t67.5 92.5t48 106t31.5 108t18 98.5q15 104 -4.5 169t-63 98.5
t-107.5 39.5t-139 -7q-29 -5 -59 -13t-61 -19l-35 105q104 15 191.5 57.5t158 103.5t124.5 135.5t90 155t54 162t18 156.5q0 60 -20 103.5t-57 72t-88 42t-112 13.5q-65 0 -134 -14.5t-126 -45.5t-94 -78t-37 -112q0 -33 25.5 -54t60.5 -33t71.5 -16.5t59.5 -4.5v-59
q-74 -15 -160 -15q-250 0 -250 156q0 63 49.5 125.5t134.5 113t199 82t244 31.5q92 0 163 -8t137 -29q46 -15 83 -39.5t63 -59.5t40 -82.5t14 -109.5q0 -75 -23 -148t-63 -143t-93.5 -134t-113.5 -120t-124.5 -102.5t-125.5 -80.5q107 8 182 -17t120.5 -75t62 -120.5
t7.5 -152.5q-9 -79 -44.5 -158.5t-89.5 -151t-123.5 -132t-147.5 -102t-160.5 -60t-163.5 -6.5q-76 11 -127 37.5t-77.5 63t-30 80t15 90t58.5 93t99 87.5q43 30 106 64t138 70t158 72l167.5 71.5l165.5 68.5l152 62l127.5 52.5t91.5 39.5z" />
    <glyph glyph-name="bracketleft" unicode="[" 
d="M0 -150l393 1694h375l-31 -110h-196l-348 -1475h219l-25 -109h-387z" />
    <glyph glyph-name="backslash" unicode="\" horiz-adv-x="1011" 
d="M-10 1454l114 76l918 -1530l-100 -66z" />
    <glyph glyph-name="bracketright" unicode="]" 
d="M-41 -150l31 111h196l349 1475h-220l25 108h387l-393 -1694h-375z" />
    <glyph glyph-name="asciicircum" unicode="^" horiz-adv-x="876" 
d="M123 1032q258 238 366 324q15 12 27 12q16 0 27 -14l19.5 -27l27.5 -39l28.5 -43l25.5 -39q11 -19 26.5 -43l35.5 -55q37 -62 48 -78l-72 -61l-205 211l-284 -199z" />
    <glyph glyph-name="underscore" unicode="_" horiz-adv-x="892" 
d="M0 -266l25 125l868 8l-23 -133h-870z" />
    <glyph glyph-name="grave" unicode="`" horiz-adv-x="571" 
d="M61 1434h228l180 -404h-86z" />
    <glyph glyph-name="a" unicode="a" horiz-adv-x="1079" 
d="M20 186q0 69 17 134t47 123t70 109t86 93q45 43 95 76.5t99.5 56.5t96 35t85.5 12q77 0 103 -57l18 51h230l-179 -493q-30 -84 -30 -138q0 -30 18 -46.5t51 -16.5q178 0 414 213l43 -53q-61 -64 -130 -117.5t-148 -98.5q-158 -89 -318 -89q-90 0 -132 43.5t-42 111.5
q-128 -155 -287 -155q-99 0 -152 59q-55 58 -55 147zM262 246q0 -54 20 -87.5t56 -33.5q32 0 71 16.5t84 70.5q27 34 58 95.5t59 143.5l62 186h-58q19 34 19 65t-25 31q-44 0 -106 -44q-61 -43 -114 -113q-53 -68 -89 -158q-37 -87 -37 -172z" />
    <glyph glyph-name="b" unicode="b" horiz-adv-x="890" 
d="M82 215q0 75 10.5 153.5t29 156.5t44.5 152t58 140q32 67 69 130.5t79 123.5q85 120 172.5 203t178.5 132q90 48 164 48q72 0 108.5 -35t36.5 -98q0 -142 -99 -290q-99 -149 -306 -339q53 -11 88 -62q35 -52 35 -118q111 0 241 47t215 117l23 -53q-78 -74 -210 -132
q-67 -29 -136 -47.5t-142 -25.5q-17 -81 -61.5 -159t-107.5 -141q-32 -31 -68.5 -56.5t-76 -43.5t-81 -28t-82.5 -10q-182 0 -182 235zM309 211q0 -86 58 -86q89 0 166 93q78 93 88 198q-32 4 -59.5 15t-48.5 28t-34 40t-14 52l-125 -107q-31 -125 -31 -233zM373 567
q73 64 138 130t123 135q57 69 100.5 128.5t73.5 113.5q60 106 90 182.5t30 115.5q0 8 -6 13.5t-13 5.5q-66 0 -169 -121q-104 -122 -204 -315q-101 -192 -163 -388z" />
    <glyph glyph-name="c" unicode="c" horiz-adv-x="833" 
d="M31 229q0 104 55 214q56 111 141 197q85 87 195 144q110 56 213 56q94 0 147.5 -42t53.5 -124q0 -80 -62 -136q-62 -55 -129 -55l-27 72q25 1 54 36q28 34 28 95q0 28 -15 45t-44 17q-56 0 -120 -45q-66 -45 -119 -113q-54 -68 -90 -155t-36 -163q0 -70 44.5 -108.5
t138.5 -38.5q80 0 164 22q83 22 148 54q64 32 116 62.5t80 52.5l28 22l43 -53l-16.5 -14l-21.5 -19q-13 -11 -38 -29l-63 -44t-77 -49.5t-77 -43.5q-39 -20 -86 -38t-102 -35q-110 -33 -211 -33q-159 0 -237 64.5t-78 184.5z" />
    <glyph glyph-name="d" unicode="d" horiz-adv-x="1079" 
d="M20 186q0 69 17 134t47 123t70 109t86 93q45 43 95 76.5t99.5 56.5t96 35t85.5 12q77 0 103 -57l229 666h232l-392 -1112q-30 -84 -30 -134q0 -30 18 -46.5t51 -16.5q178 0 414 213l43 -53q-61 -64 -130 -117.5t-148 -98.5q-158 -89 -318 -89q-90 0 -132 43.5t-42 111.5
q-128 -155 -287 -155q-99 0 -152 59q-55 58 -55 147zM262 246q0 -54 20 -87.5t56 -33.5q15 0 33.5 3.5t38 12.5t41 26t42.5 44q27 34 58 95t59 145l62 186h-58q19 35 19 65q0 31 -25 31q-45 0 -106 -44t-114 -113q-53 -68 -89 -158q-37 -89 -37 -172z" />
    <glyph glyph-name="e" unicode="e" horiz-adv-x="833" 
d="M31 229q0 91 36.5 183.5t99.5 167.5q61 74 137 135q75 60 156.5 92.5t153.5 32.5q54 0 94.5 -13t66.5 -36t39 -54t13 -67q0 -71 -41 -130q-30 -43 -77.5 -74.5t-106.5 -52.5t-126.5 -31.5t-137.5 -10.5q-17 0 -29 0.5t-20 1.5q-13 -52 -13 -92q0 -38 9.5 -67t32 -48.5
t59.5 -30t92 -10.5q78 0 159 22t145 54q63 32 114.5 62.5t79.5 52.5l28 22l43 -53l-16.5 -14l-21.5 -19q-13 -11 -38.5 -29l-63.5 -44q-39 -26 -78 -49.5t-77 -43.5q-76 -40 -187 -73q-110 -33 -210 -33q-83 0 -142.5 17t-97.5 49.5t-56.5 78.5t-18.5 104zM322 463
q8 -1 20 -1.5t29 -0.5q75 0 136 21.5t97 55.5q35 33 53.5 71t18.5 75q0 64 -53 64q-78 0 -163 -85q-86 -86 -138 -200z" />
    <glyph glyph-name="f" unicode="f" horiz-adv-x="757" 
d="M20 -219q0 72 11.5 155t34.5 177q46 186 102 346l352 975h230l-295 -791q57 -20 139 -20q235 0 369 55l-5 -64q-35 -17 -78 -31t-95 -24q-54 -10 -102.5 -15t-94.5 -5q-35 0 -62 2t-47 6q121 -269 121 -510q0 -116 -21 -219t-64.5 -181t-110 -123.5t-156.5 -45.5
q-112 0 -170 74.5t-58 238.5zM238 -252q0 -33 5.5 -60.5t16 -47.5t27 -31.5t37.5 -11.5q51 0 91 64q39 65 59 163q10 51 15 102.5t5 106.5q0 234 -93 467q-22 -69 -48 -166t-55 -227q-60 -258 -60 -359z" />
    <glyph glyph-name="g" unicode="g" horiz-adv-x="970" 
d="M-51 -375q0 28 14 55t35 50q22 23 60.5 47t75.5 44q19 10 42 21t52 23q28 13 54 23.5l50 20.5q23 10 52 21l63 24q7 2 8 3l57 176q-15 -20 -36 -41t-57 -49q-37 -28 -87.5 -45.5t-104.5 -17.5q-99 0 -152 59q-55 58 -55 147q0 69 17 134t47 123t70 109t86 93
q45 43 95 76.5t99.5 56.5t96 35t85.5 12q77 0 103 -57l18 51h230l-275 -760q273 130 441 279l43 -53q-167 -155 -517 -318l-38 -106q-141 -393 -441 -393q-98 0 -165 41q-66 40 -66 116zM127 -373q0 -40 20 -64t56 -24q54 0 104 69q51 72 113 249q-144 -68 -218.5 -122
t-74.5 -108zM262 246q0 -52 21 -86.5t57 -34.5q30 0 60.5 13.5t68.5 48.5t77 106.5t72 177.5l54 166h-58q19 35 19 65q0 31 -25 31q-45 0 -106 -44t-114 -113q-53 -68 -89 -158q-37 -89 -37 -172z" />
    <glyph glyph-name="h" unicode="h" horiz-adv-x="1122" 
d="M0 0l510 1434h231l-397 -1090q279 496 510 496q52 0 79.5 -33t27.5 -84q0 -42 -23 -111l-111 -303q-34 -89 -34 -127q0 -57 49 -57q94 0 213 57q117 55 229 156l43 -53q-320 -305 -596 -305q-90 0 -132 43.5t-42 111.5q0 73 49 205l105 289q4 11 4 16q0 12 -10 12
q-61 0 -189 -179q-127 -178 -287 -478h-229z" />
    <glyph glyph-name="i" unicode="i" horiz-adv-x="606" 
d="M41 135q0 74 49 205l174 479h236l-185 -497q-30 -84 -30 -134q0 -30 18 -46.5t51 -16.5q118 0 258 91q73 47 156 122l43 -53q-61 -64 -130 -117.5t-148 -98.5q-158 -89 -318 -89q-90 0 -132 43.5t-42 111.5zM309 1102q0 59 49 99q46 40 111 40q30 0 56 -9t45.5 -25.5
t30.5 -40.5t11 -54q0 -61 -49 -101t-112 -40q-30 0 -56 9t-45 26t-30 41.5t-11 54.5z" />
    <glyph glyph-name="j" unicode="j" horiz-adv-x="540" 
d="M-420 -395q0 42 26 78.5t94 80.5l64 39t54 30l65.5 33.5l98.5 48.5q3 2 5.5 3t4.5 2l26 80l261 819h237l-283 -780q246 130 469 299l43 -53q-195 -160 -546 -344l-29 -80q-141 -393 -440 -393q-76 0 -113 35.5t-37 101.5zM-272 -408q0 -53 45 -53q19 0 39.5 14.5t42.5 46
t46.5 82.5t51.5 125q-112 -66 -168.5 -116t-56.5 -99zM326 1102q0 59 49 99q47 40 110 40q30 0 56 -9t45.5 -25.5t31 -40.5t11.5 -54q0 -61 -49 -101t-113 -40q-30 0 -56 9t-44.5 26t-29.5 41.5t-11 54.5z" />
    <glyph glyph-name="k" unicode="k" horiz-adv-x="999" 
d="M0 0l528 1434h230l-377 -1004l428 424l152 -78l-490 -360q97 39 152 39t55 -90q0 -19 -3 -62q-3 -44 -3 -63q0 -24 5 -44.5t15 -36.5t25.5 -25t36.5 -9q34 0 70 6t70.5 16.5t66.5 24t58 29.5q53 32 95.5 62.5t65.5 52.5l22 22l43 -53q-14 -12 -36 -33q-12 -11 -36 -29
l-59 -44q-72 -53 -141 -93q-70 -40 -164 -73q-95 -33 -176 -33q-35 0 -62 7.5t-45 18.5q-19 11 -31.5 32.5t-18.5 40.5q-3 9 -6 23t-4.5 30t-2.5 31.5t-1 27.5q-1 12 -1 28.5v38.5q0 54 -9 74t-38 20q-34 0 -72 -22l-123 -330h-219z" />
    <glyph glyph-name="l" unicode="l" horiz-adv-x="606" 
d="M41 135q0 73 49 205l397 1094h236l-412 -1125q-35 -94 -35 -127q0 -24 12 -40.5t38 -16.5q194 0 442 213l43 -53q-52 -54 -115.5 -103.5t-141.5 -97.5t-166.5 -76t-172.5 -28q-90 0 -132 43.5t-42 111.5z" />
    <glyph glyph-name="m" unicode="m" horiz-adv-x="1603" 
d="M0 0l291 819h231l-178 -475q279 496 510 496q52 0 79.5 -33t27.5 -84q0 -42 -23 -111l-74 -198q252 426 471 426q52 0 79.5 -33t27.5 -84q0 -42 -23 -111l-110 -303q-35 -94 -35 -127q0 -57 49 -57q194 0 442 213l43 -53q-320 -305 -596 -305q-90 0 -132 43.5t-42 111.5
q0 73 49 205l105 289q4 11 4 16q0 12 -10 12q-60 0 -188 -179q-127 -178 -287 -478h-230l232 653q-4 4 -8 4q-61 0 -189 -179q-127 -178 -287 -478h-229z" />
    <glyph glyph-name="n" unicode="n" horiz-adv-x="1122" 
d="M0 0l291 819h231l-178 -475q279 496 510 496q52 0 79.5 -33t27.5 -84q0 -42 -23 -111l-111 -303q-34 -89 -34 -127q0 -57 49 -57q94 0 213 57q117 55 229 156l43 -53q-320 -305 -596 -305q-90 0 -132 43.5t-42 111.5q0 73 49 205l105 289q4 11 4 16q0 12 -10 12
q-61 0 -189 -179q-127 -178 -287 -478h-229z" />
    <glyph glyph-name="o" unicode="o" horiz-adv-x="995" 
d="M31 229q0 51 11 102t31.5 99t49.5 93t64 84q71 78 157 138.5t180 94.5l31 -64q-117 -81 -200 -222q-83 -140 -83 -271q0 -64 31 -110q31 -48 100 -48q42 0 90.5 24t97.5 72t88 127.5t54 179.5q-84 24 -125 77t-41 104q0 53 40 92q39 39 95 39q87 0 134.5 -63.5
t50.5 -168.5q10 -1 26 -1.5t39 -0.5q72 0 155 18q42 8 74 17t55 17l46 18l21 -53q-3 -2 -7.5 -4.5t-13 -6l-22 -9l-35.5 -14.5t-44.5 -17t-45.5 -15t-53 -14t-63.5 -12.5t-69.5 -9.5t-70 -5q-9 -48 -27 -96t-44.5 -94.5t-59.5 -90.5t-72 -82q-77 -77 -178 -125t-203 -48
q-130 0 -197 76q-67 74 -67 173z" />
    <glyph glyph-name="p" unicode="p" horiz-adv-x="1046" 
d="M-143 -512q26 117 66 256t94 308l101 304.5t89 245.5l82 217h229l-154.5 -388l-140.5 -380q88 214 168 363.5t155 242.5q147 183 294 183q37 0 69 -10t55 -30t36.5 -49t13.5 -67q0 -51 -15 -99.5t-39 -94.5t-54 -88.5l-59 -81.5l-64.5 -87.5t-26.5 -58.5t14 -35t43 -14
q69 0 179 56q55 28 108.5 67t107.5 90l43 -53q-55 -58 -122 -110t-146 -100q-81 -49 -151 -71.5t-130 -23.5q-78 0 -125 32.5t-47 98.5q0 42 18.5 88.5t47 94t63.5 94.5l69 89q22 28 42 57.5t34.5 57.5t23 53.5t8.5 46.5q0 25 -11.5 39t-34.5 14q-27 0 -71 -39.5t-98.5 -110
t-116 -167t-123.5 -210.5q-43 -78 -85 -163.5t-85 -182.5l-81.5 -192t-72.5 -192h-200z" />
    <glyph glyph-name="q" unicode="q" horiz-adv-x="1091" 
d="M20 186q0 69 17 134t47 123t70 109t86 93q45 43 95 76.5t99.5 56.5t96 35t85.5 12q77 0 103 -57l18 51h230l-228 -639q40 -24 86 -24q111 0 230 58q121 58 198 124l43 -53q-45 -47 -99 -85t-118 -69q-126 -61 -248 -61q-12 0 -20.5 0.5t-13.5 1.5q80 -145 80 -285
q1 -23 -3 -52.5t-13.5 -61t-25 -63t-38.5 -59.5q-30 -35 -81.5 -59t-117.5 -24q-99 0 -155 62t-56 177q0 78 62 275l36 122q-21 -24 -48.5 -46.5t-60 -40t-70 -27.5t-79.5 -10q-99 0 -152 59q-55 58 -55 147zM262 246q0 -52 21 -86.5t57 -34.5q25 0 46 5t51 25q30 19 57 54
q27 33 57.5 95t58.5 147l62 186h-58q19 35 19 65q0 31 -25 31q-45 0 -106 -44t-114 -113q-53 -68 -89 -158q-37 -89 -37 -172zM602 -326q0 -80 60 -80q35 0 58.5 21t37 52t19 65t5.5 61q0 144 -84 273l-30 -91q-11 -32 -22 -71t-22 -87t-16.5 -83.5t-5.5 -59.5z" />
    <glyph glyph-name="r" unicode="r" horiz-adv-x="933" 
d="M0 0l299 819h231l-163 -420q20 37 40 70l40 64q40 63 78.5 112t74.5 87q105 108 234 108q79 0 79 -86q0 -10 -3 -33l-6 -48t-6 -46.5t-3 -28.5q0 -61 39 -61q16 0 45 9t65 25.5t74 40.5t72 54l31 -43q-51 -49 -105 -89t-111 -71q-113 -62 -200 -62q-107 0 -107 115
q0 6 0.5 21.5t1.5 32.5t1.5 33t0.5 24q0 30 -18 30q-31 0 -79 -48.5t-108 -141.5l-121.5 -201t-146.5 -266h-229z" />
    <glyph glyph-name="s" unicode="s" horiz-adv-x="710" 
d="M-82 164q229 127 361 309l-17 33t-12.5 28t-9.5 29.5t-9 38.5q-10 39 -10 88q0 102 54 159q54 56 122 56q63 0 98 -37t35 -100q0 -64 -57 -143q21 -35 36.5 -65.5t26 -61t16 -62t5.5 -67.5q0 -142 -86 -246q55 17 109.5 41t109.5 53q54 29 99.5 59t82.5 62l43 -53
q-67 -69 -179 -136t-270 -118t-300 -51q-100 0 -165 53q-63 51 -83 131zM33 131q38 -41 100 -41q80 0 140 64q59 65 59 141q0 56 -23 113q-64 -84 -132.5 -153t-143.5 -124z" />
    <glyph glyph-name="t" unicode="t" horiz-adv-x="647" 
d="M61 143q0 65 58 246q29 91 59 176t62 166h-168l34 88l175 12l66 144l34.5 73.5l28.5 57.5l24 51l234 49q-31 -67 -68 -158l-80 -206l232 12l-45 -123h-228q-182 -489 -182 -549q0 -57 47 -57q196 0 444 213l43 -53q-23 -23 -45.5 -43l-42.5 -37q-21 -18 -47 -38t-58 -42
q-64 -46 -122 -74q-60 -30 -135 -50.5t-148 -20.5q-91 0 -131.5 44t-40.5 119z" />
    <glyph glyph-name="u" unicode="u" horiz-adv-x="1075" 
d="M41 166q0 57 27 137l180 516h235l-198 -518q-19 -47 -19 -88q0 -46 24 -67t58 -21q151 0 281 385l104 309h238l-148 -399q-32 -88 -49.5 -141.5t-21.5 -73.5q-1 -7 -1.5 -12.5t-0.5 -10.5q0 -57 49 -57q192 0 438 213l43 -53q-329 -305 -604 -305q-66 0 -101.5 34.5
t-35.5 83.5q0 44 24 115q-52 -99 -142 -166q-91 -67 -188 -67q-42 0 -77.5 12t-61 35t-39.5 58t-14 81z" />
    <glyph glyph-name="v" unicode="v" horiz-adv-x="999" 
d="M51 729q114 111 228 111q78 0 127 -42.5t49 -127.5q0 -61 -34 -156l-34 -95l-34 -91q-34 -89 -34 -131q0 -72 87 -72q54 0 109.5 29.5t103.5 83.5t81 135t41 178q-48 31 -74 79.5t-26 96.5q0 24 7.5 44.5t22 35.5t34 24t43.5 9q66 0 103.5 -50.5t37.5 -144.5
q0 -13 -0.5 -21.5t-1.5 -13.5q40 -6 69 -6q66 0 149 18q80 17 131 36l48 18l23 -53q-3 -2 -7.5 -4.5l-12 -6.5t-20.5 -10l-34 -15t-43.5 -16.5l-45.5 -14.5q-24 -7 -54.5 -13.5t-65 -12t-72.5 -9t-75 -3.5q-28 -143 -116 -269q-90 -126 -206 -197q-119 -72 -238 -72
q-101 0 -164 54t-63 146q0 71 31 161l31.5 88t31.5 81q31 75 31 111q0 75 -57 75q-14 0 -30.5 -5t-25.5 -10l-10 -5z" />
    <glyph glyph-name="w" unicode="w" horiz-adv-x="1374" 
d="M51 729q114 111 228 111q78 0 127 -42.5t49 -127.5q0 -61 -34 -156l-34 -95l-34 -91q-34 -89 -34 -131q0 -38 20 -55t50 -17q72 0 160 88q-6 34 -6 80q0 23 3 60.5t16 104.5q12 67 33 121q21 55 63 95q41 41 96 41q40 0 62 -34.5t22 -86.5q0 -73 -32 -163t-81 -165
q-1 -7 -1.5 -18.5t-0.5 -28.5q0 -43 26 -68.5t74 -25.5q103 0 187 114q83 113 92 296q-72 24 -114 72t-42 102q0 53 40 92q39 39 95 39q89 0 136 -63t55 -169q23 -2 37.5 -3t21.5 -1q66 0 149 18q81 18 130 36l49 18l22 -53q-3 -2 -7.5 -4.5t-12 -6l-20 -9l-33.5 -14.5
t-42.5 -16.5t-44.5 -14.5t-52.5 -13.5t-63 -12.5t-69.5 -10.5t-72 -5.5q-31 -223 -178 -380q-146 -156 -324 -156q-69 0 -110.5 30.5t-71.5 93.5q-31 -29 -66.5 -51.5t-72.5 -39t-74 -25t-72 -8.5q-88 0 -147 56q-58 55 -58 144q0 71 31 161l31.5 88t31.5 81q31 75 31 111
q0 75 -57 75q-14 0 -30.5 -5t-25.5 -10l-10 -5z" />
    <glyph glyph-name="x" unicode="x" horiz-adv-x="866" 
d="M-55 0l321 373l-67 239q-11 38 -22.5 59t-37.5 25q-26 0 -63 -20l-41 53l23.5 21.5t19 16t20.5 15l27 18.5q59 40 133 40q57 0 88 -31q31 -32 53 -115l35 -127l248 287l152 -78l-355 -375l43 -155q17 -61 45 -87t74 -26q28 0 58.5 5.5t59.5 15.5t56.5 23.5t50.5 28.5
q46 30 84 60t58 51l20 21l43 -53q-11 -12 -27 -33q-16 -19 -75 -73q-57 -53 -117 -93q-58 -39 -149 -73q-90 -33 -177 -33q-51 0 -87 16t-60 51q-23 33 -37 69q-7 17 -14 39t-15 50l-4 16l-209 -221h-155z" />
    <glyph glyph-name="y" unicode="y" horiz-adv-x="970" 
d="M-31 -395q-2 21 7.5 42.5t27.5 42t42.5 40t52.5 37.5q17 11 41 24t53 27l56 27l51 24q23 11 54 24.5l69 30.5q8 4 13.5 6t9.5 4l66 199q-28 -35 -61 -63t-69 -48t-74 -31t-75 -11q-42 0 -77.5 12t-61 35t-39.5 58t-14 81q0 57 27 137l180 516h235l-198 -518
q-19 -47 -19 -88q0 -46 24 -67t58 -21q40 0 78.5 26.5t74 76t67.5 120.5t61 160l100 311h238l-279 -772q277 142 445 291l43 -53q-163 -151 -521 -326l-34 -98q-141 -393 -441 -393q-48 0 -86.5 9.5t-66.5 27.5t-43 43.5t-15 56.5zM127 -393q0 -27 20.5 -47.5t55.5 -20.5
q53 0 102 67q50 68 111 236q-143 -72 -216 -126.5t-73 -108.5z" />
    <glyph glyph-name="z" unicode="z" horiz-adv-x="919" 
d="M-41 -395q0 45 34 85.5t93.5 79.5t140.5 78l175 81q4 2 7 3t5 2q-11 59 -67 87q-58 26 -189 26l-68 72l33 28l49 40l50.5 41l37.5 31l81 69l45 39.5t34 31.5l30 31l34 37q37 41 55 68q18 29 31.5 61.5t13.5 60.5q0 52 -49 52q-46 0 -145 -54q-51 -28 -101.5 -66
t-104.5 -89h-71l82 319h149l-84 -172q4 4 9 8.5l14 12l22.5 18.5l35.5 28t43.5 31.5t44.5 27.5q21 12 48 24t56.5 21.5t58.5 15.5t55 6q76 0 118 -41.5t42 -116.5q0 -119 -125 -271q-125 -150 -317 -290q168 -21 233 -98q307 160 483 315l43 -53q-84 -78 -207 -157
t-288 -163q10 -30 10 -67q0 -105 -62 -206q-63 -99 -171 -162q-110 -62 -230 -62q-103 0 -160 36.5t-57 100.5zM117 -393q0 -27 20.5 -47.5t55.5 -20.5q76 0 150 87q73 88 77 231l-90 -47.5t-68 -40.5q-57 -34 -102 -80q-43 -43 -43 -82z" />
    <glyph glyph-name="braceleft" unicode="{" 
d="M123 -2q0 70 53 311q26 120 39.5 189.5t13.5 91.5q0 98 -75 131l6 31q63 12 108 55.5t70 104.5t47.5 136t38.5 151q15 76 40.5 148t56.5 128t86 89t128 33q36 0 74 -8l-18 -53q-70 -15 -113 -66.5t-61 -123.5q-19 -72 -31 -154.5t-28 -163.5q-8 -41 -18.5 -78t-26 -70
t-37.5 -61t-53 -49q-61 -42 -157 -47l31.5 -16t24.5 -14t20.5 -14.5t20.5 -17.5q40 -40 40 -112q0 -42 -51 -265q-51 -224 -51 -288q0 -24 6 -46t16.5 -41t24.5 -32.5t31 -19.5l-19 -68q-8 -1 -19.5 -1.5t-25.5 -0.5q-98 0 -145 50t-47 161z" />
    <glyph glyph-name="bar" unicode="|" horiz-adv-x="663" 
d="M57 -207l594 1641h271l-682 -1641h-183z" />
    <glyph glyph-name="braceright" unicode="}" 
d="M-12 -152q48 10 81 35.5t55 63t35.5 83.5t23 97.5t16.5 105.5t17 106q12 63 30.5 120.5t52 101.5t85 71t128.5 30l-31.5 16t-24 14t-20.5 14.5t-20 18.5q-22 20 -31.5 47t-9.5 64q0 41 51 265q51 223 51 288q0 24 -6 46t-16.5 41t-24.5 32.5t-31 19.5l19 67q8 1 19.5 1.5
t25.5 0.5q98 0 145 -50t47 -161q0 -36 -13.5 -113t-39.5 -197t-39.5 -189.5t-13.5 -91.5q0 -98 76 -131l-7 -31q-63 -12 -108 -55.5t-70 -104.5t-47.5 -136.5t-37.5 -151.5q-16 -76 -41.5 -148t-56.5 -128t-86 -89t-128 -33q-36 0 -74 8z" />
    <glyph glyph-name="asciitilde" unicode="~" horiz-adv-x="806" 
d="M51 469q31 61 58.5 103t52.5 67q49 49 110 49q40 0 148 -48t151 -48q37 0 60 15q21 14 67 77l58 -41q-55 -111 -107 -163t-110 -52q-48 0 -159 51q-113 51 -140 51q-17 0 -32 -4.5t-31 -15.5t-33 -30.5t-38 -49.5z" />
    <glyph glyph-name="currency" unicode="&#xa4;" horiz-adv-x="1126" 
d="M102 27l131 135q-45 67 -45 153q0 111 49 205.5t134 163.5l-103 125l127 88l105 -135q109 45 219 45q82 0 145 -31l133 131l109 -86l-131 -135q45 -68 45 -156q0 -111 -49.5 -205t-134.5 -161l104 -125l-127 -88l-106 135q-99 -45 -218 -45q-77 0 -147 29l-131 -129z
M403 293q0 -72 37.5 -113t100.5 -41q76 0 142 66q67 65 101 159q35 94 35 185q0 73 -34.5 114.5t-98.5 41.5q-76 0 -143 -66q-67 -67 -103 -162q-37 -93 -37 -184z" />
    <glyph glyph-name="brokenbar" unicode="&#xa6;" horiz-adv-x="657" 
d="M-37 0l203 565h213l-205 -565h-211zM227 733l254 701h213l-254 -701h-213z" />
    <glyph glyph-name="section" unicode="&#xa7;" horiz-adv-x="980" 
d="M51 -291q0 14 0.5 23.5t1.5 15.5l80 27q24 -61 73 -97t118 -36q37 0 65.5 10.5t47.5 28.5t28.5 42.5t9.5 51.5q1 36 -22.5 67t-59.5 59t-79.5 55t-82.5 54q-27 19 -51.5 42.5t-42.5 51.5t-28.5 59t-10.5 66q0 96 78 185q78 88 189 135q-66 45 -66 170q11 87 76 157
q66 70 160 106t194 36q58 0 100 -18t63 -48q20 -31 29 -62.5t9 -68.5q0 -14 -0.5 -23.5t-1.5 -15.5l-80 -26q-24 61 -73 97t-118 36q-38 0 -66 -10t-47 -28t-28.5 -42.5t-9.5 -52.5q0 -36 23 -67t59 -59.5t79 -55l83 -53.5q28 -19 52 -42.5t42 -51.5t28.5 -60t10.5 -66
q0 -97 -78 -184q-80 -89 -191 -135q68 -47 68 -170q-11 -87 -76 -157q-66 -70 -160 -106q-95 -36 -194 -36q-60 0 -101.5 17.5t-61.5 47.5q-21 30 -29.5 61.5t-8.5 69.5zM317 297q0 -94 179 -231q63 2 115 54q53 51 53 111q0 92 -181 234q-59 -1 -113 -55q-53 -53 -53 -113z
" />
    <glyph glyph-name="copyright" unicode="&#xa9;" horiz-adv-x="1658" 
d="M123 643q0 374 219 593q220 218 592 218q211 0 367 -75t247 -228q90 -152 90 -365q0 -366 -220 -586t-591 -220q-157 0 -285 43.5t-222 125.5t-145.5 208t-51.5 286zM281 674q0 -270 161 -428t428 -158q144 0 260.5 53t192.5 145t117 212.5t41 259.5q0 271 -160 430
q-161 158 -432 158q-147 0 -263.5 -52t-191.5 -145t-114 -213t-39 -262zM492 678q0 103 37.5 192.5t100.5 151.5t144.5 96.5t169.5 34.5q112 0 161 -46q48 -47 48 -114q0 -82 -60 -139t-130 -57l-27 71q25 1 54 36q28 32 28 83q0 74 -74 74q-84 0 -152 -101
q-67 -101 -67 -286q0 -112 51.5 -174t159.5 -62q99 0 186 60l49 -72q-57 -61 -138.5 -98t-174.5 -37q-60 0 -111 14t-92.5 39.5t-73 61t-50.5 78.5q-39 85 -39 194z" />
    <glyph glyph-name="guillemotleft" unicode="&#xab;" horiz-adv-x="921" 
d="M123 406l393 352l57 -60l-243 -292l123 -285l-97 -55zM430 406l393 352l58 -60l-244 -292l123 -285l-96 -55z" />
    <glyph glyph-name="logicalnot" unicode="&#xac;" horiz-adv-x="1058" 
d="M123 451l35 137h860l-92 -406h-148l62 269h-717z" />
    <glyph glyph-name="uni00AD" unicode="&#xad;" horiz-adv-x="657" 
d="M123 408l41 135l452 24l-45 -159h-448z" />
    <glyph glyph-name="registered" unicode="&#xae;" horiz-adv-x="1052" 
d="M123 981q0 219 139 358q140 140 350 140q222 0 353 -116q129 -117 129 -331q0 -218 -139 -357q-140 -140 -351 -140q-222 0 -352 116q-129 115 -129 330zM219 981q0 -172 106 -271q106 -100 279 -100q182 0 288 121q105 120 105 301q0 172 -106 272q-107 99 -279 99
q-182 0 -287 -120q-106 -121 -106 -302zM440 729v586h176q88 0 128 -39t40 -98q0 -55 -36 -95q-38 -41 -84 -51q61 -3 88.5 -18.5t27.5 -59.5q0 -14 -2 -33.5t-6 -42.5t-6 -40t-2 -27q0 -29 18 -29q14 0 49 11l13 -39q-52 -31 -105 -31q-51 0 -68.5 24t-17.5 66q0 33 10 79
q9 48 9 60q0 27 -22.5 35t-67.5 8h-29v-266h-113zM553 1047q24 0 46 8t38.5 23.5t26.5 38t10 50.5q0 99 -121 99v-219z" />
    <glyph glyph-name="degree" unicode="&#xb0;" horiz-adv-x="665" 
d="M102 1075q0 135 103 223t239 88q102 0 162 -51t60 -145q0 -89 -50 -162q-48 -72 -126 -110q-75 -37 -158 -37q-105 0 -167.5 50t-62.5 144zM266 1073q0 -88 84 -88q63 0 108 71q44 71 44 140q0 86 -84 86q-62 0 -107 -71t-45 -138z" />
    <glyph glyph-name="plusminus" unicode="&#xb1;" horiz-adv-x="989" 
d="M123 0l35 137h749l-33 -137h-751zM164 541l35 137h297l92 346l135 -31l-84 -315h309l-33 -137h-311l-82 -314l-135 33l74 281h-297z" />
    <glyph glyph-name="mu" unicode="&#xb5;" horiz-adv-x="1103" 
d="M-188 -512l483 1331h229l-159 -436q-43 -114 -43 -184q0 -64 45 -64q50 0 128 84q79 85 119 195l148 405h235l-184 -497q-31 -75 -31 -138q0 -59 76 -59q27 0 57 6t60 16.5t58.5 24t53.5 29.5q50 32 91.5 62.5t64.5 52.5l23 22l43 -53q-40 -46 -99.5 -95t-137.5 -98
q-39 -24 -83 -44.5t-90 -35.5t-92.5 -23.5t-91.5 -8.5q-85 0 -130.5 39.5t-45.5 111.5q0 16 0.5 27.5t1.5 19.5q-6 -11 -24 -37t-51 -65q-17 -20 -37 -37.5t-42.5 -30.5t-46 -20.5t-45.5 -7.5q-39 0 -66 38l-194 -530h-223z" />
    <glyph glyph-name="paragraph" unicode="&#xb6;" horiz-adv-x="1083" 
d="M61 319q0 11 0.5 20t1.5 15q16 135 80 255.5t161 211.5q98 91 230 144q135 53 279 53q180 0 332 -37l-555 -1493h-105l498 1389q-2 0 -11 1l-26 3t-31.5 2.5t-25.5 1.5l-500 -1397h-102l250 739q-137 -116 -265 -116q-97 0 -154 52.5t-57 155.5zM289 338q0 -90 96 -90
q56 0 121 49q66 50 104 145l174 449h-49q-83 0 -168 -59q-85 -60 -144 -146q-58 -84 -96 -181q-38 -96 -38 -167z" />
    <glyph glyph-name="periodcentered" unicode="&#xb7;" horiz-adv-x="491" 
d="M248 616q0 54 44 92q43 37 101 37q27 0 50.5 -8t41.5 -23t28.5 -36.5t10.5 -48.5q0 -56 -45 -92q-44 -37 -102 -37q-55 0 -92 31t-37 85z" />
    <glyph glyph-name="guillemotright" unicode="&#xbb;" horiz-adv-x="921" 
d="M123 125l244 293l-123 284l96 56l233 -340l-393 -352zM430 125l244 293l-123 284l96 56l234 -340l-394 -352z" />
    <glyph glyph-name="endash" unicode="&#x2013;" horiz-adv-x="1056" 
d="M123 414l24 125l869 8l-23 -133h-870z" />
    <glyph glyph-name="emdash" unicode="&#x2014;" horiz-adv-x="1712" 
d="M123 434l24 125l1524 8l-22 -133h-1526z" />
    <glyph glyph-name="quoteleft" unicode="&#x2018;" horiz-adv-x="434" 
d="M82 1038q0 73 81 163q82 91 294 233l59 -76q-129 -121 -162 -166q-35 -47 -35 -94q0 -8 2.5 -21t7 -27.5l9 -29.5t9.5 -27l9 -24l-188 -66q-3 3 -9 8t-21 20q-17 17 -26 30q-11 15 -20.5 36.5t-9.5 40.5z" />
    <glyph glyph-name="quoteright" unicode="&#x2019;" horiz-adv-x="434" 
d="M123 979q64 60 104.5 101.5t57.5 64.5q34 46 34 94q0 8 -2.5 21t-6.5 27.5t-9 29.5l-9 27l-9 24l188 66q10 -8 24 -21t38 -49t24 -66q0 -72 -81 -162q-82 -91 -294 -233z" />
    <glyph glyph-name="quotesinglbase" unicode="&#x201a;" horiz-adv-x="598" 
d="M41 -291l105 101.5t58 64.5q34 46 34 94q0 8 -2.5 21t-6.5 27.5t-9 29.5t-10 27l-9 24l188 66q3 -3 9 -8t21 -20q17 -17 26 -30q11 -15 20.5 -36.5t9.5 -40.5q0 -73 -81 -163q-82 -91 -294 -233z" />
    <glyph glyph-name="quotedblleft" unicode="&#x201c;" horiz-adv-x="770" 
d="M82 1038q0 73 81 163q82 91 294 233l59 -76q-129 -121 -162 -166q-35 -47 -35 -94q0 -8 2.5 -21t7 -27.5l9 -29.5t9.5 -27l9 -24l-188 -66q-3 3 -9 8t-21 20q-17 17 -26 30q-11 15 -20.5 36.5t-9.5 40.5zM418 1038q0 73 81 163q82 91 294 233l59 -76q-129 -121 -162 -166
q-35 -47 -35 -94q0 -8 2.5 -21t7 -27.5l9 -29.5t9.5 -27l9 -24l-188 -66q-3 3 -9 8t-21 20q-17 17 -26 30q-11 15 -20.5 36.5t-9.5 40.5z" />
    <glyph glyph-name="quotedblright" unicode="&#x201d;" horiz-adv-x="770" 
d="M123 979q64 60 104.5 101.5t57.5 64.5q34 46 34 94q0 8 -2.5 21t-6.5 27.5t-9 29.5l-9 27l-9 24l188 66q10 -8 24 -21t38 -49t24 -66q0 -72 -81 -162q-82 -91 -294 -233zM459 979q64 60 104.5 101.5t57.5 64.5q34 46 34 94q0 8 -2.5 21t-7 27.5l-9.5 29.5l-9 27l-9 24
l189 66q10 -8 24 -21t38 -49t24 -66q0 -72 -81 -162q-82 -91 -294 -233z" />
    <glyph glyph-name="quotedblbase" unicode="&#x201e;" horiz-adv-x="933" 
d="M41 -291l105 101.5t58 64.5q34 46 34 94q0 8 -2.5 21t-6.5 27.5t-9 29.5t-10 27l-9 24l188 66q3 -3 9 -8t21 -20q17 -17 26 -30q11 -15 20.5 -36.5t9.5 -40.5q0 -73 -81 -163q-82 -91 -294 -233zM377 -291q64 60 104.5 101.5t57.5 64.5q34 46 34 94q0 8 -2.5 21
t-6.5 27.5t-9 29.5l-9 27l-9 24l188 66q3 -3 9 -8t21 -20q17 -17 26 -30q11 -15 20.5 -36.5t9.5 -40.5q0 -73 -81 -163q-82 -91 -294 -233z" />
    <glyph glyph-name="dagger" unicode="&#x2020;" horiz-adv-x="921" 
d="M164 897l26 180l318 -24l67 346l218 31l-119 -388l323 11l-55 -176l-311 16l-180 -782l-207 -41l225 833z" />
    <glyph glyph-name="daggerdbl" unicode="&#x2021;" horiz-adv-x="921" 
d="M47 442l27 181l313 -25l82 305l-305 -6l26 180l318 -24l67 346l218 31l-119 -388l323 11l-55 -176l-311 16l-70 -305l320 10l-56 -176l-299 14l-75 -325l-207 -41l102 379z" />
    <glyph glyph-name="bullet" unicode="&#x2022;" horiz-adv-x="839" 
d="M164 383q0 73 30 136t79 104q48 41 108 63.5t121 22.5q100 0 168 -56q67 -57 67 -166q0 -97 -51 -173q-52 -78 -127 -115q-77 -39 -160 -39q-100 0 -167 57q-68 56 -68 166z" />
    <glyph glyph-name="ellipsis" unicode="&#x2026;" horiz-adv-x="1308" 
d="M123 98q0 54 44 92q43 37 101 37q27 0 50.5 -8t41.5 -23t28.5 -36.5t10.5 -48.5q0 -56 -45 -92q-44 -37 -102 -37q-55 0 -92 31t-37 85zM532 98q0 54 44 92q43 37 102 37q27 0 50.5 -8t41.5 -23t28.5 -36.5t10.5 -48.5q0 -56 -45 -92q-44 -37 -102 -37q-27 0 -51 8
t-41.5 23t-27.5 36.5t-10 48.5zM942 98q0 54 44 92q43 37 101 37q53 0 93 -31q39 -32 39 -85q0 -56 -45 -92q-46 -37 -103 -37q-55 0 -92 31t-37 85z" />
    <glyph glyph-name="perthousand" unicode="&#x2030;" horiz-adv-x="1824" 
d="M102 29l1022 1425l78 -61l-1036 -1413zM129 809q0 99 42 206t106 187q32 40 67.5 73t75.5 59q77 52 147 52q95 0 126 -59q15 -29 20.5 -57.5t5.5 -67.5q0 -96 -35 -201q-36 -104 -93 -186q-59 -84 -137 -135q-80 -53 -161 -53q-164 0 -164 182zM270 844q0 -127 76 -127
q59 0 118 75q57 73 92 180q34 103 34 197q0 131 -78 131q-49 0 -106 -69q-57 -71 -96 -178q-40 -108 -40 -209zM582 164q0 99 42 206t106 187q32 40 67.5 73t75.5 59q77 52 147 52q96 0 126 -59q14 -29 19.5 -57.5t5.5 -67.5q0 -96 -35 -201q-36 -104 -93 -186
q-59 -84 -137 -135q-78 -53 -161 -53q-163 0 -163 182zM723 199q0 -127 76 -127q60 0 118 76q57 73 92 180q33 103 33 196q0 131 -77 131q-49 0 -106 -69q-57 -71 -96 -178q-40 -108 -40 -209zM1174 164q0 99 42 206t106 187q32 40 67.5 73t75.5 59q77 52 147 52
q96 0 126 -59q14 -29 19.5 -57.5t5.5 -67.5q0 -96 -35 -201q-36 -104 -93 -186q-59 -84 -137 -135q-78 -53 -161 -53q-163 0 -163 182zM1315 199q0 -127 76 -127q60 0 118 76q57 73 92 180q33 103 33 196q0 131 -78 131q-49 0 -106 -69q-57 -71 -96 -178q-39 -108 -39 -209z
" />
    <glyph glyph-name="guilsinglleft" unicode="&#x2039;" 
d="M123 406l393 352l57 -60l-243 -292l123 -285l-97 -55z" />
    <glyph glyph-name="guilsinglright" unicode="&#x203a;" 
d="M123 125l244 293l-123 284l96 56l233 -340l-393 -352z" />
    <glyph glyph-name="Euro" unicode="&#x20ac;" horiz-adv-x="1087" 
d="M20 451l41 88l144 4q5 36 18 82h-145l41 88l135 4q45 118 113 222.5t158 189.5t199.5 133.5t227.5 48.5q40 0 77.5 -6.5t76.5 -21.5q38 -15 61 -45.5t23 -72.5q0 -71 -56 -133q-57 -62 -135 -96l-53 59q94 87 94 168q0 35 -29 50.5t-71 15.5q-70 0 -137.5 -41.5
t-124.5 -113.5q-115 -145 -180 -351l333 10l-34 -108h-326q-4 -15 -7 -34t-7 -42l317 10l-35 -108h-293q-1 -8 -1.5 -20.5t-0.5 -29.5q0 -276 193 -276q44 0 97 18.5t98 44.5t84 52t61 44l22 19l39 -47l-12 -12.5l-15 -16.5q-13 -16 -72 -67q-56 -48 -111 -84
q-56 -36 -135 -66q-80 -30 -154 -30q-181 0 -266 106q-87 105 -87 287q0 26 1 45t3 33h-170z" />
    <glyph glyph-name="afii61352" unicode="&#x2116;" horiz-adv-x="2048" 
d="M-627 -139q76 -21 140 -21q55 0 117.5 28t128.5 82t135 132t138 179q70 101 139.5 226.5t141.5 277.5t137 318.5t125 350.5h197l31 -1049l25.5 87t26.5 84q26 80 75 199q24 60 48 112.5t50.5 102.5t57 99t67.5 102q73 102 152.5 172.5t182.5 116.5q103 45 214 45
q77 0 164 -28l-70 -187q-77 21 -139 21q-57 0 -111.5 -15.5t-107 -49.5t-105.5 -87t-107 -128q-109 -150 -221.5 -405.5t-234.5 -625.5h-166l-24 1192q-51 -183 -104.5 -339t-110.5 -290q-270 -634 -604 -832q-142 -85 -293 -85q-77 0 -164 28zM1028 229q0 51 11 102
t31.5 99t49.5 93t64 84q71 78 157.5 138.5t180.5 94.5l30 -64q-117 -83 -199 -221q-83 -140 -83 -272q0 -64 31 -110q31 -48 100 -48q42 0 90.5 24t97.5 72t88 127.5t54 179.5q-84 24 -125 77t-41 104q0 53 40 92q39 39 95 39q45 0 79 -17.5t57.5 -49.5t35.5 -77t12 -100
q0 -102 -49 -210q-50 -112 -129 -199q-78 -89 -191 -148q-109 -59 -223 -59q-130 0 -197 76q-67 74 -67 173z" />
    <glyph glyph-name="trademark" unicode="&#x2122;" horiz-adv-x="1050" 
d="M41 1278q0 54 24.5 90.5t70.5 54.5q46 17 95.5 24t118.5 7q215 0 367 -51l-15 -45q-90 25 -174 33q-1 -2 -7.5 -18l-17.5 -45l-23 -57.5l-21 -54.5q-11 -27 -22 -57.5l-24 -64.5q-26 -69 -44 -126t-23 -89h-113q24 110 183 518q-40 0 -76.5 -2t-83.5 -9t-82 -21
q-34 -13 -58 -37t-24 -56q0 -22 22 -34.5t54 -12.5q22 0 50 9.5t46 18.5l17 9l30 -37q-57 -64 -155 -64q-25 0 -46 9.5t-36.5 25.5t-24 37t-8.5 45zM178 827q30 -12 64 -12q30 0 77 19t95 59q65 55 125 132q31 38 56.5 75.5t47.5 74.5q43 72 77.5 136.5t51.5 103.5l16 39
h115l-78 -317l148 274h139l-172 -532h-111l113 344l-194 -344h-93l90 344q-15 -29 -31 -56.5l-34 -56t-39.5 -59.5l-48.5 -67q-27 -35 -54 -66t-53 -57q-27 -26 -57.5 -48.5t-63 -39.5t-65 -26.5t-63.5 -9.5q-47 0 -86 11z" />
    <glyph glyph-name="afii10020" unicode="&#x413;" horiz-adv-x="1218" 
d="M434 828q56 -7 118 15.5t120.5 61t108.5 87.5t82 95l67 -23q-57 -106 -135.5 -182.5t-163.5 -124.5t-167.5 -67.5t-148.5 -11.5q-78 9 -127 32t-75 54.5t-31 70.5t5.5 81t35.5 85t58 83t72.5 74.5t80.5 59.5q77 47 168.5 82t194.5 59q110 26 227 40t238 18l28 81h231
l-30 -82q176 -8 337 -35.5t290 -70.5l-64 -74q-56 19 -123.5 35.5t-143.5 28.5t-159 19.5t-169 9.5l-306 -837q-41 -111 -94 -205t-123 -163t-159.5 -108t-201.5 -39q-115 0 -195 62q-79 61 -79 170q0 100 59 177q60 75 129 112l49 -37q-65 -113 -65 -236q0 -29 8 -55.5
t23 -47.5t37.5 -34t52.5 -14q60 -2 112.5 26.5t96.5 81.5q17 21 34 48t38 74t48 119t64 183l243 716q-103 -8 -202.5 -24.5t-191.5 -44.5q-83 -26 -156.5 -60.5t-133.5 -79.5q-26 -20 -47.5 -46.5t-35.5 -55.5t-18.5 -58t2.5 -54t28 -44t59 -27z" />
    <glyph glyph-name="afii10089" unicode="&#x447;" horiz-adv-x="911" 
d="M61 885q0 19 6.5 36.5t19 30.5t29.5 21t38 8q28 0 57.5 -11.5t57.5 -31t53 -46t45 -56.5q71 -2 140.5 -11.5t125 -31.5t89.5 -57.5t34 -90.5q0 -26 -10 -57.5t-25 -64.5t-33.5 -64t-36.5 -55q-19 -26 -38 -55.5t-34.5 -58t-24.5 -54t-9 -43.5q0 -68 88 -68q101 0 216 58
q58 29 114 67.5t110 87.5l43 -53q-51 -52 -109 -98.5t-137 -96.5q-79 -51 -172.5 -80.5t-187.5 -29.5q-197 0 -197 155q0 29 9 65t23.5 73.5t33 74.5t38.5 67q18 28 36 59.5t33 61t24.5 55t9.5 40.5q0 59 -104 80q2 -16 3 -29t1 -23q0 -29 -12 -68t-38 -87t-67 -103.5
t-98 -115.5l-45 53q49 54 81 97t50.5 79t25.5 67.5t7 61.5q0 42 -21 86q-51 8 -95.5 18.5t-77 28t-51 44t-18.5 65.5z" />
    <glyph glyph-name="afii10067" unicode="&#x432;" horiz-adv-x="890" 
d="M82 215q0 75 10.5 153.5t29 156.5t44.5 152t58 140q32 67 69 130.5t79 123.5q85 120 172.5 203t178.5 132q90 48 164 48q72 0 108.5 -35t36.5 -98q0 -142 -99 -290q-99 -149 -306 -339q53 -11 88 -62q35 -52 35 -118q111 0 241 47t215 117l23 -53q-78 -74 -210 -132
q-67 -29 -136 -47.5t-142 -25.5q-17 -81 -61.5 -159t-107.5 -141q-32 -31 -68.5 -56.5t-76 -43.5t-81 -28t-82.5 -10q-182 0 -182 235zM309 211q0 -86 58 -86q89 0 166 93q78 93 88 198q-32 4 -59.5 15t-48.5 28t-34 40t-14 52l-125 -107q-31 -125 -31 -233zM373 567
q73 64 138 130t123 135q57 69 100.5 128.5t73.5 113.5q60 106 90 182.5t30 115.5q0 8 -6 13.5t-13 5.5q-66 0 -169 -121q-104 -122 -204 -315q-101 -192 -163 -388z" />
    <glyph glyph-name="afii10069" unicode="&#x434;" horiz-adv-x="966" 
d="M20 197q0 179 105 337q104 156 260 236q-100 148 -100 344q0 147 73 244q73 96 197 96q82 1 147.5 -40t111.5 -113t70 -170t23 -211q0 -78 -9 -156.5t-28 -157.5q10 -2 25 -2q94 0 189 18q93 18 142 36l48 18l20 -53l-9 -4.5t-14 -6.5l-23.5 -10l-36.5 -15
q-23 -10 -46 -17.5l-46 -14.5t-51 -13.5t-59 -12t-62 -8.5t-60 -3h-41q-77 -243 -234 -390q-157 -148 -354 -148q-54 0 -98 14.5t-75 42.5t-48 68.5t-17 91.5zM256 260q0 -61 25.5 -98t76.5 -37q61 0 113.5 34t91.5 95q78 120 115 297q-120 40 -209 123q-45 -40 -82.5 -89
t-68.5 -107q-62 -116 -62 -218zM414 1198q0 -149 83 -289t201 -227q15 130 15 201q1 84 -17.5 164.5t-49.5 143.5t-72 100.5t-85 35.5q-75 0 -75 -129z" />
    <glyph glyph-name="afii10030" unicode="&#x41c;" horiz-adv-x="2558" 
d="M2117 1057l-26.5 -44l-47 -77l-61 -99l-67.5 -110l-66.5 -109l-59 -96l-44.5 -72.5l-23 -37.5l-52.5 -87.5l-59.5 -100.5l-63.5 -110l-64.5 -114h-182l289 1198q-46 -118 -105 -246t-128 -257.5t-147.5 -255t-163.5 -237.5t-176.5 -205.5t-186.5 -158.5
q-88 -60 -185.5 -92t-188.5 -28q-85 4 -143 37.5t-90 85t-37.5 113t15 121.5t67.5 111t119 81l61 -40q-18 -32 -35 -70t-27 -76.5t-11 -75t13 -66t45.5 -49.5t85.5 -25q77 -7 150 16t142 69t134 113t125 148q75 101 162 231t172 278t160 308t125 322h-219q-91 -2 -137 -46
t-41 -120q2 -28 12 -49t23.5 -35.5t27 -23t21.5 -12.5l9 -3l-16 -50q-57 2 -109 18t-94 55t-45 96q-4 67 27 116t89 76q57 26 119.5 38.5t134.5 14.5l545 1l-220 -898l449 797h286l-94.5 -389l-73.5 -291.5l-55 -207.5l-37.5 -137l-21.5 -79.5t-7 -35.5q0 -56 60 -53
q328 9 552 230l44 -52q-130 -128 -330 -224q-202 -98 -416 -104q-36 -1 -65.5 8.5t-51 28.5t-33 45t-11.5 58q0 33 14.5 96.5t48.5 164.5z" />
    <glyph glyph-name="afii10037" unicode="&#x423;" horiz-adv-x="1364" 
d="M1006 522q-29 -32 -67.5 -60t-80.5 -50t-84 -34.5t-78 -12.5q-35 0 -64 12t-50 33t-33 50t-12 64q-1 33 8 75t26 93l125 379q24 73 35 126.5t12 88.5q0 51 -24 72.5t-78 21.5q-43 0 -84 -16.5t-78 -44t-68.5 -63t-54.5 -73.5t-36 -75t-13 -68q0 -36 10 -61.5t23.5 -42
t28 -25.5t23.5 -13l9 -3l-18 -49q-2 0 -23 1.5t-51 7t-64 16.5t-63.5 30.5t-49 49t-19.5 71.5q0 114 82 214q81 99 220 159q141 59 298 59q126 0 196 -41.5t70 -140.5q0 -28 -3 -53.5t-10.5 -55t-20 -67.5l-30.5 -90l-108 -316q-15 -44 -22 -72.5t-7 -42.5q0 -55 43 -55
q38 0 81 27.5t84 74.5t76 109t56 131l158 518h258q-62 -157 -161 -441.5l-236 -705.5q-40 -111 -91 -205.5t-119 -163.5t-155.5 -107.5t-199.5 -38.5q-115 0 -195 62q-79 61 -79 170q0 100 59 177q60 75 129 112l49 -37q-65 -113 -65 -236q0 -29 8 -53.5t23 -43t37.5 -29
t52.5 -11.5q54 -1 98 23t80 68t64 104t51 131q13 24 24 56t24.5 76.5l30.5 102t43 132.5z" />
    <glyph glyph-name="afii10021" unicode="&#x414;" horiz-adv-x="1897" 
d="M534 956q0 88 38 173.5t111.5 152.5t181 107.5t246.5 38.5q88 -2 167.5 -22.5t151.5 -56.5q52 35 110.5 64.5t124.5 56.5l18 -65q-89 -53 -155 -115q78 -55 140.5 -125.5t106.5 -150.5t67.5 -165.5t23.5 -170.5q0 -87 -16.5 -173t-49.5 -164t-82 -145t-114.5 -115.5
t-147 -76.5t-178.5 -28q-41 0 -83 10t-85 26.5t-86 39l-87 47.5l-12 6q-14 -13 -29 -23q-86 -74 -190.5 -116t-221.5 -42q-113 0 -195.5 21t-136.5 57t-80 84t-26 102q0 48 21 90.5t61 74.5t97.5 50.5t131.5 18.5q69 0 131.5 -12.5t122 -33t117 -47.5l115.5 -57
q24 44 44.5 91t38.5 98q-77 34 -148 80.5t-125 107.5t-86.5 137.5t-32.5 169.5zM1385 426l-9 -63q-45 -2 -109 5t-137 25q-25 -54 -54 -103.5t-64 -94.5q82 -28 159 -33q109 -7 198 33t153 119.5t100.5 196t39.5 262.5q1 75 -13 140.5t-40.5 122t-63.5 103t-81 83.5
q-42 -51 -74 -106.5t-58 -116.5t-47 -127.5t-40 -138.5q-17 -63 -36.5 -128.5t-45.5 -132.5q61 -18 118 -31t104 -15zM1118 1351q-112 -12 -188.5 -60.5t-119 -119t-52 -155.5t11.5 -170q25 -101 74 -171t115 -116l34.5 111.5l35.5 110.5q55 168 134 293.5t192 218.5
q-57 29 -117.5 43.5t-119.5 14.5zM432 313q-46 0 -82.5 -11t-61.5 -30t-38 -44t-13 -53q0 -30 16.5 -58.5t50.5 -52t86.5 -38t123.5 -15.5q91 17 157 63t117 112l-87 48.5t-87 40.5t-89 27.5t-93 10.5z" />
    <glyph glyph-name="afii10073" unicode="&#x437;" horiz-adv-x="902" 
d="M398 568q-13 0 -21.5 -2.5t-16.5 -6.5l-17.5 -9t-24.5 -11l-49 75q1 0 19 6.5t45.5 19t62 30.5t69.5 42q28 19 54.5 42.5t48.5 52t37.5 62t21.5 72.5q1 24 -10.5 37t-29.5 17t-39 1.5t-39 -8.5q-27 -8 -63 -26t-76.5 -45t-84.5 -62t-87 -77h-71l82 331h148l-84 -178
q50 50 107 91q24 18 52.5 35t59.5 32t64 25.5t67 14.5q42 3 85.5 0.5t78.5 -17.5t57 -45.5t20 -82.5q3 -50 -29 -101t-84 -97t-116.5 -83.5t-127.5 -60.5q46 1 95.5 -6t91 -29.5t68 -64.5t27.5 -109q-5 -81 -39.5 -158t-94.5 -140q52 20 114 47.5t123 59.5q56 29 105 60.5
t83 60.5l43 -53q-33 -35 -87.5 -73t-122 -75.5t-144.5 -71.5t-155 -59q-158 -51 -300 -51q0 1 -2 2t-8.5 1h-20h-36.5q-56 0 -100.5 21t-73.5 54.5t-40.5 76.5t-1.5 86.5t43.5 84.5t93.5 71l51 -28q-30 -49 -40.5 -101t-2.5 -95t33 -69.5t65 -23.5q60 4 111.5 38.5t89 85.5
t58.5 113t20 123q0 30 -10.5 58.5t-28.5 50t-42.5 34t-52.5 12.5z" />
    <glyph glyph-name="afii10070" unicode="&#x435;" horiz-adv-x="833" 
d="M31 229q0 91 36.5 183.5t99.5 167.5q61 74 137 135q75 60 156.5 92.5t153.5 32.5q54 0 94.5 -13t66.5 -36t39 -54t13 -67q0 -71 -41 -130q-30 -43 -77.5 -74.5t-106.5 -52.5t-126.5 -31.5t-137.5 -10.5q-17 0 -29 0.5t-20 1.5q-13 -52 -13 -92q0 -38 9.5 -67t32 -48.5
t59.5 -30t92 -10.5q78 0 159 22t145 54q63 32 114.5 62.5t79.5 52.5l28 22l43 -53l-16.5 -14l-21.5 -19q-13 -11 -38.5 -29l-63.5 -44q-39 -26 -78 -49.5t-77 -43.5q-76 -40 -187 -73q-110 -33 -210 -33q-83 0 -142.5 17t-97.5 49.5t-56.5 78.5t-18.5 104zM322 463
q8 -1 20 -1.5t29 -0.5q75 0 136 21.5t97 55.5q35 33 53.5 71t18.5 75q0 64 -53 64q-78 0 -163 -85q-86 -86 -138 -200z" />
    <glyph glyph-name="afii10074" unicode="&#x438;" horiz-adv-x="1075" 
d="M41 166q0 57 27 137l180 516h235l-198 -518q-19 -47 -19 -88q0 -46 24 -67t58 -21q151 0 281 385l104 309h238l-148 -399q-32 -88 -49.5 -141.5t-21.5 -73.5q-1 -7 -1.5 -12.5t-0.5 -10.5q0 -57 49 -57q192 0 438 213l43 -53q-329 -305 -604 -305q-66 0 -101.5 34.5
t-35.5 83.5q0 44 24 115q-52 -99 -142 -166q-91 -67 -188 -67q-42 0 -77.5 12t-61 35t-39.5 58t-14 81z" />
    <glyph glyph-name="afii10081" unicode="&#x43f;" horiz-adv-x="1122" 
d="M0 0l291 819h231l-178 -475q279 496 510 496q52 0 79.5 -33t27.5 -84q0 -42 -23 -111l-111 -303q-34 -89 -34 -127q0 -57 49 -57q94 0 213 57q117 55 229 156l43 -53q-320 -305 -596 -305q-90 0 -132 43.5t-42 111.5q0 73 49 205l105 289q4 11 4 16q0 12 -10 12
q-61 0 -189 -179q-127 -178 -287 -478h-229z" />
    <glyph glyph-name="afii10083" unicode="&#x441;" horiz-adv-x="833" 
d="M31 229q0 105 55 214q56 112 141 197q85 87 195 144q110 56 213 56q94 0 147.5 -42t53.5 -124q0 -40 -17.5 -75t-45 -60.5t-61.5 -40.5t-67 -15l-27 72q12 1 26.5 10t27 25.5t20.5 40.5t8 55q0 28 -15 45t-44 17q-42 0 -85 -22t-83.5 -59.5t-76.5 -86t-62.5 -101.5
t-42 -106.5t-15.5 -100.5q0 -70 44.5 -108.5t138.5 -38.5q39 0 80.5 6t82 16.5t79 24t70.5 29.5q64 32 116 62.5t80 52.5l28 22l43 -53q-3 -3 -37.5 -33t-97 -72t-150 -87.5t-196.5 -79.5q-55 -17 -107.5 -25t-103.5 -8q-160 0 -237.5 64t-77.5 185z" />
    <glyph glyph-name="afii10085" unicode="&#x443;" horiz-adv-x="970" 
d="M-31 -395q-2 21 7.5 42.5t27.5 42t42.5 40t52.5 37.5q17 11 41 24t53 27l56 27l51 24q23 11 54 24.5l69 30.5q8 4 13.5 6t9.5 4l66 199q-28 -35 -61 -63t-69 -48t-74 -31t-75 -11q-42 0 -77.5 12t-61 35t-39.5 58t-14 81q0 57 27 137l180 516h235l-198 -518
q-19 -47 -19 -88q0 -46 24 -67t58 -21q40 0 78.5 26.5t74 76t67.5 120.5t61 160l100 311h238l-279 -772q277 142 445 291l43 -53q-163 -151 -521 -326l-34 -98q-141 -393 -441 -393q-48 0 -86.5 9.5t-66.5 27.5t-43 43.5t-15 56.5zM127 -393q0 -27 20.5 -47.5t55.5 -20.5
q53 0 102 67q50 68 111 236q-143 -72 -216 -126.5t-73 -108.5z" />
    <glyph glyph-name="afii10086" unicode="&#x444;" horiz-adv-x="1340" 
d="M1118 821q103 0 159.5 -57.5t56.5 -157.5q0 -148 -86 -291q-28 -46 -63 -87t-77 -78q-5 -5 -9 -8.5t-8 -7.5q55 18 125 49t139 67q56 29 105 60.5t83 60.5l43 -53q-33 -35 -87.5 -73t-122 -75.5t-144.5 -71.5t-155 -59q-38 -12 -80 -23.5t-84.5 -19t-84 -10t-78.5 3
t-67.5 21t-51.5 42.5l-219 -565h-127l213 627q-55 -63 -122.5 -99t-139.5 -36q-103 0 -159.5 57.5t-56.5 157.5q0 148 86 291q28 46 63 87t77 78q45 43 93 74.5t95.5 52t92.5 30.5t84 10q77 0 103 -57l1 -2l229 675h205l-284 -738q54 59 119 92t134 33zM751 75q31 0 70 21.5
t78.5 58t75 84t59.5 99.5q26 57 40.5 111t13.5 106q0 121 -84 121q-151 0 -281 -385l-43 -110q-4 -42 5 -63.5t22 -31t26 -10.5t18 -1zM609 630q19 34 19 65t-25 31q-31 0 -70 -21.5t-78.5 -58t-75 -84t-59.5 -99.5q-26 -57 -40.5 -111t-13.5 -106q0 -121 84 -121
q151 0 281 385l40 119l-4 1h-58z" />
    <glyph glyph-name="afii10087" unicode="&#x445;" horiz-adv-x="874" 
d="M-47 0l321 373l-67 239q-11 38 -22.5 59t-37.5 25q-26 0 -63 -20l-41 53l23.5 21.5t19 16t20.5 15l27 18.5q59 40 133 40q57 0 88 -31q31 -32 53 -115l35 -127l248 287l152 -78l-355 -375l43 -155q17 -61 45 -87t74 -26q28 0 58.5 5.5t59.5 15.5t56.5 23.5t50.5 28.5
q46 30 84 60t58 51l20 21l43 -53q-11 -12 -27 -33q-16 -19 -75 -73q-57 -53 -117 -93q-58 -39 -149 -73q-90 -33 -177 -33q-51 0 -87 16t-60 51q-23 33 -37 69q-7 17 -14 39t-15 50l-4 16l-209 -221h-155z" />
    <glyph glyph-name="afii10033" unicode="&#x41f;" horiz-adv-x="1568" 
d="M1454 1282h233l-399 -1282h-235l295 942q-63 -60 -149.5 -103.5t-188.5 -74.5l-106 -324l-76.5 -225.5l-50 -142t-25.5 -72.5h-233l233 712q-119 -13 -232 -6.5t-204 32.5t-150.5 72t-70.5 113q-12 74 33 158.5t140 162.5t237 140t324 92q127 20 260.5 28t263 6
t249.5 -11t221 -22.5t178 -29.5t119 -30l-78 -165q-22 17 -84 40.5t-152.5 46t-204 41.5t-238 28.5t-254 6.5t-251.5 -25q-129 -23 -226.5 -69.5t-160 -105t-89 -122t-14.5 -118.5q12 -54 50 -90t94 -55t126 -22.5t147 6.5l146 446l251 51l-71 -226.5l-63 -199.5
q64 26 123.5 59t109 72.5t87.5 84.5t59 94z" />
    <glyph glyph-name="afii10039" unicode="&#x425;" horiz-adv-x="1653" 
d="M742 1356q-81 -11 -160 -47.5t-146.5 -91.5t-119 -125t-76.5 -148q-10 -30 -16.5 -61t-3 -57t20 -44.5t52.5 -22.5q56 7 112 43.5t104.5 88t86.5 110.5t58 111l69 -6q-20 -78 -55 -145t-79.5 -123t-95.5 -100t-104 -75t-105 -48.5t-98 -19.5q-57 -3 -91 21.5t-47 68
t-6.5 102t31.5 122.5q42 111 124 210t188.5 173.5t228.5 118t245 43.5q207 0 207 -223q0 -1 -0.5 -11l-2 -40t-3.5 -85.5t-5 -148.5l332 488h221l-555 -643v-328q0 -92 12.5 -156t37 -104.5t60.5 -59t83 -18.5q166 0 459 213l45 -53q-108 -114 -291 -209q-183 -96 -334 -96
q-68 0 -124 20t-97 67.5t-63.5 126.5t-22.5 197v101l-303 -492h-211l518 666q18 541 18 551q0 40 -6 67t-18.5 43t-31 22.5t-42.5 6.5z" />
    <glyph glyph-name="afii10065" unicode="&#x430;" horiz-adv-x="1079" 
d="M20 186q0 69 17 134t47 123t70 109t86 93q45 43 95 76.5t99.5 56.5t96 35t85.5 12q77 0 103 -57l18 51h230l-179 -493q-30 -84 -30 -138q0 -30 18 -46.5t51 -16.5q113 0 250 86q39 25 80 56.5t84 70.5l43 -53q-61 -64 -130 -117.5t-148 -98.5q-158 -89 -318 -89
q-90 0 -132 43.5t-42 111.5q-128 -155 -287 -155q-99 0 -152 59q-55 58 -55 147zM262 246q0 -54 20 -87.5t56 -33.5q32 0 71 16.5t84 70.5q27 34 58 95.5t59 143.5l62 186h-58q19 34 19 65t-25 31q-44 0 -106 -44q-61 -43 -114 -113q-53 -68 -89 -158q-37 -87 -37 -172z" />
    <glyph glyph-name="afii10022" unicode="&#x415;" horiz-adv-x="934" 
d="M665 877q42 9 91.5 33t99 57.5t95 74t81 81.5t56.5 81t21 72q0 39 -50 39q-29 0 -76 -14.5t-104.5 -40t-121 -61.5t-126 -79.5t-119.5 -93t-100.5 -102t-70 -107t-28.5 -108.5q-1 -29 9.5 -49.5t30.5 -33.5t47.5 -19t60.5 -6q45 0 92 11.5t96 36.5l-39 -132
q-74 -18 -116 -33t-66 -29q-41 -26 -71 -55.5t-49.5 -59.5t-29 -58.5t-9.5 -51.5q0 -57 42.5 -83.5t108.5 -26.5q55 0 120 17t130.5 49.5t125 78.5t103.5 103l50 -55q-57 -72 -134.5 -136.5t-168.5 -113t-191 -79t-203 -34.5q-53 0 -92.5 13.5t-66 37.5t-40 57.5t-13.5 73.5
q0 47 22 99t60.5 101t91 89.5t114.5 64.5h-6q-54 0 -99 13.5t-77.5 40t-50.5 64.5t-18 87q1 99 49.5 196t128.5 185t182.5 163.5t211.5 130.5t215 86t194 31q83 0 126.5 -42.5t43.5 -115.5q0 -99 -43.5 -189.5t-118 -161.5t-172.5 -116.5t-207 -54.5z" />
    <glyph glyph-name="afii10102" unicode="&#x455;" horiz-adv-x="1559" 
d="M792 988q-102 -61 -219 -59q-115 2 -172 57t-50 155q6 78 51.5 135.5t128 95.5t200 55t267.5 15q73 -2 146 -8t147 -17t129 -21.5t92 -20.5l75 -21l-65 -101q-162 43 -406 47q-194 4 -333.5 -11t-213.5 -42q-74 -29 -107.5 -60.5t-35.5 -68.5q-4 -48 25.5 -71.5
t77.5 -24.5q203 -4 328 133l249 -5q-84 -134 -143 -259.5t-96 -233.5t-53.5 -192.5t-16.5 -136.5q0 -47 5 -92t18.5 -80t38.5 -57t66 -22q58 -3 119 28t109.5 91t78 147t25.5 197q-3 63 -19 100.5t-40.5 53.5t-53.5 13.5t-57.5 -18.5t-54 -43.5t-41.5 -60.5l-45 93
q46 54 95 86.5t98 48.5t96 18t89 -7q41 -9 73.5 -34.5t54.5 -64t34 -87t12 -102.5q0 -63 -21 -127.5t-58.5 -126t-88.5 -116t-110.5 -97t-125.5 -69.5t-133 -33q-120 -8 -202 18t-132 74t-72 112.5t-22 133.5q1 83 19 171.5t51.5 177t81 173.5t107.5 161z" />
    <glyph glyph-name="afii10024" unicode="&#x416;" horiz-adv-x="2400" 
d="M2182 715q-118 43 -275 58q-8 -26 -14.5 -51.5t-11.5 -50.5q-4 -17 -10.5 -47l-14 -68t-15 -80.5t-11.5 -84.5q-9 -87 5.5 -141t46.5 -82t78 -33t98.5 6t109 35t110 53.5t100 62t79.5 61.5l45 -53q-129 -124 -329 -214q-200 -91 -415 -91q-65 0 -102.5 28.5t-56 72.5
t-22 97.5t-0.5 103.5q3 45 13.5 100.5t28 118t42 130.5t55.5 137q-78 0 -159 -6l-254 -776h-178l220 752q-35 -6 -70.5 -13t-70.5 -15q-31 -103 -74 -208t-96.5 -204.5t-115.5 -190t-130 -165.5t-140.5 -130t-146.5 -84q-38 -15 -81.5 -27t-87 -18.5t-84.5 -6t-75.5 11.5
t-60 34t-36.5 61q-22 74 -11 149.5t48 149.5t97.5 146t138 140t169 130.5t190.5 117.5q72 40 146 72.5t149 58.5q25 115 35 218t3 182q-4 49 -17 91t-33.5 72.5t-46 46.5t-55.5 13q-52 -1 -102 -21t-94 -52t-81.5 -73t-64.5 -84.5t-42 -85.5t-15 -77q0 -41 11.5 -69t27 -46
t32 -28.5t27.5 -14.5l12 -3l-12 -55q-3 0 -26.5 1.5t-57.5 7.5t-73 18.5t-72.5 34.5t-55.5 54.5t-22 79.5q0 127 100 239q50 57 111.5 101t143.5 77q82 32 165 48.5t171 16.5q78 -1 133.5 -29.5t91.5 -77t53 -112.5t17 -135q0 -62 -9.5 -131.5t-27.5 -144.5q36 8 72 14
t71 11l171 583h227l-185 -565q43 2 85 1t84 -3q48 96 106.5 186.5t126.5 165t144.5 128t160.5 76.5q55 15 102 17t83.5 -10t61 -38t34.5 -66q11 -43 -4.5 -81t-48 -69.5t-78 -55.5t-94.5 -38l-34 50q13 4 34 14.5t40 29t29 45.5t1 64q-9 35 -41 46.5t-74 -0.5
q-67 -15 -123.5 -61t-103 -111.5t-83 -145t-64.5 -162.5q150 -21 279 -62zM583 451q-82 -65 -152.5 -138.5t-115.5 -150t-58.5 -152.5t19.5 -146q10 -23 32.5 -36t51 -15.5t62 5t66.5 24.5q82 43 156.5 126.5t137.5 193.5t113 238.5t84 260.5q-112 -39 -212 -91.5
t-184 -118.5z" />
    <glyph glyph-name="afii10036" unicode="&#x422;" horiz-adv-x="2083" 
d="M922 1195l253 50l-96.5 -267l-82.5 -227q128 12 259 44l150 424h232l-119 -340q86 35 160.5 79t132.5 96l47 143h244l-388 -1198l-252 1l297 898q-60 -43 -132 -79t-153 -65l-264 -754h-234l240 682q-129 -27 -260 -39l-101.5 -273l-71 -188.5l-45.5 -118.5l-25 -63h-232
l234 633q-123 1 -232.5 17.5t-193.5 47.5t-136 76.5t-60 106.5q-12 87 12 162t75.5 138t127.5 113t168 88q156 64 335.5 89t368 22.5t377.5 -26.5t364 -59t327.5 -75l268.5 -73l-54 -101q-65 23 -160 51t-209.5 55t-245 50.5t-268 39t-276.5 19.5t-271 -8t-252.5 -43.5
t-220.5 -86.5q-47 -26 -85.5 -57.5t-64 -68.5t-36.5 -80.5t-3 -94.5q7 -45 38.5 -78.5t82 -57.5t118 -37.5t146.5 -17.5z" />
    <glyph glyph-name="afii10041" unicode="&#x427;" horiz-adv-x="1949" 
d="M1205 1371q22 -32 30 -76t6.5 -91t-10.5 -93t-22 -81l-40.5 -118t-44.5 -142q-7 -24 -5 -47t12 -38.5t28.5 -20.5t45.5 7q44 18 87 58t82 92.5t74.5 112.5t64.5 118l39.5 104l33.5 87.5l25 64.5t15 37h244l-290 -777l-50 -130l-43 -117t-30.5 -91t-11.5 -52
q-1 -55 58 -55q329 0 559 213l43 -53q-133 -124 -337 -214q-203 -91 -419 -91q-36 0 -65.5 10.5t-50 30t-31.5 46t-10 58.5q1 33 17.5 96t53.5 163l21 56.5l29 78l35 94.5l39 106q-38 -44 -81.5 -82t-88.5 -66t-89 -43.5t-81 -15.5q-55 -6 -93.5 6t-61.5 35.5t-32.5 54
t-7.5 60.5q3 40 16.5 84.5t32 91l39 95t36.5 97.5q8 25 16.5 61t13.5 75.5t4 78t-11 69.5t-32 49.5t-60 18.5q-61 3 -120.5 -10t-115 -39t-105.5 -62.5t-91.5 -81t-72.5 -94.5t-48 -101q-9 -26 -10 -52t7 -48.5t26 -39t49 -23.5q51 -6 107.5 15.5t110 58.5t99.5 84t75 91
l61 -22q-52 -102 -124 -175.5t-149 -119.5t-153 -65t-136 -11q-94 12 -147 47.5t-71.5 84t-6 106t48.5 113.5q30 47 76 94t102.5 91.5t122 84t136 70.5t144.5 52t147 29q47 6 97 4.5t95.5 -12t83 -31t60.5 -53.5z" />
    <glyph glyph-name="afii10042" unicode="&#x428;" horiz-adv-x="2498" 
d="M1145 1404q82 -60 82 -208q0 -96 -38 -216q-38 -117 -93 -224l-21.5 -41l-33.5 -64l-33.5 -63.5l-20.5 -39.5q-28 -51 -51.5 -100.5t-41.5 -99.5q-19 -50 -32 -92.5t-13 -77.5q0 -55 43 -55q17 0 50.5 15.5t84.5 62t120.5 131.5t158.5 223l55.5 149.5l61.5 164.5l61 162
l55 144l42.5 110l23.5 60h244l-290 -777l-49 -129t-40.5 -115.5t-28 -89.5t-10.5 -51q0 -55 43 -55q17 0 57.5 22.5t97.5 77t128 145t149 227.5l55 147l58.5 156l57 151l50 132.5l38.5 100.5t22 54h244l-290 -777l-51 -133.5l-43 -119t-30 -91t-11 -49.5q0 -52 58 -52
q329 0 559 213l43 -53q-133 -124 -337 -214q-203 -91 -419 -91q-74 0 -115.5 40.5t-41.5 104.5q0 29 13 81t41 132q-68 -95 -134 -162.5t-124 -110.5t-104.5 -63t-75.5 -20q-39 0 -74 6.5t-61 24t-41 48.5t-15 79v9q1 25 8 60.5t26 93.5q-66 -88 -128.5 -149t-117 -98.5
t-98.5 -54.5t-72 -17q-40 0 -73.5 13t-57.5 37.5t-37.5 59t-13.5 76.5q0 40 8 84t22.5 88t33 87.5t39.5 82.5l17 32.5l27.5 52l27.5 53t18 34.5l46.5 89.5t42.5 87t37.5 89t31.5 96.5q27 100 27 195q0 76 -27.5 109.5t-81.5 33.5q-6 0 -12 0.5t-13 0.5q-87 0 -171 -33
t-155 -87t-124 -124t-78 -145q-10 -29 -10 -59q0 -19 5.5 -38t18 -34t32.5 -24t48 -9q49 0 103 23.5t104 59.5t92.5 80.5t70.5 86.5l61 -22q-48 -95 -114 -165t-137 -116t-143 -69t-132 -23h-19t-17 2q-61 8 -104.5 26t-71.5 43.5t-41 57t-13 66.5q0 47 24 100t66.5 107
t101 106.5t128.5 98.5t149 83t161 60q43 12 105.5 19t127.5 5.5t124 -13.5t95 -38z" />
    <glyph glyph-name="afii10044" unicode="&#x42a;" horiz-adv-x="1454" 
d="M783 81q43 -2 88.5 13.5t88.5 46.5t81 76.5t66.5 103t45 127t15.5 147.5q-1 67 -17 107.5t-42 58t-58 15.5t-64.5 -19t-61.5 -46t-49 -65l-47 81q53 58 108 94t108 54t104 20t97 -7t81 -36t58.5 -67.5t34.5 -92t10 -110.5q-2 -67 -27 -136.5t-67.5 -134.5t-99.5 -123.5
t-124 -104t-140 -74.5t-148 -36q-120 -9 -205.5 14.5t-140 69.5t-79 109t-21.5 132q-4 75 13.5 161t50.5 175.5t80.5 179.5t103.5 172t119 153.5t128 124.5q-19 4 -55 9t-81 9.5t-94 8t-94.5 4.5t-83.5 -1t-60 -9q-53 -17 -85.5 -44.5t-49.5 -59t-22.5 -64t-5.5 -59.5
q0 -42 10.5 -73.5t25.5 -54t31 -36t26 -19.5l11 -5l-18 -49q-91 0 -182 84t-91 182q-1 76 35 137.5t98 104t143.5 64.5t170.5 20q6 2 29.5 1t58 -5t76.5 -10t86 -14t86 -17.5t76 -19.5q14 42 45.5 67.5t71.5 35t82.5 2.5t78.5 -30q49 -31 49 -80q0 -57 -52.5 -85t-169.5 -28
q-60 -67 -106 -135.5t-81 -137.5q-51 -100 -90 -202.5t-63 -199t-31.5 -181.5t4 -149t44 -102.5t87.5 -41.5z" />
    <glyph glyph-name="afii10046" unicode="&#x42c;" horiz-adv-x="1356" 
d="M620 707q-41 -120 -59 -231.5t-10.5 -198t42.5 -139.5t101 -57q43 -2 88.5 13.5t88.5 46.5t81 76.5t66.5 103t44.5 126.5t16 148q-1 67 -17 107.5t-42 58t-58 15.5t-64.5 -19t-61.5 -46t-49 -65l-47 81q53 58 108 94t108 54t104 20t97 -7t81 -36t58.5 -67.5t34.5 -92
t10 -110.5q-2 -67 -27 -136.5t-67.5 -134.5t-99.5 -123.5t-124 -104t-140 -74.5t-148 -36q-132 -6 -221 22t-142 81t-74 126t-19 156.5t24 172t56 173.5q2 6 13 35.5l28.5 76.5l40.5 109l49 133l54 148l56 154h-99q-91 0 -139.5 -43t-48.5 -119q0 -28 9 -49t21.5 -36
t25.5 -24t21 -13l9 -3l-19 -49q-57 3 -108 20t-91 57t-40 97q0 67 34.5 115.5t93.5 73.5t122 36t135 11h361z" />
    <glyph glyph-name="afii10045" unicode="&#x42b;" horiz-adv-x="2132" 
d="M1751 1226q2 2 3 4l-1 -4h242l-234 -639l-45.5 -130l-38.5 -117t-27 -91t-10 -52q1 -55 60 -55q330 0 551 213l45 -53q-129 -124 -329 -214q-200 -91 -415 -91q-36 0 -66 10.5t-51.5 30t-33.5 46t-12 58.5q0 33 14.5 96t47.5 163q13 40 37.5 109.5l54.5 152l62 170.5
l61 166q-46 -43 -106.5 -76t-125.5 -56.5t-129.5 -38t-117.5 -20.5q39 -42 59 -96t27.5 -106.5t6.5 -97t-4 -69.5q-12 -84 -54.5 -165t-114 -146t-172 -107t-229.5 -48q-132 -6 -220 22t-138.5 81t-69 126t-13 156.5t31 172t62.5 173.5q2 6 14.5 35.5l31.5 76.5l44.5 109
l54.5 133l60 148l62 154h-99q-91 0 -141 -43t-53 -119q-2 -28 6.5 -49t20.5 -36t24.5 -24t20.5 -13l9 -3l-21 -49q-57 3 -107.5 20t-88.5 57q-39 40 -36 97q2 67 38.5 115.5t96.5 73.5t123.5 36t135.5 11h361l-296 -727q-30 -80 -51 -158t-31.5 -148t-9 -130t16 -104
t43 -70.5t72.5 -28.5q72 -4 131.5 21t105.5 72.5t78.5 114.5t50.5 148q10 46 13 98t-4.5 99t-25.5 84t-49 54q-62 -4 -95 9t-43 34t0 45t34 42.5t60 27t77 -2.5q12 -4 22.5 -7t19.5 -7q35 -2 87.5 -0.5t115.5 11t132.5 30.5t137 58t130 92t112.5 133q0 1 0.5 1t0.5 1z" />
    <glyph glyph-name="afii10047" unicode="&#x42d;" horiz-adv-x="1149" 
d="M394 -9q-62 5 -116 25.5t-92 54t-56 78t-9 97.5q8 43 31 79.5t54 65.5t67 50t71 33l51 -37q-63 -57 -84.5 -119.5t-10.5 -115.5t50 -89t98 -40q17 -2 27.5 -1t27.5 3q80 12 145 64.5t116 131t89 176.5t64 202l-490 -35l48 122l460 -5q15 74 24 145.5t12.5 136t2 119
t-8.5 94.5q-6 34 -21.5 63t-38 50t-52 31.5t-63.5 9.5q-63 -3 -125.5 -31t-117 -70.5t-98 -94.5t-67.5 -104q-12 -26 -21.5 -53.5t-9.5 -51.5t13 -42t46 -24q52 2 107.5 28.5t105.5 66.5t91 88.5t65 94.5l64 -10q-41 -103 -108 -180.5t-143.5 -128.5t-154.5 -76.5
t-142 -23.5q-53 1 -84 26t-41.5 65.5t-0.5 92.5t40 108q42 81 111.5 154.5t155.5 128t182.5 85t194.5 26.5q78 -7 136 -40t98 -85t63 -119.5t32 -144t5 -158.5t-19 -162q-21 -110 -56.5 -211t-85.5 -188t-115 -156.5t-144 -116.5t-172.5 -69t-200.5 -13z" />
    <glyph glyph-name="afii10048" unicode="&#x42e;" horiz-adv-x="1840" 
d="M1648 1333q64 -2 117 -22t91 -56t59 -87.5t21 -115.5q0 -93 -19 -194t-54.5 -202.5t-86 -199.5t-113 -184.5t-135 -157.5t-153.5 -119q-124 -70 -246 -69q-85 0 -140 30t-87.5 79.5t-45.5 113.5t-13 133q0 42 3 84t10 85h-216l-288 -733h-172l253 733h-163l41 88l154 2
l261 756h-198q-91 0 -139.5 -43t-48.5 -119q0 -28 9 -49t21.5 -36t25.5 -24t21 -13l9 -3l-19 -49q-57 3 -108 20t-91 57t-40 97q0 67 34.5 115.5t93.5 73.5t122 36t135 11h450l-326 -826l198 3q17 72 41 140t55 132q25 52 59.5 110.5t74.5 115.5t83.5 108t85.5 88
q168 149 376 228l8 -61q-86 -34 -175 -120q-66 -65 -118 -139.5t-92.5 -155.5t-70.5 -167.5t-53 -177.5q-12 -51 -21 -97l156 3l-35 -104h-137q-4 -35 -5.5 -68.5t-1.5 -65.5q0 -46 4 -90t17.5 -78.5t40 -56t71.5 -21.5q42 0 86 26.5t86.5 72.5t81.5 108.5t71 134.5
q28 63 54 135.5t46 148t32 149.5t12 140q0 58 -4.5 108.5t-15.5 88.5t-29.5 62t-46.5 29z" />
    <glyph glyph-name="afii10076" unicode="&#x43a;" horiz-adv-x="1080" 
d="M602 434q36 0 57.5 -18t32.5 -45.5t14 -62t3 -68.5q0 -115 92 -115q69 0 134 21.5t120.5 52t97.5 63t64 54.5l22 22l43 -53q-2 -2 -18 -17t-43.5 -38t-66 -51.5t-86 -58t-102.5 -57.5t-116 -50q-48 -17 -93 -25t-87 -8q-68 0 -103.5 24t-50.5 63t-16.5 89t-1.5 102
q0 54 -9 74t-38 20q-11 0 -26 -1t-31 -3t-29.5 -5t-20.5 -7l-125 -336h-219l297 819h229l-152 -405h2q29 76 69 156t87.5 157t102 148.5t113.5 130.5q29 29 67 59.5t80.5 57t87.5 46t87 27.5t79.5 1.5t64.5 -33.5q28 -28 20.5 -81t-43.5 -118t-95 -137t-132 -138
q-41 -37 -88 -73.5t-96 -69.5t-97.5 -62t-93.5 -51h13zM953 987q-23 6 -60 -14t-81.5 -59t-93.5 -93.5t-95.5 -116.5t-87.5 -128.5t-70 -129.5q54 27 115.5 76.5t121.5 108.5t113 120t89 112t51 85.5t-2 38.5z" />
    <glyph glyph-name="afii10049" unicode="&#x42f;" horiz-adv-x="1421" 
d="M787 518q-94 -178 -202.5 -338.5t-241.5 -303.5q-48 -52 -96 -95.5t-97 -81.5q-97 -72 -208.5 -116t-223.5 -45q-47 1 -94.5 9.5t-73.5 15.5l-26 9l60 196q75 -24 143 -26q182 0 391 149q162 115 300.5 273.5t247.5 336.5l12 20l12 20q-59 -8 -118 -10t-113 5t-101 23
t-84 43q-41 40 -62 97.5t-20.5 124t22 138.5t64 141.5t105.5 133t148 112.5q113 67 200.5 88.5t149.5 6.5t98.5 -61.5t48.5 -115.5t-0.5 -156t-49.5 -181l-52 -131t-59 -131l10.5 2.5t31 3t75 3.5t142.5 4l-32 -94l-45.5 -130l-38.5 -117t-27 -91t-10 -52q1 -55 60 -55
q330 0 551 213l45 -53q-129 -124 -329 -214q-200 -91 -415 -91q-36 0 -66 10.5t-51.5 30t-33.5 46t-12 58.5q0 33 14.5 96t47.5 163l32.5 98l24.5 74q-7 -2 -13.5 -3.5t-13.5 -3.5zM435 767q12 -45 42.5 -73.5t72.5 -42.5t92.5 -16.5t103.5 5.5q31 59 62.5 128.5t57.5 140.5
t44.5 139.5t22 127t-10.5 102.5t-51 66q-23 13 -51 13t-59 -10.5t-64 -30.5t-65 -48q-50 -42 -90.5 -105t-67.5 -132.5t-38 -139t-1 -124.5z" />
    <glyph glyph-name="afii10075" unicode="&#x439;" horiz-adv-x="1075" 
d="M41 166q0 57 27 137l180 516h235l-198 -518q-19 -47 -19 -88q0 -46 24 -67t58 -21q151 0 281 385l104 309h238l-148 -399q-32 -88 -49.5 -141.5t-21.5 -73.5q-1 -7 -1.5 -12.5t-0.5 -10.5q0 -57 49 -57q192 0 438 213l43 -53q-329 -305 -604 -305q-66 0 -101.5 34.5
t-35.5 83.5q0 44 24 115q-52 -99 -142 -166q-91 -67 -188 -67q-42 0 -77.5 12t-61 35t-39.5 58t-14 81zM535 1307q14 -68 58 -110t119 -42q70 0 134 36t135 113l52 -53q-75 -124 -167.5 -182t-183.5 -58q-117 0 -179 74q-63 73 -63 197z" />
    <glyph glyph-name="afii10066" unicode="&#x431;" horiz-adv-x="877" 
d="M533 1279q27 -33 61.5 -98.5t67 -152t59 -187.5t37 -205t1 -204t-47.5 -184q-29 -62 -75 -113q52 20 114 47.5t123 59.5q56 29 105 60.5t83 60.5l43 -53q-33 -35 -87.5 -73t-122 -75.5t-144.5 -71.5t-155 -59q-158 -51 -300 -51l2 2q-11 -1 -22.5 -1.5t-22.5 -0.5
q-52 0 -93 17.5t-69.5 48t-43.5 72t-15 89.5q0 128 43 229t119.5 179.5t183 136t234.5 98.5q-18 67 -47.5 138.5t-64 139t-70.5 127t-66 103.5l145 63q7 0 31 -5.5t59 -11.5t79 -10t91.5 -1.5t96.5 13.5t94.5 35.5t85 65.5t67.5 102l68 -53q-14 -86 -46 -146t-75.5 -99
t-94.5 -60t-102.5 -29.5t-100 -7t-86.5 7t-62.5 12.5t-27.5 9zM270 254q0 -58 22.5 -93.5t61.5 -35.5q64 0 113 33t84 87t56.5 123t31 140.5t7 140.5t-16.5 123q-72 -39 -137 -94t-114.5 -122t-78.5 -144t-29 -158z" />
    <glyph glyph-name="afii10068" unicode="&#x433;" horiz-adv-x="824" 
d="M487 191q0 -21 14 -35t43 -14q35 0 70.5 14t90.5 42t108.5 67t107.5 90l43 -53q-55 -58 -122 -110t-146 -100q-81 -48 -151 -71t-130 -24q-78 0 -125 32.5t-47 98.5q-3 41 17 87t52 93.5t70.5 95l71.5 90.5t55 80t22 65q0 26 -4 39t-29 13q-42 0 -136 -65.5t-232 -190.5
h-72l82 317h150l-84 -170l92 82.5t101 77t105.5 56.5t106.5 22q69 0 109 -42t40 -114q0 -43 -19.5 -85t-49.5 -83t-65 -80.5t-65 -77.5t-51 -75t-23 -72z" />
    <glyph glyph-name="afii10080" unicode="&#x43e;" horiz-adv-x="922" 
d="M571 724q89 5 147 -20t88 -69.5t35.5 -103.5t-10 -122.5t-49.5 -126t-81 -114.5q-22 -24 -46 -46q50 17 111 45.5t121.5 63t115.5 71t93 68.5l43 -53q-33 -35 -86 -75t-119 -79t-141.5 -75t-153.5 -61q-158 -51 -300 -51h-38q-66 1 -114.5 19.5t-82.5 56.5q-40 44 -56 96
t-14 106.5t19.5 109.5t44 105t60 93t66.5 74q85 78 195 133.5t231 91.5l8 -61q-55 -21 -113 -61t-109 -92.5t-91.5 -114.5t-61 -126t-16.5 -127t42 -118q31 -48 100 -48q43 0 80 21t66 56.5t49.5 81t31.5 94t11 97t-12 89.5t-37 71t-64 42z" />
    <glyph glyph-name="afii10077" unicode="&#x43b;" horiz-adv-x="1090" 
d="M758 816q0 1 2 3h224l-185 -497q-30 -84 -30 -134q0 -30 18 -46.5t51 -16.5q178 0 414 213l43 -53q-61 -64 -130 -117.5t-148 -98.5q-158 -89 -318 -89q-90 0 -132 43.5t-42 111.5q0 74 49 205l30 86l-101 -149.5t-103.5 -132.5t-101 -97.5t-92.5 -44.5q-56 -9 -97.5 9
t-66.5 52.5t-32 81t6.5 94t49 91.5t95.5 74l51 -28q-27 -44 -38.5 -83.5t-8.5 -68.5t19 -45t43 -13.5t65 26.5t84 76q85 97 167 218l175 266z" />
    <glyph glyph-name="afii10078" unicode="&#x43c;" horiz-adv-x="1633" 
d="M771 819h250l-185 -497q-8 -21 -13 -39.5t-9 -35.5t-6 -31.5t-2 -27.5q4 -7 14 -1.5t23.5 18.5t28.5 31l29 35t24.5 31.5t15.5 20.5q81 103 164.5 229.5l174.5 269.5l255 -2l-185 -497q-30 -84 -30 -134q0 -30 18 -46.5t51 -16.5q113 0 250 86q39 25 80 56.5t84 70.5
l43 -53q-61 -64 -130 -117.5t-148 -98.5q-158 -89 -318 -89q-90 0 -132 43.5t-42 111.5q0 74 49 205l72 199l-75.5 -119l-80.5 -120t-82.5 -112t-81.5 -94t-78.5 -67t-72.5 -31q-90 0 -127 35t-37 103q0 37 10 88t35 117l42 124l-106 -160t-110 -145t-107.5 -108t-98.5 -49
q-56 -9 -97.5 9t-66.5 52.5t-32 81t6.5 94t49 91.5t95.5 74l51 -28q-27 -44 -38.5 -83.5t-8.5 -68.5t19 -45t43 -13.5t65 26.5t84 76q90 103 176.5 232l185.5 284z" />
    <glyph glyph-name="afii10079" unicode="&#x43d;" horiz-adv-x="1105" 
d="M549 137q0 74 49 205l15 43h-247l-137 -385h-229l291 819h231l-122 -341l248 2l124 341h236l-185 -497q-30 -84 -30 -134q0 -30 18 -46.5t51 -16.5q178 0 414 213l43 -53q-61 -64 -130 -117.5t-148 -98.5q-158 -89 -318 -89q-90 0 -132 43.5t-42 111.5z" />
    <glyph glyph-name="afii10090" unicode="&#x448;" horiz-adv-x="1583" 
d="M573 196q-21 -43 -55 -82t-76.5 -69t-90.5 -47.5t-95 -17.5q-42 0 -77.5 12t-61 35t-39.5 58t-14 81q0 57 27 137l180 516h235l-198 -518q-19 -45 -19 -88q0 -46 24 -67t58 -21q151 0 281 385l104 309h235l-198 -518q-19 -45 -19 -88q0 -46 24 -67t58 -21q151 0 281 385
l104 309h238l-148 -399q-32 -88 -49.5 -141.5t-21.5 -73.5q-1 -7 -1.5 -12.5t-0.5 -10.5q0 -57 49 -57q192 0 438 213l43 -53q-329 -305 -604 -305q-66 0 -101.5 34.5t-35.5 83.5q0 44 24 115q-52 -99 -142 -166q-91 -67 -188 -67q-42 0 -73.5 16.5t-52.5 45.5t-31.5 68.5
t-10.5 85.5z" />
    <glyph glyph-name="afii10091" unicode="&#x449;" horiz-adv-x="1583" 
d="M1258 182q0 -57 49 -57q192 0 438 213l43 -53q-131 -122 -255 -196q-19 -65 -35 -126t-35.5 -114t-47 -96t-69 -71t-100.5 -39.5t-143 -2.5q-13 2 -18.5 1.5t-14.5 1.5q-36 4 -64 3.5t-47 -7t-30 -21.5t-13 -40q-3 -58 16 -86l-64 -13q-12 23 -15.5 52t-0.5 59.5t12 60
t21 55.5q22 47 51 76t61.5 45.5t67.5 22.5t70 7.5t68 0t63 -0.5q37 2 64 17t47.5 39.5t36 57.5t30.5 71q-138 -62 -260 -62q-66 0 -101.5 34.5t-35.5 83.5q0 44 24 115q-52 -99 -142 -166q-91 -67 -188 -67q-42 0 -73.5 16.5t-52.5 45.5t-31.5 68.5t-10.5 85.5
q-21 -43 -55 -82t-76.5 -69t-90.5 -47.5t-95 -17.5q-42 0 -77.5 12t-61 35t-39.5 58t-14 81q0 57 27 137l180 516h235l-198 -518q-19 -45 -19 -88q0 -46 24 -67t58 -21q151 0 281 385l104 309h235l-198 -518q-19 -45 -19 -88q0 -46 24 -67t58 -21q151 0 281 385l104 309h238
l-148 -399q-32 -88 -49.5 -141.5t-21.5 -73.5q-1 -7 -1.5 -12.5t-0.5 -10.5z" />
    <glyph glyph-name="afii10053" unicode="&#x404;" horiz-adv-x="1096" 
d="M856 781l49 -142l-542 47q-14 -61 -20 -120.5t-6 -119.5q0 -152 59 -236.5t184 -84.5q87 0 167.5 15.5t152 43.5t133 67t111.5 87l45 -53q-132 -126 -326 -215q-194 -90 -406 -90q-106 0 -181 31.5t-118 91.5t-63 136.5t-20 176.5q0 79 16 164t45.5 171t71.5 169.5
t94 159t112.5 140t127.5 112.5q170 122 358 122q129 0 192.5 -46t63.5 -128q-5 -33 -22 -67.5t-41 -67t-52.5 -61.5t-56.5 -51l-63 47q73 105 57 184q0 54 -29 84t-68 30q-87 0 -173 -62q-84 -61 -152 -160q-16 -24 -36.5 -63.5t-40.5 -84l-39 -87.5t-32 -75l-11.5 -35.5
l-10.5 -34.5z" />
    <glyph glyph-name="afii10035" unicode="&#x421;" horiz-adv-x="1159" 
d="M716 1316q-84 -61 -152 -160q-49 -74 -89.5 -162t-69 -181t-44.5 -187t-16 -180q0 -152 59 -236.5t184 -84.5q87 0 167.5 15.5t152 43.5t133 67t111.5 87l45 -53q-132 -126 -326 -215q-194 -90 -406 -90q-106 0 -181 31.5t-118 91.5t-63 136.5t-20 176.5q0 95 22 197
t64 204q46 114 111.5 216t144.5 184t170 139.5t188 81.5q60 15 122.5 19t115.5 -8.5t90.5 -45t47.5 -89.5q11 -57 -3.5 -111t-45 -102.5t-72.5 -90t-86 -74t-85.5 -55t-70.5 -32.5l-111 9q63 33 118.5 83t93.5 108q29 44 43.5 92t13.5 91.5t-17 77.5t-46 49t-74 6.5
t-101 -49.5z" />
    <glyph glyph-name="afii10101" unicode="&#x454;" horiz-adv-x="833" 
d="M593 491l34 -114l-323 30q-12 -34 -20 -67.5t-8 -67.5q0 -70 44.5 -108.5t138.5 -38.5q39 0 80.5 6t82 16.5t79 24t70.5 29.5q64 32 116 62.5t80 52.5l28 22l43 -53q-3 -3 -37.5 -33t-97 -72t-150 -87.5t-196.5 -79.5q-55 -17 -107.5 -25t-103.5 -8q-160 0 -237.5 64
t-77.5 185q0 105 55 214q56 112 141 197q85 87 195 144q55 28 110.5 42t106.5 14q92 0 144.5 -35t52.5 -104q0 -34 -17 -63.5t-44 -51t-60.5 -34t-66.5 -12.5l-26 61q12 0 26 7.5t26 22t20 34.5t8 46q0 23 -14 37.5t-43 14.5q-41 0 -83.5 -23t-83 -61t-77 -88t-63.5 -104z
" />
    <glyph glyph-name="uni0406" unicode="&#x406;" horiz-adv-x="743" 
d="M-82 117q70 -39 158 -39q175 0 315 395l213 602l101 285h-193q-91 0 -139.5 -43t-48.5 -119q0 -28 9 -49t21.5 -36t25.5 -24t21 -13l9 -3l-19 -49q-57 3 -108 20t-91 57t-40 97q0 67 34.5 115.5t93.5 73.5t122 36t135 11h450l-139 -363l-230 -598q-48 -124 -103 -215
t-109 -143q-52 -51 -115 -83q-30 -16 -57.5 -26t-53.5 -16t-52 -8t-54 -2q-42 0 -103 21q-60 21 -94 46z" />
    <glyph glyph-name="afii10103" unicode="&#x456;" horiz-adv-x="606" 
d="M41 135q0 74 49 205l174 479h236l-185 -497q-30 -84 -30 -134q0 -30 18 -46.5t51 -16.5q118 0 258 91q73 47 156 122l43 -53q-61 -64 -130 -117.5t-148 -98.5q-158 -89 -318 -89q-90 0 -132 43.5t-42 111.5zM309 1102q0 59 49 99q46 40 111 40q30 0 56 -9t45.5 -25.5
t30.5 -40.5t11 -54q0 -61 -49 -101t-112 -40q-30 0 -56 9t-45 26t-30 41.5t-11 54.5z" />
    <glyph glyph-name="afii10056" unicode="&#x407;" horiz-adv-x="723" 
d="M-82 117q70 -39 158 -39q175 0 315 395l314 887h-193q-91 0 -139.5 -43t-48.5 -119q0 -28 9 -49t21.5 -36t25.5 -24t21 -13l9 -3l-19 -49q-57 3 -108 20t-91 57t-40 97q0 67 34.5 115.5t93.5 73.5t122 36t135 11h450l-369 -961q-48 -124 -103 -215t-109 -143
q-52 -51 -115 -83q-30 -16 -57.5 -26t-53.5 -16t-52 -8t-54 -2q-42 0 -103 21q-60 21 -94 46zM628 1573q-36 30 -36 82t42 88q43 35 97 35q25 0 47.5 -8t40 -23t27.5 -36t10 -46q0 -54 -43 -88q-44 -35 -98 -35q-53 0 -87 31zM962 1573q-36 30 -36 82t42 88q43 35 97 35
q25 0 47.5 -8t40 -23t27.5 -36t10 -46q0 -54 -43 -88q-44 -35 -98 -35q-53 0 -87 31z" />
    <glyph glyph-name="afii10023" unicode="&#x401;" horiz-adv-x="857" 
d="M788 1569q-33 28 -33 75q0 48 39 81q41 32 91 32q24 0 45 -7.5t37.5 -21t26 -33t9.5 -42.5q0 -49 -41 -80q-41 -32 -93 -32q-49 0 -81 28zM1101 1569q-34 28 -34 75q0 48 41 81q40 32 91 32q23 0 44.5 -7.5t37.5 -21t25.5 -33t9.5 -42.5q0 -49 -40 -80q-42 -32 -93 -32
q-50 0 -82 28zM687 803q109 9 207 54.5t172.5 116.5t118 161.5t43.5 189.5q0 73 -43.5 115.5t-126.5 42.5q-88 0 -194 -31t-215 -86t-211.5 -130.5t-182.5 -163.5t-128.5 -185t-49.5 -196q0 -49 18 -87t50.5 -64.5t77.5 -40t99 -13.5h6q-62 -24 -114.5 -64.5t-91 -89.5
t-60.5 -101t-22 -99q0 -40 13.5 -73.5t40 -57.5t66 -37.5t92.5 -13.5q68 3 145 19t155 42t154 61.5t144 76.5t124.5 87.5t94.5 94.5l-50 55q-44 -54 -116 -103.5t-155.5 -88t-168.5 -61t-154 -22t-112.5 28.5t-43.5 90q0 23 9.5 51.5t29 58.5t49.5 59.5t71 55.5q24 14 66 29
t116 33l39 132q-49 -25 -96 -36.5t-92 -11.5q-33 0 -60.5 6t-47.5 19t-30.5 33.5t-9.5 49.5q2 54 28.5 108.5t70 107t100.5 102t119.5 93t126 79.5t121 61.5t104.5 40t76 14.5q50 0 50 -39q0 -32 -21 -72t-56.5 -81t-81 -81.5t-95 -74t-99 -57.5t-91.5 -33z" />
    <glyph glyph-name="afii10098" unicode="&#x491;" horiz-adv-x="735" 
d="M826 949q8 21 22.5 36.5t56.5 20.5q5 0 16.5 0.5t24.5 1l25.5 1t19.5 0.5l32 4q-15 -14 -35.5 -43.5t-44.5 -68l-50 -82l-50 -86l-45.5 -80t-37.5 -62.5l-42 -3q6 25 12.5 47t14 43.5l15.5 44l17 48.5q-57 -23 -126 -37.5t-145 -22.5l-253 -711h-229l250 703
q-55 2 -105.5 7.5t-95.5 14.5l107 134q39 -18 95 -28.5t119 -14.5t127.5 -2.5t120 7t96 14t56.5 19.5z" />
    <glyph glyph-name="afii10071" unicode="&#x451;" horiz-adv-x="833" 
d="M31 229q0 91 36.5 183.5t99.5 167.5q61 74 137 135q75 60 156.5 92.5t153.5 32.5q54 0 94.5 -13t66.5 -36t39 -54t13 -67q0 -71 -41 -130q-30 -43 -77.5 -74.5t-106.5 -52.5t-126.5 -31.5t-137.5 -10.5q-17 0 -29 0.5t-20 1.5q-13 -52 -13 -92q0 -38 9.5 -67t32 -48.5
t59.5 -30t92 -10.5q78 0 159 22t145 54q63 32 114.5 62.5t79.5 52.5l28 22l43 -53l-16.5 -14l-21.5 -19q-13 -11 -38.5 -29l-63.5 -44q-39 -26 -78 -49.5t-77 -43.5q-76 -40 -187 -73q-110 -33 -210 -33q-83 0 -142.5 17t-97.5 49.5t-56.5 78.5t-18.5 104zM322 463
q8 -1 20 -1.5t29 -0.5q75 0 136 21.5t97 55.5q35 33 53.5 71t18.5 75q0 64 -53 64q-78 0 -163 -85q-86 -86 -138 -200zM394 984q-34 28 -34 76q0 47 40 80q40 32 92 32q23 0 44.5 -7t38 -21t26 -33t9.5 -42q0 -49 -41 -80q-41 -32 -93 -32q-50 0 -82 27zM709 984
q-33 28 -33 76q0 47 40 80q41 32 92 32q23 0 44.5 -7t38 -21t26 -33t9.5 -42q0 -49 -41 -80q-41 -32 -93 -32q-51 0 -83 27z" />
    <glyph glyph-name="afii10062" unicode="&#x40e;" horiz-adv-x="1417" 
d="M1007 1763q14 -68 58 -110t119 -42q70 0 134 36t135 113l52 -53q-75 -124 -167.5 -182t-183.5 -58q-117 0 -179 74q-63 73 -63 197zM1006 522q-29 -32 -67.5 -60t-80.5 -50t-84 -34.5t-78 -12.5q-35 0 -64 12t-50 33t-33 50t-12 64q-1 33 8 75t26 93l125 379
q24 73 35 126.5t12 88.5q0 51 -24 72.5t-78 21.5q-43 0 -84 -16.5t-78 -44t-68.5 -63t-54.5 -73.5t-36 -75t-13 -68q0 -36 10 -61.5t23.5 -42t28 -25.5t23.5 -13l9 -3l-18 -49q-2 0 -23 1.5t-51 7t-64 16.5t-63.5 30.5t-49 49t-19.5 71.5q0 114 82 214q81 99 220 159
q141 59 298 59q126 0 196 -41.5t70 -140.5q0 -28 -3 -53.5t-10.5 -55t-20 -67.5l-30.5 -90l-108 -316q-15 -44 -22 -72.5t-7 -42.5q0 -55 43 -55q38 0 81 27.5t84 74.5t76 109t56 131l158 518h258q-62 -157 -161 -441.5l-236 -705.5q-40 -111 -91 -205.5t-119 -163.5
t-155.5 -107.5t-199.5 -38.5q-115 0 -195 62q-79 61 -79 170q0 100 59 177q60 75 129 112l49 -37q-65 -113 -65 -236q0 -29 8 -53.5t23 -43t37.5 -29t52.5 -11.5q54 -1 98 23t80 68t64 104t51 131q13 24 24 56t24.5 76.5l30.5 102t43 132.5z" />
    <glyph glyph-name="afii10110" unicode="&#x45e;" horiz-adv-x="970" 
d="M-31 -395q-2 21 7.5 42.5t27.5 42t42.5 40t52.5 37.5q17 11 41 24t53 27l56 27l51 24q23 11 54 24.5l69 30.5q8 4 13.5 6t9.5 4l66 199q-28 -35 -61 -63t-69 -48t-74 -31t-75 -11q-42 0 -77.5 12t-61 35t-39.5 58t-14 81q0 57 27 137l180 516h235l-198 -518
q-19 -47 -19 -88q0 -46 24 -67t58 -21q40 0 78.5 26.5t74 76t67.5 120.5t61 160l100 311h238l-279 -772q277 142 445 291l43 -53q-163 -151 -521 -326l-34 -98q-141 -393 -441 -393q-48 0 -86.5 9.5t-66.5 27.5t-43 43.5t-15 56.5zM127 -393q0 -27 20.5 -47.5t55.5 -20.5
q53 0 102 67q50 68 111 236q-143 -72 -216 -126.5t-73 -108.5zM535 1307q14 -68 58 -110t119 -42q70 0 134 36t135 113l52 -53q-75 -124 -167.5 -182t-183.5 -58q-117 0 -179 74q-63 73 -63 197z" />
    <glyph glyph-name="afii10109" unicode="&#x45c;" horiz-adv-x="1165" 
d="M1063 337q-25 -59 -64 -116t-85.5 -104t-98 -81t-101.5 -47q-57 -14 -98.5 -2.5t-60.5 45t-12.5 86.5t45.5 122l59.5 59t60.5 49.5t69.5 41.5t87.5 35q12 73 6.5 131t-25 101t-50.5 70t-70 38q-60 17 -123.5 -8.5t-126.5 -83.5q-49 -47 -101 -115t-99.5 -157.5t-86 -199
t-59.5 -238.5q-6 -39 -9.5 -67.5t-4 -56.5t0.5 -60t3 -77q18 70 38 131.5t43 122.5t50.5 126l60 143l71 173l84.5 215h229l-63 -153.5l-77 -189.5l-86 -215l-90 -230l-88 -234.5l-81 -228.5q-70 70 -111 148.5t-57.5 166t-10.5 183.5t29 202q21 96 54.5 191t78.5 182.5
t101.5 163.5t124 134t145 95t165.5 45q86 8 161 -18.5t127 -81t75.5 -134t6.5 -177.5q27 3 57 6t58.5 4.5t53.5 2t43 0.5l48 -1v-62q-81 -4 -149 -11.5t-132 -20.5l-7.5 -21.5t-8.5 -21.5zM620 86q6 -33 35 -27q24 5 51.5 30.5t54.5 63.5t52 86t44 98q-56 -22 -103 -51.5
t-79.5 -63.5t-47.5 -69t-7 -67z" />
    <glyph glyph-name="afii10082" unicode="&#x440;" horiz-adv-x="1165" 
d="M1063 337q-25 -59 -66 -116t-89.5 -104t-101.5 -81t-103 -47q-57 -14 -98.5 -2.5t-60.5 45t-12.5 86.5t45.5 122l59.5 59t60.5 49.5t69.5 41.5t87.5 35q12 73 6.5 130t-25 98t-50.5 67t-70 37l-12 3l-87 -241l-91.5 -255l-91.5 -255.5l-85.5 -242.5l-75.5 -216.5
l-61 -175.5q-70 70 -111 146.5t-57.5 161.5t-10.5 179.5t29 200.5q25 111 66 221.5t98 208t129 178t159 131.5l136 441l232 1q-22 -53 -58 -152.5l-82 -224.5q84 6 157 -20.5t123.5 -80t72.5 -130.5t6 -173q27 3 57 6t58.5 4.5t53.5 2t43 0.5l48 -1v-62q-81 -4 -149 -11.5
t-132 -20.5l-7.5 -21.5t-8.5 -21.5zM147 -383l325 1053q-48 -37 -98.5 -104.5t-96 -155t-82.5 -189t-57 -206.5t-20 -207t29 -191zM620 86q6 -33 35 -27q24 5 50 30.5t51 63.5t48 86t42 98q-56 -22 -103 -51.5t-79.5 -63.5t-47.5 -69t-7 -67h11z" />
    <glyph glyph-name="afii10017" unicode="&#x410;" horiz-adv-x="1990" 
d="M1829 508q-34 17 -74.5 35l-86.5 37l-43.5 -128.5l-36.5 -116.5t-25 -91t-9 -52q1 -55 61 -55q329 0 548 213l45 -53q-125 -123 -326 -214q-198 -91 -414 -91q-36 0 -66 10.5t-51.5 30t-34 46t-12.5 58.5q-2 33 11.5 96t45.5 163l37 112.5l52 153.5l-40.5 12.5
t-40.5 11.5q-82 -150 -175.5 -291.5t-195.5 -262.5q-66 -78 -133.5 -143t-137.5 -115q-50 -35 -120 -62.5t-145.5 -40t-149 -8t-131.5 34t-93 86t-33 147.5q1 49 22 92t53 77.5t70 60.5t74 42l61 -41q-19 -32 -36 -69.5t-27 -76t-11 -75t12.5 -66.5t44.5 -50.5t85 -26.5
q77 -9 150 12t142.5 65.5t135 110t126.5 145.5q69 91 150.5 213.5t163.5 265.5q-89 19 -174.5 25t-159.5 -9t-132 -54t-92 -109l-112 73q18 58 56.5 96.5t92 60.5t119.5 30t139 5t150 -16t153 -31l86 161.5t80 165.5t70.5 165.5t58.5 161.5l328 -2l-242 -775
q60 -25 101 -45.5t56 -32.5zM1600 1173q-41 -100 -89 -204.5t-105 -212.5l35 -10l34 -10l48.5 143l45.5 130l36.5 102l21.5 59z" />
    <glyph glyph-name="afii10054" unicode="&#x412;" horiz-adv-x="1734" 
d="M673 -247h-159l561 1545q-102 -14 -203.5 -41t-192.5 -72t-167 -109.5t-127 -153.5q-9 -17 -20 -43.5t-19 -56.5t-10.5 -60.5t5 -54t27.5 -38t56 -12.5q38 1 77.5 16.5t78.5 40t75.5 57t68 67.5t57 71.5t41.5 70.5l69 -11q-40 -114 -105.5 -202t-141.5 -148.5t-155 -93
t-145 -34.5q-114 -5 -180.5 41t-74.5 150q-8 94 23 175t91.5 150t147 128t190.5 111q54 26 120 49.5t139.5 43t152 33.5t157.5 22l50 137l254 19l-62 -150q91 -5 171 -24t141 -54t98.5 -87.5t43.5 -124.5q7 -79 -28 -144t-95.5 -117t-138.5 -89.5t-156 -60.5
q117 -26 181 -93t72 -168q4 -41 -5 -95q-19 -87 -68.5 -155.5t-115.5 -116.5t-140 -74.5t-143 -29.5q-97 -2 -158.5 39.5t-69.5 122.5q-2 36 12 83t51.5 90t102 74t162.5 35q4 0 9 0.5t10 0.5l-19 -72q-53 4 -89 -14t-56.5 -48.5t-27.5 -67.5t-1 -69.5t23.5 -55.5t44.5 -25
q49 -4 89.5 17.5t71 59t50 87t26.5 102.5t1.5 105.5t-25.5 95t-55.5 71.5t-87.5 36q-54 7 -131 -19l30 89q59 6 115 22q66 19 128 52t109.5 77.5t74 100t22.5 119.5q-3 51 -23.5 90.5t-55.5 68t-83 46.5t-106 26z" />
    <glyph glyph-name="afii10025" unicode="&#x417;" horiz-adv-x="1208" 
d="M1401 318q-21 -11 -55.5 -25l-79 -31.5l-98 -38.5l-111.5 -44q7 -53 1 -117q-9 -79 -44.5 -158.5t-89.5 -151t-123.5 -132t-147.5 -102t-160.5 -60t-163.5 -6.5q-76 11 -127 37.5t-77.5 63t-30 80t15 90t58.5 93t99 87.5q41 28 99.5 60t128 65.5l147 68l157.5 68.5
q-8 61 -36 99.5t-70 57t-96 20.5t-115 -9q-29 -5 -59 -13t-61 -19l-35 105q104 15 191.5 55.5t158 98t124.5 128.5t90 148t54 156.5t18 154.5q0 60 -20 103.5t-57 72t-88 42t-112 13.5q-65 0 -134 -14.5t-126 -45.5t-94 -78t-37 -112q0 -33 25.5 -54t60.5 -33t71.5 -16.5
t59.5 -4.5v-59q-74 -15 -160 -15q-250 0 -250 156q0 63 49.5 125.5t134.5 113t199 82t244 31.5q92 0 163 -8t137 -29q46 -15 83 -39.5t63 -59.5t40 -82.5t14 -109.5q0 -75 -23 -146t-63 -137.5t-93.5 -127t-113.5 -113t-124.5 -97t-125.5 -78.5q70 5 127 -4.5t100 -31
t73 -54.5t48 -75l200 81.5t139 59.5zM346 -215q-14 -19 -22 -46t-10 -56t3 -57t18.5 -50t36.5 -34.5t56 -10.5q63 4 113.5 30t89.5 67t67.5 92.5t48 106t31.5 108t18 98.5q2 10 2.5 19.5t1.5 18.5q-75 -34 -146 -69.5t-131 -71.5t-106 -72.5t-71 -72.5z" />
    <glyph glyph-name="afii10026" unicode="&#x418;" horiz-adv-x="2001" 
d="M2001 1344l-290 -777l-50 -130l-43 -117t-30.5 -91t-11.5 -52q-1 -55 58 -55q329 0 559 213l43 -53q-133 -124 -337 -214q-203 -91 -419 -91q-36 0 -65.5 10.5t-50 30t-31.5 46t-10 58.5q1 26 11.5 72t33.5 115q-71 -92 -142 -155t-134.5 -102t-114 -56.5t-79.5 -17.5
q-40 0 -73.5 13t-57.5 37.5t-37.5 59t-13.5 76.5q0 83 18.5 171.5t50.5 178.5t74.5 179t89.5 173q57 100 115 190t111 163q-53 9 -123 15.5t-150 11t-167 7t-174 2.5q-111 0 -180.5 -20.5t-108.5 -52t-53 -70t-14 -74.5q0 -42 10.5 -73.5t25.5 -54t31 -36t26 -19.5l11 -5
l-18 -49q-91 0 -182 84t-91 182q-1 76 35 137.5t98 104t143.5 64.5t170.5 20q87 0 323 -39q59 -10 120 -18t118 -14.5t106 -11l84 -7.5q15 32 43 56.5t60.5 39t66.5 18.5t62 -4.5t45.5 -31.5t17.5 -61q0 -27 -15.5 -50t-43.5 -40t-68 -27.5t-88 -12.5l-66.5 -141.5
l-65.5 -141.5q-43 -95 -81.5 -188.5t-68 -185t-46.5 -181t-17 -174.5q0 -55 43 -55q17 0 58 16t102 63.5t139 134t169 227.5l55.5 149.5l61 162.5l60 160l53.5 141.5l41.5 108t23.5 58.5h244z" />
    <glyph glyph-name="afii10054" unicode="&#x405;" horiz-adv-x="2140" 
d="M2315 373q-82 -53 -198.5 -88t-256.5 -55l-67 -230h-250l65 208q-68 -3 -137 -3t-139 2l-64 -205l-227 -2l70 223q-75 8 -148.5 18.5t-144.5 24.5l-92 -266h-235l113 318q-124 36 -227 82t-174.5 102.5t-106 122t-22.5 140.5q10 61 46.5 105.5t92 73.5t127.5 43.5
t152.5 14.5t166 -14t169.5 -40l134 377h225l-161 -462q69 -38 126 -84.5t100 -103.5l238 759h223l-355 -1143q137 -8 277 0l327 1034h216l-293 -1007q118 20 227 53.5t207 84.5zM330 719q0 -39 22.5 -77t63.5 -74t99.5 -69t130.5 -62l150 423q-90 27 -174.5 31t-149 -14
t-103.5 -58t-39 -100zM994 770l-140 -401q136 -35 285 -56l79 251q-48 65 -104.5 116t-119.5 90z" />
    <glyph glyph-name="afii10027" unicode="&#x419;" horiz-adv-x="2001" 
d="M2001 1344l-290 -777l-50 -130l-43 -117t-30.5 -91t-11.5 -52q-1 -55 58 -55q329 0 559 213l43 -53q-133 -124 -337 -214q-203 -91 -419 -91q-36 0 -65.5 10.5t-50 30t-31.5 46t-10 58.5q1 26 11.5 72t33.5 115q-71 -92 -142 -155t-134.5 -102t-114 -56.5t-79.5 -17.5
q-40 0 -73.5 13t-57.5 37.5t-37.5 59t-13.5 76.5q0 88 21 181.5t56.5 187.5t82.5 187t98 180.5l103 168.5l98 150q-53 9 -123 15.5t-150 11t-167 7t-174 2.5q-111 0 -180.5 -20.5t-108.5 -52t-53 -70t-14 -74.5q0 -42 10.5 -73.5t25.5 -54t31 -36t26 -19.5l11 -5l-18 -49
q-91 0 -182 84t-91 182q-1 76 35 137.5t98 104t143.5 64.5t170.5 20q87 0 323 -39q59 -10 120 -18t118 -14.5t106 -11l84 -7.5q15 32 43 56.5t60.5 39t66.5 18.5t62 -4.5t45.5 -31.5t17.5 -61q0 -27 -15.5 -50t-43.5 -40t-68 -27.5t-88 -12.5l-121.5 -261.5t-111 -258
t-81 -251.5t-31.5 -241q0 -55 43 -55q17 0 58 16t102 63.5t139 134t169 227.5l55.5 149.5l61 162.5l60 160l53.5 141.5l41.5 108t23.5 58.5h244zM1549 1766q14 -68 58 -110t119 -42q70 0 134 36t135 113l52 -53q-75 -124 -167.5 -182t-183.5 -58q-117 0 -179 74
q-63 73 -63 197z" />
    <glyph glyph-name="afii10028" unicode="&#x41a;" horiz-adv-x="1568" 
d="M1402 1063q51 52 77.5 102t34.5 89.5t2 65.5t-21 29q-27 7 -66.5 -17t-86.5 -72t-98 -115t-100.5 -146t-95 -167t-80.5 -176q43 1 81 -4.5t65.5 -19t43.5 -35.5t15 -53q7 -33 -5 -78t-27 -94t-25.5 -98.5t-1.5 -90.5q10 -49 59 -40q90 -2 170.5 12.5t152 42t132.5 66.5
t112 87l45 -53q-132 -126 -325 -215q-194 -90 -406 -90q-38 -7 -74 -2t-65 22t-50 47t-30 74q-7 32 -2 70.5t16 79t25 80.5l26 76t19 65t3 47q-3 10 -23 13t-50 -0.5t-66 -12t-70 -20.5l-181 -532h-157l358 1347h-193q-91 0 -139.5 -43t-48.5 -119q0 -28 9 -49t21.5 -36
t25.5 -24t21 -13l9 -3l-19 -49q-57 3 -108 20t-91 57t-40 97q0 67 34.5 115.5t93.5 73.5t122 36t135 11h450l-273 -802q31 9 62.5 16t63.5 12l75 196.5t85.5 191.5t102 178.5t122.5 157.5q31 34 71 70t84.5 67t93 54.5t97.5 33t97 1.5t92 -39q26 -19 31 -57t-8.5 -86.5
t-45 -104.5t-79 -111.5t-110.5 -106.5t-138 -89z" />
    <glyph glyph-name="afii10029" unicode="&#x41b;" horiz-adv-x="1990" 
d="M1395 1358q-91 0 -139.5 -43t-48.5 -119q0 -28 9 -49t21.5 -36t25.5 -24t21 -13l9 -3l-19 -49q-57 3 -108 20t-91 57t-40 97q0 67 34.5 115.5t93.5 73.5t122 36t135 11l558 1l-309 -851l-50 -130l-43 -117t-30.5 -91t-11.5 -52q-1 -55 58 -55q329 0 559 213l43 -53
q-133 -124 -337 -214q-203 -91 -419 -91q-36 0 -65.5 10.5t-50 30t-31.5 46t-10 58.5q1 33 17.5 96t53.5 163l41.5 109.5l57.5 148.5l64 163.5l62 156l50.5 125.5t29.5 71l-26 3q-52 -114 -117 -237t-139 -246.5t-157 -242.5t-171 -225.5t-180 -195.5t-185 -152t-186 -96
t-183 -26q-60 4 -112 25.5t-89 57t-57 85t-15 109.5q4 49 25 92t52.5 78t69 61.5t73.5 42.5l59 -41q-20 -32 -39 -69.5t-31.5 -76t-15.5 -75t9 -66.5t42.5 -50.5t83.5 -26.5q76 -9 150.5 12t146 65.5t140.5 110t134 145.5l114 145.5l122 169t123 187t118 200.5t107.5 209.5
t90.5 213.5z" />
    <glyph glyph-name="B" unicode="B" horiz-adv-x="1668" 
d="M962 1372q-44 -6 -85.5 -19t-78 -31t-67.5 -40t-53 -46q-45 -48 -68.5 -99t-23.5 -97q0 -36 9.5 -61.5t23 -42t28 -25.5t23.5 -13l10 -3l-19 -49q-38 0 -80 8.5t-87 28.5t-74 59.5t-29 93.5q0 165 151 277q76 57 188.5 90.5t258.5 44.5l26 76l263 20l-39 -96
q212 -20 310 -98q99 -80 99 -181q0 -45 -12.5 -84t-34.5 -73t-52 -62t-66 -52q-26 -17 -56 -31.5t-61.5 -27t-63.5 -23.5l-60 -20q70 10 136.5 -7t117 -55t78.5 -94t22 -124q-9 -100 -55 -188.5t-116.5 -158t-158.5 -114t-179.5 -56t-180.5 14.5t-161 99l28 67
q49 -53 108 -73t119.5 -12.5t118 39.5t103 84t75.5 120.5t35 148.5q6 84 -14 137.5t-56 79.5t-84 26t-99 -23l-33 116q353 101 353 357q0 152 -193 186l-343 -879q-45 -128 -101 -221.5t-110 -148.5q-57 -57 -119 -88q-64 -34 -118.5 -45.5t-116.5 -11.5q-115 0 -195 62
q-79 61 -79 170q0 100 59 177q60 75 129 112l49 -37q-65 -113 -65 -236q0 -57 31 -93.5t90 -43.5q36 -4 68.5 9.5t61 40.5t53 64.5t46.5 81.5t41 92t35 95z" />
    <glyph glyph-name="afii10018" unicode="&#x411;" horiz-adv-x="1750" 
d="M2021 1253q-29 15 -97.5 28.5t-163 23t-208.5 13t-235 -1.5l-257 -624q52 57 103.5 92t100 53t92 22t80 0.5t65.5 -12t48 -16.5q42 -18 73 -53t49.5 -82t24.5 -103.5t0 -116.5q-8 -65 -33.5 -127.5t-64.5 -117.5t-90 -101.5t-109 -79.5t-121 -51t-127 -16q-96 -3 -157 37
t-68 119q-3 37 13.5 84.5t56.5 90t107.5 71.5t166.5 28l-18 -70q-53 4 -88.5 -15.5t-56.5 -51.5t-27.5 -71t-1.5 -73t21.5 -58t41.5 -26q37 -5 74.5 12t72.5 50.5t66 81.5t55 103.5t38.5 116.5t16.5 122q3 88 -16 141.5t-54 75.5t-81 15t-97 -40t-103 -90.5t-97 -135.5
l-17 45l-326 -792h-159l560 1542q-112 -14 -214 -40t-184 -65q-112 -54 -198 -129t-133 -188q-12 -29 -21 -59.5t-7.5 -57t16 -46t50.5 -26.5q57 2 115.5 34t111 79.5t95 103.5t66.5 106l69 -11q-40 -114 -109 -201.5t-150 -147.5t-164.5 -90t-152.5 -28q-57 1 -89 28.5
t-41.5 72t1.5 102t41 119.5q36 75 86 138.5t112.5 116t136 96t154.5 78.5q94 40 207.5 69t238.5 48l49 134l254 19l-52 -126q109 8 214 9t198.5 -4t171.5 -15.5t133 -26.5z" />
    <glyph glyph-name="afii10031" unicode="&#x41d;" horiz-adv-x="1494" 
d="M1734 382q-44 -35 -102 -64t-128 -52t-148.5 -40t-162.5 -28l-78 -198h-173q16 55 27 87l17.5 50t8.5 25.5t1 13.5q-39 -2 -80.5 -2t-83.5 1t-82.5 3t-77.5 5l-185 -468h-159l167 488q-46 8 -89 17t-81 21q-84 25 -142.5 66.5t-93 90t-44.5 99.5t2 96q17 61 50.5 101.5
t78.5 63t99 29.5t112 1t118 -23.5t118 -44.5q11 -5 21 -10.5l21 -11.5l258 752h251l-344 -868q74 -64 130 -137t85 -142l392 1149h249l-460 -1169q143 26 273.5 73.5t233.5 122.5zM438 318q20 -8 41.5 -15t45.5 -13l108 315q-87 50 -154 55.5t-111 -17.5t-63.5 -67.5
t-12 -93t43 -93.5t102.5 -71zM792 486l-89 -225q60 -6 124 -8t131 1q-25 63 -68.5 122t-97.5 110z" />
    <glyph glyph-name="afii10032" unicode="&#x41e;" horiz-adv-x="999" 
d="M19 282q0 233 158 517q-20 39 -31 81.5t-11 87.5q0 98 44 190.5t125.5 164t198 114.5t262.5 43q67 0 123 -20.5t95.5 -64t61.5 -110.5t22 -160q0 -112 -34 -260q-20 -79 -44.5 -153.5t-56.5 -150.5q57 -3 105.5 -3t93 4t87 10.5t86.5 17.5l28 -54q-3 -1 -31.5 -13
t-84 -25t-136.5 -21.5t-189 -2.5q-51 -109 -111 -197t-133 -161q-75 -74 -159.5 -114.5t-172.5 -40.5q-87 0 -144.5 28.5t-91 74t-47 103t-13.5 115.5zM338 625q-15 -36 -31 -90t-27 -114t-14.5 -120t7.5 -108.5t40 -78.5t82 -30q54 0 106.5 31.5t99 85.5t87 126.5
t70.5 155.5q-260 35 -420 142zM388 1282q-102 -98 -102 -231q0 -37 7 -69q145 211 324 351l75 -76q-82 -79 -161 -204q-40 -64 -74.5 -132t-64.5 -140q139 -156 392 -204q80 267 80 488q0 94 -20 157t-55 99.5t-81.5 48.5t-99.5 4.5t-109 -32t-111 -60.5z" />
    <glyph glyph-name="afii10034" unicode="&#x420;" horiz-adv-x="1352" 
d="M82 -285l582 1639q-148 -42 -245 -136t-97 -178q0 -36 9.5 -61.5t23 -42t28 -25.5t23.5 -13l10 -3l-19 -49q-6 0 -15.5 0.5t-37.5 4.5t-53.5 10t-56.5 20q-21 9 -40.5 22t-34.5 30t-23.5 39.5t-8.5 49.5q0 150 152 266q151 115 415 152l31 84l268 20l-37 -90
q512 -11 512 -315q0 -109 -48.5 -208t-132.5 -180q-42 -41 -89.5 -77t-101.5 -68q-109 -66 -226.5 -108t-238.5 -62l-21 72q156 33 295 133q138 98 220 230q81 130 81 255q0 70 -20.5 117t-58 75.5t-89 42t-112.5 17.5l-672 -1663h-172z" />
    <glyph glyph-name="afii10038" unicode="&#x424;" horiz-adv-x="1608" 
d="M1007 1368h-198q-91 0 -139.5 -43t-48.5 -119q0 -28 9 -49t21.5 -36t25.5 -24t21 -13l9 -3l-19 -49q-57 3 -108 20t-91 57t-40 97q0 67 34.5 115.5t93.5 73.5t122 36t135 11h450l-177 -450q129 -6 223.5 -34t151.5 -71q63 -48 91 -103.5t28 -118.5q0 -95 -32.5 -173.5
t-89 -142.5t-133 -113t-165 -84.5t-185.5 -58.5t-193 -35l-21 75q123 15 222 63.5t169.5 117.5t112.5 152.5t51 169.5q6 54 -5 102t-41.5 86t-83 62t-130.5 30l-444 -1127h-172l97 280q-97 -1 -191 15t-167.5 54t-118.5 101.5t-45 158.5q0 99 38 182t103 150t150 117.5
t179 85t191 53t185 21.5zM303 441q-6 -56 6 -107t45.5 -91.5t90 -66.5t140.5 -30l270 784q-100 -7 -195.5 -50t-171.5 -110.5t-126 -152.5t-59 -176z" />
    <glyph glyph-name="afii10040" unicode="&#x426;" horiz-adv-x="2059" 
d="M1765 7q-36 -21 -83.5 -36t-97.5 -20.5t-98 0t-85 25.5t-59 55.5t-19 90.5q1 26 11.5 72t33.5 115q-71 -92 -142 -155t-134.5 -102t-114 -56.5t-79.5 -17.5q-40 0 -73.5 13t-57.5 37.5t-37.5 59t-13.5 76.5q0 83 18.5 171.5t50.5 178.5t74.5 179t89.5 173q57 100 115 190
t111 163q-53 9 -123 15.5t-150 11t-167 7t-174 2.5q-111 0 -180.5 -20.5t-108.5 -52t-53 -70t-14 -74.5q0 -42 10.5 -73.5t25.5 -54t31 -36t26 -19.5l11 -5l-18 -49q-91 0 -182 84t-91 182q-1 76 35 137.5t98 104t143.5 64.5t170.5 20q87 0 323 -39q59 -10 120 -18
t118 -14.5t106 -11l84 -7.5q15 32 43 56.5t60.5 39t66.5 18.5t62 -4.5t45.5 -31.5t17.5 -61q0 -27 -15.5 -50t-43.5 -40t-68 -27.5t-88 -12.5l-66.5 -141.5l-65.5 -141.5q-43 -95 -81.5 -188.5t-68 -185t-46.5 -181t-17 -174.5q0 -55 43 -55q17 0 58 16t102 63.5t139 134
t169 227.5l55.5 149.5l61 162.5l60 160l53.5 141.5l41.5 108t23.5 58.5h244l-290 -777l-49.5 -128.5l-42 -114t-30 -88t-12.5 -50.5q-4 -43 9 -72t38.5 -41.5t60.5 -8.5t74 26.5t80 63.5t78 102l55 -27q-5 -7 -23.5 -36.5t-46.5 -65.5l-40 -139t-45 -128t-59.5 -109.5
t-83.5 -82.5t-116.5 -47t-159.5 -4l-68.5 7t-54.5 1t-42 -12t-31 -32q-14 -25 -15 -59t10 -73l-52 -15q-14 24 -17 52t1 58q6 43 23 83.5t42.5 74.5t59 59.5t71.5 37.5q35 12 74.5 16t79 4.5t76.5 -1t67 0.5q42 3 72 21.5t52 48.5t38 67.5t30 78.5q-23 -17 -49 -28z" />
    <glyph glyph-name="afii10061" unicode="&#x40c;" horiz-adv-x="2644" 
d="M1318 1192q-33 -32 -70.5 -97.5t-75 -152t-72 -187t-61 -202t-42 -198.5t-15.5 -175q0 -55 43 -55q15 0 49 12t84 47.5t114.5 99t140.5 166.5l54 145l67 179l70.5 189l65.5 174l52 135.5t29 72.5h244l-290 -777l-49 -129t-40.5 -115.5t-28 -89.5t-10.5 -51q0 -55 43 -55
q17 0 52 18.5t88.5 70.5t126 144t165.5 239l-1 -2l55 147.5l58.5 156.5l57 151l50.5 132.5l39 101t22 54.5h244l-290 -777l-50 -130l-43 -117t-30.5 -91t-11.5 -52q-1 -55 58 -55q329 0 559 213l43 -53q-133 -124 -337 -214q-203 -91 -419 -91q-36 0 -65.5 10.5t-50 30
t-31.5 46t-10 58.5q1 29 13.5 80.5t40.5 131.5q-68 -95 -134 -162.5t-124 -110t-104.5 -62.5t-75.5 -20q-40 0 -75.5 7t-61.5 25.5t-41 51t-13 83.5q0 18 3.5 41t12.5 56q-64 -72 -126.5 -121.5t-117 -80t-98 -44.5t-69.5 -14q-40 0 -77.5 13t-67 37.5t-47 59t-17.5 76.5
q0 86 18 180t50.5 189t76 189.5t94.5 183t107 168t113 145.5q-53 9 -123 15.5t-150 11t-167 7t-174 2.5q-111 0 -180.5 -20.5t-108.5 -52t-53 -70t-14 -74.5q0 -42 10.5 -73.5t25.5 -54t31 -36t26 -19.5l11 -5l-18 -49q-91 0 -182 84t-91 182q-1 76 35 137.5t98 104
t143.5 64.5t170.5 20q87 0 323 -39q59 -10 120 -18t118 -14.5t106 -11l84 -7.5q15 32 45 56.5t65.5 39t73 18.5t68.5 -4.5t50.5 -31.5t19.5 -61q0 -27 -17 -50t-47 -40t-71 -27.5t-89 -12.5z" />
    <glyph glyph-name="afii10043" unicode="&#x429;" horiz-adv-x="2498" 
d="M1790 -386l-73.5 7t-59 1t-46 -12t-32.5 -32q-16 -25 -16.5 -59t10.5 -73l-56 -15q-14 24 -18 52t1 58q6 43 24.5 83.5t46 74.5t63.5 59.5t78 37.5q37 12 80 16t85.5 4.5t82.5 -1t72 0.5q45 3 77 21.5t56 47.5t41.5 66.5t31.5 77.5q-11 -8 -21.5 -14t-21.5 -11
q-36 -21 -83.5 -36t-97.5 -20.5t-98 0t-85 25.5t-59 55.5t-19 90.5q0 29 13 81t41 132q-68 -95 -134 -162.5t-124 -110.5t-104.5 -63t-75.5 -20q-39 0 -74 6.5t-61 24t-41 48.5t-15 79v9q1 25 8 60.5t26 93.5q-66 -88 -128.5 -149t-117 -98.5t-98.5 -54.5t-72 -17
q-40 0 -73.5 13t-57.5 37.5t-37.5 59t-13.5 76.5q0 40 8 84t22.5 88t33 87.5t39.5 82.5l17 32.5l27.5 52l27.5 53t18 34.5l46.5 89.5t42.5 87t37.5 89t31.5 96.5q27 100 27 195q0 76 -27.5 109.5t-81.5 33.5q-6 0 -12 0.5t-13 0.5q-87 0 -171 -33t-155 -87t-124 -124
t-78 -145q-10 -29 -10 -59q0 -19 5.5 -38t18 -34t32.5 -24t48 -9q49 0 103 23.5t104 59.5t92.5 80.5t70.5 86.5l61 -22q-48 -95 -114 -165t-137 -116t-143 -69t-132 -23h-19t-17 2q-61 8 -104.5 26t-71.5 43.5t-41 57t-13 66.5q0 47 24 100t66.5 107t101 106.5t128.5 98.5
t149 83t161 60q43 12 105.5 19t127.5 5.5t124 -13.5t95 -38q82 -60 82 -208q0 -96 -38 -216q-38 -117 -93 -224l-21.5 -41l-33.5 -64l-33.5 -63.5l-20.5 -39.5q-28 -51 -51.5 -100.5t-41.5 -99.5q-19 -50 -32 -92.5t-13 -77.5q0 -55 43 -55q17 0 50.5 15.5t84.5 62
t120.5 131.5t158.5 223l55.5 149.5l61.5 164.5l61 162l55 144l42.5 110l23.5 60h244l-290 -777l-49 -129t-40.5 -115.5t-28 -89.5t-10.5 -51q0 -55 43 -55q17 0 57.5 22.5t97.5 77t128 145t149 227.5l55 147l58.5 156l57 151l50 132.5l38.5 100.5t22 54h244l-290 -777
l-48 -125.5l-41.5 -113t-30.5 -90t-15 -56.5v-1v-1q-5 -63 27.5 -93t83.5 -23t113 54t117 138l55 -27q-5 -7 -22.5 -34.5t-43.5 -62.5l-43 -140t-48 -129.5t-64 -110.5t-90.5 -83.5t-127 -48t-173.5 -3.5zM2006 171v6v-6z" />
    <glyph glyph-name="afii10072" unicode="&#x436;" horiz-adv-x="1949" 
d="M728 2l176 503q-46 -60 -103 -125.5t-117.5 -125.5t-122.5 -107.5t-118 -69.5q-66 -38 -135 -61.5t-132 -25.5q-93 -2 -145 38t-52 116q0 37 17 69.5t44 56.5t60.5 38t66.5 14l26 -67q-12 -1 -26.5 -9.5t-26.5 -24t-20 -38t-8 -50.5q0 -26 14.5 -41.5t43.5 -15.5
q43 0 88.5 25t87.5 67t78.5 97t60.5 115q14 35 26 78t17.5 85.5t3 82t-17 67t-42.5 40t-73 2.5q-33 -11 -62 -29t-56 -40.5t-53.5 -48.5l-54.5 -53l-46 49q5 6 25 28.5t52.5 52t75 61t92.5 56t105.5 37.5t114.5 5q31 -5 60.5 -18.5t53.5 -39.5t40.5 -67t19.5 -99
q0 -61 -12.5 -117.5t-35.5 -110.5l72 81.5l69.5 82l63.5 79l54 71.5l47 134h212l-176 -505l88.5 103l93.5 107t100 101.5t108 87t117 64.5t127 33q43 4 77 -5t58 -29.5t37 -51t13 -68.5t-16 -70.5t-41.5 -56.5t-57 -37.5t-61.5 -13.5l-25 67q12 1 25 9.5t24.5 24t19 37.5
t7.5 51q0 26 -14 41.5t-41 15.5q-38 0 -75 -22.5t-70.5 -60.5t-61.5 -87.5t-48.5 -103t-32 -107.5t-11.5 -101q0 -70 39.5 -108.5t124.5 -38.5q72 0 148 22t135 54q57 32 104 62.5t72 52.5l25 22l39 -53l-34 -33t-87 -72t-135 -87.5t-178 -79.5q-49 -17 -97 -25t-93 -8
q-145 0 -220.5 64t-75.5 185q0 44 10 87.5t26 91.5q-61 -72 -118 -147l-102 -137l-43 -125z" />
    <glyph glyph-name="afii10088" unicode="&#x446;" horiz-adv-x="1075" 
d="M41 166q0 57 27 137l180 516h235l-198 -518q-19 -45 -19 -88q0 -46 24 -67t58 -21q151 0 281 385l104 309h238l-148 -399q-32 -88 -49.5 -141.5t-21.5 -73.5q-1 -7 -1.5 -12.5t-0.5 -10.5q0 -57 49 -57q192 0 438 213l43 -53q-131 -122 -255 -196q-19 -65 -35 -126
t-35.5 -114t-47 -96t-69 -71t-100.5 -39.5t-143 -2.5q-13 2 -18.5 1.5t-14.5 1.5q-36 4 -64 3.5t-47 -7t-30 -21.5t-13 -40q-3 -58 16 -86l-64 -13q-12 23 -15.5 52t-0.5 59.5t12 60t21 55.5q22 47 51 76t61.5 45.5t67.5 22.5t70 7.5t68 0t63 -0.5q37 2 64 17t47.5 39.5
t36 57.5t30.5 71q-138 -62 -260 -62q-66 0 -101.5 34.5t-35.5 83.5q0 44 24 115q-52 -99 -142 -166q-91 -67 -188 -67q-42 0 -77.5 12t-61 35t-39.5 58t-14 81z" />
    <glyph glyph-name="afii10092" unicode="&#x44a;" horiz-adv-x="1308" 
d="M928 767l-42.5 -15t-52.5 -17q-55 -52 -91.5 -104.5t-62.5 -107.5q41 22 91.5 34.5t100.5 16t95.5 0t76.5 -13.5q32 -10 57.5 -30t42.5 -47.5t25.5 -60.5t7.5 -70q-2 -57 -32.5 -115t-82.5 -109q54 19 117.5 47.5t126.5 61.5q56 29 105 60.5t83 60.5l43 -53
q-33 -35 -87.5 -73t-122 -75.5t-144.5 -71.5t-155 -59q-83 -26 -159 -38.5t-152 -14.5q-111 -3 -182 22.5t-109 71t-46 107t7 129.5q11 49 32.5 99t51 98.5t66.5 93.5t78 83q-49 -10 -97 -16t-92 -7v-3q0 -29 -12 -68t-38 -87t-67 -103.5t-98 -115.5l-59 53q49 54 81 97
t50.5 79t25.5 67.5t7 61.5q0 8 0.5 16.5t0.5 16.5q-44 14 -69.5 44t-25.5 83q0 45 21.5 79t57.5 57t82.5 36t96.5 15v-66q-100 -13 -100 -70q0 -27 37.5 -38.5t94.5 -12.5t124.5 6.5t127.5 17.5t103 20.5t52 15.5zM614 344q-18 -62 -24.5 -115.5t1.5 -94t31 -64.5t64 -26
q46 -2 91.5 19.5t80 62t54.5 99t16 131.5q-3 59 -34.5 88t-76 33.5t-94 -13.5t-88.5 -53q-6 -17 -11 -33.5z" />
    <glyph glyph-name="afii10093" unicode="&#x44b;" horiz-adv-x="1486" 
d="M1144 820h231l-185 -497q-30 -84 -30 -134q0 -30 18 -46.5t51 -16.5q178 0 414 213l43 -53q-61 -64 -130 -117.5t-148 -98.5q-158 -89 -318 -89q-90 0 -132 43.5t-42 111.5q0 74 49 205l84 232q-39 -38 -88 -75t-103 -69q6 -30 6 -64q-3 -63 -37 -127t-93.5 -118
t-140 -90.5t-176.5 -43.5q-111 -1 -184.5 23t-112.5 69.5t-45.5 112t15.5 149.5l37 103l137 376h236l-185 -462q-18 -62 -24.5 -115.5t1.5 -94t31 -64.5t64 -26q43 -2 86 17t77 55t55.5 88t23.5 118q-56 -12 -107.5 -8t-95.5 28q-22 12 -34 34.5t-11.5 49t14.5 54t44 50.5
q34 22 70.5 33.5t74 14.5t75 -2t72.5 -16q58 -19 94 -69q46 28 91 62t85 71t72.5 76t54.5 78l11 29h4l1 1v-1zM480 422q26 -14 62.5 -15t79.5 10q-10 41 -30 60t-41.5 22.5t-40 -4t-24.5 -19.5q-10 -11 -14.5 -26.5t8.5 -27.5z" />
    <glyph glyph-name="afii10094" unicode="&#x44c;" horiz-adv-x="1019" 
d="M127 443l137 376h236l-120 -299q42 22 87.5 38t92 24.5t93.5 6.5t91 -16q32 -10 57.5 -30t42.5 -47.5t25.5 -60.5t7.5 -70q-2 -57 -32.5 -115t-82.5 -109q54 19 117.5 47.5t126.5 61.5q56 29 105 60.5t83 60.5l43 -53q-33 -35 -87.5 -73t-122 -75.5t-144.5 -71.5
t-155 -59q-76 -25 -147.5 -37t-140.5 -14q-6 -1 -12 -1t-11 -1q-111 -1 -184.5 23t-112.5 69.5t-45.5 112t15.5 149.5zM387 57q46 -2 91.5 19.5t80 62t54.5 99t16 131.5q-3 54 -21 81t-44.5 35.5t-58.5 2t-63 -19t-57.5 -28l-42.5 -25.5l-27 -58q-18 -62 -24.5 -115.5
t1.5 -94t31 -64.5t64 -26z" />
    <glyph glyph-name="afii10095" unicode="&#x44d;" horiz-adv-x="865" 
d="M544 731q-52 25 -101 14t-94 -41t-85.5 -69.5l-74.5 -70.5l-46 49q3 5 18 22t39.5 40.5t57 50.5t72 52t84.5 44.5t93 28.5q22 4 53 5.5t63.5 -1t63 -10t51.5 -20.5q38 -23 64.5 -70t31.5 -126q0 -72 -17.5 -139.5t-49 -128.5t-74.5 -114t-94 -98q61 22 133 54t144 68
q64 34 120.5 69t94.5 68l50 -50q-38 -39 -100.5 -82.5t-140 -85.5t-166 -80t-178.5 -67q-57 -18 -114.5 -32.5t-114.5 -22t-113 -5.5t-110 17q-109 31 -109 144q0 37 17 69.5t44 56.5t60.5 38t66.5 14l26 -67q-12 -1 -26.5 -9.5t-26.5 -24t-20 -38t-8 -50.5q0 -35 27.5 -51
t64.5 -14q27 2 57 12.5t60.5 28.5t60 43t55.5 55q32 37 56.5 82t43.5 91l12 41l-311 -29l34 114l301 -4q8 36 10.5 72t-2 67t-17.5 54.5t-36 35.5z" />
    <glyph glyph-name="afii10096" unicode="&#x44e;" horiz-adv-x="1332" 
d="M999 727q89 5 147 -20t88 -69.5t35.5 -103.5t-10 -122.5t-49 -126t-81.5 -114.5q-22 -24 -46 -46q50 17 111 45.5t121.5 63t115.5 71t93 68.5l43 -53q-33 -35 -86 -75t-119 -79t-141.5 -75t-153.5 -61q-39 -13 -85.5 -25t-96.5 -20t-100.5 -10.5t-97 4.5t-86.5 25t-69 51
q-67 73 -67 173q0 42 5.5 81t16.5 76h-121l-137 -385h-229l291 819h231l-122 -341l126 1q38 72 96.5 131.5t131 107t155 84t169.5 62.5l8 -61q-48 -22 -103 -62.5t-106.5 -93t-93.5 -114t-65 -125t-20.5 -126.5t39.5 -118q31 -48 100 -48q43 0 80 21t66 56.5t49.5 81
t31.5 94t11 97t-12 89.5t-37 71t-64 42z" />
    <glyph glyph-name="afii10050" unicode="&#x490;" horiz-adv-x="1218" 
d="M1794 1278q-45 12 -92.5 21t-100.5 15t-112.5 9.5t-129.5 5.5l-306 -837q-41 -111 -94 -205t-123 -163t-159.5 -108t-201.5 -39q-115 0 -195 62q-79 61 -79 170q0 100 59 177q60 75 129 112l49 -37q-65 -113 -65 -236q0 -29 8 -55.5t23 -47.5t37.5 -34t52.5 -14
q60 -2 112.5 26.5t96.5 81.5q17 21 34 48t38 74t48 119t64 183l243 716q-103 -8 -202.5 -24.5t-191.5 -44.5q-83 -26 -156.5 -60.5t-133.5 -79.5q-26 -20 -47.5 -46.5t-35.5 -55.5t-18.5 -58t2.5 -54t28 -44t59 -27q56 -7 118 15.5t120.5 61t108.5 87.5t82 95l67 -23
q-57 -106 -135.5 -182.5t-163.5 -124.5t-167.5 -67.5t-148.5 -11.5q-78 9 -127 32t-75 54.5t-31 70.5t5.5 81t35.5 85t58 83t72.5 74.5t80.5 59.5q77 47 168.5 82t194.5 59q110 26 227 40t238 18l28 81h231l-30 -82q68 -3 127 -8t112 -11.5t102.5 -16t97.5 -21.5l104 231
h187l-77 -111.5l-52.5 -76.5l-36 -51.5l-25.5 -36.5l-21 -30t-24 -32l-6 1l-1 -1z" />
    <glyph glyph-name="afii10105" unicode="&#x458;" horiz-adv-x="2644" 
d="M1318 1192q-33 -32 -70.5 -97.5t-75 -152t-72 -187t-61 -202t-42 -198.5t-15.5 -175q0 -55 43 -55q15 0 49 12t84 47.5t114.5 99t140.5 166.5l54 145l67 179l70.5 189l65.5 174l52 135.5t29 72.5h244l-290 -777l-49 -129t-40.5 -115.5t-28 -89.5t-10.5 -51q0 -55 43 -55
q17 0 52 18.5t88.5 70.5t126 144t165.5 239l-1 -2l55 147.5l58.5 156.5l57 151l50.5 132.5l39 101t22 54.5h244l-290 -777l-50 -130l-43 -117t-30.5 -91t-11.5 -52q-1 -55 58 -55q329 0 559 213l43 -53q-133 -124 -337 -214q-203 -91 -419 -91q-36 0 -65.5 10.5t-50 30
t-31.5 46t-10 58.5q1 29 13.5 80.5t40.5 131.5q-68 -95 -134 -162.5t-124 -110t-104.5 -62.5t-75.5 -20q-40 0 -75.5 7t-61.5 25.5t-41 51t-13 83.5q0 18 3.5 41t12.5 56q-64 -72 -126.5 -121.5t-117 -80t-98 -44.5t-69.5 -14q-40 0 -77.5 13t-67 37.5t-47 59t-17.5 76.5
q0 86 18 180t50.5 189t76 189.5t94.5 183t107 168t113 145.5q-53 9 -123 15.5t-150 11t-167 7t-174 2.5q-111 0 -180.5 -20.5t-108.5 -52t-53 -70t-14 -74.5q0 -42 10.5 -73.5t25.5 -54t31 -36t26 -19.5l11 -5l-18 -49q-91 0 -182 84t-91 182q-1 76 35 137.5t98 104
t143.5 64.5t170.5 20q87 0 323 -39q59 -10 120 -18t118 -14.5t106 -11l84 -7.5q15 32 45 56.5t65.5 39t73 18.5t68.5 -4.5t50.5 -31.5t19.5 -61q0 -27 -17 -50t-47 -40t-71 -27.5t-89 -12.5z" />
    <glyph glyph-name="afii10104" unicode="&#x457;" horiz-adv-x="606" 
d="M41 135q0 73 49 205l174 479h236l-185 -497q-30 -84 -30 -134q0 -30 18 -46.5t51 -16.5q178 0 414 213l43 -53q-61 -64 -130 -117.5t-148 -98.5q-158 -89 -318 -89q-90 0 -132 43.5t-42 111.5zM176 984q-34 28 -34 76q0 47 40 80q40 32 92 32q23 0 44.5 -7t38 -21t26 -33
t9.5 -42q0 -49 -41 -80q-41 -32 -93 -32q-50 0 -82 27zM491 984q-33 28 -33 76q0 47 40 80q41 32 92 32q23 0 44.5 -7t38 -21t26 -33t9.5 -42q0 -49 -41 -80q-41 -32 -93 -32q-51 0 -83 27z" />
    <glyph glyph-name="A" unicode="A" horiz-adv-x="1990" 
d="M1829 508q-34 17 -74.5 35l-86.5 37l-43.5 -128.5l-36.5 -116.5t-25 -91t-9 -52q1 -55 61 -55q329 0 548 213l45 -53q-125 -123 -326 -214q-198 -91 -414 -91q-36 0 -66 10.5t-51.5 30t-34 46t-12.5 58.5q-2 33 11.5 96t45.5 163l37 112.5l52 153.5l-40.5 12.5
t-40.5 11.5q-82 -150 -175.5 -291.5t-195.5 -262.5q-66 -78 -133.5 -143t-137.5 -115q-50 -35 -120 -62.5t-145.5 -40t-149 -8t-131.5 34t-93 86t-33 147.5q1 49 22 92t53 77.5t70 60.5t74 42l61 -41q-19 -32 -36 -69.5t-27 -76t-11 -75t12.5 -66.5t44.5 -50.5t85 -26.5
q77 -9 150 12t142.5 65.5t135 110t126.5 145.5q69 91 150.5 213.5t163.5 265.5q-89 19 -174.5 25t-159.5 -9t-132 -54t-92 -109l-112 73q18 58 56.5 96.5t92 60.5t119.5 30t139 5t150 -16t153 -31l86 161.5t80 165.5t70.5 165.5t58.5 161.5l328 -2l-242 -775
q60 -25 101 -45.5t56 -32.5zM1600 1173q-41 -100 -89 -204.5t-105 -212.5l35 -10l34 -10l48.5 143l45.5 130l36.5 102l21.5 59z" />
    <glyph glyph-name="C" unicode="C" horiz-adv-x="1159" 
d="M716 1316q-84 -61 -152 -160q-49 -74 -89.5 -162t-69 -181t-44.5 -187t-16 -180q0 -152 59 -236.5t184 -84.5q87 0 167.5 15.5t152 43.5t133 67t111.5 87l45 -53q-132 -126 -326 -215q-194 -90 -406 -90q-106 0 -181 31.5t-118 91.5t-63 136.5t-20 176.5q0 95 22 197
t64 204q46 114 111.5 216t144.5 184t170 139.5t188 81.5q60 15 122.5 19t115.5 -8.5t90.5 -45t47.5 -89.5q11 -57 -3.5 -111t-45 -102.5t-72.5 -90t-86 -74t-85.5 -55t-70.5 -32.5l-111 9q63 33 118.5 83t93.5 108q29 44 43.5 92t13.5 91.5t-17 77.5t-46 49t-74 6.5
t-101 -49.5z" />
    <glyph glyph-name="D" unicode="D" horiz-adv-x="1897" 
d="M534 956q0 88 38 173.5t111.5 152.5t181 107.5t246.5 38.5q88 -2 167.5 -22.5t151.5 -56.5q52 35 110.5 64.5t124.5 56.5l18 -65q-89 -53 -155 -115q78 -55 140.5 -125.5t106.5 -150.5t67.5 -165.5t23.5 -170.5q0 -87 -16.5 -173t-49.5 -164t-82 -145t-114.5 -115.5
t-147 -76.5t-178.5 -28q-41 0 -83 10t-85 26.5t-86 39l-87 47.5l-12 6q-14 -13 -29 -23q-86 -74 -190.5 -116t-221.5 -42q-113 0 -195.5 21t-136.5 57t-80 84t-26 102q0 48 21 90.5t61 74.5t97.5 50.5t131.5 18.5q69 0 131.5 -12.5t122 -33t117 -47.5l115.5 -57
q24 44 44.5 91t38.5 98q-77 34 -148 80.5t-125 107.5t-86.5 137.5t-32.5 169.5zM1385 426l-9 -63q-45 -2 -109 5t-137 25q-25 -54 -54 -103.5t-64 -94.5q82 -28 159 -33q109 -7 198 33t153 119.5t100.5 196t39.5 262.5q1 75 -13 140.5t-40.5 122t-63.5 103t-81 83.5
q-42 -51 -74 -106.5t-58 -116.5t-47 -127.5t-40 -138.5q-17 -63 -36.5 -128.5t-45.5 -132.5q61 -18 118 -31t104 -15zM1118 1351q-112 -12 -188.5 -60.5t-119 -119t-52 -155.5t11.5 -170q25 -101 74 -171t115 -116l34.5 111.5l35.5 110.5q55 168 134 293.5t192 218.5
q-57 29 -117.5 43.5t-119.5 14.5zM432 313q-46 0 -82.5 -11t-61.5 -30t-38 -44t-13 -53q0 -30 16.5 -58.5t50.5 -52t86.5 -38t123.5 -15.5q91 17 157 63t117 112l-87 48.5t-87 40.5t-89 27.5t-93 10.5z" />
    <glyph glyph-name="E" unicode="E" horiz-adv-x="934" 
d="M665 877q42 9 91.5 33t99 57.5t95 74t81 81.5t56.5 81t21 72q0 39 -50 39q-29 0 -76 -14.5t-104.5 -40t-121 -61.5t-126 -79.5t-119.5 -93t-100.5 -102t-70 -107t-28.5 -108.5q-1 -29 9.5 -49.5t30.5 -33.5t47.5 -19t60.5 -6q45 0 92 11.5t96 36.5l-39 -132
q-74 -18 -116 -33t-66 -29q-41 -26 -71 -55.5t-49.5 -59.5t-29 -58.5t-9.5 -51.5q0 -57 42.5 -83.5t108.5 -26.5q55 0 120 17t130.5 49.5t125 78.5t103.5 103l50 -55q-57 -72 -134.5 -136.5t-168.5 -113t-191 -79t-203 -34.5q-53 0 -92.5 13.5t-66 37.5t-40 57.5t-13.5 73.5
q0 47 22 99t60.5 101t91 89.5t114.5 64.5h-6q-54 0 -99 13.5t-77.5 40t-50.5 64.5t-18 87q1 99 49.5 196t128.5 185t182.5 163.5t211.5 130.5t215 86t194 31q83 0 126.5 -42.5t43.5 -115.5q0 -99 -43.5 -189.5t-118 -161.5t-172.5 -116.5t-207 -54.5z" />
    <glyph glyph-name="K" unicode="K" horiz-adv-x="1568" 
d="M1402 1063q51 52 77.5 102t34.5 89.5t2 65.5t-21 29q-27 7 -66.5 -17t-86.5 -72t-98 -115t-100.5 -146t-95 -167t-80.5 -176q43 1 81 -4.5t65.5 -19t43.5 -35.5t15 -53q7 -33 -5 -78t-27 -94t-25.5 -98.5t-1.5 -90.5q10 -49 59 -40q90 -2 170.5 12.5t152 42t132.5 66.5
t112 87l45 -53q-132 -126 -325 -215q-194 -90 -406 -90q-38 -7 -74 -2t-65 22t-50 47t-30 74q-7 32 -2 70.5t16 79t25 80.5l26 76t19 65t3 47q-3 10 -23 13t-50 -0.5t-66 -12t-70 -20.5l-181 -532h-157l358 1347h-193q-91 0 -139.5 -43t-48.5 -119q0 -28 9 -49t21.5 -36
t25.5 -24t21 -13l9 -3l-19 -49q-57 3 -108 20t-91 57t-40 97q0 67 34.5 115.5t93.5 73.5t122 36t135 11h450l-273 -802q31 9 62.5 16t63.5 12l75 196.5t85.5 191.5t102 178.5t122.5 157.5q31 34 71 70t84.5 67t93 54.5t97.5 33t97 1.5t92 -39q26 -19 31 -57t-8.5 -86.5
t-45 -104.5t-79 -111.5t-110.5 -106.5t-138 -89z" />
    <glyph glyph-name="M" unicode="M" horiz-adv-x="2558" 
d="M2117 1057l-26.5 -44l-47 -77l-61 -99l-67.5 -110l-66.5 -109l-59 -96l-44.5 -72.5l-23 -37.5l-52.5 -87.5l-59.5 -100.5l-63.5 -110l-64.5 -114h-182l289 1198q-46 -118 -105 -246t-128 -257.5t-147.5 -255t-163.5 -237.5t-176.5 -205.5t-186.5 -158.5
q-88 -60 -185.5 -92t-188.5 -28q-85 4 -143 37.5t-90 85t-37.5 113t15 121.5t67.5 111t119 81l61 -40q-18 -32 -35 -70t-27 -76.5t-11 -75t13 -66t45.5 -49.5t85.5 -25q77 -7 150 16t142 69t134 113t125 148q75 101 162 231t172 278t160 308t125 322h-219q-91 -2 -137 -46
t-41 -120q2 -28 12 -49t23.5 -35.5t27 -23t21.5 -12.5l9 -3l-16 -50q-57 2 -109 18t-94 55t-45 96q-4 67 27 116t89 76q57 26 119.5 38.5t134.5 14.5l545 1l-220 -898l449 797h286l-94.5 -389l-73.5 -291.5l-55 -207.5l-37.5 -137l-21.5 -79.5t-7 -35.5q0 -56 60 -53
q328 9 552 230l44 -52q-130 -128 -330 -224q-202 -98 -416 -104q-36 -1 -65.5 8.5t-51 28.5t-33 45t-11.5 58q0 33 14.5 96.5t48.5 164.5z" />
    <glyph glyph-name="O" unicode="O" horiz-adv-x="999" 
d="M19 282q0 233 158 517q-20 39 -31 81.5t-11 87.5q0 98 44 190.5t125.5 164t198 114.5t262.5 43q67 0 123 -20.5t95.5 -64t61.5 -110.5t22 -160q0 -112 -34 -260q-20 -79 -44.5 -153.5t-56.5 -150.5q57 -3 105.5 -3t93 4t87 10.5t86.5 17.5l28 -54q-3 -1 -31.5 -13
t-84 -25t-136.5 -21.5t-189 -2.5q-51 -109 -111 -197t-133 -161q-75 -74 -159.5 -114.5t-172.5 -40.5q-87 0 -144.5 28.5t-91 74t-47 103t-13.5 115.5zM338 625q-15 -36 -31 -90t-27 -114t-14.5 -120t7.5 -108.5t40 -78.5t82 -30q54 0 106.5 31.5t99 85.5t87 126.5
t70.5 155.5q-260 35 -420 142zM388 1282q-102 -98 -102 -231q0 -37 7 -69q145 211 324 351l75 -76q-82 -79 -161 -204q-40 -64 -74.5 -132t-64.5 -140q139 -156 392 -204q80 267 80 488q0 94 -20 157t-55 99.5t-81.5 48.5t-99.5 4.5t-109 -32t-111 -60.5z" />
    <glyph glyph-name="afii10108" unicode="&#x45b;" horiz-adv-x="1710" 
d="M1854 1237q-28 14 -81 27t-125 22t-158 13t-180 0l-86 -210l-111 -269q55 43 107.5 59.5t98.5 17.5t83.5 -8.5t61.5 -19.5q44 -18 75.5 -55.5t50.5 -87.5t25 -110.5t0 -124.5q-2 -11 -3.5 -29t-3.5 -29l81.5 22t89 22t85 16.5t69.5 5.5l-15 -85q-30 3 -74.5 -1t-92 -13
t-92 -20.5t-73.5 -22.5q-23 -60 -57.5 -112.5t-77.5 -95.5t-90.5 -76t-95.5 -54.5t-94.5 -30.5t-85.5 -5q-64 2 -99.5 19.5t-47.5 43.5t-3.5 58.5t33.5 65.5t64.5 63.5t88.5 52.5l118 50t136 50q13 47 20 92t9 86q3 95 -15.5 149.5t-50.5 75.5t-75 13t-87 -37.5t-87 -77.5
t-75 -106l-341 -828h-159l489 1345l63 175q-108 -18 -211 -51.5t-192 -85t-158.5 -123t-108.5 -167.5q-12 -29 -17.5 -56.5t-2 -52.5t17 -45.5t40.5 -34.5q57 2 115.5 34t111 79.5t95 103.5t66.5 106l69 -11q-27 -76 -67.5 -139t-90 -113.5t-104.5 -89t-110 -64
t-107.5 -39.5t-96.5 -15q-57 -2 -89 24t-41.5 70t1.5 101.5t41 119.5q55 117 147 207.5t208 158t249.5 112.5t270.5 71l58 158l254 19l-60 -145q164 12 308.5 0.5t249.5 -41.5zM1153 230q-44 -25 -71 -55t-36 -56.5t1.5 -44t40.5 -17.5q45 -3 84.5 17t72.5 55.5t60 83.5
t47 102q-60 -20 -110.5 -42t-88.5 -43z" />
    <glyph glyph-name="afii10193" unicode="&#x45f;" horiz-adv-x="1470" 
d="M1304 1559q-42 -26 -75 -57t-61 -66q97 -3 188.5 -23t162 -57.5t113 -95t42.5 -135.5q0 -96 -30 -177t-81.5 -148t-121 -120t-148.5 -93t-163.5 -67t-165.5 -42l-18 70q115 25 205 77t152.5 125t96 164.5t35.5 196.5q1 65 -25.5 111.5t-71 77.5t-101.5 46.5t-118 18.5
q-53 -90 -82 -195t-48.5 -217.5t-37 -227.5t-47.5 -224.5t-79.5 -208t-133.5 -178.5q-33 -31 -74.5 -56t-89.5 -42.5t-101 -26.5t-108 -8q-56 0 -106 15.5t-87.5 45.5t-59 73t-21.5 98q0 49 16 93.5t42.5 81.5t60.5 66t69 48l49 -37q-65 -113 -65 -236q0 -57 30.5 -97.5
t90.5 -43.5q65 -3 113.5 24.5t85.5 75.5q63 81 106.5 175.5t75.5 196.5t58.5 207.5t57.5 208.5t70.5 200.5t97.5 182.5q-83 -12 -163.5 -42.5t-144 -76t-102.5 -103.5t-39 -123q0 -37 10 -62.5t24.5 -42.5t29 -26.5t23.5 -13.5l11 -3l-20 -50q-7 0 -16.5 0.5t-38.5 4.5
t-55.5 10.5t-58.5 20.5q-22 9 -42.5 22t-36 30.5t-24.5 40t-9 50.5q0 77 29.5 138.5t80.5 108.5t119 81.5t145.5 57.5t160.5 36t163 18h13q61 72 143 126z" />
    <glyph glyph-name="H" unicode="H" horiz-adv-x="1494" 
d="M1734 382q-44 -35 -102 -64t-128 -52t-148.5 -40t-162.5 -28l-78 -198h-173q16 55 27 87l17.5 50t8.5 25.5t1 13.5q-39 -2 -80.5 -2t-83.5 1t-82.5 3t-77.5 5l-185 -468h-159l167 488q-46 8 -89 17t-81 21q-84 25 -142.5 66.5t-93 90t-44.5 99.5t2 96q17 61 50.5 101.5
t78.5 63t99 29.5t112 1t118 -23.5t118 -44.5q11 -5 21 -10.5l21 -11.5l258 752h251l-344 -868q74 -64 130 -137t85 -142l392 1149h249l-460 -1169q143 26 273.5 73.5t233.5 122.5zM438 318q20 -8 41.5 -15t45.5 -13l108 315q-87 50 -154 55.5t-111 -17.5t-63.5 -67.5
t-12 -93t43 -93.5t102.5 -71zM792 486l-89 -225q60 -6 124 -8t131 1q-25 63 -68.5 122t-97.5 110z" />
    <glyph glyph-name="Q" unicode="Q" horiz-adv-x="1122" 
d="M-20 336q0 366 247 631q-1 10 -1.5 24t-0.5 33q0 128 59 229q58 100 151 151q94 50 202 50q182 0 293 -124q110 -125 110 -324q0 -202 -74 -403q-73 -198 -200 -351q92 -96 236.5 -215.5t345.5 -265.5l-29 -45q-375 199 -635 436q-196 -182 -410 -182q-294 0 -294 356z
M242 350q0 -115 34 -170t107 -55q105 0 207 129q-204 215 -299 451q-49 -160 -49 -355zM426 1135q112 71 236 120l34 -63q-159 -85 -266 -219q12 -178 66 -320q54 -143 168 -286q75 133 120 310q45 175 45 353q0 171 -37.5 257.5t-132.5 86.5q-103 0 -164.5 -62t-68.5 -177z
" />
    <glyph glyph-name="NULL" horiz-adv-x="1024" 
 />
    <glyph glyph-name="NULL" horiz-adv-x="1024" 
 />
    <glyph glyph-name="afii10097" unicode="&#x44f;" horiz-adv-x="1251" 
d="M430 165q55 34 106.5 86.5t93.5 115.5q-68 -5 -126 4t-99.5 34t-63.5 67.5t-18 104.5q3 46 19 91t42.5 85t61.5 74t75 58.5t84.5 38.5t89.5 14t78.5 -15t55.5 -42t32.5 -63.5t7.5 -78.5q-1 -20 -5.5 -52t-12 -68.5t-18.5 -73.5t-25 -67q-1 -2 1.5 -2h23.5t68 -0.5
l134 -1.5l-66 -152q-30 -84 -30 -134q0 -30 18 -46.5t51 -16.5q118 0 258 91q73 47 156 122l43 -53q-61 -64 -130 -117.5t-148 -98.5q-158 -89 -318 -89q-90 0 -132 43.5t-42 111.5q0 74 49 205l19 46q-8 0 -11.5 -2t-7.5 -6q-58 -92 -109.5 -161t-109.5 -115
q-76 -63 -150 -90t-143 -28q-60 -5 -102 14.5t-65.5 54t-27.5 79t13 88.5t55 83.5t98 63.5l51 -25q-29 -50 -35 -89.5t3.5 -68t32 -45t51.5 -20t61.5 7.5t62.5 38zM770 734q1 20 -2 39t-10.5 34t-21 24t-33.5 9q-33 -1 -65 -28t-57.5 -67.5t-42.5 -88t-19 -89.5
q-1 -17 1 -36.5t17.5 -36t49 -28t95.5 -12.5q38 73 61 148.5t27 131.5z" />
    <glyph glyph-name="afii10107" unicode="&#x45a;" horiz-adv-x="694" 
d="M1058 1087q-82 -59 -182 -95t-206.5 -54t-213.5 -20t-203 7q33 -23 67 -50t66 -58l222 106l-85 -268l6 -10l6 -10q37 -62 59 -129t25.5 -137.5t-14.5 -143.5t-62 -145t-115.5 -143t-175.5 -137l-3 -9l-223 2l326 953q-47 48 -98 88t-100 70t-92.5 48.5t-74.5 23.5l3 1
l-10.5 4l-10.5 4l145 210q17 -28 71.5 -54.5t131.5 -47t170 -32t187 -8t181 24.5t153 65zM490 553l-201 -636q98 85 154.5 167.5t78.5 162.5t12 156.5t-44 149.5z" />
    <glyph glyph-name="afii10084" unicode="&#x442;" horiz-adv-x="694" 
d="M1058 1087q-82 -59 -182 -95t-206.5 -54t-213.5 -20t-203 7q33 -23 67 -50t66 -58l222 106l-85 -268l6 -10l6 -10q37 -62 59 -129t25.5 -137.5t-14.5 -143.5t-62 -145t-115.5 -143t-175.5 -137l-3 -9l-223 2l326 953q-47 48 -98 88t-100 70t-92.5 48.5t-74.5 23.5l3 1
l-10.5 4l-10.5 4l145 210q17 -28 71.5 -54.5t131.5 -47t170 -32t187 -8t181 24.5t153 65zM490 553l-201 -636q98 85 154.5 167.5t78.5 162.5t12 156.5t-44 149.5z" />
    </font>
</defs>
</svg>
