<?xml version="1.0" standalone="no"?>
<!DOCTYPE svg PUBLIC "-//W3C//DTD SVG 20010904//EN"
 "http://www.w3.org/TR/2001/REC-SVG-20010904/DTD/svg10.dtd">
<svg version="1.0" xmlns="http://www.w3.org/2000/svg"
 width="256.000000pt" height="256.000000pt" viewBox="0 0 256.000000 256.000000"
 preserveAspectRatio="xMidYMid meet">
<metadata>
Created by potrace 1.11, written by Peter Selinger 2001-2013
</metadata>
<g transform="translate(0.000000,256.000000) scale(0.100000,-0.100000)"
fill="#000000" stroke="none">
<path d="M590 2063 c-53 -9 -158 -46 -215 -76 -35 -18 -92 -64 -136 -108 -63
-62 -85 -93 -122 -170 -61 -127 -78 -205 -73 -349 6 -180 54 -291 178 -411
104 -101 224 -148 371 -147 79 1 168 23 222 55 31 18 12 25 -36 14 -110 -25
-277 4 -398 71 -178 97 -283 281 -283 498 0 348 275 597 597 541 203 -36 373
-166 484 -371 63 -118 99 -239 136 -462 4 -24 -2 -30 -70 -67 -195 -107 -328
-263 -339 -396 -6 -68 14 -112 60 -131 20 -8 38 -14 39 -12 2 2 -5 29 -16 61
-53 157 36 307 243 412 48 24 89 41 92 37 15 -24 26 -382 16 -494 -3 -32 -5
-58 -4 -58 1 0 89 87 196 192 107 106 264 259 349 340 185 177 284 314 304
422 6 29 25 55 84 114 92 92 160 180 210 271 l37 67 -455 -2 -455 -2 -44 -51
c-35 -41 -40 -51 -25 -52 91 -3 246 -41 329 -80 34 -16 84 -49 112 -74 51 -46
102 -131 102 -170 0 -25 -119 -103 -252 -165 -110 -51 -370 -142 -379 -132 -3
4 -14 50 -24 102 -80 427 -272 686 -572 768 -64 18 -202 26 -263 15z m1784
-270 c-22 -51 -105 -172 -147 -212 l-36 -34 -10 40 c-21 78 -97 157 -195 205
l-48 23 98 5 c55 3 156 6 226 7 l127 3 -15 -37z m-334 -475 c-47 -94 -99 -158
-254 -313 -150 -149 -322 -315 -328 -315 -2 0 -3 92 -3 205 l0 205 153 50 c84
28 184 66 221 85 67 33 192 114 219 142 27 26 24 5 -8 -59z"/>
</g>
</svg>
