<?xml version="1.0" standalone="no"?>
<!DOCTYPE svg PUBLIC "-//W3C//DTD SVG 20010904//EN"
 "http://www.w3.org/TR/2001/REC-SVG-20010904/DTD/svg10.dtd">
<svg version="1.0" xmlns="http://www.w3.org/2000/svg"
 width="256.000000pt" height="256.000000pt" viewBox="0 0 256.000000 256.000000"
 preserveAspectRatio="xMidYMid meet">
<metadata>
Created by potrace 1.11, written by Peter Selinger 2001-2013
</metadata>
<g transform="translate(0.000000,256.000000) scale(0.100000,-0.100000)"
fill="#000000" stroke="none">
<path d="M572 2113 c-5 -21 -29 -117 -52 -213 -69 -285 -257 -825 -378 -1090
-82 -178 -93 -206 -87 -227 7 -29 110 -140 148 -159 30 -16 39 -15 261 21 75
13 203 20 328 19 119 -1 137 1 141 16 9 33 -3 116 -24 168 l-22 53 -70 -6
c-38 -4 -120 -18 -181 -31 -168 -36 -305 -58 -313 -51 -12 12 51 205 122 372
7 17 45 113 85 215 126 327 221 563 266 659 25 52 42 102 39 111 -16 49 -157
157 -227 174 -25 6 -28 3 -36 -31z"/>
<path d="M2245 2118 c-27 -4 -86 -10 -130 -14 -44 -4 -93 -8 -110 -11 -16 -2
-145 -5 -285 -7 l-255 -4 -9 -45 c-7 -37 -6 -52 11 -83 19 -38 66 -70 113 -77
21 -3 24 -9 22 -33 -6 -45 -60 -220 -103 -334 l-40 -105 -90 -25 c-52 -14 -89
-29 -89 -37 0 -20 57 -79 89 -92 l28 -12 -34 -92 c-63 -168 -124 -321 -175
-440 l-50 -118 25 -37 c59 -87 139 -147 184 -138 128 26 350 43 578 44 l240 1
3 46 c3 50 -21 136 -45 160 -14 15 -66 15 -183 0 -19 -2 -60 -7 -90 -10 -74
-8 -423 -66 -432 -72 -35 -21 91 384 187 600 24 54 25 56 72 62 26 4 59 9 73
11 94 15 139 19 252 19 l126 0 6 26 c12 61 -13 125 -60 156 -30 19 -120 24
-212 12 -32 -4 -75 -9 -98 -12 l-41 -4 52 116 c155 344 156 346 216 350 23 1
46 4 49 6 16 10 187 19 327 18 l151 -1 -14 41 c-24 68 -62 124 -92 136 -30 13
-81 12 -167 -1z"/>
</g>
</svg>
