<?xml version="1.0" standalone="no"?>
<!DOCTYPE svg PUBLIC "-//W3C//DTD SVG 20010904//EN"
 "http://www.w3.org/TR/2001/REC-SVG-20010904/DTD/svg10.dtd">
<svg version="1.0" xmlns="http://www.w3.org/2000/svg"
 width="128.000000pt" height="128.000000pt" viewBox="0 0 128.000000 128.000000"
 preserveAspectRatio="xMidYMid meet">
<metadata>
Created by potrace 1.11, written by Peter Selinger 2001-2013
</metadata>
<g transform="translate(0.000000,128.000000) scale(0.100000,-0.100000)"
fill="#000000" stroke="none">
<path d="M355 1124 c-151 -67 -269 -125 -281 -139 -21 -23 -22 -31 -22 -299 0
-252 2 -278 19 -300 10 -12 93 -74 184 -137 91 -63 190 -131 218 -152 50 -36
92 -55 103 -44 8 7 8 30 0 167 -3 69 -9 183 -12 255 -6 150 -6 153 -22 183
-12 21 -90 78 -103 75 -4 -1 -15 7 -24 17 -10 11 -22 20 -26 20 -5 0 -55 30
-111 66 -121 78 -126 66 61 152 64 29 154 72 201 94 58 27 93 38 111 34 15 -3
73 -27 130 -54 57 -28 150 -71 207 -98 56 -27 102 -54 102 -61 0 -11 -59 -50
-249 -163 -33 -19 -69 -44 -81 -55 -44 -40 -43 -32 -56 -365 -11 -294 -13
-265 16 -264 15 0 98 51 210 129 102 71 204 142 228 158 67 46 68 51 66 332
-1 138 -2 259 -3 271 -2 34 -31 59 -111 94 -79 34 -131 57 -270 120 -47 21
-106 48 -132 59 -26 12 -57 21 -70 21 -13 0 -140 -52 -283 -116z"/>
<path d="M501 940 c-63 -33 -118 -65 -122 -71 -10 -17 1 -26 146 -117 55 -35
77 -29 71 18 -3 31 0 38 27 59 27 21 57 -11 57 -60 0 -21 5 -39 13 -42 6 -2
44 16 82 41 39 24 82 52 97 61 30 17 35 33 16 48 -33 26 -231 123 -251 123
-12 0 -73 -27 -136 -60z"/>
</g>
</svg>
