<?xml version="1.0" standalone="no"?>
<!DOCTYPE svg PUBLIC "-//W3C//DTD SVG 1.1//EN" "http://www.w3.org/Graphics/SVG/1.1/DTD/svg11.dtd" >
<svg>
<metadata>
Created by FontForge 20090622 at Tue Jul  3 11:37:51 2018
 By deploy user
Copyright (c) 2009 by Letterhead Studio. All rights reserved.
</metadata>
<defs>
<font id="21Cent-Bold" horiz-adv-x="677" >
  <font-face 
    font-family="21 Cent"
    font-weight="700"
    font-stretch="normal"
    units-per-em="1000"
    panose-1="2 0 8 5 0 0 0 2 0 4"
    ascent="787"
    descent="-213"
    x-height="458"
    cap-height="722"
    bbox="-139 -333 1237 994"
    underline-thickness="50"
    underline-position="-50"
    unicode-range="U+0020-U+FB02"
  />
<missing-glyph horiz-adv-x="224" 
 />
    <glyph glyph-name="fi" unicode="fi" horiz-adv-x="681" 
d="M429 85v280q0 28 -9.5 37t-41.5 9h-133v-326q0 -27 8 -36.5t31 -9.5h31v-39h-287v39h38q24 0 31.5 11t7.5 44v317h-75v47h75v45q0 77 52 148q28 39 81 62t121 23q88 0 147 -21q71 -25 71 -99q0 -30 -20.5 -49t-58.5 -19q-30 0 -51.5 20t-21.5 49q0 37 38 63
q-39 18 -99 18q-59 0 -89 -39.5t-30 -129.5v-71h105l219 13v-386q0 -27 8 -36.5t31 -9.5h51v-39h-294v39h24q24 0 32 9.5t8 36.5z" />
    <glyph glyph-name="fl" unicode="fl" horiz-adv-x="679" 
d="M659 39v-39h-294v39h24q24 0 32 9.5t8 36.5v555q0 28 -8 37t-34 9h-35q-48 0 -77.5 -33t-29.5 -99v-96h105v-47h-105v-326q0 -27 8 -36.5t31 -9.5h35v-39h-291v39h38q23 0 31 9.5t8 36.5v326h-75v47h75v45q0 38 11 72.5t36.5 68.5t76.5 55.5t123 25.5l217 12v-652
q0 -27 8 -36.5t31 -9.5h51z" />
    <glyph glyph-name=".notdef" horiz-adv-x="224" 
 />
    <glyph glyph-name=".null" horiz-adv-x="0" 
 />
    <glyph glyph-name="nonmarkingreturn" horiz-adv-x="333" 
 />
    <glyph glyph-name="space" unicode=" " horiz-adv-x="287" 
 />
    <glyph glyph-name="exclam" unicode="!" horiz-adv-x="282" 
d="M160 246h-40q-7 82 -32 216q-23 132 -23 192q0 82 75 82t75 -82q0 -64 -24 -193q-24 -138 -31 -215zM89 8q-21 21 -21 51t21 51q21 22 51 22t51 -22q21 -21 21 -51t-21 -51q-21 -20 -51 -20t-51 20z" />
    <glyph glyph-name="quotedbl" unicode="&#x22;" horiz-adv-x="411" 
d="M239 522l-24 13q17 96 40 169q9 32 54 32q20 0 31 -11.5t11 -30.5q0 -45 -112 -172zM83 522l-23 13q14 85 39 169q11 32 55 32q18 0 30 -12t12 -30q0 -47 -113 -172z" />
    <glyph glyph-name="numbersign" unicode="#" horiz-adv-x="736" 
d="M423 294l46 147h-155l-46 -147h155zM660 230h-195l-71 -230h-63l72 230h-155l-71 -230h-62l72 230h-127v64h147l45 147h-176v64h197l73 231h61l-73 -231h155l74 231h61l-73 -231h125v-64h-145l-46 -147h175v-64z" />
    <glyph glyph-name="dollar" unicode="$" horiz-adv-x="658" 
d="M353 692v-248q55 -16 74 -23q27 -10 67 -30q39 -19 62 -42q55 -55 55 -137q0 -101 -76 -159q-74 -57 -182 -65v-65h-56v63q-114 8 -186 83l-25 -83h-32l-14 288h35q21 -118 84 -178q62 -59 138 -70v260q-40 12 -88 31q-29 12 -72 40q-76 52 -76 157q0 102 62.5 160
t173.5 62v76h56v-78q91 -10 154 -76l26 77h31l12 -265h-39q-18 99 -67 153.5t-117 68.5zM474 138q0 46 -30 76t-91 51v-238q57 6 89 34t32 77zM187 582q0 -76 110 -117v231q-49 -4 -79.5 -34t-30.5 -80z" />
    <glyph glyph-name="percent" unicode="%" horiz-adv-x="784" 
d="M479 36q-37 52 -37 130q0 79 37 129q37 52 108 52q70 0 107 -52q38 -52 38 -129t-38 -130q-38 -51 -107 -51q-71 0 -108 51zM528 166q0 -77 13.5 -114t45.5 -37t45.5 37t13.5 114q0 152 -59 152t-59 -152zM89 380q-37 52 -37 130q0 79 37 129q37 52 108 52q70 0 107 -52
q38 -52 38 -129t-38 -130q-38 -51 -107 -51q-71 0 -108 51zM197 358q60 0 60 152t-60 152q-59 0 -59 -152t59 -152zM675 677l-498 -677h-67l499 677h66z" />
    <glyph glyph-name="ampersand" unicode="&#x26;" horiz-adv-x="867" 
d="M792 194h39q-1 -86 -51 -148q-50 -60 -130 -60q-73 0 -140 58q-89 -58 -206 -58q-53 0 -98 10t-83 31t-60 59t-22 90q0 67 47.5 115.5t150.5 100.5q-60 104 -60 173q0 81 60.5 128t169.5 47q85 0 133.5 -33.5t48.5 -103.5q0 -54 -40 -94q-18 -18 -45 -35q-29 -18 -52 -29
l-60 -27q99 -139 187 -242q26 34 44 76q21 47 21 76q0 42 -54 42h-61v39h280v-39h-32q-67 0 -89 -66q-31 -92 -80 -160q66 -71 109 -71q63 0 73 121zM347 33q60 0 124 42q-87 89 -208 278q-87 -59 -87 -133q0 -71 52 -129t119 -58zM312 592q0 -53 55 -135q63 36 93.5 70.5
t30.5 77.5q0 40 -22 67.5t-54 27.5q-44 0 -73.5 -30t-29.5 -78z" />
    <glyph glyph-name="quotesingle" unicode="'" horiz-adv-x="256" 
d="M83 522l-23 13q14 85 39 169q11 32 55 32q18 0 30 -12t12 -30q0 -47 -113 -172z" />
    <glyph glyph-name="parenleft" unicode="(" horiz-adv-x="396" 
d="M357 -95l-24 -33q-271 138 -271 475t271 475l24 -33q-100 -90 -136 -187q-35 -99 -35 -255t35 -255q36 -97 136 -187z" />
    <glyph glyph-name="parenright" unicode=")" horiz-adv-x="396" 
d="M39 789l24 33q271 -138 271 -475t-271 -475l-24 33q100 89 136 186q36 98 36 256q0 159 -36 255q-36 97 -136 187z" />
    <glyph glyph-name="asterisk" unicode="*" horiz-adv-x="493" 
d="M443 578q0 -26 -17 -32q-15 -5 -66 -7t-94 -12q16 -20 52 -49q37 -28 53 -44.5t16 -33.5q0 -15 -15 -29t-32 -14q-29 0 -42 43q-12 59 -50 116q-31 -47 -51 -116q-9 -43 -41 -43q-17 0 -32 14t-15 29q0 18 18 35q13 13 50 43q35 27 53 49q-43 10 -94 12q-53 1 -68 7.5
t-15 31.5q0 22 12 34.5t30 12.5q27 0 74 -34q47 -32 68 -42q-3 44 -17 89t-14 57q0 42 42 42t42 -42q0 -12 -14 -57t-17 -89q21 10 68 42q47 34 74 34q18 0 30 -12.5t12 -34.5z" />
    <glyph glyph-name="plus" unicode="+" horiz-adv-x="578" 
d="M320 298v-187h-62v187h-188v63h188v188h62v-188h188v-63h-188z" />
    <glyph glyph-name="comma" unicode="," horiz-adv-x="270" 
d="M210 29q0 -51 -38 -101q-38 -52 -93 -77l-16 22q75 53 75 105q0 9 -1 12q-33 0 -55 19t-22 50q0 30 21 51.5t51 21.5q37 0 57.5 -29.5t20.5 -73.5z" />
    <glyph glyph-name="hyphen" unicode="-" horiz-adv-x="438" 
d="M375 301v-70h-313v70h313z" />
    <glyph glyph-name="period" unicode="." horiz-adv-x="263" 
d="M81 8q-21 21 -21 51t21 51q21 22 51 22t50 -22q21 -21 21 -51t-21 -51q-20 -20 -50 -20t-51 20z" />
    <glyph glyph-name="slash" unicode="/" horiz-adv-x="373" 
d="M373 722l-283 -722h-90l282 722h91z" />
    <glyph glyph-name="zero" unicode="0" horiz-adv-x="658" 
d="M425 111q28 85 28 250t-28 249q-29 87 -96 87t-96 -87q-28 -84 -28 -249t28 -250q29 -86 96 -86t96 86zM617 361q0 -107 -29.5 -189.5t-96 -134.5t-162.5 -52t-162.5 52t-96 134.5t-29.5 189.5q0 165 72 270q73 105 216 105t215 -105q73 -104 73 -270z" />
    <glyph glyph-name="one" unicode="1" horiz-adv-x="659" 
d="M372 736h33v-634q0 -37 11.5 -50t40.5 -13h99v-39h-454v39h99q29 0 40.5 13t11.5 50v434q0 33 -6 45.5t-22 12.5q-1 0 -8 -1t-12 -1l-95 -18v39q140 30 190 56q50 27 72 67z" />
    <glyph glyph-name="two" unicode="2" horiz-adv-x="659" 
d="M139 593q8 6 28 6q30 0 48 -21t18 -54q0 -31 -22.5 -53t-54.5 -22q-33 0 -56 26.5t-23 62.5q0 46 16.5 82t42 58t60.5 36.5t68 20t67 5.5q100 0 161 -58q63 -58 63 -146q0 -101 -65 -178q-67 -79 -257 -200q-31 -19 -31 -28q0 -7 75 -7h196q35 0 46 21q12 25 37 132h39
l-18 -276h-512v39l238 263q103 113 103 251q0 65 -37.5 102.5t-93.5 37.5q-57 0 -97 -33q-39 -32 -39 -67z" />
    <glyph glyph-name="three" unicode="3" horiz-adv-x="659" 
d="M582 187q0 -89 -77 -146q-77 -56 -190 -56q-66 0 -119 17q-115 33 -119 167q0 31 22 53.5t53 22.5q32 0 54 -22.5t22 -53.5t-22 -52.5t-53 -21.5q-7 0 -9 1q38 -68 141 -68q67 0 105.5 44t38.5 127q0 143 -115 143q-11 0 -38 -4q-28 -3 -44 -3q-9 0 -16.5 7.5t-7.5 19.5
t7.5 19.5t16.5 7.5q13 0 41 -4q31 -3 41 -3q46 0 73.5 47.5t27.5 124.5q0 68 -31.5 103.5t-85.5 35.5q-105 0 -139 -79q7 3 15 3q31 0 53.5 -22.5t22.5 -54.5q0 -31 -22.5 -53t-53.5 -22t-53.5 22.5t-22.5 53.5q0 113 80 158q67 37 156 37q105 0 166 -52q63 -52 63 -131
q0 -66 -46 -119q-46 -55 -127 -68q192 -22 192 -179z" />
    <glyph glyph-name="four" unicode="4" horiz-adv-x="658" 
d="M452 736h32v-487h130v-71h-130v-76q0 -37 11.5 -50t40.5 -13h72v-39h-404v39h77q29 0 40.5 13t11.5 50v76h-302v71zM333 249v299l-246 -299h246z" />
    <glyph glyph-name="five" unicode="5" horiz-adv-x="659" 
d="M582 237q0 -111 -77 -182q-76 -70 -190 -70q-64 0 -118 17q-122 42 -122 167q0 31 22.5 53.5t52.5 22.5q32 0 54.5 -22.5t22.5 -53.5q0 -32 -23 -53t-54 -21l-3 1h-4q38 -68 142 -68q64 0 104 55t40 145q0 89 -40 138.5t-102 49.5q-80 0 -125 -51q-5 -56 -38 -56
q-14 0 -22 9.5t-8 22.5q0 23 28 50l25 338q122 -27 268 -27q93 0 139 24l17 9q2 0 2 -3q0 -61 -65 -111q-64 -48 -159 -48q-73 0 -167 20l-16 -171q58 36 142 36q73 0 128 -19.5t85.5 -52.5t45.5 -70.5t15 -78.5z" />
    <glyph glyph-name="six" unicode="6" horiz-adv-x="658" 
d="M601 236q0 -111 -79 -181q-77 -70 -191 -70q-143 0 -209 97q-65 98 -65 264q0 167 87 278q88 112 238 112q66 0 124 -35q58 -34 58 -98q0 -33 -22 -55t-54 -22q-30 0 -52.5 22t-22.5 53q0 24 15.5 42.5t41.5 25.5q-27 32 -88 32q-84 0 -128 -90t-44 -259q57 95 162 95
q115 0 172 -62q57 -61 57 -149zM331 25q53 0 85 44t32 157q0 79 -30 125.5t-83 46.5q-57 0 -88 -54q-32 -53 -32 -129q0 -190 116 -190z" />
    <glyph glyph-name="seven" unicode="7" horiz-adv-x="658" 
d="M622 722v-39q-119 -200 -163 -324q-42 -121 -57 -276q-11 -98 -81 -98q-42 0 -64 26.5t-22 74.5q0 197 293 513h-321q-21 -2 -29.5 -4.5t-19 -20t-18 -43.5t-22.5 -86h-39l33 277h510z" />
    <glyph glyph-name="eight" unicode="8" horiz-adv-x="635" 
d="M554 574q0 -111 -142 -163q88 -39 130 -83t42 -114q0 -107 -85 -168t-201 -61q-114 0 -181 50q-66 51 -66 131q0 122 144 180q-60 36 -90 79.5t-30 106.5q0 102 73 153q74 51 192 51q98 0 156 -44.5t58 -117.5zM438 145q-3 36 -18 59.5t-48 45.5q-25 17 -40 24l-49 25
l-48 24q-97 -66 -97 -146q0 -70 44.5 -111t116.5 -41q139 0 139 120zM208 577q0 -57 51 -91q30 -20 48 -29q39 -18 64 -28q96 67 96 139q0 64 -34.5 96.5t-95.5 32.5q-50 0 -90 -32q-39 -31 -39 -88z" />
    <glyph glyph-name="nine" unicode="9" horiz-adv-x="658" 
d="M601 368q0 -163 -88 -273q-89 -110 -239 -110q-80 0 -132 37q-51 37 -51 92q0 33 20.5 54.5t49.5 21.5q30 0 51.5 -19.5t21.5 -48.5q0 -24 -12.5 -43.5t-33.5 -26.5q25 -31 86 -31q86 0 130 92q44 93 44 248q-53 -86 -162 -86q-113 0 -172 62q-57 61 -57 149
q0 110 78 180q79 70 192 70q73 0 127 -28.5t85.5 -80t46.5 -116t15 -143.5zM327 697q-117 0 -117 -201q0 -80 30 -126.5t83 -46.5q56 0 88.5 49t32.5 128q0 95 -30 146t-87 51z" />
    <glyph glyph-name="colon" unicode=":" horiz-adv-x="261" 
d="M78 341q-21 21 -21 51t21 51t51 21t51 -21t21 -51t-21 -51q-21 -20 -51 -20t-51 20zM78 8q-21 21 -21 51t21 51q21 22 51 22t51 -22q21 -21 21 -51t-21 -51q-21 -20 -51 -20t-51 20z" />
    <glyph glyph-name="semicolon" unicode=";" horiz-adv-x="268" 
d="M78 341q-21 21 -21 51t21 51t51 21t51 -21t21 -51t-21 -51q-21 -20 -51 -20t-51 20zM57 59q0 30 21 51.5t51 21.5q37 0 58 -30t21 -73q0 -51 -38 -101q-38 -52 -93 -77l-17 22q63 43 74 90q3 9 1 27q-25 -1 -44 10q-34 19 -34 59z" />
    <glyph glyph-name="less" unicode="&#x3c;" horiz-adv-x="591" 
d="M521 165v-70l-451 221v26l451 220v-70l-338 -163z" />
    <glyph glyph-name="equal" unicode="=" horiz-adv-x="578" 
d="M508 419v-62h-438v62h438zM508 301v-63h-438v63h438z" />
    <glyph glyph-name="greater" unicode="&#x3e;" horiz-adv-x="591" 
d="M521 342v-26l-451 -221v70l339 164l-339 163v70z" />
    <glyph glyph-name="question" unicode="?" horiz-adv-x="547" 
d="M497 563q0 -45 -15 -79q-3 -7 -6.5 -13.5t-8 -12.5t-7.5 -10.5t-10 -10t-9.5 -8t-11 -8.5l-10.5 -7.5t-12 -8.5t-12 -8l-53 -35q-59 -38 -77 -116h-41q0 82 43 141q2 3 15.5 21t17 23l14 21t14 25.5t9.5 24.5t8 30t2 31q0 62 -34.5 99t-89.5 37q-39 0 -67.5 -19.5
t-40.5 -52.5q25 -2 43 -20.5t18 -43.5q0 -28 -19.5 -47.5t-47.5 -19.5q-30 0 -49.5 20t-19.5 52q0 70 57 119q56 49 172 49q105 0 166 -52q62 -53 62 -121zM194 8q-21 21 -21 51t21 51q21 22 51 22t51 -22q21 -21 21 -51t-21 -51q-21 -20 -51 -20t-51 20z" />
    <glyph glyph-name="at" unicode="@" horiz-adv-x="799" 
d="M724 119l25 -17q-53 -98 -151 -144q-98 -48 -212 -48q-150 0 -243 97t-93 240q0 96 32 172.5t86.5 122.5t121.5 70t141 24q37 0 75.5 -8.5t81 -30t75 -53.5t54 -84.5t21.5 -117.5q0 -134 -58 -201q-59 -68 -129 -68q-75 0 -82 94q-48 -94 -158 -94q-47 0 -77.5 24.5
t-30.5 68.5q0 60 68.5 101t187.5 51q0 13 0.5 25.5t1 18.5t0.5 7q-3 89 -85 89q-23 0 -44.5 -10t-28.5 -23q28 -19 28 -49q0 -22 -16.5 -39.5t-47.5 -17.5q-24 0 -40.5 17.5t-16.5 41.5q0 56 56 86q56 31 120 31q92 0 141 -33t49 -95q0 -7 -0.5 -18.5t-1 -32.5t-0.5 -38
q-2 -90 -2 -98q0 -46 19 -46q42 0 73 64q33 64 33 144q0 67 -27 119.5t-71 80.5q-84 53 -168 53q-66 0 -125.5 -21.5t-108 -63t-77.5 -109.5t-29 -154q0 -125 82 -210q83 -86 213 -86q102 0 197 42t141 126zM366 123q91 0 91 166q-140 -9 -140 -107q0 -27 13 -43t36 -16z
" />
    <glyph glyph-name="A" unicode="A" horiz-adv-x="768" 
d="M763 39v-39h-335v39h52q39 0 39 25q0 10 -11 38l-46 120h-262l-36 -97q-11 -27 -11 -48q0 -38 48 -38h38v-39h-234v39h13q61 0 96 86l239 611h74l248 -634q14 -35 31 -49t43 -14h14zM444 268l-113 289l-112 -289h225z" />
    <glyph glyph-name="B" unicode="B" horiz-adv-x="731" 
d="M697 200q0 -94 -71 -147t-186 -53h-400v39h41q29 0 40.5 13t11.5 50v518q0 37 -11.5 50t-40.5 13h-41v39h365q124 0 190.5 -46t66.5 -133q0 -61 -50.5 -106t-136.5 -58q106 -9 164 -56.5t58 -122.5zM529 200q0 69 -35 111t-99 42h-95v-251q0 -37 11.5 -50t40.5 -13h64
q55 0 83 46q30 47 30 115zM494 538q0 145 -121 145h-30q-24 0 -33.5 -11.5t-9.5 -42.5v-236h91q51 0 77 40.5t26 104.5z" />
    <glyph glyph-name="C" unicode="C" horiz-adv-x="696" 
d="M379 736q107 0 182 -83l28 82h36l15 -284h-40q-30 147 -95 199q-56 46 -111 46q-42 0 -73 -14.5t-56.5 -51t-38.5 -105t-13 -169.5q0 -161 50 -240t140 -79q82 0 139.5 55.5t78.5 157.5h39q-20 -152 -114 -213q-79 -52 -170 -52q-142 0 -239 95q-96 96 -96 268
q0 174 92 281q93 107 246 107z" />
    <glyph glyph-name="D" unicode="D" horiz-adv-x="812" 
d="M40 683v39h400q157 0 244 -103q87 -102 87 -258t-88 -259q-89 -102 -244 -102h-399v39h41q29 0 40.5 13t11.5 50v518q0 37 -11.5 50t-40.5 13h-41zM400 683h-56q-27 0 -35.5 -12t-8.5 -51v-518q0 -37 11.5 -50t40.5 -13h46q100 0 150.5 84t50.5 238q0 153 -50.5 237.5
t-148.5 84.5z" />
    <glyph glyph-name="E" unicode="E" horiz-adv-x="719" 
d="M650 0h-610v39h41q29 0 40.5 13t11.5 50v518q0 37 -11.5 50t-40.5 13h-41v39h588l16 -241h-39q-18 104 -49 157q-12 21 -31 31q-27 14 -71 14h-110q-27 0 -35.5 -12t-8.5 -51v-226h74q47 0 69 28q23 28 25 114h38v-325h-38q-2 86 -25 114q-23 29 -69 29h-74v-252
q0 -37 11.5 -50t40.5 -13h109q35 0 55 3q17 3 45 26q42 47 68 205h39z" />
    <glyph glyph-name="F" unicode="F" horiz-adv-x="669" 
d="M408 0h-368v39h41q29 0 40.5 13t11.5 50v518q0 37 -11.5 50t-40.5 13h-41v39h588l16 -241h-39q-18 104 -49 157q-12 21 -31 31q-27 14 -71 14h-110q-27 0 -35.5 -12t-8.5 -51v-226h74q47 0 69 28q23 28 25 114h38v-325h-38q-2 86 -25 114q-23 29 -69 29h-74v-252
q0 -37 11.5 -50t40.5 -13h56v-39z" />
    <glyph glyph-name="G" unicode="G" horiz-adv-x="768" 
d="M748 329v-39h-36q-27 0 -35.5 -12t-8.5 -51v-244h-39l-52 106q-35 -48 -90.5 -76t-110.5 -28q-142 0 -239 95q-96 96 -96 268q0 174 92 281q93 107 246 107q111 0 182 -83l28 82h36l15 -284h-40q-30 147 -95 199q-56 46 -111 46q-42 0 -73 -14.5t-56.5 -51t-38.5 -105
t-13 -169.5q0 -161 50 -240t140 -79q47 0 72.5 31t25.5 84v75q0 39 -8.5 51t-35.5 12h-57v39h348z" />
    <glyph glyph-name="H" unicode="H" horiz-adv-x="886" 
d="M587 102v248h-287v-248q0 -37 11.5 -50t40.5 -13h41v-39h-353v39h41q29 0 40.5 13t11.5 50v518q0 37 -11.5 50t-40.5 13h-41v39h353v-39h-41q-29 0 -40.5 -13t-11.5 -50v-215h287v215q0 37 -11.5 50t-40.5 13h-42v39h353v-39h-42q-29 0 -40 -13t-11 -50v-518
q0 -37 11 -50t40 -13h42v-39h-353v39h42q29 0 40.5 13t11.5 50z" />
    <glyph glyph-name="I" unicode="I" horiz-adv-x="433" 
d="M300 620v-518q0 -37 11.5 -50t40.5 -13h41v-39h-353v39h41q29 0 40.5 13t11.5 50v518q0 37 -11.5 50t-40.5 13h-41v39h353v-39h-41q-29 0 -40.5 -13t-11.5 -50z" />
    <glyph glyph-name="J" unicode="J" horiz-adv-x="560" 
d="M443 620v-436q0 -100 -66.5 -149.5t-184.5 -49.5q-87 0 -137 50q-48 51 -48 119q0 47 24.5 81t65.5 34q31 0 53 -22.5t22 -53.5q0 -32 -22 -54.5t-53 -22.5q-29 0 -36 9q4 -34 37 -64q35 -29 71 -29q50 0 79 37.5t29 114.5v436q0 37 -11.5 50t-40.5 13h-57v39h369v-39
h-41q-29 0 -41 -13t-12 -50z" />
    <glyph glyph-name="K" unicode="K" horiz-adv-x="830" 
d="M818 39v-39h-345v39h35q32 0 32 15q0 11 -22 48l-148 243l-70 -71v-172q0 -37 11.5 -50t40.5 -13h34v-39h-346v39h41q29 0 40.5 13t11.5 50v518q0 37 -11.5 50t-40.5 13h-41v39h353v-39h-41q-29 0 -40.5 -13t-11.5 -50v-290l268 272q28 28 28 51q0 13 -11 21.5t-31 8.5
h-39v39h279v-39h-27q-25 0 -51 -14q-29 -16 -41 -26l-43 -41l-141 -140l222 -360q23 -36 42 -49.5t45 -13.5h18z" />
    <glyph glyph-name="L" unicode="L" 
d="M613 288h39l-20 -288h-600v39h41q29 0 40.5 13t11.5 50v518q0 37 -11.5 50t-40.5 13h-41v39h360v-39h-49q-28 0 -39.5 -13t-11.5 -50v-518q0 -37 11.5 -50t39.5 -13h100q44 0 75 21q61 39 95 228z" />
    <glyph glyph-name="M" unicode="M" horiz-adv-x="1039" 
d="M999 39v-39h-353v39h42q30 0 41 12.5t11 50.5v581h-6l-256 -683h-38l-256 683h-4v-566q0 -78 59 -78h34v-39h-237v39h34q59 0 59 78v503q0 37 -11.5 50t-40.5 13h-41v39h310l174 -462l175 462h304v-39h-42q-28 0 -39.5 -14t-11.5 -50v-517q0 -37 11 -50t40 -13h42z" />
    <glyph glyph-name="N" unicode="N" horiz-adv-x="793" 
d="M681 605v-605h-46l-451 552h-4v-435q0 -37 16 -57.5t44 -20.5h34v-39h-238v39h34q59 0 59 78v503q0 37 -11.5 50t-40.5 13h-41v39h219l371 -467h5v350q0 37 -16 57.5t-44 20.5h-34v39h238v-39h-34q-28 0 -44 -20.5t-16 -57.5z" />
    <glyph glyph-name="O" unicode="O" horiz-adv-x="781" 
d="M648 630q92 -106 92 -269t-92 -270q-91 -106 -258 -106t-258 106t-91 270q0 165 91 269q91 106 258 106t258 -106zM390 697q-88 0 -132.5 -87.5t-44.5 -248.5t44.5 -248.5t132.5 -87.5q89 0 133.5 87t44.5 249t-44.5 249t-133.5 87z" />
    <glyph glyph-name="P" unicode="P" horiz-adv-x="708" 
d="M516 517q0 60 -35 113t-98 53h-34q-27 0 -38 -13.5t-11 -49.5v-271h83q57 0 95 51q38 53 38 117zM415 309h-115v-207q0 -37 11.5 -50t40.5 -13h41v-39h-353v39h41q30 0 41 15t11 60v506q0 37 -11.5 50t-40.5 13h-41v39h375q124 0 196 -54.5t72 -150.5t-71.5 -152
t-196.5 -56z" />
    <glyph glyph-name="Q" unicode="Q" horiz-adv-x="780" 
d="M390 -15q-167 0 -258 106t-91 270q0 165 91 269q91 106 258 106t258 -106q92 -106 92 -269q0 -108 -40.5 -192.5t-117.5 -132.5q3 -8 10 -36l20 -63q9 -25 24 -46q12 -18 31 -18q34 0 50 94h38q-8 -73 -43.5 -110t-88.5 -37q-83 0 -119 46q-36 47 -48 124q-38 -5 -66 -5z
M568 361q0 162 -44.5 249t-133.5 87q-88 0 -132.5 -87.5t-44.5 -248.5q0 -132 29 -214q11 46 48 75.5t84 29.5q105 0 164 -107q30 84 30 216zM285 116q0 -48 46 -79q25 -12 59 -12q33 0 60 12l-4 43q-3 56 -13 74q-23 57 -59 51q-38 0 -63.5 -26t-25.5 -63z" />
    <glyph glyph-name="R" unicode="R" horiz-adv-x="790" 
d="M719 150h39q-6 -88 -36 -124t-94 -36q-67 0 -99.5 32t-42.5 101q-7 45 -10 57q-9 66 -27 97q-31 67 -90 67h-59v-242q0 -37 11.5 -50t40.5 -13h41v-39h-353v39h41q29 0 40.5 13t11.5 50v518q0 37 -11.5 50t-40.5 13h-41v39h388q121 0 190 -48t69 -139q0 -73 -59 -121
t-161 -57q123 -22 161 -156q7 -28 14 -66q9 -44 16 -60t19 -16q19 0 28.5 20t13.5 71zM403 683h-51q-29 0 -40.5 -13t-11.5 -50v-237h88q63 0 97 40t34 112q0 68 -31 108t-85 40z" />
    <glyph glyph-name="S" unicode="S" horiz-adv-x="649" 
d="M611 212q0 -107 -89 -167q-88 -60 -205 -60q-135 0 -216 84l-25 -83h-31l-18 288h37q12 -67 40.5 -118t66 -78t74.5 -40t74 -13q71 0 113.5 29t42.5 84q0 49 -38 85q-15 13 -45 27t-51 21q-11 4 -59 19q-77 24 -129 51q-93 51 -99 173q0 106 67.5 164t182.5 58
q128 0 203 -78l26 77h31l12 -265h-39q-24 133 -102 183q-65 44 -131 44q-54 0 -89.5 -30.5t-35.5 -84.5q0 -45 40 -83q17 -13 48 -27l52 -21l61 -18q95 -28 156 -69q75 -51 75 -152z" />
    <glyph glyph-name="T" unicode="T" horiz-adv-x="731" 
d="M688 722l18 -266h-39q-18 98 -35.5 146.5t-38 64t-55.5 16.5h-46q-27 0 -35 -12t-8 -51v-518q0 -37 11.5 -50t40.5 -13h41v-39h-353v39h41q29 0 40.5 13t11.5 50v518q0 41 -7.5 52t-34.5 11h-47q-35 0 -55 -16q-45 -33 -74 -211h-39l19 266h644z" />
    <glyph glyph-name="U" unicode="U" horiz-adv-x="795" 
d="M777 722v-39h-34q-59 0 -59 -78v-382q0 -238 -286 -238q-287 0 -287 238v397q0 37 -11.5 50t-40.5 13h-42v39h354v-39h-42q-29 0 -40.5 -13t-11.5 -50v-397q0 -182 178 -182q179 0 179 182v382q0 37 -16 57.5t-44 20.5h-34v39h237z" />
    <glyph glyph-name="V" unicode="V" horiz-adv-x="768" 
d="M763 722v-39h-13q-34 0 -56 -20t-40 -67l-239 -611h-74l-248 635q-14 34 -31 48.5t-44 14.5h-13v39h335v-39h-52q-37 0 -37 -21q0 -16 9 -42l177 -456l167 432q13 30 13 54q0 15 -13.5 24t-36.5 9h-38v39h234z" />
    <glyph glyph-name="W" unicode="W" horiz-adv-x="1096" 
d="M1091 722v-39h-16q-60 0 -76 -46l-214 -652h-74l-169 500l-159 -500h-74l-215 634q-12 34 -29.5 49t-47.5 15h-12v39h322v-39h-39h-17t-10.5 -2t-8 -6t-1.5 -12q0 -15 9 -43l139 -434l117 372l-20 62q-12 33 -26.5 47.5t-36.5 15.5h-21v39h340v-39h-61q-37 0 -37 -25
q0 -11 8 -38l139 -434l130 410q10 30 10 51q0 36 -47 36h-40v39h237z" />
    <glyph glyph-name="X" unicode="X" horiz-adv-x="798" 
d="M783 39v-39h-370v39h54q32 0 32 16q0 13 -22 47l-132 204l-144 -213q-15 -23 -15 -37q0 -17 30 -17h46v-39h-247v39h23q35 0 59 13t49 50l171 249l-172 269q-41 63 -90 63h-22v39h362v-39h-46q-32 0 -32 -16q0 -14 21 -47l110 -171l126 184q16 22 16 35q0 15 -31 15h-40
v39h240v-39h-22q-36 0 -60.5 -13.5t-50.5 -49.5l-149 -216l193 -302q41 -63 91 -63h22z" />
    <glyph glyph-name="Y" unicode="Y" horiz-adv-x="751" 
d="M746 722v-39h-20q-27 0 -47.5 -19.5t-47.5 -67.5l-167 -295v-199q0 -37 11.5 -50t40.5 -13h41v-39h-353v39h41q29 0 40.5 13t11.5 50v200l-190 318q-37 63 -83 63h-19v39h348v-39h-47q-37 0 -37 -23q0 -11 19 -40l159 -258l133 234q20 35 20 54q0 15 -9.5 24t-27.5 9h-41
v39h224z" />
    <glyph glyph-name="Z" unicode="Z" horiz-adv-x="671" 
d="M602 278h39l-20 -278h-591v39l410 644h-217q-55 0 -90 -44q-15 -21 -26 -51q-18 -50 -29 -129h-38l21 263h575v-39l-410 -644h250q50 0 77 53q28 51 49 186z" />
    <glyph glyph-name="bracketleft" unicode="[" horiz-adv-x="358" 
d="M323 -81v-48h-253v947h253v-48h-140v-851h140z" />
    <glyph glyph-name="backslash" unicode="\" horiz-adv-x="373" 
d="M90 722l283 -722h-90l-283 722h90z" />
    <glyph glyph-name="bracketright" unicode="]" horiz-adv-x="358" 
d="M288 818v-947h-253v48h139v851h-139v48h253z" />
    <glyph glyph-name="asciicircum" unicode="^" horiz-adv-x="442" 
d="M401 432h-86l-99 123l-97 -123h-85l165 203h37z" />
    <glyph glyph-name="underscore" unicode="_" horiz-adv-x="513" 
d="M513 -52v-55h-513v55h513z" />
    <glyph glyph-name="grave" unicode="`" horiz-adv-x="466" 
d="M362 547l-24 -13q-35 27 -54 38l-47 36q-60 50 -59 78q0 16 14 29t33 13q30 0 58 -31q15 -18 34 -59l21 -42q17 -37 24 -49z" />
    <glyph glyph-name="a" unicode="a" horiz-adv-x="582" 
d="M234 45q103 0 107 190q-164 -12 -164 -123q0 -31 15 -49t42 -18zM245 429q-65 0 -97 -33q39 -16 39 -59q0 -29 -19 -48t-54 -19q-29 0 -48.5 19.5t-19.5 47.5q0 65 67 99q68 35 145 35q109 0 168.5 -37.5t59.5 -108.5q0 -25 -3 -111t-3 -121q0 -53 24 -53q30 0 30 73h33
q-1 -65 -28.5 -95.5t-84.5 -30.5q-90 0 -99 108q-59 -108 -188 -108q-56 0 -92.5 28.5t-36.5 78.5q0 69 82 115q83 49 222 59q0 15 0.5 29.5t1 21.5t0.5 9q-2 101 -99 101z" />
    <glyph glyph-name="b" unicode="b" horiz-adv-x="603" 
d="M341 -15q-53 0 -95 17q-37 17 -58.5 38.5t-48.5 64.5q-27 -64 -56 -114q-28 7 -36 8q15 75 15 199v441q0 28 -8.5 37.5t-34.5 9.5h-33v39l217 11v-356q21 42 62 67t91 25q93 0 150 -70q58 -70 58 -173t-60 -174q-60 -70 -163 -70zM233 367q-30 -49 -30 -143t30 -144
q31 -49 78 -49t79 45q33 45 33 148q0 104 -33 147q-32 45 -79 45t-78 -49z" />
    <glyph glyph-name="c" unicode="c" horiz-adv-x="509" 
d="M445 147l34 -15q-27 -73 -77.5 -110t-117.5 -37q-105 0 -176 62q-69 63 -69 174q0 109 72 180q73 71 187 71q79 0 128 -33t49 -93q0 -29 -19.5 -51t-49.5 -22q-38 0 -55 19.5t-17 47.5q0 20 14 36.5t40 22.5q-19 34 -82 34q-56 0 -90.5 -54t-34.5 -151q0 -88 34.5 -138
t91.5 -50q97 0 138 107z" />
    <glyph glyph-name="d" unicode="d" horiz-adv-x="616" 
d="M603 39v-39h-190l-8 112q-16 -57 -61.5 -92t-106.5 -35q-93 0 -145 70q-53 71 -53 174t53 173q52 70 145 70q119 0 156 -100v267q0 28 -8 37.5t-34 9.5h-35v39l217 11v-649q0 -29 7.5 -38.5t31.5 -9.5h31zM393 229q0 104 -34 147q-35 45 -76 45q-102 0 -102 -192
q0 -191 101 -191q42 0 76 46q35 47 35 145z" />
    <glyph glyph-name="e" unicode="e" horiz-adv-x="535" 
d="M496 230h-315v-21q0 -86 32 -130.5t90 -44.5q100 0 149 114l34 -15q-22 -73 -83 -111q-59 -37 -122 -37q-113 0 -178 68q-64 68 -64 176q0 104 65 174q66 69 178 69q214 0 214 -242zM280 433q-92 0 -99 -163h144q14 0 21.5 10.5t7.5 23.5q0 63 -19.5 96t-54.5 33z" />
    <glyph glyph-name="f" unicode="f" horiz-adv-x="389" 
d="M470 633q0 -26 -18.5 -45.5t-44.5 -19.5t-43.5 18.5t-17.5 45.5q0 36 38 57q-12 20 -45 20q-42 0 -68 -41.5t-26 -113.5v-96h105v-47h-105v-326q0 -27 8 -36.5t31 -9.5h58v-39h-314v39h38q23 0 31 9.5t8 36.5v326h-75v47h75v45q0 64 21 117q43 124 202 128q55 0 99 -32
q43 -31 43 -83z" />
    <glyph glyph-name="g" unicode="g" horiz-adv-x="587" 
d="M471 315q0 -73 -54 -115.5t-157 -42.5q-74 0 -106.5 -8t-32.5 -31q0 -28 86 -28q33 0 85 4q65 5 90 5q69 0 108 -31.5t39 -91.5t-60 -114q-68 -63 -209 -63q-110 0 -172 30t-62 84q0 48 85 76q-65 24 -65 85q0 82 96 104q-93 36 -93 137q0 73 54 115t157 42
q113 0 167 -51q12 28 39 44t56 16q21 0 33.5 -12t12.5 -33q0 -17 -11.5 -29.5t-29.5 -12.5q-17 0 -27 12.5t-10 33.5q-12 0 -26 -13.5t-17 -30.5q24 -36 24 -81zM260 433q-40 0 -60 -32t-20 -86t20 -86t60 -32t60 32.5t20 85.5t-20 85.5t-60 32.5zM441 -73q0 44 -72 44
q-19 0 -91 -5q-70 -5 -98 -5q-7 0 -45 2q-29 -20 -29 -49q0 -76 155 -76q75 0 128 24q52 24 52 65z" />
    <glyph glyph-name="h" unicode="h" horiz-adv-x="665" 
d="M231 240v-155q0 -27 7.5 -36.5t31.5 -9.5h28v-39h-285v39h38q23 0 31 9.5t8 36.5v554q0 28 -8.5 37.5t-34.5 9.5h-34v39l218 11v-385q21 54 70.5 87.5t113.5 33.5q158 0 158 -175v-212q0 -27 8 -36.5t31 -9.5h38v-39h-285v39h28q23 0 31 9.5t8 36.5v197q0 68 -16.5 94
t-58.5 26q-45 0 -86 -48q-40 -46 -40 -114z" />
    <glyph glyph-name="i" unicode="i" horiz-adv-x="348" 
d="M253 621q0 -30 -23 -51.5t-56 -21.5q-32 0 -55 22t-23 51q0 31 23 53t55 22q33 0 56 -22t23 -53zM105 85v288q0 27 -8 36.5t-34 9.5h-35v39l217 13v-386q0 -27 8 -36.5t31 -9.5h51v-39h-307v39h38q23 0 31 9.5t8 36.5z" />
    <glyph glyph-name="j" unicode="j" horiz-adv-x="319" 
d="M40 458l217 13v-436q0 -62 -21 -112.5t-55 -75.5q-61 -50 -122 -50q-48 0 -86 20t-38 71q0 26 18 44.5t44 18.5q25 0 43 -18.5t18 -44.5q0 -28 -30 -42q12 -9 36 -9q27 0 39.5 31t12.5 104v401q0 27 -8 36.5t-34 9.5h-34v39zM265 621q0 -30 -23 -51.5t-56 -21.5t-56 21.5
t-23 51.5q0 31 23 53t56 22t56 -22t23 -53z" />
    <glyph glyph-name="k" unicode="k" horiz-adv-x="631" 
d="M625 39v-39h-270v39h28q20 0 20 11q0 8 -14 27l-117 150l-45 -39v-103q0 -27 8 -36.5t31 -9.5h28v-39h-284v39h37q24 0 31.5 9.5t7.5 36.5v554q0 33 -12 40q-11 7 -64 7v39l217 11v-494l114 95q57 48 57 65q0 7 -8 12t-21 5h-50v39h266v-39h-33q-27 0 -51 -13t-63 -45
l-72 -60l174 -232q22 -30 65 -30h20z" />
    <glyph glyph-name="l" unicode="l" horiz-adv-x="334" 
d="M320 39v-39h-306v39h38q23 0 30.5 9.5t7.5 36.5v555q0 28 -8.5 37.5t-34.5 9.5h-33v39l217 11v-652q0 -27 8 -36.5t31 -9.5h50z" />
    <glyph glyph-name="m" unicode="m" horiz-adv-x="989" 
d="M974 39v-39h-284v39h28q23 0 31 9.5t8 36.5v197q0 69 -15 94.5t-54 25.5q-42 0 -79 -46t-37 -111v-160q0 -27 8 -36.5t31 -9.5h27v-39h-274v39h28q23 0 31 9.5t8 36.5v197q0 69 -15 94.5t-55 25.5q-41 0 -79 -48q-37 -46 -37 -114v-155q0 -27 8 -36.5t31 -9.5h28v-39
h-284v39h38q23 0 31 9.5t8 36.5v288q0 27 -8 36.5t-34 9.5h-35v39l203 12l10 -119q25 55 72 88t107 33q128 0 146 -126q25 57 72.5 91.5t106.5 34.5q81 0 117 -44t36 -131v-212q0 -27 8 -36.5t31 -9.5h37z" />
    <glyph glyph-name="n" unicode="n" horiz-adv-x="679" 
d="M664 39v-39h-283v39h27q23 0 31 9.5t8 36.5v197q0 68 -17 94t-59 26q-45 0 -85 -48q-41 -47 -41 -114v-155q0 -27 8 -36.5t31 -9.5h28v-39h-284v39h38q23 0 31 9.5t8 36.5v288q0 27 -8 36.5t-33 9.5h-36v39l203 12l10 -120q22 55 73 88.5t116 33.5q83 0 120.5 -44
t37.5 -131v-212q0 -27 8 -36.5t31 -9.5h37z" />
    <glyph glyph-name="o" unicode="o" horiz-adv-x="577" 
d="M289 25q108 0 108 204t-108 204t-108 -204t108 -204zM289 472q115 0 182 -67t67 -176q0 -110 -67 -177t-182 -67q-116 0 -183 67t-67 177q0 109 67 176t183 67z" />
    <glyph glyph-name="p" unicode="p" horiz-adv-x="623" 
d="M584 229q0 -104 -55 -174q-54 -70 -146 -70q-52 0 -94 29.5t-58 77.5v-195q0 -27 7.5 -36.5t31.5 -9.5h50v-39h-307v39h38q23 0 31 9.5t8 36.5v476q0 27 -8 36.5t-33 9.5h-36v39l203 12l10 -117q16 52 60 85.5t97 33.5q92 0 146 -71q55 -70 55 -172zM231 229
q0 -91 34 -141q35 -51 73 -51q105 0 105 192q0 191 -104 191q-37 0 -73 -53q-35 -53 -35 -138z" />
    <glyph glyph-name="q" unicode="q" horiz-adv-x="622" 
d="M541 308v-402q0 -27 7.5 -36t31.5 -9h33v-49h-297v49h45q24 0 31.5 12t7.5 46v159q-46 -93 -148 -93q-93 0 -153 71q-60 70 -60 173q0 101 62 172q63 71 165 71q73 0 118.5 -29.5t79.5 -90.5q35 80 56 117l36 -8q-15 -61 -15 -153zM400 234q0 94 -28 143t-77 49
q-51 0 -82.5 -47t-31.5 -145t31.5 -145t82.5 -47q48 0 76.5 49.5t28.5 142.5z" />
    <glyph glyph-name="r" unicode="r" horiz-adv-x="499" 
d="M492 378q0 -27 -18 -46.5t-45 -19.5q-30 0 -47.5 18t-17.5 48q0 32 31 47q-7 3 -17 3q-40 0 -87 -99q-46 -98 -46 -164v-72q0 -34 8 -44t37 -10h50v-39h-312v39h38q24 0 31.5 13.5t7.5 48.5v264q0 32 -7.5 43t-32.5 11h-37v39l202 13l7 -161q13 62 54 111q41 50 101 50
q42 0 71 -24t29 -69z" />
    <glyph glyph-name="s" unicode="s" horiz-adv-x="483" 
d="M450 144q0 -70 -57 -114.5t-159 -44.5q-82 0 -140 53l-20 -52h-31l-11 187h29q40 -148 174 -148q95 0 95 69q0 30 -32 48q-15 13 -47 16l-29 6l-27 6q-77 16 -114 51.5t-37 108.5q0 67 49.5 104.5t134.5 37.5q83 0 138 -49l18 49h32l10 -169h-29q-43 135 -168 135
q-40 0 -67 -18.5t-27 -49.5q-5 -32 43 -55q13 -6 31 -10l34 -7l39 -7q72 -12 115 -39q53 -32 53 -108z" />
    <glyph glyph-name="t" unicode="t" horiz-adv-x="424" 
d="M365 168h39q-17 -183 -163 -183q-98 0 -128 46q-23 38 -23 96v284h-74v47h21q61 0 98.5 43t55.5 140h39v-183h145v-47h-145v-283q0 -88 61 -88q29 0 48.5 33t25.5 95z" />
    <glyph glyph-name="u" unicode="u" horiz-adv-x="663" 
d="M648 39v-39h-202l-11 108q-22 -55 -73 -89t-115 -34q-158 0 -158 175v213q0 27 -8 36.5t-34 9.5h-32v39l214 13v-295q0 -67 17 -93.5t59 -26.5q44 0 85 47q41 49 41 115v155q0 27 -8 36.5t-33 9.5h-33v39l215 13v-386q0 -27 8 -36.5t31 -9.5h37z" />
    <glyph glyph-name="v" unicode="v" horiz-adv-x="581" 
d="M307 -15h-40l-188 388q-15 30 -24 38t-29 8h-21v39h272v-39h-31q-23 0 -23 -12q0 -15 10 -34l111 -239l112 239q7 17 7 25q0 21 -26 21h-33v39h172v-39h-19q-38 0 -60 -46z" />
    <glyph glyph-name="w" unicode="w" horiz-adv-x="826" 
d="M576 -15h-32l-133 321l-140 -321h-32l-160 388q-12 29 -22 37.5t-31 8.5h-21v39h249v-39h-17q-23 0 -23 -12q0 -11 10 -34l87 -219l81 197l-8 22q-16 46 -55 46h-13v39h262v-39h-28q-29 0 -29 -13q0 -12 8 -33l87 -220l90 220q7 17 7 25q0 21 -26 21h-33v39h167v-39h-15
q-23 0 -35.5 -9.5t-24.5 -36.5z" />
    <glyph glyph-name="x" unicode="x" horiz-adv-x="574" 
d="M556 39v-39h-267v39h28q23 0 23 10q0 7 -21 36l-71 102l-79 -102q-4 -6 -10 -14l-9 -12t-3 -7q1 -13 21 -13h28v-39h-179v39h23q24 0 40 9.5t36 36.5l108 137l-105 151q-19 27 -33 36.5t-34 9.5h-23v39h263v-39h-28q-23 0 -23 -11q0 -7 19 -35l58 -85l67 85q20 26 20 34
q0 12 -21 12h-28v39h187v-39h-21q-48 0 -85 -48l-94 -117l118 -169q18 -26 34 -36t41 -10h20z" />
    <glyph glyph-name="y" unicode="y" horiz-adv-x="598" 
d="M593 458v-39h-15q-47 0 -70 -56l-161 -383q-43 -101 -78 -142t-102 -41q-42 0 -67 26.5t-25 61.5q0 25 16 46t40 21q26 0 42.5 -17t16.5 -39q0 -40 -37 -50q10 -10 36 -10q53 0 115 150l-210 378q-18 33 -30.5 44t-34.5 11h-24v39h287v-39h-33q-23 0 -23 -12q0 -8 14 -34
l124 -228l93 228q6 15 6 25q0 21 -27 21h-33v39h180z" />
    <glyph glyph-name="z" unicode="z" horiz-adv-x="512" 
d="M445 195h39l-12 -195h-431v39l275 380h-130q-25 0 -36 -3t-23 -15q-22 -21 -41 -116h-39l12 173h414v-39l-269 -380h133q43 0 66 30q24 30 42 126z" />
    <glyph glyph-name="braceleft" unicode="{" horiz-adv-x="431" 
d="M125 345q146 -41 146 -206v-112q0 -54 29.5 -85.5t80.5 -31.5v-40q-116 0 -174.5 71t-58.5 163v90q0 59 -12 85q-15 34 -74 47v45q49 11 67.5 39t18.5 85v90q0 81 52 152q61 81 181 81v-39q-51 0 -80.5 -32t-29.5 -85v-113q0 -165 -146 -204z" />
    <glyph glyph-name="bar" unicode="|" horiz-adv-x="193" 
d="M135 722v-910h-78v910h78z" />
    <glyph glyph-name="braceright" unicode="}" horiz-adv-x="431" 
d="M307 343q-146 41 -146 206v112q0 54 -29.5 85.5t-80.5 31.5v40q116 0 174.5 -71t58.5 -163v-90q0 -59 12 -86q15 -33 74 -46v-45q-49 -11 -67.5 -39t-18.5 -85v-90q0 -81 -53 -152q-27 -37 -74 -59t-106 -22v39q51 0 80.5 32t29.5 85v113q0 165 146 204z" />
    <glyph glyph-name="asciitilde" unicode="~" horiz-adv-x="577" 
d="M90 233h-44q1 75 30.5 120t85.5 45q44 0 136 -39t117 -39q32 0 48.5 21.5t23.5 66.5h43q-1 -76 -30 -121t-85 -45q-47 0 -138 39t-115 39q-32 0 -48.5 -21t-23.5 -66z" />
    <glyph glyph-name="uni00A0" unicode="&#xa0;" horiz-adv-x="287" 
 />
    <glyph glyph-name="exclamdown" unicode="&#xa1;" horiz-adv-x="282" 
d="M120 478h40q7 -76 31 -216q23 -128 24 -192q0 -39 -19.5 -60.5t-55.5 -21.5t-55.5 21.5t-19.5 60.5q0 61 23 193q25 134 32 215zM191 715q21 -20 21 -50t-21 -51t-51 -21t-51 21t-21 51t21 50q21 21 51 21t51 -21z" />
    <glyph glyph-name="cent" unicode="&#xa2;" horiz-adv-x="509" 
d="M298 -14v-63h-40v63q-96 7 -158 69q-61 61 -61 166q0 101 60 168q60 68 159 80v81h40v-78q79 0 128 -33t49 -93q0 -29 -19.5 -51t-49.5 -22q-38 0 -55 19.5t-17 47.5q0 20 14 36.5t40 22.5q-19 34 -82 34q-6 0 -8 -1v-392q106 0 147 107l34 -15q-52 -138 -181 -146z
M181 228q0 -137 77 -177v369q-77 -44 -77 -192z" />
    <glyph glyph-name="sterling" unicode="&#xa3;" horiz-adv-x="659" 
d="M585 208l38 -7q-5 -115 -67 -179q-34 -36 -84 -36q-46 0 -85.5 19t-87.5 58q-58 -78 -149 -78q-57 0 -85.5 27.5t-28.5 73.5q0 39 22 64q34 41 91 41q39 0 93 -18q-9 47 -19 74q-7 19 -10 24l-12 30l-13 32h-117v56h96q-18 74 -18 118q0 100 67 166q68 66 181 66
q79 0 126.5 -45.5t47.5 -115.5q0 -32 -22.5 -54.5t-54.5 -22.5q-31 0 -54 22t-23 52q0 33 23.5 53t62.5 20q-37 52 -106 52q-51 0 -84.5 -34.5t-33.5 -95.5q0 -26 15 -86q5 -17 18 -50l17 -45h168v-56h-151q11 -58 11 -87q0 -52 -13 -97l38 -15l42 -16q53 -14 75 -14
q65 0 86 104zM243 110q-55 40 -95 40q-30 0 -51 -18.5t-21 -45.5q0 -29 20 -45t53 -16q32 0 58 24t36 61z" />
    <glyph glyph-name="currency" unicode="&#xa4;" horiz-adv-x="287" 
 />
    <glyph glyph-name="yen" unicode="&#xa5;" horiz-adv-x="751" 
d="M600 353v-54h-136v-74h136v-55h-136v-68q0 -37 11.5 -50t40.5 -13h41v-39h-353v39h41q29 0 40.5 13t11.5 50v68h-135v55h135v74h-135v54h104l-159 267q-37 63 -83 63h-19v39h348v-39h-47q-37 0 -37 -23q0 -11 19 -40l159 -258l133 234q20 35 20 54q0 15 -9.5 24t-27.5 9
h-41v39h224v-39h-20q-27 0 -47.5 -19.5t-47.5 -67.5l-138 -243h107z" />
    <glyph glyph-name="brokenbar" unicode="&#xa6;" horiz-adv-x="193" 
d="M135 125v-329h-78v329h78zM135 729v-329h-78v329h78z" />
    <glyph glyph-name="section" unicode="&#xa7;" horiz-adv-x="667" 
d="M276 -58q0 -29 -20 -45t-52 -16q34 -30 107 -30q39 0 62.5 24t23.5 61q0 35 -24.5 64t-61 47.5l-79 42t-79 47.5t-61 64t-24.5 91q0 47 33.5 90t95.5 69q-62 57 -62 124q0 76 59.5 118.5t164.5 42.5q78 0 132 -33q55 -33 55 -90q0 -29 -23 -51t-52 -22q-31 0 -54 21.5
t-23 51.5q0 21 12 37.5t30 21.5q-26 25 -77 25q-38 0 -62 -24t-24 -61q0 -35 24.5 -64t61 -47.5l79 -42t79 -47.5t61 -64t24.5 -91q0 -47 -33.5 -90t-95.5 -69q62 -57 62 -124q0 -76 -59.5 -118.5t-164.5 -42.5q-79 0 -133 33q-53 32 -53 90q0 29 21.5 51t51.5 22
q35 0 56.5 -16.5t21.5 -49.5zM176 344q0 -34 27 -67t66 -56l91 -51q54 -29 86 -52q46 37 46 86q0 47 -40 81q-38 35 -118 79q-81 44 -110 65q-48 -37 -48 -85z" />
    <glyph glyph-name="dieresis" unicode="&#xa8;" horiz-adv-x="535" 
d="M312 612q0 26 17.5 44t42.5 18t42.5 -18t17.5 -44q0 -24 -17.5 -41.5t-42.5 -17.5t-42.5 17.5t-17.5 41.5zM102 612q0 26 17.5 44t42.5 18t43 -18.5t18 -43.5q0 -24 -18 -41.5t-43 -17.5t-42.5 17.5t-17.5 41.5z" />
    <glyph glyph-name="copyright" unicode="&#xa9;" horiz-adv-x="872" 
d="M805 359q0 -155 -111 -264q-110 -110 -265 -110q-156 0 -265 109t-109 265q0 154 110 266q109 111 264 111t265 -111q111 -111 111 -266zM766 359q0 141 -99 238q-97 99 -238 99q-139 0 -237 -99q-97 -97 -97 -238q0 -140 97 -237t237 -97q141 0 238 97q99 98 99 237z
M596 282h28q-14 -99 -72 -141q-58 -41 -126 -41q-98 0 -165 66t-67 184q0 120 64 193q65 74 169 74q34 0 69.5 -15.5t60.5 -41.5l19 56h24l11 -196h-28q-19 94 -61 131q-40 37 -85 37q-61 0 -93 -50q-31 -49 -31 -183q0 -110 35 -164t97 -54q58 0 98 38.5t53 106.5z" />
    <glyph glyph-name="ordfeminine" unicode="&#xaa;" horiz-adv-x="498" 
d="M198 371q77 0 81 142q-123 -7 -123 -92q0 -22 11 -36t31 -14zM206 659q-19 0 -38 -8t-26 -20q21 -15 21 -45q0 -17 -14.5 -31.5t-39.5 -14.5q-21 0 -36 15t-15 35q0 48 50.5 74.5t107.5 26.5q83 0 127.5 -28.5t44.5 -81.5q0 -6 -0.5 -16.5t-1 -30t-0.5 -36.5
q-2 -86 -2 -91q0 -40 18 -40q23 0 23 55h26q-1 -95 -87 -95q-66 0 -75 82q-42 -82 -141 -82q-41 0 -69.5 21.5t-28.5 58.5q0 52 62.5 87.5t168.5 44.5q1 10 1 44q-1 76 -76 76z" />
    <glyph glyph-name="guillemotleft" unicode="&#xab;" horiz-adv-x="540" 
d="M458 32l-206 223l206 223h47l-128 -223l128 -223h-47zM248 32l-206 223l206 223h47l-128 -223l128 -223h-47z" />
    <glyph glyph-name="logicalnot" unicode="&#xac;" horiz-adv-x="482" 
d="M365 100v130h-303v63h358v-193h-55z" />
    <glyph glyph-name="uni00AD" unicode="&#xad;" horiz-adv-x="438" 
d="M375 301v-70h-313v70h313z" />
    <glyph glyph-name="registered" unicode="&#xae;" horiz-adv-x="508" 
d="M458 530q0 -85 -61 -143q-59 -58 -146 -58q-85 0 -143 58t-58 143q0 87 58 146q58 60 143 60q86 0 146 -61q61 -60 61 -145zM429 530q0 75 -52 127t-126 52q-71 0 -124 -53t-53 -126q0 -71 53 -124t124 -53q73 0 125 52q53 53 53 125zM368 471h13q-3 -48 -35 -48
q-26 0 -41 16t-16 38t-10 38t-26 16h-19v-76q0 -20 16 -20h13v-13h-113v13h13q9 0 12.5 4t3.5 16v162q0 13 -3.5 17t-12.5 4h-13v13h124q82 0 82 -60q0 -22 -18.5 -37.5t-50.5 -17.5q11 -1 20.5 -6t15.5 -12t10.5 -15.5t7 -17.5t4.5 -17t3 -14t2.5 -9.5t3.5 -2.5q12 0 14 29
zM267 638h-8q-9 0 -13.5 -1t-8 -7t-3.5 -17v-69h28q39 0 39 47t-34 47z" />
    <glyph glyph-name="overscore" unicode="&#xaf;" horiz-adv-x="491" 
d="M407 669v-74h-323v74h323z" />
    <glyph glyph-name="degree" unicode="&#xb0;" horiz-adv-x="381" 
d="M104 582q0 -34 26 -63q27 -27 60 -27q35 0 61 27t26 63q0 34 -26 59.5t-61 25.5q-33 0 -59.5 -26t-26.5 -59zM52 583q0 59 39 98q40 40 99 40t98 -40q40 -39 40 -98q0 -62 -40 -102q-39 -40 -98 -40t-99 40q-39 41 -39 102z" />
    <glyph glyph-name="plusminus" unicode="&#xb1;" horiz-adv-x="578" 
d="M320 330v-166h-62v166h-188v62h188v166h62v-166h188v-62h-188zM508 96v-63h-438v63h438z" />
    <glyph glyph-name="twosuperior" unicode="&#xb2;" horiz-adv-x="373" 
d="M83 608q6 3 16 3q16 0 26 -10.5t10 -26.5q0 -17 -11.5 -28.5t-27.5 -11.5q-17 0 -30 16t-13 35q0 52 41 79t88 27q49 0 84 -29q36 -28 36 -69q0 -49 -30 -84q-28 -33 -125 -94q-16 -10 -16 -12q0 -5 49 -5h81q18 0 22 10q5 9 19 63h19l-9 -133h-260v20l115 119
q50 53 50 115q0 31 -17.5 48.5t-44.5 17.5q-26 0 -49 -14.5t-23 -35.5z" />
    <glyph glyph-name="threesuperior" unicode="&#xb3;" horiz-adv-x="371" 
d="M312 426q0 -44 -37.5 -70.5t-98.5 -26.5q-18 0 -35.5 3.5t-37.5 12.5t-32 28.5t-12 47.5q0 25 23.5 34.5t40.5 -7.5q20 -17 9 -40.5t-37 -20.5q17 -32 66 -32q68 0 68 77q0 36 -13 51.5t-41 15.5q-2 0 -17.5 -2t-20.5 -2q-13 0 -13 16q0 15 13 15q3 0 19 -2t19 -2
q43 0 43 78q0 31 -14.5 48t-39.5 17q-55 0 -65 -37q1 1 5 1q36 0 36 -36q0 -15 -10.5 -24.5t-25.5 -9.5q-18 0 -28 13t-10 31q0 43 35 66q35 22 79 22q56 0 88 -24.5t32 -63.5q0 -33 -23 -58.5t-61 -32.5q96 -11 96 -86z" />
    <glyph glyph-name="acute" unicode="&#xb4;" horiz-adv-x="466" 
d="M285 579l-63 -45l-24 13l21 49l20 46l19 35q16 28 32 39t43 14q20 0 35 -13t15 -29q0 -30 -51 -72q-46 -36 -47 -37z" />
    <glyph glyph-name="mu" unicode="&#xb5;" horiz-adv-x="706" 
d="M681 517q0 -96 -72 -156q-71 -59 -185 -59h-126v-73h172v-55h-172v-72q0 -37 11.5 -50t40.5 -13h41v-39h-353v39h41q29 0 40.5 13t11.5 50v72h-100v55h100v74h-100v54h100v263q0 37 -11.5 50t-40.5 13h-41v39h386q116 0 186 -55q71 -56 71 -150zM514 517q0 67 -34 116
q-33 50 -88 50h-48q-25 0 -35.5 -14t-10.5 -49v-263h94q55 0 88 47q34 46 34 113z" />
    <glyph glyph-name="paragraph" unicode="&#xb6;" horiz-adv-x="601" 
d="M594 722v-39h-60q-29 0 -40.5 -13t-11.5 -50v-620h-55v683h-124v-683h-56v340q-81 4 -140 51q-57 47 -57 140q0 52 20 91t53 59.5t68.5 30.5t72.5 10h330z" />
    <glyph glyph-name="middot" unicode="&#xb7;" horiz-adv-x="263" 
d="M81 231q-21 21 -21 51t21 51t51 21t50 -21q21 -21 21 -51t-21 -51q-20 -20 -50 -20t-51 20z" />
    <glyph glyph-name="cedilla" unicode="&#xb8;" horiz-adv-x="342" 
d="M104 -163v29q22 -7 42 -7q49 0 49 37q0 31 -68 31l21 73h45l-12 -44q36 -2 61 -19t25 -44q0 -31 -24 -51t-63 -20q-36 0 -76 15z" />
    <glyph glyph-name="onesuperior" unicode="&#xb9;" horiz-adv-x="366" 
d="M202 691h23v-289q0 -20 6.5 -27.5t22.5 -7.5h45v-29h-229v29h45q15 0 21.5 7.5t6.5 27.5v169q0 33 -15 33q-8 0 -13 -1l-45 -9v29q68 16 97 31q24 12 35 37z" />
    <glyph glyph-name="ordmasculine" unicode="&#xba;" horiz-adv-x="476" 
d="M238 355q81 0 81 153t-81 153t-81 -153t81 -153zM375 640q51 -50 51 -132t-51 -133q-50 -50 -137 -50q-86 0 -138 50q-50 52 -50 133q0 82 50 132q51 51 138 51q88 0 137 -51z" />
    <glyph glyph-name="guillemotright" unicode="&#xbb;" horiz-adv-x="540" 
d="M35 478h46l206 -223l-206 -223h-46l128 223zM245 478h46l206 -223l-206 -223h-46l128 223z" />
    <glyph glyph-name="onequarter" unicode="&#xbc;" horiz-adv-x="772" 
d="M202 691h23v-289q0 -20 6.5 -27.5t22.5 -7.5h45v-29h-229v29h45q15 0 21.5 7.5t6.5 27.5v169q0 33 -15 33q-8 0 -13 -1l-45 -9v29q68 16 97 31q24 12 35 37zM669 677l-498 -677h-67l499 677h66zM610 353h28v-230h62v-37h-62v-29q0 -17 6 -23.5t19 -6.5h35v-27h-204v27h38
q13 0 18.5 6.5t5.5 23.5v29h-146v37zM556 123v134l-114 -134h114z" />
    <glyph glyph-name="onehalf" unicode="&#xbd;" horiz-adv-x="772" 
d="M482 270q6 3 16 3q16 0 26 -10.5t10 -26.5q0 -17 -11.5 -28.5t-27.5 -11.5q-17 0 -30 16t-13 35q0 52 41 79t88 27q49 0 84 -29q36 -28 36 -69q0 -49 -30 -84q-28 -33 -125 -94q-16 -10 -16 -12q0 -5 49 -5h81q18 0 22 10q5 9 19 63h19l-9 -133h-260v20l115 119
q50 53 50 115q0 31 -17.5 48.5t-44.5 17.5q-26 0 -49 -14.5t-23 -35.5zM202 691h23v-289q0 -20 6.5 -27.5t22.5 -7.5h45v-29h-229v29h45q15 0 21.5 7.5t6.5 27.5v169q0 33 -15 33q-8 0 -13 -1l-45 -9v29q68 16 97 31q24 12 35 37zM669 677l-498 -677h-67l499 677h66z" />
    <glyph glyph-name="threequarters" unicode="&#xbe;" horiz-adv-x="776" 
d="M609 353h28v-230h62v-37h-62v-29q0 -18 5.5 -24t19.5 -6h34v-27h-203v27h37q13 0 19 6.5t6 23.5v29h-146v37zM555 123v134l-115 -134h115zM675 677l-498 -677h-67l499 677h66zM312 426q0 -44 -37.5 -70.5t-98.5 -26.5q-18 0 -35.5 3.5t-37.5 12.5t-32 28.5t-12 47.5
q0 25 23.5 34.5t40.5 -7.5q20 -17 9 -40.5t-37 -20.5q17 -32 66 -32q68 0 68 77q0 36 -13 51.5t-41 15.5q-2 0 -17.5 -2t-20.5 -2q-13 0 -13 16q0 15 13 15q3 0 19 -2t19 -2q43 0 43 78q0 31 -14.5 48t-39.5 17q-55 0 -65 -37q1 1 5 1q36 0 36 -36q0 -15 -10.5 -24.5
t-25.5 -9.5q-18 0 -28 13t-10 31q0 43 35 66q35 22 79 22q56 0 88 -24.5t32 -63.5q0 -33 -23 -58.5t-61 -32.5q96 -11 96 -86z" />
    <glyph glyph-name="questiondown" unicode="&#xbf;" horiz-adv-x="547" 
d="M40 162q0 65 25.5 99t76.5 66l53 35q59 38 77 116h41q0 -79 -43 -142q-2 -2 -21 -27.5t-23.5 -34l-16 -30t-15.5 -41t-4 -41.5q0 -62 34.5 -99t89.5 -37q39 0 67.5 19t40.5 52q-27 3 -44 21t-17 44q0 28 19.5 47.5t46.5 19.5q30 0 50 -20.5t20 -52.5q0 -70 -58 -119
q-56 -49 -171 -49q-106 0 -167 52t-61 122zM342 715q21 -20 21 -50t-21 -51q-20 -21 -50 -21t-51 21t-21 51t21 50q21 21 51 21t50 -21z" />
    <glyph glyph-name="Agrave" unicode="&#xc0;" horiz-adv-x="768" 
d="M444 876l32 -65l-24 -13l-54 38l-47 35q-3 3 -17 16t-19 18q-23 28 -23 45q0 16 14 29t33 13q40 0 59 -29q14 -17 21 -33q1 -1 9.5 -20zM763 39v-39h-335v39h52q39 0 39 25q0 10 -11 38l-46 120h-262l-36 -97q-11 -27 -11 -48q0 -38 48 -38h38v-39h-234v39h13q61 0 96 86
l239 611h74l248 -634q14 -35 31 -49t43 -14h14zM444 268l-113 289l-112 -289h225z" />
    <glyph glyph-name="Aacute" unicode="&#xc1;" horiz-adv-x="768" 
d="M393 843l-63 -45l-24 13l21 49l20 46l19 35q16 28 32 39t43 14q19 0 34 -12.5t15 -29.5q0 -29 -50 -71zM763 39v-39h-335v39h52q39 0 39 25q0 10 -11 38l-46 120h-262l-36 -97q-11 -27 -11 -48q0 -38 48 -38h38v-39h-234v39h13q61 0 96 86l239 611h74l248 -634
q14 -35 31 -49t43 -14h14zM444 268l-113 289l-112 -289h225z" />
    <glyph glyph-name="Acircumflex" unicode="&#xc2;" horiz-adv-x="768" 
d="M434 993l122 -172h-38l-134 110l-134 -110h-38l122 172h100zM763 39v-39h-335v39h52q39 0 39 25q0 10 -11 38l-46 120h-262l-36 -97q-11 -27 -11 -48q0 -38 48 -38h38v-39h-234v39h13q61 0 96 86l239 611h74l248 -634q14 -35 31 -49t43 -14h14zM444 268l-113 289
l-112 -289h225z" />
    <glyph glyph-name="Atilde" unicode="&#xc3;" horiz-adv-x="768" 
d="M318 905q-39 0 -76 -55l-42 28q27 58 53 81.5t66 23.5q37 0 74 -28q37 -27 55 -27q41 0 77 54l42 -27q-27 -58 -53 -81.5t-66 -23.5q-39 0 -76 27q-37 28 -54 28zM763 39v-39h-335v39h52q39 0 39 25q0 10 -11 38l-46 120h-262l-36 -97q-11 -27 -11 -48q0 -38 48 -38h38
v-39h-234v39h13q61 0 96 86l239 611h74l248 -634q14 -35 31 -49t43 -14h14zM444 268l-113 289l-112 -289h225z" />
    <glyph glyph-name="Adieresis" unicode="&#xc4;" horiz-adv-x="768" 
d="M428 876q0 25 18 43.5t42 18.5q25 0 43 -18t18 -44q0 -24 -18 -41.5t-43 -17.5q-24 0 -42 17.5t-18 41.5zM218 876q0 26 17.5 44t42.5 18t43 -18t18 -44q0 -24 -18 -41.5t-43 -17.5t-42.5 17.5t-17.5 41.5zM239 0h-234v39h13q61 0 96 86l239 611h74l248 -634
q14 -35 31 -49t43 -14h14v-39h-335v39h52q39 0 39 25q0 10 -11 38l-46 120h-262l-36 -97q-11 -27 -11 -48q0 -38 48 -38h38v-39zM444 268l-113 289l-112 -289h225z" />
    <glyph glyph-name="Aring" unicode="&#xc5;" horiz-adv-x="768" 
d="M384 862q16 0 26.5 11.5t10.5 27.5q0 17 -10.5 28t-26.5 11q-15 0 -26.5 -11.5t-11.5 -27.5t11.5 -27.5t26.5 -11.5zM325 842q-23 25 -23 60q0 36 23 59q24 23 59 23t58 -23q24 -23 24 -59t-24 -60q-23 -24 -58 -24t-59 24zM763 39v-39h-335v39h52q39 0 39 25
q0 10 -11 38l-46 120h-262l-36 -97q-11 -27 -11 -48q0 -38 48 -38h38v-39h-234v39h13q61 0 96 86l239 611h74l248 -634q14 -35 31 -49t43 -14h14zM444 268l-113 289l-112 -289h225z" />
    <glyph glyph-name="AE" unicode="&#xc6;" horiz-adv-x="1061" 
d="M986 273h39l-18 -273h-610v39h40q53 0 53 63v137h-246l-78 -114q-25 -37 -25 -56q0 -30 51 -30h35v-39h-233v39h14q31 0 52.5 18.5t54.5 67.5l331 496q16 22 16 41q0 21 -29 21h-36v39h588l15 -241h-38q-18 104 -49 157q-12 21 -31 31q-27 14 -71 14h-110
q-27 0 -35.5 -12t-8.5 -51v-226h74q48 0 70 28q23 29 23 114h39v-325h-39q0 85 -23 114t-70 29h-74v-252q0 -37 12.5 -50t43.5 -13h105q34 0 48 2t34 13q29 16 46 61.5t40 157.5zM490 285v323l-213 -323h213z" />
    <glyph glyph-name="Ccedilla" unicode="&#xc7;" horiz-adv-x="696" 
d="M290 -164v28q24 -6 42 -6q48 0 48 36q0 31 -68 31l19 63q-126 13 -209 108q-81 94 -81 252q0 174 92 281q93 107 246 107q107 0 182 -83l28 82h36l15 -284h-40q-30 147 -95 199q-56 46 -111 46q-42 0 -73 -14.5t-56.5 -51t-38.5 -105t-13 -169.5q0 -161 50 -240t140 -79
q82 0 139.5 55.5t78.5 157.5h39q-20 -152 -114 -213q-79 -52 -171 -52l-8 -31q36 -2 61 -19t25 -44q0 -31 -24 -51t-63 -20q-35 0 -76 16z" />
    <glyph glyph-name="Egrave" unicode="&#xc8;" horiz-adv-x="719" 
d="M629 273h39l-18 -273h-610v39h41q29 0 40.5 13t11.5 50v518q0 37 -11.5 50t-40.5 13h-41v39h588l16 -241h-39q-18 104 -49 157q-12 21 -31 31q-27 14 -71 14h-110q-27 0 -35.5 -12t-8.5 -51v-226h74q47 0 69 28q23 28 25 114h38v-325h-38q-2 86 -25 114q-23 29 -69 29
h-74v-252q0 -37 11.5 -50t40.5 -13h109q35 0 55 3q17 3 45 26q42 47 68 205zM452 747l-24 -13q-35 27 -54 38l-47 36q-60 50 -59 78q0 16 14 29t33 13q30 0 58 -31q15 -18 34 -59l21 -42q17 -37 24 -49z" />
    <glyph glyph-name="Eacute" unicode="&#xc9;" horiz-adv-x="719" 
d="M629 273h39l-18 -273h-610v39h41q29 0 40.5 13t11.5 50v518q0 37 -11.5 50t-40.5 13h-41v39h588l16 -241h-39q-18 104 -49 157q-12 21 -31 31q-27 14 -71 14h-110q-27 0 -35.5 -12t-8.5 -51v-226h74q47 0 69 28q23 28 25 114h38v-325h-38q-2 86 -25 114q-23 29 -69 29
h-74v-252q0 -37 11.5 -50t40.5 -13h109q35 0 55 3q17 3 45 26q42 47 68 205zM354 779l-63 -45l-24 13l21 49l20 46l19 35q16 28 32 39t43 14q20 0 35 -13t15 -29q0 -30 -51 -72q-46 -36 -47 -37z" />
    <glyph glyph-name="Ecircumflex" unicode="&#xca;" horiz-adv-x="719" 
d="M629 273h39l-18 -273h-610v39h41q29 0 40.5 13t11.5 50v518q0 37 -11.5 50t-40.5 13h-41v39h588l16 -241h-39q-18 104 -49 157q-12 21 -31 31q-27 14 -71 14h-110q-27 0 -35.5 -12t-8.5 -51v-226h74q47 0 69 28q23 28 25 114h38v-325h-38q-2 86 -25 114q-23 29 -69 29
h-74v-252q0 -37 11.5 -50t40.5 -13h109q35 0 55 3q17 3 45 26q42 47 68 205zM402 993l123 -172h-39l-134 110l-134 -110h-39l123 172h100z" />
    <glyph glyph-name="Edieresis" unicode="&#xcb;" horiz-adv-x="719" 
d="M629 273h39l-18 -273h-610v39h41q29 0 40.5 13t11.5 50v518q0 37 -11.5 50t-40.5 13h-41v39h588l16 -241h-39q-18 104 -49 157q-12 21 -31 31q-27 14 -71 14h-110q-27 0 -35.5 -12t-8.5 -51v-226h74q47 0 69 28q23 28 25 114h38v-325h-38q-2 86 -25 114q-23 29 -69 29
h-74v-252q0 -37 11.5 -50t40.5 -13h109q35 0 55 3q17 3 45 26q42 47 68 205zM404 812q0 26 17.5 44t42.5 18t42.5 -18t17.5 -44q0 -24 -17.5 -41.5t-42.5 -17.5t-42.5 17.5t-17.5 41.5zM194 812q0 26 17.5 44t42.5 18t43 -18.5t18 -43.5q0 -24 -18 -41.5t-43 -17.5
t-42.5 17.5t-17.5 41.5z" />
    <glyph glyph-name="Igrave" unicode="&#xcc;" horiz-adv-x="433" 
d="M277 877l32 -66l-24 -13l-61 42l-48 37q-51 43 -51 73q0 16 14.5 29t32.5 13q40 0 59 -29q13 -17 21 -33q14 -28 25 -53zM300 620v-518q0 -37 11.5 -50t40.5 -13h41v-39h-353v39h41q29 0 40.5 13t11.5 50v518q0 37 -11.5 50t-40.5 13h-41v39h353v-39h-41q-29 0 -40.5 -13
t-11.5 -50z" />
    <glyph glyph-name="Iacute" unicode="&#xcd;" horiz-adv-x="433" 
d="M226 843l-63 -45l-24 13l21 49l20 46l19 35q16 28 32 39t43 14q20 0 35 -13t15 -29q0 -30 -51 -72q-46 -36 -47 -37zM300 620v-518q0 -37 11.5 -50t40.5 -13h41v-39h-353v39h41q31 0 41.5 14.5t10.5 59.5v507q0 37 -11.5 50t-40.5 13h-41v39h353v-39h-41q-29 0 -40.5 -13
t-11.5 -50z" />
    <glyph glyph-name="Icircumflex" unicode="&#xce;" horiz-adv-x="433" 
d="M300 620v-518q0 -37 11.5 -50t40.5 -13h41v-39h-353v39h41q29 0 40.5 13t11.5 50v518q0 37 -11.5 50t-40.5 13h-41v39h353v-39h-41q-29 0 -40.5 -13t-11.5 -50zM267 993l123 -172h-39l-134 110l-134 -110h-39l123 172h100z" />
    <glyph glyph-name="Idieresis" unicode="&#xcf;" horiz-adv-x="433" 
d="M300 620v-518q0 -37 11.5 -50t40.5 -13h41v-39h-353v39h41q29 0 40.5 13t11.5 50v518q0 37 -11.5 50t-40.5 13h-41v39h353v-39h-41q-29 0 -40.5 -13t-11.5 -50zM261 876q0 25 18 43.5t42 18.5q25 0 43 -18t18 -44q0 -24 -18 -41.5t-43 -17.5q-24 0 -42 17.5t-18 41.5z
M51 876q0 25 18 43.5t42 18.5q25 0 43 -18t18 -44q0 -24 -18 -41.5t-43 -17.5q-24 0 -42 17.5t-18 41.5z" />
    <glyph glyph-name="Eth" unicode="&#xd0;" horiz-adv-x="812" 
d="M40 683v39h403q156 0 241 -103q87 -102 87 -258q0 -157 -87 -259t-243 -102h-401v39h41q29 0 40.5 13t11.5 50v248h-94v55h94v215q0 37 -11.5 50t-40.5 13h-41zM436 405v-55h-136v-248q0 -37 11.5 -50t40.5 -13h48q98 0 148.5 84.5t50.5 237.5q0 155 -49.5 238.5
t-147.5 83.5h-58q-27 0 -35.5 -12t-8.5 -51v-215h136z" />
    <glyph glyph-name="Ntilde" unicode="&#xd1;" horiz-adv-x="793" 
d="M681 605v-605h-46l-451 552h-4v-435q0 -37 16 -57.5t44 -20.5h34v-39h-238v39h34q59 0 59 78v503q0 37 -11.5 50t-40.5 13h-41v39h219l371 -467h5v350q0 37 -16 57.5t-44 20.5h-34v39h238v-39h-34q-28 0 -44 -20.5t-16 -57.5zM332 905q-40 0 -77 -55l-42 28
q27 58 53 81.5t66 23.5q37 0 74 -28q38 -27 56 -27q40 0 76 54l42 -27q-27 -58 -53 -81.5t-66 -23.5q-33 0 -75.5 27.5t-53.5 27.5z" />
    <glyph glyph-name="Ograve" unicode="&#xd2;" horiz-adv-x="781" 
d="M450 876l32 -65l-23 -13l-54 38l-47 35q-61 50 -60 79q0 16 14 29t33 13q39 0 60 -29q11 -14 20 -33q14 -28 25 -54zM648 630q92 -106 92 -269t-92 -270q-91 -106 -258 -106t-258 106t-91 270q0 165 91 269q91 106 258 106t258 -106zM390 697q-88 0 -132.5 -87.5
t-44.5 -248.5t44.5 -248.5t132.5 -87.5q89 0 133.5 87t44.5 249t-44.5 249t-133.5 87z" />
    <glyph glyph-name="Oacute" unicode="&#xd3;" horiz-adv-x="781" 
d="M336 798l-23 13l21 49l20 46q7 16 18 35q16 28 32 39t43 14q20 0 35 -13t15 -29q0 -26 -37 -59.5t-124 -94.5zM648 630q92 -106 92 -269t-92 -270q-91 -106 -258 -106t-258 106t-91 270q0 165 91 269q91 106 258 106t258 -106zM390 697q-88 0 -132.5 -87.5t-44.5 -248.5
t44.5 -248.5t132.5 -87.5q89 0 133.5 87t44.5 249t-44.5 249t-133.5 87z" />
    <glyph glyph-name="Ocircumflex" unicode="&#xd4;" horiz-adv-x="781" 
d="M648 630q92 -106 92 -269t-92 -270q-91 -106 -258 -106t-258 106t-91 270q0 165 91 269q91 106 258 106t258 -106zM390 697q-88 0 -132.5 -87.5t-44.5 -248.5t44.5 -248.5t132.5 -87.5q89 0 133.5 87t44.5 249t-44.5 249t-133.5 87zM440 993l123 -172h-39l-134 110
l-134 -110h-39l123 172h100z" />
    <glyph glyph-name="Otilde" unicode="&#xd5;" horiz-adv-x="781" 
d="M648 630q92 -106 92 -269t-92 -270q-91 -106 -258 -106t-258 106t-91 270q0 165 91 269q91 106 258 106t258 -106zM390 697q-88 0 -132.5 -87.5t-44.5 -248.5t44.5 -248.5t132.5 -87.5q89 0 133.5 87t44.5 249t-44.5 249t-133.5 87zM325 905q-40 0 -77 -55l-42 28
q28 58 54 81.5t66 23.5q37 0 74 -28q37 -27 55 -27q41 0 77 54l41 -27q-27 -58 -53 -81.5t-66 -23.5q-33 0 -75.5 27.5t-53.5 27.5z" />
    <glyph glyph-name="Odieresis" unicode="&#xd6;" horiz-adv-x="781" 
d="M648 630q92 -106 92 -269t-92 -270q-91 -106 -258 -106t-258 106t-91 270q0 165 91 269q91 106 258 106t258 -106zM390 697q-88 0 -132.5 -87.5t-44.5 -248.5t44.5 -248.5t132.5 -87.5q89 0 133.5 87t44.5 249t-44.5 249t-133.5 87zM435 876q0 25 17.5 43.5t41.5 18.5
q25 0 43 -18t18 -44q0 -24 -18 -41.5t-43 -17.5q-24 0 -41.5 17.5t-17.5 41.5zM224 876q0 25 18 43.5t42 18.5q25 0 43 -18t18 -44q0 -24 -18 -41.5t-43 -17.5q-24 0 -42 17.5t-18 41.5z" />
    <glyph glyph-name="multiply" unicode="&#xd7;" horiz-adv-x="575" 
d="M78 165l164 165l-164 165l44 44l165 -164l158 156l44 -44l-157 -157l157 -157l-44 -44l-158 156l-165 -164z" />
    <glyph glyph-name="Oslash" unicode="&#xd8;" horiz-adv-x="781" 
d="M170 55l-45 -55h-67l75 90q-92 104 -92 271q0 165 91 269q91 106 258 106q131 0 220 -71l47 57h65l-75 -91q93 -103 93 -270q0 -163 -92 -270q-91 -106 -258 -106q-132 0 -220 70zM213 361q0 -92 14 -157l310 374q-44 119 -147 119q-88 0 -132.5 -87.5t-44.5 -248.5z
M568 361q0 84 -14 157l-310 -375q43 -118 146 -118q89 0 133.5 87t44.5 249z" />
    <glyph glyph-name="Ugrave" unicode="&#xd9;" horiz-adv-x="795" 
d="M458 877l32 -66l-24 -13l-61 42l-48 37q-51 43 -51 73q0 16 14 29t33 13q40 0 59 -29q14 -17 21 -33q14 -28 25 -53zM777 722v-39h-34q-59 0 -59 -78v-382q0 -238 -286 -238q-287 0 -287 238v397q0 37 -11.5 50t-40.5 13h-42v39h354v-39h-42q-29 0 -40.5 -13t-11.5 -50
v-397q0 -182 178 -182q179 0 179 182v382q0 37 -16 57.5t-44 20.5h-34v39h237z" />
    <glyph glyph-name="Uacute" unicode="&#xda;" horiz-adv-x="795" 
d="M344 798l-24 13l21 49l20 45l18 36q16 28 32 39t43 14q20 0 35.5 -12.5t15.5 -29.5q0 -28 -50 -71l-49 -38q-17 -13 -62 -45zM777 722v-39h-34q-59 0 -59 -78v-382q0 -238 -286 -238q-287 0 -287 238v397q0 37 -11.5 50t-40.5 13h-42v39h354v-39h-42q-29 0 -40.5 -13
t-11.5 -50v-397q0 -182 178 -182q179 0 179 182v382q0 37 -16 57.5t-44 20.5h-34v39h237z" />
    <glyph glyph-name="Ucircumflex" unicode="&#xdb;" horiz-adv-x="795" 
d="M447 993l123 -172h-39l-134 110l-134 -110h-39l123 172h100zM777 722v-39h-34q-59 0 -59 -78v-382q0 -238 -286 -238q-287 0 -287 238v397q0 37 -11.5 50t-40.5 13h-42v39h354v-39h-42q-29 0 -40.5 -13t-11.5 -50v-397q0 -182 178 -182q179 0 179 182v382q0 37 -16 57.5
t-44 20.5h-34v39h237z" />
    <glyph glyph-name="Udieresis" unicode="&#xdc;" horiz-adv-x="795" 
d="M442 876q0 25 18 43.5t42 18.5q25 0 43 -18t18 -44q0 -24 -18 -41.5t-43 -17.5q-24 0 -42 17.5t-18 41.5zM232 876q0 26 17.5 44t42.5 18t43 -18.5t18 -43.5q0 -24 -18 -41.5t-43 -17.5t-42.5 17.5t-17.5 41.5zM777 722v-39h-34q-59 0 -59 -78v-382q0 -238 -286 -238
q-287 0 -287 238v397q0 37 -11.5 50t-40.5 13h-42v39h354v-39h-42q-29 0 -40.5 -13t-11.5 -50v-397q0 -182 178 -182q179 0 179 182v382q0 37 -16 57.5t-44 20.5h-34v39h237z" />
    <glyph glyph-name="Yacute" unicode="&#xdd;" horiz-adv-x="751" 
d="M746 722v-39h-20q-24 0 -57 -27q-2 -2 -28 -38l-12 -22l-11 -20l-154 -275v-199q0 -37 11.5 -50t40.5 -13h41v-39h-353v39h41q30 0 41 15t11 59v189l-190 318q-37 63 -83 63h-19v39h348v-39h-47q-37 0 -37 -23q0 -11 19 -40l159 -258l122 215q27 49 27 70q0 36 -33 36
h-41v39h224zM351 798l-23 13l18 42q25 57 33 73q13 27 35 49q19 19 48 19q20 0 35 -12.5t15 -29.5q0 -26 -37 -59.5t-124 -94.5z" />
    <glyph glyph-name="Thorn" unicode="&#xde;" horiz-adv-x="708" 
d="M326 205h68q54 0 88 51q34 50 34 118q0 67 -34 116q-33 50 -88 50h-45q-29 0 -39 -10.5t-10 -45.5v-245q0 -34 26 -34zM300 620v-41h126q116 0 186 -55q71 -56 71 -150q0 -95 -71 -152q-71 -56 -186 -56h-126v-64q0 -37 11.5 -50t40.5 -13h41v-39h-353v39h41q30 0 41 15
t11 60v506q0 37 -11.5 50t-40.5 13h-41v39h353v-39h-41q-29 0 -40.5 -13t-11.5 -50z" />
    <glyph glyph-name="germandbls" unicode="&#xdf;" horiz-adv-x="699" 
d="M330 393v39q63 1 94 46q31 44 31 106q0 124 -106 124q-46 0 -75 -39.5t-29 -114.5v-469q0 -27 8 -36.5t31 -9.5h18v-39h-274v39h38q24 0 31.5 12.5t7.5 46.5v391q0 115 57 187q59 72 187 72q122 0 184.5 -44.5t62.5 -119.5q0 -65 -43 -111t-118 -57q116 -17 171.5 -71
t55.5 -148q0 -98 -57 -155t-166 -57q-64 0 -97 34t-33 92q0 25 18.5 43.5t43.5 18.5t41.5 -17t16.5 -42q0 -18 -18.5 -37t-41.5 -19q1 -15 16.5 -24t39.5 -9q43 0 69 43t26 129q0 99 -41 148q-40 48 -149 48z" />
    <glyph glyph-name="agrave" unicode="&#xe0;" horiz-adv-x="582" 
d="M234 45q103 0 107 190q-164 -12 -164 -123q0 -31 15 -49t42 -18zM245 429q-65 0 -97 -33q39 -16 39 -59q0 -29 -19 -48t-54 -19q-29 0 -48.5 19.5t-19.5 47.5q0 65 67 99q68 35 145 35q109 0 168.5 -37.5t59.5 -108.5q0 -25 -3 -111t-3 -121q0 -53 24 -53q30 0 30 73h33
q-1 -65 -28.5 -95.5t-84.5 -30.5q-90 0 -99 108q-59 -108 -188 -108q-56 0 -92.5 28.5t-36.5 78.5q0 69 82 115q83 49 222 59q0 15 0.5 29.5t1 21.5t0.5 9q-2 101 -99 101zM383 547l-24 -13q-35 27 -54 38l-47 36q-60 50 -59 78q0 16 14.5 29t32.5 13q30 0 58 -31
q15 -18 34 -59l21 -42q17 -37 24 -49z" />
    <glyph glyph-name="aacute" unicode="&#xe1;" horiz-adv-x="582" 
d="M234 45q103 0 107 190q-164 -12 -164 -123q0 -31 15 -49t42 -18zM245 429q-65 0 -97 -33q39 -16 39 -59q0 -29 -19 -48t-54 -19q-29 0 -48.5 19.5t-19.5 47.5q0 65 67 99q68 35 145 35q109 0 168.5 -37.5t59.5 -108.5q0 -25 -3 -111t-3 -121q0 -53 24 -53q30 0 30 73h33
q-1 -65 -28.5 -95.5t-84.5 -30.5q-90 0 -99 108q-59 -108 -188 -108q-56 0 -92.5 28.5t-36.5 78.5q0 69 82 115q83 49 222 59q0 15 0.5 29.5t1 21.5t0.5 9q-2 101 -99 101zM285 579l-63 -45l-24 13l21 49l20 46l19 35q16 28 32 39t43 14q20 0 35 -13t15 -29q0 -30 -51 -72
q-46 -36 -47 -37z" />
    <glyph glyph-name="acircumflex" unicode="&#xe2;" horiz-adv-x="582" 
d="M234 45q103 0 107 190q-164 -12 -164 -123q0 -31 15 -49t42 -18zM245 429q-65 0 -97 -33q39 -16 39 -59q0 -29 -19 -48t-54 -19q-29 0 -48.5 19.5t-19.5 47.5q0 65 67 99q68 35 145 35q109 0 168.5 -37.5t59.5 -108.5q0 -25 -3 -111t-3 -121q0 -53 24 -53q30 0 30 73h33
q-1 -65 -28.5 -95.5t-84.5 -30.5q-90 0 -99 108q-59 -108 -188 -108q-56 0 -92.5 28.5t-36.5 78.5q0 69 82 115q83 49 222 59q0 15 0.5 29.5t1 21.5t0.5 9q-2 101 -99 101zM341 729l122 -172h-38l-134 110l-134 -110h-39l123 172h100z" />
    <glyph glyph-name="atilde" unicode="&#xe3;" horiz-adv-x="582" 
d="M234 45q103 0 107 190q-164 -12 -164 -123q0 -31 15 -49t42 -18zM245 429q-65 0 -97 -33q39 -16 39 -59q0 -29 -19 -48t-54 -19q-29 0 -48.5 19.5t-19.5 47.5q0 65 67 99q68 35 145 35q109 0 168.5 -37.5t59.5 -108.5q0 -25 -3 -111t-3 -121q0 -53 24 -53q30 0 30 73h33
q-1 -65 -28.5 -95.5t-84.5 -30.5q-90 0 -99 108q-59 -108 -188 -108q-56 0 -92.5 28.5t-36.5 78.5q0 69 82 115q83 49 222 59q0 15 0.5 29.5t1 21.5t0.5 9q-2 101 -99 101zM226 641q-40 0 -77 -55l-41 28q27 58 53 81.5t66 23.5q36 0 73 -28q38 -27 56 -27q41 0 77 54
l41 -27q-27 -58 -53 -81.5t-65 -23.5q-38 0 -77 27q-37 28 -53 28z" />
    <glyph glyph-name="adieresis" unicode="&#xe4;" horiz-adv-x="582" 
d="M234 45q103 0 107 190q-164 -12 -164 -123q0 -31 15 -49t42 -18zM245 429q-65 0 -97 -33q39 -16 39 -59q0 -29 -19 -48t-54 -19q-29 0 -48.5 19.5t-19.5 47.5q0 65 67 99q68 35 145 35q109 0 168.5 -37.5t59.5 -108.5q0 -25 -3 -111t-3 -121q0 -53 24 -53q30 0 30 73h33
q-1 -65 -28.5 -95.5t-84.5 -30.5q-90 0 -99 108q-59 -108 -188 -108q-56 0 -92.5 28.5t-36.5 78.5q0 69 82 115q83 49 222 59q0 15 0.5 29.5t1 21.5t0.5 9q-2 101 -99 101zM336 612q0 26 17.5 44t42.5 18t42.5 -18t17.5 -44q0 -24 -17.5 -41.5t-42.5 -17.5t-42.5 17.5
t-17.5 41.5zM126 612q0 26 17.5 44t42.5 18t43 -18.5t18 -43.5q0 -24 -18 -41.5t-43 -17.5t-42.5 17.5t-17.5 41.5z" />
    <glyph glyph-name="aring" unicode="&#xe5;" horiz-adv-x="582" 
d="M234 45q103 0 107 190q-164 -12 -164 -123q0 -31 15 -49t42 -18zM245 429q-65 0 -97 -33q39 -16 39 -59q0 -29 -19 -48t-54 -19q-29 0 -48.5 19.5t-19.5 47.5q0 65 67 99q68 35 145 35q109 0 168.5 -37.5t59.5 -108.5q0 -25 -3 -111t-3 -121q0 -53 24 -53q30 0 30 73h33
q-1 -65 -28.5 -95.5t-84.5 -30.5q-90 0 -99 108q-59 -108 -188 -108q-56 0 -92.5 28.5t-36.5 78.5q0 69 82 115q83 49 222 59q0 15 0.5 29.5t1 21.5t0.5 9q-2 101 -99 101zM253 637q0 -15 11.5 -27t26.5 -12q16 0 26.5 11.5t10.5 27.5q0 17 -10.5 28t-26.5 11
q-15 0 -26.5 -11.5t-11.5 -27.5zM232 578q-23 25 -23 60q0 36 23 59q24 23 59 23t58 -23q24 -23 24 -59t-24 -60q-23 -24 -58 -24t-59 24z" />
    <glyph glyph-name="ae" unicode="&#xe6;" horiz-adv-x="838" 
d="M800 230h-316v-21q0 -86 32 -130.5t90 -44.5q102 0 149 114l35 -15q-22 -73 -83 -111q-59 -37 -123 -37q-141 0 -206 113q-66 -111 -211 -111q-56 0 -92.5 28.5t-36.5 78.5q0 69 82 115q83 49 222 59q0 15 0.5 29.5t1 21.5t0.5 9q-1 101 -99 101q-57 0 -86 -38
q28 -19 28 -60q0 -23 -20 -42t-53 -19q-29 0 -48.5 19.5t-19.5 47.5q0 65 67 99q68 35 145 35q124 0 162 -72q72 72 175 72q102 0 153.5 -62.5t51.5 -178.5zM583 433q-92 0 -98 -163h144q14 0 21.5 10.5t7.5 23.5q0 62 -19.5 95.5t-55.5 33.5zM234 45q103 0 107 190
q-164 -12 -164 -123q0 -31 15 -49t42 -18z" />
    <glyph glyph-name="ccedilla" unicode="&#xe7;" horiz-adv-x="509" 
d="M445 147l34 -15q-55 -147 -196 -147l-8 -31q36 -2 61 -19t25 -44q0 -31 -24 -51t-63 -20q-34 0 -76 16v28q26 -6 43 -6q20 0 31.5 7.5t14 14.5t2.5 14q0 31 -68 31l18 64q-91 13 -145.5 74t-54.5 158q0 109 72 180q73 71 187 71q79 0 128 -33t49 -93q0 -29 -19.5 -51
t-49.5 -22q-38 0 -55 19.5t-17 47.5q0 20 14 36.5t40 22.5q-19 34 -82 34q-56 0 -90.5 -54t-34.5 -151q0 -88 34.5 -138t91.5 -50q97 0 138 107z" />
    <glyph glyph-name="egrave" unicode="&#xe8;" horiz-adv-x="535" 
d="M496 230h-315v-21q0 -86 32 -130.5t90 -44.5q100 0 149 114l34 -15q-22 -73 -83 -111q-59 -37 -122 -37q-113 0 -178 68q-64 68 -64 176q0 104 65 174q66 69 178 69q214 0 214 -242zM280 433q-92 0 -99 -163h144q14 0 21.5 10.5t7.5 23.5q0 63 -19.5 96t-54.5 33z
M360 547l-24 -13q-35 27 -54 38l-47 36q-60 50 -59 78q0 16 14 29t33 13q30 0 58 -31q15 -18 34 -59l21 -42q17 -37 24 -49z" />
    <glyph glyph-name="eacute" unicode="&#xe9;" horiz-adv-x="535" 
d="M496 230h-315v-21q0 -86 32 -130.5t90 -44.5q100 0 149 114l34 -15q-22 -73 -83 -111q-59 -37 -122 -37q-113 0 -178 68q-64 68 -64 176q0 104 65 174q66 69 178 69q214 0 214 -242zM280 433q-92 0 -99 -163h144q14 0 21.5 10.5t7.5 23.5q0 63 -19.5 96t-54.5 33z
M262 579l-63 -45l-24 13l21 49l20 46l19 35q16 28 32 39t43 14q20 0 35 -13t15 -29q0 -30 -51 -72q-46 -36 -47 -37z" />
    <glyph glyph-name="ecircumflex" unicode="&#xea;" horiz-adv-x="535" 
d="M496 230h-315v-21q0 -86 32 -130.5t90 -44.5q100 0 149 114l34 -15q-22 -73 -83 -111q-59 -37 -122 -37q-113 0 -178 68q-64 68 -64 176q0 104 65 174q66 69 178 69q214 0 214 -242zM280 433q-92 0 -99 -163h144q14 0 21.5 10.5t7.5 23.5q0 63 -19.5 96t-54.5 33z
M318 729l122 -172h-38l-134 110l-134 -110h-39l123 172h100z" />
    <glyph glyph-name="edieresis" unicode="&#xeb;" horiz-adv-x="535" 
d="M496 230h-315v-21q0 -86 32 -130.5t90 -44.5q100 0 149 114l34 -15q-22 -73 -83 -111q-59 -37 -122 -37q-113 0 -178 68q-64 68 -64 176q0 104 65 174q66 69 178 69q214 0 214 -242zM280 433q-92 0 -99 -163h144q14 0 21.5 10.5t7.5 23.5q0 63 -19.5 96t-54.5 33z
M312 612q0 26 17.5 44t42.5 18t42.5 -18t17.5 -44q0 -24 -17.5 -41.5t-42.5 -17.5t-42.5 17.5t-17.5 41.5zM102 612q0 26 17.5 44t42.5 18t43 -18.5t18 -43.5q0 -24 -18 -41.5t-43 -17.5t-42.5 17.5t-17.5 41.5z" />
    <glyph glyph-name="igrave" unicode="&#xec;" horiz-adv-x="347" 
d="M335 39v-39h-307v39h38q23 0 31 9.5t8 36.5v288q0 28 -8.5 37t-35.5 9h-33v39l217 13v-386q0 -27 8 -36.5t31 -9.5h51zM266 547l-24 -13q-35 27 -54 38l-47 36q-60 50 -59 78q0 16 14 29t33 13q30 0 58 -31q15 -18 34 -59l21 -42q17 -37 24 -49z" />
    <glyph glyph-name="iacute" unicode="&#xed;" horiz-adv-x="347" 
d="M335 39v-39h-307v39h38q23 0 31 9.5t8 36.5v288q0 28 -8.5 37t-35.5 9h-33v39l217 13v-386q0 -27 8 -36.5t31 -9.5h51zM168 579l-63 -45l-24 13l21 49l20 46l19 35q16 28 32 39t43 14q20 0 35 -13t15 -29q0 -30 -51 -72q-46 -36 -47 -37z" />
    <glyph glyph-name="icircumflex" unicode="&#xee;" horiz-adv-x="347" 
d="M335 39v-39h-307v39h38q23 0 31 9.5t8 36.5v288q0 28 -8.5 37t-35.5 9h-33v39l217 13v-386q0 -27 8 -36.5t31 -9.5h51zM224 729l122 -172h-38l-134 110l-134 -110h-39l123 172h100z" />
    <glyph glyph-name="idieresis" unicode="&#xef;" horiz-adv-x="347" 
d="M335 39v-39h-307v39h38q23 0 31 9.5t8 36.5v288q0 28 -8.5 37t-35.5 9h-33v39l217 13v-386q0 -27 8 -36.5t31 -9.5h51zM219 612q0 26 17.5 44t42.5 18t42.5 -18t17.5 -44q0 -24 -17.5 -41.5t-42.5 -17.5t-42.5 17.5t-17.5 41.5zM9 612q0 26 17.5 44t42.5 18t43 -18.5
t18 -43.5q0 -24 -18 -41.5t-43 -17.5t-42.5 17.5t-17.5 41.5z" />
    <glyph glyph-name="eth" unicode="&#xf0;" horiz-adv-x="658" 
d="M370 792l43 -33l-33 -43q107 -32 164 -129t57 -233q0 -79 -15 -144t-46.5 -116.5t-85.5 -80t-127 -28.5q-124 0 -197 70t-73 184q0 87 65 158t179 71q42 0 82 -18t64 -49q-4 82 -21 144q-20 85 -86 121l-53 -68l-45 32l38 48q-73 -5 -122 -43l-24 29q70 65 155 65
q4 0 30 -2zM327 25q55 0 86 59t31 159q0 77 -32.5 126.5t-88.5 49.5q-53 0 -83 -49.5t-30 -130.5q0 -109 31.5 -161.5t85.5 -52.5z" />
    <glyph glyph-name="ntilde" unicode="&#xf1;" horiz-adv-x="679" 
d="M664 39v-39h-283v39h27q23 0 31 9.5t8 36.5v197q0 68 -17 94t-59 26q-45 0 -85 -48q-41 -47 -41 -114v-155q0 -27 8 -36.5t31 -9.5h28v-39h-284v39h38q23 0 31 9.5t8 36.5v288q0 27 -8 36.5t-33 9.5h-36v39l203 12l10 -120q22 55 73 88.5t116 33.5q83 0 120.5 -44
t37.5 -131v-212q0 -27 8 -36.5t31 -9.5h37zM274 641q-40 0 -77 -55l-41 28q27 58 53 81.5t66 23.5q36 0 73 -28q37 -27 56 -27q41 0 77 54l41 -27q-27 -58 -53 -81.5t-65 -23.5q-38 0 -77 27q-37 28 -53 28z" />
    <glyph glyph-name="ograve" unicode="&#xf2;" horiz-adv-x="577" 
d="M289 25q108 0 108 204t-108 204t-108 -204t108 -204zM289 472q115 0 182 -67t67 -176q0 -110 -67 -177t-182 -67q-116 0 -183 67t-67 177q0 109 67 176t183 67zM380 547l-24 -13q-35 27 -54 38l-47 36q-60 50 -59 78q0 16 14.5 29t32.5 13q30 0 58 -31q15 -18 34 -59
l21 -42q17 -37 24 -49z" />
    <glyph glyph-name="oacute" unicode="&#xf3;" horiz-adv-x="577" 
d="M289 25q108 0 108 204t-108 204t-108 -204t108 -204zM289 472q115 0 182 -67t67 -176q0 -110 -67 -177t-182 -67q-116 0 -183 67t-67 177q0 109 67 176t183 67zM283 579l-63 -45l-24 13l21 49l20 46l19 35q16 28 32 39t43 14q20 0 35 -13t15 -29q0 -30 -51 -72
q-46 -36 -47 -37z" />
    <glyph glyph-name="ocircumflex" unicode="&#xf4;" horiz-adv-x="577" 
d="M289 25q108 0 108 204t-108 204t-108 -204t108 -204zM289 472q115 0 182 -67t67 -176q0 -110 -67 -177t-182 -67q-116 0 -183 67t-67 177q0 109 67 176t183 67zM339 729l122 -172h-38l-134 110l-134 -110h-39l123 172h100z" />
    <glyph glyph-name="otilde" unicode="&#xf5;" horiz-adv-x="577" 
d="M289 25q108 0 108 204t-108 204t-108 -204t108 -204zM289 472q115 0 182 -67t67 -176q0 -110 -67 -177t-182 -67q-116 0 -183 67t-67 177q0 109 67 176t183 67zM223 641q-40 0 -77 -55l-41 28q27 58 53 81.5t66 23.5q31 0 73.5 -27.5t55.5 -27.5q41 0 77 54l41 -27
q-27 -58 -53 -81.5t-65 -23.5q-38 0 -77 27q-37 28 -53 28z" />
    <glyph glyph-name="odieresis" unicode="&#xf6;" horiz-adv-x="577" 
d="M289 25q108 0 108 204t-108 204t-108 -204t108 -204zM289 472q115 0 182 -67t67 -176q0 -110 -67 -177t-182 -67q-116 0 -183 67t-67 177q0 109 67 176t183 67zM333 612q0 26 17.5 44t42.5 18t42.5 -18t17.5 -44q0 -24 -17.5 -41.5t-42.5 -17.5t-42.5 17.5t-17.5 41.5z
M123 612q0 26 17.5 44t42.5 18t43 -18.5t18 -43.5q0 -24 -18 -41.5t-43 -17.5t-42.5 17.5t-17.5 41.5z" />
    <glyph glyph-name="divide" unicode="&#xf7;" horiz-adv-x="578" 
d="M289 433q-21 0 -36 15t-15 37t15 36.5t36 14.5q23 0 37 -14t14 -37t-14.5 -37.5t-36.5 -14.5zM340 174q0 -23 -14.5 -38t-36.5 -15q-21 0 -36 15.5t-15 37.5t15 36.5t36 14.5q23 0 37 -14.5t14 -36.5zM508 361v-63h-438v63h438z" />
    <glyph glyph-name="oslash" unicode="&#xf8;" horiz-adv-x="577" 
d="M139 25l-23 -25h-66l51 57q-62 65 -62 172q0 109 67 176t183 67q85 0 149 -41l24 27h66l-52 -58q62 -68 62 -171q0 -110 -67 -177t-182 -67q-89 0 -150 40zM397 229q0 36 -5 78l-193 -214q27 -68 90 -68q108 0 108 204zM181 229q0 -36 5 -78l192 214q-26 68 -89 68
q-108 0 -108 -204z" />
    <glyph glyph-name="ugrave" unicode="&#xf9;" horiz-adv-x="663" 
d="M648 39v-39h-202l-11 108q-22 -55 -73 -89t-115 -34q-158 0 -158 175v213q0 27 -8 36.5t-34 9.5h-32v39l214 13v-295q0 -67 17 -93.5t59 -26.5q44 0 85 47q41 49 41 115v155q0 27 -8 36.5t-33 9.5h-33v39l215 13v-386q0 -27 8 -36.5t31 -9.5h37zM423 547l-24 -13
q-35 27 -54 38l-47 36q-60 50 -59 78q0 16 14.5 29t32.5 13q30 0 58 -31q15 -18 34 -59l21 -42q17 -37 24 -49z" />
    <glyph glyph-name="uacute" unicode="&#xfa;" horiz-adv-x="663" 
d="M648 39v-39h-202l-11 108q-22 -55 -73 -89t-115 -34q-158 0 -158 175v213q0 27 -8 36.5t-34 9.5h-32v39l214 13v-295q0 -67 17 -93.5t59 -26.5q44 0 85 47q41 49 41 115v155q0 27 -8 36.5t-33 9.5h-33v39l215 13v-386q0 -27 8 -36.5t31 -9.5h37zM326 579l-63 -45l-24 13
l21 49l20 46l19 35q16 28 32 39t43 14q20 0 35 -13t15 -29q0 -30 -51 -72q-46 -36 -47 -37z" />
    <glyph glyph-name="ucircumflex" unicode="&#xfb;" horiz-adv-x="663" 
d="M648 39v-39h-202l-11 108q-22 -55 -73 -89t-115 -34q-158 0 -158 175v213q0 27 -8 36.5t-34 9.5h-32v39l214 13v-295q0 -67 17 -93.5t59 -26.5q44 0 85 47q41 49 41 115v155q0 27 -8 36.5t-33 9.5h-33v39l215 13v-386q0 -27 8 -36.5t31 -9.5h37zM382 729l122 -172h-38
l-134 110l-134 -110h-39l123 172h100z" />
    <glyph glyph-name="udieresis" unicode="&#xfc;" horiz-adv-x="663" 
d="M648 39v-39h-202l-11 108q-22 -55 -73 -89t-115 -34q-158 0 -158 175v213q0 27 -8 36.5t-34 9.5h-32v39l214 13v-295q0 -67 17 -93.5t59 -26.5q44 0 85 47q41 49 41 115v155q0 27 -8 36.5t-33 9.5h-33v39l215 13v-386q0 -27 8 -36.5t31 -9.5h37zM376 612q0 26 17.5 44
t42.5 18t42.5 -18t17.5 -44q0 -24 -17.5 -41.5t-42.5 -17.5t-42.5 17.5t-17.5 41.5zM166 612q0 26 17.5 44t42.5 18t43 -18.5t18 -43.5q0 -24 -18 -41.5t-43 -17.5t-42.5 17.5t-17.5 41.5z" />
    <glyph glyph-name="yacute" unicode="&#xfd;" horiz-adv-x="598" 
d="M593 458v-39h-15q-47 0 -70 -56l-161 -383q-43 -101 -78 -142t-102 -41q-42 0 -67 26.5t-25 61.5q0 25 16 46t40 21q26 0 42.5 -17t16.5 -39q0 -40 -37 -50q10 -10 36 -10q53 0 115 150l-210 378q-18 33 -30.5 44t-34.5 11h-24v39h287v-39h-33q-23 0 -23 -12q0 -8 14 -34
l124 -228l93 228q6 15 6 25q0 21 -27 21h-33v39h180zM293 579l-63 -45l-24 13l21 49l20 46l19 35q16 28 32 39t43 14q20 0 35 -13t15 -29q0 -30 -51 -72q-46 -36 -47 -37z" />
    <glyph glyph-name="thorn" unicode="&#xfe;" horiz-adv-x="623" 
d="M584 229q0 -104 -55 -174q-54 -70 -146 -70q-52 0 -94 29.5t-58 77.5v-195q0 -27 7.5 -36.5t31.5 -9.5h50v-39h-307v39h38q23 0 31 9.5t8 36.5v742q0 27 -8.5 37t-32.5 10h-36v39l218 11v-373q18 48 60 78.5t92 30.5q92 0 146 -71q55 -70 55 -172zM231 229q0 -91 34 -141
q35 -51 73 -51q105 0 105 192q0 191 -104 191q-37 0 -73 -53q-35 -53 -35 -138z" />
    <glyph glyph-name="ydieresis" unicode="&#xff;" horiz-adv-x="598" 
d="M593 458v-39h-15q-47 0 -70 -56l-161 -383q-43 -101 -78 -142t-102 -41q-42 0 -67 26.5t-25 61.5q0 25 16 46t40 21q26 0 42.5 -17t16.5 -39q0 -40 -37 -50q10 -10 36 -10q53 0 115 150l-210 378q-18 33 -30.5 44t-34.5 11h-24v39h287v-39h-33q-23 0 -23 -12q0 -8 14 -34
l124 -228l93 228q6 15 6 25q0 21 -27 21h-33v39h180zM344 612q0 26 17.5 44t42.5 18t42.5 -18t17.5 -44q0 -24 -17.5 -41.5t-42.5 -17.5t-42.5 17.5t-17.5 41.5zM134 612q0 26 17.5 44t42.5 18t43 -18.5t18 -43.5q0 -24 -18 -41.5t-43 -17.5t-42.5 17.5t-17.5 41.5z" />
    <glyph glyph-name="Amacron" unicode="&#x100;" horiz-adv-x="768" 
d="M546 933v-74h-324v74h324zM763 39v-39h-335v39h52q39 0 39 25q0 10 -11 38l-46 120h-262l-36 -97q-11 -27 -11 -48q0 -38 48 -38h38v-39h-234v39h13q61 0 96 86l239 611h74l248 -634q14 -35 31 -49t43 -14h14zM444 268l-113 289l-112 -289h225z" />
    <glyph glyph-name="amacron" unicode="&#x101;" horiz-adv-x="582" 
d="M234 45q103 0 107 190q-164 -12 -164 -123q0 -31 15 -49t42 -18zM245 429q-65 0 -97 -33q39 -16 39 -59q0 -29 -19 -48t-54 -19q-29 0 -48.5 19.5t-19.5 47.5q0 65 67 99q68 35 145 35q109 0 168.5 -37.5t59.5 -108.5q0 -25 -3 -111t-3 -121q0 -53 24 -53q30 0 30 73h33
q-1 -65 -28.5 -95.5t-84.5 -30.5q-90 0 -99 108q-59 -108 -188 -108q-56 0 -92.5 28.5t-36.5 78.5q0 69 82 115q83 49 222 59q0 15 0.5 29.5t1 21.5t0.5 9q-2 101 -99 101zM452 669v-74h-323v74h323z" />
    <glyph glyph-name="Aogonek" unicode="&#x104;" horiz-adv-x="768" 
d="M763 39v-39q-24 -15 -39 -36.5t-15 -39.5q0 -16 13.5 -28t36.5 -12q25 0 46 9l12 -19q-59 -50 -113 -50q-36 0 -55.5 20.5t-19.5 46.5q0 62 80 109h-281v39h52q39 0 39 25q0 10 -11 38l-46 120h-262l-36 -97q-11 -30 -11 -48q0 -38 48 -38h38v-39h-234v39h13q61 0 96 86
l239 611h74l248 -634q14 -35 31 -49t43 -14h14zM444 268l-113 289l-112 -289h225z" />
    <glyph glyph-name="aogonek" unicode="&#x105;" horiz-adv-x="586" 
d="M242 428q-87 0 -103 -37q48 -7 48 -60q0 -23 -20 -42t-53 -19q-29 0 -48.5 19.5t-19.5 47.5q0 65 67 99q68 35 145 35q109 0 168.5 -37.5t59.5 -108.5q0 -25 -3 -111t-3 -121q0 -53 24 -53q30 0 30 73h33q-3 -90 -53 -114q-51 -36 -51 -74q-4 -25 29 -36t67 5l11 -19
q-23 -21 -54.5 -35.5t-57.5 -14.5q-36 0 -55.5 20.5t-19.5 46.5q0 52 59 96q-79 4 -87 107q-59 -108 -188 -108q-56 0 -92.5 28.5t-36.5 78.5q0 70 82 116q85 48 222 58q0 15 0.5 29.5t1 21.5t0.5 9q-1 100 -102 100zM234 45q103 0 107 190q-164 -12 -164 -123q0 -31 15 -49
t42 -18z" />
    <glyph glyph-name="Cacute" unicode="&#x106;" horiz-adv-x="696" 
d="M379 736q107 0 182 -83l28 82h36l15 -284h-40q-30 147 -95 199q-56 46 -111 46q-42 0 -73 -14.5t-56.5 -51t-38.5 -105t-13 -169.5q0 -161 50 -240t140 -79q82 0 139.5 55.5t78.5 157.5h39q-20 -152 -114 -213q-79 -52 -170 -52q-142 0 -239 95q-96 96 -96 268
q0 174 92 281q93 107 246 107zM342 843l-63 -45l-24 13l21 49l20 46l19 35q16 28 32 39t43 14q20 0 35 -13t15 -29q0 -30 -51 -72q-46 -36 -47 -37z" />
    <glyph glyph-name="cacute" unicode="&#x107;" horiz-adv-x="509" 
d="M445 147l34 -15q-27 -73 -77.5 -110t-117.5 -37q-105 0 -176 62q-69 63 -69 174q0 109 72 180q73 71 187 71q79 0 128 -33t49 -93q0 -29 -19.5 -51t-49.5 -22q-38 0 -55 19.5t-17 47.5q0 20 14 36.5t40 22.5q-19 34 -82 34q-56 0 -90.5 -54t-34.5 -151q0 -88 34.5 -138
t91.5 -50q97 0 138 107zM249 579l-63 -45l-24 13l21 49l20 46l19 35q16 28 32 39t43 14q20 0 35 -13t15 -29q0 -30 -51 -72q-46 -36 -47 -37z" />
    <glyph glyph-name="Ccaron" unicode="&#x10c;" horiz-adv-x="696" 
d="M379 736q107 0 182 -83l28 82h36l15 -284h-40q-30 147 -95 199q-56 46 -111 46q-42 0 -73 -14.5t-56.5 -51t-38.5 -105t-13 -169.5q0 -161 50 -240t140 -79q82 0 139.5 55.5t78.5 157.5h39q-20 -152 -114 -213q-79 -52 -170 -52q-142 0 -239 95q-96 96 -96 268
q0 174 92 281q93 107 246 107zM298 821l-123 172h39l134 -109l134 109h39l-123 -172h-100z" />
    <glyph glyph-name="ccaron" unicode="&#x10d;" horiz-adv-x="509" 
d="M445 147l34 -15q-27 -73 -77.5 -110t-117.5 -37q-105 0 -176 62q-69 63 -69 174q0 109 72 180q73 71 187 71q79 0 128 -33t49 -93q0 -29 -19.5 -51t-49.5 -22q-38 0 -55 19.5t-17 47.5q0 20 14 36.5t40 22.5q-19 34 -82 34q-56 0 -90.5 -54t-34.5 -151q0 -88 34.5 -138
t91.5 -50q97 0 138 107zM204 557l-123 172h39l134 -109l134 109h39l-123 -172h-100z" />
    <glyph glyph-name="Dcaron" unicode="&#x10e;" horiz-adv-x="812" 
d="M40 683v39h400q157 0 244 -103q87 -102 87 -258t-88 -259q-89 -102 -244 -102h-399v39h41q29 0 40.5 13t11.5 50v518q0 37 -11.5 50t-40.5 13h-41zM400 683h-56q-27 0 -35.5 -12t-8.5 -51v-518q0 -37 11.5 -50t40.5 -13h46q100 0 150.5 84t50.5 238q0 153 -50.5 237.5
t-148.5 84.5zM356 821l-123 172h39l134 -109l134 109h39l-123 -172h-100z" />
    <glyph glyph-name="dcaron" unicode="&#x10f;" horiz-adv-x="757" 
d="M591 661q0 30 21 51t51 21q37 0 57.5 -29.5t20.5 -72.5q0 -52 -37 -102q-38 -52 -93 -77l-17 22q76 49 76 106v4q-1 5 -1 7q-33 0 -55.5 19t-22.5 51zM603 39v-39h-190l-8 112q-16 -57 -61.5 -92t-106.5 -35q-93 0 -145 70q-53 71 -53 174t53 173q52 70 145 70
q119 0 156 -100v267q0 28 -8 37.5t-34 9.5h-35v39l217 11v-649q0 -29 7.5 -38.5t31.5 -9.5h31zM393 229q0 104 -34 147q-35 45 -76 45q-102 0 -102 -192q0 -191 101 -191q42 0 76 46q35 47 35 145z" />
    <glyph glyph-name="Dcroat" unicode="&#x110;" horiz-adv-x="812" 
d="M40 683v39h403q156 0 241 -103q87 -102 87 -258q0 -157 -87 -259t-243 -102h-401v39h41q29 0 40.5 13t11.5 50v248h-94v55h94v215q0 37 -11.5 50t-40.5 13h-41zM436 405v-55h-136v-248q0 -37 11.5 -50t40.5 -13h48q98 0 148.5 84.5t50.5 237.5q0 155 -49.5 238.5
t-147.5 83.5h-58q-27 0 -35.5 -12t-8.5 -51v-215h136z" />
    <glyph glyph-name="dslash" unicode="&#x111;" horiz-adv-x="605" 
d="M603 537h-70v-450q0 -29 7.5 -38.5t31.5 -9.5h31v-39h-190l-8 112q-16 -57 -61.5 -92t-106.5 -35q-93 0 -145 70q-53 71 -53 174t53 173q52 70 145 70q119 0 156 -100v165h-205v47h205v55q0 28 -8 37.5t-34 9.5h-35v39l217 11v-152h70v-47zM393 229q0 104 -34 147
q-35 45 -76 45q-102 0 -102 -192q0 -191 101 -191q42 0 76 46q35 47 35 145z" />
    <glyph glyph-name="Emacron" unicode="&#x112;" horiz-adv-x="719" 
d="M629 273h39l-18 -273h-610v39h41q29 0 40.5 13t11.5 50v518q0 37 -11.5 50t-40.5 13h-41v39h588l16 -241h-39q-18 104 -49 157q-12 21 -31 31q-27 14 -71 14h-110q-27 0 -35.5 -12t-8.5 -51v-226h74q47 0 69 28q23 28 25 114h38v-325h-38q-2 86 -25 114q-23 29 -69 29
h-74v-252q0 -37 11.5 -50t40.5 -13h109q35 0 55 3q17 3 45 26q42 47 68 205zM521 933v-74h-323v74h323z" />
    <glyph glyph-name="emacron" unicode="&#x113;" horiz-adv-x="535" 
d="M496 230h-315v-21q0 -86 32 -130.5t90 -44.5q100 0 149 114l34 -15q-22 -73 -83 -111q-59 -37 -122 -37q-113 0 -178 68q-64 68 -64 176q0 104 65 174q66 69 178 69q214 0 214 -242zM280 433q-92 0 -99 -163h144q14 0 21.5 10.5t7.5 23.5q0 63 -19.5 96t-54.5 33z
M429 669v-74h-323v74h323z" />
    <glyph glyph-name="Edotaccent" unicode="&#x116;" horiz-adv-x="719" 
d="M629 273h39l-18 -273h-610v39h41q29 0 40.5 13t11.5 50v518q0 37 -11.5 50t-40.5 13h-41v39h588l16 -241h-39q-18 104 -49 157q-12 21 -31 31q-27 14 -71 14h-110q-27 0 -35.5 -12t-8.5 -51v-226h74q47 0 69 28q23 28 25 114h38v-325h-38q-2 86 -25 114q-23 29 -69 29
h-74v-252q0 -37 11.5 -50t40.5 -13h109q35 0 55 3q17 3 45 26q42 47 68 205zM279 887q0 31 23.5 53t55.5 22q34 0 57.5 -22t23.5 -53q0 -30 -23.5 -52t-57.5 -22q-32 0 -55.5 22t-23.5 52z" />
    <glyph glyph-name="edotaccent" unicode="&#x117;" horiz-adv-x="535" 
d="M496 230h-315v-21q0 -86 32 -130.5t90 -44.5q100 0 149 114l34 -15q-22 -73 -83 -111q-59 -37 -122 -37q-113 0 -178 68q-64 68 -64 176q0 104 65 174q66 69 178 69q214 0 214 -242zM280 433q-92 0 -99 -163h144q14 0 21.5 10.5t7.5 23.5q0 63 -19.5 96t-54.5 33z
M187 623q0 31 23.5 53t55.5 22q34 0 57.5 -22t23.5 -53q0 -30 -23.5 -52t-57.5 -22q-32 0 -55.5 22t-23.5 52z" />
    <glyph glyph-name="Eogonek" unicode="&#x118;" horiz-adv-x="719" 
d="M596 0h-556v39h41q29 0 40.5 13t11.5 50v518q0 37 -11.5 50t-40.5 13h-41v39h588l16 -241h-39q-18 104 -49 157q-12 21 -31 31q-27 14 -71 14h-110q-27 0 -35.5 -12t-8.5 -51v-226h74q47 0 69 28q23 28 25 114h38v-325h-38q-2 86 -25 114q-23 29 -69 29h-74v-252
q0 -37 11.5 -50t40.5 -13h109q35 0 55 3q17 3 45 26q42 47 68 205h39l-18 -273q-24 -15 -39 -36.5t-15 -39.5q-4 -26 29 -36.5t68 5.5l10 -19q-23 -21 -54.5 -35.5t-57.5 -14.5q-36 0 -55.5 20.5t-19.5 46.5q0 62 80 109z" />
    <glyph glyph-name="eogonek" unicode="&#x119;" horiz-adv-x="535" 
d="M496 230h-315v-21q0 -86 32 -130.5t90 -44.5q100 0 149 114l34 -15q-30 -95 -124 -132q-24 -15 -39 -36.5t-15 -39.5q-4 -25 29 -36t67 5l12 -19q-59 -50 -113 -50q-36 0 -55.5 20.5t-19.5 46.5q0 51 56 93q-115 0 -180 68q-65 70 -65 176q0 104 65 174q66 69 178 69
q214 0 214 -242zM280 433q-92 0 -99 -163h144q14 0 21.5 10.5t7.5 23.5q0 63 -19.5 96t-54.5 33z" />
    <glyph glyph-name="Ecaron" unicode="&#x11a;" horiz-adv-x="719" 
d="M629 273h39l-18 -273h-610v39h41q29 0 40.5 13t11.5 50v518q0 37 -11.5 50t-40.5 13h-41v39h588l16 -241h-39q-18 104 -49 157q-12 21 -31 31q-27 14 -71 14h-110q-27 0 -35.5 -12t-8.5 -51v-226h74q47 0 69 28q23 28 25 114h38v-325h-38q-2 86 -25 114q-23 29 -69 29
h-74v-252q0 -37 11.5 -50t40.5 -13h109q35 0 55 3q17 3 45 26q42 47 68 205zM309 821l-123 172h39l134 -109l134 109h39l-123 -172h-100z" />
    <glyph glyph-name="ecaron" unicode="&#x11b;" horiz-adv-x="535" 
d="M496 230h-315v-21q0 -86 32 -130.5t90 -44.5q100 0 149 114l34 -15q-22 -73 -83 -111q-59 -37 -122 -37q-113 0 -178 68q-64 68 -64 176q0 104 65 174q66 69 178 69q214 0 214 -242zM280 433q-92 0 -99 -163h144q14 0 21.5 10.5t7.5 23.5q0 63 -19.5 96t-54.5 33z
M217 557l-123 172h39l134 -109l134 109h39l-123 -172h-100z" />
    <glyph glyph-name="Gcommaaccent" unicode="&#x122;" horiz-adv-x="768" 
d="M748 329v-39h-36q-27 0 -35.5 -12t-8.5 -51v-244h-39l-52 106q-35 -48 -90.5 -76t-110.5 -28q-142 0 -239 95q-96 96 -96 268q0 174 92 281q93 107 246 107q111 0 182 -83l28 82h36l15 -284h-40q-30 147 -95 199q-56 46 -111 46q-42 0 -73 -14.5t-56.5 -51t-38.5 -105
t-13 -169.5q0 -161 50 -240t140 -79q47 0 72.5 31t25.5 84v75q0 39 -8.5 51t-35.5 12h-57v39h348zM459 -155q0 -51 -38 -101q-38 -52 -93 -77l-16 22q75 53 75 105q0 9 -1 12q-33 0 -55 19t-22 50q0 30 21 51.5t51 21.5q37 0 57.5 -29.5t20.5 -73.5z" />
    <glyph glyph-name="gcommaaccent" unicode="&#x123;" horiz-adv-x="587" 
d="M345 610q0 -30 -21 -51.5t-51 -21.5q-37 0 -57.5 29.5t-20.5 73.5q0 52 37 101q38 51 94 78l16 -22q-75 -51 -75 -104q0 -11 1 -14q32 0 54.5 -19t22.5 -50zM471 315q0 -73 -54 -115.5t-157 -42.5q-74 0 -106.5 -8t-32.5 -31q0 -28 86 -28q33 0 85 4q65 5 90 5
q69 0 108 -31.5t39 -91.5t-60 -114q-68 -63 -209 -63q-110 0 -172 30t-62 84q0 48 85 76q-65 24 -65 85q0 82 96 104q-93 36 -93 137q0 73 54 115t157 42q113 0 167 -51q12 28 39 44t56 16q21 0 33.5 -12t12.5 -33q0 -17 -11.5 -29.5t-29.5 -12.5q-17 0 -27 12.5t-10 33.5
q-12 0 -26 -13.5t-17 -30.5q24 -36 24 -81zM260 433q-40 0 -60 -32t-20 -86t20 -86t60 -32t60 32.5t20 85.5t-20 85.5t-60 32.5zM441 -73q0 44 -72 44q-19 0 -91 -5q-70 -5 -98 -5q-7 0 -45 2q-29 -20 -29 -49q0 -76 155 -76q75 0 128 24q52 24 52 65z" />
    <glyph glyph-name="Imacron" unicode="&#x12a;" horiz-adv-x="433" 
d="M300 620v-518q0 -37 11.5 -50t40.5 -13h41v-39h-353v39h41q29 0 40.5 13t11.5 50v518q0 37 -11.5 50t-40.5 13h-41v39h353v-39h-41q-29 0 -40.5 -13t-11.5 -50zM378 933v-74h-323v74h323z" />
    <glyph glyph-name="imacron" unicode="&#x12b;" horiz-adv-x="347" 
d="M335 39v-39h-307v39h38q23 0 31 9.5t8 36.5v288q0 28 -8.5 37t-35.5 9h-33v39l217 13v-386q0 -27 8 -36.5t31 -9.5h51zM336 669v-74h-324v74h324z" />
    <glyph glyph-name="Iogonek" unicode="&#x12e;" horiz-adv-x="433" 
d="M300 620v-518q0 -37 11.5 -50t40.5 -13h41v-39h-24q-53 -37 -53 -75q0 -16 13.5 -28t36.5 -12q24 0 47 9l11 -19q-59 -50 -112 -50q-36 0 -56 20.5t-20 46.5q0 62 78 108h-274v39h41q29 0 40.5 13t11.5 50v518q0 37 -11.5 50t-40.5 13h-41v39h353v-39h-41
q-29 0 -40.5 -13t-11.5 -50z" />
    <glyph glyph-name="iogonek" unicode="&#x12f;" horiz-adv-x="348" 
d="M105 85v288q0 27 -8 36.5t-34 9.5h-35v39l217 13v-386q0 -27 8 -36.5t31 -9.5h51v-39h-24q-24 -15 -38 -36t-14 -39q-4 -25 29 -36t67 5l12 -19q-59 -50 -113 -50q-36 0 -55.5 20.5t-19.5 46.5q0 62 78 108h-229v39h38q23 0 31 9.5t8 36.5zM253 621q0 -30 -23 -51.5
t-56 -21.5q-32 0 -55 22t-23 51q0 31 23 53t55 22q33 0 56 -22t23 -53z" />
    <glyph glyph-name="dotlessi" unicode="&#x131;" horiz-adv-x="347" 
d="M335 39v-39h-307v39h38q23 0 31 9.5t8 36.5v288q0 28 -8.5 37t-35.5 9h-33v39l217 13v-386q0 -27 8 -36.5t31 -9.5h51z" />
    <glyph glyph-name="Kcommaaccent" unicode="&#x136;" horiz-adv-x="830" 
d="M818 39v-39h-345v39h35q32 0 32 15q0 11 -22 48l-148 243l-70 -71v-172q0 -37 11.5 -50t40.5 -13h34v-39h-346v39h41q29 0 40.5 13t11.5 50v518q0 37 -11.5 50t-40.5 13h-41v39h353v-39h-41q-29 0 -40.5 -13t-11.5 -50v-290l268 272q28 28 28 51q0 13 -11 21.5t-31 8.5
h-39v39h279v-39h-27q-25 0 -51 -14q-29 -16 -41 -26l-43 -41l-141 -140l222 -360q23 -36 42 -49.5t45 -13.5h18zM490 -155q0 -51 -38 -101q-38 -52 -93 -77l-16 22q75 53 75 105q0 9 -1 12q-33 0 -55 19t-22 50q0 30 21 51.5t51 21.5q37 0 57.5 -29.5t20.5 -73.5z" />
    <glyph glyph-name="kcommaaccent" unicode="&#x137;" horiz-adv-x="631" 
d="M625 39v-39h-270v39h28q20 0 20 11q0 8 -14 27l-117 150l-45 -39v-103q0 -27 8 -36.5t31 -9.5h28v-39h-284v39h37q24 0 31.5 9.5t7.5 36.5v554q0 33 -12 40q-11 7 -64 7v39l217 11v-494l114 95q57 48 57 65q0 7 -8 12t-21 5h-50v39h266v-39h-33q-27 0 -51 -13t-63 -45
l-72 -60l174 -232q22 -30 65 -30h20zM390 -155q0 -51 -38 -101q-38 -52 -93 -77l-16 22q75 53 75 105q0 9 -1 12q-33 0 -55 19t-22 50q0 30 21 51.5t51 21.5q37 0 57.5 -29.5t20.5 -73.5z" />
    <glyph glyph-name="Lacute" unicode="&#x139;" 
d="M613 288h39l-20 -288h-600v39h41q30 0 41 16t11 63v502q0 37 -11.5 50t-40.5 13h-41v39h360v-39h-49q-30 0 -40.5 -16t-10.5 -63v-502q0 -37 11.5 -50t39.5 -13h86q28 0 37 1q48 8 68 32q56 60 79 216zM348 843l-63 -45l-24 13l21 49l20 46l19 35q16 28 32 39t43 14
q19 0 34 -12.5t15 -29.5v-1q0 -29 -51 -71q-8 -7 -24 -19.5z" />
    <glyph glyph-name="lacute" unicode="&#x13a;" horiz-adv-x="334" 
d="M320 39v-39h-306v39h38q23 0 30.5 9.5t7.5 36.5v454l9 -5q107 76 132 102v-551q0 -27 8 -36.5t31 -9.5h50zM14 726l217 11v-11q-8 4 -21 4q-22 0 -36.5 -8t-29.5 -31l-22 -37l-24 -56q-3 -8 -8 -18v60q0 28 -8.5 37.5t-34.5 9.5h-33v39zM260 688q0 -20 -29 -52v90
q29 -14 29 -38zM75 547l15 33v-41z" />
    <glyph glyph-name="Lcommaaccent" unicode="&#x13b;" 
d="M613 288h39l-20 -288h-600v39h41q29 0 40.5 13t11.5 50v518q0 37 -11.5 50t-40.5 13h-41v39h360v-39h-49q-28 0 -39.5 -13t-11.5 -50v-518q0 -37 11.5 -50t39.5 -13h100q44 0 75 21q61 39 95 228zM413 -155q0 -51 -38 -101q-38 -52 -93 -77l-16 22q75 53 75 105
q0 9 -1 12q-33 0 -55 19t-22 50q0 30 21 51.5t51 21.5q37 0 57.5 -29.5t20.5 -73.5z" />
    <glyph glyph-name="lcommaaccent" unicode="&#x13c;" horiz-adv-x="334" 
d="M320 39v-39h-306v39h38q23 0 30.5 9.5t7.5 36.5v555q0 28 -8.5 37.5t-34.5 9.5h-33v39l217 11v-652q0 -27 8 -36.5t31 -9.5h50zM242 -155q0 -51 -38 -101q-38 -52 -93 -77l-16 22q75 53 75 105q0 9 -1 12q-33 0 -55 19t-22 50q0 30 21 51.5t51 21.5q37 0 57.5 -29.5
t20.5 -73.5z" />
    <glyph glyph-name="Lcaron" unicode="&#x13d;" 
d="M456 649q0 30 20.5 51.5t50.5 21.5q37 0 57.5 -29.5t20.5 -73.5q0 -52 -37 -102q-39 -51 -93 -76l-17 22q76 49 76 105q0 2 -0.5 6t-0.5 6q-32 0 -54.5 19t-22.5 50zM613 288h39l-20 -288h-600v39h41q29 0 40.5 13t11.5 50v518q0 37 -11.5 50t-40.5 13h-41v39h360v-39
h-49q-28 0 -39.5 -13t-11.5 -50v-518q0 -37 11.5 -50t39.5 -13h100q44 0 75 21q61 39 95 228z" />
    <glyph glyph-name="lcaron" unicode="&#x13e;" horiz-adv-x="460" 
d="M320 39v-39h-306v39h38q23 0 30.5 12t7.5 46v543q0 28 -8.5 37.5t-34.5 9.5h-33v39l217 11v-652q0 -27 8 -36.5t31 -9.5h50zM289 661q0 30 21 51t51 21q37 0 57.5 -29.5t20.5 -72.5q0 -52 -37 -102q-38 -52 -93 -77l-17 22q63 43 74 90q2 14 0 27q-26 -2 -43 10
q-34 19 -34 60z" />
    <glyph glyph-name="Lslash" unicode="&#x141;" 
d="M388 490l24 -65l-120 -49v-274q0 -37 11.5 -50t39.5 -13h100q44 0 75 21q61 39 95 228h39l-20 -288h-600v39h41q29 0 40.5 13t11.5 50v206l-70 -28l-24 65l94 38v237q0 37 -11.5 50t-40.5 13h-41v39h360v-39h-49q-28 0 -39.5 -13t-11.5 -50v-169z" />
    <glyph glyph-name="lslash" unicode="&#x142;" horiz-adv-x="334" 
d="M295 465l25 -65l-89 -35v-280q0 -27 8 -36.5t31 -9.5h50v-39h-306v39h38q23 0 30.5 9.5t7.5 36.5v225l-61 -24l-24 65l85 33v256q0 28 -8.5 37.5t-34.5 9.5h-33v39l217 11v-297z" />
    <glyph glyph-name="Nacute" unicode="&#x143;" horiz-adv-x="793" 
d="M681 605v-605h-46l-451 552h-4v-435q0 -37 16 -57.5t44 -20.5h34v-39h-238v39h34q59 0 59 78v503q0 37 -11.5 50t-40.5 13h-41v39h219l371 -467h5v350q0 37 -16 57.5t-44 20.5h-34v39h238v-39h-34q-28 0 -44 -20.5t-16 -57.5zM391 843l-63 -45l-24 13l21 49l20 46l19 35
q16 28 32 39t43 14q20 0 35 -13t15 -29q0 -30 -51 -72q-46 -36 -47 -37z" />
    <glyph glyph-name="nacute" unicode="&#x144;" horiz-adv-x="679" 
d="M664 39v-39h-283v39h27q23 0 31 9.5t8 36.5v197q0 68 -17 94t-59 26q-45 0 -85 -48q-41 -47 -41 -114v-155q0 -27 8 -36.5t31 -9.5h28v-39h-284v39h38q23 0 31 9.5t8 36.5v288q0 27 -8 36.5t-33 9.5h-36v39l203 12l10 -120q22 55 73 88.5t116 33.5q83 0 120.5 -44
t37.5 -131v-212q0 -27 8 -36.5t31 -9.5h37zM334 579l-63 -45l-24 13l21 49l20 46l19 35q16 28 32 39t43 14q20 0 35 -13t15 -29q0 -30 -51 -72q-46 -36 -47 -37z" />
    <glyph glyph-name="Ncommaaccent" unicode="&#x145;" horiz-adv-x="793" 
d="M681 605v-605h-46l-451 552h-4v-435q0 -37 16 -57.5t44 -20.5h34v-39h-238v39h34q59 0 59 78v503q0 37 -11.5 50t-40.5 13h-41v39h219l371 -467h5v350q0 37 -16 57.5t-44 20.5h-34v39h238v-39h-34q-28 0 -44 -20.5t-16 -57.5zM471 -155q0 -51 -38 -101q-38 -52 -93 -77
l-16 22q75 53 75 105q0 9 -1 12q-33 0 -55 19t-22 50q0 30 21 51.5t51 21.5q37 0 57.5 -29.5t20.5 -73.5z" />
    <glyph glyph-name="ncommaaccent" unicode="&#x146;" horiz-adv-x="679" 
d="M664 39v-39h-283v39h27q23 0 31 9.5t8 36.5v197q0 68 -17 94t-59 26q-45 0 -85 -48q-41 -47 -41 -114v-155q0 -27 8 -36.5t31 -9.5h28v-39h-284v39h38q23 0 31 9.5t8 36.5v288q0 27 -8 36.5t-33 9.5h-36v39l203 12l10 -120q22 55 73 88.5t116 33.5q83 0 120.5 -44
t37.5 -131v-212q0 -27 8 -36.5t31 -9.5h37zM414 -155q0 -51 -38 -101q-38 -52 -93 -77l-16 22q75 53 75 105q0 9 -1 12q-33 0 -55 19t-22 50q0 30 21 51.5t51 21.5q37 0 57.5 -29.5t20.5 -73.5z" />
    <glyph glyph-name="Ncaron" unicode="&#x147;" horiz-adv-x="793" 
d="M681 605v-605h-46l-451 552h-4v-435q0 -37 16 -57.5t44 -20.5h34v-39h-238v39h34q59 0 59 78v503q0 37 -11.5 50t-40.5 13h-41v39h219l371 -467h5v350q0 37 -16 57.5t-44 20.5h-34v39h238v-39h-34q-28 0 -44 -20.5t-16 -57.5zM346 821l-123 172h39l134 -109l134 109h39
l-123 -172h-100z" />
    <glyph glyph-name="ncaron" unicode="&#x148;" horiz-adv-x="679" 
d="M664 39v-39h-283v39h27q23 0 31 9.5t8 36.5v197q0 68 -17 94t-59 26q-45 0 -85 -48q-41 -47 -41 -114v-155q0 -27 8 -36.5t31 -9.5h28v-39h-284v39h38q23 0 31 9.5t8 36.5v288q0 27 -8 36.5t-33 9.5h-36v39l203 12l10 -120q22 55 73 88.5t116 33.5q83 0 120.5 -44
t37.5 -131v-212q0 -27 8 -36.5t31 -9.5h37zM289 557l-123 172h39l134 -109l134 109h39l-123 -172h-100z" />
    <glyph glyph-name="Omacron" unicode="&#x14c;" horiz-adv-x="781" 
d="M648 630q92 -106 92 -269t-92 -270q-91 -106 -258 -106t-258 106t-91 270q0 165 91 269q91 106 258 106t258 -106zM390 697q-88 0 -132.5 -87.5t-44.5 -248.5t44.5 -248.5t132.5 -87.5q89 0 133.5 87t44.5 249t-44.5 249t-133.5 87zM552 933v-74h-323v74h323z" />
    <glyph glyph-name="omacron" unicode="&#x14d;" horiz-adv-x="577" 
d="M289 25q108 0 108 204t-108 204t-108 -204t108 -204zM289 472q115 0 182 -67t67 -176q0 -110 -67 -177t-182 -67q-116 0 -183 67t-67 177q0 109 67 176t183 67zM450 669v-74h-323v74h323z" />
    <glyph glyph-name="Ohungarumlaut" unicode="&#x150;" horiz-adv-x="781" 
d="M648 630q92 -106 92 -269t-92 -270q-91 -106 -258 -106t-258 106t-91 270q0 165 91 269q91 106 258 106t258 -106zM390 697q-88 0 -132.5 -87.5t-44.5 -248.5t44.5 -248.5t132.5 -87.5q89 0 133.5 87t44.5 249t-44.5 249t-133.5 87zM486 843l-63 -45l-24 13l21 49l20 46
l19 35q16 28 32 39t43 14q20 0 34.5 -13t14.5 -30q0 -28 -49 -70q-19 -17 -48 -38zM221 798l-23 13l21 49q35 76 38 81q32 53 75 53q20 0 35 -13t15 -30q0 -28 -51 -71q-13 -11 -47 -37q-19 -15 -63 -45z" />
    <glyph glyph-name="ohungarumlaut" unicode="&#x151;" horiz-adv-x="577" 
d="M289 25q108 0 108 204t-108 204t-108 -204t108 -204zM289 472q115 0 182 -67t67 -176q0 -110 -67 -177t-182 -67q-116 0 -183 67t-67 177q0 109 67 176t183 67zM384 579l-63 -45l-24 13l21 49l20 46l19 35q16 28 32 39t43 14q20 0 34.5 -13t14.5 -30q0 -28 -49 -70
q-19 -17 -48 -38zM119 534l-23 13l21 49q35 76 38 81q32 53 75 53q20 0 35 -13t15 -30q0 -28 -51 -71q-13 -11 -47 -37z" />
    <glyph glyph-name="OE" unicode="&#x152;" horiz-adv-x="1098" 
d="M527 102v499q0 46 -44 69t-93 23q-177 0 -177 -332q0 -161 44.5 -248.5t132.5 -87.5q55 0 96 23t41 54zM1023 273h39l-18 -273h-538q-51 -15 -116 -15q-167 0 -258 106t-91 270q0 165 91 269q91 106 258 106q62 0 116 -14h516l16 -241h-39q-23 130 -62 176q-9 13 -27 18
q-24 8 -68 8h-103q-27 0 -36 -16.5t-9 -65.5v-207h75q47 0 69 28t24 114h38v-325h-38q-2 85 -24 114q-23 29 -69 29h-75v-252q0 -46 18 -56q15 -7 52 -7h83q32 0 54 2q15 1 40 13q31 17 47 62.5t35 156.5z" />
    <glyph glyph-name="oe" unicode="&#x153;" horiz-adv-x="894" 
d="M854 230h-316q0 -196 123 -196q99 0 149 114l34 -15q-22 -73 -83 -111q-58 -37 -123 -37q-108 0 -171 81q-70 -79 -179 -79q-113 0 -181 67q-68 68 -68 175q0 109 66 176q67 67 183 67q115 0 179 -82q66 82 173 82q108 0 161 -62.5t53 -179.5zM288 433q-107 0 -107 -204
t107 -204q109 0 109 204t-109 204zM638 433q-92 0 -99 -163h144q14 0 21.5 10.5t7.5 23.5q0 63 -19.5 96t-54.5 33z" />
    <glyph glyph-name="Racute" unicode="&#x154;" horiz-adv-x="790" 
d="M719 150h39q-6 -88 -36 -124t-94 -36q-67 0 -99.5 32t-42.5 101q-7 45 -10 57q-9 66 -27 97q-31 67 -90 67h-59v-242q0 -37 11.5 -50t40.5 -13h41v-39h-353v39h41q29 0 40.5 13t11.5 50v518q0 37 -11.5 50t-40.5 13h-41v39h388q121 0 190 -48t69 -139q0 -73 -59 -121
t-161 -57q123 -22 161 -156q7 -28 14 -66q9 -44 16 -60t19 -16q19 0 28.5 20t13.5 71zM403 683h-51q-29 0 -40.5 -13t-11.5 -50v-237h88q63 0 97 40t34 112q0 68 -31 108t-85 40zM389 843l-63 -45l-24 13l21 49l20 46l19 35q16 28 32 39t43 14q20 0 35 -13t15 -29
q0 -30 -51 -72q-46 -36 -47 -37z" />
    <glyph glyph-name="racute" unicode="&#x155;" horiz-adv-x="499" 
d="M492 378q0 -27 -18 -46.5t-45 -19.5q-30 0 -47.5 18t-17.5 48q0 32 31 47q-7 3 -17 3q-40 0 -87 -99q-46 -98 -46 -164v-72q0 -34 8 -44t37 -10h50v-39h-312v39h38q24 0 31.5 13.5t7.5 48.5v264q0 32 -7.5 43t-32.5 11h-37v39l202 13l7 -161q13 62 54 111q41 50 101 50
q42 0 71 -24t29 -69zM244 579l-63 -45l-24 13l21 49l20 46l19 35q16 28 32 39t43 14q20 0 35 -13t15 -29q0 -30 -51 -72q-46 -36 -47 -37z" />
    <glyph glyph-name="Rcommaaccent" unicode="&#x156;" horiz-adv-x="790" 
d="M719 150h39q-6 -88 -36 -124t-94 -36q-67 0 -99.5 32t-42.5 101q-7 45 -10 57q-9 66 -27 97q-31 67 -90 67h-59v-242q0 -37 11.5 -50t40.5 -13h41v-39h-353v39h41q29 0 40.5 13t11.5 50v518q0 37 -11.5 50t-40.5 13h-41v39h388q121 0 190 -48t69 -139q0 -73 -59 -121
t-161 -57q123 -22 161 -156q7 -28 14 -66q9 -44 16 -60t19 -16q19 0 28.5 20t13.5 71zM403 683h-51q-29 0 -40.5 -13t-11.5 -50v-237h88q63 0 97 40t34 112q0 68 -31 108t-85 40zM470 -155q0 -51 -38 -101q-38 -52 -93 -77l-16 22q75 53 75 105q0 9 -1 12q-33 0 -55 19
t-22 50q0 30 21 51.5t51 21.5q37 0 57.5 -29.5t20.5 -73.5z" />
    <glyph glyph-name="rcommaaccent" unicode="&#x157;" horiz-adv-x="499" 
d="M492 378q0 -27 -18 -46.5t-45 -19.5q-30 0 -47.5 18t-17.5 48q0 32 31 47q-7 3 -17 3q-40 0 -87 -99q-46 -98 -46 -164v-72q0 -34 8 -44t37 -10h50v-39h-312v39h38q24 0 31.5 13.5t7.5 48.5v264q0 32 -7.5 43t-32.5 11h-37v39l202 13l7 -161q13 62 54 111q41 50 101 50
q42 0 71 -24t29 -69zM324 -155q0 -51 -38 -101q-38 -52 -93 -77l-16 22q75 53 75 105q0 9 -1 12q-33 0 -55 19t-22 50q0 30 21 51.5t51 21.5q37 0 57.5 -29.5t20.5 -73.5z" />
    <glyph glyph-name="Rcaron" unicode="&#x158;" horiz-adv-x="790" 
d="M719 150h39q-6 -88 -36 -124t-94 -36q-67 0 -99.5 32t-42.5 101q-7 45 -10 57q-9 66 -27 97q-31 67 -90 67h-59v-242q0 -37 11.5 -50t40.5 -13h41v-39h-353v39h41q29 0 40.5 13t11.5 50v518q0 37 -11.5 50t-40.5 13h-41v39h388q121 0 190 -48t69 -139q0 -73 -59 -121
t-161 -57q123 -22 161 -156q7 -28 14 -66q9 -44 16 -60t19 -16q19 0 28.5 20t13.5 71zM403 683h-51q-29 0 -40.5 -13t-11.5 -50v-237h88q63 0 97 40t34 112q0 68 -31 108t-85 40zM345 821l-123 172h39l134 -109l134 109h39l-123 -172h-100z" />
    <glyph glyph-name="rcaron" unicode="&#x159;" horiz-adv-x="499" 
d="M492 378q0 -27 -18 -46.5t-45 -19.5q-30 0 -47.5 18t-17.5 48q0 32 31 47q-7 3 -17 3q-40 0 -87 -99q-46 -98 -46 -164v-72q0 -34 8 -44t37 -10h50v-39h-312v39h38q24 0 31.5 13.5t7.5 48.5v264q0 32 -7.5 43t-32.5 11h-37v39l202 13l7 -161q13 62 54 111q41 50 101 50
q42 0 71 -24t29 -69zM199 557l-123 172h39l134 -109l134 109h39l-123 -172h-100z" />
    <glyph glyph-name="Sacute" unicode="&#x15a;" horiz-adv-x="649" 
d="M611 212q0 -107 -89 -167q-88 -60 -205 -60q-135 0 -216 84l-25 -83h-31l-18 288h37q12 -67 40.5 -118t66 -78t74.5 -40t74 -13q71 0 113.5 29t42.5 84q0 49 -38 85q-15 13 -45 27t-51 21q-11 4 -59 19q-77 24 -129 51q-93 51 -99 173q0 106 67.5 164t182.5 58
q128 0 203 -78l26 77h31l12 -265h-39q-24 133 -102 183q-65 44 -131 44q-54 0 -89.5 -30.5t-35.5 -84.5q0 -45 40 -83q17 -13 48 -27l52 -21l61 -18q95 -28 156 -69q75 -51 75 -152zM319 843l-63 -45l-24 13l21 49l20 46l19 35q16 28 32 39t43 14q20 0 35 -13t15 -29
q0 -30 -51 -72q-46 -36 -47 -37z" />
    <glyph glyph-name="sacute" unicode="&#x15b;" horiz-adv-x="483" 
d="M450 144q0 -70 -57 -114.5t-159 -44.5q-82 0 -140 53l-20 -52h-31l-11 187h29q40 -148 174 -148q95 0 95 69q0 30 -32 48q-15 13 -47 16l-29 6l-27 6q-77 16 -114 51.5t-37 108.5q0 67 49.5 104.5t134.5 37.5q83 0 138 -49l18 49h32l10 -169h-29q-43 135 -168 135
q-40 0 -67 -18.5t-27 -49.5q-5 -32 43 -55q13 -6 31 -10l34 -7l39 -7q72 -12 115 -39q53 -32 53 -108zM236 579l-63 -45l-24 13l21 49l20 46l19 35q16 28 32 39t43 14q20 0 35 -13t15 -29q0 -30 -51 -72q-46 -36 -47 -37z" />
    <glyph glyph-name="Scaron" unicode="&#x160;" horiz-adv-x="649" 
d="M611 212q0 -107 -89 -167q-88 -60 -205 -60q-135 0 -216 84l-25 -83h-31l-18 288h37q12 -67 40.5 -118t66 -78t74.5 -40t74 -13q71 0 113.5 29t42.5 84q0 49 -38 85q-15 13 -45 27t-51 21q-11 4 -59 19q-77 24 -129 51q-93 51 -99 173q0 106 67.5 164t182.5 58
q128 0 203 -78l26 77h31l12 -265h-39q-24 133 -102 183q-65 44 -131 44q-54 0 -89.5 -30.5t-35.5 -84.5q0 -45 40 -83q17 -13 48 -27l52 -21l61 -18q95 -28 156 -69q75 -51 75 -152zM274 821l-123 172h39l134 -109l134 109h39l-123 -172h-100z" />
    <glyph glyph-name="scaron" unicode="&#x161;" horiz-adv-x="483" 
d="M450 144q0 -70 -57 -114.5t-159 -44.5q-82 0 -140 53l-20 -52h-31l-11 187h29q40 -148 174 -148q95 0 95 69q0 30 -32 48q-15 13 -47 16l-29 6l-27 6q-77 16 -114 51.5t-37 108.5q0 67 49.5 104.5t134.5 37.5q83 0 138 -49l18 49h32l10 -169h-29q-43 135 -168 135
q-40 0 -67 -18.5t-27 -49.5q-5 -32 43 -55q13 -6 31 -10l34 -7l39 -7q72 -12 115 -39q53 -32 53 -108zM191 557l-123 172h39l134 -109l134 109h39l-123 -172h-100z" />
    <glyph glyph-name="Tcaron" unicode="&#x164;" horiz-adv-x="731" 
d="M688 722l18 -266h-39q-18 98 -35.5 146.5t-38 64t-55.5 16.5h-46q-27 0 -35 -12t-8 -51v-518q0 -37 11.5 -50t40.5 -13h41v-39h-353v39h41q29 0 40.5 13t11.5 50v518q0 41 -7.5 52t-34.5 11h-47q-35 0 -55 -16q-45 -33 -74 -211h-39l19 266h644zM315 821l-123 172h39
l134 -109l134 109h39l-123 -172h-100z" />
    <glyph glyph-name="tcaron" unicode="&#x165;" horiz-adv-x="584" 
d="M365 168h39q-14 -164 -129 -180q-32 -2 -42 -1q-73 1 -111 34q-14 15 -22 37q-10 36 -10 89v264h-74v47h15q81 0 119 57q29 57 41 126h39v-183h145v-47h-145v-283q0 -88 61 -88q29 0 48.5 33t25.5 95zM368 661q0 30 21 51t51 21q37 0 58 -29.5t21 -72.5q0 -52 -37 -102
q-38 -52 -94 -77l-17 22q65 44 74 90q3 11 1 27q-25 -1 -44 10q-34 19 -34 60z" />
    <glyph glyph-name="Umacron" unicode="&#x16a;" horiz-adv-x="795" 
d="M777 722v-39h-34q-59 0 -59 -78v-382q0 -238 -286 -238q-287 0 -287 238v397q0 37 -11.5 50t-40.5 13h-42v39h354v-39h-42q-29 0 -40.5 -13t-11.5 -50v-397q0 -182 178 -182q179 0 179 182v382q0 37 -16 57.5t-44 20.5h-34v39h237zM559 933v-74h-323v74h323z" />
    <glyph glyph-name="umacron" unicode="&#x16b;" horiz-adv-x="663" 
d="M648 39v-39h-202l-11 108q-22 -55 -73 -89t-115 -34q-158 0 -158 175v213q0 27 -8 36.5t-34 9.5h-32v39l214 13v-295q0 -67 17 -93.5t59 -26.5q44 0 85 47q41 49 41 115v155q0 27 -8 36.5t-33 9.5h-33v39l215 13v-386q0 -27 8 -36.5t31 -9.5h37zM493 669v-74h-323v74h323
z" />
    <glyph glyph-name="Uring" unicode="&#x16e;" horiz-adv-x="795" 
d="M359 901q0 -15 11.5 -27t26.5 -12t26 11.5t11 27.5t-11 27.5t-26 11.5t-26.5 -11.5t-11.5 -27.5zM338 842q-23 25 -23 60q0 36 23 59q24 23 59 23t58 -23q24 -23 24 -59t-24 -60q-23 -24 -58 -24t-59 24zM777 722v-39h-34q-59 0 -59 -78v-382q0 -238 -286 -238
q-287 0 -287 238v397q0 37 -11.5 50t-40.5 13h-42v39h354v-39h-42q-29 0 -40.5 -13t-11.5 -50v-397q0 -182 178 -182q179 0 179 182v382q0 37 -16 57.5t-44 20.5h-34v39h237z" />
    <glyph glyph-name="uring" unicode="&#x16f;" horiz-adv-x="663" 
d="M648 39v-39h-202l-11 108q-22 -55 -73 -89t-115 -34q-158 0 -158 175v213q0 27 -8 36.5t-34 9.5h-32v39l214 13v-295q0 -67 17 -93.5t59 -26.5q44 0 85 47q41 49 41 115v155q0 27 -8 36.5t-33 9.5h-33v39l215 13v-386q0 -27 8 -36.5t31 -9.5h37zM293 637q0 -15 11.5 -27
t26.5 -12q16 0 26.5 11.5t10.5 27.5q0 17 -10.5 28t-26.5 11q-15 0 -26.5 -11.5t-11.5 -27.5zM272 578q-23 25 -23 60q0 36 23 59q24 23 59 23t58 -23q24 -23 24 -59t-24 -60q-23 -24 -58 -24t-59 24z" />
    <glyph glyph-name="Uhungarumlaut" unicode="&#x170;" horiz-adv-x="795" 
d="M492 843l-63 -45l-23 13l21 49l20 45l18 36q16 28 32 39t43 14q20 0 35.5 -13t15.5 -29l-1 -1q0 -27 -51 -70zM291 843l-63 -45l-24 13l21 49l20 46l19 35q16 28 32 39t43 14q20 0 35 -13t15 -29l-1 -1q0 -29 -51 -71q-8 -7 -24 -19.5zM777 722v-39h-34q-59 0 -59 -78
v-382q0 -238 -286 -238q-287 0 -287 238v397q0 37 -11.5 50t-40.5 13h-42v39h354v-39h-42q-29 0 -40.5 -13t-11.5 -50v-397q0 -182 178 -182q179 0 179 182v382q0 37 -16 57.5t-44 20.5h-34v39h237z" />
    <glyph glyph-name="uhungarumlaut" unicode="&#x171;" horiz-adv-x="663" 
d="M648 39v-39h-202l-11 108q-22 -55 -73 -89t-115 -34q-158 0 -158 175v213q0 27 -8 36.5t-34 9.5h-32v39l214 13v-295q0 -67 17 -93.5t59 -26.5q44 0 85 47q41 49 41 115v155q0 27 -8 36.5t-33 9.5h-33v39l215 13v-386q0 -27 8 -36.5t31 -9.5h37zM427 579l-63 -45l-24 13
l21 49l20 46l19 35q16 28 32 39t43 14q20 0 34.5 -13t14.5 -30q0 -28 -49 -70q-19 -17 -48 -38zM162 534l-23 13l21 49q35 76 38 81q32 53 75 53q20 0 35 -13t15 -30q0 -28 -51 -71q-13 -11 -47 -37q-19 -15 -63 -45z" />
    <glyph glyph-name="Uogonek" unicode="&#x172;" horiz-adv-x="795" 
d="M777 722v-39h-34q-59 0 -59 -78v-382q0 -179 -164 -223q-23 -17 -37.5 -38t-14.5 -37t13.5 -28t37.5 -12q23 0 46 9l11 -19q-59 -50 -112 -50q-36 0 -55.5 20t-19.5 47q0 53 57 95q-40 -2 -48 -2q-287 0 -287 238v397q0 37 -11.5 50t-40.5 13h-42v39h354v-39h-42
q-29 0 -40.5 -13t-11.5 -50v-397q0 -182 178 -182q179 0 179 182v382q0 37 -16 57.5t-44 20.5h-34v39h237z" />
    <glyph glyph-name="uogonek" unicode="&#x173;" horiz-adv-x="663" 
d="M648 39v-39h-12q-24 -15 -38 -36t-14 -39q0 -16 13.5 -28t36.5 -12q25 0 46 9l11 -19q-56 -50 -112 -50q-36 0 -55.5 20.5t-19.5 46.5q0 62 78 108h-136l-11 108q-22 -55 -73 -89t-115 -34q-158 0 -158 175v213q0 27 -8 36.5t-34 9.5h-32v39l214 13v-295q0 -67 17 -93.5
t59 -26.5q44 0 85 47q41 49 41 115v155q0 27 -8 36.5t-33 9.5h-33v39l215 13v-386q0 -27 8 -36.5t31 -9.5h37z" />
    <glyph glyph-name="Ydieresis" unicode="&#x178;" horiz-adv-x="751" 
d="M746 722v-39h-20q-27 0 -47.5 -19.5t-47.5 -67.5l-167 -295v-199q0 -37 11.5 -50t40.5 -13h41v-39h-353v39h41q29 0 40.5 13t11.5 50v200l-190 318q-37 63 -83 63h-19v39h348v-39h-47q-37 0 -37 -23q0 -11 19 -40l159 -258l133 234q20 35 20 54q0 15 -9.5 24t-27.5 9h-41
v39h224zM420 876q0 26 17.5 44t42.5 18t42.5 -18t17.5 -44q0 -24 -17.5 -41.5t-42.5 -17.5t-42.5 17.5t-17.5 41.5zM210 876q0 26 17.5 44t42.5 18t43 -18.5t18 -43.5q0 -24 -18 -41.5t-43 -17.5t-42.5 17.5t-17.5 41.5z" />
    <glyph glyph-name="Zacute" unicode="&#x179;" horiz-adv-x="671" 
d="M602 278h39l-20 -278h-591v39l410 644h-217q-55 0 -90 -44q-15 -21 -26 -51q-18 -50 -29 -129h-38l21 263h575v-39l-410 -644h250q50 0 77 53q28 51 49 186zM330 843l-63 -45l-24 13l21 49l20 46l19 35q16 28 32 39t43 14q20 0 35 -13t15 -29q0 -30 -51 -72
q-46 -36 -47 -37z" />
    <glyph glyph-name="zacute" unicode="&#x17a;" horiz-adv-x="512" 
d="M445 195h39l-12 -195h-431v39l275 380h-130q-25 0 -36 -3t-23 -15q-22 -21 -41 -116h-39l12 173h414v-39l-269 -380h133q43 0 66 30q24 30 42 126zM251 579l-63 -45l-24 13l21 49l20 46l19 35q16 28 32 39t43 14q20 0 35 -13t15 -29q0 -30 -51 -72q-46 -36 -47 -37z" />
    <glyph glyph-name="Zdotaccent" unicode="&#x17b;" horiz-adv-x="671" 
d="M602 278h39l-20 -278h-591v39l410 644h-217q-55 0 -90 -44q-15 -21 -26 -51q-18 -50 -29 -129h-38l21 263h575v-39l-410 -644h250q50 0 77 53q28 51 49 186zM255 887q0 31 23.5 53t55.5 22q34 0 57.5 -22t23.5 -53q0 -30 -23.5 -52t-57.5 -22q-32 0 -55.5 22t-23.5 52z
" />
    <glyph glyph-name="zdotaccent" unicode="&#x17c;" horiz-adv-x="512" 
d="M445 195h39l-12 -195h-431v39l275 380h-130q-25 0 -36 -3t-23 -15q-22 -21 -41 -116h-39l12 173h414v-39l-269 -380h133q43 0 66 30q24 30 42 126zM176 623q0 31 23.5 53t55.5 22q34 0 57.5 -22t23.5 -53q0 -30 -23.5 -52t-57.5 -22q-32 0 -55.5 22t-23.5 52z" />
    <glyph glyph-name="Zcaron" unicode="&#x17d;" horiz-adv-x="671" 
d="M602 278h39l-20 -278h-591v39l410 644h-217q-55 0 -90 -44q-15 -21 -26 -51q-18 -50 -29 -129h-38l21 263h575v-39l-410 -644h250q50 0 77 53q28 51 49 186zM285 821l-123 172h39l134 -109l134 109h39l-123 -172h-100z" />
    <glyph glyph-name="zcaron" unicode="&#x17e;" horiz-adv-x="512" 
d="M445 195h39l-12 -195h-431v39l275 380h-130q-25 0 -36 -3t-23 -15q-22 -21 -41 -116h-39l12 173h414v-39l-269 -380h133q43 0 66 30q24 30 42 126zM206 557l-123 172h39l134 -109l134 109h39l-123 -172h-100z" />
    <glyph glyph-name="florin" unicode="&#x192;" horiz-adv-x="443" 
d="M444 578q-23 0 -39 18.5t-16 41.5q0 28 18 44q-11 6 -24 6q-23 0 -42 -24t-27 -68l-24 -138h126l-20 -78h-118l-47 -305q-19 -123 -81 -193t-161 -70q-47 0 -87 27q-41 27 -41 78q0 26 18 44.5t43 18.5t43 -18.5t18 -44.5q0 -16 -10.5 -31.5t-24.5 -22.5q10 -12 26 -12
q37 0 57 35q21 37 37 140l57 354h-92l16 78h56q34 0 38 34q14 91 41 143q50 101 194 101q127 0 127 -97q0 -25 -17.5 -43t-43.5 -18z" />
    <glyph glyph-name="circumflex" unicode="&#x2c6;" horiz-adv-x="453" 
d="M273 729l122 -172h-38l-134 110l-134 -110h-39l123 172h100z" />
    <glyph glyph-name="caron" unicode="&#x2c7;" horiz-adv-x="460" 
d="M180 557l-123 172h39l134 -109l134 109h39l-123 -172h-100z" />
    <glyph glyph-name="breve" unicode="&#x2d8;" horiz-adv-x="450" 
d="M57 722h39q24 -89 129 -89q103 0 129 89h38q-1 -67 -41 -116q-39 -48 -126 -48t-126 48t-42 116z" />
    <glyph glyph-name="dotaccent" unicode="&#x2d9;" horiz-adv-x="274" 
d="M57 623q0 31 23.5 53t55.5 22q34 0 57.5 -22t23.5 -53q0 -30 -23.5 -52t-57.5 -22q-32 0 -55.5 22t-23.5 52z" />
    <glyph glyph-name="ring" unicode="&#x2da;" horiz-adv-x="268" 
d="M90 637q0 -15 12 -27t26 -12q16 0 26.5 11.5t10.5 27.5q0 17 -10.5 28t-26.5 11q-15 0 -26.5 -11.5t-11.5 -27.5zM69 578q-23 25 -23 60q0 36 23 59q24 23 59 23t58 -23q24 -23 24 -59t-24 -60q-23 -24 -58 -24t-59 24z" />
    <glyph glyph-name="ogonek" unicode="&#x2db;" horiz-adv-x="334" 
d="M173 0h54q-55 -38 -55 -76q-4 -25 30 -36t67 5l12 -19q-59 -50 -113 -50q-36 0 -55.5 20t-19.5 47q0 62 80 109z" />
    <glyph glyph-name="tilde" unicode="&#x2dc;" horiz-adv-x="476" 
d="M173 641q-40 0 -77 -55l-41 28q27 58 53 81.5t66 23.5q31 0 73.5 -27.5t55.5 -27.5q41 0 77 54l41 -27q-27 -58 -53 -81.5t-65 -23.5q-38 0 -77 27q-37 28 -53 28z" />
    <glyph glyph-name="hungarumlaut" unicode="&#x2dd;" horiz-adv-x="515" 
d="M353 579l-63 -45l-24 13l21 49l20 46l19 35q16 28 32 39t43 14q20 0 34.5 -13t14.5 -30q0 -28 -49 -70q-19 -17 -48 -38zM88 534l-23 13l21 49q35 76 38 81q32 53 75 53q20 0 35 -13t15 -30q0 -28 -51 -71q-13 -11 -47 -37q-19 -15 -63 -45z" />
    <glyph glyph-name="pi" unicode="&#x3c0;" horiz-adv-x="693" 
d="M65 411l13 47h666l-13 -47h-100l-82 -283q-11 -39 -11 -56q0 -22 18 -22q15 0 43 34q29 35 51 82l32 -18q-41 -81 -85.5 -121.5t-98.5 -40.5q-47 0 -72 21t-25 60q0 30 23 114l64 230h-179l-114 -411h-144l116 411h-102z" />
    <glyph glyph-name="afii10023" unicode="&#x401;" horiz-adv-x="719" 
d="M454 683h-110q-27 0 -35.5 -12t-8.5 -51v-226h72q47 0 71 28q23 28 25 114h38v-325h-38q-2 86 -25 114q-24 29 -71 29h-72v-252q0 -37 11.5 -50t40.5 -13h109q35 0 55 3q17 3 45 26q42 47 68 205h39l-18 -273h-610v39h43q28 0 39 13.5t11 49.5v518q0 37 -11.5 50
t-40.5 13h-41v39h588l17 -241h-38q-28 143 -68 176q-20 17 -36 21.5t-49 4.5zM533 841q0 -25 -18 -42.5t-43 -17.5t-43 17.5t-18 42.5t18 43.5t43 18.5t43 -18t18 -44zM261 903q25 0 43 -18t18 -44q0 -25 -18 -42.5t-43 -17.5q-24 0 -42 17.5t-18 42.5t18 43.5t42 18.5z" />
    <glyph glyph-name="afii10051" unicode="&#x402;" horiz-adv-x="884" 
d="M856 181q0 -90 -50.5 -143.5t-137.5 -53.5q-127 0 -127 139h46q1 -84 62 -84q31 0 52 38t21 114q0 66 -34.5 104.5t-90.5 38.5q-46 0 -97 -48q-51 -46 -51 -112v-72q0 -37 11.5 -50t40.5 -13h26v-39h-338v39h41q29 0 40.5 13t11.5 50v518q0 41 -7.5 52t-34.5 11h-47
q-35 0 -55 -16q-45 -33 -74 -211h-39l19 266h644l18 -266h-39q-18 98 -35.5 146.5t-38 64t-55.5 16.5h-46q-27 0 -35 -12t-8 -51v-337q21 53 81 90q60 39 125 39q93 0 147 -61.5t54 -169.5z" />
    <glyph glyph-name="afii10052" unicode="&#x403;" horiz-adv-x="658" 
d="M378 830l-63 -45l-24 12l21 49l20 46l19 35q16 28 32 39t43 14q19 0 34 -12.5t15 -29.5q0 -29 -50 -71q-46 -36 -47 -37zM451 683h-107q-28 0 -36 -14t-8 -63v-504q0 -37 11.5 -50t40.5 -13h41v-39h-353v39h41q30 0 41 15t11 61v505q0 37 -11.5 50t-40.5 13h-41v39h584
l13 -271h-39q-12 74 -27 122t-35 71t-39 31t-46 8z" />
    <glyph glyph-name="afii10053" unicode="&#x404;" horiz-adv-x="696" 
d="M379 736q107 0 182 -83l28 82h36l15 -284h-40q-30 147 -95 199q-56 46 -111 46q-41 0 -71.5 -13.5t-55.5 -47t-38.5 -96t-15.5 -153.5q185 3 271 7v-55q-86 4 -271 7q1 -155 51 -231.5t139 -76.5q82 0 139.5 55.5t78.5 157.5h39q-20 -152 -114 -213q-79 -52 -170 -52
q-142 0 -239 95q-96 96 -96 268q0 174 92 281q93 107 246 107z" />
    <glyph glyph-name="afii10054" unicode="&#x405;" horiz-adv-x="649" 
d="M611 212q0 -107 -89 -167q-88 -60 -205 -60q-135 0 -216 84l-25 -83h-31l-18 288h37q12 -67 40.5 -118t66 -78t74.5 -40t74 -13q71 0 113.5 29t42.5 84q0 49 -38 85q-15 13 -45 27t-51 21q-11 4 -59 19q-77 24 -129 51q-93 51 -99 173q0 106 67.5 164t182.5 58
q128 0 203 -78l26 77h31l12 -265h-39q-24 133 -102 183q-65 44 -131 44q-54 0 -89.5 -30.5t-35.5 -84.5q0 -45 40 -83q17 -13 48 -27l52 -21l61 -18q95 -28 156 -69q75 -51 75 -152z" />
    <glyph glyph-name="afii10055" unicode="&#x406;" horiz-adv-x="433" 
d="M393 39v-39h-353v39h41q29 0 40.5 13t11.5 50v518q0 37 -11.5 50t-40.5 13h-41v39h353v-39h-41q-29 0 -40.5 -13t-11.5 -50v-518q0 -37 11.5 -50t40.5 -13h41z" />
    <glyph glyph-name="afii10056" unicode="&#x407;" horiz-adv-x="429" 
d="M238 868q0 26 17.5 44t42.5 18t43 -18t18 -44q0 -25 -18 -42.5t-43 -17.5t-42.5 17.5t-17.5 42.5zM69 868q0 26 17.5 44t42.5 18t43.5 -18t18.5 -44q0 -25 -18 -42.5t-44 -17.5q-25 0 -42.5 17.5t-17.5 42.5zM391 39v-39h-353v39h41q29 0 40.5 13t11.5 50v518
q0 37 -11.5 50t-40.5 13h-41v39h353v-39h-41q-29 0 -40.5 -13t-11.5 -50v-518q0 -37 11.5 -50t40.5 -13h41z" />
    <glyph glyph-name="afii10057" unicode="&#x408;" horiz-adv-x="560" 
d="M443 620v-436q0 -103 -69 -151t-182 -48q-89 0 -137 50q-48 51 -48 119q0 48 24 81.5t65 33.5q32 0 54 -22.5t22 -53.5t-22.5 -54t-52.5 -23q-15 0 -23 8q0 -39 27 -65.5t68 -26.5q50 0 79 37.5t29 114.5v436q0 37 -11.5 50t-40.5 13h-57v39h369v-39h-42q-29 0 -40.5 -13
t-11.5 -50z" />
    <glyph glyph-name="afii10058" unicode="&#x409;" horiz-adv-x="1074" 
d="M1049 202q0 -94 -71 -148q-70 -54 -186 -54h-368v39h42q30 0 40.5 15.5t10.5 61.5v522q0 27 -7.5 36t-29.5 9h-118q-25 0 -35.5 -15.5t-10.5 -47.5q0 -311 -42 -475q-22 -82 -61.5 -120.5t-101.5 -38.5q-45 0 -73 32t-28 78q0 32 22.5 55t54.5 23q31 0 53 -22.5t22 -53.5
q0 -36 -30 -55q4 -3 12 -3q38 0 66 75q16 40 28 106q27 143 27 399q0 35 -14.5 49t-45.5 14h-41v39h613v-39h-41q-31 0 -41.5 -15.5t-10.5 -62.5v-200h101q122 0 193 -54t71 -149zM882 202q0 72 -32 118t-90 46h-76v-264q0 -40 12.5 -51.5t46.5 -11.5h29q52 0 81 48
q29 49 29 115z" />
    <glyph glyph-name="afii10059" unicode="&#x40a;" horiz-adv-x="1146" 
d="M753 620v-215h104q122 0 193 -54t71 -149q0 -94 -71 -148q-70 -54 -185 -54h-372v39h42q29 0 40.5 12.5t11.5 48.5v253h-287v-251q0 -37 11.5 -50t40.5 -13h41v-39h-353v39h41q29 0 40.5 13t11.5 50v518q0 37 -11.5 50t-40.5 13h-41v39h353v-39h-41q-29 0 -40.5 -13
t-11.5 -50v-213h287v213q0 37 -11.5 50t-40.5 13h-42v39h353v-39h-42q-29 0 -40 -13t-11 -50zM833 352h-80v-252q0 -36 11 -48.5t40 -12.5h40q52 0 81 48q29 49 29 115q0 70 -31 110t-90 40z" />
    <glyph glyph-name="afii10060" unicode="&#x40b;" horiz-adv-x="886" 
d="M871 39v-39h-290v39h32q23 0 30.5 9.5t7.5 38.5v136q0 68 -17 94t-59 26q-45 0 -85 -45q-41 -46 -41 -110v-86q0 -37 11.5 -50t40.5 -13h32v-39h-344v39h41q29 0 40.5 13t11.5 50v518q0 41 -7.5 52t-34.5 11h-47q-35 0 -55 -16q-45 -33 -74 -211h-39l19 266h644l18 -266
h-39q-18 98 -35.5 146.5t-38 64t-55.5 16.5h-46q-27 0 -35 -12t-8 -51v-328q21 54 71 87.5t113 33.5q159 0 159 -175v-151q0 -29 7.5 -38.5t30.5 -9.5h41z" />
    <glyph glyph-name="afii10061" unicode="&#x40c;" horiz-adv-x="828" 
d="M402 785l-24 12l21 49l20 46l19 35q16 28 32 39t43 14q20 0 35 -13t15 -29q0 -28 -51 -71q-6 -5 -48 -38q-21 -16 -62 -44zM769 182h39q-5 -101 -40 -146.5t-113 -45.5q-68 0 -102 39.5t-57 127.5q-2 7 -8.5 33t-7.5 31q-12 45 -19 58q-17 37 -38.5 56.5t-58.5 19.5h-64
v-253q0 -37 11.5 -50t40.5 -13h41v-39h-353v39h41q29 0 40.5 13t11.5 50v518q0 37 -11.5 50t-40.5 13h-41v39h353v-39h-41q-29 0 -40.5 -13t-11.5 -50v-224h93l167 206q24 32 24 51q0 30 -39 30h-39v39h278v-39h-26q-29 0 -66 -23t-67 -58l-174 -208q71 -14 117 -52
q29 -24 49.5 -57.5t28.5 -57.5t18 -63q9 -36 15 -55t17 -34.5t24 -15.5q21 0 34 33.5t15 89.5z" />
    <glyph glyph-name="afii10062" unicode="&#x40e;" horiz-adv-x="754" 
d="M539 843q-21 2 -37.5 19t-16.5 38q0 25 17 42.5t42 17.5q26 0 44.5 -20.5t18.5 -47.5q0 -62 -51 -95.5t-140 -33.5t-140 33.5t-51 95.5q0 27 19 47.5t45 20.5q25 0 41.5 -17.5t16.5 -42.5q0 -21 -16.5 -38t-37.5 -19q27 -40 123 -40t123 40zM753 722v-39h-22
q-49 0 -78 -63l-232 -500q-61 -135 -177 -135q-53 0 -94 33q-40 33 -40 90q0 33 23.5 56t56.5 23q31 0 53.5 -18t22.5 -54q0 -26 -23 -51q-23 -23 -45 -23q26 -15 62 -15q68 0 114 109l-249 472q-12 23 -30 46q-25 30 -68 30h-22v39h362v-39h-41q-45 0 -45 -30q0 -15 15 -46
l160 -312l148 338q6 13 6 25q0 25 -30 25h-48v39h221z" />
    <glyph glyph-name="afii10145" unicode="&#x40f;" horiz-adv-x="886" 
d="M846 39v-39h-380q2 -25 14 -80q12 -50 12 -62q-1 -27 -25 -38t-48 0t-25 38q0 10 11 62q11 46 16 80h-381v39h41q29 0 40.5 13t11.5 50v518q0 37 -11.5 50t-40.5 13h-41v39h353v-39h-41q-29 0 -40.5 -13t-11.5 -50v-537q0 -27 7.5 -35.5t29.5 -8.5h213q21 0 29 9t8 35
v537q0 37 -11.5 50t-40.5 13h-42v39h353v-39h-42q-29 0 -40 -13t-11 -50v-518q0 -37 11 -50t40 -13h42z" />
    <glyph glyph-name="afii10017" unicode="&#x410;" horiz-adv-x="768" 
d="M763 39v-39h-335v39h52q39 0 39 25q0 10 -11 38l-46 120h-262l-36 -97q-11 -27 -11 -48q0 -38 48 -38h38v-39h-234v39h13q61 0 96 86l239 611h74l248 -634q14 -35 31 -49t43 -14h14zM444 268l-113 289l-112 -289h225z" />
    <glyph glyph-name="afii10018" unicode="&#x411;" horiz-adv-x="716" 
d="M404 366h-104v-264q0 -63 32 -63h72q55 0 84 47q30 48 30 116q0 74 -29 119t-85 45zM429 0h-389v39h41q30 0 41 12.5t11 50.5v518q0 37 -11.5 50t-40.5 13h-41v39h576l11 -234h-39q-22 138 -60 169q-20 17 -37.5 21.5t-55.5 4.5h-83q-30 0 -41 -12.5t-11 -50.5v-215h129
q118 0 187.5 -54t69.5 -149q0 -94 -69.5 -148t-187.5 -54z" />
    <glyph glyph-name="afii10019" unicode="&#x412;" horiz-adv-x="731" 
d="M697 200q0 -94 -71 -147t-186 -53h-400v39h41q29 0 40.5 13t11.5 50v518q0 37 -11.5 50t-40.5 13h-41v39h365q124 0 190.5 -46t66.5 -133q0 -61 -50.5 -106t-136.5 -58q106 -9 164 -56.5t58 -122.5zM529 200q0 69 -35 111t-99 42h-95v-251q0 -37 11.5 -50t40.5 -13h64
q55 0 83 46q30 47 30 115zM494 538q0 145 -121 145h-30q-24 0 -33.5 -11.5t-9.5 -42.5v-236h91q51 0 77 40.5t26 104.5z" />
    <glyph glyph-name="afii10020" unicode="&#x413;" horiz-adv-x="658" 
d="M451 683h-107q-27 0 -35.5 -12t-8.5 -51v-518q0 -37 11.5 -50t40.5 -13h41v-39h-353v39h41q29 0 40.5 13t11.5 50v518q0 37 -11.5 50t-40.5 13h-41v39h584l13 -271h-39q-12 74 -27 122t-35 71t-39 31t-46 8z" />
    <glyph glyph-name="afii10021" unicode="&#x414;" horiz-adv-x="824" 
d="M506 83v555q0 26 -8 35.5t-28 9.5h-133q-47 0 -47 -63q0 -276 -54 -466q-22 -78 -61 -115h295q21 0 28.5 9t7.5 35zM773 39l12 -228h-39q-20 114 -52 151q-32 38 -85 38h-406q-51 0 -85 -30q-35 -35 -58 -159h-39l12 228h75q59 24 95.5 175.5t36.5 405.5q0 35 -14 49
t-45 14h-42v39h627v-39h-42q-29 0 -40 -13t-11 -50v-525q0 -32 11.5 -44t39.5 -12h49z" />
    <glyph glyph-name="afii10022" unicode="&#x415;" horiz-adv-x="717" 
d="M452 683h-110q-27 0 -35.5 -12t-8.5 -51v-226h74q47 0 69 28q23 28 25 114h37v-325h-37q-2 86 -25 114q-23 29 -69 29h-74v-252q0 -37 11.5 -50t40.5 -13h109q35 0 55 3q17 3 45 26q42 47 68 205h39l-18 -273h-610v39h41q29 0 40.5 13t11.5 50v518q0 37 -11.5 50
t-40.5 13h-41v39h588l16 -241h-39q-18 104 -49 157q-12 21 -31 31q-27 14 -71 14z" />
    <glyph glyph-name="afii10024" unicode="&#x416;" horiz-adv-x="1123" 
d="M1062 182h38q-5 -103 -36 -147.5t-107 -44.5q-79 0 -113 76q-16 38 -39 152q-11 65 -35.5 101t-77.5 36h-47v-253q0 -37 11.5 -50t40.5 -13h48v-39h-368v39h49q29 0 40.5 13t11.5 50v253h-48q-71 0 -96 -69q-10 -32 -18 -68q-19 -108 -38 -152q-34 -76 -113 -76
q-76 0 -107 44.5t-35 147.5h38q7 -123 46 -123q32 0 44 78q3 25 11 67q4 19 20 62q15 38 35 61q50 57 140 67l-184 221q-23 28 -55.5 48t-60.5 20h-26v39h257v-39h-40q-30 0 -30 -22q0 -20 44 -78l148 -187h68v224q0 37 -11.5 50t-40.5 13h-49v39h368v-39h-48
q-29 0 -40.5 -13t-11.5 -50v-224h68l162 206q29 37 29 59t-30 22h-40v39h257v-39h-22q-68 0 -123 -67l-181 -222q105 -8 159 -95q14 -22 23 -53q15 -48 24 -109q12 -78 43 -78q39 0 48 123z" />
    <glyph glyph-name="afii10025" unicode="&#x417;" horiz-adv-x="632" 
d="M598 197q0 -95 -89 -154q-88 -58 -207 -58q-92 0 -174 39q-44 22 -70 66t-26 103q0 29 20 49t49 20t49 -20t20 -49q0 -27 -19.5 -47t-46.5 -20q-8 0 -10 1q47 -98 185 -98q64 0 107 49q44 50 44 124q0 73 -34.5 112.5t-92.5 39.5q-46 0 -91 -7v55q45 -7 90 -7
q49 0 77 41.5t28 115.5q0 68 -32.5 106t-85.5 38q-65 0 -113 -50q-47 -50 -71 -178h-39l13 267h35l21 -67q66 68 189 68q120 0 183.5 -47.5t63.5 -137.5q0 -64 -47 -110.5t-130 -61.5q99 -13 151.5 -60t52.5 -122z" />
    <glyph glyph-name="afii10026" unicode="&#x418;" horiz-adv-x="901" 
d="M861 39v-39h-353v39h42q29 0 40.5 13t11.5 50v416l-302 -390v-26q0 -37 11.5 -50t40.5 -13h41v-39h-353v39h41q29 0 40.5 13t11.5 50v518q0 37 -11.5 50t-40.5 13h-41v39h353v-39h-41q-29 0 -40.5 -13t-11.5 -50v-411l302 390v21q0 37 -11.5 50t-40.5 13h-42v39h353v-39
h-41q-29 0 -40.5 -13t-11.5 -50v-518q0 -37 11.5 -50t40.5 -13h41z" />
    <glyph glyph-name="afii10027" unicode="&#x419;" horiz-adv-x="901" 
d="M861 39v-39h-353v39h42q29 0 40.5 13t11.5 50v416l-302 -390v-26q0 -37 11.5 -50t40.5 -13h41v-39h-353v39h41q29 0 40.5 13t11.5 50v518q0 37 -11.5 50t-40.5 13h-41v39h353v-39h-41q-29 0 -40.5 -13t-11.5 -50v-411l302 390v21q0 37 -11.5 50t-40.5 13h-42v39h353v-39
h-41q-29 0 -40.5 -13t-11.5 -50v-518q0 -37 11.5 -50t40.5 -13h41zM569 843q-21 2 -37.5 19t-16.5 38q0 25 17 42.5t42 17.5q26 0 44.5 -20.5t18.5 -47.5q0 -62 -51 -95.5t-140 -33.5t-140 33.5t-51 95.5q0 27 19 47.5t45 20.5q25 0 41.5 -17.5t16.5 -42.5q0 -21 -16.5 -38
t-37.5 -19q27 -40 123 -40t123 40z" />
    <glyph glyph-name="afii10028" unicode="&#x41a;" horiz-adv-x="830" 
d="M769 182h39q-5 -101 -40 -146.5t-113 -45.5q-68 0 -102 39.5t-57 127.5q-2 7 -8.5 33t-7.5 31q-12 45 -19 58q-17 37 -38.5 56.5t-58.5 19.5h-64v-253q0 -37 11.5 -50t40.5 -13h41v-39h-353v39h41q29 0 40.5 13t11.5 50v518q0 37 -11.5 50t-40.5 13h-41v39h353v-39h-41
q-29 0 -40.5 -13t-11.5 -50v-224h93l167 206q24 32 24 51q0 30 -39 30h-39v39h278v-39h-26q-29 0 -66 -23t-67 -58l-174 -208q71 -14 117 -52q29 -24 49.5 -57.5t28.5 -57.5t18 -63q9 -36 15 -55t17 -34.5t24 -15.5q21 0 34 33.5t15 89.5z" />
    <glyph glyph-name="afii10029" unicode="&#x41b;" horiz-adv-x="823" 
d="M783 39v-39h-354v39h42q29 0 40 13t11 50v536q0 27 -7.5 36t-28.5 9h-124q-25 0 -35.5 -15.5t-10.5 -47.5q0 -311 -42 -475q-22 -82 -61.5 -120.5t-101.5 -38.5q-44 0 -72.5 32t-28.5 78q0 32 22.5 55t54.5 23q31 0 53 -22.5t22 -53.5q0 -36 -30 -55q4 -3 12 -3
q38 0 66 75q16 40 28 106q27 143 27 399q0 35 -14.5 49t-45.5 14h-41v39h619v-39h-42q-30 0 -41 -12.5t-11 -50.5v-518q0 -37 11.5 -50t40.5 -13h42z" />
    <glyph glyph-name="afii10030" unicode="&#x41c;" horiz-adv-x="1039" 
d="M999 39v-39h-353v39h42q30 0 41 12.5t11 50.5v581h-6l-256 -683h-38l-256 683h-4v-566q0 -78 59 -78h34v-39h-237v39h34q59 0 59 78v503q0 37 -11.5 50t-40.5 13h-41v39h310l174 -462l175 462h304v-39h-42q-28 0 -39.5 -14t-11.5 -50v-517q0 -37 11 -50t40 -13h42z" />
    <glyph glyph-name="afii10031" unicode="&#x41d;" horiz-adv-x="886" 
d="M846 39v-39h-353v39h42q29 0 40.5 13t11.5 50v248h-287v-248q0 -37 11.5 -50t40.5 -13h41v-39h-353v39h41q29 0 40.5 13t11.5 50v518q0 37 -11.5 50t-40.5 13h-41v39h353v-39h-41q-29 0 -40.5 -13t-11.5 -50v-215h287v215q0 37 -11.5 50t-40.5 13h-42v39h353v-39h-42
q-29 0 -40 -13t-11 -50v-518q0 -37 11 -50t40 -13h42z" />
    <glyph glyph-name="afii10032" unicode="&#x41e;" horiz-adv-x="781" 
d="M648 630q92 -106 92 -269t-92 -270q-91 -106 -258 -106t-258 106t-91 270q0 165 91 269q91 106 258 106t258 -106zM390 697q-88 0 -132.5 -87.5t-44.5 -248.5t44.5 -248.5t132.5 -87.5q89 0 133.5 87t44.5 249t-44.5 249t-133.5 87z" />
    <glyph glyph-name="afii10033" unicode="&#x41f;" horiz-adv-x="886" 
d="M846 39v-39h-353v39h42q29 0 40.5 13t11.5 50v536q0 27 -7.5 36t-29.5 9h-213q-22 0 -29.5 -9t-7.5 -36v-536q0 -37 11.5 -50t40.5 -13h41v-39h-353v39h41q29 0 40.5 13t11.5 50v518q0 37 -11.5 50t-40.5 13h-41v39h806v-39h-42q-29 0 -40 -13t-11 -50v-518q0 -37 11 -50
t40 -13h42z" />
    <glyph glyph-name="afii10034" unicode="&#x420;" horiz-adv-x="708" 
d="M516 517q0 60 -35 113t-98 53h-34q-27 0 -38 -13.5t-11 -49.5v-271h83q57 0 95 51q38 53 38 117zM415 309h-115v-207q0 -37 11.5 -50t40.5 -13h41v-39h-353v39h41q30 0 41 15t11 60v506q0 37 -11.5 50t-40.5 13h-41v39h375q124 0 196 -54.5t72 -150.5t-71.5 -152
t-196.5 -56z" />
    <glyph glyph-name="afii10035" unicode="&#x421;" horiz-adv-x="696" 
d="M621 250h39q-20 -152 -114 -213q-79 -52 -170 -52q-142 0 -239 95q-96 96 -96 268q0 174 92 281q93 107 246 107q107 0 182 -83l28 82h36l15 -284h-40q-30 147 -95 199q-56 46 -111 46q-42 0 -73 -14.5t-56.5 -51t-38.5 -105t-13 -169.5q0 -161 50 -240t140 -79
q82 0 139.5 55.5t78.5 157.5z" />
    <glyph glyph-name="afii10036" unicode="&#x422;" horiz-adv-x="731" 
d="M688 722l18 -266h-39q-18 98 -35.5 146.5t-38 64t-55.5 16.5h-46q-27 0 -35 -12t-8 -51v-518q0 -37 11.5 -50t40.5 -13h41v-39h-353v39h41q29 0 40.5 13t11.5 50v518q0 41 -7.5 52t-34.5 11h-47q-35 0 -55 -16q-45 -33 -74 -211h-39l19 266h644z" />
    <glyph glyph-name="afii10037" unicode="&#x423;" horiz-adv-x="754" 
d="M753 722v-39h-22q-49 0 -78 -63l-232 -500q-61 -135 -177 -135q-53 0 -94 33q-40 33 -40 90q0 33 23.5 56t56.5 23q31 0 53.5 -18t22.5 -54q0 -26 -23 -51q-23 -23 -45 -23q26 -15 62 -15q68 0 114 109l-249 472q-12 23 -30 46q-25 30 -68 30h-22v39h362v-39h-41
q-45 0 -45 -30q0 -15 15 -46l160 -312l148 338q6 13 6 25q0 25 -30 25h-48v39h221z" />
    <glyph glyph-name="afii10038" unicode="&#x424;" horiz-adv-x="910" 
d="M196 386q0 -114 44.5 -163.5t131.5 -49.5v426q-83 0 -130 -47q-46 -46 -46 -166zM874 386q0 -121 -92 -187t-244 -66v-31q0 -37 11.5 -50t40.5 -13h42v-39h-354v39h42q29 0 40.5 13t11.5 50v31q-154 0 -245 66t-91 187q0 123 91 187q92 66 245 66v17q0 37 -11.5 50
t-40.5 13h-42v39h354v-39h-42q-29 0 -40.5 -13t-11.5 -50v-17q152 0 244 -66q92 -65 92 -187zM714 386q0 119 -47 166t-129 47v-426q87 0 131.5 49.5t44.5 163.5z" />
    <glyph glyph-name="afii10039" unicode="&#x425;" horiz-adv-x="798" 
d="M783 39v-39h-370v39h54q32 0 32 16q0 13 -22 47l-132 204l-144 -213q-15 -23 -15 -37q0 -17 30 -17h46v-39h-247v39h23q35 0 59 13t49 50l171 249l-172 269q-41 63 -90 63h-22v39h362v-39h-46q-32 0 -32 -16q0 -14 21 -47l110 -171l126 184q16 22 16 35q0 15 -31 15h-40
v39h240v-39h-22q-36 0 -60.5 -13.5t-50.5 -49.5l-149 -216l193 -302q41 -63 91 -63h22z" />
    <glyph glyph-name="afii10040" unicode="&#x426;" horiz-adv-x="904" 
d="M853 39l12 -228h-39q-19 123 -59 160q-33 29 -85 29h-642v39h41q29 0 40.5 13t11.5 50v518q0 37 -11.5 50t-40.5 13h-41v39h353v-39h-41q-29 0 -40.5 -13t-11.5 -50v-537q0 -27 7.5 -35.5t29.5 -8.5h213q21 0 29 9t8 35v537q0 37 -11.5 50t-40.5 13h-42v39h353v-39h-42
q-29 0 -40 -13t-11 -50v-518q0 -37 11 -50t40 -13h49z" />
    <glyph glyph-name="afii10041" unicode="&#x427;" horiz-adv-x="815" 
d="M782 39v-39h-367v39h56q29 0 40.5 13t11.5 50v231q-39 -17 -97 -29t-102 -12q-111 0 -165.5 44.5t-54.5 148.5v135q0 37 -11.5 50t-40.5 13h-31v39h328v-39h-26q-29 0 -40.5 -13t-11.5 -50v-135q0 -77 29.5 -108t99.5 -31q36 0 123 26v248q0 37 -11.5 50t-40.5 13h-26v39
h337v-39h-41q-29 0 -40.5 -13t-11.5 -50v-518q0 -37 11.5 -50t40.5 -13h41z" />
    <glyph glyph-name="afii10042" unicode="&#x428;" horiz-adv-x="1257" 
d="M1217 39v-39h-1177v39h41q29 0 40.5 13t11.5 50v518q0 37 -11.5 50t-40.5 13h-41v39h346v-39h-34q-29 0 -40.5 -13t-11.5 -50v-537q0 -27 7.5 -35.5t29.5 -8.5h172q21 0 29 9t8 35v537q0 37 -11.5 50t-40.5 13h-34v39h338v-39h-33q-29 0 -41 -13t-12 -50v-537
q0 -26 8 -35t29 -9h172q22 0 29.5 8.5t7.5 35.5v537q0 37 -11.5 50t-40.5 13h-33v39h344v-39h-41q-29 0 -40.5 -13t-11.5 -50v-518q0 -37 11.5 -50t40.5 -13h41z" />
    <glyph glyph-name="afii10043" unicode="&#x429;" horiz-adv-x="1275" 
d="M1225 39l12 -228h-39q-23 125 -60 160q-33 29 -85 29h-1013v39h41q29 0 40.5 13t11.5 50v518q0 37 -11.5 50t-40.5 13h-41v39h346v-39h-34q-29 0 -40.5 -13t-11.5 -50v-537q0 -27 7.5 -35.5t29.5 -8.5h172q21 0 29 9t8 35v537q0 37 -11.5 50t-40.5 13h-34v39h338v-39h-33
q-29 0 -41 -13t-12 -50v-537q0 -26 8 -35t29 -9h172q22 0 29.5 8.5t7.5 35.5v537q0 37 -11.5 50t-40.5 13h-33v39h344v-39h-41q-29 0 -40.5 -13t-11.5 -50v-518q0 -37 11.5 -50t40.5 -13h49z" />
    <glyph glyph-name="afii10044" unicode="&#x42a;" horiz-adv-x="819" 
d="M627 202q0 72 -32 118t-90 46h-91v-264q0 -63 51 -63h48q54 0 84 47q30 48 30 116zM794 202q0 -94 -71 -148t-186 -54h-384v39h42q29 0 40.5 13t11.5 50v518q0 41 -7.5 52t-32.5 11h-35q-45 0 -77.5 -60.5t-45.5 -166.5h-39l19 266h493v-39h-57q-29 0 -40 -13t-11 -50
v-215h115q122 0 193.5 -54t71.5 -149z" />
    <glyph glyph-name="afii10045" unicode="&#x42b;" horiz-adv-x="1085" 
d="M680 202q0 -94 -71 -148t-185 -54h-384v39h41q29 0 40.5 13t11.5 50v518q0 37 -11.5 50t-40.5 13h-41v39h368v-39h-56q-29 0 -40.5 -13t-11.5 -50v-215h116q122 0 193 -54t71 -149zM1045 39v-39h-352v39h41q29 0 40 13t11 50v518q0 37 -11 50t-40 13h-41v39h352v-39h-41
q-29 0 -40 -13t-11 -50v-518q0 -37 11 -50t40 -13h41zM513 202q0 71 -35 117.5t-94 46.5h-84v-264q0 -63 52 -63h47q55 0 84 47q30 48 30 116z" />
    <glyph glyph-name="afii10046" unicode="&#x42c;" horiz-adv-x="705" 
d="M680 202q0 -94 -71 -148t-185 -54h-384v39h41q29 0 40.5 13t11.5 50v518q0 37 -11.5 50t-40.5 13h-41v39h368v-39h-56q-29 0 -40.5 -13t-11.5 -50v-215h123q121 0 189 -53.5t68 -149.5zM513 202q0 72 -32 118t-89 46h-92v-264q0 -63 52 -63h47q55 0 84 47q30 48 30 116z
" />
    <glyph glyph-name="afii10047" unicode="&#x42d;" horiz-adv-x="676" 
d="M635 348q0 -171 -101 -267q-100 -96 -244 -96q-108 0 -181 52t-73 152q0 28 20.5 48.5t48.5 20.5q29 0 49 -20.5t20 -48.5t-22 -47t-53 -20q20 -45 65 -69t107 -24q89 0 140 79.5t53 235.5l-250 -7v56q43 -1 130.5 -3.5t118.5 -3.5q-2 92 -15 154t-37 95.5t-53.5 47
t-69.5 13.5q-149 0 -202 -245h-40l15 284h36l27 -81q34 38 82 60t97 22q153 0 242 -107q90 -107 90 -281z" />
    <glyph glyph-name="afii10048" unicode="&#x42e;" horiz-adv-x="1151" 
d="M754 -15q-147 0 -240 101q-93 100 -99 256h-115v-240q0 -37 11.5 -50t40.5 -13h41v-39h-353v39h41q29 0 40.5 13t11.5 50v518q0 37 -11.5 50t-40.5 13h-41v39h353v-39h-41q-29 0 -40.5 -13t-11.5 -50v-224h116q10 146 103 243q91 97 235 97q155 0 255 -109
q101 -109 101 -266t-101 -267q-100 -109 -255 -109zM923 361q0 333 -169 333q-168 0 -168 -333t168 -333q84 0 126.5 86t42.5 247z" />
    <glyph glyph-name="afii10049" unicode="&#x42f;" horiz-adv-x="793" 
d="M401 376h92v244q0 35 -12.5 49t-39.5 14h-53q-54 0 -84 -41.5t-30 -110.5q0 -74 32.5 -114.5t94.5 -40.5zM753 39v-39h-353v39h41q30 0 41 12.5t11 50.5v235h-70q-73 0 -107 -120q-12 -44 -32 -99q-19 -54 -62.5 -87t-108.5 -33q-48 0 -72.5 36t-28.5 116h39
q2 -51 11 -71t28 -20q14 0 23 20.5t23 67.5q8 30 28 79q19 42 60.5 76.5t96.5 46.5q-101 10 -157.5 58.5t-56.5 123.5q0 72 40 115q38 42 100 59t161 17h345v-39h-41q-29 0 -40.5 -13t-11.5 -50v-518q0 -37 11.5 -50t40.5 -13h41z" />
    <glyph glyph-name="afii10065" unicode="&#x430;" horiz-adv-x="582" 
d="M234 45q103 0 107 190q-164 -12 -164 -123q0 -31 15 -49t42 -18zM245 429q-65 0 -97 -33q39 -16 39 -59q0 -29 -19 -48t-54 -19q-29 0 -48.5 19.5t-19.5 47.5q0 65 67 99q68 35 145 35q109 0 168.5 -37.5t59.5 -108.5q0 -25 -3 -111t-3 -121q0 -53 24 -53q30 0 30 73h33
q-1 -65 -28.5 -95.5t-84.5 -30.5q-90 0 -99 108q-59 -108 -188 -108q-56 0 -92.5 28.5t-36.5 78.5q0 69 82 115q83 49 222 59q0 15 0.5 29.5t1 21.5t0.5 9q-2 101 -99 101z" />
    <glyph glyph-name="afii10066" unicode="&#x431;" horiz-adv-x="576" 
d="M538 229q0 -110 -71 -178q-71 -66 -179 -66q-111 0 -181 68q-68 68 -68 175q0 51 2 109q8 117 31 164q35 73 94 104q76 40 193 61q59 10 85 22q23 12 29 39h31q-6 -56 -14.5 -85t-29.5 -52t-57 -35.5t-102 -21.5q-143 -19 -187 -82q-21 -33 -29 -71q-7 -34 -7 -98
q23 80 84.5 125.5t147.5 45.5q103 0 165 -62q63 -61 63 -162zM396 220q0 192 -108 192t-108 -192q0 -195 108 -195t108 195z" />
    <glyph glyph-name="afii10067" unicode="&#x432;" horiz-adv-x="581" 
d="M405 130q0 39 -24.5 64t-63.5 25h-72v-126q0 -36 7.5 -46t35.5 -10h35q38 0 60 26t22 67zM382 338q0 37 -21.5 60t-61.5 23h-12q-27 0 -34.5 -10.5t-7.5 -43.5v-111h67q35 0 52.5 23t17.5 59zM546 127q0 -68 -54 -97.5t-168 -29.5h-296v39h38q23 0 31 9.5t8 36.5v288
q0 27 -8 36.5t-31 9.5h-38v39h324q169 0 169 -107q0 -44 -33 -73t-97 -38q76 -6 115.5 -35.5t39.5 -77.5z" />
    <glyph glyph-name="afii10068" unicode="&#x433;" horiz-adv-x="494" 
d="M28 458h440l11 -195h-38q-20 93 -43 124q-23 32 -65 32h-49q-23 0 -31 -9.5t-8 -36.5v-288q0 -27 8 -36.5t31 -9.5h51v-39h-307v39h38q23 0 31 9.5t8 36.5v288q0 27 -8 36.5t-31 9.5h-38v39z" />
    <glyph glyph-name="afii10069" unicode="&#x434;" horiz-adv-x="602" 
d="M572 39l11 -193h-39q-12 71 -27 106q-14 32 -28 40t-47 8h-300q-25 0 -38 -7q-29 -16 -52 -147h-39l10 193h39q43 20 69 103.5t26 230.5q0 27 -8 36.5t-31 9.5h-38v39h488v-39h-37q-25 0 -32 -11t-7 -46v-277q0 -27 7.5 -36.5t31.5 -9.5h41zM351 83v308q0 16 -7 22t-25 6
h-79q-23 0 -31.5 -14t-8.5 -43q0 -240 -80 -323h195q22 0 29 9t7 35z" />
    <glyph glyph-name="afii10070" unicode="&#x435;" horiz-adv-x="535" 
d="M496 230h-315v-21q0 -86 32 -130.5t90 -44.5q100 0 149 114l34 -15q-22 -73 -83 -111q-59 -37 -122 -37q-113 0 -178 68q-64 68 -64 176q0 104 65 174q66 69 178 69q214 0 214 -242zM280 433q-92 0 -99 -163h144q14 0 21.5 10.5t7.5 23.5q0 63 -19.5 96t-54.5 33z" />
    <glyph glyph-name="afii10072" unicode="&#x436;" horiz-adv-x="882" 
d="M843 458v-39q-38 0 -58 -7q-23 -8 -32 -17q-20 -20 -38 -41l-87 -103q41 -6 70.5 -30t42.5 -56q9 -20 19.5 -56t19 -53t19.5 -17q13 0 17.5 14t6.5 57h34q0 -65 -19.5 -93t-70.5 -28q-98 0 -127 80q-4 13 -11 39.5t-12 41.5t-13.5 33t-22 26t-31.5 8h-39v-124
q0 -31 7.5 -42.5t31.5 -11.5h28v-39h-274v39h28q24 0 31.5 13.5t7.5 48.5v116h-39q-52 0 -72 -81q-6 -29 -9.5 -42t-13.5 -37.5t-22 -36.5t-34.5 -22t-51.5 -10q-60 0 -82 27.5t-22 94.5h34q1 -19 2 -30.5t3.5 -22t7 -14.5t11.5 -4q22 0 46 96q10 40 43 74t82 42l-88 103
q-18 21 -38 41q-28 24 -89 24v39h207v-39h-28q-26 0 -26 -16q0 -15 29 -50l82 -96h68v108q0 31 -7.5 42.5t-31.5 11.5h-28v39h274v-39h-28q-24 0 -31.5 -13.5t-7.5 -47.5v-101h67l82 96q29 35 29 50q0 16 -26 16h-27v39h207z" />
    <glyph glyph-name="afii10073" unicode="&#x437;" horiz-adv-x="486" 
d="M209 23q50 0 77 28t27 73q0 43 -21.5 69t-57.5 26q-24 0 -62 -2v44q40 -2 62 -2q34 0 53.5 26t19.5 64q0 39 -20.5 60.5t-57.5 21.5q-48 0 -88 -32t-65 -121h-29l10 194h32l17 -47q53 47 141 47q192 0 192 -117q0 -44 -36.5 -74t-102.5 -40q74 -5 114.5 -37.5t40.5 -81.5
q0 -65 -63.5 -101t-179.5 -36q-73 0 -127 33q-53 35 -53 90q0 26 17.5 43t41.5 17t41.5 -16t17.5 -37q0 -19 -11 -35t-29 -20q27 -37 99 -37z" />
    <glyph glyph-name="afii10074" unicode="&#x438;" horiz-adv-x="700" 
d="M672 39v-39h-284v39h28q23 0 31 9.5t8 36.5v231l-210 -239q0 -24 7.5 -31t31.5 -7h28v-39h-284v39h38q23 0 31 9.5t8 36.5v288q0 27 -8 36.5t-31 9.5h-38v39h284v-39h-28q-23 0 -31 -9.5t-8 -36.5v-231l210 239q0 24 -7.5 31t-31.5 7h-28v39h284v-39h-38q-23 0 -31 -9.5
t-8 -36.5v-288q0 -27 8 -36.5t31 -9.5h38z" />
    <glyph glyph-name="afii10075" unicode="&#x439;" horiz-adv-x="700" 
d="M464 584q-21 2 -36.5 18.5t-15.5 37.5q0 23 16.5 40t40.5 17q26 0 43.5 -19.5t17.5 -46.5q0 -57 -48.5 -89t-131.5 -32t-132 32t-49 89q0 27 18 46.5t44 19.5q23 0 40 -17t17 -40q0 -21 -15.5 -37.5t-36.5 -18.5q27 -35 114 -35t114 35zM672 39v-39h-284v39h28
q23 0 31 9.5t8 36.5v231l-210 -239q0 -24 7.5 -31t31.5 -7h28v-39h-284v39h38q23 0 31 9.5t8 36.5v288q0 27 -8 36.5t-31 9.5h-38v39h284v-39h-28q-23 0 -31 -9.5t-8 -36.5v-231l210 239q0 24 -7.5 31t-31.5 7h-28v39h284v-39h-38q-23 0 -31 -9.5t-8 -36.5v-288
q0 -27 8 -36.5t31 -9.5h38z" />
    <glyph glyph-name="afii10076" unicode="&#x43a;" horiz-adv-x="624" 
d="M501 -14q-45 0 -74 23t-41 59q-4 11 -11.5 39.5t-13 42.5t-15.5 32.5t-24.5 26.5t-34.5 8h-42v-132q0 -27 8 -36.5t31 -9.5h38v-39h-294v39h38q23 0 31 9.5t8 36.5v288q0 27 -8 36.5t-31 9.5h-38v39h294v-39h-38q-23 0 -31 -9.5t-8 -36.5v-116h69l96 109q20 23 20 37
q0 16 -27 16h-38v39h224v-39h-20q-32 0 -53.5 -11.5t-49.5 -40.5l-103 -114q44 -8 76 -32.5t45 -56.5q10 -22 19 -56t16.5 -51.5t18.5 -17.5q28 0 31 71h33q0 -124 -101 -124z" />
    <glyph glyph-name="afii10077" unicode="&#x43b;" horiz-adv-x="627" 
d="M522 362v-266q0 -33 7.5 -45t31.5 -12h38v-39h-294v39h38q24 0 31.5 12t7.5 45v295q0 16 -7 22t-25 6h-78q-23 0 -31 -10.5t-8 -35.5q0 -145 -13 -229q-12 -78 -41 -116t-82 -42q-87 0 -87 82q0 25 17.5 41t43.5 16q25 0 43 -17t18 -40q0 -18 -12 -31q1 -1 6 -1
q67 0 67 337q0 27 -8 36.5t-31 9.5h-38v39h483v-39h-38q-24 0 -31.5 -12t-7.5 -45z" />
    <glyph glyph-name="afii10078" unicode="&#x43c;" horiz-adv-x="769" 
d="M664 361v-264q0 -34 7.5 -46t31.5 -12h37v-39h-299v39h43q25 0 32 12t7 47v319h-4l-172 -421h-38l-160 421h-5v-320q0 -34 7.5 -46t31.5 -12h43v-39h-198v39h38q24 0 31.5 12t7.5 46v276q0 27 -8 36.5t-31 9.5h-38v39h256l101 -267l108 267h247v-39h-37q-25 0 -32 -11.5
t-7 -46.5z" />
    <glyph glyph-name="afii10079" unicode="&#x43d;" horiz-adv-x="695" 
d="M667 39v-39h-291v39h35q23 0 31 9.5t8 36.5v132h-205v-132q0 -27 8 -36.5t31 -9.5h36v-39h-292v39h38q23 0 31 9.5t8 36.5v288q0 27 -8 36.5t-31 9.5h-38v39h292v-39h-36q-23 0 -31 -9.5t-8 -36.5v-109h205v109q0 27 -8 36.5t-31 9.5h-35v39h291v-39h-38q-23 0 -31 -9.5
t-8 -36.5v-288q0 -27 8 -36.5t31 -9.5h38z" />
    <glyph glyph-name="afii10080" unicode="&#x43e;" horiz-adv-x="577" 
d="M289 25q108 0 108 204t-108 204t-108 -204t108 -204zM289 472q115 0 182 -67t67 -176q0 -110 -67 -177t-182 -67q-116 0 -183 67t-67 177q0 109 67 176t183 67z" />
    <glyph glyph-name="afii10081" unicode="&#x43f;" horiz-adv-x="688" 
d="M659 39v-39h-283v39h27q23 0 31 9.5t8 36.5v306q0 16 -6.5 22t-24.5 6h-134q-18 0 -25 -6t-7 -22v-306q0 -27 8 -36.5t31 -9.5h28v-39h-284v39h38q23 0 31 9.5t8 36.5v288q0 27 -8 36.5t-31 9.5h-38v39h631v-39h-37q-23 0 -31 -9.5t-8 -36.5v-288q0 -27 8 -36.5t31 -9.5
h37z" />
    <glyph glyph-name="afii10082" unicode="&#x440;" horiz-adv-x="623" 
d="M584 229q0 -104 -55 -174q-54 -70 -146 -70q-52 0 -94 29.5t-58 77.5v-195q0 -27 7.5 -36.5t31.5 -9.5h50v-39h-307v39h38q23 0 31 9.5t8 36.5v476q0 28 -8 37t-35 9h-34v39l203 12l10 -117q16 52 60 85.5t97 33.5q92 0 146 -71q55 -70 55 -172zM443 229q0 191 -104 191
q-37 0 -73 -53q-35 -53 -35 -138q0 -91 34 -141q35 -51 73 -51q105 0 105 192z" />
    <glyph glyph-name="afii10083" unicode="&#x441;" horiz-adv-x="509" 
d="M445 147l34 -15q-27 -73 -77.5 -110t-117.5 -37q-105 0 -176 62q-69 63 -69 174q0 109 72 180q73 71 187 71q79 0 128 -33t49 -93q0 -29 -19.5 -51t-49.5 -22q-38 0 -55 19.5t-17 47.5q0 20 14 36.5t40 22.5q-19 34 -82 34q-56 0 -90.5 -54t-34.5 -151q0 -88 34.5 -138
t91.5 -50q97 0 138 107z" />
    <glyph glyph-name="afii10084" unicode="&#x442;" horiz-adv-x="549" 
d="M33 458h482l13 -187h-39q-21 90 -39 119t-48 29h-36q-13 0 -17 -6.5t-4 -29.5v-298q0 -27 7.5 -36.5t30.5 -9.5h38v-39h-294v39h38q23 0 31 9.5t8 36.5v298q0 23 -4.5 29.5t-16.5 6.5h-36q-30 0 -48 -28q-18 -29 -39 -120h-39z" />
    <glyph glyph-name="afii10085" unicode="&#x443;" horiz-adv-x="598" 
d="M593 458v-39h-15q-47 0 -70 -56l-161 -383q-43 -101 -78 -142t-102 -41q-42 0 -67 26.5t-25 61.5q0 25 16 46t40 21q26 0 42.5 -17t16.5 -39q0 -40 -37 -50q10 -10 36 -10q53 0 115 150l-210 378q-18 33 -30.5 44t-34.5 11h-24v39h287v-39h-33q-23 0 -23 -12q0 -8 14 -34
l124 -228l93 228q6 15 6 25q0 21 -27 21h-33v39h180z" />
    <glyph glyph-name="afii10086" unicode="&#x444;" horiz-adv-x="813" 
d="M267 645l210 13v-267q41 81 119 81q89 0 135 -70q47 -70 47 -174q0 -105 -47 -175q-47 -68 -135 -68q-78 0 -119 75v-163q0 -27 8 -36.5t31 -9.5h37v-39h-293v39h37q23 0 31 9.5t8 36.5v163q-42 -75 -119 -75q-88 0 -135 68q-47 70 -47 175q0 104 47 174q46 70 135 70
q77 0 119 -81v169q0 28 -8 37t-34 9h-27v39zM473 228q1 -93 26.5 -142t62.5 -49q44 0 65 43.5t21 147.5t-21 148t-65 44q-36 0 -62 -50.5t-27 -141.5zM340 228q-1 91 -27 141.5t-62 50.5q-43 0 -64 -44t-21 -148t20.5 -147.5t64.5 -43.5q37 0 62.5 49t26.5 142z" />
    <glyph glyph-name="afii10087" unicode="&#x445;" horiz-adv-x="574" 
d="M556 39v-39h-267v39h28q23 0 23 10q0 7 -21 36l-71 102l-79 -102q-4 -6 -10 -14l-9 -12t-3 -7q1 -13 21 -13h28v-39h-179v39h23q24 0 40 9.5t36 36.5l108 137l-105 151q-19 27 -33 36.5t-34 9.5h-23v39h263v-39h-28q-23 0 -23 -11q0 -7 19 -35l58 -85l67 85q20 26 20 34
q0 12 -21 12h-28v39h187v-39h-21q-48 0 -85 -48l-94 -117l118 -169q18 -26 34 -36t41 -10h20z" />
    <glyph glyph-name="afii10088" unicode="&#x446;" horiz-adv-x="695" 
d="M245 373v-306q0 -16 7 -22t25 -6h134q18 0 24.5 6t6.5 22v306q0 27 -8 36.5t-31 9.5h-27v39h283v-39h-37q-23 0 -31 -9.5t-8 -36.5v-288q0 -27 8 -36.5t31 -9.5h42l11 -193h-39q-13 72 -27 106t-26.5 41t-37.5 7h-517v39h38q23 0 31 9.5t8 36.5v288q0 27 -8 36.5t-31 9.5
h-38v39h284v-39h-28q-23 0 -31 -9.5t-8 -36.5z" />
    <glyph glyph-name="afii10089" unicode="&#x447;" horiz-adv-x="656" 
d="M626 39v-39h-307v39h51q23 0 31 9.5t8 36.5v119q-75 -26 -161 -26q-63 0 -109 19q-55 25 -55 102v74q0 27 -8 36.5t-31 9.5h-30v39h273v-39h-25q-23 0 -31 -9.5t-8 -36.5v-74q0 -40 18.5 -59.5t62.5 -19.5q51 0 104 18v135q0 27 -8 36.5t-31 9.5h-24v39h280v-39h-38
q-23 0 -31 -9.5t-8 -36.5v-288q0 -27 8 -36.5t31 -9.5h38z" />
    <glyph glyph-name="afii10090" unicode="&#x448;" horiz-adv-x="983" 
d="M878 373v-288q0 -27 7.5 -36.5t30.5 -9.5h38v-39h-926v39h38q24 0 31.5 12t7.5 46v276q0 27 -8 36.5t-31 9.5h-38v39h282v-39h-26q-23 0 -31 -9.5t-8 -36.5v-305q0 -16 7 -22t25 -6h113q18 0 24.5 6t6.5 22v305q0 27 -8 36.5t-31 9.5h-22v39h265v-39h-25q-23 0 -31 -9.5
t-8 -36.5v-305q0 -16 7 -22t25 -6h113q18 0 24.5 6t6.5 22v305q0 27 -8 36.5t-31 9.5h-25v39h281v-39h-37q-23 0 -31 -9.5t-8 -36.5z" />
    <glyph glyph-name="afii10091" unicode="&#x449;" horiz-adv-x="983" 
d="M878 373v-288q0 -27 7.5 -36.5t30.5 -9.5h43l10 -193h-39q-11 69 -26 106q-13 32 -25.5 40t-39.5 8h-811v39h38q24 0 31.5 12t7.5 46v276q0 27 -8 36.5t-31 9.5h-38v39h282v-39h-26q-23 0 -31 -9.5t-8 -36.5v-305q0 -16 7 -22t25 -6h113q18 0 24.5 6t6.5 22v305
q0 27 -8 36.5t-31 9.5h-22v39h265v-39h-25q-23 0 -31 -9.5t-8 -36.5v-305q0 -16 7 -22t25 -6h113q18 0 24.5 6t6.5 22v305q0 27 -8 36.5t-31 9.5h-25v39h281v-39h-37q-23 0 -31 -9.5t-8 -36.5z" />
    <glyph glyph-name="afii10092" unicode="&#x44a;" horiz-adv-x="651" 
d="M490 136q0 43 -23.5 68.5t-64.5 25.5h-60v-145q0 -27 7 -36.5t28 -9.5h31q39 0 60.5 26t21.5 71zM448 0h-323v39h37q23 0 31 9.5t8 36.5v296q0 24 -4.5 31t-19.5 7h-38q-29 0 -45 -28t-35 -120h-39l13 187h385v-39h-37q-23 0 -31 -10.5t-8 -36.5v-105h106q86 0 134.5 -35
t48.5 -98t-48.5 -98.5t-134.5 -35.5z" />
    <glyph glyph-name="afii10093" unicode="&#x44b;" horiz-adv-x="859" 
d="M393 136q0 43 -23.5 68.5t-63.5 25.5h-61v-145q0 -27 7 -36.5t28 -9.5h33q38 0 59 26t21 71zM345 0h-317v39h38q23 0 31 9.5t8 36.5v288q0 27 -8 36.5t-31 9.5h-38v39h302v-39h-38q-47 0 -47 -47v-105h100q86 0 134 -35t48 -98t-48 -98.5t-134 -35.5zM830 39v-39h-291v39
h35q23 0 31 9.5t8 36.5v288q0 27 -8 36.5t-31 9.5h-35v39h291v-39h-38q-23 0 -30.5 -9.5t-7.5 -36.5v-288q0 -27 7.5 -36.5t30.5 -9.5h38z" />
    <glyph glyph-name="afii10094" unicode="&#x44c;" horiz-adv-x="554" 
d="M393 136q0 43 -23.5 68.5t-63.5 25.5h-61v-145q0 -27 7 -36.5t28 -9.5h33q38 0 59 26t21 71zM352 0h-324v39h38q23 0 31 9.5t8 36.5v288q0 27 -8 36.5t-31 9.5h-38v39h294v-39h-38q-21 0 -30 -11t-9 -36v-105h107q86 0 134 -35t48 -98t-48 -98.5t-134 -35.5z" />
    <glyph glyph-name="afii10095" unicode="&#x44d;" horiz-adv-x="516" 
d="M477 237q0 -118 -70 -185t-195 -67q-81 0 -131 34.5t-50 91.5q0 26 17 43t41 17q26 0 42.5 -15.5t16.5 -37.5q0 -42 -39 -55q28 -37 100 -37q65 0 95 47t31 144q-37 0 -172 -5v47l72 -2q20 0 42.5 -0.5t35 -1t21.5 -0.5q-2 97 -36 135q-34 39 -83 39q-48 0 -84 -35.5
t-63 -118.5h-29l11 197h31l17 -47q50 47 134 47q112 0 178 -63q67 -61 67 -172z" />
    <glyph glyph-name="afii10096" unicode="&#x44e;" horiz-adv-x="854" 
d="M576 -15q-106 0 -170 63t-69 167h-92v-130q0 -27 8 -36.5t31 -9.5h36v-39h-292v39h38q23 0 31 9.5t8 36.5v288q0 27 -8 36.5t-31 9.5h-38v39h292v-39h-36q-23 0 -31 -9.5t-8 -36.5v-110h94q10 96 73 152.5t164 56.5q110 0 174 -67q65 -68 65 -176q0 -109 -65 -177
q-64 -67 -174 -67zM576 25q104 0 104 204t-104 204t-104 -204t104 -204z" />
    <glyph glyph-name="afii10097" unicode="&#x44f;" horiz-adv-x="616" 
d="M301 243h69v130q0 27 -7 36.5t-27 9.5h-41q-38 0 -59.5 -25t-21.5 -66q0 -38 24 -61.5t63 -23.5zM588 39v-39h-291v39h37q21 0 28.5 10t7.5 36v119h-50q-28 0 -44.5 -22.5t-25.5 -54.5t-20 -63.5t-36.5 -54t-66.5 -22.5q-63 0 -86.5 26t-24.5 100h33q0 -73 28 -73
q23 0 39 80q7 34 37 62.5t80 36.5q-80 4 -120.5 34t-40.5 80q0 62 47.5 93.5t135.5 31.5h333v-39h-38q-23 0 -31 -9.5t-8 -36.5v-288q0 -27 8 -36.5t31 -9.5h38z" />
    <glyph glyph-name="afii10071" unicode="&#x451;" horiz-adv-x="535" 
d="M496 230h-315v-21q0 -86 32 -130.5t90 -44.5q100 0 149 114l34 -15q-22 -73 -83 -111q-59 -37 -122 -37q-113 0 -178 68q-64 68 -64 176q0 104 65 174q66 69 178 69q214 0 214 -242zM280 433q-92 0 -99 -163h144q14 0 21.5 10.5t7.5 23.5q0 63 -19.5 96t-54.5 33z
M102 612q0 26 17.5 44t42.5 18t43 -18t18 -44q0 -24 -18 -41.5t-43 -17.5t-42.5 17.5t-17.5 41.5zM312 612q0 25 18 43.5t42 18.5q25 0 43 -18t18 -44q0 -24 -18 -41.5t-43 -17.5q-24 0 -42 17.5t-18 41.5z" />
    <glyph glyph-name="afii10099" unicode="&#x452;" horiz-adv-x="628" 
d="M573 297v-262q0 -62 -21 -112.5t-55 -75.5q-61 -50 -122 -50q-49 0 -87 20q-37 19 -37 71q0 26 18.5 44.5t43.5 18.5q26 0 44 -18.5t18 -44.5q0 -24 -21 -42q9 -9 26 -9q27 0 39.5 31t12.5 104v310q0 68 -16.5 94t-58.5 26q-44 0 -85 -47t-41 -113v-157q0 -27 7.5 -36.5
t31.5 -9.5h28v-39h-285v39h38q23 0 31 9.5t8 36.5v452h-75v47h75v55q0 27 -8.5 37t-32.5 10h-36v39l218 11v-152h204v-47h-204v-186q21 54 70.5 87.5t113.5 33.5q158 0 158 -175z" />
    <glyph glyph-name="afii10100" unicode="&#x453;" horiz-adv-x="494" 
d="M227 529l-23 13l21 49l20 45l18 36q16 28 32 39t43 14q20 0 35.5 -12.5t15.5 -29.5q0 -25 -36.5 -58.5t-125.5 -95.5zM28 458h440l11 -195h-38q-18 98 -43 126q-25 30 -74 30h-40q-24 0 -31.5 -11.5t-7.5 -44.5v-278q0 -27 8 -36.5t31 -9.5h51v-39h-307v39h38
q24 0 31.5 11.5t7.5 43.5v279q0 27 -8 36.5t-31 9.5h-38v39z" />
    <glyph glyph-name="afii10101" unicode="&#x454;" horiz-adv-x="509" 
d="M445 147l34 -15q-27 -73 -78.5 -110t-118.5 -37q-105 0 -175 62q-68 63 -68 174q0 109 71 180t185 71q76 0 128 -32q52 -31 52 -94q0 -29 -19.5 -49.5t-49.5 -20.5q-36 0 -53 18.5t-17 45.5q0 30 33 57q-17 36 -66 36q-51 0 -84 -46.5t-38 -131.5q72 0 147 4v-47
q-117 5 -147 5q2 -82 36 -129.5t88 -47.5q99 0 140 107z" />
    <glyph glyph-name="afii10102" unicode="&#x455;" horiz-adv-x="483" 
d="M450 144q0 -70 -57 -114.5t-159 -44.5q-82 0 -140 53l-20 -52h-31l-11 187h29q40 -148 174 -148q95 0 95 69q0 30 -32 48q-15 13 -47 16l-29 6l-27 6q-77 16 -114 51.5t-37 108.5q0 67 49.5 104.5t134.5 37.5q83 0 138 -49l18 49h32l10 -169h-29q-43 135 -168 135
q-40 0 -67 -18.5t-27 -49.5q-5 -32 43 -55q13 -6 31 -10l34 -7l39 -7q72 -12 115 -39q53 -32 53 -108z" />
    <glyph glyph-name="afii10103" unicode="&#x456;" horiz-adv-x="347" 
d="M253 621q0 -30 -23 -51.5t-56 -21.5q-32 0 -55 22t-23 51q0 31 23 53t55 22q33 0 56 -22t23 -53zM335 39v-39h-307v39h38q23 0 31 9.5t8 36.5v288q0 27 -8 36.5t-34 9.5h-35v39l217 13v-386q0 -27 8 -36.5t31 -9.5h51z" />
    <glyph glyph-name="afii10104" unicode="&#x457;" horiz-adv-x="347" 
d="M335 39v-39h-307v39h38q23 0 31 9.5t8 36.5v288q0 27 -8 36.5t-34 9.5h-35v39l217 13v-386q0 -27 8 -36.5t31 -9.5h51zM192 612q0 25 17.5 43.5t41.5 18.5q25 0 43 -18t18 -44q0 -24 -18 -41.5t-43 -17.5q-24 0 -41.5 17.5t-17.5 41.5zM40 612q0 25 17.5 43.5t41.5 18.5
q25 0 43.5 -18t18.5 -44q0 -24 -18.5 -41.5t-43.5 -17.5q-24 0 -41.5 17.5t-17.5 41.5z" />
    <glyph glyph-name="afii10105" unicode="&#x458;" horiz-adv-x="319" 
d="M40 458l217 13v-436q0 -62 -21 -112.5t-55 -75.5q-61 -50 -122 -50q-48 0 -86 20t-38 71q0 26 18 44.5t44 18.5q25 0 43 -18.5t18 -44.5q0 -28 -30 -42q12 -9 36 -9q27 0 39.5 31t12.5 104v401q0 27 -8 36.5t-34 9.5h-34v39zM265 621q0 -30 -23 -51.5t-56 -21.5t-56 21.5
t-23 51.5q0 31 23 53t56 22t56 -22t23 -53z" />
    <glyph glyph-name="afii10106" unicode="&#x459;" horiz-adv-x="822" 
d="M668 136q0 43 -23.5 68.5t-63.5 25.5h-55v-137q0 -34 8 -44t35 -10h20q38 0 58.5 26t20.5 71zM802 134q0 -70 -50 -102t-154 -32h-289v39h37q24 0 31.5 14.5t7.5 50.5v287q0 13 -6.5 19.5t-13 7.5t-19.5 1h-70q-23 0 -31 -9.5t-8 -36.5q0 -47 -2 -105q-2 -108 -21 -171
q-31 -111 -113 -111q-88 0 -88 82q0 24 18 40.5t43 16.5q26 0 43.5 -16.5t17.5 -40.5q0 -19 -12 -31q1 -1 7 -1q66 0 66 337q0 27 -7.5 36.5t-31.5 9.5h-37v39h483v-39h-38q-15 0 -22 -1.5t-12 -8t-5 -20.5v-122h101q84 0 129.5 -35t45.5 -98z" />
    <glyph glyph-name="afii10107" unicode="&#x45a;" horiz-adv-x="891" 
d="M688 0h-315v39h35q23 0 31 9.5t8 36.5v140h-202v-140q0 -27 8 -36.5t31 -9.5h36v-39h-292v39h38q23 0 31 9.5t8 36.5v288q0 27 -8 36.5t-31 9.5h-38v39h292v-39h-36q-23 0 -31 -9.5t-8 -36.5v-109h202v109q0 27 -8 36.5t-31 9.5h-35v39h291v-39h-37q-23 0 -31 -9.5
t-8 -36.5v-106h100q86 0 134.5 -35t48.5 -98t-48.5 -98.5t-134.5 -35.5zM730 136q0 43 -23.5 67.5t-63.5 24.5h-55v-143q0 -27 6.5 -36.5t27.5 -9.5h28q38 0 59 26t21 71z" />
    <glyph glyph-name="afii10108" unicode="&#x45b;" horiz-adv-x="665" 
d="M231 240v-155q0 -27 7.5 -36.5t31.5 -9.5h28v-39h-285v39h38q23 0 31 9.5t8 36.5v452h-75v47h75v55q0 28 -8 37.5t-34 9.5h-35v39l218 11v-152h204v-47h-204v-187q22 55 71 88.5t113 33.5q158 0 158 -175v-212q0 -27 8 -36.5t31 -9.5h38v-39h-285v39h28q23 0 31 9.5
t8 36.5v197q0 68 -16.5 94t-58.5 26q-45 0 -86 -48q-40 -46 -40 -114z" />
    <glyph glyph-name="afii10109" unicode="&#x45c;" horiz-adv-x="622" 
d="M279 529l-23 13l21 49l20 46q7 16 18 35q16 28 32 39t43 14q19 0 34.5 -12.5t15.5 -28.5q0 -19 -25 -47q-28 -29 -53 -48q-22 -17 -83 -60zM501 -14q-45 0 -74 23t-41 59q-4 11 -11.5 39.5t-13 42.5t-15.5 32.5t-24.5 26.5t-34.5 8h-42v-132q0 -27 8 -36.5t31 -9.5h38
v-39h-294v39h38q23 0 31 9.5t8 36.5v288q0 27 -8 36.5t-31 9.5h-38v39h294v-39h-38q-23 0 -31 -9.5t-8 -36.5v-116h69l96 109q20 23 20 37q0 16 -27 16h-38v39h224v-39h-20q-32 0 -53.5 -11.5t-49.5 -40.5l-103 -114q44 -8 76 -32.5t45 -56.5q10 -22 19 -56t16.5 -51.5
t18.5 -17.5q28 0 31 71h33q0 -124 -101 -124z" />
    <glyph glyph-name="afii10110" unicode="&#x45e;" horiz-adv-x="598" 
d="M443 584q-21 2 -36.5 18.5t-15.5 37.5q0 23 16.5 40t40.5 17q26 0 43.5 -19.5t17.5 -46.5q0 -57 -48.5 -89t-131.5 -32t-132 32t-49 89q0 27 18 46.5t44 19.5q23 0 40 -17t17 -40q0 -21 -15.5 -37.5t-36.5 -18.5q27 -35 114 -35t114 35zM593 458v-39h-15q-47 0 -70 -56
l-161 -383q-43 -101 -78 -142t-102 -41q-42 0 -67 26.5t-25 61.5q0 25 16 46t40 21q26 0 42.5 -17t16.5 -39q0 -40 -37 -50q10 -10 36 -10q53 0 115 150l-210 378q-18 33 -30.5 44t-34.5 11h-24v39h287v-39h-33q-23 0 -23 -12q0 -8 14 -34l124 -228l93 228q6 15 6 25
q0 21 -27 21h-33v39h180z" />
    <glyph glyph-name="afii10193" unicode="&#x45f;" horiz-adv-x="688" 
d="M245 363v-296q0 -16 7 -22t25 -6h134q18 0 24.5 6t6.5 22v306q0 27 -8 36.5t-31 9.5h-27v39h283v-39h-37q-24 0 -31.5 -12t-7.5 -45v-277q0 -27 8 -36.5t31 -9.5h37v-39h-293q5 -40 14 -69q11 -36 11 -44q0 -19 -14.5 -32t-32.5 -13q-19 0 -33.5 12.5t-14.5 32.5
q0 11 10 44q10 35 15 69h-293v39h38q24 0 31.5 11.5t7.5 44.5v278q0 27 -8 36.5t-31 9.5h-38v39h284v-39h-28q-24 0 -31.5 -12t-7.5 -44z" />
    <glyph glyph-name="afii10050" unicode="&#x490;" horiz-adv-x="643" 
d="M40 683v39h426q30 0 44.5 4.5t30.5 20.5q31 30 54 158h39l-10 -222h-280q-27 0 -35.5 -12t-8.5 -51v-518q0 -37 11.5 -50t40.5 -13h41v-39h-353v39h41q29 0 40.5 13t11.5 50v518q0 37 -11.5 50t-40.5 13h-41z" />
    <glyph glyph-name="afii10098" unicode="&#x491;" horiz-adv-x="486" 
d="M440 585h38l-10 -166h-184q-23 0 -31 -9.5t-8 -36.5v-288q0 -27 8 -36.5t31 -9.5h51v-39h-307v39h38q23 0 31 9.5t8 36.5v288q0 27 -8 36.5t-31 9.5h-38v39h313q26 0 36 2.5t22 13.5q22 18 41 111z" />
    <glyph glyph-name="endash" unicode="&#x2013;" horiz-adv-x="643" 
d="M585 301v-70h-528v70h528z" />
    <glyph glyph-name="emdash" unicode="&#x2014;" horiz-adv-x="870" 
d="M870 301v-70h-870v70h870z" />
    <glyph glyph-name="quoteleft" unicode="&#x2018;" horiz-adv-x="264" 
d="M201 524q0 -30 -21 -51t-51 -21q-37 0 -57.5 29.5t-20.5 72.5q0 52 37 102q38 51 94 77l16 -22q-76 -49 -76 -109q0 -6 1 -8q32 0 55 -19.5t23 -50.5z" />
    <glyph glyph-name="quoteright" unicode="&#x2019;" horiz-adv-x="264" 
d="M51 661q0 30 21 51t51 21q37 0 57.5 -29.5t20.5 -72.5q0 -52 -37 -102q-38 -52 -94 -77l-16 22q75 51 75 103q0 11 -1 14q-32 0 -54.5 19t-22.5 51z" />
    <glyph glyph-name="quotesinglbase" unicode="&#x201a;" horiz-adv-x="270" 
d="M210 29q0 -51 -38 -101q-38 -52 -93 -77l-16 22q75 53 75 105q0 9 -1 12q-33 0 -55 19t-22 50q0 30 21 51.5t51 21.5q37 0 57.5 -29.5t20.5 -73.5z" />
    <glyph glyph-name="quotedblleft" unicode="&#x201c;" horiz-adv-x="471" 
d="M401 524q0 -30 -21 -51t-51 -21q-37 0 -57.5 29.5t-20.5 72.5q0 52 37 102q38 51 94 77l16 -22q-76 -49 -76 -109q0 -6 1 -8q32 0 55 -19.5t23 -50.5zM201 524q0 -30 -21 -51t-51 -21q-37 0 -57.5 29.5t-20.5 72.5q0 52 37 102q38 51 94 77l16 -22q-76 -49 -76 -109
q0 -6 1 -8q32 0 55 -19.5t23 -50.5z" />
    <glyph glyph-name="quotedblright" unicode="&#x201d;" horiz-adv-x="471" 
d="M251 661q0 30 21 51t51 21q37 0 57.5 -29.5t20.5 -72.5q0 -52 -37 -102q-38 -52 -94 -77l-16 22q75 51 75 103q0 11 -1 14q-32 0 -54.5 19t-22.5 51zM51 661q0 30 21 51t51 21q37 0 57.5 -29.5t20.5 -72.5q0 -52 -37 -102q-38 -52 -94 -77l-16 22q75 51 75 103
q0 11 -1 14q-32 0 -54.5 19t-22.5 51z" />
    <glyph glyph-name="quotedblbase" unicode="&#x201e;" horiz-adv-x="470" 
d="M260 60q0 30 21 51t51 21q37 0 57.5 -29.5t20.5 -72.5q0 -52 -37 -102q-38 -52 -94 -77l-16 22q75 51 75 103q0 11 -1 14q-32 0 -54.5 19t-22.5 51zM60 60q0 30 21 51t51 21q37 0 57.5 -29.5t20.5 -72.5q0 -52 -37 -102q-38 -52 -94 -77l-16 22q75 51 75 103q0 11 -1 14
q-32 0 -54.5 19t-22.5 51z" />
    <glyph glyph-name="dagger" unicode="&#x2020;" horiz-adv-x="578" 
d="M308 -188h-39q0 198 -15 299t-42 171q27 21 44.5 63t18.5 88q-26 -4 -91 -22q-60 -17 -78 -17q-56 0 -56 56t56 56q20 0 78 -18q66 -19 90 -22q-1 38 -22 116q-19 72 -19 90q0 56 56 56t56 -56q0 -15 -20 -90q-21 -78 -22 -116q23 4 89 22q58 18 80 18q56 0 56 -56
t-56 -56q-20 0 -80 17q-66 19 -90 22q0 -46 18 -87.5t45 -63.5q-27 -70 -42 -171q-15 -100 -15 -299z" />
    <glyph glyph-name="daggerdbl" unicode="&#x2021;" horiz-adv-x="578" 
d="M365 312q-63 -52 -63 -137q24 3 90 22q58 18 80 18q56 0 56 -56t-56 -56q-18 0 -80 17q-64 19 -91 23q0 -77 63 -128q-24 -21 -40 -82t-16 -121h-39q0 57 -18 120q-16 63 -40 83q63 51 63 128q-28 -4 -90 -23q-60 -17 -78 -17q-56 0 -56 56t56 56q18 0 78 -17
q62 -17 91 -23q-1 84 -63 137q61 49 63 121q-26 -4 -91 -22q-60 -17 -78 -17q-56 0 -56 56t56 56q20 0 78 -18q66 -19 90 -22q-1 38 -22 116q-19 72 -19 90q0 56 56 56t56 -56q0 -15 -20 -90q-21 -78 -22 -116q23 4 89 22q58 18 80 18q56 0 56 -56t-56 -56q-20 0 -80 17
q-66 19 -90 22q0 -70 63 -121z" />
    <glyph glyph-name="bullet" unicode="&#x2022;" horiz-adv-x="365" 
d="M60 324q0 53 34.5 88t87.5 35q52 0 87 -35q36 -34 36 -88t-35.5 -89t-87.5 -35q-53 0 -87.5 35t-34.5 89z" />
    <glyph glyph-name="ellipsis" unicode="&#x2026;" horiz-adv-x="785" 
d="M81 8q-21 21 -21 51t21 51q21 22 51 22t50 -22q21 -21 21 -51t-21 -51q-20 -20 -50 -20t-51 20zM392 132q30 0 51 -21.5t21 -51.5t-21 -50.5t-51 -20.5q-29 0 -50 20.5t-21 50.5t21 51.5t50 21.5zM602 8q-20 21 -20 51t20 51q21 22 51 22t51 -22q21 -21 21 -51t-21 -51
q-21 -20 -51 -20t-51 20z" />
    <glyph glyph-name="perthousand" unicode="&#x2030;" horiz-adv-x="1144" 
d="M887 166q0 -77 13.5 -114t45.5 -37t46 37t14 114q0 78 -14 115t-46 37q-59 0 -59 -152zM89 380q-37 52 -37 130q0 79 37 129q37 52 108 52q70 0 107 -52q38 -52 38 -129t-38 -130q-38 -51 -107 -51q-71 0 -108 51zM528 166q0 -77 13.5 -114t45.5 -37t45.5 37t13.5 114
q0 152 -59 152t-59 -152zM479 36q-37 52 -37 130q0 79 37 129q37 52 108 52q70 0 107 -52q38 -52 38 -129t-38 -130q-38 -51 -107 -51q-71 0 -108 51zM675 677l-498 -677h-67l499 677h66zM802 166q0 80 37 130q37 51 107 51t107 -52q38 -52 38 -129q0 -80 -38.5 -130.5
t-106.5 -50.5q-67 0 -105.5 50.5t-38.5 130.5zM197 358q60 0 60 152t-60 152q-59 0 -59 -152t59 -152z" />
    <glyph glyph-name="guilsinglleft" unicode="&#x2039;" horiz-adv-x="330" 
d="M248 32l-206 223l206 223h47l-128 -223l128 -223h-47z" />
    <glyph glyph-name="guilsinglright" unicode="&#x203a;" horiz-adv-x="330" 
d="M35 478h46l206 -223l-206 -223h-46l128 223z" />
    <glyph glyph-name="fraction" unicode="&#x2044;" horiz-adv-x="784" 
d="M675 677l-498 -677h-67l499 677h66z" />
    <glyph glyph-name="Euro" unicode="&#x20ac;" horiz-adv-x="658" 
d="M591 250h38q-20 -153 -99 -213q-67 -52 -156 -52q-114 0 -197 71q-82 70 -103 207h-69v56h63q-1 7 -1 34q0 22 2 40h-64v55h71q23 135 103 211.5t200 76.5q97 0 157 -76l26 75h35l15 -284h-38q-30 140 -76 192q-45 53 -104 53q-66 0 -105 -53q-40 -53 -47 -195h258
l-24 -55h-237l-1 -15v-22q0 -27 2 -37h209l-23 -56h-183q22 -226 159 -226q77 0 122 52t67 161z" />
    <glyph glyph-name="afii61352" unicode="&#x2116;" horiz-adv-x="1145" 
d="M1095 72v-48h-272v48h272zM951 627q0 -31 -22 -53.5t-54 -22.5q-31 0 -53 22t-22 53q0 36 31 57q-3 1 -12 1q-71 0 -71 -125v-559h-47l-419 548h-4v-386q0 -82 -37 -129.5t-114 -47.5q-42 0 -71 32t-29 78q0 31 22 53.5t54 22.5q31 0 53 -22t22 -53q0 -38 -31 -57
q10 -2 12 -2q32 0 52 35t20 90v458q0 37 -11.5 50t-40.5 13h-56v39h233l341 -463h4v300q0 82 36.5 129.5t113.5 47.5q42 0 71 -31.5t29 -77.5zM857 174q-33 50 -33 124q0 75 33 123q34 49 101 49t100 -49q34 -47 34 -123q0 -75 -34 -124q-33 -48 -100 -48q-66 0 -101 48z
M958 450q-58 0 -58 -152t58 -152t58 152t-58 152z" />
    <glyph glyph-name="trademark" unicode="&#x2122;" horiz-adv-x="1214" 
d="M57 722h427l12 -158h-35q-20 78 -35 100q-16 24 -42 24h-33q-11 0 -15 -8.5t-4 -35.5v-246q0 -23 7.5 -32t28.5 -9h31v-34h-257v34h32q21 0 27.5 10t6.5 40v246q0 21 -3.5 28t-13.5 7h-33q-28 0 -44 -24q-15 -20 -35 -100h-33zM1164 357v-34h-262v34h39q21 0 28.5 9
t7.5 32v288h-4l-151 -367h-34l-139 367h-6v-288q0 -22 7.5 -31.5t27.5 -9.5h40v-34h-174v34h30q21 0 28 8.5t7 32.5v249q0 24 -7 32.5t-28 8.5h-30v34h223l88 -233l96 233h213v-34h-29q-22 0 -28.5 -11t-6.5 -42v-237q0 -23 7.5 -32t27.5 -9h29z" />
    <glyph glyph-name="Omega" unicode="&#x2126;" horiz-adv-x="830" 
d="M375 130v-130h-300l-27 198h39q16 -53 24.5 -73t23.5 -32q17 -13 32 -14q10 -1 52 -1h56q28 0 28 25v18q-115 25 -176.5 100.5t-61.5 197.5q0 152 92.5 234.5t256.5 82.5q166 0 258 -82t92 -235q0 -244 -237 -298v-18q0 -14 6.5 -19.5t21.5 -5.5h56q31 0 40.5 0.5t21 3.5
t21.5 11q15 11 23 29t21 62q3 9 4 14h39l-26 -198h-300v130q137 48 137 289q0 278 -178 278q-177 0 -177 -278q0 -241 138 -289z" />
    <glyph glyph-name="partialdiff" unicode="&#x2202;" horiz-adv-x="579" 
d="M199 597q0 -17 -13 -30.5t-32 -13.5q-20 0 -34 14t-14 35q0 40 39.5 67t111.5 27q121 0 204 -89t83 -265q0 -135 -67 -241q-34 -54 -94.5 -85t-137.5 -31q-97 0 -153.5 53.5t-56.5 141.5q0 132 63 212q64 79 177 79q107 0 137 -69q-2 119 -46.5 185.5t-126.5 66.5
q-40 0 -64 -21q24 -13 24 -36zM252 25q44 0 80 46q70 92 70 218q0 129 -81 129q-48 0 -84 -45q-66 -83 -66 -223q0 -66 19.5 -95.5t61.5 -29.5z" />
    <glyph glyph-name="increment" unicode="&#x2206;" horiz-adv-x="716" 
d="M673 0h-631v43l284 693h64l283 -693v-43zM565 86l-207 516l-207 -516h414z" />
    <glyph glyph-name="product" unicode="&#x220f;" horiz-adv-x="886" 
d="M846 39v-39h-353v39h42q29 0 40.5 13t11.5 50v536q0 27 -7.5 36t-29.5 9h-213q-22 0 -29.5 -9t-7.5 -36v-536q0 -37 11.5 -50t40.5 -13h41v-39h-353v39h41q29 0 40.5 13t11.5 50v518q0 37 -11.5 50t-40.5 13h-41v39h806v-39h-42q-29 0 -40 -13t-11 -50v-518q0 -37 11 -50
t40 -13h42z" />
    <glyph glyph-name="summation" unicode="&#x2211;" horiz-adv-x="704" 
d="M40 39l244 333l-244 311v39h588l16 -241h-39q-18 104 -49 157q-12 21 -31 31q-27 14 -71 14h-169q-57 0 -57 -14q0 -9 33 -49l196 -248l-196 -270q-20 -26 -18 -35q0 -13 14.5 -20.5t35.5 -7.5h168q35 0 55 3q17 3 45 26q42 47 68 205h39l-18 -273h-610v39z" />
    <glyph glyph-name="minus" unicode="&#x2212;" horiz-adv-x="578" 
d="M508 361v-63h-438v63h438z" />
    <glyph glyph-name="radical" unicode="&#x221a;" horiz-adv-x="649" 
d="M337 136l117 631h164v-79h-103l-142 -705h-55l-197 405l-60 -30l-26 63l131 64z" />
    <glyph glyph-name="infinity" unicode="&#x221e;" horiz-adv-x="693" 
d="M163 232q26 0 62 24t64 58q-28 34 -64 58t-62 24q-40 0 -64.5 -24t-24.5 -58t24.5 -58t64.5 -24zM331 259q-28 -31 -45 -47q-21 -20 -55 -34.5t-68 -14.5q-70 0 -114 44q-42 43 -42 107t42 107q43 45 114 45q38 0 70 -16q34 -16 53 -34q18 -15 45 -47q27 32 45 47
q21 20 55 35t68 15q71 0 114 -45q43 -43 43 -107t-43 -107q-42 -44 -114 -44q-37 0 -71 15q-21 10 -38 23t-26.5 23zM499 396q-26 0 -62 -24t-64 -58q28 -34 64 -58t62 -24q40 0 64.5 24t24.5 58t-24.5 58t-64.5 24z" />
    <glyph glyph-name="integral" unicode="&#x222b;" horiz-adv-x="505" 
d="M106 -90q42 0 58 27.5t16 85.5q0 62 -13 215q-13 155 -13 229q0 122 41 212q50 104 169 104q124 0 124 -91q0 -26 -16.5 -45t-41.5 -19q-29 0 -45.5 17.5t-16.5 46.5q0 26 19 45q-33 0 -53 -35t-20 -90q0 -64 13 -214t13 -222q0 -102 -41 -194q-22 -48 -63 -78.5
t-94 -33.5q-44 0 -85 25q-42 24 -42 71q0 25 17.5 44t41.5 19q26 0 43.5 -18.5t17.5 -44.5q0 -36 -29 -56z" />
    <glyph glyph-name="approxequal" unicode="&#x2248;" horiz-adv-x="572" 
d="M390 399q51 0 93 63l45 -31q-38 -55 -72 -75q-32 -19 -82 -19q-32 -1 -70.5 18t-71 37.5t-49.5 17.5q-51 0 -93 -63l-45 32q37 53 71 73q35 20 83 20q31 1 68.5 -18t70.5 -37.5t52 -17.5zM390 216q51 0 93 63l45 -32q-38 -55 -72 -74q-32 -19 -82 -19q-32 -1 -70.5 18
t-71 37.5t-49.5 17.5q-51 0 -93 -63l-45 31q36 53 71 74q35 20 83 20q31 1 68.5 -18t70.5 -37.5t52 -17.5z" />
    <glyph glyph-name="notequal" unicode="&#x2260;" horiz-adv-x="578" 
d="M191 100l-54 34l43 71h-110v63h147l75 122h-222v63h260l65 106l56 -33l-45 -73h102v-63h-140l-74 -122h214v-63h-253z" />
    <glyph glyph-name="lessequal" unicode="&#x2264;" horiz-adv-x="578" 
d="M508 96v-63h-438v63h438zM508 232v-68l-438 183v26l438 183v-68l-303 -128z" />
    <glyph glyph-name="greaterequal" unicode="&#x2265;" horiz-adv-x="578" 
d="M508 96v-63h-438v63h438zM508 373v-26l-438 -183v68l303 128l-303 128v68z" />
    <glyph glyph-name="lozenge" unicode="&#x25ca;" horiz-adv-x="582" 
d="M265 722h51l205 -361l-205 -361h-51l-204 361zM141 361l149 -265l151 265l-151 265z" />
    <glyph glyph-name="NULL" horiz-adv-x="0" 
 />
    <glyph glyph-name="CR" horiz-adv-x="333" 
 />
    <glyph glyph-name="afii10072.alt" horiz-adv-x="882" 
d="M371 85v132h-43q-56 0 -72 -81l-8 -42.5t-11 -37t-19.5 -37.5t-30.5 -21.5t-47 -10.5q-70 0 -93 29q-22 28 -22 94h33q1 -34 7 -55q4 -11 11.5 -15t16.5 3t15 26q11 31 18 67q9 38 40 72q33 36 83 43q-15 80 -45 128t-67 48q18 -12 18 -39q0 -19 -15.5 -34t-40.5 -15
q-24 0 -40.5 18t-16.5 42q0 35 23 53.5t58 18.5q63 0 106.5 -57t62.5 -157h79v116q0 27 -8 36.5t-31 9.5h-28v39h274v-39h-28q-23 0 -31 -9.5t-8 -36.5v-116h79q19 100 62.5 157t106.5 57q36 0 59 -18t23 -54q0 -24 -17 -42t-41 -18q-25 0 -40.5 15t-15.5 34q0 27 18 39
q-38 0 -67 -48.5t-44 -127.5q35 -5 61 -23t38.5 -41.5t21.5 -49.5t13.5 -48t12 -36t17.5 -14q14 0 19 15t7 56h33q0 -65 -23 -94t-92 -29q-80 0 -102 81q-3 11 -7.5 33.5l-7 35.5t-9 30.5t-14 26.5t-20 16t-28.5 7h-43v-132q0 -27 8 -36.5t31 -9.5h28v-39h-274v39h28
q24 0 31.5 9.5t7.5 36.5z" />
    <glyph glyph-name="afii10076.alt" horiz-adv-x="624" 
d="M376 253q44 -8 74 -32t42 -56q8 -22 15.5 -57t13.5 -52t17 -17q28 0 31 71h33q0 -124 -101 -124q-87 0 -111 82q-3 11 -9 39.5t-10.5 42.5t-13.5 32.5t-23 26.5t-34 8h-55v-132q0 -27 8 -36.5t31 -9.5h38v-39h-294v39h38q23 0 31 9.5t8 36.5v288q0 27 -8 36.5t-31 9.5
h-38v39h294v-39h-38q-23 0 -31 -9.5t-8 -36.5v-116h88q18 99 64 156.5t110 57.5q36 0 58.5 -18t22.5 -54q0 -24 -17 -42t-41 -18q-25 0 -40 15t-15 34q0 27 17 39q-41 -4 -72 -51t-44 -123z" />
    <glyph glyph-name="afii10024.alt" horiz-adv-x="1122" 
d="M1064 182h38q-3 -96 -31 -142.5t-90 -46.5q-50 0 -83.5 20t-49.5 52t-25.5 70.5t-16 77t-16 70.5t-31 52t-55.5 20h-59v-253q0 -37 11.5 -50t40.5 -13h48v-39h-368v39h49q29 0 40.5 13t11.5 50v253h-59q-76 0 -105 -128q-8 -39 -25 -106q-15 -57 -52.5 -92.5t-95.5 -35.5
q-62 0 -90 46.5t-31 142.5h38q2 -57 15.5 -90t34.5 -33q12 0 19.5 8.5t12.5 25t8.5 34.5l8.5 44.5t11 46.5q41 163 184 176q-86 291 -177 291q-9 0 -15 -2q31 -22 31 -51q0 -30 -19.5 -48t-52.5 -18q-29 0 -50 23t-21 54q0 37 25.5 65t71.5 28q79 0 136 -64q25 -29 47 -76
q26 -54 38 -91q13 -35 36 -109h76v224q0 37 -11.5 50t-40.5 13h-49v39h368v-39h-48q-30 0 -41 -12.5t-11 -50.5v-224h74l35 110q15 40 39 90t47 76q57 64 137 64q45 0 71 -28t26 -65q0 -31 -21 -54t-50 -23q-33 0 -52.5 18t-19.5 48q0 28 30 51q-6 2 -14 2q-45 0 -91 -75.5
t-87 -216.5q56 -4 97 -33q36 -24 54 -57.5t33 -84.5q6 -21 12 -47.5t9 -44.5t8.5 -34.5t13 -24.5t19.5 -8q21 0 34 33t15 90z" />
    <glyph glyph-name="afii10028.alt" horiz-adv-x="830" 
d="M769 182h39q-5 -101 -40 -146.5t-113 -45.5q-53 0 -87 27q-21 17 -36.5 45t-21.5 47.5t-18 62.5q-2 6 -7.5 30t-7.5 31l-8 27t-9.5 27l-10.5 21.5t-14.5 20t-17 13.5t-21 10.5t-25.5 2.5h-71v-253q0 -37 11.5 -50t40.5 -13h41v-39h-353v39h41q30 0 41 12.5t11 50.5v518
q0 37 -11.5 50t-40.5 13h-41v39h353v-39h-41q-30 0 -41 -12.5t-11 -50.5v-224h95q40 149 97 238q67 102 181 102q50 0 78 -27.5t28 -66.5q0 -33 -22.5 -58.5t-53.5 -25.5q-34 0 -54.5 20t-20.5 53q0 29 24 45q-7 3 -16 3q-50 0 -102 -76q-52 -77 -84 -210q141 1 194 -167
q8 -21 15.5 -49t13 -46.5t12 -36t15 -26.5t20.5 -9q21 0 34 33.5t15 89.5z" />
    <glyph glyph-name="zero.alt" horiz-adv-x="658" 
d="M114 53q-73 69 -73 176q0 108 73 175q74 68 215 68q140 0 214 -68t74 -175t-74 -176q-74 -68 -214 -68q-141 0 -215 68zM237 380q-32 -53 -32 -151t32 -151q33 -53 92 -53t91 53q33 52 33 151t-33 151q-32 53 -91 53t-92 -53z" />
    <glyph glyph-name="one.alt" horiz-adv-x="560" 
d="M335 472h33v-358q0 -44 13 -59.5t49 -15.5h66v-39h-409v39h66q37 0 49.5 14.5t12.5 60.5v158q0 33 -5.5 45.5t-21.5 12.5q-1 0 -8 -1t-12 -1l-73 -12v39q130 30 175 54q46 24 65 63z" />
    <glyph glyph-name="two.alt" horiz-adv-x="658" 
d="M563 187h31l-20 -187h-507v39q177 81 253 139q81 60 81 129q0 54 -34 86.5t-93 32.5q-44 0 -79 -22t-44 -53q1 0 6 0.5t7 0.5q27 0 48 -17t21 -43q0 -30 -19 -47t-52 -17q-72 0 -72 86q0 43 21.5 76.5t57.5 49.5q67 32 149 32q63 0 117 -16q56 -15 96 -52q41 -38 41 -88
q0 -57 -38 -95q-13 -15 -45 -32q-23 -14 -52 -25l-63 -22q-115 -39 -115 -43q0 -6 17 -6h197q37 0 51 14q13 15 39 80z" />
    <glyph glyph-name="three.alt" horiz-adv-x="659" 
d="M582 -12q0 -86 -76 -138q-77 -53 -190 -53q-72 0 -145 30q-39 16 -62 52t-23 84q0 27 20 47.5t47 20.5t47 -19.5t20 -46.5q0 -26 -17.5 -42.5t-42.5 -16.5q-8 0 -10 1q11 -32 48.5 -49.5t87.5 -17.5q64 0 103.5 39t39.5 109q0 140 -115 140q-11 0 -38 -4q-29 -3 -44 -3
q-9 0 -16.5 7.5t-7.5 19.5t7 19.5t17 7.5q13 0 41 -4q31 -3 41 -3q48 0 74.5 36.5t26.5 107.5q0 117 -125 117q-46 0 -84 -20t-53 -55q2 1 11 1q30 0 48 -17.5t18 -44.5t-20 -46.5t-48 -19.5q-26 0 -46 19.5t-20 46.5q0 101 80 143q71 36 155 36q109 0 170.5 -41.5
t61.5 -116.5q0 -61 -45 -104t-128 -58q95 -12 143.5 -54t48.5 -110z" />
    <glyph glyph-name="four.alt" horiz-adv-x="658" 
d="M484 0v-150l-134 -38h-17v188h-302v41l421 431h32v-401h130v-71h-130zM333 71v236l-216 -236h216z" />
    <glyph glyph-name="five.alt" horiz-adv-x="659" 
d="M582 19q0 -104 -75 -163t-207 -59q-70 0 -140 30q-38 16 -60.5 51t-22.5 82q0 28 21 50.5t48 22.5q26 0 43.5 -19.5t17.5 -44.5q0 -31 -16.5 -50.5t-45.5 -20.5q42 -58 140 -58q69 0 106.5 46.5t37.5 130.5q0 86 -38 129t-102 43q-84 0 -127 -49q0 -25 -10.5 -40.5
t-26.5 -15.5q-14 0 -22.5 9.5t-8.5 22.5q0 23 28 50l25 302q124 -28 268 -28q93 0 139 26l17 8q2 0 2 -2q0 -56 -59 -97t-154 -41q-84 0 -178 20l-15 -160q61 39 141 39q142 0 208 -62.5t66 -151.5z" />
    <glyph glyph-name="six.alt" horiz-adv-x="658" 
d="M601 209q0 -107 -77 -166q-76 -58 -193 -58q-139 0 -207 84q-67 85 -67 220q0 162 88 259q89 98 237 98q80 0 131 -36t51 -89q0 -33 -20.5 -53.5t-51.5 -20.5q-32 0 -48 19.5t-16 50.5q0 43 50 61q-28 33 -96 33q-172 0 -172 -292q53 86 161 86q116 0 173 -57
q57 -56 57 -139zM331 25q54 0 85.5 41.5t31.5 129.5q0 76 -29.5 118t-84.5 42q-56 0 -87.5 -47t-31.5 -124q0 -72 32 -116t84 -44z" />
    <glyph glyph-name="seven.alt" horiz-adv-x="658" 
d="M600 458v-39l-80 -126l-55 -93q-28 -49 -41 -81q-5 -13 -23 -66q-16 -56 -21 -159q-5 -97 -81 -97q-86 0 -86 100q0 109 105 241q50 63 195 212h-328q-15 -2 -21 -2.5t-15 -6.5t-12 -11.5t-10.5 -24.5t-12 -37t-15.5 -57h-39l29 247h511z" />
    <glyph glyph-name="eight.alt" horiz-adv-x="635" 
d="M554 499q0 -47 -33 -78.5t-109 -58.5q85 -34 128.5 -77t43.5 -104q0 -92 -85 -144q-83 -52 -201 -52q-116 0 -181.5 43.5t-65.5 119.5q0 49 34 86.5t112 69.5q-63 31 -92.5 67.5t-29.5 92.5q0 85 75 133q74 49 190 49q99 0 156.5 -39t57.5 -108zM438 127q0 51 -45 79
q-24 16 -44 24q-21 10 -57 24l-57 26q-54 -35 -75.5 -61.5t-21.5 -66.5q0 -59 43 -93t118 -34q64 0 101.5 28t37.5 74zM208 501q0 -34 31 -61q8 -8 38 -23q29 -13 42 -18l52 -18q51 34 73.5 60.5t22.5 58.5q0 47 -36 77t-94 30q-56 0 -92.5 -27t-36.5 -79z" />
    <glyph glyph-name="nine.alt" horiz-adv-x="658" 
d="M57 234q0 107 77 166q76 58 193 58q139 0 206 -85q68 -85 68 -219q0 -162 -88 -259q-89 -98 -236 -98q-81 0 -133 36q-51 35 -51 89q0 29 19 48.5t44 19.5q31 0 52.5 -17.5t21.5 -44.5q0 -49 -47 -64q34 -31 94 -31q171 0 171 291q-51 -86 -161 -86q-116 0 -173 57
t-57 139zM327 419q-54 0 -85.5 -42t-31.5 -130q0 -75 30 -117.5t84 -42.5q56 0 88 47t32 124q0 72 -32.5 116.5t-84.5 44.5z" />
    <glyph glyph-name="commaaccent" horiz-adv-x="270" 
d="M210 -155q0 -51 -38 -101q-38 -52 -93 -77l-16 22q75 53 75 105q0 9 -1 12q-33 0 -55 19t-22 50q0 30 21 51.5t51 21.5q37 0 57.5 -29.5t20.5 -73.5z" />
    <glyph glyph-name="afii10017small" horiz-adv-x="650" 
d="M416 79l-30 64h-221l-20 -45q-10 -21 -10 -37q0 -29 43 -29h29v-32h-202v32h14q47 0 81 66l196 396h69l206 -415q23 -47 64 -47h10v-32h-296v32h42q34 0 34 18q0 13 -9 29zM370 180l-89 199l-97 -199h186z" />
    <glyph glyph-name="afii10018small" horiz-adv-x="621" 
d="M349 242h-77v-163q0 -45 24 -45h53q40 0 63 29.5t23 73.5q0 47 -22 76t-64 29zM372 0h-332v32h31q25 0 35.5 8.5t10.5 29.5v335q0 27 -10.5 37t-35.5 10h-31v32h492l9 -162h-36q-17 72 -45.5 101t-72.5 29h-69q-25 0 -35.5 -8.5t-10.5 -31.5v-138h100q102 0 160.5 -36
t58.5 -101q0 -64 -59.5 -100.5t-159.5 -36.5z" />
    <glyph glyph-name="afii10019small" horiz-adv-x="635" 
d="M601 137q0 -64 -59.5 -100.5t-159.5 -36.5h-342v32h31q25 0 35.5 10t10.5 37v326q0 27 -10.5 37t-35.5 10h-31v32h317q103 0 159.5 -31.5t56.5 -89.5q0 -40 -43 -70t-115 -39q88 -5 137 -36.5t49 -80.5zM446 137q0 42 -27.5 69t-75.5 27h-71v-158q0 -25 8.5 -34t30.5 -9
h49q40 0 63 30t23 75zM419 358q0 94 -92 94h-25q-30 0 -30 -32v-155h66q37 0 59 27t22 66z" />
    <glyph glyph-name="afii10020small" horiz-adv-x="572" 
d="M385 452h-75q-24 0 -31 -8.5t-7 -38.5v-326q0 -27 10.5 -37t35.5 -10h31v-32h-309v32h31q25 0 35.5 10t10.5 37v326q0 27 -10.5 37t-35.5 10h-31v32h500l10 -189h-36q-20 94 -51 125q-32 32 -78 32z" />
    <glyph glyph-name="afii10021small" horiz-adv-x="706" 
d="M418 65v353q0 21 -6.5 27.5t-24.5 6.5h-97q-41 0 -41 -47q0 -175 -45 -303q-18 -44 -47 -70h230q18 0 24.5 6.5t6.5 26.5zM658 32l9 -161h-36q-17 73 -44.5 101t-72.5 28h-334q-48 0 -77 -25q-30 -27 -46 -104h-36l10 161h65q48 17 77 111.5t29 261.5q0 26 -13 36.5
t-40 10.5h-31v32h533v-32h-31q-25 0 -35.5 -10t-10.5 -37v-332q0 -23 10.5 -32t35.5 -9h38z" />
    <glyph glyph-name="afii10022small" horiz-adv-x="623" 
d="M389 452h-81q-22 0 -30 -9.5t-8 -37.5v-139h52q41 0 61 20.5t20 72.5h35v-218h-35q0 52 -20 72.5t-61 20.5h-52v-155q0 -27 10.5 -37t35.5 -10h83q36 0 50 3t31 16q31 24 56 133h36l-15 -184h-519v32h31q25 0 35.5 10t10.5 37v326q0 27 -10.5 37t-35.5 10h-31v32h501
l14 -163h-36q-22 93 -56 114q-25 17 -72 17z" />
    <glyph glyph-name="afii10024small" horiz-adv-x="964" 
d="M294 267l-123 132q-50 53 -116 53h-20v32h240v-32h-31q-34 0 -34 -19q0 -11 21 -34l114 -130h59v136q0 27 -10.5 37t-35.5 10h-38v32h324v-32h-38q-25 0 -35.5 -9t-10.5 -32v-142h58l114 130q21 23 21 34q0 19 -34 19h-31v32h240v-32h-20q-66 0 -116 -53l-123 -132
q138 -12 159 -147q8 -36 16.5 -53.5t24.5 -17.5q34 0 39 81h36q-5 -74 -31.5 -105t-89.5 -31q-52 0 -84 23.5t-42 61.5q-3 13 -7.5 35t-8 36t-10 32t-14.5 28t-22 17.5t-33 7.5h-42v-156q0 -27 10.5 -37t35.5 -10h38v-32h-324v32h38q26 0 36 8.5t10 31.5v163h-43
q-62 0 -78 -85q-5 -34 -10.5 -54.5t-20 -47.5t-42.5 -40.5t-69 -13.5q-64 0 -91 32t-30 104h35q-1 -56 27 -76q23 -16 37 12q0 1 1 3q6 13 16.5 52t19.5 61q14 33 50 56.5t88 28.5z" />
    <glyph glyph-name="afii10025small" horiz-adv-x="548" 
d="M515 132q0 -64 -76 -103q-77 -39 -178 -39q-229 0 -229 137q0 23 18 38.5t43 15.5q26 0 44 -16t18 -38q0 -24 -18.5 -38.5t-47.5 -14.5q40 -49 151 -49q51 0 84.5 31.5t33.5 79.5q0 49 -26.5 74.5t-73.5 25.5q-26 0 -78 -6v43q48 -5 78 -5q81 0 81 102q0 42 -25 66
t-68 24q-56 0 -93 -34t-56 -114h-36l10 181h32l19 -39q56 39 157 39q212 0 212 -125q0 -42 -40 -73t-110 -40q84 -9 129 -41.5t45 -81.5z" />
    <glyph glyph-name="afii10026small" horiz-adv-x="779" 
d="M739 32v-32h-303v32h29q23 0 32.5 10t9.5 37v246l-235 -232v-14q0 -27 9.5 -37t33.5 -10h29v-32h-304v32h31q25 0 35.5 10t10.5 37v326q0 27 -10.5 37t-35.5 10h-31v32h304v-32h-29q-24 0 -33.5 -10t-9.5 -37v-246l235 233v13q0 27 -9.5 37t-32.5 10h-29v32h303v-32h-31
q-25 0 -35.5 -10t-10.5 -37v-326q0 -27 10.5 -37t35.5 -10h31z" />
    <glyph glyph-name="afii10027small" horiz-adv-x="779" 
d="M739 32v-32h-307v32h30q25 0 35 10t10 37v246l-235 -232v-14q0 -27 9.5 -37t33.5 -10h29v-32h-304v32h31q25 0 35.5 10t10.5 37v326q0 27 -10.5 37t-35.5 10h-31v32h304v-32h-29q-24 0 -33.5 -10t-9.5 -37v-246l235 233v13q0 27 -10 37t-35 10h-30v32h307v-32h-31
q-25 0 -35.5 -10t-10.5 -37v-326q0 -27 10.5 -37t35.5 -10h31zM465 561q-40 7 -40 46q0 18 15.5 32t36.5 14q24 0 40 -15.5t16 -36.5q0 -89 -164 -89t-164 89q0 21 16 36.5t40 15.5q21 0 36.5 -14t15.5 -32q0 -39 -40 -46q25 -19 96 -19t96 19z" />
    <glyph glyph-name="afii10028small" horiz-adv-x="720" 
d="M663 130h35q-4 -73 -34.5 -105t-100.5 -32q-51 0 -84.5 23.5t-47.5 61.5q-4 12 -13 42t-15 44.5t-17.5 34t-28 28t-39.5 8.5h-46v-157q0 -26 10.5 -36t35.5 -10h31v-32h-309v32h31q25 0 35.5 9t10.5 35v329q0 27 -10.5 37t-35.5 10h-31v32h309v-32h-31q-25 0 -35.5 -9.5
t-10.5 -35.5v-138h72l134 130q21 19 21 34q0 19 -34 19h-31v32h242v-32h-20q-58 0 -116 -53l-143 -131q55 -6 94.5 -31t56.5 -58q12 -21 26 -57.5t24.5 -54.5t25.5 -18q16 0 26.5 22.5t12.5 58.5z" />
    <glyph glyph-name="afii10029small" horiz-adv-x="708" 
d="M668 32v-32h-310v32h32q24 0 34.5 8.5t10.5 29.5v351q0 19 -6.5 25t-24.5 6h-90q-41 0 -41 -47q0 -204 -34 -306q-36 -109 -141 -109q-38 0 -63 23.5t-25 57.5q0 26 20 43.5t49 17.5q28 0 47.5 -17t19.5 -41q0 -22 -17 -42q13 0 26 12t26 40t23 69.5t16 106.5t6 145
q0 26 -13 36.5t-40 10.5h-31v32h526v-32h-31q-25 0 -35.5 -8t-10.5 -31v-334q0 -27 10.5 -37t35.5 -10h31z" />
    <glyph glyph-name="afii10030small" horiz-adv-x="895" 
d="M623 79v373h-4l-210 -452h-36l-209 452h-4v-370q0 -50 53 -50h24v-32h-201v32h24q24 0 38.5 13.5t14.5 37.5v322q0 27 -10.5 37t-35.5 10h-31v32h278l133 -287l136 287h272v-32h-31q-25 0 -35.5 -10t-10.5 -37v-326q0 -27 10.5 -37t35.5 -10h31v-32h-309v32h31
q25 0 35.5 10t10.5 37z" />
    <glyph glyph-name="afii10031small" horiz-adv-x="768" 
d="M728 32v-32h-304v32h30q23 0 32.5 10t9.5 37v152h-224v-152q0 -27 9.5 -37t33.5 -10h29v-32h-304v32h31q25 0 35.5 10t10.5 37v326q0 27 -10.5 37t-35.5 10h-31v32h304v-32h-29q-24 0 -33.5 -10t-9.5 -37v-130h224v130q0 27 -9.5 37t-32.5 10h-30v32h304v-32h-31
q-25 0 -35.5 -10t-10.5 -37v-326q0 -27 10.5 -37t35.5 -10h31z" />
    <glyph glyph-name="afii10032small" horiz-adv-x="678" 
d="M559 422q78 -70 78 -180q0 -109 -78 -181q-79 -71 -220 -71t-220 71q-78 72 -78 181q0 110 78 180q79 71 220 71t220 -71zM339 461q-138 0 -138 -219t138 -219q137 0 137 219t-137 219z" />
    <glyph glyph-name="afii10033small" horiz-adv-x="768" 
d="M728 32v-32h-304v32h30q24 0 33 9.5t9 37.5v342q0 19 -6.5 25t-24.5 6h-161q-18 0 -25 -6.5t-7 -24.5v-342q0 -27 9.5 -37t33.5 -10h29v-32h-304v32h31q25 0 35.5 10t10.5 37v326q0 27 -10.5 37t-35.5 10h-31v32h688v-32h-31q-25 0 -35.5 -10t-10.5 -37v-326
q0 -27 10.5 -37t35.5 -10h31z" />
    <glyph glyph-name="afii10034small" horiz-adv-x="614" 
d="M434 345q0 39 -26 73q-25 34 -71 34h-30q-19 0 -27 -10t-8 -37v-168h64q42 0 70 31.5t28 76.5zM589 345q0 -66 -59.5 -103.5t-161.5 -37.5h-96v-125q0 -27 10.5 -37t35.5 -10h31v-32h-309v32h31q25 0 35.5 9t10.5 32v332q0 27 -10.5 37t-35.5 10h-31v32h328
q102 0 161.5 -37t59.5 -102z" />
    <glyph glyph-name="afii10035small" horiz-adv-x="601" 
d="M528 168h37q-18 -105 -97 -145q-66 -33 -143 -33q-122 0 -203 60t-81 181q0 123 78 192q77 70 208 70q94 0 152 -50l25 50h32l16 -194h-36q-44 161 -172 161q-68 0 -105.5 -46.5t-37.5 -176.5q0 -116 40 -160q41 -44 109 -44q69 0 115.5 34.5t62.5 100.5z" />
    <glyph glyph-name="afii10036small" horiz-adv-x="631" 
d="M590 484l16 -182h-37q-19 92 -42 120q-21 30 -59 30h-37q-24 0 -31 -8.5t-7 -38.5v-326q0 -27 10.5 -37t35.5 -10h31v-32h-310v32h31q25 0 35.5 10t10.5 37v326q0 29 -7.5 38t-29.5 9h-37q-39 0 -61 -30q-22 -29 -41 -120h-36l15 182h550z" />
    <glyph glyph-name="afii10037small" horiz-adv-x="638" 
d="M637 484v-32h-18q-38 0 -65 -44l-196 -334q-49 -84 -149 -84q-47 0 -81 24t-34 63q0 26 20 43.5t49 17.5q26 0 48 -14t22 -40q0 -13 -11.5 -29t-23.5 -20q15 -6 33 -6q52 0 86 61l-213 313q-33 49 -84 49h-15v32h319v-32h-35q-35 0 -35 -22q0 -11 13 -33l124 -189
l118 207q6 9 6 19q0 18 -26 18h-38v32h186z" />
    <glyph glyph-name="afii10038small" horiz-adv-x="789" 
d="M317 127v259q-69 0 -100.5 -27.5t-31.5 -100.5t32.5 -102t99.5 -29zM317 418v13q0 26 -10.5 36t-35.5 10h-31v33h309v-33h-31q-25 0 -35.5 -10t-10.5 -36v-13q280 0 281 -160q0 -79 -75 -120.5t-206 -41.5v-17q0 -26 10 -35.5t36 -9.5h31v-34h-309v34h31q26 0 36 9t10 36
v16q-131 0 -206 42t-75 121t74.5 119.5t206.5 40.5zM605 258q0 72 -32.5 100t-100.5 28v-259q67 0 100 29.5t33 101.5z" />
    <glyph glyph-name="afii10039small" horiz-adv-x="680" 
d="M664 32v-32h-325v32h43q28 0 28 12q0 10 -21 35l-96 121l-116 -129q-15 -13 -13 -26t26 -13h36v-32h-211v32h16q29 0 49.5 10t45.5 37l139 151l-144 175q-39 47 -76 47h-15v32h319v-32h-35q-29 0 -29 -12t19 -35l80 -101l101 112q32 36 -14 36h-30v32h204v-32h-15
q-54 0 -98 -47l-120 -131l161 -195q39 -47 77 -47h14z" />
    <glyph glyph-name="afii10040small" horiz-adv-x="783" 
d="M735 32l11 -161h-37q-16 78 -47 104q-29 25 -77 25h-545v32h31q25 0 35.5 10t10.5 37v326q0 27 -10.5 37t-35.5 10h-31v32h303v-32h-28q-24 0 -33.5 -10t-9.5 -37v-342q0 -18 7 -24.5t25 -6.5h161q18 0 24.5 6t6.5 25v342q0 27 -9.5 37t-32.5 10h-29v32h303v-32h-31
q-25 0 -35.5 -10t-10.5 -37v-326q0 -27 10.5 -37t35.5 -10h38z" />
    <glyph glyph-name="afii10041small" horiz-adv-x="703" 
d="M670 32v-32h-322v32h45q25 0 35.5 10t10.5 37v138q-71 -24 -162 -24q-96 0 -141.5 30t-45.5 102v80q0 27 -10.5 37t-36.5 10h-22v32h281v-32h-20q-21 0 -29 -10t-8 -37v-80q0 -50 23 -68.5t80 -18.5q34 0 91 12v155q0 27 -8 37t-29 10h-21v32h289v-32h-31
q-25 0 -35.5 -10t-10.5 -37v-326q0 -27 10.5 -37t35.5 -10h31z" />
    <glyph glyph-name="afii10042small" horiz-adv-x="1086" 
d="M1046 32v-32h-1006v32h31q25 0 35.5 10t10.5 37v326q0 27 -10.5 37t-35.5 10h-31v32h299v-32h-26q-41 0 -41 -47v-342q0 -18 7 -24.5t25 -6.5h130q18 0 24.5 6t6.5 25v342q0 27 -9.5 37t-31.5 10h-25v32h288v-32h-25q-41 0 -41 -47v-342q0 -19 6.5 -25t25.5 -6h129
q19 0 25.5 6t6.5 25v342q0 26 -10 36.5t-31 10.5h-25v32h298v-32h-31q-25 0 -35.5 -10t-10.5 -37v-326q0 -27 10.5 -37t35.5 -10h31z" />
    <glyph glyph-name="afii10043small" horiz-adv-x="1101" 
d="M1053 32l10 -161h-36q-16 78 -48 104q-29 25 -77 25h-862v32h31q25 0 35.5 10t10.5 37v326q0 27 -10.5 37t-35.5 10h-31v32h299v-32h-26q-22 0 -31.5 -10t-9.5 -37v-342q0 -18 7 -24.5t25 -6.5h130q18 0 24.5 6t6.5 25v342q0 27 -9.5 37t-31.5 10h-25v32h288v-32h-25
q-22 0 -31.5 -10t-9.5 -37v-342q0 -19 6.5 -25t25.5 -6h129q19 0 25.5 6t6.5 25v342q0 27 -9.5 37t-31.5 10h-25v32h298v-32h-31q-25 0 -35.5 -10t-10.5 -37v-326q0 -27 10.5 -37t35.5 -10h38z" />
    <glyph glyph-name="afii10044small" horiz-adv-x="702" 
d="M427 241h-66v-162q0 -47 36 -47h38q39 0 63 31t24 74q0 44 -26 74t-69 30zM458 0h-329v32h30q25 0 35.5 10t10.5 37v326q0 29 -6.5 38t-27.5 9h-29q-34 0 -59 -41.5t-37 -108.5h-36l15 182h427v-32h-45q-25 0 -35.5 -10t-10.5 -37v-131h93q103 0 163 -36t60 -101
q0 -64 -59.5 -100.5t-159.5 -36.5z" />
    <glyph glyph-name="afii10045small" horiz-adv-x="946" 
d="M369 0h-329v32h31q25 0 35.5 10t10.5 37v326q0 27 -10.5 37t-35.5 10h-31v32h323v-32h-45q-25 0 -35.5 -10t-10.5 -37v-131h94q103 0 162.5 -36t59.5 -101q0 -64 -59.5 -100.5t-159.5 -36.5zM906 32v-32h-309v32h31q25 0 35.5 10t10.5 37v326q0 27 -10.5 37t-35.5 10h-31
v32h309v-32h-31q-25 0 -35.5 -10t-10.5 -37v-326q0 -27 10.5 -37t35.5 -10h31zM433 137q0 43 -27 74t-71 31h-63v-163q0 -47 39 -47h39q38 0 60.5 30t22.5 75z" />
    <glyph glyph-name="afii10046small" horiz-adv-x="613" 
d="M369 0h-329v32h31q25 0 35.5 10t10.5 37v326q0 27 -10.5 37t-35.5 10h-31v32h323v-32h-45q-25 0 -35.5 -10t-10.5 -37v-131h100q102 0 159 -36t57 -101q0 -64 -59.5 -100.5t-159.5 -36.5zM340 242h-68v-163q0 -47 37 -47h39q54 -3 76 54q21 55 -4 107q-24 52 -80 49z" />
    <glyph glyph-name="afii10047small" horiz-adv-x="585" 
d="M544 231q0 -82 -44 -138q-78 -103 -250 -103q-91 0 -153 32q-61 33 -61 98q0 22 18 37.5t44 15.5t43.5 -15.5t17.5 -37.5q0 -53 -64 -53q33 -42 138 -42q147 0 151 202q-88 0 -200 -6v44l127 -3q47 -1 72 -1q-2 132 -43 168q-33 31 -94 31q-120 0 -165 -161h-36l12 194
h32l25 -49q59 49 146 49q131 0 207 -70q77 -69 77 -192z" />
    <glyph glyph-name="afii10048small" horiz-adv-x="997" 
d="M652 -10q-124 0 -204 66q-79 67 -85 168h-91v-145q0 -27 10.5 -37t35.5 -10h31v-32h-309v32h31q25 0 35.5 10t10.5 37v326q0 27 -10.5 37t-35.5 10h-31v32h309v-32h-31q-25 0 -35.5 -10t-10.5 -37v-136h92q10 97 88 160q79 64 200 64q132 0 217 -73q87 -74 87 -178
q0 -106 -87 -179q-85 -73 -217 -73zM652 459q-68 0 -99 -53.5t-31 -163.5t31.5 -163.5t98.5 -53.5q130 0 130 217t-130 217z" />
    <glyph glyph-name="afii10049small" horiz-adv-x="683" 
d="M342 254h69v151q0 26 -9 36.5t-29 10.5h-41q-40 0 -63.5 -27.5t-23.5 -70.5q0 -47 25 -73.5t72 -26.5zM643 32v-32h-304v32h29q23 0 33 8.5t10 29.5v151h-51q-56 0 -83 -81q-10 -32 -18 -51t-26 -45t-48 -38.5t-71 -12.5q-94 0 -102 117h35q2 -34 9 -47.5t23 -13.5
q19 0 44 78q12 34 51 64.5t95 41.5q-83 7 -131 39.5t-48 81.5q0 70 65 100t196 30h292v-32h-31q-24 0 -35 -9t-11 -30v-334q0 -27 10.5 -37t35.5 -10h31z" />
    <glyph glyph-name="afii10023small" horiz-adv-x="626" 
d="M355 567q0 20 16.5 34t38.5 14t38 -14t16 -34q0 -19 -16 -33t-38 -14t-38.5 14t-16.5 33zM176 567q0 20 16 34t38 14t38.5 -14t16.5 -34q0 -19 -16.5 -33t-38.5 -14t-38 14t-16 33zM389 452h-81q-22 0 -30 -9.5t-8 -37.5v-139h52q41 0 61 20.5t20 72.5h35v-218h-35
q0 52 -20 72.5t-61 20.5h-52v-155q0 -27 10.5 -37t35.5 -10h83q36 0 50 3t31 16q31 24 56 133h36l-15 -184h-519v32h31q25 0 35.5 10t10.5 37v326q0 27 -10.5 37t-35.5 10h-31v32h501l14 -163h-36q-22 93 -56 114q-25 17 -72 17z" />
    <glyph glyph-name="Asmall" horiz-adv-x="650" 
d="M416 79l-30 64h-221l-20 -45q-10 -21 -10 -37q0 -29 43 -29h29v-32h-202v32h14q47 0 81 66l196 396h69l206 -415q24 -47 64 -47h10v-32h-296v32h42q34 0 34 18q0 13 -9 29zM370 180l-89 199l-97 -199h186z" />
    <glyph glyph-name="Bsmall" horiz-adv-x="635" 
d="M601 137q0 -64 -59.5 -100.5t-159.5 -36.5h-342v32h31q25 0 35.5 10t10.5 37v326q0 27 -10.5 37t-35.5 10h-31v32h317q103 0 159.5 -31.5t56.5 -89.5q0 -40 -43 -70t-115 -39q88 -5 137 -36.5t49 -80.5zM446 137q0 42 -27.5 69t-75.5 27h-71v-158q0 -25 8.5 -34t30.5 -9
h49q40 0 63 30t23 75zM419 358q0 94 -92 94h-25q-30 0 -30 -32v-155h66q37 0 59 27t22 66z" />
    <glyph glyph-name="Csmall" horiz-adv-x="601" 
d="M528 168h37q-18 -105 -97 -145q-66 -33 -143 -33q-122 0 -203 60t-81 181q0 123 78 192q77 70 208 70q94 0 152 -50l25 50h32l16 -194h-36q-44 161 -172 161q-68 0 -105.5 -46.5t-37.5 -176.5q0 -116 40 -160q41 -44 109 -44q69 0 115.5 34.5t62.5 100.5z" />
    <glyph glyph-name="Esmall" horiz-adv-x="623" 
d="M389 452h-81q-22 0 -30 -9.5t-8 -37.5v-139h52q41 0 61 20.5t20 72.5h35v-218h-35q0 52 -20 72.5t-61 20.5h-52v-155q0 -27 10.5 -37t35.5 -10h83q36 0 50 3t31 16q31 24 56 133h36l-15 -184h-519v32h31q25 0 35.5 10t10.5 37v326q0 27 -10.5 37t-35.5 10h-31v32h501
l14 -163h-36q-22 93 -56 114q-25 17 -72 17z" />
    <glyph glyph-name="Fsmall" horiz-adv-x="580" 
d="M363 32v-32h-323v32h31q25 0 35.5 10t10.5 37v326q0 27 -10.5 37t-35.5 10h-31v32h501l14 -163h-35q-25 95 -59 114q-18 11 -31.5 14t-42.5 3h-76q-24 0 -31.5 -9t-7.5 -38v-139h52q41 0 61 20.5t20 72.5h35v-218h-35q0 52 -20 72.5t-61 20.5h-52v-155q0 -27 10.5 -37
t35.5 -10h45z" />
    <glyph glyph-name="Hsmall" horiz-adv-x="768" 
d="M728 32v-32h-304v32h30q23 0 32.5 10t9.5 37v152h-224v-152q0 -27 9.5 -37t33.5 -10h29v-32h-304v32h31q25 0 35.5 10t10.5 37v326q0 27 -10.5 37t-35.5 10h-31v32h304v-32h-29q-24 0 -33.5 -10t-9.5 -37v-130h224v130q0 27 -9.5 37t-32.5 10h-30v32h304v-32h-31
q-25 0 -35.5 -10t-10.5 -37v-326q0 -27 10.5 -37t35.5 -10h31z" />
    <glyph glyph-name="Ismall" horiz-adv-x="389" 
d="M272 405v-326q0 -27 10.5 -37t35.5 -10h31v-32h-309v32h31q25 0 35.5 10t10.5 37v326q0 27 -10.5 37t-35.5 10h-31v32h309v-32h-31q-25 0 -35.5 -10t-10.5 -37z" />
    <glyph glyph-name="Ksmall" horiz-adv-x="718" 
d="M705 32v-32h-299v32h27q22 0 22 12q0 10 -17 35l-106 149l-60 -44v-105q0 -27 8.5 -37t28.5 -10h26v-32h-295v32h31q25 0 35.5 10t10.5 37v326q0 27 -10.5 37t-35.5 10h-31v32h309v-32h-31q-25 0 -35.5 -10t-10.5 -37v-174l202 159q33 26 33 41q0 21 -34 21h-31v32h242
v-32h-20q-59 0 -131 -63l-85 -73l169 -237q35 -47 76 -47h12z" />
    <glyph glyph-name="Lsmall" horiz-adv-x="585" 
d="M524 197h36l-17 -197h-511v32h31q25 0 35.5 10t10.5 37v326q0 27 -10.5 37t-35.5 10h-31v32h316v-32h-38q-25 0 -35.5 -10t-10.5 -37v-326q0 -27 10.5 -37t35.5 -10h75q44 0 75 25q40 31 64 140z" />
    <glyph glyph-name="Msmall" horiz-adv-x="895" 
d="M623 79v373h-4l-210 -452h-36l-209 452h-4v-370q0 -50 53 -50h24v-32h-201v32h24q24 0 38.5 13.5t14.5 37.5v322q0 27 -10.5 37t-35.5 10h-31v32h278l133 -287l136 287h272v-32h-31q-25 0 -35.5 -10t-10.5 -37v-326q0 -27 10.5 -37t35.5 -10h31v-32h-309v32h31
q25 0 35.5 10t10.5 37z" />
    <glyph glyph-name="Osmall" horiz-adv-x="678" 
d="M559 422q78 -70 78 -180q0 -109 -78 -181q-79 -71 -220 -71t-220 71q-78 72 -78 181q0 110 78 180q79 71 220 71t220 -71zM339 461q-138 0 -138 -219t138 -219q137 0 137 219t-137 219z" />
    <glyph glyph-name="Psmall" horiz-adv-x="614" 
d="M434 345q0 39 -26 73q-25 34 -71 34h-30q-19 0 -27 -10t-8 -37v-168h64q42 0 70 31.5t28 76.5zM589 345q0 -66 -59.5 -103.5t-161.5 -37.5h-96v-125q0 -27 10.5 -37t35.5 -10h31v-32h-309v32h31q25 0 35.5 9t10.5 32v332q0 27 -10.5 37t-35.5 10h-31v32h328
q102 0 161.5 -37t59.5 -102z" />
    <glyph glyph-name="Rsmall" horiz-adv-x="685" 
d="M617 110h35q-4 -67 -29.5 -92t-84.5 -25q-103 0 -121 92q-13 68 -29 100q-21 43 -74 43h-42v-150q0 -26 9 -36t30 -10h31v-32h-302v32h31q25 0 35.5 10t10.5 36v327q0 27 -10.5 37t-35.5 10h-31v32h332q105 0 163.5 -32.5t58.5 -94.5q0 -48 -49 -79.5t-134 -38.5
q99 -13 134 -103q5 -13 12 -40t12.5 -37t14.5 -10q29 0 33 61zM349 452h-41q-21 0 -28.5 -10t-7.5 -37v-145h66q48 0 73.5 25.5t25.5 71.5q0 42 -23.5 68.5t-64.5 26.5z" />
    <glyph glyph-name="Tsmall" horiz-adv-x="631" 
d="M590 484l16 -182h-37q-19 92 -42 120q-21 30 -59 30h-37q-24 0 -31 -8.5t-7 -38.5v-326q0 -27 10.5 -37t35.5 -10h31v-32h-310v32h31q25 0 35.5 10t10.5 37v326q0 29 -7.5 38t-29.5 9h-37q-39 0 -61 -30q-22 -29 -41 -120h-36l15 182h550z" />
    <glyph glyph-name="Xsmall" horiz-adv-x="680" 
d="M664 32v-32h-325v32h43q28 0 28 12q0 10 -21 35l-96 121l-116 -129q-15 -13 -13 -26t26 -13h36v-32h-211v32h16q29 0 49.5 10t45.5 37l139 151l-144 175q-39 47 -76 47h-15v32h319v-32h-35q-29 0 -29 -12t19 -35l80 -101l101 112q32 36 -14 36h-30v32h204v-32h-15
q-54 0 -98 -47l-120 -131l161 -195q39 -47 77 -47h14z" />
    <glyph glyph-name="Dsmall" horiz-adv-x="705" 
d="M40 452v32h349q130 0 203 -68q72 -68 72 -174q0 -108 -73 -175q-71 -67 -203 -67h-348v32h31q25 0 35.5 10t10.5 37v326q0 27 -10.5 37t-35.5 10h-31zM353 452h-42q-24 0 -31.5 -9t-7.5 -38v-326q0 -27 10.5 -37t35.5 -10h32q155 0 155 210t-152 210z" />
    <glyph glyph-name="Gsmall" horiz-adv-x="661" 
d="M641 220v-32h-28q-24 0 -31.5 -9t-7.5 -38v-152h-36l-48 54q-61 -53 -165 -53q-127 0 -206 59q-78 59 -78 182q0 124 75.5 193t210.5 69q93 0 152 -50l25 50h32l16 -194h-36q-45 162 -172 162q-143 0 -143 -224q0 -116 40 -160q41 -44 109 -44q36 0 58 19.5t22 48.5v40
q0 29 -7.5 38t-31.5 9h-45v32h295z" />
    <glyph glyph-name="Jsmall" horiz-adv-x="483" 
d="M383 405v-282q0 -65 -58.5 -99t-159.5 -34q-77 0 -119 33t-42 84q0 34 20.5 57t55.5 23q28 0 46 -17t18 -42q0 -30 -23.5 -49t-55.5 -19q7 -13 29 -22.5t46 -9.5q40 0 63.5 24t23.5 71v282q0 27 -10.5 37t-35.5 10h-45v32h324v-32h-31q-25 0 -35.5 -10t-10.5 -37z" />
    <glyph glyph-name="Qsmall" horiz-adv-x="673" 
d="M637 242q0 -72 -35 -129t-100 -89q2 -6 6.5 -17t7 -16.5l6.5 -15t6.5 -14l6.5 -11.5t7.5 -10.5t8 -7t9.5 -5t10 -1.5q26 0 39 63h36q-8 -55 -43 -87t-88 -32q-63 0 -92.5 30.5t-39.5 91.5q-38 -2 -43 -2q-141 0 -220 71q-78 72 -78 181q0 110 78 180q79 71 220 71
t220 -71q78 -70 78 -180zM476 242q0 219 -137 219q-138 0 -138 -219q0 -78 15 -124q14 27 41.5 43t60.5 16q88 0 139 -67q19 50 19 132zM249 81q0 -23 26 -44q27 -15 64 -15q23 0 38 5q-4 38 -9 64q-8 48 -50 48q-30 0 -49.5 -17t-19.5 -41z" />
    <glyph glyph-name="Nsmall" 
d="M581 392v-392h-42l-375 340h-4v-248q0 -29 14.5 -44.5t38.5 -15.5h24v-32h-201v32h24q24 0 38.5 15.5t14.5 44.5v313q0 27 -10.5 37t-35.5 10h-31v32h192l303 -273h4v181q0 29 -14.5 44.5t-38.5 15.5h-24v32h201v-32h-24q-24 0 -39 -16.5t-15 -43.5z" />
    <glyph glyph-name="Usmall" 
d="M659 484v-32h-25q-51 0 -51 -60v-239q0 -163 -245 -163q-244 0 -244 163v252q0 27 -10 37t-35 10h-32v32h310v-32h-32q-25 0 -35 -10t-10 -37v-252q0 -62 35.5 -89.5t106.5 -27.5q73 0 108.5 27.5t35.5 89.5v239q0 29 -14.5 44.5t-38.5 15.5h-24v32h200z" />
    <glyph glyph-name="Ysmall" horiz-adv-x="636" 
d="M631 484v-32h-15q-23 0 -41.5 -15t-44.5 -52l-129 -185v-122q0 -26 10.5 -36t35.5 -10h31v-32h-310v32h31q25 0 35.5 10t10.5 36v123l-155 204q-36 47 -68 47h-17v32h306v-32h-36q-33 0 -33 -18q0 -7 17 -29l127 -162l98 142q18 27 18 43q0 24 -30 24h-31v32h190z" />
    <glyph glyph-name="Ssmall" horiz-adv-x="564" 
d="M526 147q0 -73 -77 -115t-175 -42q-114 0 -179 45l-22 -45h-28l-8 195h36q21 -84 79 -124q59 -39 124 -39q56 0 89.5 16.5t33.5 46.5q6 30 -47 60q-10 6 -35 13l-35 11l-40 11q-68 18 -107 36q-80 36 -84 119q0 74 57.5 116t156.5 42q108 0 170 -47l23 47h29l9 -180h-36
q-14 58 -51 92q-57 56 -144 56q-41 0 -69 -18t-28 -49q0 -38 53 -60q29 -12 48 -18l64 -16q73 -19 108 -36q85 -40 85 -117z" />
    <glyph glyph-name="Zsmall" horiz-adv-x="581" 
d="M516 189h35l-16 -189h-505v32l334 420h-202q-58 0 -89 -150h-35l18 182h491v-32l-334 -418h210q33 0 52.5 34t40.5 121z" />
    <glyph glyph-name="Vsmall" horiz-adv-x="650" 
d="M646 484v-32h-11q-51 0 -84 -67l-197 -395h-68l-207 415q-23 47 -64 47h-10v32h296v-32h-42q-34 0 -34 -18q0 -6 9 -29l138 -286l133 266q12 23 12 38q0 29 -44 29h-29v32h202z" />
    <glyph glyph-name="Wsmall" horiz-adv-x="927" 
d="M922 484v-32h-10q-32 0 -51.5 -15t-33.5 -49l-162 -398h-68l-138 312l-132 -312h-68l-177 413q-21 49 -68 49h-9v32h278v-32h-27q-29 0 -29 -17q0 -15 7 -30l109 -268l92 225l-18 43q-12 27 -26.5 37t-38.5 10v32h295v-32h-50q-33 0 -33 -18q0 -11 8 -29l108 -267
l101 247q11 25 11 38q0 29 -42 29h-31v32h203z" />
    <glyph glyph-name="afii10056small" horiz-adv-x="385" 
d="M211 590q0 20 16 34.5t38 14.5q23 0 39 -14.5t16 -34.5q0 -19 -16 -33t-39 -14q-22 0 -38 14t-16 33zM64 590q0 20 16 34.5t38 14.5q23 0 39 -14.5t16 -34.5q0 -19 -16 -33t-39 -14q-22 0 -38 14t-16 33zM272 405v-326q0 -27 10.5 -37t35.5 -10h31v-32h-309v32h31
q25 0 35.5 10t10.5 37v326q0 27 -10.5 37t-35.5 10h-31v32h309v-32h-31q-25 0 -35.5 -10t-10.5 -37z" />
    <glyph glyph-name="afii10054small" horiz-adv-x="564" 
d="M526 147q0 -73 -77 -115t-175 -42q-114 0 -179 45l-22 -45h-28l-8 195h36q21 -84 79 -124q59 -39 124 -39q56 0 89.5 16.5t33.5 46.5q6 30 -47 60q-10 6 -35 13l-35 11l-40 11q-68 18 -107 36q-80 36 -84 119q0 74 57.5 116t156.5 42q108 0 170 -47l23 47h29l9 -180h-36
q-14 58 -51 92q-57 56 -144 56q-41 0 -69 -18t-28 -49q0 -38 53 -60q29 -12 48 -18l64 -16q73 -19 108 -36q85 -40 85 -117z" />
    <glyph glyph-name="afii10055small" horiz-adv-x="389" 
d="M272 405v-326q0 -27 10.5 -37t35.5 -10h31v-32h-309v32h31q25 0 35.5 10t10.5 37v326q0 27 -10.5 37t-35.5 10h-31v32h309v-32h-31q-25 0 -35.5 -10t-10.5 -37z" />
    <glyph glyph-name="afii10062small" horiz-adv-x="638" 
d="M637 484v-32h-18q-38 0 -65 -44l-196 -334q-49 -84 -149 -84q-47 0 -81 24t-34 63q0 26 20 43.5t49 17.5q26 0 48 -14t22 -40q0 -13 -11.5 -29t-23.5 -20q15 -6 33 -6q52 0 86 61l-213 313q-33 49 -84 49h-15v32h319v-32h-35q-35 0 -35 -22q0 -11 13 -33l124 -189
l118 207q6 9 6 19q0 18 -26 18h-38v32h186zM451 561q-40 7 -40 46q0 18 15.5 32t36.5 14q24 0 40 -15.5t16 -36.5q0 -89 -164 -89t-164 89q0 21 16 36.5t40 15.5q21 0 36.5 -14t15.5 -32q0 -39 -40 -46q25 -19 96 -19t96 19z" />
    <glyph glyph-name="afii10061small" horiz-adv-x="718" 
d="M663 130h35q-4 -73 -34.5 -105t-100.5 -32q-51 0 -84.5 23.5t-47.5 61.5q-4 12 -13 42t-15 44.5t-17.5 34t-28 28t-39.5 8.5h-46v-157q0 -26 10.5 -36t35.5 -10h31v-32h-309v32h31q25 0 35.5 9t10.5 35v329q0 27 -10.5 37t-35.5 10h-31v32h309v-32h-31q-25 0 -35.5 -9.5
t-10.5 -35.5v-138h72l134 130q21 19 21 34q0 19 -34 19h-31v32h242v-32h-20q-58 0 -116 -53l-143 -131q55 -6 94.5 -31t56.5 -58q12 -21 26 -57.5t24.5 -54.5t25.5 -18q16 0 26.5 22.5t12.5 58.5zM416 559l-47 -28l-22 10l19 40q12 28 20 39q7 13 19 27q21 28 58 28
q18 0 31.5 -10t13.5 -24q0 -20 -24 -39q-18 -14 -27 -19z" />
    <glyph glyph-name="afii10052small" horiz-adv-x="572" 
d="M385 452h-75q-24 0 -31 -8.5t-7 -38.5v-326q0 -27 10.5 -37t35.5 -10h31v-32h-309v32h31q25 0 35.5 10t10.5 37v326q0 27 -10.5 37t-35.5 10h-31v32h500l10 -189h-36q-20 94 -51 125q-32 32 -78 32zM330 559l-47 -28l-22 10l19 40q12 28 20 39q7 13 19 27q21 28 58 28
q18 0 31.5 -10t13.5 -24q0 -20 -24 -39q-18 -14 -27 -19z" />
    <glyph glyph-name="afii10058small" horiz-adv-x="918" 
d="M401 452h-87q-41 0 -41 -47q0 -204 -34 -306q-36 -109 -141 -109q-38 0 -63 23.5t-25 57.5q0 26 20 43.5t49 17.5q28 0 47.5 -17t19.5 -41q0 -22 -17 -42q13 0 26 12t26 40t23 69.5t16 106.5t6 145q0 26 -13 36.5t-40 10.5h-31v32h523v-32h-31q-25 0 -35.5 -8.5
t-10.5 -31.5v-138h82q103 0 163 -36t60 -101q0 -64 -59.5 -100.5t-159.5 -36.5h-318v32h31q24 0 35 9t11 30v350q0 19 -6.5 25t-25.5 6zM738 137q0 45 -24 75t-67 30h-59v-163q0 -43 21 -43h45q39 0 61.5 29t22.5 72z" />
    <glyph glyph-name="afii10059small" horiz-adv-x="983" 
d="M651 405v-131h84q103 0 163 -36t60 -101q0 -64 -59.5 -100.5t-159.5 -36.5h-315v32h30q23 0 32.5 10t9.5 37v152h-224v-152q0 -27 9.5 -37t33.5 -10h29v-32h-304v32h31q25 0 35.5 10t10.5 37v326q0 27 -10.5 37t-35.5 10h-31v32h304v-32h-29q-24 0 -33.5 -10t-9.5 -37
v-129h224v129q0 27 -9.5 37t-32.5 10h-30v32h304v-32h-31q-25 0 -35.5 -10t-10.5 -37zM709 230h-57v-159q0 -23 7.5 -31t27.5 -8h32q38 0 60.5 29t22.5 72t-24.5 70t-68.5 27z" />
    <glyph glyph-name="afii10050small" horiz-adv-x="557" 
d="M40 452v32h360q41 0 64 17q29 24 48 108h36l-8 -157h-229q-24 0 -31.5 -9t-7.5 -38v-326q0 -27 10.5 -37t35.5 -10h31v-32h-309v32h31q25 0 35.5 10t10.5 37v326q0 27 -10.5 37t-35.5 10h-31z" />
    <glyph glyph-name="afii10057small" horiz-adv-x="483" 
d="M383 405v-282q0 -65 -58.5 -99t-159.5 -34q-77 0 -119 33t-42 84q0 34 20.5 57t55.5 23q28 0 46 -17t18 -42q0 -30 -23.5 -49t-55.5 -19q7 -13 29 -22.5t46 -9.5q40 0 63.5 24t23.5 71v282q0 27 -10.5 37t-35.5 10h-45v32h324v-32h-31q-25 0 -35.5 -10t-10.5 -37z" />
    <glyph glyph-name="afii10053small" horiz-adv-x="601" 
d="M327 493q94 0 152 -50l25 50h32l16 -194h-36q-45 162 -172 162q-138 0 -143 -200q30 0 80 1l139 3v-42q-7 0 -31.5 1t-80.5 2l-107 2q2 -110 44 -152q43 -43 105 -43q140 0 178 135h37q-20 -107 -100 -146q-64 -32 -140 -32q-122 0 -203 60t-81 181q0 123 78 192
q77 70 208 70z" />
    <glyph glyph-name="afii10060small" horiz-adv-x="759" 
d="M744 32v-32h-248v32h23q18 0 24 7.5t6 26.5v80q0 42 -12.5 56.5t-45.5 14.5q-35 0 -66 -27q-32 -26 -32 -68v-44q0 -27 8.5 -36.5t31.5 -9.5h24v-32h-297v32h31q25 0 35.5 10t10.5 36v327q0 29 -6.5 38t-25.5 9h-37q-42 0 -64 -30q-24 -30 -43 -120h-36l15 182h550
l16 -182h-37q-20 92 -41 121t-62 29h-39q-21 0 -27.5 -9t-6.5 -38v-202q19 32 59.5 52.5t92.5 20.5q136 0 136 -117v-93q0 -19 6.5 -26.5t26.5 -7.5h30z" />
    <glyph glyph-name="afii10051small" horiz-adv-x="763" 
d="M736 118q0 -58 -43.5 -93.5t-117.5 -35.5q-109 0 -109 99h43q2 -53 48 -53q55 0 55 90q0 41 -27 63t-73 22q-37 0 -78 -29t-41 -71v-32q0 -26 8.5 -36t30.5 -10h21v-32h-293v32h31q25 0 35.5 10t10.5 36v327q0 30 -6 38.5t-25 8.5h-38q-42 0 -64 -30q-24 -30 -43 -120
h-36l15 182h550l16 -182h-37q-19 92 -42 120q-21 30 -62 30h-38q-21 0 -27.5 -9t-6.5 -38v-210q16 30 68 54q50 25 105 25q79 0 124.5 -40.5t45.5 -115.5z" />
    <glyph glyph-name="afii10145small" horiz-adv-x="768" 
d="M728 32v-32h-323q3 -23 13 -51q11 -33 11 -39q0 -23 -22.5 -31.5t-45 0.5t-22.5 31q0 9 10 39q11 32 14 51h-323v32h31q25 0 35.5 10t10.5 36v327q0 27 -10.5 37t-35.5 10h-31v32h304v-32h-29q-24 0 -33.5 -10t-9.5 -37v-342q0 -18 7 -24.5t25 -6.5h161q18 0 24.5 6
t6.5 25v342q0 27 -9.5 37t-32.5 10h-30v32h304v-32h-31q-25 0 -35.5 -10t-10.5 -37v-327q0 -26 10.5 -36t35.5 -10h31z" />
    <glyph glyph-name="Ccedillasmall" horiz-adv-x="601" 
d="M528 168h37q-18 -105 -97 -145q-66 -33 -143 -33l-7 -19q31 -1 53 -13t22 -32q0 -22 -21 -36.5t-54 -14.5q-32 0 -68 12v23q28 -5 37 -5q39 0 39 24q0 20 -57 20l15 43q-107 9 -175 68q-68 60 -68 171q0 123 78 192q77 70 208 70q94 0 152 -50l25 50h32l16 -194h-36
q-44 161 -172 161q-68 0 -105.5 -46.5t-37.5 -176.5q0 -116 40 -160q41 -44 109 -44q69 0 115.5 34.5t62.5 100.5z" />
    <glyph glyph-name="Adieresissmall" horiz-adv-x="650" 
d="M414 639q23 0 39 -13.5t16 -33.5t-16 -33.5t-39 -13.5q-22 0 -37.5 14t-15.5 33t15.5 33t37.5 14zM234 639q23 0 39 -14t16 -33t-16 -33t-39 -14q-22 0 -38 14t-16 33t16 33t38 14zM416 79l-30 64h-221l-20 -45q-10 -21 -10 -37q0 -29 43 -29h29v-32h-202v32h14
q47 0 81 66l196 396h69l206 -415q24 -47 64 -47h10v-32h-296v32h42q34 0 34 18q0 13 -9 29zM370 180l-89 199l-97 -199h186z" />
    <glyph glyph-name="Aringsmall" horiz-adv-x="650" 
d="M292 611q0 -11 10 -20t23 -9t23 9t10 20q0 13 -9.5 21t-23.5 8q-13 0 -23 -8.5t-10 -20.5zM273 566q-21 18 -21 46t21 46t52 18t52 -18t21 -46t-21 -46t-52 -18t-52 18zM416 79l-30 64h-221l-20 -45q-10 -21 -10 -37q0 -29 43 -29h29v-32h-202v32h14q47 0 81 66l196 396
h69l206 -415q24 -47 64 -47h10v-32h-296v32h42q34 0 34 18q0 13 -9 29zM370 180l-89 199l-97 -199h186z" />
    <glyph glyph-name="Eacutesmall" horiz-adv-x="626" 
d="M291 531l-22 10l16 34q3 8 16 33q3 7 15 25q24 37 68 42q19 0 32.5 -10t13.5 -24q0 -19 -25 -39q-13 -10 -27 -18q-8 -6 -40.5 -25t-46.5 -28zM389 452h-81q-22 0 -30 -9.5t-8 -37.5v-139h52q41 0 61 20.5t20 72.5h35v-218h-35q0 52 -20 72.5t-61 20.5h-52v-155
q0 -27 10.5 -37t35.5 -10h83q36 0 50 3t31 16q31 24 56 133h36l-15 -184h-519v32h31q25 0 35.5 10t10.5 37v326q0 27 -10.5 37t-35.5 10h-31v32h501l14 -163h-36q-22 93 -56 114q-25 17 -72 17z" />
    <glyph glyph-name="Ntildesmall" 
d="M284 613q-35 0 -66 -40l-38 24q24 44 46.5 61.5t57.5 17.5q32 0 64 -20q32 -19 48 -19q33 0 65 39l39 -22q-25 -45 -47 -62.5t-58 -17.5q-34 0 -66 19q-34 20 -45 20zM581 392v-392h-42l-375 340h-4v-248q0 -29 14.5 -44.5t38.5 -15.5h24v-32h-201v32h24q24 0 38.5 15.5
t14.5 44.5v313q0 27 -10.5 37t-35.5 10h-31v32h192l303 -273h4v181q0 29 -14.5 44.5t-38.5 15.5h-24v32h201v-32h-24q-24 0 -39 -16.5t-15 -43.5z" />
    <glyph glyph-name="Odieresissmall" horiz-adv-x="678" 
d="M559 422q78 -70 78 -180q0 -109 -78 -181q-79 -71 -220 -71t-220 71q-78 72 -78 181q0 110 78 180q79 71 220 71t220 -71zM476 242q0 219 -137 219q-138 0 -138 -219q0 -220 138 -220q137 0 137 220zM428 639q23 0 39 -14t16 -33t-16 -33t-39 -14q-22 0 -37.5 14
t-15.5 33t15.5 33t37.5 14zM247 639q23 0 39 -14t16 -33t-16 -33t-39 -14q-22 0 -38 14t-16 33t16 33t38 14z" />
    <glyph glyph-name="Udieresissmall" 
d="M463 639q23 0 39 -14t16 -33t-16 -33t-39 -14q-22 0 -38 14t-16 33t16 33t38 14zM282 639q23 0 39 -14t16 -33t-16 -33t-39 -14q-22 0 -37.5 14t-15.5 33t15.5 33t37.5 14zM659 484v-32h-25q-51 0 -51 -60v-239q0 -163 -245 -163q-244 0 -244 163v252q0 27 -10 37t-35 10
h-32v32h310v-32h-32q-25 0 -35 -10t-10 -37v-252q0 -62 35.5 -89.5t106.5 -27.5q73 0 108.5 27.5t35.5 89.5v239q0 29 -14.5 44.5t-38.5 15.5h-24v32h200z" />
    <glyph glyph-name="Agravesmall" horiz-adv-x="650" 
d="M377 581l19 -40l-22 -10l-48 28l-40 24q-56 35 -51 58q0 22 28.5 30.5t47.5 -2.5q20 -8 46 -49q8 -11 20 -39zM416 79l-30 64h-221l-20 -45q-10 -21 -10 -37q0 -29 43 -29h29v-32h-202v32h14q47 0 81 66l196 396h69l206 -415q24 -47 64 -47h10v-32h-296v32h42q34 0 34 18
q0 13 -9 29zM370 180l-89 199l-97 -199h186z" />
    <glyph glyph-name="Atildesmall" horiz-adv-x="650" 
d="M269 613q-37 0 -65 -40l-39 24q24 44 46.5 61.5t57.5 17.5q33 0 65 -20q31 -19 46 -19q36 0 66 39l39 -22q-23 -45 -46 -62.5t-59 -17.5q-34 0 -66 19q-32 20 -45 20zM416 79l-30 64h-221l-20 -45q-10 -21 -10 -37q0 -29 43 -29h29v-32h-202v32h14q47 0 81 66l196 396h69
l206 -415q24 -47 64 -47h10v-32h-296v32h42q34 0 34 18q0 13 -9 29zM370 180l-89 199l-97 -199h186z" />
    <glyph glyph-name="Otildesmall" horiz-adv-x="678" 
d="M559 422q78 -70 78 -180q0 -109 -78 -181q-79 -71 -220 -71t-220 71q-78 72 -78 181q0 110 78 180q79 71 220 71t220 -71zM476 242q0 219 -137 219q-138 0 -138 -219q0 -220 138 -220q137 0 137 220zM283 613q-38 0 -66 -40l-39 24q25 44 47.5 61.5t57.5 17.5
q32 0 64 -20q31 -19 47 -19q34 0 66 39l38 -22q-24 -45 -46 -62.5t-58 -17.5q-35 0 -66 19q-32 20 -45 20z" />
    <glyph glyph-name="Ocircumflexsmall" horiz-adv-x="678" 
d="M559 422q78 -70 78 -180q0 -109 -78 -181q-79 -71 -220 -71t-220 71q-78 72 -78 181q0 110 78 180q79 71 220 71t220 -71zM476 242q0 219 -137 219q-138 0 -138 -219q0 -220 138 -220q137 0 137 220zM384 675l106 -125h-36l-115 75l-116 -75h-36l106 125h91z" />
    <glyph glyph-name="Oacutesmall" horiz-adv-x="678" 
d="M559 422q78 -70 78 -180q0 -109 -78 -181q-79 -71 -220 -71t-220 71q-78 72 -78 181q0 110 78 180q79 71 220 71t220 -71zM476 242q0 219 -137 219q-138 0 -138 -219q0 -220 138 -220q137 0 137 220zM351 559l-47 -28l-22 10l19 40q12 28 20 39q7 13 19 27q21 28 58 28
q18 0 31.5 -10t13.5 -24q0 -20 -24 -39q-18 -14 -27 -19z" />
    <glyph glyph-name="Igravesmall" horiz-adv-x="389" 
d="M252 575l16 -34l-22 -10q-13 9 -46 28t-41 25q-52 32 -52 57q0 14 13.5 24t32.5 10q25 -3 39 -11.5t28 -30.5q3 -4 6.5 -9.5t6 -9t3.5 -6.5zM272 405v-326q0 -27 10.5 -37t35.5 -10h31v-32h-309v32h31q25 0 35.5 10t10.5 37v326q0 27 -10.5 37t-35.5 10h-31v32h309v-32
h-31q-25 0 -35.5 -10t-10.5 -37z" />
    <glyph glyph-name="Idieresissmall" horiz-adv-x="389" 
d="M284 639q23 0 39 -14t16 -33t-16 -33t-39 -14q-21 0 -37 14t-16 33t16 33t37 14zM104 639q23 0 39 -14t16 -33t-16 -33t-39 -14q-22 0 -38 14t-16 33t16 33t38 14zM272 405v-326q0 -27 10.5 -37t35.5 -10h31v-32h-309v32h31q25 0 35.5 10t10.5 37v326q0 27 -10.5 37
t-35.5 10h-31v32h309v-32h-31q-25 0 -35.5 -10t-10.5 -37z" />
    <glyph glyph-name="Icircumflexsmall" horiz-adv-x="389" 
d="M241 675l106 -125h-37l-115 75l-115 -75h-37l106 125h92zM272 405v-326q0 -27 10.5 -37t35.5 -10h31v-32h-309v32h31q25 0 35.5 10t10.5 37v326q0 27 -10.5 37t-35.5 10h-31v32h309v-32h-31q-25 0 -35.5 -10t-10.5 -37z" />
    <glyph glyph-name="Iacutesmall" horiz-adv-x="389" 
d="M166 531l-22 10l16 34q3 8 16 33q3 7 15 25q24 37 68 42q19 0 32.5 -10t13.5 -24q0 -19 -25 -39q-14 -10 -27 -18q-9 -6 -41 -25t-46 -28zM272 405v-326q0 -27 10.5 -37t35.5 -10h31v-32h-309v32h31q25 0 35.5 10t10.5 37v326q0 27 -10.5 37t-35.5 10h-31v32h309v-32h-31
q-25 0 -35.5 -10t-10.5 -37z" />
    <glyph glyph-name="Egravesmall" horiz-adv-x="626" 
d="M357 581l19 -40l-22 -10l-48 28l-40 24q-56 35 -51 58q0 22 28.5 30.5t47.5 -2.5q20 -8 46 -49q8 -11 20 -39zM389 452h-81q-22 0 -30 -9.5t-8 -37.5v-139h52q41 0 61 20.5t20 72.5h35v-218h-35q0 52 -20 72.5t-61 20.5h-52v-155q0 -27 10.5 -37t35.5 -10h83q36 0 50 3
t31 16q31 24 56 133h36l-15 -184h-519v32h31q25 0 35.5 10t10.5 37v326q0 27 -10.5 37t-35.5 10h-31v32h501l14 -163h-36q-22 93 -56 114q-25 17 -72 17z" />
    <glyph glyph-name="Ydieresissmall" horiz-adv-x="636" 
d="M407 639q23 0 39.5 -13.5t16.5 -33.5t-16.5 -33.5t-39.5 -13.5q-22 0 -37.5 14t-15.5 33t15.5 33t37.5 14zM227 639q23 0 39 -14t16 -33t-16 -33t-39 -14q-22 0 -38 14t-16 33t16 33t38 14zM631 484v-32h-15q-23 0 -42 -15t-44 -52l-129 -185v-122q0 -26 10.5 -36
t35.5 -10h31v-32h-310v32h31q25 0 35.5 10t10.5 36v123l-155 204q-36 47 -68 47h-17v32h306v-32h-36q-33 0 -33 -18q0 -7 17 -29l127 -162l98 142q18 27 18 43q0 24 -30 24h-31v32h190z" />
    <glyph glyph-name="Edieresissmall" horiz-adv-x="626" 
d="M395 639q23 0 39 -13.5t16 -33.5t-16 -33.5t-39 -13.5q-22 0 -37.5 14t-15.5 33t15.5 33t37.5 14zM214 639q23 0 39 -13.5t16 -33.5t-16 -33.5t-39 -13.5q-22 0 -37.5 14t-15.5 33t15.5 33t37.5 14zM389 452h-81q-22 0 -30 -9.5t-8 -37.5v-139h52q41 0 61 20.5t20 72.5
h35v-218h-35q0 52 -20 72.5t-61 20.5h-52v-155q0 -27 10.5 -37t35.5 -10h83q36 0 50 3t31 16q31 24 56 133h36l-15 -184h-519v32h31q25 0 35.5 10t10.5 37v326q0 27 -10.5 37t-35.5 10h-31v32h501l14 -163h-36q-22 93 -56 114q-25 17 -72 17z" />
    <glyph glyph-name="Aacutesmall" horiz-adv-x="650" 
d="M280 531l-22 10l19 40q12 28 20 39q7 13 19 27q21 28 58 28q18 0 31.5 -10t13.5 -25q0 -22 -30 -44.5t-109 -64.5zM416 79l-30 64h-221l-20 -45q-10 -21 -10 -37q0 -29 43 -29h29v-32h-202v32h14q47 0 81 66l196 396h69l206 -415q24 -47 64 -47h10v-32h-296v32h42
q34 0 34 18q0 13 -9 29zM370 180l-89 199l-97 -199h186z" />
    <glyph glyph-name="Ecircumflexsmall" horiz-adv-x="626" 
d="M351 675l105 -125h-35l-116 75l-116 -75h-35l105 125h92zM389 452h-81q-22 0 -30 -9.5t-8 -37.5v-139h52q41 0 61 20.5t20 72.5h35v-218h-35q0 52 -20 72.5t-61 20.5h-52v-155q0 -27 10.5 -37t35.5 -10h83q36 0 50 3t31 16q31 24 56 133h36l-15 -184h-519v32h31
q25 0 35.5 10t10.5 37v326q0 27 -10.5 37t-35.5 10h-31v32h501l14 -163h-36q-22 93 -56 114q-25 17 -72 17z" />
    <glyph glyph-name="Acircumflexsmall" horiz-adv-x="650" 
d="M371 675l105 -125h-35l-116 75l-115 -75h-36l105 125h92zM416 79l-30 64h-221l-20 -45q-10 -21 -10 -37q0 -29 43 -29h29v-32h-202v32h14q47 0 81 66l196 396h69l206 -415q24 -47 64 -47h10v-32h-296v32h42q34 0 34 18q0 13 -9 29zM370 180l-89 199l-97 -199h186z" />
    <glyph glyph-name="Ugravesmall" 
d="M419 541l-22 -10l-31 18q-12 8 -28.5 17t-25.5 15q-54 34 -54 59q0 13 13.5 24t31.5 11q40 0 57 -26q6 -9 59 -108zM659 484v-32h-25q-51 0 -51 -60v-239q0 -163 -245 -163q-244 0 -244 163v252q0 27 -10 37t-35 10h-32v32h310v-32h-32q-25 0 -35 -10t-10 -37v-252
q0 -62 35.5 -89.5t106.5 -27.5q73 0 108.5 27.5t35.5 89.5v239q0 29 -14.5 44.5t-38.5 15.5h-24v32h200z" />
    <glyph glyph-name="Ucircumflexsmall" 
d="M384 675l106 -125h-36l-116 75l-115 -75h-37l106 125h92zM659 484v-32h-25q-51 0 -51 -60v-239q0 -163 -245 -163q-244 0 -244 163v252q0 27 -10 37t-35 10h-32v32h310v-32h-32q-25 0 -35 -10t-10 -37v-252q0 -62 35.5 -89.5t106.5 -27.5q73 0 108.5 27.5t35.5 89.5v239
q0 29 -14.5 44.5t-38.5 15.5h-24v32h200z" />
    <glyph glyph-name="Uacutesmall" 
d="M659 484v-32h-25q-51 0 -51 -60v-239q0 -163 -245 -163q-244 0 -244 163v252q0 27 -10 37t-35 10h-32v32h310v-32h-32q-25 0 -35 -10t-10 -37v-252q0 -62 35.5 -89.5t106.5 -27.5q73 0 108.5 27.5t35.5 89.5v239q0 29 -14.5 44.5t-38.5 15.5h-24v32h200zM327 531l-22 10
l16 34q3 8 16 33q3 7 15 25q24 37 68 42q19 0 32.5 -10t13.5 -24q0 -19 -25 -39q-13 -10 -27 -18q-8 -6 -40.5 -25t-46.5 -28z" />
    <glyph glyph-name="Ogravesmall" horiz-adv-x="678" 
d="M559 422q78 -70 78 -180q0 -109 -78 -181q-79 -71 -220 -71t-220 71q-78 72 -78 181q0 110 78 180q79 71 220 71t220 -71zM476 242q0 219 -137 219q-138 0 -138 -219q0 -220 138 -220q137 0 137 220zM377 581l19 -40l-22 -10l-48 28l-40 24q-56 35 -51 58q0 22 28.5 30.5
t47.5 -2.5q20 -8 46 -49q8 -11 20 -39z" />
    <glyph glyph-name="AEsmall" horiz-adv-x="898" 
d="M825 184h36l-15 -184h-519v32h30q26 0 36 11t10 36v66h-216l-45 -56q-17 -19 -17 -34q0 -23 45 -23h28v-32h-202v32h11q37 0 93 66l266 306q14 20 14 32q0 16 -25 16h-28v32h502l13 -163h-36q-17 71 -44 102q-9 12 -27 20q-23 9 -62 9h-79q-20 0 -27.5 -9.5t-7.5 -37.5
v-139h52q41 0 61 20.5t20 72.5h35v-218h-35q0 52 -20 72.5t-61 20.5h-52v-155q0 -26 11 -36.5t37 -10.5h78q26 0 33 1q37 2 51 18q37 41 56 133zM403 182v205l-179 -205h179z" />
    <glyph glyph-name="Oslashsmall" horiz-adv-x="678" 
d="M154 35l-37 -35h-61l63 61q-78 69 -78 181q0 110 78 180q79 71 220 71q107 0 184 -45l38 36h60l-64 -61q80 -69 80 -181q0 -109 -78 -181q-79 -71 -220 -71q-109 0 -185 45zM476 242q0 53 -9 95l-245 -236q33 -79 117 -79q137 0 137 220zM201 242q0 -47 8 -95l245 235
q-33 79 -115 79q-138 0 -138 -219z" />
    <glyph glyph-name="OEsmall" horiz-adv-x="949" 
d="M339 22q66 0 91.5 52.5t25.5 167.5q0 118 -28 168.5t-102 50.5q-125 0 -125 -219q0 -220 138 -220zM877 184h36l-15 -184h-462q-41 -10 -97 -10q-141 0 -220 71q-78 72 -78 181q0 110 78 180q79 71 220 71q53 0 97 -9h445l13 -163h-36q-17 72 -42 101.5t-63 29.5h-103
q-24 0 -31.5 -9t-7.5 -41v-136h52q41 0 61 20.5t20 72.5h35v-218h-35q0 52 -20 72.5t-61 20.5h-52v-156q0 -26 10.5 -36t35.5 -10h108q40 0 66 32q27 33 46 120z" />
    </font>
</defs>
</svg>
