<?xml version="1.0" standalone="no"?>
<!DOCTYPE svg PUBLIC "-//W3C//DTD SVG 1.1//EN" "http://www.w3.org/Graphics/SVG/1.1/DTD/svg11.dtd" >
<svg>
<metadata>
Created by FontForge 20090622 at Tue Jul  3 11:38:32 2018
 By deploy user
Copyright (c) 2009 by Letterhead Studio. All rights reserved.
</metadata>
<defs>
<font id="21Cent-BoldItalic" horiz-adv-x="602" >
  <font-face 
    font-family="21 Cent"
    font-weight="700"
    font-style="italic"
    font-stretch="normal"
    units-per-em="1000"
    panose-1="2 0 8 3 8 0 0 9 0 3"
    ascent="788"
    descent="-212"
    x-height="472"
    cap-height="722"
    bbox="-184 -337 1218 993"
    underline-thickness="50"
    underline-position="-50"
    slope="-15"
    unicode-range="U+0020-U+FB02"
  />
<missing-glyph horiz-adv-x="261" 
 />
    <glyph glyph-name="fi" unicode="fi" horiz-adv-x="579" 
d="M43 43l88 368h-65l13 47h64l8 35q53 243 249 243q45 0 81 -10q42 -10 70.5 -40.5t28.5 -72.5q0 -30 -22.5 -52.5t-53.5 -22.5q-30 0 -51.5 21.5t-21.5 50.5q0 46 56 64q-20 26 -74 26q-84 0 -134 -242h150q89 0 89 -72q0 -32 -22 -111l-42 -147q-10 -36 -10 -60
q0 -18 15 -18q14 0 39 34q28 38 46 82l30 -18q-76 -163 -172 -163q-90 0 -90 79q0 38 23 116l41 149q12 42 12 58q0 24 -26 24h-95l-80 -331q-25 -104 -76 -181q-64 -100 -180 -100q-49 0 -82 28t-33 74q0 29 18 50.5t41 21.5q25 0 39.5 -14.5t14.5 -36.5q0 -26 -17 -42
t-42 -16q14 -29 55 -29q39 0 65.5 50.5t52.5 157.5z" />
    <glyph glyph-name="fl" unicode="fl" horiz-adv-x="585" 
d="M43 43l88 368h-65l13 47h64l8 35q23 94 88 159q66 66 187 74l200 11l-167 -608q-10 -39 -10 -59t14 -20t39 34q28 38 46 82l30 -18q-78 -162 -172 -162q-89 0 -89 79q0 35 22 116l124 459q4 13 4 27q0 20 -30 20h-22q-45 0 -74.5 -52t-61.5 -177h96l-13 -47h-95l-80 -331
q-25 -104 -76 -181q-64 -100 -180 -100q-49 0 -82 28t-33 74q0 29 18 50.5t41 21.5q25 0 39.5 -14.5t14.5 -36.5q0 -26 -17 -42t-42 -16q14 -29 55 -29q39 0 65.5 50.5t52.5 157.5z" />
    <glyph glyph-name=".notdef" horiz-adv-x="261" 
 />
    <glyph glyph-name=".null" horiz-adv-x="0" 
 />
    <glyph glyph-name="nonmarkingreturn" horiz-adv-x="333" 
 />
    <glyph glyph-name="space" unicode=" " horiz-adv-x="261" 
 />
    <glyph glyph-name="exclam" unicode="!" horiz-adv-x="314" 
d="M166 212h-39q15 52 24 132q10 90 14 142q6 58 17 122q24 126 111 126q24 0 39.5 -15.5t15.5 -41.5q0 -46 -30 -115q-24 -58 -77 -169q-49 -102 -75 -181zM172 61q0 -30 -20.5 -51.5t-48.5 -21.5t-47 20t-19 50t20.5 52t48.5 22t47 -21t19 -50z" />
    <glyph glyph-name="quotedbl" unicode="&#x22;" horiz-adv-x="383" 
d="M206 522l-18 13q40 92 82 169q17 32 61 32q14 0 22 -11t8 -27q0 -28 -38 -66l-35 -35q-9 -9 -43 -39q-25 -22 -39 -36zM99 557l-39 -35l-19 13q41 92 83 169q17 32 61 32q14 0 22 -11t8 -27q0 -25 -38 -66l-35 -36z" />
    <glyph glyph-name="numbersign" unicode="#" horiz-adv-x="662" 
d="M250 294h137l43 147h-137zM509 505h110v-64h-130l-44 -147h155v-64h-175l-68 -230h-60l69 230h-136l-68 -230h-59l69 230h-113v64h133l43 147h-157v64h178l70 231h59l-71 -231h136l71 231h58z" />
    <glyph glyph-name="dollar" unicode="$" horiz-adv-x="601" 
d="M210 -77h-53l18 67q-101 17 -144 79l-43 -83h-30l66 288h37q-2 -24 -2 -46q0 -174 128 -198l68 258q-42 20 -60 31q-21 14 -49 37q-54 48 -54 135q0 66 23 114.5t64 76.5t90.5 41t108.5 13l21 76h53l-23 -82q69 -15 119 -73l44 78h31l-62 -265h-37q3 45 3 46
q0 144 -109 174l-66 -249q29 -13 38 -18q5 -2 35 -19q28 -15 36 -23q40 -30 55 -61q22 -42 22 -92q0 -132 -101 -190q-87 -50 -209 -50zM382 165q0 32 -18.5 53.5t-62.5 47.5l-62 -238q3 -1 19 -1q52 0 88 38t36 100zM237 556q0 -55 68 -93l61 233q-51 -6 -90 -39t-39 -101z
" />
    <glyph glyph-name="percent" unicode="%" horiz-adv-x="713" 
d="M351 94q0 88 55 170q56 83 137 83q46 0 70.5 -29.5t24.5 -79.5q0 -96 -58 -175q-57 -78 -135 -78q-46 0 -70 29.5t-24 79.5zM535 318q-36 0 -74 -96q-37 -95 -37 -159q0 -48 29 -48q36 0 74 95q38 96 38 159q0 49 -30 49zM89 438q0 88 55 170q56 83 137 83
q46 0 70.5 -29.5t24.5 -80.5q0 -95 -58 -174q-57 -78 -134 -78q-47 0 -71 29t-24 80zM273 662q-37 0 -74 -97q-37 -95 -37 -158q0 -49 30 -49q35 0 73 95q38 97 38 160q0 49 -30 49zM712 677l-632 -677h-64l633 677h63z" />
    <glyph glyph-name="ampersand" unicode="&#x26;" horiz-adv-x="793" 
d="M531 409h258l-11 -39h-45q-28 0 -47.5 -14t-39.5 -52q-44 -100 -104 -165q46 -66 76 -66q55 0 97 121h37q-28 -95 -85 -151.5t-141 -56.5q-52 0 -106 54q-90 -54 -191 -54q-214 0 -214 154q0 96 73 157q57 49 165 96q-12 57 -12 105q0 109 71 174t196 65q64 0 102 -27
t38 -76q0 -91 -75 -143q-34 -24 -71 -43q-30 -16 -89 -39q48 -140 107 -239q50 55 83 134q36 66 -19 66h-65zM391 70q-83 105 -126 276q-55 -32 -82 -70.5t-27 -92.5q0 -59 31 -105q31 -45 85 -45q57 0 119 37zM551 634q0 27 -14.5 45.5t-38.5 18.5q-50 0 -84 -42
q-34 -41 -34 -106q0 -39 16 -96q79 39 117 80.5t38 99.5z" />
    <glyph glyph-name="quotesingle" unicode="'" horiz-adv-x="237" 
d="M99 557l-39 -35l-19 13q41 92 83 169q17 32 61 32q14 0 22 -11t8 -27q0 -25 -38 -66l-35 -36z" />
    <glyph glyph-name="parenleft" unicode="(" horiz-adv-x="362" 
d="M440 822l14 -32q-140 -101 -226 -288q-85 -185 -85 -375q0 -126 72 -223l-32 -32q-149 93 -149 290q0 211 102 382q103 172 304 278z" />
    <glyph glyph-name="parenright" unicode=")" horiz-adv-x="362" 
d="M341 531q0 -212 -103 -382.5t-302 -276.5l-14 32q139 102 225 287q85 185 85 375q0 127 -71 224l32 32q148 -93 148 -291z" />
    <glyph glyph-name="asterisk" unicode="*" horiz-adv-x="440" 
d="M239 549q30 12 77 43q50 33 72 33q28 0 28 -32q0 -47 -59 -55q-4 0 -15.5 -1l-22.5 -2t-22 -1q-30 -1 -57 -7q14 -30 45 -65q32 -35 32 -51q0 -17 -18 -35.5t-39 -18.5q-31 0 -31 48q0 4 1 20t1 21q0 31 -13 70q-31 -37 -53 -80q-26 -48 -38.5 -63t-32.5 -15
q-35 0 -35 35q0 19 21 39q19 18 60 46q42 28 63 49q-39 11 -100 11q-47 0 -47 26q0 25 17.5 42t36.5 17q25 0 57 -32q31 -31 50 -42q6 30 6 65q0 6 -1 24t-1 22q0 75 60 75q27 0 27 -25q0 -20 -28 -72q-27 -49 -41 -89z" />
    <glyph glyph-name="plus" unicode="+" horiz-adv-x="520" 
d="M287 298l-49 -187h-60l49 187h-167l19 63h167l50 188h59l-49 -188h167l-19 -63h-167z" />
    <glyph glyph-name="comma" unicode="," horiz-adv-x="233" 
d="M171 58q0 -59 -56 -118q-57 -60 -119 -89l-10 21q90 59 100 119q-23 5 -36.5 25.5t-13.5 42.5q0 31 19.5 52t48.5 21t48 -21.5t19 -52.5z" />
    <glyph glyph-name="hyphen" unicode="-" horiz-adv-x="394" 
d="M354 301l-21 -70h-282l20 70h283z" />
    <glyph glyph-name="period" unicode="." horiz-adv-x="224" 
d="M163 61q0 -30 -20.5 -51.5t-48.5 -21.5t-47 20t-19 50t20.5 52t48.5 22t47 -21t19 -50z" />
    <glyph glyph-name="slash" unicode="/" horiz-adv-x="351" 
d="M452 722l-451 -722h-86l450 722h87z" />
    <glyph glyph-name="zero" unicode="0" horiz-adv-x="601" 
d="M595 499q0 -121 -47 -239q-46 -116 -138 -196q-89 -79 -201 -79q-92 0 -140 62t-48 168q0 120 47 240q47 119 138 200q92 81 201 81q95 0 141 -67q47 -67 47 -170zM458 594q0 98 -60 98q-49 0 -108 -101q-58 -102 -95 -234t-37 -228q0 -104 62 -104q52 0 109 107
q59 106 93 240q36 134 36 222z" />
    <glyph glyph-name="one" unicode="1" 
d="M510 736h31l-167 -634q-10 -29 -3 -47.5t34 -15.5h88l-12 -39h-417l11 39h87q27 0 42 13t24 50l111 434q7 25 7 39q0 19 -17 19q-6 0 -18 -2l-92 -18l11 39q138 30 194 56q55 28 86 67z" />
    <glyph glyph-name="two" unicode="2" 
d="M516 276h36q-13 -118 -51 -196q-44 -95 -147 -95q-79 0 -134 49q-54 50 -100 50q-34 0 -34 -29q0 -3 11 -15.5t11 -22.5q0 -13 -10 -22.5t-26 -9.5q-10 0 -18 11.5t-8 27.5q0 57 28 107q8 14 17 27t22 26.5t20 21.5t25.5 23t24 20t28.5 23l27 21l92 75q100 82 100 186
q0 65 -31 102t-83 37q-54 0 -98 -35q-42 -34 -47 -73q11 14 31 14q29 0 47.5 -21t18.5 -53q0 -33 -20 -55.5t-51 -22.5q-30 0 -51.5 25t-21.5 62q0 100 68.5 151t157.5 51q98 0 157 -49q61 -49 61 -136q0 -58 -22 -105t-58.5 -77.5t-81.5 -55.5t-92 -46t-87.5 -41t-72 -48
t-42.5 -61q44 26 115 26q28 0 97 -23q71 -23 88 -23q38 0 64 36q27 38 40 143z" />
    <glyph glyph-name="three" unicode="3" 
d="M583 570q0 -71 -56 -130q-55 -58 -150 -75q66 -9 102 -49t36 -98q0 -104 -83 -169q-82 -64 -205 -64q-77 0 -133 45q-55 45 -55 132q0 35 22.5 59t53.5 24q29 0 47.5 -21t18.5 -53q0 -33 -19 -55t-49 -22q-13 0 -17 3q7 -27 39.5 -48t68.5 -21q75 0 123 63t48 154
q0 43 -20.5 70t-55.5 27q-9 0 -34 -4q-28 -3 -43 -3q-16 0 -16 18q0 15 9.5 25.5t20.5 10.5q14 0 39 -4q28 -3 35 -3q52 0 92 63q40 64 40 130q0 54 -27.5 86t-72.5 32q-52 0 -92.5 -20.5t-58.5 -59.5q8 3 16 3q29 0 47 -21t18 -52q0 -33 -20 -55.5t-50 -22.5t-50.5 21
t-20.5 54q0 66 38 113q71 83 214 83q87 0 143 -46q57 -45 57 -120z" />
    <glyph glyph-name="four" unicode="4" 
d="M448 249h116l-19 -71h-117l-19 -76q-6 -22 -6 -35q0 -28 37 -28h64l-12 -39h-375l12 39h67q28 0 42.5 13t23.5 50l19 76h-268l20 71l516 487h31zM302 249l69 266l-284 -266h215z" />
    <glyph glyph-name="five" unicode="5" 
d="M525 262q0 -108 -84 -193q-83 -84 -216 -84q-74 0 -132 38q-56 39 -56 117q0 36 23 63t55 27q29 0 47 -21t18 -53q0 -29 -17.5 -52t-42.5 -23q-20 0 -27 7q8 -26 38 -43t70 -17q77 -1 129 78.5t49 170.5q0 65 -28 102.5t-74 37.5q-27 0 -50 -9q-31 -12 -62 -43
q-17 -56 -48 -56q-22 0 -22 22q0 17 25 48l96 350q106 -27 231 -27q17 0 35 2t32 4.5t27 6t23 7.5t17 6.5t11 4.5l3 2q3 0 3 -4q0 -57 -74 -108q-74 -50 -175 -50q-51 0 -121 21l-49 -172q50 35 128 35q57 0 101.5 -18.5t68.5 -48t36 -62t12 -66.5z" />
    <glyph glyph-name="six" unicode="6" 
d="M582 605q0 -34 -20.5 -56.5t-50.5 -22.5t-51 20.5t-21 52.5q0 26 16 47t38 21q21 0 34 -9q-22 43 -97 43q-65 0 -119 -86t-93 -248q62 80 146 80q86 0 132.5 -46t46.5 -119q0 -122 -87 -210q-87 -87 -218 -87q-193 0 -193 243q0 128 47 245q48 115 138 189q91 74 200 74
q68 0 110 -34t42 -97zM399 305q0 43 -17.5 68t-50.5 25q-50 0 -89 -52q-71 -94 -71 -223q0 -98 69 -98q48 0 86 50q73 96 73 230z" />
    <glyph glyph-name="seven" unicode="7" horiz-adv-x="601" 
d="M590 698q0 -99 -106 -245l-88 -122q-105 -153 -105 -272q0 -33 -25.5 -53.5t-62.5 -20.5q-32 0 -50.5 16t-18.5 44q0 139 123 271q47 51 107 106q139 129 156 175q-32 -22 -111 -22q-27 0 -107 17q-79 17 -96 17t-32 -5q-55 -16 -71 -158h-38q13 101 33 160
q22 63 59.5 95t100.5 35q82 0 146 -50t112 -50q14 0 24.5 9.5t10.5 21.5q0 3 -11.5 15t-11.5 19q0 35 36 35q11 0 18.5 -11t7.5 -27z" />
    <glyph glyph-name="eight" unicode="8" 
d="M579 606q0 -64 -41 -116.5t-124 -79.5q65 -39 94.5 -77t29.5 -95q0 -61 -29 -111t-75.5 -80t-100.5 -46t-107 -16q-92 0 -142 41.5t-50 111.5q0 40 13 73q15 39 55.5 76.5t99.5 60.5q-79 63 -79 146q0 121 84 181q83 61 207 61q75 0 120 -37t45 -93zM382 161
q-3 31 -14 52t-35 42q-18 17 -30 24l-36 24l-34 23q-59 -38 -87 -79t-28 -97t32 -90.5t86 -34.5q66 0 106 36t40 100zM495 600q0 45 -25 71t-68 26q-48 0 -93 -39q-45 -38 -45 -102q0 -39 27 -66.5t90 -62.5q114 72 114 173z" />
    <glyph glyph-name="nine" unicode="9" 
d="M40 116q0 34 20.5 56.5t50.5 22.5t51 -20.5t21 -52.5q0 -26 -16 -47t-38 -21q-23 0 -36 9q19 -43 99 -43q65 0 119 86t93 248q-62 -80 -146 -80q-86 0 -132.5 46t-46.5 119q0 122 87 209q87 88 218 88q193 0 193 -243q0 -129 -48 -245q-47 -116 -137 -190
q-89 -73 -200 -73q-68 0 -110 34t-42 97zM223 416q0 -43 17.5 -68t50.5 -25q50 0 89 52q71 94 71 223q0 98 -69 98q-48 0 -86 -50q-73 -96 -73 -230z" />
    <glyph glyph-name="colon" unicode=":" horiz-adv-x="271" 
d="M234 393q2 -30 -20 -51.5t-48 -21.5t-47 20q-32 29 -13 78t63 46q28 0 46.5 -21t18.5 -50zM163 61q0 -30 -20.5 -51.5t-48.5 -21.5t-47 20t-19 50t20.5 52t48.5 22t47 -21t19 -50z" />
    <glyph glyph-name="semicolon" unicode=";" horiz-adv-x="257" 
d="M171 58q0 -59 -56 -118q-57 -60 -119 -89l-10 21q90 59 100 119q-23 5 -36.5 25.5t-13.5 42.5q0 31 19.5 52t48.5 21t48 -21.5t19 -52.5zM220 393q0 -30 -20.5 -51.5t-48.5 -21.5t-47 20t-19 50t20.5 52t48.5 22t47 -21t19 -50z" />
    <glyph glyph-name="less" unicode="&#x3c;" horiz-adv-x="533" 
d="M73 342l468 220l-21 -70l-349 -166l262 -161l-21 -70l-346 221z" />
    <glyph glyph-name="equal" unicode="=" horiz-adv-x="520" 
d="M104 444h394l-19 -62h-394zM54 276h394l-18 -62h-394z" />
    <glyph glyph-name="greater" unicode="&#x3e;" horiz-adv-x="533" 
d="M134 562l346 -220l-7 -26l-468 -221l21 70l347 165l-260 162z" />
    <glyph glyph-name="question" unicode="?" horiz-adv-x="430" 
d="M442 594q0 -43 -15 -77t-39 -55.5t-53 -39.5t-58 -32.5t-53 -29.5t-39 -36t-15 -47q0 -35 37 -35q47 0 72 67l25 -18q-39 -91 -127 -91q-43 0 -69 27.5t-26 75.5q0 83 89 141l36 23l39 25t33 25t30.5 30.5t17.5 33t8 40.5q0 70 -70 70q-51 0 -83.5 -38.5t-32.5 -98.5
q0 -2 0.5 -6t0.5 -5l-31 -5q-5 17 -5 35q0 68 46 115q46 48 126 48q73 0 114.5 -38t41.5 -104zM209 61q2 -47 -43.5 -67t-72.5 14q-32 29 -13 78t63 46q28 0 47 -21t19 -50z" />
    <glyph glyph-name="at" unicode="@" horiz-adv-x="735" 
d="M652 111l23 -16q-97 -185 -320 -185q-134 0 -216 94t-82 230q0 184 105 293t251 109q33 0 67.5 -7.5t72 -28t66.5 -50.5t47.5 -80.5t18.5 -113.5q0 -69 -22 -126t-59 -90q-70 -64 -136 -64q-33 0 -49.5 21.5t-16.5 58.5q0 16 2 40q-23 -57 -63 -89t-86 -32t-72 36.5
t-26 96.5q0 110 65 202q66 92 147 92q67 0 87 -81l18 68h95l-30 -97q-31 -100 -44 -148q-17 -68 -17 -92q0 -20 20 -20q62 0 105 69q43 70 43 155q0 54 -16.5 97t-41.5 69t-57.5 43t-61.5 23.5t-57 6.5q-120 0 -214 -88q-47 -44 -74.5 -115t-27.5 -157q0 -119 72 -202
q73 -82 189 -82q91 0 171 40q82 40 124 120zM297 121q48 0 91 97q43 96 43 168q0 27 -9 43.5t-17 20.5t-15 4q-35 0 -68 -48q-32 -47 -50 -109q-17 -63 -17 -109q0 -37 10 -52t32 -15z" />
    <glyph glyph-name="A" unicode="A" horiz-adv-x="696" 
d="M615 39h12l-10 -39h-313l9 39h46q24 0 34 8t10 31q0 2 -0.5 11.5t-0.5 12.5l-13 123h-228l-61 -100q-51 -86 6 -86h40l-10 -39h-206l10 39h13q33 0 55.5 18.5t50.5 67.5l360 611h71l72 -634q4 -34 16.5 -48.5t36.5 -14.5zM184 265h200l-30 286z" />
    <glyph glyph-name="B" unicode="B" horiz-adv-x="666" 
d="M669 582q0 -88 -64 -137q-63 -49 -155 -66q74 -6 116.5 -46t42.5 -99q0 -56 -27 -103t-73 -75q-92 -56 -198 -56h-365l11 39h35q27 0 41.5 13.5t24.5 49.5l138 518q6 22 6 35q0 28 -37 28h-35l11 39h342q86 0 136 -38t50 -102zM450 261q0 43 -20 67.5t-59 24.5h-85
l-68 -251q-9 -32 -2.5 -47.5t34.5 -15.5h49q59 0 105 72q46 71 46 150zM510 601q0 37 -18 59.5t-51 22.5h-28q-22 0 -34 -12t-20 -42l-63 -236h77q41 0 72 36q65 71 65 172z" />
    <glyph glyph-name="C" unicode="C" horiz-adv-x="639" 
d="M643 735h33l-59 -284h-38q2 32 2 40q0 77 -27 135q-31 70 -109 70q-88 0 -167 -111q-38 -55 -61 -145t-23 -196q0 -96 37.5 -151.5t95.5 -55.5q73 0 133 55.5t96 157.5l33 -15q-21 -69 -59 -121.5t-84 -79.5q-83 -49 -163 -49q-108 0 -179 74q-71 76 -71 207
q0 68 16.5 135t50.5 127.5t81 107t111.5 73.5t138.5 27q46 0 91 -24t69 -62z" />
    <glyph glyph-name="D" unicode="D" horiz-adv-x="748" 
d="M730 445q0 -118 -52 -219q-53 -101 -147 -164q-95 -62 -212 -62h-373l11 39h35q27 0 41.5 13.5t24.5 49.5l138 518q6 22 6 35q0 28 -37 28h-35l11 39h288q169 0 239 -87q62 -75 62 -190zM574 494q0 84 -33 136.5t-93 52.5h-32q-25 0 -36.5 -12t-22.5 -51l-139 -518
q-5 -28 -5 -35q0 -16 8.5 -22t28.5 -6h40q85 0 152 73q68 74 99 175q33 103 33 207z" />
    <glyph glyph-name="E" unicode="E" horiz-adv-x="649" 
d="M141 722h538l-51 -241h-38q7 49 7 89q0 80 -23 98q-20 15 -59 15h-99q-25 0 -36.5 -12t-22.5 -51l-60 -226h61q44 0 73 31t51 111h36l-88 -325h-36q14 61 14 84q0 59 -62 59h-60l-68 -252q-9 -32 -2.5 -47.5t34.5 -15.5h85q28 0 36 1q40 2 66 28q58 62 118 205h37
l-90 -273h-556l11 39h35q27 0 41.5 13.5t24.5 49.5l138 518q6 24 6 35q0 28 -37 28h-35z" />
    <glyph glyph-name="F" unicode="F" horiz-adv-x="621" 
d="M141 722h538l-51 -241h-38q7 49 7 89q0 80 -23 98q-20 15 -59 15h-99q-25 0 -36.5 -12t-22.5 -51l-60 -226h61q44 0 73 31t51 111h36l-88 -325h-36q14 61 14 84q0 59 -62 59h-60l-68 -252q-5 -28 -5 -35q0 -16 8.5 -22t28.5 -6h49l-11 -39h-342l11 39h35q27 0 41 13
t25 50l138 518q3 11 6 35q0 28 -37 28h-35z" />
    <glyph glyph-name="G" unicode="G" horiz-adv-x="693" 
d="M368 329h317l-11 -39h-32q-25 0 -37 -12.5t-22 -50.5l-65 -244h-37l-23 100q-90 -98 -175 -98q-109 0 -180 71q-70 70 -70 202q0 172 104 322q50 71 124 113.5t156 42.5q45 0 85 -22t65 -61l50 82h34l-49 -284h-37q0 73 -13.5 124t-36 76t-44.5 35t-47 10q-67 0 -118 -62
q-59 -71 -96 -270q-15 -81 -15 -137q0 -92 30 -141t78 -49q74 0 106 113l21 77q8 30 8 40q0 23 -32 23h-50z" />
    <glyph glyph-name="H" unicode="H" horiz-adv-x="808" 
d="M551 722h327l-11 -39h-35q-27 0 -42.5 -13.5t-24.5 -49.5l-138 -518q-6 -22 -6 -35q0 -28 37 -28h35l-12 -39h-326l11 39h35q27 0 41 13t25 50l66 248h-248l-67 -248q-9 -32 -2.5 -47.5t34.5 -15.5h34l-11 -39h-327l11 39h35q27 0 41 13t25 50l138 518q6 24 6 35
q0 28 -37 28h-35l11 39h328l-11 -39h-35q-27 0 -42 -13t-24 -50l-57 -215h249l56 215q6 22 6 35q0 28 -37 28h-35z" />
    <glyph glyph-name="I" unicode="I" horiz-adv-x="400" 
d="M141 722h328l-11 -39h-35q-27 0 -42 -13t-24 -50l-139 -518q-5 -28 -5 -35q0 -16 8.5 -22t28.5 -6h34l-11 -39h-327l11 39h35q27 0 41 13t25 50l138 518q6 24 6 35q0 28 -37 28h-35z" />
    <glyph glyph-name="J" unicode="J" horiz-adv-x="510" 
d="M253 722h342l-11 -39h-35q-28 0 -42.5 -13t-23.5 -50l-117 -436q-27 -104 -90.5 -151.5t-168.5 -47.5q-81 0 -114 45q-34 46 -34 110q0 55 24.5 91.5t68.5 36.5q28 0 48 -21.5t20 -51.5q0 -33 -22.5 -56t-52.5 -23q-24 0 -40 16q-4 -7 -4 -26q0 -25 22 -50q23 -24 54 -24
q86 0 127 152l118 436q6 22 6 35q0 28 -37 28h-49z" />
    <glyph glyph-name="K" unicode="K" horiz-adv-x="776" 
d="M589 722h244l-12 -39h-22q-45 0 -142 -80l-185 -155l138 -346q24 -63 75 -63h23l-11 -39h-324l12 39h28q20 0 28 5.5t8 20.5q0 10 -10 37l-91 240l-84 -72l-46 -168q-9 -32 -2.5 -47.5t34.5 -15.5h27l-11 -39h-320l11 39h35q27 0 41 13t25 50l138 518q3 11 6 35
q0 28 -37 28h-35l11 39h328l-11 -39h-35q-27 0 -42 -13t-24 -50l-76 -284l314 272q42 38 42 58q0 17 -26 17h-33z" />
    <glyph glyph-name="L" unicode="L" horiz-adv-x="622" 
d="M548 280h37l-92 -280h-547l11 39h35q26 0 41.5 13t24.5 50l138 518q6 21 6 35q0 28 -37 28h-35l11 39h336l-12 -39h-42q-27 0 -42 -13t-24 -50l-139 -518q-9 -32 -2.5 -47.5t34.5 -15.5h76q49 0 82 18q32 18 64 69t76 154z" />
    <glyph glyph-name="M" unicode="M" horiz-adv-x="950" 
d="M740 722h279l-11 -39h-35q-28 0 -43 -13t-24 -50l-137 -518q-7 -20 -7 -35q0 -28 37 -28h35l-11 -39h-328l12 39h35q27 0 42 13t24 50l156 581h-4l-414 -683h-37l-43 683h-4l-156 -581q-6 -23 -6 -35q0 -28 37 -28h35l-11 -39h-215l11 39h35q27 0 41 14t25 54l138 513
q6 22 6 35q0 28 -37 28h-35l11 39h293q15 -222 29 -467z" />
    <glyph glyph-name="N" unicode="N" horiz-adv-x="742" 
d="M698 620l-167 -620h-44l-260 557h-4l-121 -455q-9 -32 -2.5 -47.5t33.5 -15.5h35l-11 -39h-211l11 39h35q27 0 41 13t25 50l138 518q6 24 6 35q0 28 -37 28h-35l11 39h204l206 -469h4l98 367q6 21 6 35q0 28 -36 28h-35l11 39h212l-11 -39h-35q-28 0 -43 -13t-24 -50z
" />
    <glyph glyph-name="O" unicode="O" horiz-adv-x="720" 
d="M286 25q68 0 131 90q64 93 98 211q35 122 35 219q0 72 -25.5 112t-75.5 40q-67 0 -131 -93t-98 -213q-35 -123 -35 -218q0 -70 26 -109t75 -39zM275 -15q-121 0 -182 70t-61 184q0 90 32 179.5t87 160.5q56 72 137.5 114.5t171.5 42.5q120 0 181 -70q62 -71 62 -183
q0 -122 -53 -237q-53 -114 -153 -187q-101 -74 -222 -74z" />
    <glyph glyph-name="P" unicode="P" horiz-adv-x="677" 
d="M357 620l-72 -271h85q47 0 83 42q69 79 69 184q0 49 -21.5 78.5t-67.5 29.5h-40q-11 0 -18.5 -14t-17.5 -49zM250 39h41l-11 -39h-334l11 39h35q43 0 51 29l153 552q6 22 6 35q0 28 -37 28h-35l11 39h302q117 0 178 -42.5t61 -124.5q0 -117 -88 -181q-89 -65 -211 -65
h-110l-55 -207q-5 -28 -5 -35q0 -16 8.5 -22t28.5 -6z" />
    <glyph glyph-name="Q" unicode="Q" horiz-adv-x="720" 
d="M703 483q0 -135 -66 -260q-65 -123 -176 -188l3 -35q4 -34 5 -63q8 -64 31 -64q13 0 28.5 27.5t24.5 71.5h36q-20 -93 -57.5 -130t-106.5 -37q-52 0 -78 28t-26 77q0 31 8 79q-32 -4 -54 -4q-121 0 -182 70t-61 184q0 90 32 179.5t87 160.5q56 72 137.5 114.5t171.5 42.5
q120 0 181 -70q62 -71 62 -183zM551 532q0 77 -26 121t-76 44q-72 0 -135 -92q-63 -91 -96 -214q-33 -121 -33 -225q20 38 58 62t80 24q87 0 119 -102q48 82 78 192q31 108 31 190zM202 100q0 -32 25 -53.5t59 -21.5q27 0 52 13q14 68 14 105q0 62 -42 62q-44 0 -76 -32
t-32 -73z" />
    <glyph glyph-name="R" unicode="R" horiz-adv-x="698" 
d="M689 570q0 -92 -66.5 -147.5t-183.5 -65.5q104 -24 104 -164q0 -19 -3 -51q0 -8 -0.5 -18t-1 -15.5t-0.5 -8.5q0 -41 14 -41q18 0 31.5 23.5t31.5 86.5h36q-29 -96 -66 -135.5t-97 -42.5q-59 0 -83 18t-24 64q0 23 8 95t8 97q0 79 -66 79h-49l-64 -242q-6 -24 -6 -35
q0 -16 8.5 -22t29.5 -6h34l-11 -39h-327l11 39h35q26 0 40.5 13.5t23.5 49.5l139 518q6 24 6 35q0 28 -36 28h-36l12 39h348q94 0 147 -41t53 -111zM531 592q0 91 -80 91h-59q-12 0 -19.5 -14t-16.5 -49l-62 -237h62q76 0 125 61q50 62 50 148z" />
    <glyph glyph-name="S" unicode="S" horiz-adv-x="605" 
d="M257 557q0 -64 106 -113q41 -17 68.5 -31.5t60.5 -40t50 -62t17 -82.5q0 -64 -28 -113t-77 -77q-94 -53 -213 -53q-63 0 -113.5 22.5t-76.5 61.5l-43 -83h-30l66 288h37q-2 -32 -2 -50q0 -199 175 -199q60 0 103 36q45 38 45 103q0 68 -103 113q-41 19 -65 32t-57 39
t-49 61.5t-16 80.5q0 123 79 184q80 62 198 62q106 0 179 -79l44 78h30l-61 -265h-38q3 24 3 46q0 109 -55 149q-44 32 -98 32q-50 0 -93 -37t-43 -103z" />
    <glyph glyph-name="T" unicode="T" horiz-adv-x="672" 
d="M142 722h589l-56 -266h-37q9 82 9 117q0 61 -16 85.5t-50 24.5h-34q-26 0 -37 -11.5t-22 -51.5l-138 -518q-6 -22 -6 -35q0 -28 36 -28h35l-11 -39h-328l12 39h35q28 0 41.5 12.5t24.5 50.5l138 518q7 25 7 40q0 14 -6.5 18.5t-23.5 4.5h-34q-32 0 -54 -16
q-49 -32 -126 -211h-37z" />
    <glyph glyph-name="U" unicode="U" horiz-adv-x="726" 
d="M602 722h211l-11 -39h-35q-28 0 -42.5 -13t-23.5 -50l-106 -397q-32 -116 -103 -177q-70 -61 -209 -61q-224 0 -224 159q0 36 12 79l106 397q6 22 6 35q0 28 -36 28h-35l11 39h329l-12 -39h-35q-28 0 -42.5 -13t-23.5 -50l-107 -397q-10 -37 -10 -69q0 -113 135 -113
q75 0 121 42t72 140l106 397q6 21 6 35q0 28 -37 28h-35z" />
    <glyph glyph-name="V" unicode="V" horiz-adv-x="699" 
d="M586 722h208l-12 -39h-12q-35 0 -58.5 -18t-54.5 -69l-378 -611h-71l-52 635q-5 60 -46 62l-16 1l11 39h313l-11 -39h-46q-25 0 -35.5 -9.5t-10.5 -32.5q0 -2 0.5 -10.5t0.5 -10.5l35 -440l259 416q31 52 31 66q0 21 -27 21h-40z" />
    <glyph glyph-name="W" unicode="W" horiz-adv-x="996" 
d="M867 722h224l-11 -39h-15q-34 0 -58.5 -20t-51.5 -67l-340 -611h-71l-18 499l-275 -499h-71l-24 635q-3 63 -51 63h-11l11 39h300l-11 -39h-33q-27 0 -36.5 -5.5t-9.5 -22.5v-27q1 -16 1 -27q4 -135 9 -397l197 354l-3 62q-3 63 -43 63h-13l11 39h309l-11 -39h-47
q-27 0 -36 -6t-10 -24v-23q1 -13 1 -23q0 -4 0.5 -14.5t1 -30.5t0.5 -39l4 -159q2 -49 4 -159l217 391q27 48 27 65q0 22 -29 22h-50z" />
    <glyph glyph-name="X" unicode="X" horiz-adv-x="719" 
d="M585 722h218l-11 -39h-20q-65 0 -122 -63l-187 -211l92 -307q19 -63 64 -63h20l-11 -39h-344l11 39h48q34 0 34 26q0 13 -7 37l-59 204l-185 -213q-22 -25 -22 -42q0 -12 24 -12h40l-12 -39h-224l11 39h22q33 0 59 13.5t58 49.5l215 247l-80 271q-11 35 -27 49t-40 14
h-19l12 39h337l-12 -39h-39q-35 0 -35 -26q0 -13 7 -37l48 -172l161 185q22 26 22 38t-24 12h-34z" />
    <glyph glyph-name="Y" unicode="Y" horiz-adv-x="684" 
d="M581 722h199l-11 -39h-18q-30 0 -52 -17q-19 -16 -60 -69l-225 -296l-53 -199q-6 -32 -6 -35q0 -28 37 -28h35l-11 -39h-328l11 39h35q28 0 42.5 12.5t23.5 50.5l53 200l-83 318q-17 63 -59 63h-15l10 39h325l-11 -39h-41q-42 0 -42 -27q0 -10 8 -36l71 -252l180 229
q33 47 33 62q0 24 -25 24h-34z" />
    <glyph glyph-name="Z" unicode="Z" horiz-adv-x="615" 
d="M108 459h-38l84 263h534l-12 -39l-537 -644h188q42 0 69 15q57 31 139 224h37l-87 -278h-546l11 39l536 644h-189q-26 0 -43.5 -7t-40.5 -28q-45 -41 -105 -189z" />
    <glyph glyph-name="bracketleft" unicode="[" horiz-adv-x="328" 
d="M198 818h236l-14 -48h-126l-229 -851h126l-14 -48h-235z" />
    <glyph glyph-name="backslash" unicode="\" horiz-adv-x="341" 
d="M102 722l239 -722h-86l-240 722h87z" />
    <glyph glyph-name="bracketright" unicode="]" horiz-adv-x="328" 
d="M166 818h235l-257 -947h-234l14 48h125l228 851h-125z" />
    <glyph glyph-name="asciicircum" unicode="^" horiz-adv-x="397" 
d="M251 635l97 -203h-82l-56 123l-118 -123h-82l206 203h35z" />
    <glyph glyph-name="underscore" unicode="_" horiz-adv-x="464" 
d="M470 -52l-15 -55h-464l15 55h464z" />
    <glyph glyph-name="grave" unicode="`" horiz-adv-x="438" 
d="M343 547l-25 -13q-17 20 -57 58q-75 73 -75 92q0 20 14 33t38 13q34 0 48 -32q19 -44 57 -151z" />
    <glyph glyph-name="a" unicode="a" horiz-adv-x="597" 
d="M560 166l30 -18q-78 -162 -175 -162q-38 0 -53.5 20.5t-15.5 68.5q0 21 5 49q-27 -66 -76.5 -102.5t-106.5 -36.5q-63 0 -98.5 42t-35.5 113q0 124 78 228t179 104q85 0 114 -92l20 78h136l-80 -288q-20 -77 -20 -98q0 -22 19 -22q11 0 35 34q25 33 45 82zM220 38
q44 0 82 54q36 51 56 117t20 121q0 46 -16.5 68.5t-40.5 22.5q-44 0 -81.5 -56.5t-56 -125t-18.5 -121.5q0 -80 55 -80z" />
    <glyph glyph-name="b" unicode="b" horiz-adv-x="537" 
d="M513 316q0 -124 -83 -228q-82 -103 -197 -103q-91 0 -146.5 46.5t-55.5 128.5q0 41 12 85l106 394q4 21 4 27q0 20 -29 20h-31l11 39l209 11l-97 -355q30 42 73.5 66.5t88.5 24.5q64 0 99.5 -42.5t35.5 -113.5zM173 224q-17 -66 -17 -102q0 -43 16.5 -67t44.5 -24
q39 0 76 41t63 128q23 75 23 128q0 44 -17 66t-45 22q-40 0 -79 -50.5t-65 -141.5z" />
    <glyph glyph-name="c" unicode="c" horiz-adv-x="467" 
d="M459 369q0 -34 -22 -65t-56 -31q-59 0 -59 59q0 26 15.5 47t40.5 21q24 0 47 -18q-3 23 -27 39t-59 16q-68 0 -117 -70t-49 -195q0 -62 24 -97t63 -35q85 0 140 109l30 -15q-75 -149 -200 -149q-87 0 -141 50t-54 138q0 128 82 213q83 86 198 86q65 0 104.5 -26.5
t39.5 -76.5z" />
    <glyph glyph-name="d" unicode="d" horiz-adv-x="597" 
d="M428 725l209 11l-166 -606q-10 -36 -10 -60q0 -20 15 -20q13 0 38 34q27 36 46 82l31 -18q-80 -162 -173 -162q-73 0 -73 89q0 23 6 49q-29 -68 -77.5 -103.5t-105.5 -35.5q-63 0 -98.5 42t-35.5 113q0 124 78 228t179 104q47 0 77.5 -26.5t34.5 -76.5l71 270q4 21 4 27
q0 20 -30 20h-30zM378 330q0 46 -16.5 68.5t-40.5 22.5q-35 0 -66 -37t-63 -127q-27 -75 -27 -139q0 -80 55 -80q30 0 71 41q41 43 68 136q19 60 19 115z" />
    <glyph glyph-name="e" unicode="e" horiz-adv-x="482" 
d="M467 368q0 -62 -84 -114q-83 -50 -211 -73q-4 -19 -4 -42q0 -97 79 -97q91 0 155 108l27 -19q-38 -71 -96.5 -108.5t-118.5 -37.5q-84 0 -131.5 49.5t-47.5 132.5q0 121 80 213t197 92q155 0 155 -104zM352 375q0 28 -14 43t-36 15q-53 0 -86 -78q-27 -62 -39 -136
q175 34 175 156z" />
    <glyph glyph-name="f" unicode="f" horiz-adv-x="350" 
d="M-69 -201q-49 0 -82 28t-33 74q0 29 18 50.5t41 21.5q25 0 39.5 -14.5t14.5 -36.5q0 -26 -17 -42t-42 -16q14 -29 55 -29q39 0 65.5 50.5t52.5 157.5l88 368h-65l13 47h64l8 35q15 65 44 120q19 39 45 66q65 67 162 67q49 0 82 -28t33 -74q0 -29 -18 -50.5t-41 -21.5
q-26 0 -40 14t-14 37q0 26 17 42t42 16q-15 29 -55 29q-46 0 -78 -75q-28 -67 -51 -177h96l-13 -47h-95l-80 -331q-25 -104 -76 -181q-64 -100 -180 -100z" />
    <glyph glyph-name="g" unicode="g" horiz-adv-x="540" 
d="M589 435q0 -52 -46 -52q-34 0 -34 31q0 11 12 20.5t27 9.5q0 8 -15 8q-18 0 -38.5 -17t-24.5 -37q13 -22 13 -57q0 -80 -61 -132q-59 -52 -166 -52q-24 0 -59 6q-38 0 -63 -11t-25 -31q0 -30 69 -30h37q21 1 51 1q190 0 190 -126q0 -56 -53 -105q-62 -62 -229 -62
q-91 0 -143.5 26t-52.5 72q0 63 96 92q-50 26 -50 83q0 44 29 73.5t87 38.5q-51 36 -51 101q0 88 67 137q68 50 160 50q84 0 127 -36q39 47 86 47q26 0 43 -13t17 -35zM358 -82q0 24 -25 37q-11 5 -28 8q-24 3 -67 3q-88 0 -148 -9q-36 -18 -36 -54q0 -65 130 -65
q70 0 122 20q52 19 52 60zM360 362q0 31 -14 51t-38 20q-45 0 -70 -52q-25 -50 -25 -109q0 -75 52 -75q43 0 68 51q27 51 27 114z" />
    <glyph glyph-name="h" unicode="h" horiz-adv-x="608" 
d="M572 166l30 -18q-76 -162 -172 -162q-89 0 -89 79q0 35 22 116l27 101q13 48 13 75q0 45 -41 45q-32 0 -81 -57q-48 -54 -67 -124l-58 -221h-140l174 639q4 15 4 28q0 19 -29 19h-31l12 39l207 11l-111 -401q35 63 86 100t109 37q105 0 105 -96q0 -32 -12 -79l-47 -168
q-10 -36 -10 -59q0 -20 15 -20q13 0 38 34q27 36 46 82z" />
    <glyph glyph-name="i" unicode="i" horiz-adv-x="340" 
d="M340 623q0 -30 -22.5 -52.5t-54.5 -22.5q-30 0 -51 21.5t-21 50.5q0 31 22.5 53.5t53.5 22.5t52 -21t21 -52zM304 166l29 -18q-76 -163 -172 -163q-90 0 -90 79q0 29 23 116l41 149q12 41 12 60t-15 19q-14 0 -39 -33.5t-47 -82.5l-30 18q76 162 173 162q89 0 89 -78
q0 -33 -23 -119l-41 -147q-12 -42 -11 -60t16 -18q13 0 38 34q27 35 47 82z" />
    <glyph glyph-name="j" unicode="j" horiz-adv-x="278" 
d="M271 393q0 -46 -10 -83l-65 -253q-38 -142 -98 -198q-61 -58 -126 -58q-49 0 -82 21t-33 61q0 28 17.5 48t43.5 20q23 0 37 -13.5t14 -36.5q0 -21 -13.5 -34.5t-31.5 -13.5q-11 0 -17 3q3 -20 42 -20q30 0 52 41.5t45 129.5l82 321q11 42 11 60q0 19 -15 19
q-13 0 -37 -32t-48 -81l-30 16q76 160 167 160q95 0 95 -77zM332 623q0 -30 -22.5 -52.5t-53.5 -22.5q-30 0 -51.5 21t-21.5 51q0 31 22.5 53.5t53.5 22.5t52 -21t21 -52z" />
    <glyph glyph-name="k" unicode="k" horiz-adv-x="569" 
d="M145 725l207 11l-115 -431q39 81 95 124t120 43q51 0 82 -26t31 -71q0 -64 -53.5 -107t-142.5 -58q25 -6 43.5 -31.5t24.5 -68.5q7 -57 27 -57q23 0 79 113l26 -18q-43 -85 -84 -124t-93 -39q-61 0 -77 33q-13 28 -13 79q0 11 2 38t2 31q0 33 -24 33q-22 0 -22 24
q0 5 2 11.5t11.5 14t24.5 7.5q4 0 21 -2t22 -2q50 1 78.5 32.5t28.5 75.5q0 25 -12.5 40.5t-31.5 15.5q-37 0 -85 -49q-48 -51 -83 -115q-37 -67 -50 -122l-34 -130h-136l173 639q4 15 4 28q0 19 -29 19h-31z" />
    <glyph glyph-name="l" unicode="l" horiz-adv-x="294" 
d="M127 726l208 11l-167 -608q-11 -39 -11 -59t15 -20q14 0 39 34q27 36 46 82l30 -18q-78 -162 -172 -162q-89 0 -89 79q0 35 22 116l124 459q4 20 4 27q0 20 -30 20h-30z" />
    <glyph glyph-name="m" unicode="m" horiz-adv-x="906" 
d="M877 166l30 -18q-78 -163 -173 -163q-43 0 -66 21t-23 59q0 32 23 116l27 101q14 51 14 78q0 23 -9 32.5t-29 9.5q-32 0 -86 -78q-52 -76 -72 -146l-50 -178h-134l76 282q14 53 14 78q0 23 -9 32.5t-29 9.5q-33 0 -85 -75q-52 -73 -72 -149l-48 -178h-135l90 339
q10 36 10 49q0 20 -17 20q-15 0 -39.5 -33.5t-45.5 -82.5l-30 18q77 162 173 162q40 0 56.5 -18t16.5 -55q0 -35 -18 -115q41 86 101 136q61 52 119 52q85 0 85 -88q0 -36 -14 -100q37 79 99 133q62 55 120 55q102 0 102 -92q0 -38 -13 -83l-49 -168q-11 -42 -11 -59
q0 -20 16 -20q30 0 85 116z" />
    <glyph glyph-name="n" unicode="n" horiz-adv-x="637" 
d="M600 166l30 -18q-78 -163 -172 -163q-44 0 -67 21t-23 59q0 32 23 116l27 101q13 48 13 76q0 24 -8 34t-29 10q-37 0 -90 -71q-50 -69 -73 -153l-47 -178h-140l95 340q19 68 -7 68q-15 0 -39 -32.5t-47 -83.5l-30 18q76 162 173 162q40 0 56.5 -18t16.5 -55
q0 -39 -17 -115q40 82 98 135q59 53 121 53q106 0 106 -96q0 -38 -12 -79l-47 -168q-11 -36 -11 -59q0 -20 15 -20q13 0 38 34q26 35 47 82z" />
    <glyph glyph-name="o" unicode="o" horiz-adv-x="529" 
d="M230 25q45 0 79 51t48.5 113.5t14.5 116.5q0 67 -15.5 97t-48.5 30q-44 0 -79 -51q-64 -95 -64 -238q0 -119 65 -119zM504 282q0 -121 -82 -209q-81 -88 -199 -88q-88 0 -138 51.5t-50 138.5q0 131 79 213q79 84 202 84q86 0 137 -52.5t51 -137.5z" />
    <glyph glyph-name="p" unicode="p" horiz-adv-x="574" 
d="M571 319q0 -75 -32 -153q-31 -76 -92 -129q-59 -52 -131 -52q-49 0 -80 30t-32 80l-52 -198q-4 -13 -4 -26q0 -20 29 -20h51l-11 -39h-290l11 39h30q22 0 31.5 9.5t16.5 36.5l120 442q9 39 9 51q0 18 -15 18q-34 0 -87 -116l-29 18q75 162 172 162q76 0 76 -74
q0 -25 -9 -74q33 70 85 109t106 39q61 0 94 -41.5t33 -111.5zM440 340q0 79 -53 79q-30 3 -69 -43.5t-66 -113.5t-25 -119q0 -106 59 -106q44 0 81 56.5t55 125t18 121.5z" />
    <glyph glyph-name="q" unicode="q" horiz-adv-x="572" 
d="M529 308l-108 -402q-5 -20 -5 -26q0 -19 28 -19h29l-13 -49h-291l13 49h54q22 0 31.5 9.5t16.5 35.5l45 172q-29 -43 -72 -68t-88 -25q-64 0 -99 46.5t-35 122.5q0 127 81 221q81 96 198 96q127 0 154 -119q44 69 83 117l32 -8q-30 -61 -54 -153zM390 334
q0 43 -15.5 67.5t-43.5 24.5q-49 0 -88 -51q-75 -97 -75 -233q0 -46 19.5 -73t47.5 -27q44 0 82 56q39 58 55 122q18 66 18 114z" />
    <glyph glyph-name="r" unicode="r" horiz-adv-x="479" 
d="M487 393q0 -32 -20 -56t-48 -24q-24 0 -41 16.5t-17 38.5q0 14 11 34.5t24 30.5q-44 -3 -96 -94q-51 -90 -75 -181l-42 -158h-137l76 280q23 87 25 108q0 20 -17 20q-14 0 -37 -32.5t-47 -83.5l-30 18q77 161 175 161q65 0 65 -79q0 -33 -22 -120q38 98 81 148.5
t102 50.5q31 0 50.5 -20.5t19.5 -57.5z" />
    <glyph glyph-name="s" unicode="s" horiz-adv-x="442" 
d="M177 21q43 0 72 21t29 61q0 27 -21.5 43.5t-52.5 25.5t-62 21t-52.5 41t-21.5 76q0 75 59 118.5t154 43.5q66 0 107.5 -24.5t41.5 -70.5q0 -31 -16 -51q-17 -20 -45 -20q-29 0 -42 16q-10 17 -11 37.5t12.5 37.5t36.5 17q-11 11 -38 18t-53 7q-46 0 -76 -20t-30 -58
q0 -44 79 -71q27 -8 41 -13t37.5 -17t35.5 -24.5t22 -34t10 -47.5q0 -77 -58.5 -123t-167.5 -46q-69 0 -112 31t-43 82q0 30 16.5 48.5t46.5 18.5q54 0 54 -54q0 -24 -18 -42.5t-42 -18.5q32 -29 108 -29z" />
    <glyph glyph-name="t" unicode="t" horiz-adv-x="375" 
d="M269 458h130l-13 -47h-130l-75 -281q-7 -24 -7 -46q0 -44 37 -44q47 0 92 128h38q-35 -99 -74 -141q-41 -42 -120 -42q-106 0 -106 101q0 26 8 56l72 269h-66l13 47h23q55 0 101 43t91 140h37z" />
    <glyph glyph-name="u" unicode="u" horiz-adv-x="621" 
d="M376 59q0 43 18 115q-94 -189 -212 -189q-106 0 -106 97q0 38 12 78l48 169q9 33 10 59q0 19 -15 19q-32 0 -85 -116l-30 18q76 163 173 163q89 0 89 -79q0 -29 -23 -116l-27 -101q-13 -48 -13 -77q0 -43 34 -43q38 0 90 79q53 80 74 160l42 163h139l-94 -339
q-9 -31 -9 -51q0 -18 15 -18q17 0 40.5 32t45.5 84l30 -18q-76 -163 -172 -163q-40 0 -57 18.5t-17 55.5z" />
    <glyph glyph-name="v" unicode="v" horiz-adv-x="504" 
d="M492 358q0 -125 -77 -245q-37 -58 -93 -93t-118 -35q-55 0 -88 37t-33 93q0 35 9 66l44 147q10 32 11 59q0 20 -15 20t-38.5 -32t-47.5 -84l-30 18q76 163 173 163q89 0 89 -79q0 -32 -23 -116l-22 -81q-10 -33 -10 -65q0 -36 14.5 -56t39.5 -20q35 0 67.5 31t51.5 80
q40 94 47 175q-59 29 -59 79q0 22 14.5 37t34.5 15q28 0 43.5 -33t15.5 -81z" />
    <glyph glyph-name="w" unicode="w" horiz-adv-x="792" 
d="M778 358q0 -83 -34 -166q-33 -85 -102 -146q-67 -61 -154 -61q-46 0 -75.5 32.5t-35.5 84.5q-72 -117 -179 -117q-52 0 -84.5 34.5t-32.5 86.5q0 27 7 56q7 28 21 71q16 48 19 61l12 45q8 32 8 46q0 13 -3 17.5t-13 4.5q-14 0 -38 -33t-46 -83l-30 18q76 163 173 163
q89 0 89 -80q0 -50 -30 -141q-29 -93 -29 -129q0 -32 13.5 -49.5t34.5 -17.5q77 0 139 222l50 181h139l-50 -182l-10 -36l-12 -42q-11 -52 -11 -71q0 -35 14 -53.5t37 -18.5q55 0 108 89q52 89 58 181q-28 18 -46.5 44.5t-18.5 50.5q0 22 14.5 37t38.5 15q28 0 43.5 -33
t15.5 -81z" />
    <glyph glyph-name="x" unicode="x" horiz-adv-x="564" 
d="M566 408q0 -35 -20 -54t-44 -19q-17 0 -29 16t-12 37q0 18 15 45q-36 -11 -73 -58q-35 -44 -59 -98l46 -181q10 -43 31 -43q24 0 68 113l28 -18q-33 -85 -70 -124t-88 -39q-46 0 -70 30.5t-37 91.5l-7 34q-77 -147 -158 -154q-71 0 -71 65q0 30 17 50t39 20q23 0 38 -15
t15 -38q0 -25 -17 -47q24 10 58 58q36 50 63 114l-43 167q-3 6 -5.5 15t-4.5 14.5t-6.5 9.5t-11.5 4q-25 0 -69 -113l-29 18q34 86 69 124.5t86 38.5q85 0 106 -107l7 -36q81 142 165 142q31 0 52 -16.5t21 -46.5z" />
    <glyph glyph-name="y" unicode="y" horiz-adv-x="506" 
d="M505 411q0 -92 -68 -239q-68 -146 -169 -259q-102 -114 -185 -114q-44 0 -68.5 22.5t-24.5 55.5q0 36 19.5 54t43.5 18q23 0 39.5 -18t16.5 -42q0 -34 -22 -53q37 2 85.5 39.5t90.5 97.5q-56 248 -84 331q-27 86 -55 86q-16 0 -31.5 -22.5t-37.5 -75.5l-30 15
q31 83 67 124t86 41q69 7 114 -95q11 -24 25 -74q14 -51 21 -88q11 -48 23 -108q73 139 95 233q-49 39 -49 79q0 22 14 37t33 15q21 0 36 -18t15 -42z" />
    <glyph glyph-name="z" unicode="z" horiz-adv-x="465" 
d="M467 456q0 -83 -85 -158q-84 -75 -218 -123q-69 -25 -85 -74q47 30 109 30q35 0 77 -24q44 -23 65 -23q20 0 44.5 28.5t44.5 77.5l28 -14q-36 -96 -76.5 -143.5t-98.5 -47.5q-32 0 -96 33q-65 33 -103 33q-17 0 -17 -37q0 -11 -6 -19.5t-13 -8.5q-19 0 -24 4.5t-5 19.5
q0 88 68.5 160t196.5 114q110 36 127 92q-28 -16 -69 -16q-40 0 -98 13t-76 13q-53 0 -92 -84l-29 17q37 83 76.5 122t89.5 39q43 0 103 -28q63 -27 96 -27q13 0 19.5 8.5t8 18t7 18t17.5 8.5q14 0 14 -22z" />
    <glyph glyph-name="braceleft" unicode="{" horiz-adv-x="395" 
d="M122 345q93 -31 93 -126q0 -34 -11 -75l-32 -117q-7 -22 -7 -44q0 -35 19.5 -54t55.5 -19l-12 -40q-84 0 -126 47q-41 47 -41 109q0 29 15 83l23 85q12 44 12 66q0 50 -61 66l17 42q57 5 90 60q9 13 17 38q10 31 12 41l13 53q21 91 91 168q36 41 88 65.5t108 24.5
l-12 -39q-47 0 -81 -31t-49 -86l-33 -117q-47 -161 -189 -200z" />
    <glyph glyph-name="bar" unicode="|" horiz-adv-x="179" 
d="M256 722l-247 -910h-74l246 910h75z" />
    <glyph glyph-name="braceright" unicode="}" horiz-adv-x="395" 
d="M286 343q-93 31 -93 126q0 34 11 75l32 117q7 22 7 44q0 35 -19.5 54t-55.5 19l12 40q84 0 125 -47q42 -47 42 -109q0 -29 -15 -83l-23 -85q-12 -44 -12 -66q0 -50 61 -66l-17 -42q-52 -5 -91 -60q-7 -10 -16 -38q-10 -31 -12 -41l-13 -53q-21 -91 -91 -168
q-36 -41 -88 -65.5t-108 -24.5l12 39q47 0 81 31t49 86l33 117q47 161 189 200z" />
    <glyph glyph-name="asciitilde" unicode="~" horiz-adv-x="521" 
d="M65 233h-42q22 75 61.5 120t90.5 45q41 0 111 -39t94 -39q29 0 49.5 21t38.5 67h42q-22 -76 -61 -121t-90 -45q-43 0 -114 39q-70 39 -92 39q-29 0 -49.5 -21t-38.5 -66z" />
    <glyph glyph-name="uni00A0" unicode="&#xa0;" horiz-adv-x="261" 
 />
    <glyph glyph-name="exclamdown" unicode="&#xa1;" horiz-adv-x="314" 
d="M219 513h39q-15 -52 -24 -133l-15 -142q-4 -53 -16 -122q-24 -125 -111 -125q-24 0 -39.5 15.5t-15.5 41.5q0 45 29 115l78 169q49 102 75 181zM213 664q0 30 20.5 51.5t48.5 21.5t47 -20t19 -50t-20.5 -52t-48.5 -22t-47 21t-19 50z" />
    <glyph glyph-name="cent" unicode="&#xa2;" horiz-adv-x="467" 
d="M229 -15l-13 -62h-28l13 64q-76 8 -121 57t-45 129q0 124 79 209q80 86 191 90l17 78h28l-17 -79q58 -3 92 -29.5t34 -72.5q0 -34 -22 -65t-56 -31q-59 0 -59 59q0 24 15.5 46t36.5 22q22 0 42 -13q-5 22 -29 36t-61 14l-85 -395q8 -2 19 -2q85 0 140 109l30 -15
q-75 -149 -200 -149h-1zM173 172q0 -87 43 -118l80 377q-53 -20 -88 -89t-35 -170z" />
    <glyph glyph-name="sterling" unicode="&#xa3;" 
d="M592 608q0 -34 -22.5 -62.5t-55.5 -28.5q-27 0 -45.5 18t-18.5 47q0 30 18 50t49 20q14 0 26 -6q-29 51 -94 51q-51 0 -91 -49t-40 -145q0 -15 4 -58.5t5 -50.5h159l-16 -56h-142q-6 -107 -47 -187q82 -47 131 -47q57 0 101 104l35 -7q-15 -49 -40 -95t-68 -83t-90 -37
q-78 0 -144 73q-66 -74 -153 -74q-38 0 -59.5 24.5t-21.5 61.5q0 39 15 66.5t39 40t45.5 18t42.5 5.5q30 0 74 -21q8 38 8 66q0 19 -14 92h-103l15 56h80q-3 27 -3 58q0 141 68.5 213t212.5 72q64 0 102 -39q38 -38 38 -90zM166 102q-48 48 -87 48q-32 0 -50 -19.5
t-18 -50.5q0 -24 14 -39.5t38 -15.5q59 0 103 77z" />
    <glyph glyph-name="currency" unicode="&#xa4;" horiz-adv-x="261" 
 />
    <glyph glyph-name="yen" unicode="&#xa5;" horiz-adv-x="682" 
d="M544 353l-15 -54h-116l-20 -74h115l-15 -55h-114l-18 -68q-6 -32 -6 -35q0 -28 37 -28h35l-11 -39h-328l11 39h35q28 0 42.5 12.5t23.5 50.5l18 68h-126l15 55h125l20 74h-124l15 54h96l-69 267q-17 63 -59 63h-15l10 39h325l-11 -39h-41q-42 0 -42 -27q0 -10 8 -36
l71 -252l180 229q33 47 33 62q0 24 -25 24h-34l11 39h199l-11 -39h-18q-30 0 -52 -17q-19 -16 -60 -69l-186 -244h91z" />
    <glyph glyph-name="brokenbar" unicode="&#xa6;" horiz-adv-x="179" 
d="M99 134l-68 -322h-74l67 322h75zM227 736l-71 -336h-75l71 336h75z" />
    <glyph glyph-name="section" unicode="&#xa7;" horiz-adv-x="619" 
d="M602 616q0 -29 -21 -50.5t-49 -23.5q-33 0 -51.5 23t-18.5 58q0 23 17.5 39t42.5 16q-23 19 -72 19q-52 -1 -77.5 -38t-22.5 -72q0 -31 22 -57t54 -46.5l64 -42.5t54 -55.5t22 -75.5q0 -51 -32 -106q-40 -71 -137 -108q28 -37 28 -79q0 -88 -72 -146q-71 -59 -184 -59
q-63 0 -102 32.5t-39 86.5q0 32 21 55.5t50 23.5t50.5 -21t21.5 -51q0 -27 -18 -49t-44 -22q19 -16 71 -16q50 0 75 37q25 35 25 73q0 55 -76 103q-73 49 -96 73q-44 46 -44 102q0 33 12 67q13 39 54.5 80t101.5 66q-27 37 -27 85q0 84 72 141q73 58 185 58q58 0 99 -33
t41 -87zM444 233q0 35 -30 66q-34 35 -85 70q-58 42 -77 61q-64 -46 -64 -109q0 -37 29 -71q29 -32 83 -72q52 -36 77 -61q67 64 67 116z" />
    <glyph glyph-name="dieresis" unicode="&#xa8;" horiz-adv-x="472" 
d="M343 553q-22 0 -38 17.5t-16 40.5q0 26 17 44.5t40 18.5q24 0 40 -17.5t16 -42.5t-17 -43t-42 -18zM151 553q-23 0 -39 17t-16 41q0 26 17 44.5t41 18.5q23 0 39.5 -17.5t16.5 -42.5t-17 -43t-42 -18z" />
    <glyph glyph-name="copyright" unicode="&#xa9;" horiz-adv-x="785" 
d="M724 359q0 -155 -99 -264q-99 -110 -239 -110q-139 0 -238 110q-99 109 -99 264t99 266t238 111t238 -111q100 -110 100 -266zM687 359q0 141 -88 238q-89 99 -213 99t-212 -99q-87 -97 -87 -238q0 -139 87 -237q88 -97 212 -97q125 0 213 97t88 237zM535 282h27
q-14 -99 -66 -141q-53 -41 -113 -41q-89 0 -150 66q-61 65 -61 184q0 120 58 193q59 74 154 74q66 0 116 -57l18 56h23l10 -196h-27q-18 88 -53 128t-77 40q-50 0 -79 -50q-28 -49 -28 -183q0 -110 30.5 -164t83.5 -54q51 0 86.5 38t47.5 107z" />
    <glyph glyph-name="ordfeminine" unicode="&#xaa;" horiz-adv-x="455" 
d="M144 371q64 0 107 142q-51 -4 -93 -37q-40 -31 -40 -72q0 -33 26 -33zM229 659q-15 0 -34 -8.5t-29 -19.5q11 -11 11 -26q0 -22 -20.5 -43.5t-47.5 -21.5q-17 0 -27 10.5t-10 26.5q0 50 58 81q58 33 118 33q133 0 133 -82q0 -6 -5 -31q-1 -2 -4 -11.5l-7 -22t-9 -26.5
q-16 -46 -27 -84q-21 -67 -2 -67q20 0 36 55h24q-29 -95 -108 -95q-49 0 -49 54q0 15 3 28q-64 -82 -150 -82q-31 0 -51 16t-20 44q0 33 22 61.5t61 45.5q70 32 165 45l13 44q5 15 5 29q0 47 -49 47z" />
    <glyph glyph-name="guillemotleft" unicode="&#xab;" horiz-adv-x="474" 
d="M480 478h45l-174 -223l49 -223h-44l-124 223zM291 478h45l-174 -223l49 -223h-44l-124 223z" />
    <glyph glyph-name="logicalnot" unicode="&#xac;" horiz-adv-x="434" 
d="M83 293h326l-56 -193h-53l37 130h-273z" />
    <glyph glyph-name="uni00AD" unicode="&#xad;" horiz-adv-x="394" 
d="M354 301l-21 -70h-282l20 70h283z" />
    <glyph glyph-name="registered" unicode="&#xae;" horiz-adv-x="458" 
d="M413 530q0 -85 -55 -143q-54 -58 -131 -58t-129 58q-53 59 -53 143q0 85 53 146q52 60 129 60t131 -60q55 -59 55 -146zM386 530q0 75 -47 128q-47 54 -112 54q-64 0 -112 -54q-47 -55 -47 -128q0 -71 47 -124q48 -53 112 -53q66 0 112 52q47 53 47 125zM333 471h12
q-3 -48 -32 -48q-27 0 -40 17t-13.5 37t-7.5 37t-23 17h-16v-76q0 -20 15 -20h11v-13h-104v13h10q9 0 12.5 4t3.5 16v162q0 13 -3.5 17t-12.5 4h-10v13h113q74 0 74 -60q0 -22 -16 -37.5t-45 -17.5q11 -1 20 -7.5t14.5 -15t9 -18.5t6 -20t4 -17.5t3 -12t3.5 -3.5q9 0 12 29z
M241 638h-19q-9 0 -9 -20v-74h24q33 0 33 47t-29 47z" />
    <glyph glyph-name="overscore" unicode="&#xaf;" horiz-adv-x="444" 
d="M379 632l-16 -75h-299l16 75h299z" />
    <glyph glyph-name="degree" unicode="&#xb0;" horiz-adv-x="345" 
d="M262 584q0 36 -21 59.5t-54 23.5q-31 0 -54.5 -26t-23.5 -61q0 -36 21.5 -62t52.5 -26q32 0 55.5 28t23.5 64zM311 587q0 -64 -37 -105q-38 -41 -92 -41q-53 0 -88 38.5t-35 99.5t37 101.5t92 40.5q53 0 88 -38t35 -96z" />
    <glyph glyph-name="plusminus" unicode="&#xb1;" horiz-adv-x="520" 
d="M326 392h168l-18 -62h-167l-45 -166h-60l45 166h-168l18 62h167l45 166h60zM19 96h394l-18 -63h-394z" />
    <glyph glyph-name="twosuperior" unicode="&#xb2;" horiz-adv-x="412" 
d="M173 608q7 4 18 4t17.5 -10t6.5 -23q0 -18 -14 -31.5t-34 -13.5q-13 0 -21.5 11.5t-8.5 27.5q0 48 46 82q47 36 104 36q38 0 62 -21t24 -55q0 -65 -65 -118q-48 -38 -127 -82q-18 -11 -18 -13q0 -4 38 -4h78q15 0 22 10q11 15 34 63h19l-46 -133h-238l6 20l136 115
q79 64 79 130q0 23 -12 39t-30 16q-21 0 -44 -15t-32 -35z" />
    <glyph glyph-name="threesuperior" unicode="&#xb3;" horiz-adv-x="338" 
d="M311 441q0 -51 -49 -82q-49 -30 -107 -30q-34 0 -59.5 17.5t-25.5 51.5q0 26 12.5 43.5t35.5 17.5q12 0 20.5 -8t8.5 -21q2 -25 -20.5 -36.5t-33.5 -1.5q7 -37 55 -37q37 0 62 34q26 35 26 74q0 36 -35 36q-1 0 -15.5 -2t-19.5 -2q-10 0 -10 14q0 17 17 17q4 0 18 -2
t16 -2q26 0 45 37q20 38 20 68q0 17 -11 27.5t-27 10.5q-54 0 -73 -37q8 5 24 5q20 0 20 -26q0 -22 -13.5 -35t-30.5 -13q-35 0 -35 31q0 44 39 72q40 29 95 29q41 0 64.5 -22t23.5 -54q0 -37 -29 -64t-76 -39q33 -4 50.5 -23t17.5 -48z" />
    <glyph glyph-name="acute" unicode="&#xb4;" horiz-adv-x="470" 
d="M209 529l-19 13l21 32l20 32q17 28 38 54q23 30 36 40q31 24 59 24q20 -1 29.5 -15.5t3.5 -34.5t-25 -36q-30 -29 -68 -52l-43 -27q-12 -6 -52 -30z" />
    <glyph glyph-name="mu" unicode="&#xb5;" horiz-adv-x="651" 
d="M682 547q0 -77 -47 -136q-87 -110 -254 -110h-110l-19 -72h152l-16 -55h-150l-18 -72q-6 -23 -6 -35q0 -28 36 -28h34l-11 -39h-327l11 39h35q28 0 43 13t24 50l18 72h-89l15 55h88l20 73h-88l16 55h87l70 263q6 32 6 35q0 28 -37 28h-35l11 39h317q110 0 167 -48
t57 -127zM522 574q0 109 -91 109h-26q-18 0 -28.5 -13.5t-19.5 -49.5l-70 -263h79q65 0 110 69q46 68 46 148z" />
    <glyph glyph-name="paragraph" unicode="&#xb6;" horiz-adv-x="546" 
d="M341 722h306l-12 -39h-53q-28 0 -42.5 -13t-23.5 -50l-168 -620h-52l184 683h-113l-185 -683h-53l93 340q-55 3 -95 46t-40 107q0 105 75 166q75 63 179 63z" />
    <glyph glyph-name="middot" unicode="&#xb7;" horiz-adv-x="243" 
d="M51 262q0 34 27 62q28 30 63 30q23 0 37 -14t14 -37q0 -35 -28 -63q-29 -29 -63 -29q-23 0 -36.5 14t-13.5 37z" />
    <glyph glyph-name="cedilla" unicode="&#xb8;" horiz-adv-x="300" 
d="M226 -95q0 -34 -32 -58q-31 -25 -70 -25q-34 0 -67 16l8 28q21 -6 37 -6q55 0 55 34q0 13 -14.5 23t-40.5 10l40 73h43l-23 -44q28 -2 46 -15.5t18 -35.5z" />
    <glyph glyph-name="onesuperior" unicode="&#xb9;" horiz-adv-x="334" 
d="M281 691h23l-81 -289q-4 -15 -4 -18q0 -17 20 -17h40l-8 -29h-211l9 29h39q28 0 37 35l46 169q5 17 5 21q0 12 -9 12q-8 0 -11 -1l-44 -9l9 29q69 16 97 31q25 13 43 37z" />
    <glyph glyph-name="ordmasculine" unicode="&#xba;" horiz-adv-x="435" 
d="M287 508q16 57 16 96q0 57 -43 57q-72 0 -112 -153q-17 -65 -17 -89q0 -64 44 -64q69 0 112 153zM398 569q0 -93 -68 -169q-68 -75 -164 -75q-62 0 -96 32t-34 87q0 103 69 175q71 72 163 72q62 0 96 -32t34 -90z" />
    <glyph glyph-name="guillemotright" unicode="&#xbb;" horiz-adv-x="503" 
d="M157 478l124 -223l-249 -223h-44l175 223l-51 223h45zM346 478l124 -223l-249 -223h-45l176 223l-51 223h45z" />
    <glyph glyph-name="onequarter" unicode="&#xbc;" horiz-adv-x="704" 
d="M701 677l-638 -677h-63l638 677h63zM558 353h26l-64 -230h56l-10 -37h-56l-9 -29q-3 -9 -3 -16q0 -14 18 -14h32l-8 -27h-189l7 27h33q23 0 31 30l9 29h-130l10 37zM441 123l37 126l-136 -126h99zM281 691h23l-81 -289q-4 -15 -4 -18q0 -17 20 -17h40l-8 -29h-211l9 29
h39q28 0 37 35l46 169q5 17 5 21q0 12 -9 12q-8 0 -11 -1l-44 -9l9 29q69 16 97 31q25 13 43 37z" />
    <glyph glyph-name="onehalf" unicode="&#xbd;" horiz-adv-x="705" 
d="M417 270q7 4 18 4t17.5 -10t6.5 -23q0 -18 -14 -31.5t-34 -13.5q-13 0 -21.5 11.5t-8.5 27.5q0 48 46 82q47 36 104 36q38 0 62 -21t24 -55q0 -65 -65 -118q-48 -38 -127 -82q-18 -11 -18 -13q0 -4 38 -4h78q15 0 22 10q11 15 34 63h19l-46 -133h-238l6 20l136 115
q79 64 79 130q0 23 -12 39t-30 16q-21 0 -44 -15t-32 -35zM701 677l-638 -677h-63l638 677h63zM281 691h23l-81 -289q-4 -15 -4 -18q0 -17 20 -17h40l-8 -29h-211l9 29h39q28 0 37 35l46 169q5 17 5 21q0 12 -9 12q-8 0 -11 -1l-44 -9l9 29q69 16 97 31q25 13 43 37z" />
    <glyph glyph-name="threequarters" unicode="&#xbe;" horiz-adv-x="707" 
d="M311 441q0 -51 -49 -82q-49 -30 -107 -30q-34 0 -59.5 17.5t-25.5 51.5q0 26 12.5 43.5t35.5 17.5q12 0 20.5 -8t8.5 -21q2 -25 -20.5 -36.5t-33.5 -1.5q7 -37 55 -37q37 0 62 34q26 35 26 74q0 36 -35 36q-1 0 -15.5 -2t-19.5 -2q-10 0 -10 14q0 17 17 17q4 0 18 -2
t16 -2q26 0 45 37q20 38 20 68q0 17 -11 27.5t-27 10.5q-54 0 -73 -37q8 5 24 5q20 0 20 -26q0 -22 -13.5 -35t-30.5 -13q-35 0 -35 31q0 44 39 72q40 29 95 29q41 0 64.5 -22t23.5 -54q0 -37 -29 -64t-76 -39q33 -4 50.5 -23t17.5 -48zM705 677l-637 -677h-64l638 677h63z
M558 353h26l-64 -230h56l-10 -37h-56l-9 -29q-3 -9 -3 -16q0 -14 18 -14h32l-8 -27h-189l7 27h33q23 0 31 30l9 29h-130l10 37zM441 123l37 126l-136 -126h99z" />
    <glyph glyph-name="questiondown" unicode="&#xbf;" horiz-adv-x="430" 
d="M72 131q0 43 15 77t39 55.5t53 39.5t58 32.5t53 29.5t39 36t15 47q0 35 -37 35q-47 0 -72 -67l-25 18q39 91 127 91q43 0 69 -27.5t26 -75.5q0 -83 -89 -141l-36 -23l-39 -25t-33 -25t-30.5 -30.5t-17.5 -33t-8 -40.5q0 -70 70 -70q51 0 83.5 38.5t32.5 98.5q0 1 -0.5 5
t-0.5 6l31 5q5 -17 5 -35q0 -66 -47 -115q-47 -48 -125 -48q-73 0 -114.5 38t-41.5 104zM305 664q-2 47 43.5 67t72.5 -14q32 -29 13 -78t-63 -46q-28 0 -47 21t-19 50z" />
    <glyph glyph-name="Agrave" unicode="&#xc0;" horiz-adv-x="696" 
d="M615 39h12l-10 -39h-313l9 39h46q24 0 34 8t10 31q0 2 -0.5 11.5t-0.5 12.5l-13 123h-228l-61 -100q-51 -86 6 -86h40l-10 -39h-206l10 39h13q33 0 55.5 18.5t50.5 67.5l360 611h71l72 -634q4 -34 16.5 -48.5t36.5 -14.5zM184 265h200l-30 286zM512 808l-25 -13
q-17 20 -57 58q-75 73 -75 92q0 20 14 33t38 13q34 0 48 -32q19 -44 57 -151z" />
    <glyph glyph-name="Aacute" unicode="&#xc1;" horiz-adv-x="696" 
d="M615 39h12l-10 -39h-313l9 39h46q24 0 34 8t10 31q0 2 -0.5 11.5t-0.5 12.5l-13 123h-228l-61 -100q-51 -86 6 -86h40l-10 -39h-206l10 39h13q33 0 55.5 18.5t50.5 67.5l360 611h71l72 -634q4 -34 16.5 -48.5t36.5 -14.5zM184 265h200l-30 286zM424 790l-19 13l21 32
l20 32q17 28 38 54q23 30 36 40q31 24 59 24q20 -1 29.5 -15.5t3.5 -34.5t-25 -36q-30 -29 -68 -52l-43 -27q-12 -6 -52 -30z" />
    <glyph glyph-name="Acircumflex" unicode="&#xc2;" horiz-adv-x="696" 
d="M615 39h12l-10 -39h-313l9 39h46q24 0 34 8t10 31q0 2 -0.5 11.5t-0.5 12.5l-13 123h-228l-61 -100q-51 -86 6 -86h40l-10 -39h-206l10 39h13q33 0 55.5 18.5t50.5 67.5l360 611h71l72 -634q4 -34 16.5 -48.5t36.5 -14.5zM184 265h200l-30 286zM550 990l64 -172h-37
l-94 110l-152 -110h-38l161 172h96z" />
    <glyph glyph-name="Atilde" unicode="&#xc3;" horiz-adv-x="696" 
d="M615 39h12l-10 -39h-313l9 39h46q24 0 34 8t10 31q0 2 -0.5 11.5t-0.5 12.5l-13 123h-228l-61 -100q-51 -86 6 -86h40l-10 -39h-206l10 39h13q33 0 55.5 18.5t50.5 67.5l360 611h71l72 -634q4 -34 16.5 -48.5t36.5 -14.5zM184 265h200l-30 286zM617 942l33 -27
q-42 -59 -73 -82.5t-68 -23.5q-21 0 -37.5 8.5t-25 19t-19 19t-21.5 8.5q-38 0 -86 -55l-32 28q40 58 71 81.5t69 23.5q29 0 60.5 -27t43.5 -27q38 0 85 54z" />
    <glyph glyph-name="Adieresis" unicode="&#xc4;" horiz-adv-x="696" 
d="M615 39h12l-10 -39h-313l9 39h46q24 0 34 8t10 31q0 2 -0.5 11.5t-0.5 12.5l-13 123h-228l-61 -100q-51 -86 6 -86h40l-10 -39h-206l10 39h13q33 0 55.5 18.5t50.5 67.5l360 611h71l72 -634q4 -34 16.5 -48.5t36.5 -14.5zM184 265h200l-30 286zM567 814q-22 0 -38 17.5
t-16 40.5q0 26 17 44.5t40 18.5q24 0 40 -17.5t16 -42.5t-17 -43t-42 -18zM375 814q-23 0 -39 17t-16 41q0 26 17 44.5t41 18.5q23 0 39.5 -17.5t16.5 -42.5t-17 -43t-42 -18z" />
    <glyph glyph-name="Aring" unicode="&#xc5;" horiz-adv-x="696" 
d="M615 39h12l-10 -39h-313l9 39h46q24 0 34 8t10 31q0 2 -0.5 11.5t-0.5 12.5l-13 123h-228l-61 -100q-51 -86 6 -86h40l-10 -39h-206l10 39h13q33 0 55.5 18.5t50.5 67.5l360 611h71l72 -634q4 -34 16.5 -48.5t36.5 -14.5zM184 265h200l-30 286zM447 897q0 -15 10.5 -26.5
t24.5 -11.5t24.5 12t10.5 28q1 23 -16.5 33t-35.5 -0.5t-18 -34.5zM559 901q0 -37 -22.5 -61.5t-55.5 -24.5q-32 0 -53.5 23t-21.5 58q0 37 22.5 61t56.5 24q32 0 53 -22.5t21 -57.5z" />
    <glyph glyph-name="AE" unicode="&#xc6;" horiz-adv-x="961" 
d="M866 273h38l-93 -273h-557l11 39h34q49 0 67 63l39 137h-211l-104 -115q-39 -42 -39 -60q0 -14 7.5 -19.5t31.5 -5.5h30l-10 -39h-214l11 39h12q29 0 54 18.5t68 67.5l430 496q28 32 28 45q0 17 -21 17h-32l11 39h537l-53 -241h-37q14 98 14 135t-20.5 52t-73.5 15h-92
q-26 0 -37 -11.5t-22 -51.5l-64 -226h60q45 0 74.5 31t52.5 111h36l-91 -325h-37q17 70 17 94q0 26 -14.5 37.5t-48.5 11.5h-60l-71 -252q-5 -18 -5 -31q0 -19 8.5 -25.5t30.5 -6.5h83q38 0 54 4q18 5 46 25q49 37 122 205zM417 285l91 323l-279 -323h188z" />
    <glyph glyph-name="Ccedilla" unicode="&#xc7;" horiz-adv-x="639" 
d="M342 -97q0 -34 -32 -58q-31 -25 -70 -25q-34 0 -67 16l8 28q21 -6 37 -6q55 0 55 34q0 13 -14.5 23t-40.5 10l34 62q-97 10 -158 83t-61 196q0 68 16.5 135t50.5 127.5t81 107t111.5 73.5t138.5 27q46 0 91 -24t69 -62l52 85h33l-59 -284h-38q2 32 2 40q0 77 -27 135
q-31 70 -109 70q-88 0 -167 -111q-38 -55 -61 -145t-23 -196q0 -96 37.5 -151.5t95.5 -55.5q73 0 133 55.5t96 157.5l33 -15q-42 -136 -137 -196q-77 -48 -158 -53l-16 -32q28 -2 46 -15.5t18 -35.5z" />
    <glyph glyph-name="Egrave" unicode="&#xc8;" horiz-adv-x="649" 
d="M141 722h538l-51 -241h-38q7 49 7 89q0 80 -23 98q-20 15 -59 15h-99q-25 0 -36.5 -12t-22.5 -51l-60 -226h61q44 0 73 31t51 111h36l-88 -325h-36q14 61 14 84q0 59 -62 59h-60l-68 -252q-9 -32 -2.5 -47.5t34.5 -15.5h85q28 0 36 1q40 2 66 28q58 62 118 205h37
l-90 -273h-556l11 39h35q27 0 41.5 13.5t24.5 49.5l138 518q6 24 6 35q0 28 -37 28h-35zM502 808l-25 -13q-17 20 -57 58q-75 73 -75 92q0 20 14 33t38 13q34 0 48 -32q19 -44 57 -151z" />
    <glyph glyph-name="Eacute" unicode="&#xc9;" horiz-adv-x="649" 
d="M141 722h538l-51 -241h-38q7 49 7 89q0 80 -23 98q-20 15 -59 15h-99q-25 0 -36.5 -12t-22.5 -51l-60 -226h61q44 0 73 31t51 111h36l-88 -325h-36q14 61 14 84q0 59 -62 59h-60l-68 -252q-9 -32 -2.5 -47.5t34.5 -15.5h85q28 0 36 1q40 2 66 28q58 62 118 205h37
l-90 -273h-556l11 39h35q27 0 41.5 13.5t24.5 49.5l138 518q6 24 6 35q0 28 -37 28h-35zM399 790l-19 13l21 32l20 32q17 28 38 54q23 30 36 40q31 24 59 24q20 -1 29.5 -15.5t3.5 -34.5t-25 -36q-30 -29 -68 -52l-43 -27q-12 -6 -52 -30z" />
    <glyph glyph-name="Ecircumflex" unicode="&#xca;" horiz-adv-x="649" 
d="M141 722h538l-51 -241h-38q7 49 7 89q0 80 -23 98q-20 15 -59 15h-99q-25 0 -36.5 -12t-22.5 -51l-60 -226h61q44 0 73 31t51 111h36l-88 -325h-36q14 61 14 84q0 59 -62 59h-60l-68 -252q-9 -32 -2.5 -47.5t34.5 -15.5h85q28 0 36 1q40 2 66 28q58 62 118 205h37
l-90 -273h-556l11 39h35q27 0 41.5 13.5t24.5 49.5l138 518q6 24 6 35q0 28 -37 28h-35zM537 990l64 -172h-37l-94 110l-152 -110h-38l161 172h96z" />
    <glyph glyph-name="Edieresis" unicode="&#xcb;" horiz-adv-x="649" 
d="M141 722h538l-51 -241h-38q7 49 7 89q0 80 -23 98q-20 15 -59 15h-99q-25 0 -36.5 -12t-22.5 -51l-60 -226h61q44 0 73 31t51 111h36l-88 -325h-36q14 61 14 84q0 59 -62 59h-60l-68 -252q-9 -32 -2.5 -47.5t34.5 -15.5h85q28 0 36 1q40 2 66 28q58 62 118 205h37
l-90 -273h-556l11 39h35q27 0 41.5 13.5t24.5 49.5l138 518q6 24 6 35q0 28 -37 28h-35zM560 814q-22 0 -38 17.5t-16 40.5q0 26 17 44.5t40 18.5q24 0 40 -17.5t16 -42.5t-17 -43t-42 -18zM368 814q-23 0 -39 17t-16 41q0 26 17 44.5t41 18.5q23 0 39.5 -17.5t16.5 -42.5
t-17 -43t-42 -18z" />
    <glyph glyph-name="Igrave" unicode="&#xcc;" horiz-adv-x="400" 
d="M141 722h328l-11 -39h-35q-27 0 -42 -13t-24 -50l-139 -518q-5 -28 -5 -35q0 -16 8.5 -22t28.5 -6h34l-11 -39h-327l11 39h35q27 0 41 13t25 50l138 518q6 24 6 35q0 28 -37 28h-35zM405 808l-25 -13q-17 20 -57 58q-75 73 -75 92q0 20 14 33t38 13q34 0 48 -32
q19 -44 57 -151z" />
    <glyph glyph-name="Iacute" unicode="&#xcd;" horiz-adv-x="400" 
d="M141 722h328l-11 -39h-35q-27 0 -42 -13t-24 -50l-139 -518q-5 -28 -5 -35q0 -16 8.5 -22t28.5 -6h34l-11 -39h-327l11 39h35q27 0 41 13t25 50l138 518q6 24 6 35q0 28 -37 28h-35zM280 790l-19 13l21 32l20 32q17 28 38 54q23 30 36 40q31 24 59 24q20 -1 29.5 -15.5
t3.5 -34.5t-25 -36q-30 -29 -68 -52l-43 -27q-12 -6 -52 -30z" />
    <glyph glyph-name="Icircumflex" unicode="&#xce;" horiz-adv-x="400" 
d="M141 722h328l-11 -39h-35q-27 0 -42 -13t-24 -50l-139 -518q-5 -28 -5 -35q0 -16 8.5 -22t28.5 -6h34l-11 -39h-327l11 39h35q27 0 41 13t25 50l138 518q6 24 6 35q0 28 -37 28h-35zM429 990l64 -172h-37l-94 110l-152 -110h-38l161 172h96z" />
    <glyph glyph-name="Idieresis" unicode="&#xcf;" horiz-adv-x="400" 
d="M141 722h328l-11 -39h-35q-27 0 -42 -13t-24 -50l-139 -518q-5 -28 -5 -35q0 -16 8.5 -22t28.5 -6h34l-11 -39h-327l11 39h35q27 0 41 13t25 50l138 518q6 24 6 35q0 28 -37 28h-35zM422 814q-22 0 -38 17.5t-16 40.5q0 26 17 44.5t40 18.5q24 0 40 -17.5t16 -42.5
t-17 -43t-42 -18zM230 814q-23 0 -39 17t-16 41q0 26 17 44.5t41 18.5q23 0 39.5 -17.5t16.5 -42.5t-17 -43t-42 -18z" />
    <glyph glyph-name="Eth" unicode="&#xd0;" horiz-adv-x="748" 
d="M730 445q0 -118 -52 -219q-53 -101 -147 -164q-95 -62 -212 -62h-373l11 39h35q27 0 41 13t25 50l66 248h-70l16 55h68l58 215q6 22 6 35q0 28 -37 28h-35l11 39h288q169 0 239 -87q62 -75 62 -190zM437 405l-16 -55h-137l-66 -248q-5 -28 -5 -35q0 -16 8.5 -22t28.5 -6
h40q85 0 152 73q68 74 99 175q33 103 33 207q0 84 -33 136.5t-93 52.5h-32q-25 0 -36.5 -12t-22.5 -51l-58 -215h138z" />
    <glyph glyph-name="Ntilde" unicode="&#xd1;" horiz-adv-x="742" 
d="M698 620l-167 -620h-44l-260 557h-4l-121 -455q-9 -32 -2.5 -47.5t33.5 -15.5h35l-11 -39h-211l11 39h35q27 0 41 13t25 50l138 518q6 24 6 35q0 28 -37 28h-35l11 39h204l206 -469h4l98 367q6 21 6 35q0 28 -36 28h-35l11 39h212l-11 -39h-35q-28 0 -43 -13t-24 -50z
M668 942l33 -27q-42 -59 -73 -82.5t-68 -23.5q-21 0 -37.5 8.5t-25 19t-19 19t-21.5 8.5q-38 0 -86 -55l-32 28q40 58 71 81.5t69 23.5q31 0 61 -27t43 -27q39 0 85 54z" />
    <glyph glyph-name="Ograve" unicode="&#xd2;" horiz-adv-x="720" 
d="M286 25q68 0 131 90q64 93 98 211q35 122 35 219q0 72 -25.5 112t-75.5 40q-67 0 -131 -93t-98 -213q-35 -123 -35 -218q0 -70 26 -109t75 -39zM275 -15q-121 0 -182 70t-61 184q0 90 32 179.5t87 160.5q56 72 137.5 114.5t171.5 42.5q120 0 181 -70q62 -71 62 -183
q0 -122 -53 -237q-53 -114 -153 -187q-101 -74 -222 -74zM577 808l-25 -13q-17 20 -57 58q-75 73 -75 92q0 20 14 33t38 13q34 0 48 -32q19 -44 57 -151z" />
    <glyph glyph-name="Oacute" unicode="&#xd3;" horiz-adv-x="720" 
d="M286 25q68 0 131 90q64 93 98 211q35 122 35 219q0 72 -25.5 112t-75.5 40q-67 0 -131 -93t-98 -213q-35 -123 -35 -218q0 -70 26 -109t75 -39zM275 -15q-121 0 -182 70t-61 184q0 90 32 179.5t87 160.5q56 72 137.5 114.5t171.5 42.5q120 0 181 -70q62 -71 62 -183
q0 -122 -53 -237q-53 -114 -153 -187q-101 -74 -222 -74zM419 790l-19 13l21 32l20 32q17 28 38 54q23 30 36 40q31 24 59 24q20 -1 29.5 -15.5t3.5 -34.5t-25 -36q-30 -29 -68 -52l-43 -27q-12 -6 -52 -30z" />
    <glyph glyph-name="Ocircumflex" unicode="&#xd4;" horiz-adv-x="720" 
d="M286 25q68 0 131 90q64 93 98 211q35 122 35 219q0 72 -25.5 112t-75.5 40q-67 0 -131 -93t-98 -213q-35 -123 -35 -218q0 -70 26 -109t75 -39zM275 -15q-121 0 -182 70t-61 184q0 90 32 179.5t87 160.5q56 72 137.5 114.5t171.5 42.5q120 0 181 -70q62 -71 62 -183
q0 -122 -53 -237q-53 -114 -153 -187q-101 -74 -222 -74zM597 990l64 -172h-37l-94 110l-152 -110h-38l161 172h96z" />
    <glyph glyph-name="Otilde" unicode="&#xd5;" horiz-adv-x="720" 
d="M286 25q68 0 131 90q64 93 98 211q35 122 35 219q0 72 -25.5 112t-75.5 40q-67 0 -131 -93t-98 -213q-35 -123 -35 -218q0 -70 26 -109t75 -39zM275 -15q-121 0 -182 70t-61 184q0 90 32 179.5t87 160.5q56 72 137.5 114.5t171.5 42.5q120 0 181 -70q62 -71 62 -183
q0 -122 -53 -237q-53 -114 -153 -187q-101 -74 -222 -74zM638 942l33 -27q-42 -59 -73 -82.5t-68 -23.5q-21 0 -37.5 8.5t-25 19t-19 19t-21.5 8.5q-38 0 -86 -55l-32 28q40 58 71 81.5t69 23.5q31 0 61 -27t43 -27q39 0 85 54z" />
    <glyph glyph-name="Odieresis" unicode="&#xd6;" horiz-adv-x="720" 
d="M286 25q68 0 131 90q64 93 98 211q35 122 35 219q0 72 -25.5 112t-75.5 40q-67 0 -131 -93t-98 -213q-35 -123 -35 -218q0 -70 26 -109t75 -39zM275 -15q-121 0 -182 70t-61 184q0 90 32 179.5t87 160.5q56 72 137.5 114.5t171.5 42.5q120 0 181 -70q62 -71 62 -183
q0 -122 -53 -237q-53 -114 -153 -187q-101 -74 -222 -74zM598 814q-22 0 -38 17.5t-16 40.5q0 26 17 44.5t40 18.5q24 0 40 -17.5t16 -42.5t-17 -43t-42 -18zM406 814q-23 0 -39 17t-16 41q0 26 17 44.5t41 18.5q23 0 39.5 -17.5t16.5 -42.5t-17 -43t-42 -18z" />
    <glyph glyph-name="multiply" unicode="&#xd7;" horiz-adv-x="518" 
d="M63 165l153 165l-137 165l42 44l138 -164l146 156l43 -44l-147 -157l131 -157l-43 -44l-131 156l-154 -164z" />
    <glyph glyph-name="Oslash" unicode="&#xd8;" horiz-adv-x="720" 
d="M126 26l-22 -26h-87l62 73q-47 65 -47 166q0 90 32 179.5t87 160.5q56 72 137.5 114.5t171.5 42.5q87 0 148 -41l23 27h87l-63 -73q48 -66 48 -166q0 -122 -53 -237q-53 -114 -153 -187q-101 -74 -222 -74q-88 0 -149 41zM286 25q65 0 126 85q63 88 97 199q35 114 40 215
l-356 -419q21 -80 93 -80zM449 697q-64 0 -126 -86q-61 -85 -97 -200q-37 -116 -41 -213l356 419q-21 80 -92 80z" />
    <glyph glyph-name="Ugrave" unicode="&#xd9;" horiz-adv-x="726" 
d="M602 722h211l-11 -39h-35q-28 0 -42.5 -13t-23.5 -50l-106 -397q-32 -116 -103 -177q-70 -61 -209 -61q-224 0 -224 159q0 36 12 79l106 397q6 22 6 35q0 28 -36 28h-35l11 39h329l-12 -39h-35q-28 0 -42.5 -13t-23.5 -50l-107 -397q-10 -37 -10 -69q0 -113 135 -113
q75 0 121 42t72 140l106 397q6 21 6 35q0 28 -37 28h-35zM578 808l-25 -13q-17 20 -57 58q-75 73 -75 92q0 20 14 33t38 13q34 0 48 -32q19 -44 57 -151z" />
    <glyph glyph-name="Uacute" unicode="&#xda;" horiz-adv-x="726" 
d="M602 722h211l-11 -39h-35q-28 0 -42.5 -13t-23.5 -50l-106 -397q-32 -116 -103 -177q-70 -61 -209 -61q-224 0 -224 159q0 36 12 79l106 397q6 22 6 35q0 28 -36 28h-35l11 39h329l-12 -39h-35q-28 0 -42.5 -13t-23.5 -50l-107 -397q-10 -37 -10 -69q0 -113 135 -113
q75 0 121 42t72 140l106 397q6 21 6 35q0 28 -37 28h-35zM455 790l-19 13l21 32l20 32q17 28 38 54q23 30 36 40q31 24 59 24q20 -1 29.5 -15.5t3.5 -34.5t-25 -36q-30 -29 -68 -52l-43 -27q-12 -6 -52 -30z" />
    <glyph glyph-name="Ucircumflex" unicode="&#xdb;" horiz-adv-x="726" 
d="M602 722h211l-11 -39h-35q-28 0 -42.5 -13t-23.5 -50l-106 -397q-32 -116 -103 -177q-70 -61 -209 -61q-224 0 -224 159q0 36 12 79l106 397q6 22 6 35q0 28 -36 28h-35l11 39h329l-12 -39h-35q-28 0 -42.5 -13t-23.5 -50l-107 -397q-10 -37 -10 -69q0 -113 135 -113
q75 0 121 42t72 140l106 397q6 21 6 35q0 28 -37 28h-35zM609 990l64 -172h-37l-94 110l-152 -110h-38l161 172h96z" />
    <glyph glyph-name="Udieresis" unicode="&#xdc;" horiz-adv-x="726" 
d="M602 722h211l-11 -39h-35q-28 0 -42.5 -13t-23.5 -50l-106 -397q-32 -116 -103 -177q-70 -61 -209 -61q-224 0 -224 159q0 36 12 79l106 397q6 22 6 35q0 28 -36 28h-35l11 39h329l-12 -39h-35q-28 0 -42.5 -13t-23.5 -50l-107 -397q-10 -37 -10 -69q0 -113 135 -113
q75 0 121 42t72 140l106 397q6 21 6 35q0 28 -37 28h-35zM606 814q-22 0 -38 17.5t-16 40.5q0 26 17 44.5t40 18.5q24 0 40 -17.5t16 -42.5t-17 -43t-42 -18zM414 814q-23 0 -39 17t-16 41q0 26 17 44.5t41 18.5q23 0 39.5 -17.5t16.5 -42.5t-17 -43t-42 -18z" />
    <glyph glyph-name="Yacute" unicode="&#xdd;" horiz-adv-x="684" 
d="M581 722h199l-11 -39h-18q-30 0 -52 -17q-19 -16 -60 -69l-225 -296l-53 -199q-6 -32 -6 -35q0 -28 37 -28h35l-11 -39h-328l11 39h35q28 0 42.5 12.5t23.5 50.5l53 200l-83 318q-17 63 -59 63h-15l10 39h325l-11 -39h-41q-42 0 -42 -27q0 -10 8 -36l71 -252l180 229
q33 47 33 62q0 24 -25 24h-34zM461 777l-19 13l21 32l20 32q17 28 38 54q23 30 36 40q31 24 59 24q20 -1 29.5 -15.5t3.5 -34.5t-25 -36q-30 -29 -68 -52l-43 -27q-12 -6 -52 -30z" />
    <glyph glyph-name="Thorn" unicode="&#xde;" horiz-adv-x="647" 
d="M335 620l-9 -41h110q93 0 144.5 -44t51.5 -124q0 -102 -86 -174q-86 -71 -198 -71h-109l-14 -64q-4 -15 -4 -32q0 -18 9 -24.5t30 -6.5h35l-8 -39h-327l8 39h34q28 0 41.5 15t22.5 60l108 506q4 15 4 33q-2 30 -39 30h-35l8 39h328l-8 -39h-35q-27 0 -40.5 -13t-21.5 -50
zM264 205h61q57 0 102 73q45 74 45 139q0 53 -19.5 88t-56.5 35h-46q-18 0 -27.5 -11.5t-16.5 -44.5l-52 -245q-3 -15 -3 -19q0 -15 13 -15z" />
    <glyph glyph-name="germandbls" unicode="&#xdf;" horiz-adv-x="643" 
d="M310 393l12 39q65 5 113 69q48 65 48 134q0 73 -66 73q-41 0 -77.5 -39t-57.5 -115l-132 -469q-5 -20 -5 -26q0 -20 27 -20h15l-11 -39h-252l10 39h32q21 0 31.5 12.5t19.5 43.5l129 459q24 85 99 139q76 55 181 55q95 0 143 -32t48 -89q0 -77 -60 -136q-59 -59 -141 -75
q162 -27 162 -157q0 -109 -83 -192q-82 -82 -197 -82q-92 0 -92 84q0 38 21 71q23 33 59 33q40 0 40 -42q0 -38 -27 -65t-50 -27q12 -14 47 -14q56 0 103 68q47 70 47 177q0 123 -136 123z" />
    <glyph glyph-name="agrave" unicode="&#xe0;" horiz-adv-x="597" 
d="M560 166l30 -18q-78 -162 -175 -162q-38 0 -53.5 20.5t-15.5 68.5q0 21 5 49q-27 -66 -76.5 -102.5t-106.5 -36.5q-63 0 -98.5 42t-35.5 113q0 124 78 228t179 104q85 0 114 -92l20 78h136l-80 -288q-20 -77 -20 -98q0 -22 19 -22q11 0 35 34q25 33 45 82zM220 38
q44 0 82 54q36 51 56 117t20 121q0 46 -16.5 68.5t-40.5 22.5q-44 0 -81.5 -56.5t-56 -125t-18.5 -121.5q0 -80 55 -80zM440 547l-25 -13q-17 20 -57 58q-75 73 -75 92q0 20 14 33t38 13q34 0 48 -32q19 -44 57 -151z" />
    <glyph glyph-name="aacute" unicode="&#xe1;" horiz-adv-x="597" 
d="M560 166l30 -18q-78 -162 -175 -162q-38 0 -53.5 20.5t-15.5 68.5q0 21 5 49q-27 -66 -76.5 -102.5t-106.5 -36.5q-63 0 -98.5 42t-35.5 113q0 124 78 228t179 104q85 0 114 -92l20 78h136l-80 -288q-20 -77 -20 -98q0 -22 19 -22q11 0 35 34q25 33 45 82zM220 38
q44 0 82 54q36 51 56 117t20 121q0 46 -16.5 68.5t-40.5 22.5q-44 0 -81.5 -56.5t-56 -125t-18.5 -121.5q0 -80 55 -80zM336 529l-19 13l21 32l20 32q17 28 38 54q23 30 36 40q31 24 59 24q20 -1 29.5 -15.5t3.5 -34.5t-25 -36q-30 -29 -68 -52l-43 -27q-12 -6 -52 -30z" />
    <glyph glyph-name="acircumflex" unicode="&#xe2;" horiz-adv-x="597" 
d="M560 166l30 -18q-78 -162 -175 -162q-38 0 -53.5 20.5t-15.5 68.5q0 21 5 49q-27 -66 -76.5 -102.5t-106.5 -36.5q-63 0 -98.5 42t-35.5 113q0 124 78 228t179 104q85 0 114 -92l20 78h136l-80 -288q-20 -77 -20 -98q0 -22 19 -22q11 0 35 34q25 33 45 82zM220 38
q44 0 82 54q36 51 56 117t20 121q0 46 -16.5 68.5t-40.5 22.5q-44 0 -81.5 -56.5t-56 -125t-18.5 -121.5q0 -80 55 -80zM474 729l64 -172h-37l-94 110l-152 -110h-38l161 172h96z" />
    <glyph glyph-name="atilde" unicode="&#xe3;" horiz-adv-x="597" 
d="M560 166l30 -18q-78 -162 -175 -162q-38 0 -53.5 20.5t-15.5 68.5q0 21 5 49q-27 -66 -76.5 -102.5t-106.5 -36.5q-63 0 -98.5 42t-35.5 113q0 124 78 228t179 104q85 0 114 -92l20 78h136l-80 -288q-20 -77 -20 -98q0 -22 19 -22q11 0 35 34q25 33 45 82zM220 38
q44 0 82 54q36 51 56 117t20 121q0 46 -16.5 68.5t-40.5 22.5q-44 0 -81.5 -56.5t-56 -125t-18.5 -121.5q0 -80 55 -80zM523 681l33 -27q-42 -59 -73 -82.5t-68 -23.5q-24 0 -44 14t-34.5 27.5t-24.5 13.5q-38 0 -86 -55l-32 28q40 58 71 81.5t69 23.5q29 0 60.5 -27
t43.5 -27q38 0 85 54z" />
    <glyph glyph-name="adieresis" unicode="&#xe4;" horiz-adv-x="597" 
d="M560 166l30 -18q-78 -162 -175 -162q-38 0 -53.5 20.5t-15.5 68.5q0 21 5 49q-27 -66 -76.5 -102.5t-106.5 -36.5q-63 0 -98.5 42t-35.5 113q0 124 78 228t179 104q85 0 114 -92l20 78h136l-80 -288q-20 -77 -20 -98q0 -22 19 -22q11 0 35 34q25 33 45 82zM220 38
q44 0 82 54q36 51 56 117t20 121q0 46 -16.5 68.5t-40.5 22.5q-44 0 -81.5 -56.5t-56 -125t-18.5 -121.5q0 -80 55 -80zM477 553q-22 0 -38 17.5t-16 40.5q0 26 17 44.5t40 18.5q24 0 40 -17.5t16 -42.5t-17 -43t-42 -18zM285 553q-23 0 -39 17t-16 41q0 26 17 44.5t41 18.5
q23 0 39.5 -17.5t16.5 -42.5t-17 -43t-42 -18z" />
    <glyph glyph-name="aring" unicode="&#xe5;" horiz-adv-x="597" 
d="M560 166l30 -18q-78 -162 -175 -162q-38 0 -53.5 20.5t-15.5 68.5q0 21 5 49q-27 -66 -76.5 -102.5t-106.5 -36.5q-63 0 -98.5 42t-35.5 113q0 124 78 228t179 104q85 0 114 -92l20 78h136l-80 -288q-20 -77 -20 -98q0 -22 19 -22q11 0 35 34q25 33 45 82zM220 38
q44 0 82 54q36 51 56 117t20 121q0 46 -16.5 68.5t-40.5 22.5q-44 0 -81.5 -56.5t-56 -125t-18.5 -121.5q0 -80 55 -80zM344 636q0 -15 10.5 -26.5t24.5 -11.5t24.5 12t10.5 28q1 23 -16.5 33t-35.5 -0.5t-18 -34.5zM456 640q0 -37 -22.5 -61.5t-55.5 -24.5q-32 0 -53.5 23
t-21.5 58q0 37 22.5 61t56.5 24q32 0 53 -22.5t21 -57.5z" />
    <glyph glyph-name="ae" unicode="&#xe6;" horiz-adv-x="762" 
d="M734 368q0 -62 -84 -114q-81 -50 -210 -73q-5 -30 -5 -42q1 -97 80 -97q91 0 155 108l27 -19q-38 -71 -96.5 -108.5t-118.5 -37.5q-63 0 -106 28t-61 79q-95 -105 -228 -105q-42 0 -68.5 21.5t-26.5 58.5q0 45 30 82t82 61q96 44 214 58l18 60q7 21 7 36q0 35 -15.5 50
t-49.5 15q-29 0 -59.5 -9t-44.5 -23q33 -15 33 -46q0 -29 -26 -55t-61 -26q-23 0 -38 14t-15 35q0 45 39 81q78 71 197 71q86 0 116 -47l3 -6q70 54 158 54q154 0 154 -104zM620 375q0 28 -14 43t-36 15q-34 0 -63 -38q-48 -66 -62 -176q175 34 175 156zM174 45
q96 0 133 190q-72 -9 -125 -48q-52 -37 -52 -98q0 -19 12.5 -31.5t31.5 -12.5z" />
    <glyph glyph-name="ccedilla" unicode="&#xe7;" horiz-adv-x="467" 
d="M282 -97q0 -34 -32 -58q-31 -25 -70 -25q-34 0 -67 16l8 28q21 -6 37 -6q55 0 55 34q0 13 -14.5 23t-40.5 10l34 63q-73 10 -115 58t-42 127q0 128 82 213q83 86 198 86q65 0 104.5 -26.5t39.5 -76.5q0 -34 -22 -65t-56 -31q-59 0 -59 59q0 24 15.5 46t36.5 22
q22 0 42 -13q-5 22 -28.5 36t-58.5 14q-60 0 -108 -71q-48 -70 -48 -194q0 -62 24 -97t63 -35q85 0 140 109l30 -15q-74 -146 -196 -149l-16 -31q28 -2 46 -15.5t18 -35.5z" />
    <glyph glyph-name="egrave" unicode="&#xe8;" horiz-adv-x="482" 
d="M467 368q0 -62 -84 -114q-83 -50 -211 -73q-4 -19 -4 -42q0 -97 79 -97q91 0 155 108l27 -19q-38 -71 -96.5 -108.5t-118.5 -37.5q-84 0 -131.5 49.5t-47.5 132.5q0 121 80 213t197 92q155 0 155 -104zM352 375q0 28 -14 43t-36 15q-53 0 -86 -78q-27 -62 -39 -136
q175 34 175 156zM385 547l-25 -13q-17 20 -57 58q-75 73 -75 92q0 20 14 33t38 13q34 0 48 -32q19 -44 57 -151z" />
    <glyph glyph-name="eacute" unicode="&#xe9;" horiz-adv-x="482" 
d="M467 368q0 -62 -84 -114q-83 -50 -211 -73q-4 -19 -4 -42q0 -97 79 -97q91 0 155 108l27 -19q-38 -71 -96.5 -108.5t-118.5 -37.5q-84 0 -131.5 49.5t-47.5 132.5q0 121 80 213t197 92q155 0 155 -104zM352 375q0 28 -14 43t-36 15q-53 0 -86 -78q-27 -62 -39 -136
q175 34 175 156zM252 529l-19 13l21 32l20 32q17 28 38 54q23 30 36 40q31 24 59 24q20 -1 29.5 -15.5t3.5 -34.5t-25 -36q-30 -29 -68 -52l-43 -27q-12 -6 -52 -30z" />
    <glyph glyph-name="ecircumflex" unicode="&#xea;" horiz-adv-x="482" 
d="M467 368q0 -62 -84 -114q-83 -50 -211 -73q-4 -19 -4 -42q0 -97 79 -97q91 0 155 108l27 -19q-38 -71 -96.5 -108.5t-118.5 -37.5q-84 0 -131.5 49.5t-47.5 132.5q0 121 80 213t197 92q155 0 155 -104zM352 375q0 28 -14 43t-36 15q-53 0 -86 -78q-27 -62 -39 -136
q175 34 175 156zM413 729l64 -172h-37l-94 110l-152 -110h-38l161 172h96z" />
    <glyph glyph-name="edieresis" unicode="&#xeb;" horiz-adv-x="482" 
d="M467 368q0 -62 -84 -114q-83 -50 -211 -73q-4 -19 -4 -42q0 -97 79 -97q91 0 155 108l27 -19q-38 -71 -96.5 -108.5t-118.5 -37.5q-84 0 -131.5 49.5t-47.5 132.5q0 121 80 213t197 92q155 0 155 -104zM352 375q0 28 -14 43t-36 15q-53 0 -86 -78q-27 -62 -39 -136
q175 34 175 156zM424 553q-22 0 -38 17.5t-16 40.5q0 26 17 44.5t40 18.5q24 0 40 -17.5t16 -42.5t-17 -43t-42 -18zM232 553q-23 0 -39 17t-16 41q0 26 17 44.5t41 18.5q23 0 39.5 -17.5t16.5 -42.5t-17 -43t-42 -18z" />
    <glyph glyph-name="igrave" unicode="&#xec;" horiz-adv-x="357" 
d="M304 166l29 -18q-76 -163 -172 -163q-90 0 -90 79q0 29 23 116l41 149q12 41 12 60t-15 19q-14 0 -39 -33.5t-47 -82.5l-30 18q76 162 173 162q89 0 89 -78q0 -33 -23 -119l-41 -147q-12 -42 -11 -60t16 -18q13 0 38 34q27 35 47 82zM300 547l-25 -13q-17 20 -57 58
q-75 73 -75 92q0 20 14 33t38 13q34 0 48 -32q19 -44 57 -151z" />
    <glyph glyph-name="iacute" unicode="&#xed;" horiz-adv-x="357" 
d="M304 166l29 -18q-76 -163 -172 -163q-90 0 -90 79q0 29 23 116l41 149q12 41 12 60t-15 19q-14 0 -39 -33.5t-47 -82.5l-30 18q76 162 173 162q89 0 89 -78q0 -33 -23 -119l-41 -147q-12 -42 -11 -60t16 -18q13 0 38 34q27 35 47 82zM148 529l-19 13l21 32l20 32
q17 28 38 54q23 30 36 40q31 24 59 24q20 -1 29.5 -15.5t3.5 -34.5t-25 -36q-30 -29 -68 -52l-43 -27q-12 -6 -52 -30z" />
    <glyph glyph-name="icircumflex" unicode="&#xee;" horiz-adv-x="357" 
d="M304 166l29 -18q-76 -163 -172 -163q-90 0 -90 79q0 29 23 116l41 149q12 41 12 60t-15 19q-14 0 -39 -33.5t-47 -82.5l-30 18q76 162 173 162q89 0 89 -78q0 -33 -23 -119l-41 -147q-12 -42 -11 -60t16 -18q13 0 38 34q27 35 47 82zM306 729l64 -172h-37l-94 110
l-152 -110h-38l161 172h96z" />
    <glyph glyph-name="idieresis" unicode="&#xef;" horiz-adv-x="357" 
d="M304 166l29 -18q-76 -163 -172 -163q-90 0 -90 79q0 29 23 116l41 149q12 41 12 60t-15 19q-14 0 -39 -33.5t-47 -82.5l-30 18q76 162 173 162q89 0 89 -78q0 -33 -23 -119l-41 -147q-12 -42 -11 -60t16 -18q13 0 38 34q27 35 47 82zM330 553q-22 0 -38 17.5t-16 40.5
q0 26 17 44.5t40 18.5q24 0 40 -17.5t16 -42.5t-17 -43t-42 -18zM138 553q-23 0 -39 17t-16 41q0 26 17 44.5t41 18.5q23 0 39.5 -17.5t16.5 -42.5t-17 -43t-42 -18z" />
    <glyph glyph-name="eth" unicode="&#xf0;" horiz-adv-x="531" 
d="M184 597q0 -17 -12.5 -30.5t-30.5 -13.5t-31.5 14t-13.5 35q0 40 36 67t103 27q19 0 49 -5l44 61l42 -33l-32 -45q75 -35 118.5 -120t43.5 -212q0 -66 -15.5 -127t-47 -114t-86.5 -84.5t-126 -31.5q-90 0 -142 53.5t-52 141.5q0 132 58 211q59 80 163 80q92 0 120 -69
q-3 162 -69 222l-47 -66l-43 32l43 61q-16 6 -37 6q-47 0 -64 -21q12 -5 20.5 -17t8.5 -22zM231 25q39 0 70 48q31 46 47.5 104.5t16.5 107.5q0 130 -71 130q-36 0 -63.5 -30.5t-42.5 -80.5q-26 -98 -26 -176q0 -52 18.5 -77.5t50.5 -25.5z" />
    <glyph glyph-name="ntilde" unicode="&#xf1;" horiz-adv-x="637" 
d="M600 166l30 -18q-78 -163 -172 -163q-44 0 -67 21t-23 59q0 32 23 116l27 101q13 48 13 76q0 24 -8 34t-29 10q-37 0 -90 -71q-50 -69 -73 -153l-47 -178h-140l95 340q19 68 -7 68q-15 0 -39 -32.5t-47 -83.5l-30 18q76 162 173 162q40 0 56.5 -18t16.5 -55
q0 -39 -17 -115q40 82 98 135q59 53 121 53q106 0 106 -96q0 -38 -12 -79l-47 -168q-11 -36 -11 -59q0 -20 15 -20q13 0 38 34q26 35 47 82zM558 681l33 -27q-42 -59 -73 -82.5t-68 -23.5q-24 0 -44 14t-34.5 27.5t-24.5 13.5q-38 0 -86 -55l-32 28q40 58 71 81.5t69 23.5
q29 0 60.5 -27t43.5 -27q39 0 85 54z" />
    <glyph glyph-name="ograve" unicode="&#xf2;" horiz-adv-x="529" 
d="M230 25q45 0 79 51t48.5 113.5t14.5 116.5q0 67 -15.5 97t-48.5 30q-44 0 -79 -51q-64 -95 -64 -238q0 -119 65 -119zM504 282q0 -121 -82 -209q-81 -88 -199 -88q-88 0 -138 51.5t-50 138.5q0 131 79 213q79 84 202 84q86 0 137 -52.5t51 -137.5zM397 547l-25 -13
q-17 20 -57 58q-75 73 -75 92q0 20 14 33t38 13q34 0 48 -32q19 -44 57 -151z" />
    <glyph glyph-name="oacute" unicode="&#xf3;" horiz-adv-x="529" 
d="M230 25q45 0 79 51t48.5 113.5t14.5 116.5q0 67 -15.5 97t-48.5 30q-44 0 -79 -51q-64 -95 -64 -238q0 -119 65 -119zM504 282q0 -121 -82 -209q-81 -88 -199 -88q-88 0 -138 51.5t-50 138.5q0 131 79 213q79 84 202 84q86 0 137 -52.5t51 -137.5zM258 529l-19 13l21 32
l20 32q17 28 38 54q23 30 36 40q31 24 59 24q20 -1 29.5 -15.5t3.5 -34.5t-25 -36q-30 -29 -68 -52l-43 -27q-12 -6 -52 -30z" />
    <glyph glyph-name="ocircumflex" unicode="&#xf4;" horiz-adv-x="529" 
d="M230 25q45 0 79 51t48.5 113.5t14.5 116.5q0 67 -15.5 97t-48.5 30q-44 0 -79 -51q-64 -95 -64 -238q0 -119 65 -119zM504 282q0 -121 -82 -209q-81 -88 -199 -88q-88 0 -138 51.5t-50 138.5q0 131 79 213q79 84 202 84q86 0 137 -52.5t51 -137.5zM416 729l64 -172h-37
l-94 110l-152 -110h-38l161 172h96z" />
    <glyph glyph-name="otilde" unicode="&#xf5;" horiz-adv-x="529" 
d="M230 25q45 0 79 51t48.5 113.5t14.5 116.5q0 67 -15.5 97t-48.5 30q-44 0 -79 -51q-64 -95 -64 -238q0 -119 65 -119zM504 282q0 -121 -82 -209q-81 -88 -199 -88q-88 0 -138 51.5t-50 138.5q0 131 79 213q79 84 202 84q86 0 137 -52.5t51 -137.5zM476 681l33 -27
q-42 -59 -73 -82.5t-68 -23.5q-24 0 -44 14t-34.5 27.5t-24.5 13.5q-38 0 -86 -55l-32 28q40 58 71 81.5t69 23.5q31 0 61 -27t43 -27q39 0 85 54z" />
    <glyph glyph-name="odieresis" unicode="&#xf6;" horiz-adv-x="529" 
d="M230 25q45 0 79 51t48.5 113.5t14.5 116.5q0 67 -15.5 97t-48.5 30q-44 0 -79 -51q-64 -95 -64 -238q0 -119 65 -119zM504 282q0 -121 -82 -209q-81 -88 -199 -88q-88 0 -138 51.5t-50 138.5q0 131 79 213q79 84 202 84q86 0 137 -52.5t51 -137.5zM423 553
q-22 0 -38 17.5t-16 40.5q0 26 17 44.5t40 18.5q24 0 40 -17.5t16 -42.5t-17 -43t-42 -18zM231 553q-23 0 -39 17t-16 41q0 26 17 44.5t41 18.5q23 0 39.5 -17.5t16.5 -42.5t-17 -43t-42 -18z" />
    <glyph glyph-name="divide" unicode="&#xf7;" horiz-adv-x="520" 
d="M359 486q0 -23 -14 -37t-33 -14q-47 0 -49 50q1 22 15 36.5t34 14.5q21 0 34 -14t13 -36zM79 361h394l-19 -63h-394zM271 175q0 -23 -13.5 -38.5t-35.5 -15.5q-20 0 -33.5 14.5t-13.5 36.5q0 23 14 38t35 15t34 -14t13 -36z" />
    <glyph glyph-name="oslash" unicode="&#xf8;" horiz-adv-x="529" 
d="M102 21l-21 -21h-76l60 62q-30 46 -30 113q0 131 79 213q79 84 202 84q64 0 113 -32l18 18h76l-55 -57q36 -50 36 -119q0 -121 -82 -209q-81 -88 -199 -88q-71 0 -121 36zM230 25q43 0 78 50q62 93 64 226l-204 -211q11 -65 62 -65zM308 433q-42 0 -75 -45
q-60 -84 -67 -222l200 208q-14 59 -58 59z" />
    <glyph glyph-name="ugrave" unicode="&#xf9;" horiz-adv-x="621" 
d="M376 59q0 43 18 115q-94 -189 -212 -189q-106 0 -106 97q0 38 12 78l48 169q9 33 10 59q0 19 -15 19q-32 0 -85 -116l-30 18q76 163 173 163q89 0 89 -79q0 -29 -23 -116l-27 -101q-13 -48 -13 -77q0 -43 34 -43q38 0 90 79q53 80 74 160l42 163h139l-94 -339
q-9 -31 -9 -51q0 -18 15 -18q17 0 40.5 32t45.5 84l30 -18q-76 -163 -172 -163q-40 0 -57 18.5t-17 55.5zM428 547l-25 -13q-17 20 -57 58q-75 73 -75 92q0 20 14 33t38 13q34 0 48 -32q19 -44 57 -151z" />
    <glyph glyph-name="uacute" unicode="&#xfa;" horiz-adv-x="621" 
d="M376 59q0 43 18 115q-94 -189 -212 -189q-106 0 -106 97q0 38 12 78l48 169q9 33 10 59q0 19 -15 19q-32 0 -85 -116l-30 18q76 163 173 163q89 0 89 -79q0 -29 -23 -116l-27 -101q-13 -48 -13 -77q0 -43 34 -43q38 0 90 79q53 80 74 160l42 163h139l-94 -339
q-9 -31 -9 -51q0 -18 15 -18q17 0 40.5 32t45.5 84l30 -18q-76 -163 -172 -163q-40 0 -57 18.5t-17 55.5zM308 529l-19 13l21 32l20 32q17 28 38 54q23 30 36 40q31 24 59 24q20 -1 29.5 -15.5t3.5 -34.5t-25 -36q-30 -29 -68 -52l-43 -27q-12 -6 -52 -30z" />
    <glyph glyph-name="ucircumflex" unicode="&#xfb;" horiz-adv-x="621" 
d="M376 59q0 43 18 115q-94 -189 -212 -189q-106 0 -106 97q0 38 12 78l48 169q9 33 10 59q0 19 -15 19q-32 0 -85 -116l-30 18q76 163 173 163q89 0 89 -79q0 -29 -23 -116l-27 -101q-13 -48 -13 -77q0 -43 34 -43q38 0 90 79q53 80 74 160l42 163h139l-94 -339
q-9 -31 -9 -51q0 -18 15 -18q17 0 40.5 32t45.5 84l30 -18q-76 -163 -172 -163q-40 0 -57 18.5t-17 55.5zM472 729l64 -172h-37l-94 110l-152 -110h-38l161 172h96z" />
    <glyph glyph-name="udieresis" unicode="&#xfc;" horiz-adv-x="621" 
d="M376 59q0 43 18 115q-94 -189 -212 -189q-106 0 -106 97q0 38 12 78l48 169q9 33 10 59q0 19 -15 19q-32 0 -85 -116l-30 18q76 163 173 163q89 0 89 -79q0 -29 -23 -116l-27 -101q-13 -48 -13 -77q0 -43 34 -43q38 0 90 79q53 80 74 160l42 163h139l-94 -339
q-9 -31 -9 -51q0 -18 15 -18q17 0 40.5 32t45.5 84l30 -18q-76 -163 -172 -163q-40 0 -57 18.5t-17 55.5zM485 553q-22 0 -38 17.5t-16 40.5q0 26 17 44.5t40 18.5q24 0 40 -17.5t16 -42.5t-17 -43t-42 -18zM293 553q-23 0 -39 17t-16 41q0 26 17 44.5t41 18.5
q23 0 39.5 -17.5t16.5 -42.5t-17 -43t-42 -18z" />
    <glyph glyph-name="yacute" unicode="&#xfd;" horiz-adv-x="506" 
d="M505 411q0 -92 -68 -239q-68 -146 -169 -259q-102 -114 -185 -114q-44 0 -68.5 22.5t-24.5 55.5q0 36 19.5 54t43.5 18q23 0 39.5 -18t16.5 -42q0 -34 -22 -53q37 2 85.5 39.5t90.5 97.5q-56 248 -84 331q-27 86 -55 86q-16 0 -31.5 -22.5t-37.5 -75.5l-30 15
q31 83 67 124t86 41q69 7 114 -95q11 -24 25 -74q14 -51 21 -88q11 -48 23 -108q73 139 95 233q-49 39 -49 79q0 22 14 37t33 15q21 0 36 -18t15 -42zM280 529l-19 13l21 32l20 32q17 28 38 54q23 30 36 40q31 24 59 24q20 -1 29.5 -15.5t3.5 -34.5t-25 -36q-30 -29 -68 -52
l-43 -27q-12 -6 -52 -30z" />
    <glyph glyph-name="thorn" unicode="&#xfe;" horiz-adv-x="574" 
d="M171 725l209 11l-123 -399q33 63 84 99t103 36q61 0 94 -41.5t33 -111.5q0 -75 -32 -153q-31 -76 -92 -129q-59 -52 -131 -52q-49 0 -80 30t-32 80l-52 -198q-6 -23 -6 -26q0 -20 29 -20h53l-11 -39h-290l11 39h30q22 0 31.5 9.5t16.5 36.5l200 742q5 22 5 27
q0 20 -30 20h-30zM440 340q0 79 -53 79q-30 3 -69 -43.5t-66 -113.5t-25 -119q0 -106 59 -106q44 0 81 56.5t55 125t18 121.5z" />
    <glyph glyph-name="ydieresis" unicode="&#xff;" horiz-adv-x="506" 
d="M505 411q0 -92 -68 -239q-68 -146 -169 -259q-102 -114 -185 -114q-44 0 -68.5 22.5t-24.5 55.5q0 36 19.5 54t43.5 18q23 0 39.5 -18t16.5 -42q0 -34 -22 -53q37 2 85.5 39.5t90.5 97.5q-56 248 -84 331q-27 86 -55 86q-16 0 -31.5 -22.5t-37.5 -75.5l-30 15
q31 83 67 124t86 41q69 7 114 -95q11 -24 25 -74q14 -51 21 -88q11 -48 23 -108q73 139 95 233q-49 39 -49 79q0 22 14 37t33 15q21 0 36 -18t15 -42zM403 553q-22 0 -38 17.5t-16 40.5q0 26 17 44.5t40 18.5q24 0 40 -17.5t16 -42.5t-17 -43t-42 -18zM211 553q-23 0 -39 17
t-16 41q0 26 17 44.5t41 18.5q23 0 39.5 -17.5t16.5 -42.5t-17 -43t-42 -18z" />
    <glyph glyph-name="Amacron" unicode="&#x100;" horiz-adv-x="696" 
d="M615 39h12l-10 -39h-313l9 39h46q24 0 34 8t10 31q0 2 -0.5 11.5t-0.5 12.5l-13 123h-228l-61 -100q-51 -86 6 -86h40l-10 -39h-206l10 39h13q33 0 55.5 18.5t50.5 67.5l360 611h71l72 -634q4 -34 16.5 -48.5t36.5 -14.5zM184 265h200l-30 286zM635 896l-16 -75h-299
l16 75h299z" />
    <glyph glyph-name="amacron" unicode="&#x101;" horiz-adv-x="597" 
d="M560 166l30 -18q-78 -162 -175 -162q-38 0 -53.5 20.5t-15.5 68.5q0 21 5 49q-27 -66 -76.5 -102.5t-106.5 -36.5q-63 0 -98.5 42t-35.5 113q0 124 78 228t179 104q85 0 114 -92l20 78h136l-80 -288q-20 -77 -20 -98q0 -22 19 -22q11 0 35 34q25 33 45 82zM220 38
q44 0 82 54q36 51 56 117t20 121q0 46 -16.5 68.5t-40.5 22.5q-44 0 -81.5 -56.5t-56 -125t-18.5 -121.5q0 -80 55 -80zM575 632l-16 -75h-299l16 75h299z" />
    <glyph glyph-name="Aogonek" unicode="&#x104;" horiz-adv-x="696" 
d="M615 39h12l-10 -39q-30 -20 -50.5 -47t-20.5 -43q0 -30 36 -30q19 0 43 9l6 -19q-71 -50 -119 -50q-26 0 -39.5 13.5t-13.5 35.5q0 32 29 68t77 63h-261l9 39h46q24 0 34 8t10 31q0 19 -1 24l-13 123h-228l-61 -100q-51 -86 6 -86h40l-10 -39h-206l10 39h13
q33 0 55.5 18.5t50.5 67.5l360 611h71l72 -634q4 -34 16.5 -48.5t36.5 -14.5zM184 265h200l-30 286z" />
    <glyph glyph-name="aogonek" unicode="&#x105;" horiz-adv-x="597" 
d="M560 166l30 -18q-58 -121 -125 -151q-28 -20 -47 -45.5t-19 -41.5q0 -30 36 -30q19 0 43 9l6 -19q-71 -50 -119 -50q-26 0 -39.5 13.5t-13.5 35.5q0 29 23 61t62 58q-27 4 -39 24.5t-12 62.5q0 21 5 49q-27 -66 -76.5 -102.5t-106.5 -36.5q-63 0 -98.5 42t-35.5 113
q0 124 78 228t179 104q85 0 114 -92l20 78h136l-80 -288q-20 -77 -20 -98q0 -22 19 -22q11 0 35 34q25 33 45 82zM220 38q44 0 82 54q36 51 56 117t20 121q0 46 -16.5 68.5t-40.5 22.5q-44 0 -81.5 -56.5t-56 -125t-18.5 -121.5q0 -80 55 -80z" />
    <glyph glyph-name="Cacute" unicode="&#x106;" horiz-adv-x="639" 
d="M643 735h33l-59 -284h-38q2 32 2 40q0 77 -27 135q-31 70 -109 70q-88 0 -167 -111q-38 -55 -61 -145t-23 -196q0 -96 37.5 -151.5t95.5 -55.5q73 0 133 55.5t96 157.5l33 -15q-21 -69 -59 -121.5t-84 -79.5q-83 -49 -163 -49q-108 0 -179 74q-71 76 -71 207
q0 68 16.5 135t50.5 127.5t81 107t111.5 73.5t138.5 27q46 0 91 -24t69 -62zM414 793l-19 13l21 32l20 32q17 28 38 54q23 30 36 40q31 24 59 24q20 -1 29.5 -15.5t3.5 -34.5t-25 -36q-30 -29 -68 -52l-43 -27q-12 -6 -52 -30z" />
    <glyph glyph-name="cacute" unicode="&#x107;" horiz-adv-x="467" 
d="M459 369q0 -34 -22 -65t-56 -31q-59 0 -59 59q0 26 15.5 47t40.5 21q24 0 47 -18q-3 23 -27 39t-59 16q-68 0 -117 -70t-49 -195q0 -62 24 -97t63 -35q85 0 140 109l30 -15q-75 -149 -200 -149q-87 0 -141 50t-54 138q0 128 82 213q83 86 198 86q65 0 104.5 -26.5
t39.5 -76.5zM279 529l-19 13l21 32l20 32q17 28 38 54q23 30 36 40q31 24 59 24q20 -1 29.5 -15.5t3.5 -34.5t-25 -36q-30 -29 -68 -52l-43 -27q-12 -6 -52 -30z" />
    <glyph glyph-name="Ccaron" unicode="&#x10c;" horiz-adv-x="639" 
d="M643 735h33l-59 -284h-38q2 32 2 40q0 77 -27 135q-31 70 -109 70q-88 0 -167 -111q-38 -55 -61 -145t-23 -196q0 -96 37.5 -151.5t95.5 -55.5q73 0 133 55.5t96 157.5l33 -15q-21 -69 -59 -121.5t-84 -79.5q-83 -49 -163 -49q-108 0 -179 74q-71 76 -71 207
q0 68 16.5 135t50.5 127.5t81 107t111.5 73.5t138.5 27q46 0 91 -24t69 -62zM614 993h38l-162 -172h-95l-64 172h37l93 -109z" />
    <glyph glyph-name="ccaron" unicode="&#x10d;" horiz-adv-x="467" 
d="M459 369q0 -34 -22 -65t-56 -31q-59 0 -59 59q0 26 15.5 47t40.5 21q24 0 47 -18q-3 23 -27 39t-59 16q-68 0 -117 -70t-49 -195q0 -62 24 -97t63 -35q85 0 140 109l30 -15q-75 -149 -200 -149q-87 0 -141 50t-54 138q0 128 82 213q83 86 198 86q65 0 104.5 -26.5
t39.5 -76.5zM481 729h38l-162 -172h-95l-64 172h37l93 -109z" />
    <glyph glyph-name="Dcaron" unicode="&#x10e;" horiz-adv-x="748" 
d="M730 445q0 -118 -52 -219q-53 -101 -147 -164q-95 -62 -212 -62h-373l11 39h35q27 0 41.5 13.5t24.5 49.5l138 518q6 22 6 35q0 28 -37 28h-35l11 39h288q169 0 239 -87q62 -75 62 -190zM574 494q0 84 -33 136.5t-93 52.5h-32q-25 0 -36.5 -12t-22.5 -51l-139 -518
q-5 -28 -5 -35q0 -16 8.5 -22t28.5 -6h40q85 0 152 73q68 74 99 175q33 103 33 207zM611 993h38l-162 -172h-95l-64 172h37l93 -109z" />
    <glyph glyph-name="dcaron" unicode="&#x10f;" horiz-adv-x="806" 
d="M428 725l209 11l-166 -606q-10 -36 -10 -60q0 -20 15 -20q13 0 38 34q27 36 46 82l31 -18q-80 -162 -173 -162q-73 0 -73 89q0 23 6 49q-29 -68 -77.5 -103.5t-105.5 -35.5q-63 0 -98.5 42t-35.5 113q0 124 78 228t179 104q47 0 77.5 -26.5t34.5 -76.5l71 270q4 21 4 27
q0 20 -30 20h-30zM378 330q0 46 -16.5 68.5t-40.5 22.5q-35 0 -66 -37t-63 -127q-27 -75 -27 -139q0 -80 55 -80q30 0 71 41q41 43 68 136q19 60 19 115zM663 659q0 30 20.5 52t48.5 22q29 0 47.5 -21.5t18.5 -52.5q0 -60 -56 -119q-55 -58 -119 -88l-9 22q83 51 99 118
q-24 5 -37 24.5t-13 42.5z" />
    <glyph glyph-name="Dcroat" unicode="&#x110;" horiz-adv-x="748" 
d="M730 445q0 -118 -52 -219q-53 -101 -147 -164q-95 -62 -212 -62h-373l11 39h35q27 0 42 13t24 50l66 248h-70l16 55h68l58 215q6 22 6 35q0 28 -37 28h-35l11 39h288q169 0 239 -87q62 -75 62 -190zM437 405l-16 -55h-137l-66 -248q-5 -28 -5 -35q0 -16 8.5 -22t28.5 -6
h40q85 0 152 73q68 74 99 175q33 103 33 207q0 84 -33 136.5t-93 52.5h-32q-25 0 -36.5 -12t-22.5 -51l-58 -215h138z" />
    <glyph glyph-name="dslash" unicode="&#x111;" horiz-adv-x="597" 
d="M665 584l-14 -47h-69l-111 -407q-10 -36 -10 -60q0 -20 15 -20q13 0 38 34q27 36 46 82l31 -18q-80 -162 -173 -162q-73 0 -73 99q0 19 6 39q-29 -68 -77.5 -103.5t-105.5 -35.5q-63 0 -98.5 42t-35.5 113q0 124 78 228t179 104q47 0 77.5 -26.5t34.5 -76.5l44 168h-166
l14 47h164l15 55q4 21 4 27q0 20 -30 20h-30l10 39l209 11l-42 -152h70zM378 330q0 46 -16.5 68.5t-40.5 22.5q-38 0 -69 -37.5t-60 -126.5q-27 -83 -27 -139q0 -80 55 -80q30 0 71 41q41 43 68 136q19 60 19 115z" />
    <glyph glyph-name="Emacron" unicode="&#x112;" horiz-adv-x="649" 
d="M141 722h538l-51 -241h-38q7 49 7 89q0 80 -23 98q-20 15 -59 15h-99q-25 0 -36.5 -12t-22.5 -51l-60 -226h61q44 0 73 31t51 111h36l-88 -325h-36q14 61 14 84q0 59 -62 59h-60l-68 -252q-9 -32 -2.5 -47.5t34.5 -15.5h85q28 0 36 1q40 2 66 28q58 62 118 205h37
l-90 -273h-556l11 39h35q27 0 41.5 13.5t24.5 49.5l138 518q6 24 6 35q0 28 -37 28h-35zM621 896l-16 -75h-299l16 75h299z" />
    <glyph glyph-name="emacron" unicode="&#x113;" horiz-adv-x="482" 
d="M467 368q0 -62 -84 -114q-83 -50 -211 -73q-4 -19 -4 -42q0 -97 79 -97q91 0 155 108l27 -19q-38 -71 -96.5 -108.5t-118.5 -37.5q-84 0 -131.5 49.5t-47.5 132.5q0 121 80 213t197 92q155 0 155 -104zM352 375q0 28 -14 43t-36 15q-53 0 -86 -78q-27 -62 -39 -136
q175 34 175 156zM496 632l-16 -75h-299l16 75h299z" />
    <glyph glyph-name="Edotaccent" unicode="&#x116;" horiz-adv-x="649" 
d="M141 722h538l-51 -241h-38q7 49 7 89q0 80 -23 98q-20 15 -59 15h-99q-25 0 -36.5 -12t-22.5 -51l-60 -226h61q44 0 73 31t51 111h36l-88 -325h-36q14 61 14 84q0 59 -62 59h-60l-68 -252q-9 -32 -2.5 -47.5t34.5 -15.5h85q28 0 36 1q40 2 66 28q58 62 118 205h37
l-90 -273h-556l11 39h35q27 0 41.5 13.5t24.5 49.5l138 518q6 24 6 35q0 28 -37 28h-35zM524 888q0 -30 -22.5 -52.5t-54.5 -22.5q-29 0 -51 21.5t-22 51.5q0 31 23 53.5t54 22.5t52 -21.5t21 -52.5z" />
    <glyph glyph-name="edotaccent" unicode="&#x117;" horiz-adv-x="482" 
d="M467 368q0 -62 -84 -114q-83 -50 -211 -73q-4 -19 -4 -42q0 -97 79 -97q91 0 155 108l27 -19q-38 -71 -96.5 -108.5t-118.5 -37.5q-84 0 -131.5 49.5t-47.5 132.5q0 121 80 213t197 92q155 0 155 -104zM352 375q0 28 -14 43t-36 15q-53 0 -86 -78q-27 -62 -39 -136
q175 34 175 156zM399 624q0 -30 -22.5 -52.5t-54.5 -22.5q-29 0 -51 21.5t-22 51.5q0 31 23 53.5t54 22.5t52 -21.5t21 -52.5z" />
    <glyph glyph-name="Eogonek" unicode="&#x118;" horiz-adv-x="649" 
d="M141 722h538l-51 -241h-38q7 49 7 89q0 80 -23 98q-20 15 -59 15h-99q-25 0 -36.5 -12t-22.5 -51l-60 -226h61q44 0 73 31t51 111h36l-88 -325h-36q14 61 14 84q0 59 -62 59h-60l-68 -252q-9 -32 -2.5 -47.5t34.5 -15.5h85q28 0 36 1q40 2 66 28q58 62 118 205h37
l-90 -273q-30 -20 -50.5 -47t-20.5 -43q0 -30 36 -30q19 0 43 9l6 -19q-71 -50 -119 -50q-26 0 -39.5 13.5t-13.5 35.5q0 32 29 68t77 63h-504l11 39h35q27 0 41.5 13.5t24.5 49.5l138 518q6 24 6 35q0 28 -37 28h-35z" />
    <glyph glyph-name="eogonek" unicode="&#x119;" horiz-adv-x="482" 
d="M467 368q0 -62 -84 -114q-83 -50 -211 -73q-4 -19 -4 -42q0 -97 79 -97q91 0 155 108l27 -19q-53 -95 -141 -131q-30 -20 -50.5 -47t-20.5 -43q0 -30 36 -30q19 0 43 9l6 -19q-71 -50 -119 -50q-26 0 -39.5 13.5t-13.5 35.5q0 60 81 116q-82 1 -129 50.5t-47 131.5
q0 121 80 213t197 92q155 0 155 -104zM352 375q0 28 -14 43t-36 15q-53 0 -86 -78q-27 -62 -39 -136q175 34 175 156z" />
    <glyph glyph-name="Ecaron" unicode="&#x11a;" horiz-adv-x="649" 
d="M141 722h538l-51 -241h-38q7 49 7 89q0 80 -23 98q-20 15 -59 15h-99q-25 0 -36.5 -12t-22.5 -51l-60 -226h61q44 0 73 31t51 111h36l-88 -325h-36q14 61 14 84q0 59 -62 59h-60l-68 -252q-9 -32 -2.5 -47.5t34.5 -15.5h85q28 0 36 1q40 2 66 28q58 62 118 205h37
l-90 -273h-556l11 39h35q27 0 41.5 13.5t24.5 49.5l138 518q6 24 6 35q0 28 -37 28h-35zM600 993h38l-162 -172h-95l-64 172h37l93 -109z" />
    <glyph glyph-name="ecaron" unicode="&#x11b;" horiz-adv-x="482" 
d="M467 368q0 -62 -84 -114q-83 -50 -211 -73q-4 -19 -4 -42q0 -97 79 -97q91 0 155 108l27 -19q-38 -71 -96.5 -108.5t-118.5 -37.5q-84 0 -131.5 49.5t-47.5 132.5q0 121 80 213t197 92q155 0 155 -104zM352 375q0 28 -14 43t-36 15q-53 0 -86 -78q-27 -62 -39 -136
q175 34 175 156zM484 729h38l-162 -172h-95l-64 172h37l93 -109z" />
    <glyph glyph-name="Gcommaaccent" unicode="&#x122;" horiz-adv-x="693" 
d="M368 329h317l-11 -39h-32q-25 0 -37 -12.5t-22 -50.5l-65 -244h-37l-23 100q-90 -98 -175 -98q-109 0 -180 71q-70 70 -70 202q0 172 104 322q50 71 124 113.5t156 42.5q45 0 85 -22t65 -61l50 82h34l-49 -284h-37q0 73 -13.5 124t-36 76t-44.5 35t-47 10q-67 0 -118 -62
q-59 -71 -96 -270q-15 -81 -15 -137q0 -92 30 -141t78 -49q74 0 106 113l21 77q8 30 8 40q0 23 -32 23h-50zM360 -130q0 -59 -56 -118t-119 -89l-10 21q88 60 99 119q-25 5 -37.5 26.5t-12.5 45.5q0 29 20.5 49t48.5 20t47.5 -21.5t19.5 -52.5z" />
    <glyph glyph-name="gcommaaccent" unicode="&#x123;" horiz-adv-x="540" 
d="M589 435q0 -52 -46 -52q-34 0 -34 31q0 11 12 20.5t27 9.5q0 8 -15 8q-18 0 -38.5 -17t-24.5 -37q13 -22 13 -57q0 -80 -61 -132q-59 -52 -166 -52q-24 0 -59 6q-38 0 -63 -11t-25 -31q0 -30 69 -30h37q21 1 51 1q190 0 190 -126q0 -56 -53 -105q-62 -62 -229 -62
q-91 0 -143.5 26t-52.5 72q0 63 96 92q-50 26 -50 83q0 44 29 73.5t87 38.5q-51 36 -51 101q0 88 67 137q68 50 160 50q84 0 127 -36q39 47 86 47q26 0 43 -13t17 -35zM358 -82q0 24 -25 37q-11 5 -28 8q-24 3 -67 3q-88 0 -148 -9q-36 -18 -36 -54q0 -65 130 -65
q70 0 122 20q52 19 52 60zM360 362q0 31 -14 51t-38 20q-45 0 -70 -52q-25 -50 -25 -109q0 -75 52 -75q43 0 68 51q27 51 27 114zM413 621q0 -30 -20.5 -52t-49.5 -22q-28 0 -47 21.5t-19 52.5q0 59 55 117q56 58 120 90l9 -22q-84 -54 -99 -119q24 -5 37.5 -25t13.5 -41z
" />
    <glyph glyph-name="Imacron" unicode="&#x12a;" horiz-adv-x="400" 
d="M141 722h328l-11 -39h-35q-27 0 -42 -13t-24 -50l-139 -518q-5 -28 -5 -35q0 -16 8.5 -22t28.5 -6h34l-11 -39h-327l11 39h35q27 0 41 13t25 50l138 518q6 24 6 35q0 28 -37 28h-35zM478 896l-16 -75h-299l16 75h299z" />
    <glyph glyph-name="imacron" unicode="&#x12b;" horiz-adv-x="357" 
d="M304 166l29 -18q-76 -163 -172 -163q-90 0 -90 79q0 29 23 116l41 149q12 41 12 60t-15 19q-14 0 -39 -33.5t-47 -82.5l-30 18q76 162 173 162q89 0 89 -78q0 -33 -23 -119l-41 -147q-12 -42 -11 -60t16 -18q13 0 38 34q27 35 47 82zM339 632l-16 -75h-299l16 75h299z
" />
    <glyph glyph-name="Iogonek" unicode="&#x12e;" horiz-adv-x="400" 
d="M141 722h328l-11 -39h-35q-27 0 -42 -13t-24 -50l-139 -518q-9 -32 -2.5 -47.5t34.5 -15.5h34l-11 -39q-30 -20 -50.5 -47t-20.5 -43q0 -30 36 -30q19 0 43 9l6 -19q-71 -50 -119 -50q-26 0 -39.5 13.5t-13.5 35.5q0 32 29 68t77 63h-275l11 39h35q27 0 41 13t25 50
l138 518q6 24 6 35q0 28 -37 28h-35z" />
    <glyph glyph-name="iogonek" unicode="&#x12f;" horiz-adv-x="340" 
d="M304 166l29 -18q-55 -118 -119 -150q-29 -19 -48 -45t-19 -43q0 -30 36 -30q19 0 43 9l6 -19q-71 -50 -119 -50q-26 0 -39.5 13.5t-13.5 35.5q0 29 22 60.5t61 56.5q-72 9 -72 78q0 29 23 116l41 149q12 41 12 60t-15 19q-14 0 -39 -33.5t-47 -82.5l-30 18
q76 162 173 162q89 0 89 -78q0 -33 -23 -119l-41 -147q-12 -42 -11 -60t16 -18q13 0 38 34q27 35 47 82zM340 623q0 -30 -22.5 -52.5t-54.5 -22.5q-30 0 -51 21.5t-21 50.5q0 31 22.5 53.5t53.5 22.5t52 -21t21 -52z" />
    <glyph glyph-name="dotlessi" unicode="&#x131;" horiz-adv-x="357" 
d="M304 166l29 -18q-76 -163 -172 -163q-90 0 -90 79q0 29 23 116l41 149q12 41 12 60t-15 19q-14 0 -39 -33.5t-47 -82.5l-30 18q76 162 173 162q89 0 89 -78q0 -33 -23 -119l-41 -147q-12 -42 -11 -60t16 -18q13 0 38 34q27 35 47 82z" />
    <glyph glyph-name="Kcommaaccent" unicode="&#x136;" horiz-adv-x="776" 
d="M589 722h244l-12 -39h-22q-45 0 -142 -80l-185 -155l138 -346q24 -63 75 -63h23l-11 -39h-324l12 39h28q20 0 28 5.5t8 20.5q0 10 -10 37l-91 240l-84 -72l-46 -168q-9 -32 -2.5 -47.5t34.5 -15.5h27l-11 -39h-320l11 39h35q27 0 41 13t25 50l138 518q3 11 6 35
q0 28 -37 28h-35l11 39h328l-11 -39h-35q-27 0 -42 -13t-24 -50l-76 -284l314 272q42 38 42 58q0 17 -26 17h-33zM347 -130q0 -59 -56 -118t-119 -89l-10 21q88 60 99 119q-25 5 -37.5 26.5t-12.5 45.5q0 29 20.5 49t48.5 20t47.5 -21.5t19.5 -52.5z" />
    <glyph glyph-name="kcommaaccent" unicode="&#x137;" horiz-adv-x="569" 
d="M145 725l207 11l-115 -431q39 81 95 124t120 43q51 0 82 -26t31 -71q0 -64 -53.5 -107t-142.5 -58q25 -6 43.5 -31.5t24.5 -68.5q7 -57 27 -57q23 0 79 113l26 -18q-43 -85 -84 -124t-93 -39q-61 0 -77 33q-13 28 -13 79q0 11 2 38t2 31q0 33 -24 33q-22 0 -22 24
q0 5 2 11.5t11.5 14t24.5 7.5q4 0 21 -2t22 -2q50 1 78.5 32.5t28.5 75.5q0 25 -12.5 40.5t-31.5 15.5q-37 0 -85 -49q-48 -51 -83 -115q-37 -67 -50 -122l-34 -130h-136l173 639q4 15 4 28q0 19 -29 19h-31zM301 -130q0 -59 -56 -118t-119 -89l-10 21q88 60 99 119
q-25 5 -37.5 26.5t-12.5 45.5q0 29 20.5 49t48.5 20t47.5 -21.5t19.5 -52.5z" />
    <glyph glyph-name="Lacute" unicode="&#x139;" horiz-adv-x="622" 
d="M548 280h37l-92 -280h-547l11 39h35q26 0 41.5 13t24.5 50l138 518q6 21 6 35q0 28 -37 28h-35l11 39h336l-12 -39h-42q-27 0 -42 -13t-24 -50l-139 -518q-9 -32 -2.5 -47.5t34.5 -15.5h76q49 0 82 18q32 18 64 69t76 154zM300 793l-19 13l21 32l20 32q17 28 38 54
q23 30 36 40q31 24 59 24q20 -1 29.5 -15.5t3.5 -34.5t-25 -36q-30 -29 -68 -52l-43 -27q-12 -6 -52 -30z" />
    <glyph glyph-name="lacute" unicode="&#x13a;" horiz-adv-x="294" 
d="M127 726l208 11l-167 -608q-11 -39 -11 -59t15 -20q14 0 39 34q27 36 46 82l30 -18q-78 -162 -172 -162q-89 0 -89 79q0 35 22 116l124 459q4 20 4 27q0 20 -30 20h-30zM248 791l-19 13l21 32l20 32q17 28 38 54q23 30 36 40q31 24 59 24q20 -1 29.5 -15.5t3.5 -34.5
t-25 -36q-30 -29 -68 -52l-43 -27q-12 -6 -52 -30z" />
    <glyph glyph-name="Lcommaaccent" unicode="&#x13b;" horiz-adv-x="622" 
d="M548 280h37l-92 -280h-547l11 39h35q26 0 41.5 13t24.5 50l138 518q6 21 6 35q0 28 -37 28h-35l11 39h336l-12 -39h-42q-27 0 -42 -13t-24 -50l-139 -518q-9 -32 -2.5 -47.5t34.5 -15.5h76q49 0 82 18q32 18 64 69t76 154zM258 -130q0 -59 -56 -118t-119 -89l-10 21
q88 60 99 119q-25 5 -37.5 26.5t-12.5 45.5q0 29 20.5 49t48.5 20t47.5 -21.5t19.5 -52.5z" />
    <glyph glyph-name="lcommaaccent" unicode="&#x13c;" horiz-adv-x="294" 
d="M127 726l208 11l-167 -608q-11 -39 -11 -59t15 -20q14 0 39 34q27 36 46 82l30 -18q-78 -162 -172 -162q-89 0 -89 79q0 35 22 116l124 459q4 20 4 27q0 20 -30 20h-30zM132 -130q0 -59 -56 -118t-119 -89l-10 21q88 60 99 119q-25 5 -37.5 26.5t-12.5 45.5q0 29 20.5 49
t48.5 20t47.5 -21.5t19.5 -52.5z" />
    <glyph glyph-name="Lcaron" unicode="&#x13d;" horiz-adv-x="622" 
d="M548 280h37l-92 -280h-547l11 39h35q26 0 41.5 13t24.5 50l138 518q6 21 6 35q0 28 -37 28h-35l11 39h336l-12 -39h-42q-27 0 -42 -13t-24 -50l-139 -518q-9 -32 -2.5 -47.5t34.5 -15.5h76q49 0 82 18q32 18 64 69t76 154zM522 648q0 30 20.5 52t48.5 22q29 0 47.5 -21.5
t18.5 -52.5q0 -60 -56 -119q-55 -58 -119 -88l-9 22q83 51 99 118q-24 5 -37 24.5t-13 42.5z" />
    <glyph glyph-name="lcaron" unicode="&#x13e;" horiz-adv-x="503" 
d="M127 726l208 11l-167 -608q-11 -39 -11 -59t15 -20q14 0 39 34q27 36 46 82l30 -18q-78 -162 -172 -162q-89 0 -89 79q0 35 22 116l124 459q4 20 4 27q0 20 -30 20h-30zM380 659q0 30 20.5 52t48.5 22q29 0 47.5 -21.5t18.5 -52.5q0 -60 -56 -119q-55 -58 -119 -88l-9 22
q83 51 99 118q-24 5 -37 24.5t-13 42.5z" />
    <glyph glyph-name="Lslash" unicode="&#x141;" horiz-adv-x="622" 
d="M548 280h37l-92 -280h-547l11 39h35q26 0 41.5 13t24.5 50l54 203l-61 -23l-22 65l105 39l62 234q6 21 6 35q0 28 -37 28h-35l11 39h336l-12 -39h-42q-27 0 -42 -13t-24 -50l-45 -166l100 38l22 -65l-144 -55l-72 -270q-9 -32 -2.5 -47.5t34.5 -15.5h76q49 0 82 18
q32 18 64 69t76 154z" />
    <glyph glyph-name="lslash" unicode="&#x142;" horiz-adv-x="294" 
d="M127 726l208 11l-80 -288l118 45l23 -65l-163 -63l-65 -237q-11 -39 -11 -59t15 -20q14 0 39 34q27 36 46 82l30 -18q-78 -162 -172 -162q-89 0 -89 79q0 35 22 116l34 127l-68 -26l-22 65l112 43l68 250q4 13 4 27q0 20 -30 20h-30z" />
    <glyph glyph-name="Nacute" unicode="&#x143;" horiz-adv-x="742" 
d="M698 620l-167 -620h-44l-260 557h-4l-121 -455q-9 -32 -2.5 -47.5t33.5 -15.5h35l-11 -39h-211l11 39h35q27 0 41 13t25 50l138 518q6 24 6 35q0 28 -37 28h-35l11 39h204l206 -469h4l98 367q6 21 6 35q0 28 -36 28h-35l11 39h212l-11 -39h-35q-28 0 -43 -13t-24 -50z
M476 793l-19 13l21 32l20 32q17 28 38 54q23 30 36 40q31 24 59 24q20 -1 29.5 -15.5t3.5 -34.5t-25 -36q-30 -29 -68 -52l-43 -27q-12 -6 -52 -30z" />
    <glyph glyph-name="nacute" unicode="&#x144;" horiz-adv-x="637" 
d="M600 166l30 -18q-78 -163 -172 -163q-44 0 -67 21t-23 59q0 32 23 116l27 101q13 48 13 76q0 24 -8 34t-29 10q-37 0 -90 -71q-50 -69 -73 -153l-47 -178h-140l95 340q19 68 -7 68q-15 0 -39 -32.5t-47 -83.5l-30 18q76 162 173 162q40 0 56.5 -18t16.5 -55
q0 -39 -17 -115q40 82 98 135q59 53 121 53q106 0 106 -96q0 -38 -12 -79l-47 -168q-11 -36 -11 -59q0 -20 15 -20q13 0 38 34q26 35 47 82zM323 529l-19 13l21 32l20 32q17 28 38 54q23 30 36 40q31 24 59 24q20 -1 29.5 -15.5t3.5 -34.5t-25 -36q-30 -29 -68 -52l-43 -27
q-12 -6 -52 -30z" />
    <glyph glyph-name="Ncommaaccent" unicode="&#x145;" horiz-adv-x="742" 
d="M698 620l-167 -620h-44l-260 557h-4l-121 -455q-9 -32 -2.5 -47.5t33.5 -15.5h35l-11 -39h-211l11 39h35q27 0 41 13t25 50l138 518q6 24 6 35q0 28 -37 28h-35l11 39h204l206 -469h4l98 367q6 21 6 35q0 28 -36 28h-35l11 39h212l-11 -39h-35q-28 0 -43 -13t-24 -50z
M349 -130q0 -59 -56 -118t-119 -89l-10 21q88 60 99 119q-25 5 -37.5 26.5t-12.5 45.5q0 29 20.5 49t48.5 20t47.5 -21.5t19.5 -52.5z" />
    <glyph glyph-name="ncommaaccent" unicode="&#x146;" horiz-adv-x="637" 
d="M600 166l30 -18q-78 -163 -172 -163q-44 0 -67 21t-23 59q0 32 23 116l27 101q13 48 13 76q0 24 -8 34t-29 10q-37 0 -90 -71q-50 -69 -73 -153l-47 -178h-140l95 340q19 68 -7 68q-15 0 -39 -32.5t-47 -83.5l-30 18q76 162 173 162q40 0 56.5 -18t16.5 -55
q0 -39 -17 -115q40 82 98 135q59 53 121 53q106 0 106 -96q0 -38 -12 -79l-47 -168q-11 -36 -11 -59q0 -20 15 -20q13 0 38 34q26 35 47 82zM330 -130q0 -59 -56 -118t-119 -89l-10 21q88 60 99 119q-25 5 -37.5 26.5t-12.5 45.5q0 29 20.5 49t48.5 20t47.5 -21.5
t19.5 -52.5z" />
    <glyph glyph-name="Ncaron" unicode="&#x147;" horiz-adv-x="742" 
d="M698 620l-167 -620h-44l-260 557h-4l-121 -455q-9 -32 -2.5 -47.5t33.5 -15.5h35l-11 -39h-211l11 39h35q27 0 41 13t25 50l138 518q6 24 6 35q0 28 -37 28h-35l11 39h204l206 -469h4l98 367q6 21 6 35q0 28 -36 28h-35l11 39h212l-11 -39h-35q-28 0 -43 -13t-24 -50z
M667 993h38l-162 -172h-95l-64 172h37l93 -109z" />
    <glyph glyph-name="ncaron" unicode="&#x148;" horiz-adv-x="637" 
d="M600 166l30 -18q-78 -163 -172 -163q-44 0 -67 21t-23 59q0 32 23 116l27 101q13 48 13 76q0 24 -8 34t-29 10q-37 0 -90 -71q-50 -69 -73 -153l-47 -178h-140l95 340q19 68 -7 68q-15 0 -39 -32.5t-47 -83.5l-30 18q76 162 173 162q40 0 56.5 -18t16.5 -55
q0 -39 -17 -115q40 82 98 135q59 53 121 53q106 0 106 -96q0 -38 -12 -79l-47 -168q-11 -36 -11 -59q0 -20 15 -20q13 0 38 34q26 35 47 82zM540 729h38l-162 -172h-95l-64 172h37l93 -109z" />
    <glyph glyph-name="Omacron" unicode="&#x14c;" horiz-adv-x="720" 
d="M286 25q68 0 131 90q64 93 98 211q35 122 35 219q0 72 -25.5 112t-75.5 40q-67 0 -131 -93t-98 -213q-35 -123 -35 -218q0 -70 26 -109t75 -39zM275 -15q-121 0 -182 70t-61 184q0 90 32 179.5t87 160.5q56 72 137.5 114.5t171.5 42.5q120 0 181 -70q62 -71 62 -183
q0 -122 -53 -237q-53 -114 -153 -187q-101 -74 -222 -74zM659 896l-16 -75h-299l16 75h299z" />
    <glyph glyph-name="omacron" unicode="&#x14d;" horiz-adv-x="529" 
d="M230 25q45 0 79 51t48.5 113.5t14.5 116.5q0 67 -15.5 97t-48.5 30q-44 0 -79 -51q-64 -95 -64 -238q0 -119 65 -119zM504 282q0 -121 -82 -209q-81 -88 -199 -88q-88 0 -138 51.5t-50 138.5q0 131 79 213q79 84 202 84q86 0 137 -52.5t51 -137.5zM510 632l-16 -75h-299
l16 75h299z" />
    <glyph glyph-name="Ohungarumlaut" unicode="&#x150;" horiz-adv-x="720" 
d="M286 25q68 0 131 90q64 93 98 211q35 122 35 219q0 72 -25.5 112t-75.5 40q-67 0 -131 -93t-98 -213q-35 -123 -35 -218q0 -70 26 -109t75 -39zM275 -15q-121 0 -182 70t-61 184q0 90 32 179.5t87 160.5q56 72 137.5 114.5t171.5 42.5q120 0 181 -70q62 -71 62 -183
q0 -122 -53 -237q-53 -114 -153 -187q-101 -74 -222 -74zM725 961q0 -29 -45.5 -67t-144.5 -96l-19 13l20 32l21 32q18 29 36 54q26 32 37 40q31 24 59 24q14 0 25 -9.5t11 -22.5zM521 961q0 -32 -59 -76l-56 -39l-75 -48l-19 13l21 32l20 32q17 28 38 54q23 30 36 40
q31 24 59 24q14 0 24.5 -9.5t10.5 -22.5z" />
    <glyph glyph-name="ohungarumlaut" unicode="&#x151;" horiz-adv-x="529" 
d="M230 25q45 0 79 51t48.5 113.5t14.5 116.5q0 67 -15.5 97t-48.5 30q-44 0 -79 -51q-64 -95 -64 -238q0 -119 65 -119zM504 282q0 -121 -82 -209q-81 -88 -199 -88q-88 0 -138 51.5t-50 138.5q0 131 79 213q79 84 202 84q86 0 137 -52.5t51 -137.5zM571 697
q0 -29 -45.5 -67t-144.5 -96l-19 13l20 32l21 32q18 29 36 54q26 32 37 40q31 24 59 24q14 0 25 -9.5t11 -22.5zM367 697q0 -32 -59 -76l-56 -39l-75 -48l-19 13l21 32l20 32q17 28 38 54q23 30 36 40q31 24 59 24q14 0 24.5 -9.5t10.5 -22.5z" />
    <glyph glyph-name="OE" unicode="&#x152;" horiz-adv-x="1002" 
d="M908 273h37l-93 -273h-494q-50 -15 -108 -15q-117 0 -175.5 63.5t-58.5 180.5q0 60 20 132q45 162 159 269q113 106 266 106q55 0 100 -14h474l-52 -241h-38q10 67 10 84q0 64 -15.5 91t-48.5 27h-117q-26 0 -38 -16t-27 -66l-59 -207h61q44 0 73.5 31t52.5 111h37
l-91 -325h-37q14 54 14 85q0 58 -60 58h-60l-71 -252q-6 -20 -6 -33q0 -18 7.5 -24t28.5 -6h124q47 0 84 45q40 48 101 189zM452 692q-74 0 -141 -93q-69 -94 -106 -213q-38 -123 -38 -218q0 -72 22 -107.5t72 -35.5q61 0 104 34.5t61 100.5l22 77q20 67 33 124q5 23 21 75
q36 122 36 160q0 96 -86 96z" />
    <glyph glyph-name="oe" unicode="&#x153;" horiz-adv-x="808" 
d="M793 368q0 -62 -84 -114q-83 -50 -211 -73q-4 -19 -4 -42q0 -97 79 -97q91 0 155 108l27 -19q-38 -71 -96.5 -108.5t-118.5 -37.5q-98 0 -144 63q-76 -63 -173 -63q-88 0 -138 51.5t-50 138.5q0 131 79 213q79 84 202 84q98 0 149 -67q76 67 173 67q155 0 155 -104z
M230 25q45 0 79 51t48.5 113.5t14.5 116.5q0 67 -15.5 97t-48.5 30q-44 0 -79 -51q-64 -95 -64 -238q0 -119 65 -119zM678 375q0 28 -14 43t-36 15q-53 0 -86 -78q-27 -62 -39 -136q175 34 175 156z" />
    <glyph glyph-name="Racute" unicode="&#x154;" horiz-adv-x="698" 
d="M689 570q0 -92 -66.5 -147.5t-183.5 -65.5q104 -24 104 -164q0 -19 -3 -51q0 -8 -0.5 -18t-1 -15.5t-0.5 -8.5q0 -41 14 -41q18 0 31.5 23.5t31.5 86.5h36q-29 -96 -66 -135.5t-97 -42.5q-59 0 -83 18t-24 64q0 23 8 95t8 97q0 79 -66 79h-49l-64 -242q-6 -24 -6 -35
q0 -16 8.5 -22t29.5 -6h34l-11 -39h-327l11 39h35q26 0 40.5 13.5t23.5 49.5l139 518q6 24 6 35q0 28 -36 28h-36l12 39h348q94 0 147 -41t53 -111zM531 592q0 91 -80 91h-59q-12 0 -19.5 -14t-16.5 -49l-62 -237h62q76 0 125 61q50 62 50 148zM420 793l-19 13l21 32l20 32
q17 28 38 54q23 30 36 40q31 24 59 24q20 -1 29.5 -15.5t3.5 -34.5t-25 -36q-30 -29 -68 -52l-43 -27q-12 -6 -52 -30z" />
    <glyph glyph-name="racute" unicode="&#x155;" horiz-adv-x="479" 
d="M487 393q0 -32 -20 -56t-48 -24q-24 0 -41 16.5t-17 38.5q0 14 11 34.5t24 30.5q-44 -3 -96 -94q-51 -90 -75 -181l-42 -158h-137l76 280q23 87 25 108q0 20 -17 20q-14 0 -37 -32.5t-47 -83.5l-30 18q77 161 175 161q65 0 65 -79q0 -33 -22 -120q38 98 81 148.5
t102 50.5q31 0 50.5 -20.5t19.5 -57.5zM275 529l-19 13l21 32l20 32q17 28 38 54q23 30 36 40q31 24 59 24q20 -1 29.5 -15.5t3.5 -34.5t-25 -36q-30 -29 -68 -52l-43 -27q-12 -6 -52 -30z" />
    <glyph glyph-name="Rcommaaccent" unicode="&#x156;" horiz-adv-x="698" 
d="M689 570q0 -92 -66.5 -147.5t-183.5 -65.5q104 -24 104 -164q0 -19 -3 -51q0 -8 -0.5 -18t-1 -15.5t-0.5 -8.5q0 -41 14 -41q18 0 31.5 23.5t31.5 86.5h36q-29 -96 -66 -135.5t-97 -42.5q-59 0 -83 18t-24 64q0 23 8 95t8 97q0 79 -66 79h-49l-64 -242q-6 -24 -6 -35
q0 -16 8.5 -22t29.5 -6h34l-11 -39h-327l11 39h35q26 0 40.5 13.5t23.5 49.5l139 518q6 24 6 35q0 28 -36 28h-36l12 39h348q94 0 147 -41t53 -111zM531 592q0 91 -80 91h-59q-12 0 -19.5 -14t-16.5 -49l-62 -237h62q76 0 125 61q50 62 50 148zM380 -130q0 -59 -56 -118
t-119 -89l-10 21q88 60 99 119q-25 5 -37.5 26.5t-12.5 45.5q0 29 20.5 49t48.5 20t47.5 -21.5t19.5 -52.5z" />
    <glyph glyph-name="rcommaaccent" unicode="&#x157;" horiz-adv-x="479" 
d="M487 393q0 -32 -20 -56t-48 -24q-24 0 -41 16.5t-17 38.5q0 14 11 34.5t24 30.5q-44 -3 -96 -94q-51 -90 -75 -181l-42 -158h-137l76 280q23 87 25 108q0 20 -17 20q-14 0 -37 -32.5t-47 -83.5l-30 18q77 161 175 161q65 0 65 -79q0 -33 -22 -120q38 98 81 148.5
t102 50.5q31 0 50.5 -20.5t19.5 -57.5zM162 -130q0 -59 -56 -118t-119 -89l-10 21q88 60 99 119q-25 5 -37.5 26.5t-12.5 45.5q0 29 20.5 49t48.5 20t47.5 -21.5t19.5 -52.5z" />
    <glyph glyph-name="Rcaron" unicode="&#x158;" horiz-adv-x="698" 
d="M689 570q0 -92 -66.5 -147.5t-183.5 -65.5q104 -24 104 -164q0 -19 -3 -51q0 -8 -0.5 -18t-1 -15.5t-0.5 -8.5q0 -41 14 -41q18 0 31.5 23.5t31.5 86.5h36q-29 -96 -66 -135.5t-97 -42.5q-59 0 -83 18t-24 64q0 23 8 95t8 97q0 79 -66 79h-49l-64 -242q-6 -24 -6 -35
q0 -16 8.5 -22t29.5 -6h34l-11 -39h-327l11 39h35q26 0 40.5 13.5t23.5 49.5l139 518q6 24 6 35q0 28 -36 28h-36l12 39h348q94 0 147 -41t53 -111zM531 592q0 91 -80 91h-59q-12 0 -19.5 -14t-16.5 -49l-62 -237h62q76 0 125 61q50 62 50 148zM624 993h38l-162 -172h-95
l-64 172h37l93 -109z" />
    <glyph glyph-name="rcaron" unicode="&#x159;" horiz-adv-x="479" 
d="M487 393q0 -32 -20 -56t-48 -24q-24 0 -41 16.5t-17 38.5q0 14 11 34.5t24 30.5q-44 -3 -96 -94q-51 -90 -75 -181l-42 -158h-137l76 280q23 87 25 108q0 20 -17 20q-14 0 -37 -32.5t-47 -83.5l-30 18q77 161 175 161q65 0 65 -79q0 -33 -22 -120q38 98 81 148.5
t102 50.5q31 0 50.5 -20.5t19.5 -57.5zM461 729h38l-162 -172h-95l-64 172h37l93 -109z" />
    <glyph glyph-name="Sacute" unicode="&#x15a;" horiz-adv-x="605" 
d="M257 557q0 -64 106 -113q41 -17 68.5 -31.5t60.5 -40t50 -62t17 -82.5q0 -64 -28 -113t-77 -77q-94 -53 -213 -53q-63 0 -113.5 22.5t-76.5 61.5l-43 -83h-30l66 288h37q-2 -32 -2 -50q0 -199 175 -199q60 0 103 36q45 38 45 103q0 68 -103 113q-41 19 -65 32t-57 39
t-49 61.5t-16 80.5q0 123 79 184q80 62 198 62q106 0 179 -79l44 78h30l-61 -265h-38q3 24 3 46q0 109 -55 149q-44 32 -98 32q-50 0 -93 -37t-43 -103zM378 793l-19 13l21 32l20 32q17 28 38 54q23 30 36 40q31 24 59 24q20 -1 29.5 -15.5t3.5 -34.5t-25 -36
q-30 -29 -68 -52l-43 -27q-12 -6 -52 -30z" />
    <glyph glyph-name="sacute" unicode="&#x15b;" horiz-adv-x="443" 
d="M182 21q43 0 72 21t29 61q0 27 -21.5 43.5t-52.5 25.5t-62 21t-52.5 41t-21.5 76q0 75 59 118.5t154 43.5q66 0 107.5 -24.5t41.5 -70.5q0 -31 -16 -51q-17 -20 -45 -20q-29 0 -42 16q-10 17 -11 37.5t12.5 37.5t36.5 17q-11 11 -38.5 18t-52.5 7q-46 0 -76 -20t-30 -58
q0 -44 79 -71q27 -8 41 -13t37.5 -17t35.5 -24.5t22 -34t10 -47.5q0 -77 -58.5 -123t-167.5 -46q-69 0 -112 31t-43 82q0 30 16.5 48.5t46.5 18.5q54 0 54 -54q0 -24 -18 -42.5t-42 -18.5q32 -29 108 -29zM250 529l-19 13l21 32l20 32q17 28 38 54q23 30 36 40q31 24 59 24
q20 -1 29.5 -15.5t3.5 -34.5t-25 -36q-30 -29 -68 -52l-43 -27q-12 -6 -52 -30z" />
    <glyph glyph-name="Scaron" unicode="&#x160;" horiz-adv-x="605" 
d="M257 557q0 -64 106 -113q41 -17 68.5 -31.5t60.5 -40t50 -62t17 -82.5q0 -64 -28 -113t-77 -77q-94 -53 -213 -53q-63 0 -113.5 22.5t-76.5 61.5l-43 -83h-30l66 288h37q-2 -32 -2 -50q0 -199 175 -199q60 0 103 36q45 38 45 103q0 68 -103 113q-41 19 -65 32t-57 39
t-49 61.5t-16 80.5q0 123 79 184q80 62 198 62q106 0 179 -79l44 78h30l-61 -265h-38q3 24 3 46q0 109 -55 149q-44 32 -98 32q-50 0 -93 -37t-43 -103zM584 977h38l-162 -172h-95l-64 172h37l93 -109z" />
    <glyph glyph-name="scaron" unicode="&#x161;" horiz-adv-x="443" 
d="M182 21q43 0 72 21t29 61q0 27 -21.5 43.5t-52.5 25.5t-62 21t-52.5 41t-21.5 76q0 75 59 118.5t154 43.5q66 0 107.5 -24.5t41.5 -70.5q0 -31 -16 -51q-17 -20 -45 -20q-29 0 -42 16q-10 17 -11 37.5t12.5 37.5t36.5 17q-11 11 -38.5 18t-52.5 7q-46 0 -76 -20t-30 -58
q0 -44 79 -71q27 -8 41 -13t37.5 -17t35.5 -24.5t22 -34t10 -47.5q0 -77 -58.5 -123t-167.5 -46q-69 0 -112 31t-43 82q0 30 16.5 48.5t46.5 18.5q54 0 54 -54q0 -24 -18 -42.5t-42 -18.5q32 -29 108 -29zM466 729h38l-162 -172h-95l-64 172h37l93 -109z" />
    <glyph glyph-name="Tcaron" unicode="&#x164;" horiz-adv-x="672" 
d="M142 722h589l-56 -266h-37q9 82 9 117q0 61 -16 85.5t-50 24.5h-34q-26 0 -37 -11.5t-22 -51.5l-138 -518q-6 -22 -6 -35q0 -28 36 -28h35l-11 -39h-328l12 39h35q28 0 41.5 12.5t24.5 50.5l138 518q7 25 7 40q0 14 -6.5 18.5t-23.5 4.5h-34q-32 0 -54 -16
q-49 -32 -126 -211h-37zM628 993h38l-162 -172h-95l-64 172h37l93 -109z" />
    <glyph glyph-name="tcaron" unicode="&#x165;" horiz-adv-x="584" 
d="M269 458h130l-13 -47h-130l-75 -281q-7 -24 -7 -46q0 -44 37 -44q47 0 92 128h38q-35 -99 -74 -141q-41 -42 -120 -42q-106 0 -106 101q0 26 8 56l72 269h-66l13 47h23q55 0 101 43t91 140h37zM447 659q0 30 20.5 52t48.5 22q29 0 47.5 -21.5t18.5 -52.5q0 -60 -56 -119
q-55 -58 -119 -88l-9 22q83 51 99 118q-24 5 -37 24.5t-13 42.5z" />
    <glyph glyph-name="Umacron" unicode="&#x16a;" horiz-adv-x="726" 
d="M602 722h211l-11 -39h-35q-28 0 -42.5 -13t-23.5 -50l-106 -397q-32 -116 -103 -177q-70 -61 -209 -61q-224 0 -224 159q0 36 12 79l106 397q6 22 6 35q0 28 -36 28h-35l11 39h329l-12 -39h-35q-28 0 -42.5 -13t-23.5 -50l-107 -397q-10 -37 -10 -69q0 -113 135 -113
q75 0 121 42t72 140l106 397q6 21 6 35q0 28 -37 28h-35zM705 896l-16 -75h-299l16 75h299z" />
    <glyph glyph-name="umacron" unicode="&#x16b;" horiz-adv-x="621" 
d="M376 59q0 43 18 115q-94 -189 -212 -189q-106 0 -106 97q0 38 12 78l48 169q9 33 10 59q0 19 -15 19q-32 0 -85 -116l-30 18q76 163 173 163q89 0 89 -79q0 -29 -23 -116l-27 -101q-13 -48 -13 -77q0 -43 34 -43q38 0 90 79q53 80 74 160l42 163h139l-94 -339
q-9 -31 -9 -51q0 -18 15 -18q17 0 40.5 32t45.5 84l30 -18q-76 -163 -172 -163q-40 0 -57 18.5t-17 55.5zM559 632l-16 -75h-299l16 75h299z" />
    <glyph glyph-name="Uring" unicode="&#x16e;" horiz-adv-x="726" 
d="M602 722h211l-11 -39h-35q-28 0 -42.5 -13t-23.5 -50l-106 -397q-32 -116 -103 -177q-70 -61 -209 -61q-224 0 -224 159q0 36 12 79l106 397q6 22 6 35q0 28 -36 28h-35l11 39h329l-12 -39h-35q-28 0 -42.5 -13t-23.5 -50l-107 -397q-10 -37 -10 -69q0 -113 135 -113
q75 0 121 42t72 140l106 397q6 21 6 35q0 28 -37 28h-35zM499 900q0 -15 10.5 -26.5t24.5 -11.5t24.5 12t10.5 28q1 23 -16.5 33t-35.5 -0.5t-18 -34.5zM611 904q0 -37 -22.5 -61.5t-55.5 -24.5q-32 0 -53.5 23t-21.5 58q0 37 22.5 61t56.5 24q32 0 53 -22.5t21 -57.5z" />
    <glyph glyph-name="uring" unicode="&#x16f;" horiz-adv-x="621" 
d="M376 59q0 43 18 115q-94 -189 -212 -189q-106 0 -106 97q0 38 12 78l48 169q9 33 10 59q0 19 -15 19q-32 0 -85 -116l-30 18q76 163 173 163q89 0 89 -79q0 -29 -23 -116l-27 -101q-13 -48 -13 -77q0 -43 34 -43q38 0 90 79q53 80 74 160l42 163h139l-94 -339
q-9 -31 -9 -51q0 -18 15 -18q17 0 40.5 32t45.5 84l30 -18q-76 -163 -172 -163q-40 0 -57 18.5t-17 55.5zM344 636q0 -15 10.5 -26.5t24.5 -11.5t24.5 12t10.5 28q1 23 -16.5 33t-35.5 -0.5t-18 -34.5zM456 640q0 -37 -22.5 -61.5t-55.5 -24.5q-32 0 -53.5 23t-21.5 58
q0 37 22.5 61t56.5 24q32 0 53 -22.5t21 -57.5z" />
    <glyph glyph-name="Uhungarumlaut" unicode="&#x170;" horiz-adv-x="726" 
d="M602 722h211l-11 -39h-35q-28 0 -42.5 -13t-23.5 -50l-106 -397q-32 -116 -103 -177q-70 -61 -209 -61q-224 0 -224 159q0 36 12 79l106 397q6 22 6 35q0 28 -36 28h-35l11 39h329l-12 -39h-35q-28 0 -42.5 -13t-23.5 -50l-107 -397q-10 -37 -10 -69q0 -113 135 -113
q75 0 121 42t72 140l106 397q6 21 6 35q0 28 -37 28h-35zM759 961q0 -29 -45.5 -67t-144.5 -96l-19 13l20 32l21 32q18 29 36 54q26 32 37 40q31 24 59 24q14 0 25 -9.5t11 -22.5zM555 961q0 -32 -59 -76l-56 -39l-75 -48l-19 13l21 32l20 32q17 28 38 54q23 30 36 40
q31 24 59 24q14 0 24.5 -9.5t10.5 -22.5z" />
    <glyph glyph-name="uhungarumlaut" unicode="&#x171;" horiz-adv-x="621" 
d="M376 59q0 43 18 115q-94 -189 -212 -189q-106 0 -106 97q0 38 12 78l48 169q9 33 10 59q0 19 -15 19q-32 0 -85 -116l-30 18q76 163 173 163q89 0 89 -79q0 -29 -23 -116l-27 -101q-13 -48 -13 -77q0 -43 34 -43q38 0 90 79q53 80 74 160l42 163h139l-94 -339
q-9 -31 -9 -51q0 -18 15 -18q17 0 40.5 32t45.5 84l30 -18q-76 -163 -172 -163q-40 0 -57 18.5t-17 55.5zM640 697q0 -29 -45.5 -67t-144.5 -96l-19 13l20 32l21 32q18 29 36 54q26 32 37 40q31 24 59 24q14 0 25 -9.5t11 -22.5zM436 697q0 -32 -59 -76l-56 -39l-75 -48
l-19 13l21 32l20 32q17 28 38 54q23 30 36 40q31 24 59 24q14 0 24.5 -9.5t10.5 -22.5z" />
    <glyph glyph-name="Uogonek" unicode="&#x172;" horiz-adv-x="726" 
d="M602 722h211l-11 -39h-35q-28 0 -42.5 -13t-23.5 -50l-106 -397q-25 -93 -72.5 -148.5t-128.5 -76.5q-29 -19 -48 -45t-19 -43q0 -30 36 -30q19 0 43 9l6 -19q-71 -50 -119 -50q-26 0 -39.5 13.5t-13.5 35.5q0 28 22.5 60t60.5 58q-34 -2 -40 -2q-224 0 -224 159
q0 36 12 79l106 397q6 22 6 35q0 28 -36 28h-35l11 39h329l-12 -39h-35q-28 0 -42.5 -13t-23.5 -50l-107 -397q-10 -37 -10 -69q0 -113 135 -113q75 0 121 42t72 140l106 397q6 21 6 35q0 28 -37 28h-35z" />
    <glyph glyph-name="uogonek" unicode="&#x173;" horiz-adv-x="621" 
d="M376 59q0 43 18 115q-94 -189 -212 -189q-106 0 -106 97q0 38 12 78l48 169q9 33 10 59q0 19 -15 19q-32 0 -85 -116l-30 18q76 163 173 163q89 0 89 -79q0 -29 -23 -116l-27 -101q-13 -48 -13 -77q0 -43 34 -43q38 0 90 79q53 80 74 160l42 163h139l-94 -339
q-9 -31 -9 -51q0 -18 15 -18q17 0 40.5 32t45.5 84l30 -18q-59 -124 -122 -152q-28 -20 -46.5 -45t-18.5 -41q0 -30 36 -30q19 0 43 9l6 -19q-71 -50 -119 -50q-26 0 -39.5 13.5t-13.5 35.5q0 28 22.5 60t60.5 58q-55 7 -55 72z" />
    <glyph glyph-name="Ydieresis" unicode="&#x178;" horiz-adv-x="684" 
d="M581 722h199l-11 -39h-18q-30 0 -52 -17q-19 -16 -60 -69l-225 -296l-53 -199q-6 -32 -6 -35q0 -28 37 -28h35l-11 -39h-328l11 39h35q28 0 42.5 12.5t23.5 50.5l53 200l-83 318q-17 63 -59 63h-15l10 39h325l-11 -39h-41q-42 0 -42 -27q0 -10 8 -36l71 -252l180 229
q33 47 33 62q0 24 -25 24h-34zM569 814q-22 0 -38 17.5t-16 40.5q0 26 17 44.5t40 18.5q24 0 40 -17.5t16 -42.5t-17 -43t-42 -18zM377 814q-23 0 -39 17t-16 41q0 26 17 44.5t41 18.5q23 0 39.5 -17.5t16.5 -42.5t-17 -43t-42 -18z" />
    <glyph glyph-name="Zacute" unicode="&#x179;" horiz-adv-x="615" 
d="M108 459h-38l84 263h534l-12 -39l-537 -644h188q42 0 69 15q57 31 139 224h37l-87 -278h-546l11 39l536 644h-189q-26 0 -43.5 -7t-40.5 -28q-45 -41 -105 -189zM375 793l-19 13l21 32l20 32q17 28 38 54q23 30 36 40q31 24 59 24q20 -1 29.5 -15.5t3.5 -34.5t-25 -36
q-30 -29 -68 -52l-43 -27q-12 -6 -52 -30z" />
    <glyph glyph-name="zacute" unicode="&#x17a;" horiz-adv-x="465" 
d="M467 456q0 -83 -85 -158q-84 -75 -218 -123q-69 -25 -85 -74q47 30 109 30q35 0 77 -24q44 -23 65 -23q20 0 44.5 28.5t44.5 77.5l28 -14q-36 -96 -76.5 -143.5t-98.5 -47.5q-32 0 -96 33q-65 33 -103 33q-17 0 -17 -37q0 -11 -6 -19.5t-13 -8.5q-19 0 -24 4.5t-5 19.5
q0 88 68.5 160t196.5 114q110 36 127 92q-28 -16 -69 -16q-40 0 -98 13t-76 13q-53 0 -92 -84l-29 17q37 83 76.5 122t89.5 39q43 0 103 -28q63 -27 96 -27q13 0 19.5 8.5t8 18t7 18t17.5 8.5q14 0 14 -22zM269 529l-19 13l21 32l20 32q17 28 38 54q23 30 36 40q31 24 59 24
q20 -1 29.5 -15.5t3.5 -34.5t-25 -36q-30 -29 -68 -52l-43 -27q-12 -6 -52 -30z" />
    <glyph glyph-name="Zdotaccent" unicode="&#x17b;" horiz-adv-x="615" 
d="M108 459h-38l84 263h534l-12 -39l-537 -644h188q42 0 69 15q57 31 139 224h37l-87 -278h-546l11 39l536 644h-189q-26 0 -43.5 -7t-40.5 -28q-45 -41 -105 -189zM521 888q0 -30 -22.5 -52.5t-54.5 -22.5q-29 0 -51 21.5t-22 51.5q0 31 23 53.5t54 22.5t52 -21.5t21 -52.5
z" />
    <glyph glyph-name="zdotaccent" unicode="&#x17c;" horiz-adv-x="465" 
d="M467 456q0 -83 -85 -158q-84 -75 -218 -123q-69 -25 -85 -74q47 30 109 30q35 0 77 -24q44 -23 65 -23q20 0 44.5 28.5t44.5 77.5l28 -14q-36 -96 -76.5 -143.5t-98.5 -47.5q-32 0 -96 33q-65 33 -103 33q-17 0 -17 -37q0 -11 -6 -19.5t-13 -8.5q-19 0 -24 4.5t-5 19.5
q0 88 68.5 160t196.5 114q110 36 127 92q-28 -16 -69 -16q-40 0 -98 13t-76 13q-53 0 -92 -84l-29 17q37 83 76.5 122t89.5 39q43 0 103 -28q63 -27 96 -27q13 0 19.5 8.5t8 18t7 18t17.5 8.5q14 0 14 -22zM382 624q0 -30 -22.5 -52.5t-54.5 -22.5q-29 0 -51 21.5t-22 51.5
q0 31 23 53.5t54 22.5t52 -21.5t21 -52.5z" />
    <glyph glyph-name="Zcaron" unicode="&#x17d;" horiz-adv-x="615" 
d="M108 459h-38l84 263h534l-12 -39l-537 -644h188q42 0 69 15q57 31 139 224h37l-87 -278h-546l11 39l536 644h-189q-26 0 -43.5 -7t-40.5 -28q-45 -41 -105 -189zM601 977h38l-162 -172h-95l-64 172h37l93 -109z" />
    <glyph glyph-name="zcaron" unicode="&#x17e;" horiz-adv-x="465" 
d="M467 456q0 -83 -85 -158q-84 -75 -218 -123q-69 -25 -85 -74q47 30 109 30q35 0 77 -24q44 -23 65 -23q20 0 44.5 28.5t44.5 77.5l28 -14q-36 -96 -76.5 -143.5t-98.5 -47.5q-32 0 -96 33q-65 33 -103 33q-17 0 -17 -37q0 -11 -6 -19.5t-13 -8.5q-19 0 -24 4.5t-5 19.5
q0 88 68.5 160t196.5 114q110 36 127 92q-28 -16 -69 -16q-40 0 -98 13t-76 13q-53 0 -92 -84l-29 17q37 83 76.5 122t89.5 39q43 0 103 -28q63 -27 96 -27q13 0 19.5 8.5t8 18t7 18t17.5 8.5q14 0 14 -22zM459 729h38l-162 -172h-95l-64 172h37l93 -109z" />
    <glyph glyph-name="florin" unicode="&#x192;" horiz-adv-x="407" 
d="M484 633q0 -27 -17 -46.5t-41 -19.5t-40.5 18t-16.5 44q0 21 18 40t37 19q-20 13 -40 13q-27 0 -47.5 -24.5t-29.5 -71.5l-28 -147h115l-22 -78h-106l-53 -330q-16 -101 -76 -170q-59 -68 -148 -68q-43 0 -80 27q-38 26 -38 76q0 27 17 46.5t41 19.5t40.5 -18t16.5 -44
q0 -21 -18 -40t-37 -19q12 -13 43 -13q34 0 52 38t36 149l57 346h-82l16 78h50q30 0 34 34q14 90 42 144q26 49 70.5 73.5t116.5 26.5q43 0 80 -27q38 -26 38 -76z" />
    <glyph glyph-name="circumflex" unicode="&#x2c6;" horiz-adv-x="418" 
d="M291 729l64 -172h-37l-94 110l-152 -110h-38l161 172h96z" />
    <glyph glyph-name="caron" unicode="&#x2c7;" horiz-adv-x="425" 
d="M373 729h38l-162 -172h-95l-64 172h37l93 -109z" />
    <glyph glyph-name="breve" unicode="&#x2d8;" horiz-adv-x="415" 
d="M355 722h44q-19 -65 -70 -116q-49 -48 -131 -48q-118 0 -118 110q0 28 8 54h44q0 -43 19.5 -64t68.5 -21q50 0 81 21t54 64z" />
    <glyph glyph-name="dotaccent" unicode="&#x2d9;" horiz-adv-x="254" 
d="M215 624q0 -30 -22.5 -52.5t-54.5 -22.5q-29 0 -51 21.5t-22 51.5q0 31 23 53.5t54 22.5t52 -21.5t21 -52.5z" />
    <glyph glyph-name="ring" unicode="&#x2da;" horiz-adv-x="247" 
d="M96 636q0 -15 10.5 -26.5t24.5 -11.5t24.5 12t10.5 28q1 23 -16.5 33t-35.5 -0.5t-18 -34.5zM208 640q0 -37 -22.5 -61.5t-55.5 -24.5q-32 0 -53.5 23t-21.5 58q0 37 22.5 61t56.5 24q32 0 53 -22.5t21 -57.5z" />
    <glyph glyph-name="ogonek" unicode="&#x2db;" horiz-adv-x="292" 
d="M172 0h52q-30 -20 -50.5 -47t-20.5 -43q0 -30 36 -30q19 0 43 9l6 -19q-71 -50 -119 -50q-26 0 -39.5 13.5t-13.5 35.5q0 32 29 68t77 63z" />
    <glyph glyph-name="tilde" unicode="&#x2dc;" horiz-adv-x="440" 
d="M382 681l33 -27q-42 -59 -73 -82.5t-68 -23.5q-24 0 -44 14t-34.5 27.5t-24.5 13.5q-38 0 -86 -55l-32 28q40 58 71 81.5t69 23.5q31 0 61 -27t43 -27q39 0 85 54z" />
    <glyph glyph-name="hungarumlaut" unicode="&#x2dd;" horiz-adv-x="472" 
d="M452 697q0 -29 -45.5 -67t-144.5 -96l-19 13l20 32l21 32q18 29 36 54q26 32 37 40q31 24 59 24q14 0 25 -9.5t11 -22.5zM248 697q0 -32 -59 -76l-56 -39l-75 -48l-19 13l21 32l20 32q17 28 38 54q23 30 36 40q31 24 59 24q14 0 24.5 -9.5t10.5 -22.5z" />
    <glyph glyph-name="pi" unicode="&#x3c0;" horiz-adv-x="633" 
d="M57 411l13 47h611l-13 -47h-90l-74 -283q-8 -34 -8 -56t15 -22q12 0 37 34q25 33 45 82l30 -18q-73 -162 -169 -162q-45 0 -68 21t-23 60q0 29 20 114l57 230h-154l-102 -411h-140l104 411h-91z" />
    <glyph glyph-name="afii10023" unicode="&#x401;" horiz-adv-x="649" 
d="M553 808q-22 0 -38.5 17.5t-16.5 41.5q0 26 17.5 44.5t40.5 18.5q24 0 40.5 -17.5t16.5 -42.5t-17.5 -43.5t-42.5 -18.5zM361 808q-22 0 -38.5 17.5t-16.5 41.5q0 26 17 44.5t40 18.5q24 0 40.5 -17.5t16.5 -42.5t-17.5 -43.5t-41.5 -18.5zM141 722h538l-51 -241h-38
q7 49 7 89q0 80 -23 98q-20 15 -59 15h-99q-25 0 -36.5 -12t-22.5 -51l-60 -226h61q44 0 73 31t51 111h36l-88 -325h-36q14 61 14 84q0 59 -62 59h-60l-68 -252q-9 -32 -2.5 -47.5t34.5 -15.5h85q28 0 36 1q40 2 66 28q58 62 118 205h37l-90 -273h-556l11 39h35
q27 0 41.5 13.5t24.5 49.5l138 518q6 24 6 35q0 28 -37 28h-35z" />
    <glyph glyph-name="afii10051" unicode="&#x402;" horiz-adv-x="787" 
d="M753 270q0 -110 -68 -199q-67 -87 -171 -87q-89 0 -89 79q0 25 11 60h44q-6 -24 -6 -41q0 -43 37 -43q42 0 75 74q34 74 34 131q0 42 -21.5 66t-57.5 24q-41 0 -100 -48q-58 -47 -74 -114l-18 -69q-5 -28 -5 -36q0 -28 36 -28h21l-10 -39h-314l11 39h35q28 0 41.5 12.5
t24.5 50.5l138 518q7 25 7 40q0 14 -6.5 18.5t-23.5 4.5h-34q-29 0 -52 -14q-50 -30 -128 -213h-37l89 266h589l-56 -266h-37q9 83 9 118q0 64 -15.5 86.5t-52.5 22.5h-32q-26 0 -37 -11.5t-22 -51.5l-89 -337q32 54 96 91q65 38 124 38q63 0 98.5 -37.5t35.5 -104.5z" />
    <glyph glyph-name="afii10052" unicode="&#x403;" horiz-adv-x="605" 
d="M582 938q0 -29 -45.5 -65t-144.5 -88l-19 12l26 41l26 40l22 32q17 24 46 50q24 20 51 20q16 0 27 -12.5t11 -29.5zM141 722h535l-63 -263h-37q10 73 10 113q0 65 -18 88t-59 23h-93q-26 0 -37 -11.5t-22 -51.5l-139 -518q-5 -28 -5 -35q0 -16 8.5 -22t28.5 -6h41
l-11 -39h-334l11 39h35q27 0 41 13t25 50l138 518q6 22 6 35q0 28 -37 28h-35z" />
    <glyph glyph-name="afii10053" unicode="&#x404;" horiz-adv-x="617" 
d="M417 736q45 0 86.5 -23t66.5 -63l51 85h34l-53 -284h-37q0 49 -9 99q-26 146 -132 146q-69 0 -122 -68q-54 -70 -88 -242q164 3 243 7l-15 -55q-38 1 -90 2.5t-86.5 3t-58.5 1.5q-13 -62 -13 -119q0 -93 33.5 -141t92.5 -48q73 0 133 55.5t96 157.5h38
q-48 -152 -142 -213q-80 -52 -162 -52q-109 0 -180 71q-70 70 -70 203q0 202 116 339q115 138 268 138z" />
    <glyph glyph-name="afii10054" unicode="&#x405;" horiz-adv-x="605" 
d="M257 557q0 -64 106 -113q41 -17 68.5 -31.5t60.5 -40t50 -62t17 -82.5q0 -64 -28 -113t-77 -77q-94 -53 -213 -53q-63 0 -113.5 22.5t-76.5 61.5l-43 -83h-30l66 288h37q-2 -32 -2 -50q0 -199 175 -199q60 0 103 36q45 38 45 103q0 68 -103 113q-41 19 -65 32t-57 39
t-49 61.5t-16 80.5q0 123 79 184q80 62 198 62q106 0 179 -79l44 78h30l-61 -265h-38q3 24 3 46q0 109 -55 149q-44 32 -98 32q-50 0 -93 -37t-43 -103z" />
    <glyph glyph-name="afii10055" unicode="&#x406;" horiz-adv-x="400" 
d="M141 722h328l-11 -39h-35q-27 0 -42 -13t-24 -50l-139 -518q-5 -28 -5 -35q0 -16 8.5 -22t28.5 -6h34l-11 -39h-327l11 39h35q27 0 41 13t25 50l138 518q6 24 6 35q0 28 -37 28h-35z" />
    <glyph glyph-name="afii10056" unicode="&#x407;" horiz-adv-x="400" 
d="M423 808q-22 0 -38.5 17.5t-16.5 41.5q0 25 17.5 43.5t40.5 18.5q24 0 40 -17.5t16 -42.5t-17 -43t-42 -18zM256 808q-22 0 -38 17.5t-16 41.5q0 25 17 43.5t40 18.5q24 0 40.5 -17.5t16.5 -42.5t-17.5 -43t-42.5 -18zM141 722h328l-11 -39h-35q-27 0 -42 -13t-24 -50
l-139 -518q-5 -28 -5 -35q0 -16 8.5 -22t28.5 -6h34l-11 -39h-327l11 39h35q27 0 41 13t25 50l138 518q6 24 6 35q0 28 -37 28h-35z" />
    <glyph glyph-name="afii10057" unicode="&#x408;" horiz-adv-x="510" 
d="M253 722h342l-11 -39h-35q-28 0 -42.5 -13t-23.5 -50l-117 -436q-27 -104 -90.5 -151.5t-168.5 -47.5q-81 0 -114 45q-34 46 -34 110q0 55 24.5 91.5t68.5 36.5q28 0 48 -21.5t20 -51.5q0 -33 -22.5 -56t-52.5 -23q-24 0 -40 16q-4 -7 -4 -26q0 -25 22 -50q23 -24 54 -24
q86 0 127 152l118 436q6 22 6 35q0 28 -37 28h-49z" />
    <glyph glyph-name="afii10058" unicode="&#x409;" horiz-adv-x="978" 
d="M775 265q0 101 -96 101h-40l-74 -279q-3 -8 -3 -20q0 -28 26 -28h35q59 0 106 74q46 73 46 152zM248 683l12 39h559l-11 -39h-35q-27 0 -42 -14t-24 -52l-57 -212h86q89 0 142.5 -46.5t53.5 -119.5q0 -115 -87 -177q-88 -62 -211 -62h-339l12 39h35q28 0 42 15t26 61
l141 523q5 17 5 27q0 18 -26 18h-103q-25 0 -38 -19t-27 -67q-18 -66 -32 -109l-29 -98l-29 -91q-4 -12 -14 -39.5l-14 -38.5q-15 -43 -30 -71q-41 -82 -62 -103q-58 -65 -113 -60q-44 0 -68.5 25.5t-24.5 73.5q0 34 22.5 62t52.5 28q29 0 48.5 -21.5t19.5 -51.5
q0 -40 -30 -71q47 0 107 119q64 130 155 469q5 22 5 30q0 33 -43 33h-35z" />
    <glyph glyph-name="afii10059" unicode="&#x40a;" horiz-adv-x="1032" 
d="M993 239q0 -115 -87 -177q-86 -62 -210 -62h-341l11 39h35q27 0 42 12.5t24 48.5l67 253h-249l-67 -251q-5 -28 -5 -35q0 -16 8.5 -22t28.5 -6h34l-11 -39h-327l11 39h35q27 0 42 13t24 50l138 518q6 24 6 35q0 28 -37 28h-35l11 39h328l-11 -39h-35q-27 0 -42 -13
t-24 -50l-56 -213h248l56 213q6 22 6 35q0 28 -37 28h-35l12 39h327l-11 -39h-35q-28 0 -43 -13t-24 -50l-57 -215h89q89 0 142.5 -46.5t53.5 -119.5zM834 254q0 43 -19.5 70.5t-56.5 27.5h-64l-67 -252q-5 -28 -5 -34q0 -27 36 -27h29q59 0 102 69q45 70 45 146z" />
    <glyph glyph-name="afii10060" unicode="&#x40b;" horiz-adv-x="789" 
d="M142 722h589l-56 -266h-37q9 83 9 118q0 64 -15.5 86.5t-52.5 22.5h-32q-25 0 -36.5 -12t-22.5 -51l-90 -329q35 55 88 88.5t110 33.5q109 0 109 -95q0 -32 -13 -80l-41 -151q-6 -18 -6 -29q0 -19 27 -19h35l-11 -39h-267l12 39h25q21 0 31.5 10t17.5 38l37 136
q13 45 13 74q0 25 -11 35.5t-35 10.5q-37 0 -86 -46q-49 -47 -66 -111l-22 -84q-6 -24 -6 -36q0 -27 37 -27h25l-11 -39h-319l12 39h34q28 0 42.5 13t25.5 50l142 518q8 29 8 40q0 14 -7 18.5t-24 4.5h-34q-29 0 -52 -14q-50 -30 -128 -213h-37z" />
    <glyph glyph-name="afii10061" unicode="&#x40c;" horiz-adv-x="756" 
d="M554 722h258l-11 -39h-20q-68 0 -144 -79l-209 -210q87 -19 113 -78q25 -51 25 -116q0 -3 -2 -49q-1 -23 -1 -43q0 -29 5 -39.5t19 -10.5q38 0 76 133h36q-31 -108 -75.5 -154.5t-119.5 -46.5q-60 0 -83.5 33t-23.5 100q0 20 3 62q4 39 4 64q0 54 -15.5 80t-54.5 26h-49
l-67 -253q-6 -24 -6 -35q0 -16 8.5 -22t29.5 -6h34l-11 -39h-327l11 39h35q27 0 41.5 13t23.5 50l138 518q6 22 6 35q0 28 -36 28h-36l12 39h328l-12 -39h-35q-27 0 -42 -13t-24 -50l-59 -224h77l200 208q40 40 40 59q0 20 -29 20h-42zM453 793l-19 13l21 32l20 32
q17 28 38 54q23 30 36 40q31 24 59 24q20 -1 29.5 -15.5t3.5 -34.5t-25 -36q-30 -29 -68 -52l-43 -27q-12 -6 -52 -30z" />
    <glyph glyph-name="afii10062" unicode="&#x40e;" horiz-adv-x="679" 
d="M686 901q0 -65 -60 -102q-60 -36 -149 -36q-67 0 -107.5 30.5t-40.5 79.5q0 39 20 63t55 24q19 0 32.5 -15t13.5 -38q0 -27 -20 -45.5t-52 -23.5q35 -38 110 -38q86 0 129 46q-23 0 -35.5 12.5t-12.5 33.5q0 28 18.5 48t45.5 20q21 0 37 -18t16 -41zM587 723h196l-11 -39
h-24q-42 0 -89 -72l-316 -492q-45 -71 -84 -102t-85 -31q-52 0 -77.5 30t-25.5 74q0 33 26 62t60 29q23 0 39 -20t16 -47q0 -31 -19 -54t-52 -28q19 -11 34 -11q66 0 129 113l-125 485q-9 35 -23.5 49.5t-38.5 14.5h-21l11 39h337l-11 -39h-40q-52 0 -52 -37l1 -3
q0 -3 1.5 -10t2.5 -14l71 -315l205 329q12 20 12 31q0 19 -23 19h-36z" />
    <glyph glyph-name="afii10145" unicode="&#x40f;" horiz-adv-x="808" 
d="M574 722h327l-12 -39h-35q-27 0 -41 -13t-25 -50l-143 -518q-7 -21 -7 -36q0 -27 37 -27h35l-12 -39h-347q-8 -67 -11 -120q-2 -31 -19.5 -48t-42.5 -17q-15 0 -25.5 8.5t-10.5 22.5q0 11 10 31q56 121 57 123h-347l12 39h34q28 0 42 13t25 50l143 518q6 22 6 35
q0 28 -36 28h-35l12 39h327l-12 -39h-35q-27 0 -41 -13t-25 -50l-149 -537q-5 -20 -5 -27q0 -11 5.5 -14t21.5 -3h180q20 0 29.5 8.5t17.5 35.5l149 537q6 22 6 35q0 28 -37 28h-35z" />
    <glyph glyph-name="afii10017" unicode="&#x410;" horiz-adv-x="696" 
d="M615 39h12l-10 -39h-313l9 39h46q24 0 34 8t10 31q0 2 -0.5 11.5t-0.5 12.5l-13 123h-228l-61 -100q-51 -86 6 -86h40l-10 -39h-206l10 39h13q33 0 55.5 18.5t50.5 67.5l360 611h71l72 -634q4 -34 16.5 -48.5t36.5 -14.5zM184 265h200l-30 286z" />
    <glyph glyph-name="afii10018" unicode="&#x411;" horiz-adv-x="661" 
d="M350 366h-61l-71 -264q-7 -28 -7 -35q0 -28 26 -28h51q67 0 110 73t43 157q0 45 -22.5 71t-68.5 26zM599 245q0 -117 -88 -181q-86 -64 -211 -64h-354l11 39h35q27 0 41 13t25 50l138 518q6 21 6 35q0 28 -37 28h-35l12 39h526l-54 -234h-38q9 68 9 92q0 59 -20.5 81
t-62.5 22h-79q-27 0 -42 -13t-24 -50l-57 -215h96q95 0 149 -43.5t54 -116.5z" />
    <glyph glyph-name="afii10019" unicode="&#x412;" horiz-adv-x="666" 
d="M669 582q0 -88 -64 -137q-63 -49 -155 -66q74 -6 116.5 -46t42.5 -99q0 -56 -27 -103t-73 -75q-92 -56 -198 -56h-365l11 39h35q27 0 41.5 13.5t24.5 49.5l138 518q6 22 6 35q0 28 -37 28h-35l11 39h342q86 0 136 -38t50 -102zM450 261q0 43 -20 67.5t-59 24.5h-85
l-68 -251q-9 -32 -2.5 -47.5t34.5 -15.5h49q59 0 105 72q46 71 46 150zM510 601q0 37 -18 59.5t-51 22.5h-28q-22 0 -34 -12t-20 -42l-63 -236h77q41 0 72 36q65 71 65 172z" />
    <glyph glyph-name="afii10020" unicode="&#x413;" horiz-adv-x="601" 
d="M141 722h535l-63 -263h-37q10 73 10 113q0 65 -18 88t-59 23h-93q-26 0 -37 -11.5t-22 -51.5l-139 -518q-5 -28 -5 -35q0 -16 8.5 -22t28.5 -6h41l-11 -39h-334l11 39h35q27 0 41 13t25 50l138 518q6 22 6 35q0 28 -37 28h-35z" />
    <glyph glyph-name="afii10021" unicode="&#x414;" horiz-adv-x="750" 
d="M557 666q0 17 -26 17h-114q-44 0 -62 -63q-59 -213 -126 -372q-68 -160 -125 -209h253q21 0 30 8t15 33l151 562q4 17 4 24zM248 722h571l-10 -39h-36q-27 0 -41.5 -13t-23.5 -50l-141 -525q-5 -15 -5 -28q0 -28 38 -28h42l-53 -228h-36q5 65 5 76q0 63 -19.5 88
t-60.5 25h-357q-34 0 -58 -11t-56.5 -54t-66.5 -124h-38l73 228h68q55 24 126.5 175.5t141.5 405.5q4 15 4 30q0 33 -43 33h-35z" />
    <glyph glyph-name="afii10022" unicode="&#x415;" horiz-adv-x="649" 
d="M141 722h538l-51 -241h-38q7 49 7 89q0 80 -23 98q-20 15 -59 15h-99q-25 0 -36.5 -12t-22.5 -51l-60 -226h61q44 0 73 31t51 111h36l-88 -325h-36q14 61 14 84q0 59 -62 59h-60l-68 -252q-9 -32 -2.5 -47.5t34.5 -15.5h85q28 0 36 1q40 2 66 28q58 62 118 205h37
l-90 -273h-556l11 39h35q27 0 41.5 13.5t24.5 49.5l138 518q6 24 6 35q0 28 -37 28h-35z" />
    <glyph glyph-name="afii10024" unicode="&#x416;" horiz-adv-x="1025" 
d="M61 -10q-50 0 -73 22t-23 68q0 41 17 111h35q-12 -54 -12 -90q0 -42 21 -42q17 0 34 27.5t41 82.5q20 47 47 94q29 51 78.5 87t111.5 44l-89 208q-18 42 -42.5 61.5t-66.5 19.5h-17l11 39h236l-11 -39h-35q-35 0 -35 -33q0 -18 13 -48l86 -206h61l60 224q6 24 6 35
q0 28 -37 28h-42l11 39h342l-11 -39h-42q-27 0 -42 -13t-24 -50l-59 -224h61l192 206q45 47 47 66q0 15 -22 15h-34l11 39h236l-11 -39h-17q-44 0 -78.5 -19t-75.5 -62l-199 -208q68 -10 92 -54t24 -113q0 -21 -3 -64q0 -9 -0.5 -19.5t-1 -17t-0.5 -12.5v-9q0 -46 21 -46
q18 0 39 35t39 97h37q-33 -109 -75 -155q-40 -46 -114 -46q-50 0 -72 28t-22 83q0 29 7 84q8 62 8 84q0 86 -60 86h-41l-68 -253q-6 -22 -6 -35q0 -28 38 -28h42l-11 -39h-342l11 39h42q27 0 42 13t24 50l66 253h-40q-77 0 -129 -129q-14 -38 -21 -55t-23 -51.5t-30 -52
t-34.5 -39t-45 -30t-53.5 -8.5z" />
    <glyph glyph-name="afii10025" unicode="&#x417;" horiz-adv-x="596" 
d="M600 587q0 -80 -55.5 -135.5t-156.5 -73.5q67 -9 105 -50.5t38 -99.5q0 -75 -48 -132q-95 -111 -273 -111q-96 0 -150.5 44.5t-54.5 134.5q0 44 18 71t51 27q26 0 44 -19.5t18 -47.5t-20.5 -49.5t-47.5 -21.5q-9 0 -21 5q12 -50 53 -75.5t101 -25.5q72 0 122 68
q51 69 51 160q0 44 -21.5 71.5t-57.5 27.5q-31 0 -85 -8l15 55q50 -8 81 -8q56 0 96 69q41 71 41 145q0 43 -21 65.5t-57 22.5q-56 0 -111 -50q-54 -50 -107 -178h-38l78 267h34l4 -67q77 68 186 68q90 0 139.5 -40t49.5 -109z" />
    <glyph glyph-name="afii10026" unicode="&#x418;" horiz-adv-x="821" 
d="M563 722h327l-11 -39h-35q-28 0 -41.5 -12.5t-24.5 -50.5l-138 -518q-6 -22 -6 -35q0 -16 8.5 -22t28.5 -6h35l-12 -39h-327l11 39h35q28 0 43 13t24 50l109 416l-364 -390l-6 -26q-6 -30 -6 -35q0 -16 8.5 -22t28.5 -6h34l-11 -39h-327l11 39h35q27 0 41 13t25 50
l138 518q6 22 6 35q0 28 -37 28h-35l11 39h328l-11 -39h-35q-27 0 -42 -13t-24 -50l-109 -411l364 390l6 21q6 24 6 35q0 28 -37 28h-35z" />
    <glyph glyph-name="afii10027" unicode="&#x419;" horiz-adv-x="820" 
d="M563 722h327l-11 -39h-35q-28 0 -41.5 -12.5t-24.5 -50.5l-138 -518q-6 -22 -6 -35q0 -16 8.5 -22t28.5 -6h35l-12 -39h-327l11 39h35q28 0 43 13t24 50l109 416l-364 -390l-7 -26q-9 -32 -2.5 -47.5t34.5 -15.5h34l-11 -39h-327l11 39h35q27 0 41 13t25 50l138 518
q6 24 6 35q0 28 -37 28h-35l11 39h328l-11 -39h-35q-27 0 -42 -13t-24 -50l-109 -411l364 390l6 21q6 24 6 35q0 28 -37 28h-35zM735 901q0 -65 -60 -102q-60 -36 -149 -36q-67 0 -107.5 30.5t-40.5 79.5q0 39 20 63t55 24q19 0 32.5 -15t13.5 -38q0 -27 -20 -45.5
t-52 -23.5q35 -38 110 -38q86 0 129 46q-23 0 -35.5 12.5t-12.5 33.5q0 28 18.5 48t45.5 20q21 0 37 -18t16 -41z" />
    <glyph glyph-name="afii10028" unicode="&#x41a;" horiz-adv-x="756" 
d="M554 722h258l-11 -39h-20q-68 0 -144 -79l-209 -210q87 -19 113 -78q25 -51 25 -116q0 -3 -2 -49q-1 -23 -1 -43q0 -29 5 -39.5t19 -10.5q38 0 76 133h36q-31 -108 -75.5 -154.5t-119.5 -46.5q-60 0 -83.5 33t-23.5 100q0 20 3 62q4 39 4 64q0 54 -15.5 80t-54.5 26h-49
l-67 -253q-6 -24 -6 -35q0 -16 8.5 -22t29.5 -6h34l-11 -39h-327l11 39h35q27 0 41.5 13t23.5 50l138 518q6 22 6 35q0 28 -36 28h-36l12 39h328l-12 -39h-35q-27 0 -42 -13t-24 -50l-59 -224h77l200 208q40 40 40 59q0 20 -29 20h-42z" />
    <glyph glyph-name="afii10029" unicode="&#x41b;" horiz-adv-x="754" 
d="M260 722h563l-11 -39h-34q-28 0 -42.5 -14.5t-24.5 -52.5l-139 -514q-6 -22 -6 -35q0 -28 37 -28h35l-11 -39h-328l11 39h33q28 0 43 13t24 50l145 536q5 22 5 27q0 18 -27 18h-106q-25 0 -38 -19t-27 -67q-18 -66 -32 -109l-29 -98l-29 -91q-4 -12 -14 -39.5l-14 -38.5
q-15 -43 -30 -71q-41 -82 -62 -103q-58 -65 -113 -60q-44 0 -68.5 25.5t-24.5 73.5q0 34 22.5 62t52.5 28q29 0 48.5 -21.5t19.5 -51.5q0 -40 -30 -71q47 0 107 119q64 130 155 469q5 22 5 30q0 33 -43 33h-35z" />
    <glyph glyph-name="afii10030" unicode="&#x41c;" horiz-adv-x="950" 
d="M740 722h279l-11 -39h-35q-28 0 -43 -13t-24 -50l-137 -518q-7 -20 -7 -35q0 -28 37 -28h35l-11 -39h-328l12 39h35q27 0 42 13t24 50l156 581h-4l-414 -683h-37l-43 683h-4l-156 -581q-6 -23 -6 -35q0 -28 37 -28h35l-11 -39h-215l11 39h35q27 0 41 14t25 54l138 513
q6 22 6 35q0 28 -37 28h-35l11 39h293q15 -222 29 -467z" />
    <glyph glyph-name="afii10031" unicode="&#x41d;" horiz-adv-x="808" 
d="M551 722h327l-11 -39h-35q-27 0 -42.5 -13.5t-24.5 -49.5l-138 -518q-6 -22 -6 -35q0 -28 37 -28h35l-12 -39h-326l11 39h35q27 0 41 13t25 50l66 248h-248l-67 -248q-9 -32 -2.5 -47.5t34.5 -15.5h34l-11 -39h-327l11 39h35q27 0 41 13t25 50l138 518q6 24 6 35
q0 28 -37 28h-35l11 39h328l-11 -39h-35q-27 0 -42 -13t-24 -50l-57 -215h249l56 215q6 22 6 35q0 28 -37 28h-35z" />
    <glyph glyph-name="afii10032" unicode="&#x41e;" horiz-adv-x="720" 
d="M286 25q68 0 131 90q64 93 98 211q35 122 35 219q0 72 -25.5 112t-75.5 40q-67 0 -131 -93t-98 -213q-35 -123 -35 -218q0 -70 26 -109t75 -39zM275 -15q-121 0 -182 70t-61 184q0 90 32 179.5t87 160.5q56 72 137.5 114.5t171.5 42.5q120 0 181 -70q62 -71 62 -183
q0 -122 -53 -237q-53 -114 -153 -187q-101 -74 -222 -74z" />
    <glyph glyph-name="afii10033" unicode="&#x41f;" horiz-adv-x="808" 
d="M141 722h737l-11 -39h-35q-28 0 -42 -13t-25 -50l-138 -518q-6 -24 -6 -35q0 -28 37 -28h35l-12 -39h-326l11 39h35q28 0 41.5 12.5t24.5 50.5l144 536q4 15 4 27q0 18 -26 18h-180q-21 0 -30 -8t-17 -37l-144 -536q-5 -28 -5 -35q0 -16 8.5 -22t28.5 -6h34l-11 -39h-327
l11 39h35q27 0 41 13t25 50l138 518q6 22 6 35q0 28 -37 28h-35z" />
    <glyph glyph-name="afii10034" unicode="&#x420;" horiz-adv-x="677" 
d="M357 620l-72 -271h85q47 0 83 42q69 79 69 184q0 49 -21.5 78.5t-67.5 29.5h-40q-11 0 -18.5 -14t-17.5 -49zM250 39h41l-11 -39h-334l11 39h35q43 0 51 29l153 552q6 22 6 35q0 28 -37 28h-35l11 39h302q117 0 178 -42.5t61 -124.5q0 -117 -88 -181q-89 -65 -211 -65
h-110l-55 -207q-5 -28 -5 -35q0 -16 8.5 -22t28.5 -6z" />
    <glyph glyph-name="afii10035" unicode="&#x421;" horiz-adv-x="639" 
d="M643 735h33l-59 -284h-38q2 32 2 40q0 77 -27 135q-31 70 -109 70q-88 0 -167 -111q-38 -55 -61 -145t-23 -196q0 -96 37.5 -151.5t95.5 -55.5q73 0 133 55.5t96 157.5l33 -15q-21 -69 -59 -121.5t-84 -79.5q-83 -49 -163 -49q-108 0 -179 74q-71 76 -71 207
q0 68 16.5 135t50.5 127.5t81 107t111.5 73.5t138.5 27q46 0 91 -24t69 -62z" />
    <glyph glyph-name="afii10036" unicode="&#x422;" horiz-adv-x="672" 
d="M142 722h589l-56 -266h-37q9 82 9 117q0 61 -16 85.5t-50 24.5h-34q-26 0 -37 -11.5t-22 -51.5l-138 -518q-6 -22 -6 -35q0 -28 36 -28h35l-11 -39h-328l12 39h35q28 0 41.5 12.5t24.5 50.5l138 518q7 25 7 40q0 14 -6.5 18.5t-23.5 4.5h-34q-32 0 -54 -16
q-49 -32 -126 -211h-37z" />
    <glyph glyph-name="afii10037" unicode="&#x423;" horiz-adv-x="679" 
d="M587 723h196l-11 -39h-24q-42 0 -89 -72l-316 -492q-45 -71 -84 -102t-85 -31q-52 0 -77.5 30t-25.5 74q0 33 26 62t60 29q23 0 39 -20t16 -47q0 -31 -19 -54t-52 -28q19 -11 34 -11q66 0 129 113l-125 485q-9 35 -23.5 49.5t-38.5 14.5h-21l11 39h337l-11 -39h-40
q-52 0 -52 -37l1 -3q0 -3 1.5 -10t2.5 -14l71 -315l205 329q12 20 12 31q0 19 -23 19h-36z" />
    <glyph glyph-name="afii10038" unicode="&#x424;" horiz-adv-x="834" 
d="M173 291q0 -58 31 -88t84 -30l114 427q-52 0 -98 -31.5t-74 -82.5q-57 -101 -57 -195zM818 450q0 -101 -55 -174q-106 -141 -326 -143l-8 -31q-6 -22 -6 -35q0 -28 38 -28h35l-12 -39h-327l11 39h35q25 0 39 13t25 49l9 32q-112 0 -178 51t-66 140q0 148 108 231
q110 83 272 84l6 23q5 20 5 30q0 27 -37 27h-35l11 39h328l-11 -39h-35q-27 0 -41.5 -12t-23.5 -44l-6 -24q112 0 178.5 -51t66.5 -138zM679 482q0 57 -32 87.5t-84 30.5l-115 -427q49 0 95 32t75 82q61 102 61 195z" />
    <glyph glyph-name="afii10039" unicode="&#x425;" horiz-adv-x="719" 
d="M585 722h218l-11 -39h-20q-65 0 -122 -63l-187 -211l92 -307q19 -63 64 -63h20l-11 -39h-344l11 39h48q34 0 34 26q0 13 -7 37l-59 204l-185 -213q-22 -25 -22 -42q0 -12 24 -12h40l-12 -39h-224l11 39h22q33 0 59 13.5t58 49.5l215 247l-80 271q-11 35 -27 49t-40 14
h-19l12 39h337l-12 -39h-39q-35 0 -35 -26q0 -13 7 -37l48 -172l161 185q22 26 22 38t-24 12h-34z" />
    <glyph glyph-name="afii10040" unicode="&#x426;" horiz-adv-x="808" 
d="M550 722h327l-10 -39h-35q-28 0 -42 -13t-25 -50l-138 -518q-6 -22 -6 -35q0 -28 37 -28h42l-52 -228h-38q6 42 6 76q0 65 -21 89t-66 24h-583l11 39h34q27 0 42 13t24 50l139 518q6 24 6 35q0 28 -37 28h-35l11 39h328l-11 -39h-35q-27 0 -42 -13t-24 -50l-144 -537
q-5 -20 -5 -26q0 -18 27 -18h180q21 0 30 8.5t16 35.5l144 537q6 22 6 35q0 28 -37 28h-35z" />
    <glyph glyph-name="afii10041" unicode="&#x427;" horiz-adv-x="727" 
d="M484 722h312l-11 -39h-35q-27 0 -41 -13t-25 -50l-139 -518q-5 -28 -5 -35q0 -28 37 -28h35l-12 -39h-342l12 39h49q28 0 42 13t25 50l61 231q-33 -15 -94 -29q-57 -12 -94 -12q-81 0 -120.5 27t-39.5 88q0 31 12 78l35 135q6 18 6 35q0 28 -36 28h-26l11 39h305l-11 -39
h-21q-28 0 -42.5 -13t-23.5 -50l-36 -135q-12 -43 -12 -71q0 -36 21 -52t67 -16q36 0 110 27l66 247q6 24 6 35q0 16 -6.5 22t-24.5 6h-27z" />
    <glyph glyph-name="afii10042" unicode="&#x428;" horiz-adv-x="1148" 
d="M898 722h320l-12 -39h-35q-27 0 -41 -13t-25 -50l-138 -518q-5 -28 -5 -35q0 -28 36 -28h35l-11 -39h-1076l11 39h35q27 0 41 13t25 50l138 518q6 24 6 35q0 28 -37 28h-35l11 39h321l-12 -39h-27q-27 0 -42 -13t-24 -50l-144 -537q-5 -20 -5 -26q0 -18 27 -18h146
q21 0 30 8.5t16 35.5l143 537q6 24 6 35q0 28 -36 28h-28l11 39h314l-12 -39h-27q-28 0 -42.5 -13t-23.5 -50l-144 -537q-5 -20 -5 -26q0 -18 27 -18h145q21 0 30 8t17 36l143 537q6 24 6 35q0 28 -37 28h-27z" />
    <glyph glyph-name="afii10043" unicode="&#x429;" horiz-adv-x="1148" 
d="M897 722h320l-11 -39h-35q-27 0 -42 -13t-24 -50l-138 -518q-6 -22 -6 -35q0 -28 37 -28h42l-52 -228h-38q6 42 6 76q0 65 -21 89t-65 24h-924l11 39h34q27 0 42 13t24 50l139 518q6 21 6 35q0 28 -37 28h-35l11 39h320l-11 -39h-27q-27 0 -41.5 -13.5t-24.5 -49.5
l-144 -537q-5 -20 -5 -26q0 -18 27 -18h145q21 0 30.5 8.5t16.5 35.5l143 537q6 21 6 35q0 28 -36 28h-28l11 39h313l-11 -39h-27q-27 0 -41.5 -13.5t-24.5 -49.5l-144 -537q-5 -20 -5 -26q0 -18 26 -18h146q21 0 30 8.5t16 35.5l144 537q6 21 6 35q0 28 -37 28h-27z" />
    <glyph glyph-name="afii10044" unicode="&#x42a;" horiz-adv-x="744" 
d="M548 269q0 43 -22 70t-64 27h-63l-70 -261q-6 -24 -6 -36q0 -30 31 -30h45q61 0 105 74q44 76 44 156zM705 239q0 -115 -87 -177q-88 -62 -211 -62h-352l11 39h35q28 0 42 13t25 50l138 518q9 32 9 43q0 20 -23 20h-35q-41 0 -85.5 -61t-83.5 -166h-38l89 266h455
l-11 -39h-50q-28 0 -42.5 -13t-23.5 -50l-57 -215h98q92 0 144 -48q53 -47 53 -118z" />
    <glyph glyph-name="afii10045" unicode="&#x42b;" horiz-adv-x="996" 
d="M435 260q0 47 -23 76.5t-67 29.5h-56l-71 -264q-5 -28 -5 -35q0 -28 25 -28h44q62 0 107 70q46 70 46 151zM737 722h328l-11 -39h-35q-28 0 -42.5 -13t-23.5 -50l-138 -518q-6 -22 -6 -35q0 -28 36 -28h36l-12 -39h-328l12 39h35q27 0 42 13t24 50l138 518q5 22 5 35
q0 28 -36 28h-35zM595 239q0 -115 -87 -177q-88 -62 -211 -62h-351l11 39h35q27 0 41 13t25 50l138 518q6 24 6 35q0 28 -37 28h-35l11 39h343l-12 -39h-49q-27 0 -42 -13t-24 -50l-57 -215h98q92 0 144 -48q53 -47 53 -118z" />
    <glyph glyph-name="afii10046" unicode="&#x42c;" horiz-adv-x="626" 
d="M587 239q0 -115 -87 -177q-86 -62 -210 -62h-344l11 39h35q27 0 42 13t24 50l138 518q6 24 6 35q0 28 -37 28h-35l11 39h343l-12 -39h-49q-27 0 -42 -13t-24 -50l-57 -215h91q89 0 142.5 -46.5t53.5 -119.5zM430 269q0 44 -21.5 70.5t-63.5 26.5h-56l-71 -264
q-5 -28 -5 -35q0 -28 23 -28h46q61 0 105 74q43 74 43 156z" />
    <glyph glyph-name="afii10047" unicode="&#x42d;" horiz-adv-x="617" 
d="M600 471q0 -116 -37.5 -213t-101.5 -156q-125 -117 -270 -117q-84 0 -137 46q-54 47 -54 128q0 42 17.5 69t52.5 27q27 0 44.5 -19.5t17.5 -47.5q0 -29 -18.5 -50t-46.5 -21q-14 0 -26 5q12 -44 50.5 -68.5t93.5 -24.5q143 0 229 315q-200 -7 -221 -7l15 57l126 -5
q71 -3 92 -3q26 93 26 163q0 147 -104 147q-130 0 -240 -245h-38l85 284h33l8 -81q72 82 178 82q114 0 170 -74t56 -191z" />
    <glyph glyph-name="afii10048" unicode="&#x42e;" horiz-adv-x="1052" 
d="M883 547q0 150 -100 150q-59 0 -121 -75q-60 -71 -101 -197q-40 -120 -40 -249q0 -151 99 -151q40 0 86.5 43t86.5 114q38 69 64 168t26 197zM1035 486q0 -131 -55 -245q-56 -116 -154 -186q-97 -70 -217 -70q-117 0 -179 67t-62 183q0 44 11 107h-97l-64 -240
q-9 -32 -2.5 -47.5t34.5 -15.5h34l-11 -39h-327l11 39h34q28 0 41.5 12.5t24.5 50.5l139 518q6 22 6 35q0 28 -37 28h-35l11 39h328l-11 -39h-35q-27 0 -41 -13.5t-24 -49.5l-61 -224h96q45 150 153 244q108 96 248 96q117 0 179 -67t62 -183z" />
    <glyph glyph-name="afii10049" unicode="&#x42f;" horiz-adv-x="727" 
d="M529 655q0 28 -37 28h-35q-67 0 -110 -63q-44 -64 -44 -145q0 -44 21.5 -71.5t61.5 -27.5h72l65 244q6 21 6 35zM445 722h352l-11 -39h-35q-28 0 -43 -13t-24 -50l-138 -518q-6 -22 -6 -35q0 -28 37 -28h35l-11 -39h-328l11 39h35q28 0 41.5 12.5t24.5 50.5l62 235h-58
q-51 0 -87 -53q-22 -33 -32 -52q-16 -31 -33 -68q-14 -31 -34 -69q-59 -105 -160 -105q-45 0 -65 19.5t-20 63.5q0 34 13 96h37q-13 -56 -13 -81q0 -29 20 -29q15 0 44 55q3 6 10 19q5 10 8 15q15 28 46 78q28 44 74 78t101 46q-70 7 -111 53t-41 103q0 110 86 163t213 53z
" />
    <glyph glyph-name="afii10065" unicode="&#x430;" horiz-adv-x="597" 
d="M560 166l30 -18q-78 -162 -175 -162q-70 0 -70 99q0 19 6 39q-27 -66 -76.5 -102.5t-106.5 -36.5q-63 0 -98.5 42t-35.5 113q0 124 78 228t179 104q85 0 114 -92l20 78h136l-80 -288q-20 -77 -20 -98q0 -22 19 -22q11 0 35 34q25 33 45 82zM220 38q44 0 82 54
q36 51 56 117t20 121q0 46 -16.5 68.5t-40.5 22.5q-44 0 -81.5 -56.5t-56 -125t-18.5 -121.5q0 -80 55 -80z" />
    <glyph glyph-name="afii10066" unicode="&#x431;" horiz-adv-x="525" 
d="M520 727h30q-9 -29 -20 -60q-18 -55 -47 -80q-51 -43 -166 -61q-126 -24 -171 -85q-25 -32 -37 -67q-10 -28 -25 -92q38 81 103.5 126t143.5 45q77 0 122 -52q46 -52 46 -130q0 -121 -95 -202q-95 -80 -216 -80q-75 0 -117.5 48.5t-42.5 129.5q0 29 5 61q29 177 85 277
q66 115 202 143l89 17q52 12 57 14q42 16 54 48zM366 294q0 53 -17 85.5t-49 32.5q-44 0 -78.5 -47t-50 -107.5t-15.5 -117.5q0 -115 65 -115q44 0 79 47q66 90 66 222z" />
    <glyph glyph-name="afii10067" unicode="&#x432;" horiz-adv-x="492" 
d="M468 376q0 -36 -38 -76q-39 -39 -102 -52q58 -5 85 -34t27 -73q0 -65 -60 -111q-60 -45 -171 -45q-84 0 -129 48.5t-45 132.5q0 122 80 214t199 92q154 0 154 -96zM314 148q0 36 -16.5 58t-43.5 22q-42 0 -81 -18q-6 -40 -6 -81q0 -103 59 -103q35 0 61.5 34t26.5 88z
M302 434q-46 0 -79 -54q-32 -53 -46 -133q43 15 93 18q38 18 60.5 49t22.5 63q0 27 -14.5 42t-36.5 15z" />
    <glyph glyph-name="afii10068" unicode="&#x433;" horiz-adv-x="426" 
d="M413 354q0 -107 -96 -149q-15 -6 -47 -17t-49.5 -18.5t-39 -19.5t-31 -27.5t-9.5 -35.5q0 -24 18.5 -37.5t49.5 -13.5q38 0 80 27.5t70 71.5l25 -14q-31 -64 -86 -100t-113 -36q-76 0 -119 34t-43 85q0 55 26.5 91.5t68.5 52.5l39 13.5t41 13.5t36 14.5t31.5 19.5
t19.5 25.5t8 34.5q0 23 -18.5 36.5t-47.5 13.5q-102 0 -166 -103l-23 18q35 72 94 106t126 32q76 0 115.5 -32t39.5 -86z" />
    <glyph glyph-name="afii10069" unicode="&#x434;" horiz-adv-x="531" 
d="M188 597q0 -17 -12.5 -30.5t-30.5 -13.5t-31.5 14t-13.5 35q0 40 36 67t103 27q111 0 188 -89t77 -265q0 -66 -15.5 -127t-47 -114t-86.5 -84.5t-126 -31.5q-90 0 -142 53.5t-52 141.5q0 132 58 211q59 80 163 80q92 0 120 -69q-2 119 -41.5 186.5t-112.5 67.5
q-37 0 -59 -22q25 -15 25 -37zM235 25q39 0 70 48q31 46 47.5 104.5t16.5 107.5q0 130 -71 130q-36 0 -63.5 -30.5t-42.5 -80.5q-26 -98 -26 -176q0 -52 18.5 -77.5t50.5 -25.5z" />
    <glyph glyph-name="afii10070" unicode="&#x435;" horiz-adv-x="482" 
d="M467 368q0 -62 -84 -114q-83 -50 -211 -73q-4 -19 -4 -42q0 -97 79 -97q91 0 155 108l27 -19q-38 -71 -96.5 -108.5t-118.5 -37.5q-84 0 -131.5 49.5t-47.5 132.5q0 121 80 213t197 92q155 0 155 -104zM352 375q0 28 -14 43t-36 15q-53 0 -86 -78q-27 -62 -39 -136
q175 34 175 156z" />
    <glyph glyph-name="afii10072" unicode="&#x436;" horiz-adv-x="1021" 
d="M130 20q38 0 71 53q32 52 50 123.5t18 138.5q0 86 -54 86q-69 0 -126 -112l-31 14q75 149 187 149q73 0 113 -41t40 -117q0 -28 -3 -50h66l52 194h130l-53 -194h59q25 89 85 149q61 59 147 59q62 0 96 -26t34 -76q0 -33 -21 -63t-53 -30q-29 0 -42.5 16.5t-13.5 40.5
q0 26 15.5 46t40.5 20q20 0 42 -17q-3 23 -23.5 38.5t-54.5 15.5q-39 0 -74 -54q-33 -53 -50 -124q-16 -68 -16 -135q0 -88 54 -88q71 0 127 113l31 -15q-75 -149 -187 -149q-73 0 -113 41.5t-40 117.5q0 26 6 73h-63l-59 -217h-129l59 217h-61q-22 -100 -84 -166t-152 -66
q-62 0 -96 26t-34 76q0 33 21 63t53 30q29 0 42.5 -16.5t13.5 -40.5q0 -26 -15.5 -46t-40.5 -20q-20 0 -42 17q3 -23 23.5 -38.5t54.5 -15.5z" />
    <glyph glyph-name="afii10073" unicode="&#x437;" horiz-adv-x="437" 
d="M430 369q0 -107 -156 -129q117 -16 117 -106q0 -66 -61 -108q-61 -41 -157 -41q-78 0 -119.5 29.5t-41.5 83.5q0 30 18.5 50t45.5 20q23 0 39 -15.5t16 -36.5q0 -24 -13 -38.5t-37 -14.5q-19 0 -32 12q3 -24 29.5 -38.5t68.5 -14.5q52 0 81 47q30 47 30 97
q0 24 -14.5 38.5t-36.5 14.5t-56 -2l10 44q34 -2 56 -2q34 0 60 32q25 31 25 71q0 28 -17 44.5t-46 16.5q-50 0 -82.5 -23t-55.5 -79l-32 9q29 79 77 110.5t122 31.5t118 -29t44 -74z" />
    <glyph glyph-name="afii10074" unicode="&#x438;" horiz-adv-x="621" 
d="M376 59q0 43 18 115q-94 -189 -212 -189q-106 0 -106 97q0 38 12 78l48 169q9 33 10 59q0 19 -15 19q-32 0 -85 -116l-30 18q76 163 173 163q89 0 89 -79q0 -29 -23 -116l-27 -101q-13 -48 -13 -77q0 -43 34 -43q38 0 90 79q53 80 74 160l42 163h139l-94 -339
q-9 -31 -9 -51q0 -18 15 -18q17 0 40.5 32t45.5 84l30 -18q-76 -163 -172 -163q-40 0 -57 18.5t-17 55.5z" />
    <glyph glyph-name="afii10075" unicode="&#x439;" horiz-adv-x="629" 
d="M536 692l27 -11q-18 -66 -74 -119q-55 -52 -126 -52q-60 0 -93 29.5t-33 81.5q0 30 18 52t45 22q22 0 37 -16t15 -39q0 -46 -51 -57q21 -29 74 -29q50 0 92 35.5t69 102.5zM376 59q0 43 18 115q-94 -189 -212 -189q-106 0 -106 97q0 38 12 78l48 169q9 33 10 59
q0 19 -15 19q-32 0 -85 -116l-30 18q76 163 173 163q89 0 89 -79q0 -29 -23 -116l-27 -101q-13 -48 -13 -77q0 -43 34 -43q38 0 90 79q53 80 74 160l42 163h139l-94 -339q-9 -31 -9 -51q0 -18 15 -18q17 0 40.5 32t45.5 84l30 -18q-76 -163 -172 -163q-40 0 -57 18.5
t-17 55.5z" />
    <glyph glyph-name="afii10076" unicode="&#x43a;" horiz-adv-x="581" 
d="M543 166l29 -18q-38 -85 -75.5 -124t-87.5 -39q-48 0 -66 29t-18 88q0 4 0.5 20.5t0.5 21.5q0 39 -10 57.5t-36 18.5h-40l-57 -220h-136l75 280l9 33q16 48 16 75q0 20 -17 20q-11 0 -37 -35q-27 -36 -47 -81l-30 18q76 162 173 162q42 0 65 -24t23 -65q0 -31 -15 -87
l-10 -37h58q40 110 80.5 161.5t97.5 51.5q37 0 63 -23t26 -58q0 -38 -21.5 -60t-53.5 -22q-21 0 -37 16.5t-16 37.5q0 26 20 46.5t56 20.5q-9 12 -38 12q-71 0 -138 -183q43 -4 66.5 -26t28.5 -51t5.5 -57.5t4 -48t16.5 -19.5q27 0 73 109z" />
    <glyph glyph-name="afii10077" unicode="&#x43b;" horiz-adv-x="596" 
d="M-17 70q0 37 21 57.5t52 20.5q21 0 36.5 -15.5t15.5 -35.5q0 -24 -19 -41.5t-55 -17.5q4 -16 36 -16q40 0 76 79q37 78 85 272q4 13 4 26q0 20 -28 20h-32l11 39h243q102 0 102 -84q0 -28 -9 -60l-48 -169q-15 -52 -15 -74q0 -21 16 -21q30 0 84 116l30 -18
q-76 -163 -179 -163q-41 0 -65 18t-24 48q0 43 13 88l53 193q7 22 7 39q0 48 -44 48h-32q-22 0 -32 -10t-17 -36q-7 -22 -18 -65q-10 -38 -18 -64q-17 -68 -35 -114q-26 -65 -43 -87q-41 -56 -89 -56q-35 0 -59 24t-24 59z" />
    <glyph glyph-name="afii10078" unicode="&#x43c;" horiz-adv-x="769" 
d="M-11 70q0 37 21 57.5t52 20.5q21 0 36.5 -16t15.5 -36q0 -24 -19 -41.5t-55 -17.5q4 -16 36 -16q45 0 75 78q28 75 85 297l3 13q-27 0 -57 -31t-53 -86l-32 15q83 165 192 165q56 0 88 -48q40 -55 42 -236l157 270h157l-91 -335q-23 -73 6 -73q15 0 38 32t47 84l29 -18
q-76 -163 -178 -163q-43 0 -65.5 20.5t-22.5 56.5q0 33 16 90l61 231l-237 -387h-37q-11 309 -31 381q-20 -86 -28 -116q-9 -37 -26 -95q-15 -49 -29 -79q-49 -108 -113 -101q-35 0 -59 24.5t-24 59.5z" />
    <glyph glyph-name="afii10079" unicode="&#x43d;" horiz-adv-x="633" 
d="M597 166l29 -18q-78 -162 -172 -162q-89 0 -89 79q0 39 21 115l10 37h-155l-57 -217h-140l95 339q10 39 10 50q0 19 -16 19q-34 0 -87 -116l-30 18q76 162 173 162q44 0 67.5 -21t23.5 -57q0 -38 -17 -98l-9 -32h156l52 194h139l-94 -330q-12 -40 -12 -57q0 -21 17 -21
q15 0 38 32t47 84z" />
    <glyph glyph-name="afii10080" unicode="&#x43e;" horiz-adv-x="529" 
d="M230 25q45 0 79 51t48.5 113.5t14.5 116.5q0 67 -15.5 97t-48.5 30q-44 0 -79 -51q-64 -95 -64 -238q0 -119 65 -119zM504 282q0 -121 -82 -209q-81 -88 -199 -88q-88 0 -138 51.5t-50 138.5q0 131 79 213q79 84 202 84q86 0 137 -52.5t51 -137.5z" />
    <glyph glyph-name="afii10081" unicode="&#x43f;" horiz-adv-x="637" 
d="M600 166l30 -18q-78 -163 -172 -163q-44 0 -67 21t-23 59q0 32 23 116l27 101q13 48 13 76q0 24 -8 34t-29 10q-37 0 -90 -71q-50 -69 -73 -153l-47 -178h-140l95 340q19 68 -7 68q-15 0 -39 -32.5t-47 -83.5l-30 18q76 162 173 162q40 0 56.5 -18t16.5 -55
q0 -39 -17 -115q40 82 98 135q59 53 121 53q106 0 106 -96q0 -38 -12 -79l-47 -168q-11 -36 -11 -59q0 -20 15 -20q13 0 38 34q26 35 47 82z" />
    <glyph glyph-name="afii10082" unicode="&#x440;" horiz-adv-x="574" 
d="M571 319q0 -75 -32 -153q-31 -76 -92 -129q-59 -52 -131 -52q-49 0 -80 30t-32 80l-52 -198q-4 -13 -4 -26q0 -20 29 -20h51l-11 -39h-290l11 39h30q22 0 31.5 9.5t16.5 36.5l120 442q9 39 9 51q0 18 -15 18q-34 0 -87 -116l-29 18q75 162 172 162q76 0 76 -74
q0 -25 -9 -74q33 70 85 109t106 39q61 0 94 -41.5t33 -111.5zM440 340q0 79 -53 79q-30 3 -69 -43.5t-66 -113.5t-25 -119q0 -106 59 -106q44 0 81 56.5t55 125t18 121.5z" />
    <glyph glyph-name="afii10083" unicode="&#x441;" horiz-adv-x="467" 
d="M459 369q0 -34 -22 -65t-56 -31q-31 0 -46.5 17.5t-15.5 43.5q0 25 17 45.5t42 20.5q24 0 47 -18q-3 23 -27 39t-59 16q-68 0 -117 -70t-49 -195q0 -62 24 -97t63 -35q85 0 140 109l30 -15q-75 -149 -200 -149q-87 0 -141 50t-54 138q0 128 82 213q83 86 198 86
q65 0 104.5 -26.5t39.5 -76.5z" />
    <glyph glyph-name="afii10084" unicode="&#x442;" horiz-adv-x="906" 
d="M877 166l30 -18q-78 -163 -173 -163q-43 0 -66 21t-23 59q0 32 23 116l27 101q14 51 14 78q0 23 -9 32.5t-29 9.5q-32 0 -86 -78q-52 -76 -72 -146l-50 -178h-134l76 282q14 53 14 78q0 23 -9 32.5t-29 9.5q-33 0 -85 -75q-52 -73 -72 -149l-48 -178h-135l90 339
q10 36 10 49q0 20 -17 20q-15 0 -39.5 -33.5t-45.5 -82.5l-30 18q77 162 173 162q40 0 56.5 -18t16.5 -55q0 -35 -18 -115q41 86 101 136q61 52 119 52q85 0 85 -88q0 -36 -14 -100q37 79 99 133q62 55 120 55q102 0 102 -92q0 -38 -13 -83l-49 -168q-11 -42 -11 -59
q0 -20 16 -20q30 0 85 116z" />
    <glyph glyph-name="afii10085" unicode="&#x443;" horiz-adv-x="506" 
d="M505 411q0 -92 -68 -239q-68 -146 -169 -259q-102 -114 -185 -114q-44 0 -68.5 22.5t-24.5 55.5q0 36 19.5 54t43.5 18q23 0 39.5 -18t16.5 -42q0 -34 -22 -53q37 2 85.5 39.5t90.5 97.5q-56 248 -84 331q-27 86 -55 86q-16 0 -31.5 -22.5t-37.5 -75.5l-30 15
q31 83 67 124t86 41q69 7 114 -95q11 -24 25 -74q14 -51 21 -88q11 -48 23 -108q73 139 95 233q-49 39 -49 79q0 22 14 37t33 15q21 0 36 -18t15 -42z" />
    <glyph glyph-name="afii10086" unicode="&#x444;" horiz-adv-x="763" 
d="M687 585q0 -23 -16 -40t-38 -17q-43 0 -43 47q0 15 13 27t30 12q-7 5 -27 5q-28 0 -50 -44t-44 -130l-14 -55q60 82 129 82q56 0 85.5 -36.5t29.5 -101.5q0 -76 -30 -155q-28 -77 -88 -136q-58 -57 -131 -57q-76 0 -89 79l-15 -55q-56 -209 -205 -209q-45 0 -70.5 19
t-25.5 50q0 23 16.5 41.5t37.5 18.5t33.5 -12t12.5 -34q0 -19 -14 -30.5t-37 -11.5q7 -12 38 -12q30 0 49 42.5t39 137.5l11 55q-62 -80 -129 -80q-114 0 -114 137q0 75 29 154q29 78 89 136q58 58 130 58q77 0 87 -85l16 61q6 31 22.5 63.5t43 64t68 52t90.5 20.5
q33 0 57 -15.5t24 -45.5zM624 355q0 63 -45 63q-28 0 -63 -50q-32 -45 -59 -121q-24 -70 -24 -127q0 -40 12.5 -61.5t30.5 -21.5q34 0 69 54q35 55 57 129q22 73 22 135zM338 334q0 40 -12 63t-30 23q-25 0 -59 -43q-34 -41 -61 -118t-27 -153q0 -69 46 -69q21 0 53 38
t61 111t29 148z" />
    <glyph glyph-name="afii10087" unicode="&#x445;" horiz-adv-x="564" 
d="M566 408q0 -35 -20 -54t-44 -19q-17 0 -29 16t-12 37q0 18 15 45q-36 -11 -73 -58q-35 -44 -59 -98l46 -181q10 -43 31 -43q24 0 68 113l28 -18q-33 -85 -70 -124t-88 -39q-46 0 -70 30.5t-37 91.5l-7 34q-77 -147 -158 -154q-71 0 -71 65q0 30 17 50t39 20q23 0 38 -15
t15 -38q0 -25 -17 -47q24 10 58 58q36 50 63 114l-43 167q-3 6 -5.5 15t-4.5 14.5t-6.5 9.5t-11.5 4q-25 0 -69 -113l-29 18q34 86 69 124.5t86 38.5q85 0 106 -107l7 -36q81 142 165 142q31 0 52 -16.5t21 -46.5z" />
    <glyph glyph-name="afii10088" unicode="&#x446;" horiz-adv-x="640" 
d="M592 166l30 -18l-15 -31q-27 -56 -30 -149q-1 -25 -7 -43.5t-23 -39t-51 -37.5t-86 -32l-8 32q69 28 88 59q3 4 7 10t6 8.5t4.5 7.5t5 11t4.5 14q7 25 8 31q3 10 9 37q-44 -41 -84 -41t-57 18.5t-17 55.5q0 34 18 115q-94 -189 -212 -189q-106 0 -106 97q0 33 12 78
l48 169q11 39 11 59q0 19 -14 19q-34 0 -87 -116l-30 18q76 163 173 163q89 0 89 -79q0 -32 -23 -116l-27 -101q-13 -48 -13 -77q0 -43 34 -43q38 0 90 79q53 80 74 160l42 163h139l-93 -336q-8 -37 -8 -52q0 -20 16 -20q10 0 29.5 24t37.5 60z" />
    <glyph glyph-name="afii10089" unicode="&#x447;" horiz-adv-x="591" 
d="M555 166l29 -18q-76 -163 -178 -163q-43 0 -65.5 20t-22.5 56q0 47 32 146q-76 -64 -151 -64q-54 0 -74.5 23.5t-20.5 70.5q0 24 17 86t17 66q0 18 -13 18q-16 0 -40.5 -32.5t-47.5 -83.5l-30 18q76 163 173 163q89 0 89 -79q0 -20 -11 -73t-11 -63q0 -45 38 -45
q27 0 51.5 21.5t33.5 50.5l47 174h140l-95 -340q-9 -35 -9 -49q0 -19 17 -19q15 0 38 32t47 84z" />
    <glyph glyph-name="afii10090" unicode="&#x448;" horiz-adv-x="913" 
d="M877 166l30 -18q-76 -163 -172 -163q-40 0 -57 18.5t-17 55.5q0 34 18 115q-40 -85 -100 -137q-58 -52 -116 -52q-43 0 -64.5 24t-21.5 65q0 44 15 100q-37 -78 -99 -134q-61 -55 -117 -55q-102 0 -102 93q0 34 13 82l49 169q10 31 10 59q0 19 -13 19q-15 0 -40.5 -34
t-46.5 -82l-30 18q76 163 173 163q89 0 89 -79q0 -32 -23 -116l-27 -101q-14 -51 -14 -78q0 -23 9 -32.5t29 -9.5q32 0 84 78q50 75 71 146l50 178h134l-77 -282q-14 -56 -14 -78q0 -23 9 -32.5t30 -9.5q31 0 82 75q51 72 71 149l47 178h137l-91 -339q-10 -33 -10 -50
q0 -19 17 -19q16 0 40 32.5t45 83.5z" />
    <glyph glyph-name="afii10091" unicode="&#x449;" horiz-adv-x="913" 
d="M877 166l30 -18l-15 -31q-27 -58 -30 -151q-2 -52 -35 -87t-132 -63l-8 32q52 21 82 51q11 10 22 36q6 13 14 38q3 8 13 51q-40 -39 -83 -39q-40 0 -57 18.5t-17 55.5q0 34 18 115q-40 -85 -100 -137q-58 -52 -116 -52q-43 0 -64.5 24t-21.5 65q0 44 15 100
q-37 -78 -99 -134q-61 -55 -117 -55q-102 0 -102 93q0 39 13 82l49 169q10 31 10 59q0 19 -14 19q-16 0 -40.5 -33t-45.5 -83l-30 18q76 163 173 163q89 0 89 -79q0 -32 -23 -116l-27 -101q-14 -51 -14 -78q0 -23 9 -32.5t29 -9.5q32 0 84 78q50 75 71 146l50 178h134
l-77 -282q-14 -56 -14 -78q0 -23 9 -32.5t29 -9.5q32 0 83 74q52 76 71 150l47 178h137l-91 -339q-10 -30 -10 -49q0 -20 17 -20q23 0 65 77q9 20 20 39z" />
    <glyph glyph-name="afii10092" unicode="&#x44a;" horiz-adv-x="502" 
d="M409 464q8 0 14 -4.5t6 -10.5q0 -25 -26 -33q-46 -21 -104 -68q-62 -50 -78 -94q24 27 66 47q39 19 69 19q37 0 63.5 -12.5t39 -33.5t18 -41.5t5.5 -43.5q0 -32 -14.5 -66.5t-42 -66t-73.5 -51.5t-102 -20q-74 0 -119.5 40.5t-45.5 104.5q0 29 7 54q36 121 176 190
q-39 0 -82 7q-50 8 -57 8q-76 0 -76 -107h-30q0 104 45 150q45 48 108 48q44 0 99 -24q56 -24 76 -24q15 0 28 16t30 16zM304 269q-33 0 -62 -53q-28 -52 -28 -112q0 -78 54 -78q32 0 60 52q29 53 29 111q0 80 -53 80z" />
    <glyph glyph-name="afii10093" unicode="&#x44b;" horiz-adv-x="779" 
d="M743 166l29 -18q-76 -163 -172 -163q-46 0 -68.5 21t-22.5 55q0 39 16 99l50 190q-49 -50 -129 -66q30 -26 30 -89q0 -34 -13.5 -69.5t-39.5 -67.5t-71 -52.5t-101 -20.5q-76 0 -120.5 35.5t-44.5 91.5q0 42 8 72l44 155q10 31 10 48q0 20 -13 20q-16 0 -41 -32.5
t-48 -83.5l-30 18q76 163 178 163q91 0 91 -70q0 -20 -9 -55l-20 -70q46 43 101 43q98 0 151 28q56 29 97 110h140l-96 -346q-8 -32 -8 -43q0 -19 16 -19q15 0 40 33.5t46 82.5zM306 269q-32 0 -61 -51q-29 -52 -29 -114q0 -78 54 -78q32 0 60 52q29 53 29 111q0 80 -53 80z
" />
    <glyph glyph-name="afii10094" unicode="&#x44c;" horiz-adv-x="502" 
d="M481 189q0 -32 -14.5 -66.5t-41.5 -66t-73 -51.5t-103 -20q-74 0 -119.5 40.5t-45.5 104.5q0 22 8 54l43 148q13 39 13 55q0 20 -16 20t-40 -32.5t-48 -83.5l-29 18q76 163 174 163q44 0 67.5 -21t23.5 -58q0 -25 -14 -76l-12 -40q44 43 101 43q70 0 98 -40
q28 -38 28 -91zM357 189q0 80 -54 80q-19 0 -39 -21t-33 -56q-17 -48 -17 -88q0 -78 54 -78q32 0 60 52q29 53 29 111z" />
    <glyph glyph-name="afii10095" unicode="&#x44d;" horiz-adv-x="477" 
d="M94 311l-31 14q36 82 87.5 114.5t121.5 32.5q85 0 135 -50t50 -137q0 -129 -83 -215q-82 -85 -195 -85q-65 0 -106.5 29t-41.5 80q0 32 19.5 52.5t50.5 20.5q26 0 41 -18t15 -40q0 -24 -17 -42.5t-38 -18.5q-12 0 -18 3q20 -27 87 -27q50 0 89.5 50t53.5 143
q-37 0 -150 -5l8 47q124 -4 145 -4q4 24 4 49q0 114 -79 114q-50 0 -84 -25t-64 -82z" />
    <glyph glyph-name="afii10096" unicode="&#x44e;" horiz-adv-x="800" 
d="M775 283q0 -121 -81 -210q-81 -88 -200 -88q-88 0 -137.5 51.5t-49.5 137.5q0 8 3 41h-69l-57 -215h-140l97 350q7 21 7 38q0 20 -15 20q-16 0 -39.5 -32t-47.5 -84l-30 18q23 68 74 115q52 47 104 47q41 0 65 -19t24 -49q0 -25 -8 -62l-21 -79h65q25 96 97 152.5
t171 56.5q87 0 137.5 -52t50.5 -137zM642 327q0 106 -63 106q-37 0 -66.5 -33.5t-45.5 -87.5q-30 -102 -30 -183q0 -51 17.5 -77.5t47.5 -26.5q35 0 64 33.5t45 86.5q31 100 31 182z" />
    <glyph glyph-name="afii10097" unicode="&#x44f;" horiz-adv-x="568" 
d="M532 166l30 -18q-78 -162 -175 -162q-41 0 -60.5 19t-19.5 61q0 15 14 76l10 40h-40q-21 0 -36.5 -20t-28 -49t-29 -58t-47 -49t-73.5 -20q-82 0 -82 84q0 48 22 95l28 -7q-18 -48 -18 -86q0 -33 17 -33q10 0 17.5 15t16 37.5t22 45.5t42.5 41.5t71 23.5
q-62 11 -92.5 45.5t-30.5 77.5q0 64 47 105.5t125 41.5q76 0 120 -74l15 60h136l-79 -287q-21 -78 -21 -98q0 -23 18 -23q12 0 36 34q26 35 45 82zM369 335q0 35 -16.5 57.5t-44.5 22.5q-35 0 -60 -31.5t-25 -77.5q0 -36 21.5 -60t59.5 -24h39l19 72q7 28 7 41z" />
    <glyph glyph-name="afii10071" unicode="&#x451;" horiz-adv-x="467" 
d="M467 368q0 -62 -84 -114q-83 -50 -211 -73q-4 -19 -4 -42q0 -97 79 -97q91 0 155 108l27 -19q-38 -71 -96.5 -108.5t-118.5 -37.5q-84 0 -131.5 49.5t-47.5 132.5q0 121 80 213t197 92q155 0 155 -104zM352 375q0 28 -14 43t-36 15q-53 0 -86 -78q-27 -62 -39 -136
q175 34 175 156zM433 553q-22 0 -38 17.5t-16 40.5q0 26 17 44.5t40 18.5q24 0 40 -17.5t16 -42.5t-17 -43t-42 -18zM241 553q-23 0 -39 17t-16 41q0 26 17 44.5t41 18.5q23 0 39.5 -17.5t16.5 -42.5t-17 -43t-42 -18z" />
    <glyph glyph-name="afii10099" unicode="&#x452;" horiz-adv-x="574" 
d="M164 537h-69l15 47h67l14 55q5 22 5 28q0 19 -29 19h-31l12 39l207 11l-43 -152h167l-14 -47h-167l-54 -202q35 63 86 100t109 37q105 0 105 -96q0 -32 -22 -110l-65 -240q-29 -111 -82.5 -168t-119.5 -57q-49 0 -82 21t-33 61q0 28 17.5 48t43.5 20q23 0 37 -13.5
t14 -36.5q0 -21 -13.5 -34.5t-31.5 -13.5q-11 0 -17 3q3 -20 42 -20q23 0 41.5 39t42.5 126l76 281q12 46 12 75q0 24 -9.5 34.5t-31.5 10.5q-51 0 -98 -80t-78 -207l-29 -115h-140z" />
    <glyph glyph-name="afii10100" unicode="&#x453;" horiz-adv-x="431" 
d="M413 354q0 -107 -96 -149q-15 -6 -47 -17t-49.5 -18.5t-39 -19.5t-31 -27.5t-9.5 -35.5q0 -24 18.5 -37.5t49.5 -13.5q38 0 80 27.5t70 71.5l25 -14q-31 -64 -86 -100t-113 -36q-76 0 -119 34t-43 85q0 55 26.5 91.5t68.5 52.5l39 13.5t41 13.5t36 14.5t31.5 19.5
t19.5 25.5t8 34.5q0 23 -18.5 36.5t-47.5 13.5q-102 0 -166 -103l-23 18q35 72 94 106t126 32q76 0 115.5 -32t39.5 -86zM202 529l-19 13l21 32l20 32q17 28 38 54q23 30 36 40q31 24 59 24q20 -1 29.5 -15.5t3.5 -34.5t-25 -36q-30 -29 -68 -52l-43 -27q-12 -6 -52 -30z
" />
    <glyph glyph-name="afii10101" unicode="&#x454;" horiz-adv-x="467" 
d="M459 369q0 -34 -22 -65t-56 -31q-59 0 -59 59q0 24 15.5 46t36.5 22q22 0 42 -13q-5 22 -28.5 36t-58.5 14q-50 0 -92 -49t-57 -133q81 0 133 4l-13 -47q-9 1 -125 4q-2 -18 -2 -44q0 -62 24 -97t63 -35q85 0 140 109l30 -15q-75 -149 -200 -149q-87 0 -141 50t-54 138
q0 128 82 213q83 86 198 86q65 0 104.5 -26.5t39.5 -76.5z" />
    <glyph glyph-name="afii10102" unicode="&#x455;" horiz-adv-x="442" 
d="M177 21q43 0 72 21t29 61q0 27 -21.5 43.5t-52.5 25.5t-62 21t-52.5 41t-21.5 76q0 75 59 118.5t154 43.5q66 0 107.5 -24.5t41.5 -70.5q0 -31 -16 -51q-17 -20 -45 -20q-29 0 -42 16q-10 17 -11 37.5t12.5 37.5t36.5 17q-11 11 -38 18t-53 7q-46 0 -76 -20t-30 -58
q0 -44 79 -71q27 -8 41 -13t37.5 -17t35.5 -24.5t22 -34t10 -47.5q0 -77 -58.5 -123t-167.5 -46q-69 0 -112 31t-43 82q0 30 16.5 48.5t46.5 18.5q54 0 54 -54q0 -24 -18 -42.5t-42 -18.5q32 -29 108 -29z" />
    <glyph glyph-name="afii10103" unicode="&#x456;" horiz-adv-x="340" 
d="M340 623q0 -30 -22.5 -52.5t-54.5 -22.5q-30 0 -51 21.5t-21 50.5q0 31 22.5 53.5t53.5 22.5t52 -21t21 -52zM304 166l29 -18q-76 -163 -172 -163q-90 0 -90 79q0 29 23 116l41 149q12 41 12 60t-15 19q-14 0 -39 -33.5t-47 -82.5l-30 18q76 162 173 162q89 0 89 -78
q0 -33 -23 -119l-41 -147q-12 -42 -11 -60t16 -18q13 0 38 34q27 35 47 82z" />
    <glyph glyph-name="afii10104" unicode="&#x457;" horiz-adv-x="340" 
d="M346 553q-23 0 -39 17.5t-16 41.5q0 26 17 44.5t40 18.5q24 0 40 -17.5t16 -42.5t-17 -43.5t-41 -18.5zM167 553q-23 0 -39.5 17.5t-16.5 41.5q0 26 17.5 44.5t40.5 18.5q24 0 40 -17.5t16 -42.5t-17 -43.5t-41 -18.5zM317 166l29 -18q-76 -163 -172 -163q-90 0 -90 79
q0 29 23 116l41 149q12 41 12 60t-15 19q-14 0 -39 -33.5t-47 -82.5l-30 18q77 162 173 162q89 0 89 -78q0 -33 -23 -119l-41 -147q-12 -42 -11 -60t16 -18q13 0 38 34q27 35 47 82z" />
    <glyph glyph-name="afii10105" unicode="&#x458;" horiz-adv-x="278" 
d="M271 393q0 -46 -10 -83l-65 -253q-38 -142 -98 -198q-61 -58 -126 -58q-49 0 -82 21t-33 61q0 28 17.5 48t43.5 20q23 0 37 -13.5t14 -36.5q0 -21 -13.5 -34.5t-31.5 -13.5q-11 0 -17 3q3 -20 42 -20q30 0 52 41.5t45 129.5l82 321q11 42 11 60q0 19 -15 19
q-13 0 -37 -32t-48 -81l-30 16q76 160 167 160q95 0 95 -77zM332 623q0 -30 -22.5 -52.5t-53.5 -22.5q-30 0 -51.5 21t-21.5 51q0 31 22.5 53.5t53.5 22.5t52 -21t21 -52z" />
    <glyph glyph-name="afii10106" unicode="&#x459;" horiz-adv-x="752" 
d="M477 178q-12 -36 -12 -75q0 -77 54 -77q36 0 62 56q27 57 27 107q0 80 -54 80q-23 0 -44 -25.5t-33 -65.5zM343 419h-25q-22 0 -32 -10t-17 -36q-7 -22 -18 -65q-10 -38 -18 -64q-17 -68 -35 -114q-26 -65 -43 -87q-41 -56 -89 -56q-35 0 -59 24t-24 59q0 37 21 57.5
t52 20.5q21 0 36.5 -15.5t15.5 -35.5q0 -24 -19 -41.5t-55 -17.5q4 -16 36 -16q40 0 76 79q37 78 85 272q4 13 4 26q0 20 -28 20h-32l11 39h251q46 0 67.5 -15.5t21.5 -53.5q0 -22 -11 -68l-11 -46q46 45 102 45q37 0 63.5 -12.5t39 -33.5t18 -41.5t5.5 -43.5
q0 -32 -14.5 -66.5t-41.5 -66t-73 -51.5t-103 -20q-165 0 -165 143q0 34 11 81l12 46q10 32 12 41l10 36q6 18 6 39q0 48 -43 48z" />
    <glyph glyph-name="afii10107" unicode="&#x45a;" horiz-adv-x="794" 
d="M773 189q0 -32 -14.5 -66.5t-41.5 -66t-73 -51.5t-102 -20q-74 0 -120 40.5t-46 103.5q0 19 9 53l8 35h-152l-57 -217h-140l95 339q2 14 4 26t3 17l1 6q0 20 -17 20q-11 0 -37 -35q-27 -36 -47 -81l-30 18q76 162 173 162q44 0 67 -20t23 -56q0 -37 -16 -100l-9 -32h152
l52 194h140l-51 -182q44 44 101 44q69 0 97 -39.5t28 -91.5zM649 189q0 80 -53 80q-22 0 -42 -22.5t-32 -58.5q-16 -44 -16 -85q0 -77 54 -77q32 0 60 52q29 53 29 111z" />
    <glyph glyph-name="afii10108" unicode="&#x45b;" horiz-adv-x="600" 
d="M574 166l30 -18q-78 -162 -172 -162q-90 0 -90 79q0 32 23 116l27 101q12 45 12 75q0 25 -9.5 35t-31.5 10q-36 0 -82 -55q-45 -54 -65 -126l-58 -221h-140l146 537h-69l15 47h67l15 55q5 22 5 28q0 19 -30 19h-31l12 39l207 11l-43 -152h167l-14 -47h-167l-54 -202
q35 63 86 100t109 37q105 0 105 -96q0 -38 -12 -79l-48 -168q-9 -36 -9 -59q0 -20 14 -20q13 0 38 34q27 35 47 82z" />
    <glyph glyph-name="afii10109" unicode="&#x45c;" horiz-adv-x="581" 
d="M497 692q0 -43 -86 -100l-105 -63l-19 13l42 64q14 23 37 54q27 33 48.5 48.5t47.5 15.5q14 0 24.5 -9.5t10.5 -22.5zM543 166l29 -18q-38 -85 -75.5 -124t-87.5 -39q-48 0 -66 29t-18 88q0 4 0.5 20.5t0.5 21.5q0 39 -10 57.5t-36 18.5h-40l-57 -220h-136l75 280l9 33
q16 48 16 75q0 20 -17 20q-11 0 -37 -35q-27 -36 -47 -81l-30 18q76 162 173 162q42 0 65 -24t23 -65q0 -31 -15 -87l-10 -37h58q40 110 80.5 161.5t97.5 51.5q37 0 63 -23t26 -58q0 -38 -21.5 -60t-53.5 -22q-21 0 -37 16.5t-16 37.5q0 26 20 46.5t56 20.5q-9 12 -38 12
q-71 0 -138 -183q43 -4 66.5 -26t28.5 -51t5.5 -57.5t4 -48t16.5 -19.5q27 0 73 109z" />
    <glyph glyph-name="afii10110" unicode="&#x45e;" horiz-adv-x="506" 
d="M479 692l27 -11q-18 -66 -74 -119q-55 -52 -126 -52q-60 0 -93 29.5t-33 81.5q0 30 18 52t45 22q22 0 37 -16t15 -39q0 -46 -51 -57q21 -29 74 -29q50 0 92 35.5t69 102.5zM505 411q0 -92 -68 -239q-68 -146 -169 -259q-102 -114 -185 -114q-44 0 -68.5 22.5t-24.5 55.5
q0 36 19.5 54t43.5 18q23 0 39.5 -18t16.5 -42q0 -34 -22 -53q37 2 85.5 39.5t90.5 97.5q-56 248 -84 331q-27 86 -55 86q-16 0 -31.5 -22.5t-37.5 -75.5l-30 15q31 83 67 124t86 41q69 7 114 -95q11 -24 25 -74q14 -51 21 -88q11 -48 23 -108q73 139 95 233q-49 39 -49 79
q0 22 14 37t33 15q21 0 36 -18t15 -42z" />
    <glyph glyph-name="afii10193" unicode="&#x45f;" horiz-adv-x="629" 
d="M343 49l20 -25q-31 -33 -33 -102q0 -47 -28 -90t-111 -84l-12 31q73 39 80 92q0 3 1.5 18.5t3 22.5l4.5 22t8.5 26t14 26.5t22 31t30.5 31.5zM376 59q0 43 18 115q-94 -189 -212 -189q-106 0 -106 97q0 38 12 78l48 169q9 33 10 59q0 19 -15 19q-32 0 -85 -116l-30 18
q76 163 173 163q89 0 89 -79q0 -29 -23 -116l-27 -101q-13 -48 -13 -77q0 -43 34 -43q38 0 90 79q53 80 74 160l42 163h139l-94 -339q-9 -31 -9 -51q0 -18 15 -18q17 0 40.5 32t45.5 84l30 -18q-76 -163 -172 -163q-40 0 -57 18.5t-17 55.5z" />
    <glyph glyph-name="afii10050" unicode="&#x490;" horiz-adv-x="593" 
d="M690 905h37l-70 -222h-241q-26 0 -37 -11.5t-22 -51.5l-139 -518q-5 -28 -5 -35q0 -16 8.5 -22t28.5 -6h34l-11 -39h-327l11 39h35q28 0 41.5 12.5t24.5 50.5l138 518q6 24 6 35q0 28 -37 28h-35l11 39h379q27 0 41.5 4.5t34.5 20.5q39 32 94 158z" />
    <glyph glyph-name="afii10098" unicode="&#x491;" horiz-adv-x="426" 
d="M413 354q0 -55 -26.5 -92t-69.5 -54l-39.5 -13.5l-41 -14t-36 -15t-32 -19.5t-19.5 -25t-8 -34q0 -51 68 -51q38 0 80 27.5t70 71.5l25 -14q-31 -64 -86 -100t-113 -36q-76 0 -119 34t-43 85q0 55 26.5 93t68.5 55q17 7 58 21.5t60.5 23.5t38 28t18.5 44q0 24 -18 37
t-48 13q-94 0 -165 -95l-24 18q23 34 63 70t52 51q50 59 56 166h104q-17 -99 -86 -161q13 4 31 4q76 0 115.5 -32t39.5 -86z" />
    <glyph glyph-name="endash" unicode="&#x2013;" horiz-adv-x="578" 
d="M543 301l-22 -70h-475l22 70h475z" />
    <glyph glyph-name="emdash" unicode="&#x2014;" horiz-adv-x="783" 
d="M799 301l-21 -70h-783l21 70h783z" />
    <glyph glyph-name="quoteleft" unicode="&#x2018;" horiz-adv-x="247" 
d="M169 527q0 -30 -20.5 -52t-49.5 -22q-28 0 -47 21.5t-19 52.5q0 59 55 117q56 58 120 90l9 -22q-84 -54 -99 -119q24 -5 37.5 -25t13.5 -41z" />
    <glyph glyph-name="quoteright" unicode="&#x2019;" horiz-adv-x="209" 
d="M43 659q0 30 20.5 52t48.5 22q29 0 47.5 -21.5t18.5 -52.5q0 -60 -56 -119q-55 -58 -119 -88l-9 22q83 51 99 118q-24 5 -37 24.5t-13 42.5z" />
    <glyph glyph-name="quotesinglbase" unicode="&#x201a;" horiz-adv-x="233" 
d="M171 58q0 -59 -56 -118q-57 -60 -119 -89l-10 21q90 59 100 119q-23 5 -36.5 25.5t-13.5 42.5q0 31 19.5 52t48.5 21t48 -21.5t19 -52.5z" />
    <glyph glyph-name="quotedblleft" unicode="&#x201c;" horiz-adv-x="456" 
d="M169 526q0 -30 -20.5 -52t-49.5 -22q-28 0 -47 21.5t-19 52.5q0 60 55 118q56 59 120 89l9 -22q-84 -56 -99 -119q24 -5 37.5 -25t13.5 -41zM377 526q0 -30 -20.5 -52t-49.5 -22q-28 0 -47 21.5t-19 52.5q0 59 56 118t119 89l10 -22q-84 -52 -101 -118q25 -5 38.5 -25
t13.5 -42z" />
    <glyph glyph-name="quotedblright" unicode="&#x201d;" horiz-adv-x="418" 
d="M251 659q0 30 20.5 52t48.5 22t47.5 -21.5t19.5 -52.5q0 -59 -56 -118t-119 -89l-10 22q84 52 100 118q-25 5 -38 24.5t-13 42.5zM43 659q0 30 20.5 52t48.5 22q29 0 47.5 -21.5t18.5 -52.5q0 -60 -56 -119q-55 -58 -119 -88l-9 22q84 53 99 118q-24 5 -37 24.5t-13 42.5
z" />
    <glyph glyph-name="quotedblbase" unicode="&#x201e;" horiz-adv-x="425" 
d="M166 58q0 -59 -56 -118q-57 -60 -119 -89l-10 21q84 56 99 120q-23 5 -36 25t-13 41q0 30 19.5 52t48.5 22q28 0 47.5 -21.5t19.5 -52.5zM374 58q0 -59 -56 -118q-57 -60 -119 -89l-9 21q85 56 98 120q-23 5 -36 25t-13 42q0 30 20.5 51.5t48.5 21.5t47 -21.5t19 -52.5z
" />
    <glyph glyph-name="dagger" unicode="&#x2020;" horiz-adv-x="525" 
d="M533 464q0 -34 -20 -52t-53 -18q-20 0 -65 16q-51 18 -74 23q-12 -48 -12 -74q0 -43 31 -77q-45 -70 -87 -171q-43 -106 -95 -299h-37q76 285 76 410q0 33 -3 60q31 22 60 63.5t41 87.5q-30 -6 -88 -23q-54 -16 -74 -16t-30.5 11.5t-10.5 30.5q0 34 20 52t53 18
q16 0 64 -17q50 -18 75 -23q13 59 13 189q0 35 20.5 54t51.5 19q40 0 40 -36q0 -26 -42 -106q-43 -82 -56 -120q24 4 86 22q57 18 76 18q18 0 29 -12t11 -30z" />
    <glyph glyph-name="daggerdbl" unicode="&#x2021;" horiz-adv-x="525" 
d="M346 312q-76 -55 -98 -137q27 5 87 23q57 17 75 17q40 0 40 -42q0 -28 -21.5 -49t-49.5 -21q-18 0 -66 17q-50 18 -75 23q-7 -21 -7 -46q0 -45 31 -82q-64 -48 -111 -203h-36q8 18 12 67q6 48 6 71q0 39 -17 65q75 53 96 128q-26 -5 -86 -23q-57 -17 -75 -17
q-39 0 -39 46q0 31 20 48.5t50 17.5q17 0 65 -17q50 -18 75 -23q7 27 7 55q0 50 -29 82q73 48 94 121q-36 -6 -91 -23q-51 -16 -71 -16q-41 0 -41 34q0 39 20 58.5t53 19.5q16 0 61 -17q46 -17 77 -23q11 47 11 122q0 50 5 79q5 31 21 44.5t51 16.5q42 0 42 -34
q0 -35 -46 -117q-44 -77 -56 -111q35 5 91 23q54 17 71 17q41 0 41 -34q0 -32 -21 -55t-52 -23q-18 0 -60 16q-47 18 -80 23q-7 -22 -7 -46q0 -42 33 -75z" />
    <glyph glyph-name="bullet" unicode="&#x2022;" horiz-adv-x="340" 
d="M293 328q0 -54 -35 -92q-34 -36 -84 -36q-49 0 -81 34t-32 87q0 55 33.5 90.5t84.5 35.5q48 0 81 -34t33 -85z" />
    <glyph glyph-name="ellipsis" unicode="&#x2026;" horiz-adv-x="735" 
d="M166 61q0 -30 -20 -51.5t-49 -21.5q-28 0 -46.5 20t-18.5 50t20 52t49 22q28 0 46.5 -21t18.5 -50zM420 61q2 -47 -43.5 -67t-72.5 14q-32 29 -13 78t63 46q28 0 47 -21t19 -50zM674 61q2 -47 -43.5 -67t-72.5 14q-32 29 -13 78t63 46q28 0 47 -21t19 -50z" />
    <glyph glyph-name="perthousand" unicode="&#x2030;" horiz-adv-x="1000" 
d="M89 438q0 88 55 170q56 83 137 83q46 0 70.5 -29.5t24.5 -80.5q0 -95 -58 -174q-57 -78 -134 -78q-47 0 -71 29t-24 80zM273 662q-37 0 -74 -97q-37 -95 -37 -158q0 -49 30 -49q35 0 73 95q38 97 38 160q0 49 -30 49zM712 677l-632 -677h-64l633 677h63zM678 94
q0 87 56 170t137 83q46 0 70 -29.5t24 -79.5q0 -95 -58 -174q-57 -79 -134 -79q-46 0 -70.5 29.5t-24.5 79.5zM862 318q-37 0 -74 -97q-37 -95 -37 -158q0 -48 30 -48q35 0 73 95q38 96 38 159q0 49 -30 49zM351 94q0 88 55 170q56 83 137 83q46 0 70.5 -29.5t24.5 -79.5
q0 -96 -58 -175q-57 -78 -135 -78q-46 0 -70 29.5t-24 79.5zM535 318q-36 0 -74 -96q-37 -95 -37 -159q0 -48 29 -48q36 0 74 95q38 96 38 159q0 49 -30 49z" />
    <glyph glyph-name="guilsinglleft" unicode="&#x2039;" horiz-adv-x="285" 
d="M291 478h45l-174 -223l49 -223h-44l-124 223z" />
    <glyph glyph-name="guilsinglright" unicode="&#x203a;" horiz-adv-x="315" 
d="M158 478l124 -223l-249 -223h-45l176 223l-51 223h45z" />
    <glyph glyph-name="fraction" unicode="&#x2044;" horiz-adv-x="713" 
d="M712 677l-632 -677h-64l633 677h63z" />
    <glyph glyph-name="Euro" unicode="&#x20ac;" horiz-adv-x="601" 
d="M596 735h34l-47 -284h-37q-11 245 -132 245q-58 0 -104 -54q-45 -51 -80 -194h260l-38 -55h-234q-9 -40 -13 -74h203l-38 -56h-172q-2 -30 -2 -47q0 -90 30.5 -134.5t83.5 -44.5q142 0 218 213h38q-49 -154 -136 -213q-77 -52 -157 -52q-95 0 -158 57t-77 162
q-3 29 -3 59h-48l16 56h36q3 30 14 74h-31l16 55h32q47 134 137 211q91 77 200 77q87 0 140 -86z" />
    <glyph glyph-name="afii61352" unicode="&#x2116;" horiz-adv-x="1090" 
d="M232 166l121 454q5 22 5 35q0 28 -36 28h-50l11 39h219l179 -463h4l77 297q18 71 52 121q39 57 116 57q37 0 63 -25t26 -67q0 -38 -22 -64.5t-55 -26.5q-30 0 -49.5 18.5t-19.5 47.5q0 25 21.5 46t48.5 22q-8 8 -29 8q-70 0 -108 -137l-150 -556h-45l-231 548h-4
l-100 -382q-18 -71 -52 -121q-39 -57 -116 -57q-37 0 -63 25t-26 67q0 38 22 64.5t55 26.5q30 0 49.5 -18.5t19.5 -47.5q0 -25 -21.5 -46t-48.5 -22q8 -8 29 -8q70 0 108 137zM742 72h249l-14 -48h-249zM1071 371q0 -96 -57 -174t-135 -78q-46 0 -70.5 29t-24.5 79
q0 87 56 170t137 83q46 0 70 -29.5t24 -79.5zM998 401q0 48 -30 48q-39 0 -75 -96q-36 -95 -36 -156q0 -47 31 -47q35 0 73 95q37 93 37 156z" />
    <glyph glyph-name="trademark" unicode="&#x2122;" horiz-adv-x="1110" 
d="M924 722h202l-10 -34h-26q-19 0 -28.5 -12t-16.5 -41l-63 -237q-4 -12 -4 -23q0 -18 24 -18h26l-10 -34h-243l10 34h33q20 0 29.5 9t15.5 32l76 288h-4l-232 -367h-33q-8 141 -26 368l-4 -1l-77 -288q-4 -12 -4 -23q0 -18 24 -18h34l-10 -34h-156l10 34h26q18 0 27.5 10
t15.5 34l65 246q5 17 5 23q0 18 -25 18h-25l9 34h209l12 -217zM59 564l54 158h391l-33 -158h-34q0 1 1 18t1 26q0 80 -37 80h-30q-13 0 -24 -38l-67 -252q-4 -12 -4 -23q0 -18 25 -18h27l-9 -34h-238l9 34h28q18 0 27.5 9.5t15.5 31.5l68 252q5 20 5 27q0 11 -14 11h-24
q-24 0 -45 -24q-22 -25 -60 -100h-33z" />
    <glyph glyph-name="Omega" unicode="&#x2126;" horiz-adv-x="759" 
d="M277 130l-36 -130h-275l31 198h37q0 -63 7 -85q7 -23 21.5 -29t58.5 -6h48q25 0 32 25l5 18q-149 39 -149 189q0 46 17 109q44 153 150.5 235t256.5 82q120 0 184.5 -52.5t64.5 -151.5q0 -50 -18 -113q-69 -246 -297 -298l-5 -18q0 -2 -0.5 -4t-1.5 -3v-2q0 -16 20 -16
h46q42 0 62 5q37 12 94 115h37l-80 -198h-276l37 130q131 48 198 289q27 97 27 150q0 128 -103 128q-153 0 -230 -278q-27 -97 -27 -154q0 -104 64 -135z" />
    <glyph glyph-name="partialdiff" unicode="&#x2202;" horiz-adv-x="531" 
d="M188 597q0 -17 -12.5 -30.5t-30.5 -13.5t-31.5 14t-13.5 35q0 40 36 67t103 27q111 0 188 -89t77 -265q0 -66 -15.5 -127t-47 -114t-86.5 -84.5t-126 -31.5q-90 0 -142 53.5t-52 141.5q0 132 58 211q59 80 163 80q92 0 120 -69q-2 119 -41.5 186.5t-112.5 67.5
q-37 0 -59 -22q25 -15 25 -37zM235 25q39 0 70 48q31 46 47.5 104.5t16.5 107.5q0 130 -71 130q-36 0 -63.5 -30.5t-42.5 -80.5q-26 -98 -26 -176q0 -52 18.5 -77.5t50.5 -25.5z" />
    <glyph glyph-name="increment" unicode="&#x2206;" horiz-adv-x="646" 
d="M536 736l63 -693l-14 -43h-572l13 43l449 693h61zM142 86h366l-43 516z" />
    <glyph glyph-name="product" unicode="&#x220f;" horiz-adv-x="808" 
d="M141 722h737l-11 -39h-35q-28 0 -43 -13t-24 -50l-138 -518q-6 -24 -6 -35q0 -28 37 -28h35l-12 -39h-326l11 39h35q28 0 41.5 12.5t24.5 50.5l144 536q4 15 4 27q0 18 -26 18h-180q-21 0 -30 -8t-17 -37l-144 -536q-9 -32 -2.5 -47.5t34.5 -15.5h34l-11 -39h-327l11 39
h35q27 0 41 13t25 50l138 518q6 21 6 35q0 28 -37 28h-35z" />
    <glyph glyph-name="summation" unicode="&#x2211;" horiz-adv-x="641" 
d="M-32 39l288 333l-152 311l8 39h537l-36 -241h-37q1 9 1 37q0 88 -19 128q-14 25 -31 31t-49 6h-140q-53 0 -53 -14q0 -13 17 -49l120 -248l-230 -270q-23 -29 -23 -35q0 -28 40 -28h137q32 0 45.5 2t33.5 13q32 17 59 64t68 155h37l-73 -273h-556z" />
    <glyph glyph-name="minus" unicode="&#x2212;" horiz-adv-x="520" 
d="M467 361l-10 -63h-394l10 63h394z" />
    <glyph glyph-name="radical" unicode="&#x221a;" horiz-adv-x="584" 
d="M522 767h152l-23 -79h-93l-323 -705h-52l-65 405l-62 -30l-7 63l141 64l56 -349z" />
    <glyph glyph-name="infinity" unicode="&#x221e;" horiz-adv-x="626" 
d="M264 314q-16 34 -41.5 58t-49.5 24q-41 0 -71 -32q-29 -32 -29 -70q0 -27 17.5 -44.5t44.5 -17.5q47 0 129 82zM605 348q0 -76 -50 -131q-49 -54 -134 -54q-46 0 -76.5 24t-55.5 72q-28 -28 -50 -48q-21 -18 -54 -33t-65 -15q-50 0 -82 34t-32 83q0 76 51 131
q52 55 132 55q48 0 78 -24t53 -73q28 28 50 48q21 18 54.5 33.5t65.5 15.5q50 0 82.5 -34t32.5 -84zM537 334q0 27 -17 44.5t-46 17.5q-47 0 -129 -82q16 -34 41.5 -58t49.5 -24q40 0 70 31q31 31 31 71z" />
    <glyph glyph-name="integral" unicode="&#x222b;" horiz-adv-x="472" 
d="M2 -96q49 0 84 104q32 99 59 266q26 167 34 193q32 119 100 212q76 104 188 104q41 0 68.5 -18t27.5 -52t-24 -59.5t-55 -25.5q-21 0 -33 13t-12 34q0 22 15 43.5t40 27.5q-12 5 -27 5q-53 0 -90 -135q-21 -82 -31 -132l-33 -158q-17 -83 -35 -150q-30 -107 -94 -198
q-34 -49 -81 -78.5t-97 -29.5q-39 0 -66.5 18.5t-27.5 54.5q0 28 23 57t53 29q18 0 29.5 -13t11.5 -34q0 -20 -13.5 -40.5t-34.5 -31.5q5 -6 21 -6z" />
    <glyph glyph-name="approxequal" unicode="&#x2248;" horiz-adv-x="516" 
d="M483 462l34 -31q-58 -61 -82 -77q-28 -17 -69 -17q-29 -1 -67 18t-70.5 37.5t-48.5 17.5q-17 0 -32.5 -12t-50.5 -51l-33 32q54 59 81 75q29 18 70 18q42 0 101 -37q61 -36 85 -36q17 0 33.5 13t48.5 50zM431 279l33 -32q-54 -58 -82 -76q-28 -17 -69 -17q-43 0 -104 36
q-59 37 -81 37q-17 0 -33.5 -12.5t-50.5 -50.5l-32 31q56 61 81 76q29 18 69 18q42 0 101 -37q62 -36 85 -36q18 0 35 13t48 50z" />
    <glyph glyph-name="notequal" unicode="&#x2260;" horiz-adv-x="520" 
d="M410 453h88l-18 -63h-124l-100 -122h190l-17 -63h-228l-85 -105l-42 34l55 71h-95l18 63h131l100 122h-198l19 63h234l87 106l43 -33z" />
    <glyph glyph-name="lessequal" unicode="&#x2264;" horiz-adv-x="520" 
d="M16 96h393l-18 -63h-393zM90 373l444 183l-19 -68l-299 -128l231 -128l-19 -68l-345 183z" />
    <glyph glyph-name="greaterequal" unicode="&#x2265;" horiz-adv-x="520" 
d="M23 96h394l-18 -63h-394zM148 556l344 -183l-8 -26l-443 -183l19 68l299 128l-231 128z" />
    <glyph glyph-name="lozenge" unicode="&#x25ca;" horiz-adv-x="524" 
d="M337 722h49l85 -361l-286 -361h-49l-83 361zM130 361l57 -265l208 265l-61 265z" />
    <glyph glyph-name="commaaccent" unicode="&#xf6c3;" horiz-adv-x="201" 
d="M223 -130q0 -59 -56 -118t-119 -89l-10 21q88 60 99 119q-25 5 -37.5 26.5t-12.5 45.5q0 29 20.5 49t48.5 20t47.5 -21.5t19.5 -52.5z" />
    <glyph glyph-name="NULL" horiz-adv-x="0" 
 />
    <glyph glyph-name="CR" horiz-adv-x="333" 
 />
    <glyph glyph-name="zero.alt" horiz-adv-x="601" 
d="M225 -15q-104 0 -158 50t-54 134q0 118 94 211q95 93 246 93q107 0 159 -55q53 -55 53 -135q0 -118 -94 -208q-93 -90 -246 -90zM235 25q37 0 72 35.5t57 89.5q45 114 45 196q0 41 -18.5 64t-54.5 23q-50 0 -94 -60q-43 -61 -62 -131q-20 -72 -20 -124q0 -93 75 -93z" />
    <glyph glyph-name="one.alt" 
d="M451 472h31l-99 -372q-6 -21 -6 -32q0 -29 37 -29h88l-12 -39h-417l11 39h87q27 0 41.5 13t23.5 48l46 181q8 34 8 41q0 17 -17 17l-3 -1q-2 0 -6.5 -0.5t-9.5 -0.5l-91 -16l11 39q136 27 193 52q53 24 84 60z" />
    <glyph glyph-name="two.alt" 
d="M514 176h37q-12 -89 -56 -139t-141 -50q-59 0 -130.5 32t-98.5 32q-33 0 -33 -19q0 -2 11.5 -9.5t11.5 -14.5q0 -22 -33 -22q-11 0 -20 9t-9 20q0 46 35.5 83.5t92.5 62.5q14 7 51.5 22.5t56 24t47.5 25t43.5 30.5t25.5 33.5t11 40.5q0 39 -34 64t-90 25q-66 0 -109 -34
q-44 -35 -44 -66q17 29 52 29q23 0 38.5 -14.5t15.5 -37.5q0 -25 -21 -44.5t-50 -19.5q-32 0 -52.5 21t-20.5 52q0 69 68 114q68 46 163 46q101 0 161 -38t60 -102q0 -50 -36 -85.5t-96 -54.5q-55 -16 -116 -30q-55 -11 -109 -32q-52 -20 -68 -47q37 22 103 22q32 0 100 -16
q70 -16 90 -16q41 0 62.5 22t30.5 81z" />
    <glyph glyph-name="three.alt" 
d="M570 325q0 -68 -58.5 -116t-158.5 -62q68 -10 108.5 -50t40.5 -93q0 -92 -86 -149q-85 -58 -206 -58q-78 0 -133 39q-55 37 -55 115q0 37 22.5 59.5t54.5 22.5q29 0 47 -17.5t18 -46.5q0 -27 -21 -45t-49 -18q-16 0 -27 6q6 -32 43 -51q38 -21 77 -21q76 0 122 55
q47 56 47 142q0 40 -20.5 65.5t-55.5 25.5q-9 0 -34 -4q-28 -3 -43 -3q-16 0 -16 18q0 15 9.5 25.5t21.5 10.5q13 0 38 -4q29 -3 35 -3q56 0 93 46q39 46 39 108q0 51 -29.5 79t-76.5 28q-51 0 -96 -22q-46 -22 -61 -59q12 5 27 5q29 0 47 -15.5t18 -40.5q0 -31 -20 -50.5
t-50 -19.5q-31 0 -51.5 19.5t-20.5 51.5q0 86 75 130q77 44 179 44q93 0 149.5 -38.5t56.5 -108.5z" />
    <glyph glyph-name="four.alt" 
d="M441 71h116l-20 -71h-116l-42 -160l-116 -28h-39l50 188h-264l20 71l489 401h31zM294 71l60 218l-270 -218h210z" />
    <glyph glyph-name="five.alt" 
d="M509 52q0 -107 -81 -181q-80 -74 -215 -74q-77 0 -132 34t-55 106q0 36 22.5 62.5t54.5 26.5q29 0 47.5 -18.5t18.5 -49.5q0 -28 -18 -48t-45 -20q-29 0 -44 23q4 -33 41 -53t87 -20q80 0 126 70q47 70 47 166q0 114 -108 114q-62 0 -112 -50q-11 -56 -48 -56
q-22 0 -22 22q0 17 26 48l88 316q109 -28 232 -28q17 0 35 2t32.5 4.5t27.5 6t23 7.5t17.5 6.5t11.5 4.5l3 2q3 0 3 -4q0 -57 -72 -97q-70 -40 -161 -40q-63 0 -135 20l-47 -158q56 35 128 35q111 0 167 -54q57 -52 57 -125z" />
    <glyph glyph-name="six.alt" 
d="M580 524q0 -33 -20.5 -55t-50.5 -22t-51 19.5t-21 50.5q0 24 16.5 44.5t40.5 20.5q13 0 24 -4q-9 15 -38 24t-58 9q-138 0 -205 -277q59 72 150 72q85 0 130.5 -46t45.5 -119q0 -116 -79 -186q-77 -70 -211 -70q-101 0 -154.5 63t-53.5 173q0 194 103 309
q103 117 274 117q64 0 111 -33q47 -32 47 -90zM402 261q0 44 -19.5 70.5t-52.5 26.5q-48 0 -86 -42q-65 -74 -65 -191q0 -44 20 -72t56 -28q68 0 107 74q40 73 40 162z" />
    <glyph glyph-name="seven.alt" horiz-adv-x="601" 
d="M586 432q0 -97 -104 -216l-86 -99q-104 -122 -104 -247q0 -33 -25.5 -53.5t-62.5 -20.5q-32 0 -51 16t-19 44q0 71 33.5 135t88.5 112q47 41 105 83q56 40 98 75q44 37 57 70q-35 -22 -112 -22q-26 0 -106 20q-78 21 -97 21q-40 0 -66 -32q-23 -31 -37 -121h-37
q12 94 34 153q41 116 159 121q81 0 145 -50t112 -50q15 0 25 9.5t10 21.5q0 1 -11 12t-11 22q0 35 36 35q10 0 18 -12t8 -27z" />
    <glyph glyph-name="eight.alt" 
d="M579 528q0 -120 -167 -168q65 -34 97.5 -69t32.5 -85q0 -71 -49 -123q-91 -98 -256 -98q-92 0 -144.5 38.5t-52.5 99.5q0 57 43 107.5t129 79.5q-87 54 -87 127q0 72 41 121q77 89 245 89q76 0 122 -34t46 -85zM392 143q0 48 -34 76q-37 31 -113 68q-63 -35 -93 -69
t-30 -79q0 -51 34.5 -83t89.5 -32q66 0 106 31.5t40 87.5zM496 520q-1 39 -27.5 63t-69.5 24q-53 0 -96 -30q-43 -28 -43 -83q0 -37 28 -63.5t91 -54.5q62 35 89.5 69t27.5 75z" />
    <glyph glyph-name="nine.alt" 
d="M14 -80q0 33 20.5 55t50.5 22t51 -19.5t21 -50.5q0 -22 -16 -38.5t-40 -16.5t-39 6q12 -21 46 -33t63 -12q136 0 207 290q-55 -73 -150 -73q-85 0 -130.5 46t-45.5 119q0 115 79 185q80 71 211 71q98 0 152 -57.5t56 -158.5q0 -38 -3 -71q-17 -173 -118 -279
q-102 -108 -258 -108q-65 0 -111 33t-46 90zM194 196q0 -44 19.5 -70.5t51.5 -26.5q50 0 86 41q65 76 65 192q0 44 -20 72t-56 28q-68 0 -107 -74t-39 -162z" />
    <glyph glyph-name="afii10024.alt" horiz-adv-x="1025" 
d="M930 191h37q-29 -101 -71 -152q-40 -49 -117 -49q-94 0 -94 111q0 31 7 86q8 62 8 82q0 39 -15 62.5t-45 23.5h-41l-67 -253q-6 -22 -6 -34q0 -17 8.5 -23t29.5 -6h42l-11 -39h-343l11 39h42q27 0 42 13t24 50l67 253h-49q-33 0 -60 -27q-13 -13 -24.5 -32t-18.5 -34.5
t-19 -44.5l-19 -45l-42 -88q-22 -42 -60.5 -68t-84.5 -26q-97 0 -97 91q0 13 17 110h36q-12 -53 -12 -89q0 -43 20 -43q29 0 77 111q85 211 234 223q0 301 -84 301q-19 0 -25 -6q12 -6 20.5 -19t8.5 -25q0 -34 -22 -56t-54 -22q-24 0 -41.5 20t-17.5 45q0 35 28 69
q29 36 90 36q47 3 77 -24.5t44 -73.5q9 -22 14 -71q4 -43 6 -79l3 -92h66l60 224q5 18 5 34q0 29 -37 29h-42l10 39h343l-10 -39h-42q-28 0 -42.5 -13t-23.5 -50l-60 -224h65l62 110q27 45 58 90q35 50 64 76q69 64 142 64q33 0 50 -21t17 -53q0 -38 -28 -67
q-27 -29 -62 -29q-53 0 -53 45q0 44 43 72q-4 2 -12 2q-83 0 -234 -292q46 -5 74 -32q25 -25 33 -55t8 -79q0 -27 -3 -67q-2 -54 -2 -55q0 -46 22 -46q36 0 76 132z" />
    <glyph glyph-name="afii10028.alt" horiz-adv-x="756" 
d="M661 182h36q-31 -101 -75.5 -146.5t-117.5 -45.5q-59 0 -82 35.5t-23 107.5q0 8 2 62t2 59q0 51 -13.5 76t-47.5 25h-58l-67 -253q-6 -23 -6 -34q0 -17 8.5 -23t29.5 -6h35l-11 -39h-327l11 39h35q26 0 41 13.5t24 49.5l138 518q5 20 5 33q0 17 -8.5 23.5t-28.5 6.5h-35
l10 39h328l-10 -39h-35q-28 0 -42.5 -13t-23.5 -50l-60 -224h81q77 150 152 238q87 102 193 102q37 0 57.5 -23.5t20.5 -56.5q0 -39 -26.5 -68.5t-62.5 -29.5q-26 0 -44.5 15.5t-18.5 38.5q0 26 23.5 48.5t56.5 22.5q-9 9 -27 9q-46 0 -129 -84q-82 -83 -143 -215
q86 0 111 -64q22 -52 22 -130q0 -21 -1 -38v-36q0 -66 24 -66q38 0 77 123z" />
    <glyph glyph-name="afii10061.alt" horiz-adv-x="756" 
d="M661 182h36q-31 -101 -75.5 -146.5t-117.5 -45.5q-59 0 -82 35.5t-23 107.5q0 8 2 62t2 59q0 51 -13.5 76t-47.5 25h-58l-67 -253q-6 -23 -6 -34q0 -17 8.5 -23t29.5 -6h35l-11 -39h-327l11 39h35q26 0 41 13.5t24 49.5l138 518q5 20 5 33q0 17 -8.5 23.5t-28.5 6.5h-35
l10 39h328l-10 -39h-35q-28 0 -42.5 -13t-23.5 -50l-60 -224h81q77 150 152 238q87 102 193 102q37 0 57.5 -23.5t20.5 -56.5q0 -39 -26.5 -68.5t-62.5 -29.5q-26 0 -44.5 15.5t-18.5 38.5q0 26 23.5 48.5t56.5 22.5q-9 9 -27 9q-46 0 -129 -84q-82 -83 -143 -215
q86 0 111 -64q22 -52 22 -130q0 -21 -1 -38v-36q0 -66 24 -66q38 0 77 123zM453 793l-19 13l21 32l20 32q17 28 38 54q23 30 36 40q31 24 59 24q20 -1 29.5 -15.5t3.5 -34.5t-25 -36q-30 -29 -68 -52l-43 -27q-12 -6 -52 -30z" />
    </font>
</defs>
</svg>
