<?xml version="1.0" standalone="no"?>
<!DOCTYPE svg PUBLIC "-//W3C//DTD SVG 20010904//EN"
 "http://www.w3.org/TR/2001/REC-SVG-20010904/DTD/svg10.dtd">
<svg version="1.0" xmlns="http://www.w3.org/2000/svg"
 width="100.000000pt" height="100.000000pt" viewBox="0 0 100.000000 100.000000"
 preserveAspectRatio="xMidYMid meet">
<metadata>
Created by potrace 1.11, written by Peter Selinger 2001-2013
</metadata>
<g transform="translate(0.000000,100.000000) scale(0.100000,-0.100000)"
fill="#000000" stroke="none">
<path d="M10 848 c4 -18 38 -150 74 -293 37 -143 69 -269 72 -280 2 -11 12
-51 22 -90 l18 -70 86 -3 86 -3 63 255 c35 141 67 250 71 243 4 -7 30 -105 58
-218 28 -112 55 -221 61 -241 l10 -38 83 0 83 0 33 127 c18 71 62 243 99 383
l67 255 -79 3 c-44 2 -81 1 -83 -1 -4 -4 -51 -211 -95 -419 -13 -60 -26 -108
-29 -108 -3 0 -31 102 -63 228 -31 125 -62 244 -68 265 l-10 38 -72 -3 -72 -3
-65 -262 c-36 -144 -68 -265 -71 -267 -3 -3 -29 101 -58 232 -29 130 -54 244
-56 252 -2 8 -4 23 -4 33 -1 15 -12 17 -85 17 l-84 0 8 -32z"/>
</g>
</svg>
